<?xml version="1.0" encoding="UTF-8"?>
<!DOCTYPE svg PUBLIC "-//W3C//DTD SVG 1.1//EN" "http://www.w3.org/Graphics/SVG/1.1/DTD/svg11.dtd">
<svg xmlns="http://www.w3.org/2000/svg" version="1.1" width="1280px" height="1280px" style="shape-rendering:geometricPrecision; text-rendering:geometricPrecision; image-rendering:optimizeQuality; fill-rule:evenodd; clip-rule:evenodd" xmlns:xlink="http://www.w3.org/1999/xlink">
<g><path style="opacity:0.383" fill="#2fa26d" d="M 504.5,196.5 C 602.102,197.205 699.769,197.872 797.5,198.5C 794.518,199.165 791.352,199.498 788,199.5C 693.166,199.191 598.666,198.191 504.5,196.5 Z"/></g>
<g><path style="opacity:0.935" fill="#15ad63" d="M 74.5,196.5 C 77.1667,196.5 79.8333,196.5 82.5,196.5C 81.3915,197.29 80.0581,197.79 78.5,198C 103.833,198.167 129.167,198.333 154.5,198.5C 180.176,198.5 205.509,197.833 230.5,196.5C 237.143,197.165 243.809,197.665 250.5,198C 252.097,200.188 252.431,202.354 251.5,204.5C 251.141,202.629 250.141,201.129 248.5,200C 190.501,199.5 132.501,199.333 74.5,199.5C 74.5,198.5 74.5,197.5 74.5,196.5 Z"/></g>
<g><path style="opacity:0.412" fill="#2ca36d" d="M 82.5,196.5 C 131.886,197.815 181.219,197.815 230.5,196.5C 205.509,197.833 180.176,198.5 154.5,198.5C 129.167,198.333 103.833,198.167 78.5,198C 80.0581,197.79 81.3915,197.29 82.5,196.5 Z"/></g>
<g><path style="opacity:1" fill="#00be62" d="M 74.5,196.5 C 74.5,197.5 74.5,198.5 74.5,199.5C 132.501,199.333 190.501,199.5 248.5,200C 250.141,201.129 251.141,202.629 251.5,204.5C 252.44,206.612 253.606,208.612 255,210.5C 262.702,218.035 270.202,225.702 277.5,233.5C 277.771,237.136 279.437,239.97 282.5,242C 282.167,242.333 281.833,242.667 281.5,243C 282.988,244.717 284.821,245.884 287,246.5C 287.483,247.448 287.649,248.448 287.5,249.5C 288.93,249.421 290.264,249.754 291.5,250.5C 295.318,256.035 299.652,261.035 304.5,265.5C 309.79,266.948 313.79,270.115 316.5,275C 318.078,276.094 319.745,276.928 321.5,277.5C 324.763,281.94 328.263,286.273 332,290.5C 338.167,295.333 343.667,300.833 348.5,307C 351.065,309.08 353.732,310.913 356.5,312.5C 369.05,326.554 382.217,340.221 396,353.5C 397.826,357.676 400.992,360.342 405.5,361.5C 412.4,370.241 419.9,378.574 428,386.5C 436.719,394.556 445.385,402.556 454,410.5C 455.259,413.356 456.759,416.023 458.5,418.5C 461.308,421.077 464.641,423.911 468.5,427C 468.167,427.333 467.833,427.667 467.5,428C 469.955,429.631 472.455,429.797 475,428.5C 476.036,424.377 476.87,420.21 477.5,416C 476.505,344.196 476.171,272.362 476.5,200.5C 584.169,200.167 691.835,200.5 799.5,201.5C 806.811,202.331 814.144,202.831 821.5,203C 844.287,206.328 866.953,209.828 889.5,213.5C 896.679,214.169 903.679,215.669 910.5,218C 913.039,218.796 915.372,218.629 917.5,217.5C 918.167,217.5 918.5,217.833 918.5,218.5C 923.641,221.61 928.974,224.443 934.5,227C 940.111,228.244 945.778,229.244 951.5,230C 959.099,233.305 966.766,236.305 974.5,239C 975.26,240.441 975.926,241.941 976.5,243.5C 991.572,246.619 1005.41,252.619 1018,261.5C 1018.46,260.906 1018.63,260.239 1018.5,259.5C 1025.2,263.847 1031.87,268.18 1038.5,272.5C 1038.41,273.496 1038.75,274.329 1039.5,275C 1044.56,278.188 1049.56,281.355 1054.5,284.5C 1054.83,284.5 1055.17,284.5 1055.5,284.5C 1055.28,285.675 1055.61,286.675 1056.5,287.5C 1062.54,291.883 1068.54,296.216 1074.5,300.5C 1082.13,306.464 1089.13,313.131 1095.5,320.5C 1103.14,328.98 1110.64,337.647 1118,346.5C 1118.8,349.244 1119.8,351.911 1121,354.5C 1123.37,355.129 1125.54,356.129 1127.5,357.5C 1130.93,360.601 1133.6,364.268 1135.5,368.5C 1137.42,373.103 1139.26,377.77 1141,382.5C 1142.33,383.167 1143.67,383.833 1145,384.5C 1148.48,391.431 1151.82,398.431 1155,405.5C 1156.61,406.386 1158.11,407.386 1159.5,408.5C 1162.66,417.148 1165.83,425.814 1169,434.5C 1171.46,436.531 1172.8,439.198 1173,442.5C 1173.28,441.584 1173.78,440.918 1174.5,440.5C 1175.17,440.5 1175.5,440.833 1175.5,441.5C 1174.37,443.966 1174.2,446.633 1175,449.5C 1177.88,455.024 1179.22,461.024 1179,467.5C 1180.16,469.916 1181.83,471.916 1184,473.5C 1184.33,477.833 1184.67,482.167 1185,486.5C 1185.91,487.328 1186.58,488.328 1187,489.5C 1187.33,488.833 1187.67,488.167 1188,487.5C 1190.51,493.209 1192.18,499.209 1193,505.5C 1193.37,507.491 1194.21,509.158 1195.5,510.5C 1195.5,510.833 1195.5,511.167 1195.5,511.5C 1195.57,516.854 1195.9,522.187 1196.5,527.5C 1195.35,527.791 1194.68,528.624 1194.5,530C 1195.4,533.263 1196.56,536.429 1198,539.5C 1201.12,563.008 1203.45,586.675 1205,610.5C 1205.98,640.822 1204.48,670.988 1200.5,701C 1201.23,702.766 1201.57,704.599 1201.5,706.5C 1199.23,721.078 1197.57,735.745 1196.5,750.5C 1196.5,750.833 1196.5,751.167 1196.5,751.5C 1193.87,757.155 1192.21,763.322 1191.5,770C 1191.53,771.07 1191.86,771.903 1192.5,772.5C 1192.5,773.167 1192.17,773.5 1191.5,773.5C 1190.88,773.389 1190.38,773.056 1190,772.5C 1188.54,775.372 1187.38,778.372 1186.5,781.5C 1183.99,794.059 1180.99,806.725 1177.5,819.5C 1177.77,821.099 1177.43,822.432 1176.5,823.5C 1175.21,824.058 1174.38,825.058 1174,826.5C 1171.58,833.274 1169.08,839.941 1166.5,846.5C 1165.18,846.33 1164.01,846.663 1163,847.5C 1161.22,852.377 1160.06,857.377 1159.5,862.5C 1156.18,871.147 1151.85,879.147 1146.5,886.5C 1141.59,892.615 1136.42,898.615 1131,904.5C 1129.96,906.715 1129.29,909.048 1129,911.5C 1127.49,913.174 1125.66,914.174 1123.5,914.5C 1123.53,918.037 1122.03,920.704 1119,922.5C 1117.37,925.412 1115.87,928.412 1114.5,931.5C 1110.25,938.09 1105.25,944.09 1099.5,949.5C 1099.44,948.957 1099.11,948.624 1098.5,948.5C 1097.41,949.727 1096.08,950.56 1094.5,951C 1088.3,959.535 1080.8,966.702 1072,972.5C 1071.52,973.448 1071.35,974.448 1071.5,975.5C 1068.25,979.784 1064.25,983.118 1059.5,985.5C 1053.36,989.434 1047.03,993.267 1040.5,997C 1034.63,1001.39 1028.96,1005.89 1023.5,1010.5C 1019.87,1011.98 1016.2,1013.48 1012.5,1015C 1005.85,1019.99 998.85,1024.49 991.5,1028.5C 983.377,1030.61 975.71,1033.78 968.5,1038C 962.823,1038.84 957.156,1039.67 951.5,1040.5C 951.5,1041.83 951.5,1043.17 951.5,1044.5C 942.82,1047.56 934.154,1050.72 925.5,1054C 914.682,1055.64 904.016,1057.64 893.5,1060C 890.618,1061.52 887.618,1062.85 884.5,1064C 874.805,1064.72 865.471,1066.72 856.5,1070C 853.446,1070.82 850.446,1070.65 847.5,1069.5C 845.31,1067.14 843.31,1064.64 841.5,1062C 839.593,1060.88 837.593,1060.04 835.5,1059.5C 834.167,1058.17 832.833,1056.83 831.5,1055.5C 831.649,1054.45 831.483,1053.45 831,1052.5C 824.473,1045.97 817.973,1039.47 811.5,1033C 810.552,1032.52 809.552,1032.35 808.5,1032.5C 808.291,1031.08 807.791,1029.74 807,1028.5C 802.597,1025.22 798.763,1021.39 795.5,1017C 794.552,1016.52 793.552,1016.35 792.5,1016.5C 789.167,1013.83 786.167,1010.83 783.5,1007.5C 783.649,1006.45 783.483,1005.45 783,1004.5C 772.721,995.265 762.888,985.599 753.5,975.5C 752.534,973.604 752.201,971.604 752.5,969.5C 750.42,968.956 748.42,968.122 746.5,967C 744.809,962.136 741.476,959.303 736.5,958.5C 736.5,956.833 736.5,955.167 736.5,953.5C 731.148,951.721 727.148,948.221 724.5,943C 723.207,942.51 721.873,942.343 720.5,942.5C 720.5,940.833 720.5,939.167 720.5,937.5C 718.533,937.739 716.699,937.406 715,936.5C 713.397,933.388 711.563,930.388 709.5,927.5C 704.267,923.155 699.433,918.488 695,913.5C 694.517,912.552 694.351,911.552 694.5,910.5C 692.5,910.5 690.5,910.5 688.5,910.5C 688.78,907.612 687.447,906.112 684.5,906C 680.716,902.892 677.716,899.225 675.5,895C 674.552,894.517 673.552,894.351 672.5,894.5C 672.5,893.167 672.5,891.833 672.5,890.5C 670.712,890.785 669.045,890.452 667.5,889.5C 665.761,885.664 663.094,884.331 659.5,885.5C 659.816,899.882 659.483,914.215 658.5,928.5C 660.171,930.51 660.838,932.843 660.5,935.5C 659.5,935.5 658.5,935.5 657.5,935.5C 657.372,937.655 657.872,939.655 659,941.5C 659.5,987.499 659.667,1033.5 659.5,1079.5C 598.494,1079.38 537.494,1079.38 476.5,1079.5C 476.667,951.166 476.5,822.833 476,694.5C 473.116,692.616 470.949,690.116 469.5,687C 467.866,686.506 466.199,686.34 464.5,686.5C 464.762,685.022 464.429,683.689 463.5,682.5C 461.941,681.926 460.441,681.26 459,680.5C 457.423,677.249 455.423,674.249 453,671.5C 451.644,670.62 450.144,670.286 448.5,670.5C 448.5,669.167 448.5,667.833 448.5,666.5C 445.675,666.919 443.509,665.919 442,663.5C 440.166,660.562 438.666,657.562 437.5,654.5C 434.32,652.511 430.987,650.677 427.5,649C 424.236,645.227 420.57,642.06 416.5,639.5C 415.833,639.5 415.5,639.167 415.5,638.5C 411.265,632.758 406.432,627.425 401,622.5C 400.426,619.679 399.092,617.346 397,615.5C 395.301,614.594 393.467,614.261 391.5,614.5C 389.949,611.437 387.782,608.771 385,606.5C 384.667,605.167 384.333,603.833 384,602.5C 380.437,599.725 377.104,596.725 374,593.5C 373.517,592.552 373.351,591.552 373.5,590.5C 371.833,590.5 370.167,590.5 368.5,590.5C 368.722,586.252 366.722,583.585 362.5,582.5C 356.339,575.173 349.673,568.339 342.5,562C 340.372,561.345 338.372,560.511 336.5,559.5C 335.833,559.5 335.5,559.167 335.5,558.5C 331.5,552.5 326.5,547.5 320.5,543.5C 319.833,543.5 319.5,543.167 319.5,542.5C 314.917,536.576 309.917,530.909 304.5,525.5C 300.421,521.412 296.088,517.745 291.5,514.5C 285.833,509.5 280.5,504.167 275.5,498.5C 269.957,491.449 263.79,484.782 257,478.5C 256.51,477.207 256.343,475.873 256.5,474.5C 255.5,474.5 254.5,474.5 253.5,474.5C 251.443,474.577 249.276,474.577 247,474.5C 246,476.167 245,477.833 244,479.5C 243.5,495.497 243.333,511.497 243.5,527.5C 244.833,527.5 246.167,527.5 247.5,527.5C 247.5,671.5 247.5,815.5 247.5,959.5C 246.167,959.5 244.833,959.5 243.5,959.5C 243.5,975.5 243.5,991.5 243.5,1007.5C 244.833,1007.5 246.167,1007.5 247.5,1007.5C 247.5,1012.83 247.5,1018.17 247.5,1023.5C 246.167,1023.5 244.833,1023.5 243.5,1023.5C 243.5,1028.83 243.5,1034.17 243.5,1039.5C 244.833,1039.5 246.167,1039.5 247.5,1039.5C 247.405,1052.18 247.739,1064.85 248.5,1077.5C 248.586,1078.5 248.252,1079.33 247.5,1080C 187.827,1080.8 128.16,1080.46 68.5,1079C 67.565,1076.62 67.2317,1074.12 67.5,1071.5C 67.5303,1028.83 67.1969,986.164 66.5,943.5C 67.1298,697.641 67.7965,451.807 68.5,206C 68.1639,204.97 67.4972,204.47 66.5,204.5C 66.238,203.022 66.5713,201.689 67.5,200.5C 69.9192,200.086 71.9192,199.086 73.5,197.5C 73.5,196.833 73.8333,196.5 74.5,196.5 Z M 670.5,352.5 C 670.833,352.5 671.167,352.5 671.5,352.5C 710.501,352.333 749.501,352.5 788.5,353C 814.037,354.608 839.037,359.108 863.5,366.5C 880.253,372.543 896.253,380.21 911.5,389.5C 917.828,394.16 924.161,398.826 930.5,403.5C 948.868,419.865 963.868,438.865 975.5,460.5C 979.088,466.675 982.422,473.009 985.5,479.5C 1000.73,517.326 1009.07,556.659 1010.5,597.5C 1010.5,598.167 1010.83,598.5 1011.5,598.5C 1011.69,614.504 1012.02,630.504 1012.5,646.5C 1012.17,647.167 1011.83,647.833 1011.5,648.5C 1011.6,680.212 1008.26,711.545 1001.5,742.5C 993.886,774.346 981.22,804.012 963.5,831.5C 962.5,831.833 961.833,832.5 961.5,833.5C 950.791,849.379 937.791,863.212 922.5,875C 921.5,875.667 920.5,875.667 919.5,875C 917.63,872.96 915.63,871.127 913.5,869.5C 892.5,847.833 871.167,826.5 849.5,805.5C 817.833,773.167 785.833,741.167 753.5,709.5C 748.5,703.833 743.167,698.5 737.5,693.5C 713.5,668.833 689.167,644.5 664.5,620.5C 663.928,618.745 663.094,617.078 662,615.5C 661.333,528.5 661.333,441.5 662,354.5C 664.456,352.679 667.289,352.012 670.5,352.5 Z"/></g>
<g><path style="opacity:1" fill="#12b366" d="M 504.5,196.5 C 598.666,198.191 693.166,199.191 788,199.5C 791.352,199.498 794.518,199.165 797.5,198.5C 825.43,200.344 853.097,204.01 880.5,209.5C 883.256,211.15 886.256,212.483 889.5,213.5C 866.953,209.828 844.287,206.328 821.5,203C 814.144,202.831 806.811,202.331 799.5,201.5C 691.835,200.5 584.169,200.167 476.5,200.5C 476.171,272.362 476.505,344.196 477.5,416C 476.87,420.21 476.036,424.377 475,428.5C 472.455,429.797 469.955,429.631 467.5,428C 467.833,427.667 468.167,427.333 468.5,427C 464.641,423.911 461.308,421.077 458.5,418.5C 460.258,418.877 461.925,419.544 463.5,420.5C 466.27,422.561 468.604,425.061 470.5,428C 471.784,428.684 472.951,428.517 474,427.5C 474.167,390.5 474.333,353.5 474.5,316.5C 474.5,279.161 473.833,242.161 472.5,205.5C 472.779,202.882 473.446,200.382 474.5,198C 484.455,196.705 494.455,196.205 504.5,196.5 Z"/></g>
<g><path style="opacity:0.31" fill="#2f9e6a" d="M 880.5,209.5 C 892.936,211.692 905.27,214.359 917.5,217.5C 915.372,218.629 913.039,218.796 910.5,218C 903.679,215.669 896.679,214.169 889.5,213.5C 886.256,212.483 883.256,211.15 880.5,209.5 Z"/></g>
<g><path style="opacity:1" fill="#27a769" d="M 918.5,218.5 C 953.684,227.762 987.017,241.429 1018.5,259.5C 1018.63,260.239 1018.46,260.906 1018,261.5C 1005.41,252.619 991.572,246.619 976.5,243.5C 975.926,241.941 975.26,240.441 974.5,239C 966.766,236.305 959.099,233.305 951.5,230C 945.778,229.244 940.111,228.244 934.5,227C 928.974,224.443 923.641,221.61 918.5,218.5 Z"/></g>
<g><path style="opacity:0.318" fill="#259a64" d="M 472.5,205.5 C 473.833,242.161 474.5,279.161 474.5,316.5C 474.333,353.5 474.167,390.5 474,427.5C 472.951,428.517 471.784,428.684 470.5,428C 468.604,425.061 466.27,422.561 463.5,420.5C 461.925,419.544 460.258,418.877 458.5,418.5C 456.759,416.023 455.259,413.356 454,410.5C 445.385,402.556 436.719,394.556 428,386.5C 419.9,378.574 412.4,370.241 405.5,361.5C 427.253,382.921 448.92,404.255 470.5,425.5C 471.325,426.386 472.325,426.719 473.5,426.5C 473.83,352.762 473.497,279.096 472.5,205.5 Z"/></g>
<g><path style="opacity:1" fill="#19aa64" d="M 277.5,233.5 C 292.5,247.833 307.167,262.5 321.5,277.5C 319.745,276.928 318.078,276.094 316.5,275C 313.79,270.115 309.79,266.948 304.5,265.5C 299.652,261.035 295.318,256.035 291.5,250.5C 290.264,249.754 288.93,249.421 287.5,249.5C 287.649,248.448 287.483,247.448 287,246.5C 284.821,245.884 282.988,244.717 281.5,243C 281.833,242.667 282.167,242.333 282.5,242C 279.437,239.97 277.771,237.136 277.5,233.5 Z"/></g>
<g><path style="opacity:0.141" fill="#2c9865" d="M 1038.5,272.5 C 1044.23,276.025 1049.56,280.025 1054.5,284.5C 1049.56,281.355 1044.56,278.188 1039.5,275C 1038.75,274.329 1038.41,273.496 1038.5,272.5 Z"/></g>
<g><path style="opacity:0.533" fill="#229c62" d="M 321.5,277.5 C 333.5,288.833 345.167,300.5 356.5,312.5C 353.732,310.913 351.065,309.08 348.5,307C 343.667,300.833 338.167,295.333 332,290.5C 328.263,286.273 324.763,281.94 321.5,277.5 Z"/></g>
<g><path style="opacity:0.51" fill="#279562" d="M 1055.5,284.5 C 1062.43,289.13 1068.76,294.464 1074.5,300.5C 1068.54,296.216 1062.54,291.883 1056.5,287.5C 1055.61,286.675 1055.28,285.675 1055.5,284.5 Z"/></g>
<g><path style="opacity:0.533" fill="#229c62" d="M 356.5,312.5 C 373.167,328.5 389.5,344.833 405.5,361.5C 400.992,360.342 397.826,357.676 396,353.5C 382.217,340.221 369.05,326.554 356.5,312.5 Z"/></g>
<g><path style="opacity:0.737" fill="#0b9d57" d="M 661.5,351.5 C 702.167,350.167 742.833,350.167 783.5,351.5C 745.996,351.168 708.663,351.502 671.5,352.5C 671.167,352.5 670.833,352.5 670.5,352.5C 667.713,351.523 664.713,351.19 661.5,351.5 Z"/></g>
<g><path style="opacity:1" fill="#22a064" d="M 1095.5,320.5 C 1107.65,331.647 1118.32,343.98 1127.5,357.5C 1125.54,356.129 1123.37,355.129 1121,354.5C 1119.8,351.911 1118.8,349.244 1118,346.5C 1110.64,337.647 1103.14,328.98 1095.5,320.5 Z"/></g>
<g><path style="opacity:0.347" fill="#3a9868" d="M 671.5,352.5 C 708.663,351.502 745.996,351.168 783.5,351.5C 810.462,352.327 836.795,356.827 862.5,365C 863.056,365.383 863.389,365.883 863.5,366.5C 839.037,359.108 814.037,354.608 788.5,353C 749.501,352.5 710.501,352.333 671.5,352.5 Z"/></g>
<g><path style="opacity:0.235" fill="#2b9b63" d="M 863.5,366.5 C 875.82,369.328 887.486,373.828 898.5,380C 903.256,382.699 907.589,385.866 911.5,389.5C 896.253,380.21 880.253,372.543 863.5,366.5 Z"/></g>
<g><path style="opacity:0.988" fill="#1ea664" d="M 1135.5,368.5 C 1145.01,380.831 1153.01,394.164 1159.5,408.5C 1158.11,407.386 1156.61,406.386 1155,405.5C 1151.82,398.431 1148.48,391.431 1145,384.5C 1143.67,383.833 1142.33,383.167 1141,382.5C 1139.26,377.77 1137.42,373.103 1135.5,368.5 Z"/></g>
<g><path style="opacity:0.98" fill="#289d65" d="M 1159.5,408.5 C 1165.52,418.554 1170.52,429.22 1174.5,440.5C 1173.78,440.918 1173.28,441.584 1173,442.5C 1172.8,439.198 1171.46,436.531 1169,434.5C 1165.83,425.814 1162.66,417.148 1159.5,408.5 Z"/></g>
<g><path style="opacity:0.267" fill="#26a065" d="M 930.5,403.5 C 934.087,405.206 937.42,407.372 940.5,410C 941.793,410.49 943.127,410.657 944.5,410.5C 944.5,411.833 944.5,413.167 944.5,414.5C 945.833,414.5 947.167,414.5 948.5,414.5C 948.338,416.527 948.505,418.527 949,420.5C 959.966,432.432 969.466,445.432 977.5,459.5C 977.043,460.298 976.376,460.631 975.5,460.5C 963.868,438.865 948.868,419.865 930.5,403.5 Z"/></g>
<g><path style="opacity:1" fill="#1faa64" d="M 1175.5,441.5 C 1184.18,463.898 1190.85,486.898 1195.5,510.5C 1194.21,509.158 1193.37,507.491 1193,505.5C 1192.18,499.209 1190.51,493.209 1188,487.5C 1187.67,488.167 1187.33,488.833 1187,489.5C 1186.58,488.328 1185.91,487.328 1185,486.5C 1184.67,482.167 1184.33,477.833 1184,473.5C 1181.83,471.916 1180.16,469.916 1179,467.5C 1179.22,461.024 1177.88,455.024 1175,449.5C 1174.2,446.633 1174.37,443.966 1175.5,441.5 Z"/></g>
<g><path style="opacity:0.243" fill="#20a264" d="M 253.5,474.5 C 254.5,474.5 255.5,474.5 256.5,474.5C 256.343,475.873 256.51,477.207 257,478.5C 263.79,484.782 269.957,491.449 275.5,498.5C 268.113,491.109 260.446,484.109 252.5,477.5C 252.586,476.504 252.252,475.671 251.5,475C 252.094,474.536 252.761,474.369 253.5,474.5 Z"/></g>
<g><path style="opacity:1" fill="#07b963" d="M 66.5,204.5 C 67.4972,204.47 68.1639,204.97 68.5,206C 67.7965,451.807 67.1298,697.641 66.5,943.5C 67.1969,986.164 67.5303,1028.83 67.5,1071.5C 66.8826,1071.39 66.3826,1071.06 66,1070.5C 65.8332,785.333 65.3332,500.333 64.5,215.5C 64.2467,211.585 64.9133,207.919 66.5,204.5 Z"/></g>
<g><path style="opacity:0.991" fill="#22a566" d="M 985.5,479.5 C 987.143,481.973 989.31,483.973 992,485.5C 993.031,494.991 995.698,503.991 1000,512.5C 1001.25,519.336 1002.91,526.002 1005,532.5C 1006.7,548.212 1008.7,563.878 1011,579.5C 1011.82,585.681 1011.65,591.681 1010.5,597.5C 1009.07,556.659 1000.73,517.326 985.5,479.5 Z"/></g>
<g><path style="opacity:0.239" fill="#1d9f64" d="M 291.5,514.5 C 296.088,517.745 300.421,521.412 304.5,525.5C 309.917,530.909 314.917,536.576 319.5,542.5C 309.833,533.5 300.5,524.167 291.5,514.5 Z"/></g>
<g><path style="opacity:0.569" fill="#279f65" d="M 1195.5,511.5 C 1199.3,526.513 1201.97,541.846 1203.5,557.5C 1201.49,547.515 1199.16,537.515 1196.5,527.5C 1195.9,522.187 1195.57,516.854 1195.5,511.5 Z"/></g>
<g><path style="opacity:0.212" fill="#1f9f64" d="M 320.5,543.5 C 326.5,547.5 331.5,552.5 335.5,558.5C 330.167,553.833 325.167,548.833 320.5,543.5 Z"/></g>
<g><path style="opacity:0.261" fill="#1a8f5c" d="M 661.5,351.5 C 664.713,351.19 667.713,351.523 670.5,352.5C 667.289,352.012 664.456,352.679 662,354.5C 661.333,441.5 661.333,528.5 662,615.5C 663.094,617.078 663.928,618.745 664.5,620.5C 663.206,619.71 662.039,618.71 661,617.5C 660.168,528.666 660.334,439.999 661.5,351.5 Z"/></g>
<g><path style="opacity:1" fill="#18ae65" d="M 336.5,559.5 C 338.372,560.511 340.372,561.345 342.5,562C 349.673,568.339 356.339,575.173 362.5,582.5C 366.722,583.585 368.722,586.252 368.5,590.5C 370.167,590.5 371.833,590.5 373.5,590.5C 373.351,591.552 373.517,592.552 374,593.5C 377.104,596.725 380.437,599.725 384,602.5C 384.333,603.833 384.667,605.167 385,606.5C 387.782,608.771 389.949,611.437 391.5,614.5C 372.833,596.5 354.5,578.167 336.5,559.5 Z"/></g>
<g><path style="opacity:0.208" fill="#269261" d="M 1204.5,561.5 C 1207.05,594.446 1208.05,627.446 1207.5,660.5C 1207,629.791 1205.67,598.958 1203.5,568C 1203.5,565.639 1203.84,563.473 1204.5,561.5 Z"/></g>
<g><path style="opacity:0.967" fill="#0eb365" d="M 1196.5,527.5 C 1199.16,537.515 1201.49,547.515 1203.5,557.5C 1203.83,558.833 1204.17,560.167 1204.5,561.5C 1203.84,563.473 1203.5,565.639 1203.5,568C 1205.67,598.958 1207,629.791 1207.5,660.5C 1207.67,661.492 1207.34,662.158 1206.5,662.5C 1205.14,677.199 1203.48,691.866 1201.5,706.5C 1201.57,704.599 1201.23,702.766 1200.5,701C 1204.48,670.988 1205.98,640.822 1205,610.5C 1203.45,586.675 1201.12,563.008 1198,539.5C 1196.56,536.429 1195.4,533.263 1194.5,530C 1194.68,528.624 1195.35,527.791 1196.5,527.5 Z"/></g>
<g><path style="opacity:0.932" fill="#0bb162" d="M 64.5,215.5 C 65.3332,500.333 65.8332,785.333 66,1070.5C 66.3826,1071.06 66.8826,1071.39 67.5,1071.5C 67.2317,1074.12 67.565,1076.62 68.5,1079C 128.16,1080.46 187.827,1080.8 247.5,1080C 248.252,1079.33 248.586,1078.5 248.5,1077.5C 248.833,1077.5 249.167,1077.5 249.5,1077.5C 249.67,1078.82 249.337,1079.99 248.5,1081C 187.459,1081.83 126.459,1081.66 65.5,1080.5C 64.5,792.167 64.1667,503.834 64.5,215.5 Z"/></g>
<g><path style="opacity:0.957" fill="#1ea867" d="M 1011.5,598.5 C 1012.79,599.058 1013.62,600.058 1014,601.5C 1014.5,604.5 1015,607.5 1015.5,610.5C 1014.73,622.148 1014.23,633.814 1014,645.5C 1013.62,646.056 1013.12,646.389 1012.5,646.5C 1012.02,630.504 1011.69,614.504 1011.5,598.5 Z"/></g>
<g><path style="opacity:0.184" fill="#21a566" d="M 391.5,614.5 C 393.467,614.261 395.301,614.594 397,615.5C 399.092,617.346 400.426,619.679 401,622.5C 406.432,627.425 411.265,632.758 415.5,638.5C 407.167,630.833 399.167,622.833 391.5,614.5 Z"/></g>
<g><path style="opacity:1" fill="#17b166" d="M 664.5,620.5 C 689.167,644.5 713.5,668.833 737.5,693.5C 733.468,692.306 730.468,689.806 728.5,686C 725.827,686.437 723.66,685.27 722,682.5C 721.549,684.929 720.715,685.096 719.5,683C 720.517,681.951 720.684,680.784 720,679.5C 715.627,674.792 710.961,670.459 706,666.5C 705.667,667.167 705.333,667.833 705,668.5C 704.667,666.833 704.333,665.167 704,663.5C 701.167,661.333 698.667,658.833 696.5,656C 694.5,655.333 692.5,654.667 690.5,654C 691.167,653.667 691.833,653.333 692.5,653C 689.007,648.507 685.173,644.341 681,640.5C 678.438,634.437 673.938,630.77 667.5,629.5C 666.03,626.682 665.03,623.682 664.5,620.5 Z"/></g>
<g><path style="opacity:0.384" fill="#229c60" d="M 1206.5,662.5 C 1205.92,692.289 1202.59,721.622 1196.5,750.5C 1197.57,735.745 1199.23,721.078 1201.5,706.5C 1203.48,691.866 1205.14,677.199 1206.5,662.5 Z"/></g>
<g><path style="opacity:0.678" fill="#209c62" d="M 737.5,693.5 C 743.167,698.5 748.5,703.833 753.5,709.5C 751.956,709.297 750.622,708.63 749.5,707.5C 745.08,703.089 741.08,698.422 737.5,693.5 Z"/></g>
<g><path style="opacity:0.902" fill="#2aa067" d="M 1011.5,648.5 C 1012.12,648.611 1012.62,648.944 1013,649.5C 1013.02,680.424 1009.69,711.09 1003,741.5C 1002.62,742.056 1002.12,742.389 1001.5,742.5C 1008.26,711.545 1011.6,680.212 1011.5,648.5 Z"/></g>
<g><path style="opacity:1" fill="#0cb366" d="M 416.5,639.5 C 420.57,642.06 424.236,645.227 427.5,649C 430.987,650.677 434.32,652.511 437.5,654.5C 438.666,657.562 440.166,660.562 442,663.5C 443.509,665.919 445.675,666.919 448.5,666.5C 448.5,667.833 448.5,669.167 448.5,670.5C 450.144,670.286 451.644,670.62 453,671.5C 455.423,674.249 457.423,677.249 459,680.5C 460.441,681.26 461.941,681.926 463.5,682.5C 464.429,683.689 464.762,685.022 464.5,686.5C 466.199,686.34 467.866,686.506 469.5,687C 470.949,690.116 473.116,692.616 476,694.5C 476.5,822.833 476.667,951.166 476.5,1079.5C 537.494,1079.38 598.494,1079.38 659.5,1079.5C 659.667,1033.5 659.5,987.499 659,941.5C 657.872,939.655 657.372,937.655 657.5,935.5C 658.5,935.5 659.5,935.5 660.5,935.5C 660.5,983.833 660.5,1032.17 660.5,1080.5C 598.821,1081.83 537.154,1081.83 475.5,1080.5C 474.833,952.167 474.167,823.833 473.5,695.5C 471.106,692.103 468.106,689.437 464.5,687.5C 448.167,671.833 432.167,655.833 416.5,639.5 Z"/></g>
<g><path style="opacity:1" fill="#06b964" d="M 253.5,474.5 C 252.761,474.369 252.094,474.536 251.5,475C 252.252,475.671 252.586,476.504 252.5,477.5C 252.167,477.5 251.833,477.5 251.5,477.5C 250.624,477.369 249.957,477.702 249.5,478.5C 250.833,678.294 250.833,877.961 249.5,1077.5C 249.167,1077.5 248.833,1077.5 248.5,1077.5C 247.739,1064.85 247.405,1052.18 247.5,1039.5C 246.167,1039.5 244.833,1039.5 243.5,1039.5C 243.5,1034.17 243.5,1028.83 243.5,1023.5C 244.833,1023.5 246.167,1023.5 247.5,1023.5C 247.5,1018.17 247.5,1012.83 247.5,1007.5C 246.167,1007.5 244.833,1007.5 243.5,1007.5C 243.5,991.5 243.5,975.5 243.5,959.5C 244.833,959.5 246.167,959.5 247.5,959.5C 247.5,815.5 247.5,671.5 247.5,527.5C 246.167,527.5 244.833,527.5 243.5,527.5C 243.333,511.497 243.5,495.497 244,479.5C 245,477.833 246,476.167 247,474.5C 249.276,474.577 251.443,474.577 253.5,474.5 Z"/></g>
<g><path style="opacity:0.196" fill="#279863" d="M 1196.5,751.5 C 1195.33,758.53 1193.99,765.53 1192.5,772.5C 1191.86,771.903 1191.53,771.07 1191.5,770C 1192.21,763.322 1193.87,757.155 1196.5,751.5 Z"/></g>
<g><path style="opacity:1" fill="#18af65" d="M 753.5,709.5 C 785.833,741.167 817.833,773.167 849.5,805.5C 847.745,804.928 846.078,804.094 844.5,803C 840.048,796.543 834.381,791.543 827.5,788C 825.489,784.286 822.323,782.453 818,782.5C 817.667,782.833 817.333,783.167 817,783.5C 816.504,781.965 816.67,780.465 817.5,779C 817.138,777.775 816.638,776.609 816,775.5C 812.93,773.553 810.43,771.053 808.5,768C 805.574,767.782 802.74,767.282 800,766.5C 799.289,764.633 799.789,763.133 801.5,762C 800,759.167 797.833,757 795,755.5C 793.561,753.725 792.561,751.725 792,749.5C 784.063,743.865 776.729,737.532 770,730.5C 769.667,731.167 769.333,731.833 769,732.5C 769.011,728.174 767.011,725.174 763,723.5C 760.399,718.408 757.232,713.741 753.5,709.5 Z"/></g>
<g><path style="opacity:0.338" fill="#279764" d="M 464.5,687.5 C 468.106,689.437 471.106,692.103 473.5,695.5C 474.167,823.833 474.833,952.167 475.5,1080.5C 537.154,1081.83 598.821,1081.83 660.5,1080.5C 660.5,1032.17 660.5,983.833 660.5,935.5C 660.833,935.5 661.167,935.5 661.5,935.5C 661.833,984.171 661.5,1032.84 660.5,1081.5C 598.5,1082.83 536.5,1082.83 474.5,1081.5C 473.667,953.501 473.167,825.501 473,697.5C 470.331,694 467.498,690.667 464.5,687.5 Z"/></g>
<g><path style="opacity:0.933" fill="#1faa64" d="M 1191.5,773.5 C 1188.36,789.394 1183.7,804.728 1177.5,819.5C 1180.99,806.725 1183.99,794.059 1186.5,781.5C 1187.38,778.372 1188.54,775.372 1190,772.5C 1190.38,773.056 1190.88,773.389 1191.5,773.5 Z"/></g>
<g><path style="opacity:0.58" fill="#299f68" d="M 1001.5,742.5 C 995.788,775.362 983.288,805.362 964,832.5C 963.601,832.272 963.435,831.938 963.5,831.5C 981.22,804.012 993.886,774.346 1001.5,742.5 Z"/></g>
<g><path style="opacity:1" fill="#18af65" d="M 849.5,805.5 C 871.167,826.5 892.5,847.833 913.5,869.5C 908.427,865.934 903.76,861.768 899.5,857C 895.254,854.758 891.587,851.758 888.5,848C 886.945,846.354 885.279,846.021 883.5,847C 884.668,845.129 884.168,843.629 882,842.5C 881.549,844.929 880.715,845.096 879.5,843C 880.279,839.416 878.779,836.916 875,835.5C 872.138,832.22 869.638,828.72 867.5,825C 863.225,822.724 859.559,819.724 856.5,816C 853.781,814.455 851.281,814.288 849,815.5C 849.319,813.257 849.152,811.09 848.5,809C 849.167,808.667 849.833,808.333 850.5,808C 849.748,807.329 849.414,806.496 849.5,805.5 Z"/></g>
<g><path style="opacity:1" fill="#24a867" d="M 1176.5,823.5 C 1172.17,837.153 1166.5,850.153 1159.5,862.5C 1160.06,857.377 1161.22,852.377 1163,847.5C 1164.01,846.663 1165.18,846.33 1166.5,846.5C 1169.08,839.941 1171.58,833.274 1174,826.5C 1174.38,825.058 1175.21,824.058 1176.5,823.5 Z"/></g>
<g><path style="opacity:0.635" fill="#249f63" d="M 961.5,833.5 C 963.465,833.948 963.798,834.948 962.5,836.5C 956.498,842.339 950.998,848.673 946,855.5C 939.099,863.072 931.599,869.905 923.5,876C 918.516,876.536 915.182,874.369 913.5,869.5C 915.63,871.127 917.63,872.96 919.5,875C 920.5,875.667 921.5,875.667 922.5,875C 937.791,863.212 950.791,849.379 961.5,833.5 Z"/></g>
<g><path style="opacity:0.976" fill="#26a867" d="M 1146.5,886.5 C 1137.55,902.739 1126.88,917.739 1114.5,931.5C 1115.87,928.412 1117.37,925.412 1119,922.5C 1122.03,920.704 1123.53,918.037 1123.5,914.5C 1125.66,914.174 1127.49,913.174 1129,911.5C 1129.29,909.048 1129.96,906.715 1131,904.5C 1136.42,898.615 1141.59,892.615 1146.5,886.5 Z"/></g>
<g><path style="opacity:0.999" fill="#1cab65" d="M 783.5,1007.5 C 743.287,967.787 703.287,927.953 663.5,888C 663.167,887.833 662.833,887.667 662.5,887.5C 661.501,903.486 661.167,919.486 661.5,935.5C 661.167,935.5 660.833,935.5 660.5,935.5C 660.838,932.843 660.171,930.51 658.5,928.5C 659.483,914.215 659.816,899.882 659.5,885.5C 663.094,884.331 665.761,885.664 667.5,889.5C 669.045,890.452 670.712,890.785 672.5,890.5C 672.5,891.833 672.5,893.167 672.5,894.5C 673.552,894.351 674.552,894.517 675.5,895C 677.716,899.225 680.716,902.892 684.5,906C 687.447,906.112 688.78,907.612 688.5,910.5C 690.5,910.5 692.5,910.5 694.5,910.5C 694.351,911.552 694.517,912.552 695,913.5C 699.433,918.488 704.267,923.155 709.5,927.5C 711.563,930.388 713.397,933.388 715,936.5C 716.699,937.406 718.533,937.739 720.5,937.5C 720.5,939.167 720.5,940.833 720.5,942.5C 721.873,942.343 723.207,942.51 724.5,943C 727.148,948.221 731.148,951.721 736.5,953.5C 736.5,955.167 736.5,956.833 736.5,958.5C 741.476,959.303 744.809,962.136 746.5,967C 748.42,968.122 750.42,968.956 752.5,969.5C 752.201,971.604 752.534,973.604 753.5,975.5C 762.888,985.599 772.721,995.265 783,1004.5C 783.483,1005.45 783.649,1006.45 783.5,1007.5 Z"/></g>
<g><path style="opacity:0.349" fill="#239c5e" d="M 73.5,197.5 C 71.9192,199.086 69.9192,200.086 67.5,200.5C 66.5713,201.689 66.238,203.022 66.5,204.5C 64.9133,207.919 64.2467,211.585 64.5,215.5C 64.1667,503.834 64.5,792.167 65.5,1080.5C 126.459,1081.66 187.459,1081.83 248.5,1081C 249.337,1079.99 249.67,1078.82 249.5,1077.5C 250.833,877.961 250.833,678.294 249.5,478.5C 249.957,477.702 250.624,477.369 251.5,477.5C 251.622,676.7 251.956,875.867 252.5,1075C 252.079,1077.18 251.579,1079.35 251,1081.5C 188.667,1082.83 126.333,1082.83 64,1081.5C 63.8307,789.321 63.3307,497.155 62.5,205C 62.9172,202.502 63.2505,200.002 63.5,197.5C 66.8333,197.5 70.1667,197.5 73.5,197.5 Z"/></g>
<g><path style="opacity:0.388" fill="#2aa167" d="M 1099.5,949.5 C 1091.07,959.263 1081.74,967.929 1071.5,975.5C 1071.35,974.448 1071.52,973.448 1072,972.5C 1080.8,966.702 1088.3,959.535 1094.5,951C 1096.08,950.56 1097.41,949.727 1098.5,948.5C 1099.11,948.624 1099.44,948.957 1099.5,949.5 Z"/></g>
<g><path style="opacity:0.141" fill="#289f64" d="M 1059.5,985.5 C 1048.56,995.31 1036.56,1003.64 1023.5,1010.5C 1028.96,1005.89 1034.63,1001.39 1040.5,997C 1047.03,993.267 1053.36,989.434 1059.5,985.5 Z"/></g>
<g><path style="opacity:0.278" fill="#2c9e67" d="M 792.5,1016.5 C 793.552,1016.35 794.552,1016.52 795.5,1017C 798.763,1021.39 802.597,1025.22 807,1028.5C 807.791,1029.74 808.291,1031.08 808.5,1032.5C 802.833,1027.5 797.5,1022.17 792.5,1016.5 Z"/></g>
<g><path style="opacity:0.11" fill="#2d9d63" d="M 1023.5,1010.5 C 1013.49,1017.51 1002.82,1023.51 991.5,1028.5C 998.85,1024.49 1005.85,1019.99 1012.5,1015C 1016.2,1013.48 1019.87,1011.98 1023.5,1010.5 Z"/></g>
<g><path style="opacity:0.278" fill="#2b9b66" d="M 808.5,1032.5 C 809.552,1032.35 810.552,1032.52 811.5,1033C 817.973,1039.47 824.473,1045.97 831,1052.5C 831.483,1053.45 831.649,1054.45 831.5,1055.5C 823.5,1048.17 815.833,1040.5 808.5,1032.5 Z"/></g>
<g><path style="opacity:0.302" fill="#25a261" d="M 991.5,1028.5 C 946.339,1050.94 898.672,1065.44 848.5,1072C 843.664,1068.33 839.331,1064.16 835.5,1059.5C 837.593,1060.04 839.593,1060.88 841.5,1062C 843.31,1064.64 845.31,1067.14 847.5,1069.5C 850.446,1070.65 853.446,1070.82 856.5,1070C 865.471,1066.72 874.805,1064.72 884.5,1064C 887.618,1062.85 890.618,1061.52 893.5,1060C 904.016,1057.64 914.682,1055.64 925.5,1054C 934.154,1050.72 942.82,1047.56 951.5,1044.5C 951.5,1043.17 951.5,1041.83 951.5,1040.5C 957.156,1039.67 962.823,1038.84 968.5,1038C 975.71,1033.78 983.377,1030.61 991.5,1028.5 Z"/></g>
</svg>
