<?xml version="1.0" encoding="UTF-8"?>
<!DOCTYPE svg PUBLIC "-//W3C//DTD SVG 1.1//EN" "http://www.w3.org/Graphics/SVG/1.1/DTD/svg11.dtd">
<svg xmlns="http://www.w3.org/2000/svg" version="1.1" width="1000px" height="500px" style="shape-rendering:geometricPrecision; text-rendering:geometricPrecision; image-rendering:optimizeQuality; fill-rule:evenodd; clip-rule:evenodd" xmlns:xlink="http://www.w3.org/1999/xlink">
<g><path style="opacity:1" fill="#fefefe" d="M -0.5,-0.5 C 332.833,-0.5 666.167,-0.5 999.5,-0.5C 999.5,166.167 999.5,332.833 999.5,499.5C 666.167,499.5 332.833,499.5 -0.5,499.5C -0.5,332.833 -0.5,166.167 -0.5,-0.5 Z"/></g>
<g><path style="opacity:1" fill="#0d0d0d" d="M 635.5,57.5 C 638.044,57.1043 640.211,57.771 642,59.5C 642.671,63.6357 642.171,67.6357 640.5,71.5C 642.031,72.6131 643.031,74.1131 643.5,76C 642.326,80.0015 640.16,80.5015 637,77.5C 634.5,80 632,82.5 629.5,85C 626.634,86.4568 623.634,86.7901 620.5,86C 625.39,83.0458 629.723,79.3792 633.5,75C 628.834,70.9944 628.334,66.4944 632,61.5C 633.376,60.2949 634.542,58.9616 635.5,57.5 Z"/></g>
<g><path style="opacity:1" fill="#dbdbdb" d="M 633.5,63.5 C 637.225,63.7796 638.392,65.7796 637,69.5C 634.735,68.0842 633.569,66.0842 633.5,63.5 Z"/></g>
<g><path style="opacity:1" fill="#131313" d="M 350.5,67.5 C 357.112,67.2795 360.778,70.4461 361.5,77C 361.161,83.8548 357.661,88.0215 351,89.5C 345.287,88.4387 342.787,84.9387 343.5,79C 343.586,73.7575 345.919,69.9242 350.5,67.5 Z"/></g>
<g><path style="opacity:1" fill="#141414" d="M 601.5,68.5 C 602.376,68.3691 603.043,68.7025 603.5,69.5C 602.752,71.3325 601.752,72.9991 600.5,74.5C 593.833,78.1667 587.167,81.8333 580.5,85.5C 579.152,83.3886 579.485,81.5553 581.5,80C 588.393,76.3924 595.059,72.5591 601.5,68.5 Z"/></g>
<g><path style="opacity:1" fill="#eeeeee" d="M 347.5,73.5 C 352.194,72.7002 355.694,74.3669 358,78.5C 358.667,79.1667 358.667,79.8333 358,80.5C 352.799,83.8881 348.633,83.0548 345.5,78C 346.044,76.415 346.711,74.915 347.5,73.5 Z"/></g>
<g><path style="opacity:1" fill="#0f0f0f" d="M 512.5,77.5 C 515.044,77.1043 517.211,77.771 519,79.5C 519.681,83.2022 519.515,86.8689 518.5,90.5C 519.065,92.4048 520.065,94.0715 521.5,95.5C 520.948,97.3334 520.115,99.0001 519,100.5C 517.806,99.5697 516.473,98.9031 515,98.5C 511.789,101.373 508.289,103.873 504.5,106C 502.167,106.667 499.833,106.667 497.5,106C 501.951,103.217 506.117,100.05 510,96.5C 509.256,93.7104 508.423,90.8771 507.5,88C 507.97,83.8952 509.636,80.3952 512.5,77.5 Z"/></g>
<g><path style="opacity:1" fill="#f1f1f1" d="M 511.5,83.5 C 514.719,84.0211 515.719,85.6878 514.5,88.5C 512.244,87.5791 511.244,85.9124 511.5,83.5 Z"/></g>
<g><path style="opacity:1" fill="#121212" d="M 397.5,86.5 C 403.839,87.0016 407.506,90.5016 408.5,97C 407.333,103.5 403.5,107.333 397,108.5C 391.953,106.926 389.787,103.426 390.5,98C 390.43,92.6289 392.764,88.7955 397.5,86.5 Z"/></g>
<g><path style="opacity:1" fill="#141414" d="M 444.5,88.5 C 445.376,88.3691 446.043,88.7025 446.5,89.5C 445.752,91.3325 444.752,92.9991 443.5,94.5C 436.833,98.1667 430.167,101.833 423.5,105.5C 422.152,103.389 422.485,101.555 424.5,100C 431.393,96.3924 438.059,92.5591 444.5,88.5 Z"/></g>
<g><path style="opacity:1" fill="#f4f4f4" d="M 394.5,92.5 C 400.172,91.883 403.339,94.2163 404,99.5C 400.621,101.923 397.121,102.09 393.5,100C 392.083,97.2565 392.416,94.7565 394.5,92.5 Z"/></g>
<g><path style="opacity:1" fill="#0c0c0c" d="M 595.5,130.5 C 595.628,128.345 595.128,126.345 594,124.5C 593.51,125.793 593.343,127.127 593.5,128.5C 591.623,140.962 587.457,152.628 581,163.5C 578.795,166.04 576.295,168.207 573.5,170C 566.022,172.882 558.355,175.049 550.5,176.5C 549.167,175.833 549.167,175.167 550.5,174.5C 560.153,170.344 569.153,165.178 577.5,159C 579.907,156.262 581.907,153.262 583.5,150C 578.065,138.399 569.731,129.565 558.5,123.5C 557.09,123.868 556.09,124.701 555.5,126C 542.986,124.796 538.152,117.963 541,105.5C 541.739,104.426 542.739,103.759 544,103.5C 562.576,111.91 576.41,125.243 585.5,143.5C 586.97,140.293 588.137,136.959 589,133.5C 590.541,122.216 591.541,110.883 592,99.5C 592.748,97.6675 593.748,96.0009 595,94.5C 596.684,110.601 599.017,126.601 602,142.5C 603.214,147.827 605.38,152.66 608.5,157C 614.426,158.11 620.092,157.444 625.5,155C 620.847,151.212 619.347,146.378 621,140.5C 624.356,132.601 629.856,126.767 637.5,123C 644.744,122.454 650.744,124.954 655.5,130.5C 645.335,129.035 635.835,131.035 627,136.5C 626.48,138.289 626.813,139.956 628,141.5C 632.61,147.142 638.443,149.309 645.5,148C 651.402,146.05 657.068,143.55 662.5,140.5C 663.185,143.159 662.851,145.825 661.5,148.5C 647.648,154.924 633.648,161.091 619.5,167C 615.167,167.667 610.833,167.667 606.5,167C 603.619,165.749 601.786,163.583 601,160.5C 598.329,150.644 596.495,140.644 595.5,130.5 Z"/></g>
<g><path style="opacity:1" fill="#0f0f0f" d="M 635.5,103.5 C 644.609,104.659 645.775,108.326 639,114.5C 636.274,113.768 634.107,112.268 632.5,110C 633.391,107.721 634.391,105.554 635.5,103.5 Z"/></g>
<g><path style="opacity:1" fill="#0d0d0d" d="M 367.5,111.5 C 368.117,111.611 368.617,111.944 369,112.5C 370.641,126.039 373.308,139.372 377,152.5C 379.712,156.915 383.712,158.582 389,157.5C 393.406,157.764 397.573,156.931 401.5,155C 402.022,154.439 402.355,153.772 402.5,153C 400.97,149.439 399.303,145.939 397.5,142.5C 398.58,140.004 399.914,137.67 401.5,135.5C 402.167,134.167 402.833,134.167 403.5,135.5C 405.994,143.423 406.161,151.423 404,159.5C 401.889,163.944 398.389,166.444 393.5,167C 387.294,168.245 381.461,167.412 376,164.5C 373.616,160.675 371.616,156.675 370,152.5C 363.458,163.019 353.958,167.519 341.5,166C 335.943,164.496 334.11,160.996 336,155.5C 336.473,153.221 337.473,151.221 339,149.5C 339.394,152.893 341.227,155.06 344.5,156C 352.133,157.366 359.3,156.199 366,152.5C 367.872,149.795 368.705,146.795 368.5,143.5C 367.115,136.024 365.782,128.524 364.5,121C 364.806,117.585 365.806,114.418 367.5,111.5 Z"/></g>
<g><path style="opacity:1" fill="#0f0f0f" d="M 440.5,122.5 C 450.002,124.317 450.836,127.983 443,133.5C 440.627,132.576 438.794,131.076 437.5,129C 438.391,126.721 439.391,124.554 440.5,122.5 Z"/></g>
<g><path style="opacity:1" fill="#929292" d="M 595.5,130.5 C 594.833,129.833 594.167,129.167 593.5,128.5C 593.343,127.127 593.51,125.793 594,124.5C 595.128,126.345 595.628,128.345 595.5,130.5 Z"/></g>
<g><path style="opacity:1" fill="#0c0c0c" d="M 512.5,130.5 C 523.208,131.037 529.875,136.537 532.5,147C 532.518,149.379 531.851,151.546 530.5,153.5C 525.198,154.329 519.864,154.829 514.5,155C 509.247,155.869 505.08,158.369 502,162.5C 503.099,178.425 505.933,194.091 510.5,209.5C 510.147,211.731 509.314,213.731 508,215.5C 504.69,202.258 501.69,188.925 499,175.5C 497.989,168 498.655,160.667 501,153.5C 502.046,151.91 503.213,150.41 504.5,149C 508.635,146.678 512.968,144.845 517.5,143.5C 516.33,141.745 514.663,140.745 512.5,140.5C 509.591,142.123 506.591,143.457 503.5,144.5C 504.506,138.472 507.506,133.806 512.5,130.5 Z"/></g>
<g><path style="opacity:1" fill="#0f0f0f" d="M 442.5,142.5 C 447.184,148.042 449.184,154.542 448.5,162C 448.002,175.33 442.668,186.33 432.5,195C 423.485,198.786 414.818,198.12 406.5,193C 425.667,193.488 438.667,184.821 445.5,167C 443.634,161.438 441.634,155.938 439.5,150.5C 439.948,147.609 440.948,144.942 442.5,142.5 Z"/></g>
<g><path style="opacity:1" fill="#0f0f0f" d="M 400.5,175.5 C 408.679,177.883 409.513,181.883 403,187.5C 400.99,186.152 398.99,184.818 397,183.5C 394.699,184.8 392.699,186.467 391,188.5C 389.01,187.182 387.01,185.848 385,184.5C 385.658,181.531 387.158,178.865 389.5,176.5C 391.937,177.803 394.104,179.47 396,181.5C 397.752,179.649 399.252,177.649 400.5,175.5 Z"/></g>
<g><path style="opacity:1" fill="#131313" d="M 363.5,180.5 C 366.872,181.57 366.872,183.403 363.5,186C 356.991,189.755 350.324,193.255 343.5,196.5C 342.417,195.635 342.251,194.635 343,193.5C 344.167,192.333 345.333,191.167 346.5,190C 352.552,187.313 358.219,184.146 363.5,180.5 Z"/></g>
<g><path style="opacity:1" fill="#131313" d="M 326.5,178.5 C 327.239,178.369 327.906,178.536 328.5,179C 309.633,198.261 301.466,221.428 304,248.5C 308,241.833 312,235.167 316,228.5C 312.615,237.954 308.615,247.287 304,256.5C 302.809,258.847 300.976,259.68 298.5,259C 294.178,248.547 291.678,237.714 291,226.5C 292,225.167 293,225.167 294,226.5C 295.669,231.845 297.335,237.178 299,242.5C 298.011,216.585 307.178,195.251 326.5,178.5 Z"/></g>
<g><path style="opacity:1" fill="#121212" d="M 662.5,178.5 C 662.897,177.475 663.563,177.308 664.5,178C 684.433,194.715 693.933,216.215 693,242.5C 694.444,236.836 696.277,231.336 698.5,226C 699.449,225.383 700.282,225.549 701,226.5C 700.004,237.654 697.504,248.487 693.5,259C 691.024,259.68 689.191,258.847 688,256.5C 683.286,247.74 679.12,238.74 675.5,229.5C 675.846,228.304 676.346,228.304 677,229.5C 680.667,236.167 684.333,242.833 688,249.5C 690.001,227.167 684.667,206.833 672,188.5C 669.332,184.666 666.165,181.333 662.5,178.5 Z"/></g>
<g><path style="opacity:1" fill="#121212" d="M 364.5,192.5 C 365.376,192.369 366.043,192.702 366.5,193.5C 365.752,195.332 364.752,196.999 363.5,198.5C 356.746,202.294 349.913,205.961 343,209.5C 342.542,206.904 343.375,204.737 345.5,203C 352.217,199.98 358.551,196.48 364.5,192.5 Z"/></g>
<g><path style="opacity:1" fill="#151515" d="M 380.5,271.5 C 383.734,271.237 385.068,272.737 384.5,276C 384.947,278.599 383.947,280.099 381.5,280.5C 377.837,278.019 377.504,275.019 380.5,271.5 Z"/></g>
<g><path style="opacity:1" fill="#151515" d="M 422.5,271.5 C 425.734,271.237 427.068,272.737 426.5,276C 426.947,278.599 425.947,280.099 423.5,280.5C 419.837,278.019 419.504,275.019 422.5,271.5 Z"/></g>
<g><path style="opacity:1" fill="#101010" d="M 250.5,273.5 C 251.833,273.5 253.167,273.5 254.5,273.5C 252.989,286.778 252.156,300.111 252,313.5C 251,314.833 250,314.833 249,313.5C 248.667,311.167 248.333,308.833 248,306.5C 243.157,315.673 237.157,316.673 230,309.5C 228.052,302.135 229.885,295.968 235.5,291C 239.749,288.987 243.916,289.154 248,291.5C 248.266,285.398 249.099,279.398 250.5,273.5 Z"/></g>
<g><path style="opacity:1" fill="#191919" d="M 261.5,272.5 C 262.787,273.871 263.453,275.705 263.5,278C 262.578,284.821 262.412,291.654 263,298.5C 264.439,295.397 266.273,292.564 268.5,290C 270.701,289.175 272.534,289.675 274,291.5C 274.5,299.159 274.666,306.826 274.5,314.5C 272.61,314.703 271.11,314.037 270,312.5C 269.796,305.771 269.63,299.104 269.5,292.5C 264.822,299.02 261.989,306.354 261,314.5C 259.667,313.833 258.667,312.833 258,311.5C 257.264,299.95 257.764,288.45 259.5,277C 259.759,275.213 260.425,273.713 261.5,272.5 Z"/></g>
<g><path style="opacity:1" fill="#191919" d="M 432.5,272.5 C 433.787,273.871 434.453,275.705 434.5,278C 433.578,284.821 433.412,291.654 434,298.5C 435.439,295.397 437.273,292.564 439.5,290C 441.701,289.175 443.534,289.675 445,291.5C 445.5,299.159 445.666,306.826 445.5,314.5C 443.61,314.703 442.11,314.037 441,312.5C 440.796,305.771 440.63,299.104 440.5,292.5C 435.822,299.02 432.989,306.354 432,314.5C 430.667,313.833 429.667,312.833 429,311.5C 428.264,299.95 428.764,288.45 430.5,277C 430.759,275.213 431.425,273.713 432.5,272.5 Z"/></g>
<g><path style="opacity:1" fill="#151515" d="M 707.5,273.5 C 708.5,273.5 709.5,273.5 710.5,273.5C 710.154,286.847 709.487,300.18 708.5,313.5C 707.833,313.833 707.167,314.167 706.5,314.5C 704.985,312.453 704.151,310.119 704,307.5C 698.417,316.421 692.417,316.754 686,308.5C 684.213,298.391 688.213,292.057 698,289.5C 700.379,289.482 702.546,290.149 704.5,291.5C 705.028,285.358 706.028,279.358 707.5,273.5 Z"/></g>
<g><path style="opacity:1" fill="#121212" d="M 719.5,286.5 C 718.353,290.646 718.186,294.98 719,299.5C 720.039,298.756 720.539,297.756 720.5,296.5C 721.928,292.551 724.595,290.384 728.5,290C 729.333,290.833 730.167,291.667 731,292.5C 730.883,299.814 730.717,307.147 730.5,314.5C 729.178,314.67 728.011,314.337 727,313.5C 726.667,306.5 726.333,299.5 726,292.5C 721.396,298.717 718.729,305.717 718,313.5C 716.853,314.458 715.853,314.125 715,312.5C 714.179,299.799 714.512,287.132 716,274.5C 717,273.833 718,273.167 719,272.5C 719.499,277.155 719.666,281.821 719.5,286.5 Z"/></g>
<g><path style="opacity:1" fill="#0f0f0f" d="M 392.5,286.5 C 391.809,295.734 391.142,305.068 390.5,314.5C 389.811,315.774 388.977,315.774 388,314.5C 387.309,301.151 387.475,287.817 388.5,274.5C 389.833,274.5 391.167,274.5 392.5,274.5C 392.5,278.5 392.5,282.5 392.5,286.5 Z"/></g>
<g><path style="opacity:1" fill="#0e0e0e" d="M 311.5,285.5 C 310.532,287.607 310.198,289.941 310.5,292.5C 311.791,292.737 312.791,292.404 313.5,291.5C 316.313,291.025 318.313,292.025 319.5,294.5C 316.941,294.198 314.607,294.532 312.5,295.5C 310.541,301.75 309.874,308.416 310.5,315.5C 308.62,315.771 307.287,315.104 306.5,313.5C 306.5,307.833 306.5,302.167 306.5,296.5C 305.209,296.263 304.209,296.596 303.5,297.5C 302.295,295.59 302.962,294.257 305.5,293.5C 305.4,286.623 307.733,280.79 312.5,276C 315.835,273.709 318.668,274.209 321,277.5C 321.85,281.052 321.35,284.385 319.5,287.5C 318.914,287.291 318.414,286.957 318,286.5C 317.667,283.833 317.333,281.167 317,278.5C 314.546,276.987 312.879,277.654 312,280.5C 311.506,282.134 311.34,283.801 311.5,285.5 Z"/></g>
<g><path style="opacity:1" fill="#0e0e0e" d="M 770.5,274.5 C 777.109,275.258 779.276,278.925 777,285.5C 776.692,286.308 776.192,286.975 775.5,287.5C 774.752,284.503 774.085,281.503 773.5,278.5C 772.277,277.386 770.944,277.219 769.5,278C 767.752,282.294 767.085,286.794 767.5,291.5C 770.681,291.002 773.347,291.835 775.5,294C 772.487,294.502 769.487,295.002 766.5,295.5C 766.5,302.167 766.5,308.833 766.5,315.5C 765.178,315.67 764.011,315.337 763,314.5C 762.83,308.472 762.33,302.472 761.5,296.5C 760.137,297.879 759.137,297.713 758.5,296C 759.098,294.699 760.098,293.865 761.5,293.5C 761.682,285.656 764.682,279.322 770.5,274.5 Z"/></g>
<g><path style="opacity:1" fill="#7b7b7b" d="M 311.5,285.5 C 311.025,288.082 311.692,290.082 313.5,291.5C 312.791,292.404 311.791,292.737 310.5,292.5C 310.198,289.941 310.532,287.607 311.5,285.5 Z"/></g>
<g><path style="opacity:1" fill="#161616" d="M 378.5,288.5 C 379.833,288.5 381.167,288.5 382.5,288.5C 382.666,296.507 382.5,304.507 382,312.5C 380.286,313.925 378.953,313.592 378,311.5C 377.233,303.785 377.4,296.118 378.5,288.5 Z"/></g>
<g><path style="opacity:1" fill="#111111" d="M 403.5,288.5 C 407.954,287.617 411.454,288.95 414,292.5C 413.964,299.819 413.797,307.152 413.5,314.5C 410.612,314.78 409.112,313.447 409,310.5C 405.188,316.003 400.855,316.67 396,312.5C 396.991,305.324 401.158,300.658 408.5,298.5C 409.797,295.812 409.464,293.312 407.5,291C 406.167,290.333 404.833,290.333 403.5,291C 401.503,293.492 400.503,296.325 400.5,299.5C 399.5,299.5 398.5,299.5 397.5,299.5C 397.677,294.811 399.677,291.144 403.5,288.5 Z"/></g>
<g><path style="opacity:1" fill="#161616" d="M 420.5,288.5 C 421.833,288.5 423.167,288.5 424.5,288.5C 424.666,296.507 424.5,304.507 424,312.5C 422.286,313.925 420.953,313.592 420,311.5C 419.233,303.785 419.4,296.118 420.5,288.5 Z"/></g>
<g><path style="opacity:1" fill="#0a0a0a" d="M 220.5,311.5 C 220.663,309.143 220.497,306.81 220,304.5C 219.59,305.901 219.09,307.234 218.5,308.5C 217.604,311.069 215.938,313.069 213.5,314.5C 211.517,313.018 209.684,311.351 208,309.5C 207.333,303.167 207.333,296.833 208,290.5C 209.356,289.62 210.856,289.286 212.5,289.5C 211.669,296.131 211.336,302.798 211.5,309.5C 212.822,309.67 213.989,309.337 215,308.5C 217.798,302.773 219.798,296.773 221,290.5C 222.011,289.663 223.178,289.33 224.5,289.5C 224.831,297.86 224.498,306.193 223.5,314.5C 222.145,313.812 221.145,312.812 220.5,311.5 Z"/></g>
<g><path style="opacity:1" fill="#0a0a0a" d="M 333.5,311.5 C 333.663,309.143 333.497,306.81 333,304.5C 332.59,305.901 332.09,307.234 331.5,308.5C 330.604,311.069 328.938,313.069 326.5,314.5C 323.734,312.741 321.734,310.407 320.5,307.5C 320.5,303.167 320.5,298.833 320.5,294.5C 319.833,290.5 321.5,288.833 325.5,289.5C 324.669,296.131 324.336,302.798 324.5,309.5C 325.822,309.67 326.989,309.337 328,308.5C 330.798,302.773 332.798,296.773 334,290.5C 335.011,289.663 336.178,289.33 337.5,289.5C 337.831,297.86 337.498,306.193 336.5,314.5C 335.145,313.812 334.145,312.812 333.5,311.5 Z"/></g>
<g><path style="opacity:1" fill="#141414" d="M 346.5,289.5 C 348.25,292.355 349.083,295.689 349,299.5C 349.973,296.221 351.473,293.221 353.5,290.5C 359.489,288.31 362.155,290.477 361.5,297C 360.752,302.477 360.419,307.977 360.5,313.5C 359.178,313.67 358.011,313.337 357,312.5C 356.831,305.809 356.331,299.142 355.5,292.5C 351.279,298.817 348.613,305.817 347.5,313.5C 345.833,313.5 344.167,313.5 342.5,313.5C 342.833,309.5 343.167,305.5 343.5,301.5C 343.977,297.38 344.977,293.38 346.5,289.5 Z"/></g>
<g><path style="opacity:1" fill="#0e0e0e" d="M 664.5,289.5 C 665.833,289.5 667.167,289.5 668.5,289.5C 667.788,296.143 667.454,302.809 667.5,309.5C 668.822,309.67 669.989,309.337 671,308.5C 674.06,302.821 676.226,296.821 677.5,290.5C 678.689,289.571 680.022,289.238 681.5,289.5C 680.25,296.835 680.25,304.168 681.5,311.5C 680.714,314.975 679.214,315.308 677,312.5C 676.667,309.833 676.333,307.167 676,304.5C 674.96,314.218 670.96,315.885 664,309.5C 663.208,302.753 663.374,296.086 664.5,289.5 Z"/></g>
<g><path style="opacity:1" fill="#151515" d="M 175.5,289.5 C 176.5,289.5 177.5,289.5 178.5,289.5C 178.335,292.518 178.502,295.518 179,298.5C 180.211,295.241 182.044,292.408 184.5,290C 185.944,289.219 187.277,289.386 188.5,290.5C 189.262,294.111 189.762,297.778 190,301.5C 191.265,296.618 193.765,292.618 197.5,289.5C 198.938,289.719 200.271,290.219 201.5,291C 201.529,297.99 201.863,304.99 202.5,312C 201.333,315.167 199.833,315.333 198,312.5C 197.667,306.167 197.333,299.833 197,293.5C 195.171,295.156 193.837,297.156 193,299.5C 191.53,304.243 189.864,308.909 188,313.5C 187,313.167 186,312.833 185,312.5C 185.305,305.85 185.305,299.183 185,292.5C 180.423,298.729 177.923,305.729 177.5,313.5C 176.167,313.5 174.833,313.5 173.5,313.5C 173.062,305.35 173.729,297.35 175.5,289.5 Z"/></g>
<g><path style="opacity:1" fill="#121212" d="M 286.5,290.5 C 294.892,288.84 299.225,292.174 299.5,300.5C 299.428,311.682 294.094,315.849 283.5,313C 276.386,304.508 277.386,297.008 286.5,290.5 Z"/></g>
<g><path style="opacity:1" fill="#909090" d="M 346.5,289.5 C 344.977,293.38 343.977,297.38 343.5,301.5C 343.5,297.5 343.5,293.5 343.5,289.5C 344.5,289.5 345.5,289.5 346.5,289.5 Z"/></g>
<g><path style="opacity:1" fill="#141414" d="M 635.5,293.5 C 634.371,295.628 634.204,297.961 635,300.5C 635.513,299.473 636.013,298.473 636.5,297.5C 637.507,292.986 640.174,290.486 644.5,290C 645.944,291.126 646.61,292.626 646.5,294.5C 645.732,297.154 645.566,299.821 646,302.5C 647.514,297.971 649.681,293.805 652.5,290C 654.567,289.464 656.401,289.964 658,291.5C 658.667,298.833 658.667,306.167 658,313.5C 655.91,314.791 654.576,314.124 654,311.5C 653.845,305.439 653.678,299.439 653.5,293.5C 649.18,299.478 646.514,306.144 645.5,313.5C 644.167,313.5 642.833,313.5 641.5,313.5C 643.316,285.838 640.816,285.505 634,312.5C 632.989,313.337 631.822,313.67 630.5,313.5C 630.302,305.466 630.635,297.466 631.5,289.5C 632.833,289.5 634.167,289.5 635.5,289.5C 635.5,290.833 635.5,292.167 635.5,293.5 Z"/></g>
<g><path style="opacity:1" fill="#141414" d="M 742.5,290.5 C 755.923,290.651 759.757,296.984 754,309.5C 749.195,315.081 743.862,315.748 738,311.5C 733.608,303.105 735.108,296.105 742.5,290.5 Z"/></g>
<g><path style="opacity:1" fill="#f3f3f3" d="M 236.5,292.5 C 240.306,292.02 243.639,293.02 246.5,295.5C 247.904,294.001 248.57,294.334 248.5,296.5C 247.779,302.982 244.446,307.316 238.5,309.5C 234.589,308.372 232.589,305.706 232.5,301.5C 232.686,297.923 234.02,294.923 236.5,292.5 Z"/></g>
<g><path style="opacity:1" fill="#f5f5f5" d="M 692.5,292.5 C 704.345,291.866 707.178,296.532 701,306.5C 696.752,310.842 693.085,310.508 690,305.5C 688.842,300.693 689.676,296.36 692.5,292.5 Z"/></g>
<g><path style="opacity:1" fill="#f1f1f1" d="M 287.5,293.5 C 292.933,293.441 295.6,296.275 295.5,302C 295.702,307.117 293.536,310.617 289,312.5C 285.24,310.762 283.406,307.762 283.5,303.5C 283.866,299.728 285.199,296.394 287.5,293.5 Z"/></g>
<g><path style="opacity:1" fill="#8d8d8d" d="M 719.5,286.5 C 719.187,290.042 719.521,293.375 720.5,296.5C 720.539,297.756 720.039,298.756 719,299.5C 718.186,294.98 718.353,290.646 719.5,286.5 Z"/></g>
<g><path style="opacity:1" fill="#f6f6f6" d="M 744.5,293.5 C 749.892,293.898 752.225,296.898 751.5,302.5C 752.03,307.451 750.03,310.785 745.5,312.5C 743.971,312.471 742.804,311.804 742,310.5C 739.381,304.205 740.214,298.539 744.5,293.5 Z"/></g>
<g><path style="opacity:1" fill="#6c6c6c" d="M 392.5,286.5 C 393.139,296.227 392.472,305.56 390.5,314.5C 391.142,305.068 391.809,295.734 392.5,286.5 Z"/></g>
<g><path style="opacity:1" fill="#6f6f6f" d="M 635.5,293.5 C 635.232,295.099 635.566,296.432 636.5,297.5C 636.013,298.473 635.513,299.473 635,300.5C 634.204,297.961 634.371,295.628 635.5,293.5 Z"/></g>
<g><path style="opacity:1" fill="#9c9c9c" d="M 312.5,295.5 C 314.607,294.532 316.941,294.198 319.5,294.5C 319.833,294.5 320.167,294.5 320.5,294.5C 320.5,298.833 320.5,303.167 320.5,307.5C 319.517,303.702 319.183,299.702 319.5,295.5C 317.167,295.5 314.833,295.5 312.5,295.5 Z"/></g>
<g><path style="opacity:1" fill="#ebebeb" d="M 408.5,301.5 C 409.124,301.917 409.457,302.584 409.5,303.5C 407.784,308.549 404.451,311.883 399.5,313.5C 399.372,311.345 399.872,309.345 401,307.5C 403.478,305.361 405.978,303.361 408.5,301.5 Z"/></g>
<g><path style="opacity:1" fill="#8f8f8f" d="M 303.5,297.5 C 304.209,296.596 305.209,296.263 306.5,296.5C 306.5,302.167 306.5,307.833 306.5,313.5C 306.144,307.923 305.144,302.59 303.5,297.5 Z"/></g>
<g><path style="opacity:1" fill="#9a9a9a" d="M 220.5,311.5 C 219.833,310.5 219.167,309.5 218.5,308.5C 219.09,307.234 219.59,305.901 220,304.5C 220.497,306.81 220.663,309.143 220.5,311.5 Z"/></g>
<g><path style="opacity:1" fill="#9a9a9a" d="M 333.5,311.5 C 332.833,310.5 332.167,309.5 331.5,308.5C 332.09,307.234 332.59,305.901 333,304.5C 333.497,306.81 333.663,309.143 333.5,311.5 Z"/></g>
</svg>
