<?xml version="1.0" encoding="UTF-8"?>
<!DOCTYPE svg PUBLIC "-//W3C//DTD SVG 1.1//EN" "http://www.w3.org/Graphics/SVG/1.1/DTD/svg11.dtd">
<svg xmlns="http://www.w3.org/2000/svg" version="1.1" width="1000px" height="500px" style="shape-rendering:geometricPrecision; text-rendering:geometricPrecision; image-rendering:optimizeQuality; fill-rule:evenodd; clip-rule:evenodd" xmlns:xlink="http://www.w3.org/1999/xlink">
<g><path style="opacity:1" fill="#fefefe" d="M -0.5,-0.5 C 332.833,-0.5 666.167,-0.5 999.5,-0.5C 999.5,166.167 999.5,332.833 999.5,499.5C 666.167,499.5 332.833,499.5 -0.5,499.5C -0.5,332.833 -0.5,166.167 -0.5,-0.5 Z"/></g>
<g><path style="opacity:1" fill="#101010" d="M 415.5,78.5 C 417.527,78.3379 419.527,78.5045 421.5,79C 423.97,83.253 423.97,87.5863 421.5,92C 422.477,93.497 423.477,94.997 424.5,96.5C 424.32,97.5539 423.987,98.5539 423.5,99.5C 421.219,100.185 418.886,100.351 416.5,100C 412.512,105.707 407.179,108.04 400.5,107C 405.53,103.816 410.196,100.149 414.5,96C 410.788,93.3981 409.622,89.8981 411,85.5C 412.511,83.1384 414.011,80.8051 415.5,78.5 Z"/></g>
<g><path style="opacity:1" fill="#e1e1e1" d="M 414.5,84.5 C 418.225,84.7796 419.392,86.7796 418,90.5C 415.735,89.0842 414.569,87.0842 414.5,84.5 Z"/></g>
<g><path style="opacity:1" fill="#121212" d="M 585.5,84.5 C 586.572,86.9358 585.905,89.1025 583.5,91C 576.709,94.2985 570.042,97.7985 563.5,101.5C 562.417,100.635 562.251,99.635 563,98.5C 564.167,97.3333 565.333,96.1667 566.5,95C 573.217,91.9795 579.551,88.4795 585.5,84.5 Z"/></g>
<g><path style="opacity:1" fill="#121212" d="M 483.5,86.5 C 493.022,87.8855 496.189,93.2188 493,102.5C 484.122,111.803 478.622,110.303 476.5,98C 476.586,92.7575 478.919,88.9242 483.5,86.5 Z"/></g>
<g><path style="opacity:1" fill="#f5f5f5" d="M 480.5,92.5 C 486.203,91.7299 489.37,94.0632 490,99.5C 484.849,102.901 481.016,101.901 478.5,96.5C 478.752,94.9271 479.418,93.5938 480.5,92.5 Z"/></g>
<g><path style="opacity:1" fill="#121212" d="M 528.5,104.5 C 529.572,106.936 528.905,109.103 526.5,111C 519.709,114.298 513.042,117.798 506.5,121.5C 505.417,120.635 505.251,119.635 506,118.5C 507.167,117.333 508.333,116.167 509.5,115C 516.217,111.98 522.551,108.48 528.5,104.5 Z"/></g>
<g><path style="opacity:1" fill="#0e0e0e" d="M 580.5,116.5 C 588.72,118.989 589.553,122.989 583,128.5C 580.361,127.432 578.195,125.766 576.5,123.5C 577.889,121.132 579.222,118.799 580.5,116.5 Z"/></g>
<g><path style="opacity:1" fill="#0f0f0f" d="M 423.5,127.5 C 431.72,129.989 432.553,133.989 426,139.5C 423.766,138.299 421.599,136.965 419.5,135.5C 417.443,137.269 415.61,139.269 414,141.5C 411.815,140.072 409.815,138.405 408,136.5C 409.637,128.624 413.304,127.624 419,133.5C 421.102,131.905 422.602,129.905 423.5,127.5 Z"/></g>
<g><path style="opacity:1" fill="#0b0b0b" d="M 606.5,130.5 C 617.3,130.469 621.8,135.802 620,146.5C 617.075,152.907 612.242,157.407 605.5,160C 594.874,163.995 583.874,166.495 572.5,167.5C 568.269,179.276 567.269,178.943 569.5,166.5C 562.148,168.241 556.648,165.908 553,159.5C 548.069,165.814 541.569,168.648 533.5,168C 532.239,178.191 528.239,187.191 521.5,195C 514.778,199.25 507.445,200.583 499.5,199C 497.221,198.527 495.221,197.527 493.5,196C 511.321,195.819 523.321,187.486 529.5,171C 528.111,167.555 526.444,164.222 524.5,161C 525.53,158.44 526.697,155.94 528,153.5C 529.214,155.049 530.714,156.215 532.5,157C 542.579,159.921 550.412,157.087 556,148.5C 557.399,155.801 561.899,159.135 569.5,158.5C 571.167,158.167 572.833,157.833 574.5,157.5C 580.69,147.81 588.69,139.977 598.5,134C 601.158,132.522 603.825,131.355 606.5,130.5 Z"/></g>
<g><path style="opacity:1" fill="#0a0a0a" d="M 488.5,134.5 C 490.41,135.975 491.576,137.975 492,140.5C 495.145,161.355 486.311,170.189 465.5,167C 463.024,165.691 461.024,163.858 459.5,161.5C 446.58,169.055 432.58,172.888 417.5,173C 402.583,176.542 389.75,173.042 379,162.5C 374.947,153.148 376.114,144.481 382.5,136.5C 382.833,137 383.167,137.5 383.5,138C 378.051,149.292 381.385,156.959 393.5,161C 413.847,165.146 433.847,163.812 453.5,157C 455.976,155.691 457.976,153.858 459.5,151.5C 460.711,153.422 462.044,155.255 463.5,157C 471.246,157.896 478.913,157.563 486.5,156C 487.804,155.196 488.471,154.029 488.5,152.5C 487.167,149.167 485.833,145.833 484.5,142.5C 485.418,139.594 486.751,136.928 488.5,134.5 Z"/></g>
<g><path style="opacity:1" fill="#f6f6f6" d="M 598.5,141.5 C 603.267,141.191 607.934,141.691 612.5,143C 615.73,144.724 616.064,146.724 613.5,149C 602.507,154.779 590.841,157.446 578.5,157C 583.568,149.648 590.235,144.481 598.5,141.5 Z"/></g>
<g><path style="opacity:1" fill="#646464" d="M 640.5,171.5 C 639.833,171.5 639.5,171.833 639.5,172.5C 637.704,171.207 636.037,169.707 634.5,168C 636.812,168.447 638.812,169.613 640.5,171.5 Z"/></g>
<g><path style="opacity:1" fill="#686868" d="M 359.5,172.5 C 359.5,172.167 359.5,171.833 359.5,171.5C 360.879,168.927 362.879,167.427 365.5,167C 363.63,169.04 361.63,170.873 359.5,172.5 Z"/></g>
<g><path style="opacity:1" fill="#0e0e0e" d="M 359.5,171.5 C 359.5,171.833 359.5,172.167 359.5,172.5C 343.558,191.909 336.725,214.242 339,239.5C 342.747,232.337 346.747,225.337 351,218.5C 347.552,228.409 343.219,238.076 338,247.5C 336.333,250.167 334.667,250.167 333,247.5C 331.004,240.183 329.004,232.849 327,225.5C 326.502,222.183 326.335,218.85 326.5,215.5C 328.124,215.36 329.29,216.027 330,217.5C 331.333,222.167 332.667,226.833 334,231.5C 333.109,208.13 340.943,188.297 357.5,172C 358.094,171.536 358.761,171.369 359.5,171.5 Z"/></g>
<g><path style="opacity:1" fill="#0f0f0f" d="M 640.5,171.5 C 657.716,187.625 665.883,207.625 665,231.5C 666.507,226.136 668.007,220.803 669.5,215.5C 670.5,215.5 671.5,215.5 672.5,215.5C 672.665,218.85 672.498,222.183 672,225.5C 669.996,232.849 667.996,240.183 666,247.5C 664.759,249.421 663.259,249.754 661.5,248.5C 656.03,238.603 651.03,228.437 646.5,218C 647.332,217.312 647.998,217.479 648.5,218.5C 652.333,225.5 656.167,232.5 660,239.5C 662.274,214.233 655.44,191.9 639.5,172.5C 639.5,171.833 639.833,171.5 640.5,171.5 Z"/></g>
<g><path style="opacity:1" fill="#0f0f0f" d="M 481.5,175.5 C 490.118,178.089 490.785,182.089 483.5,187.5C 476.299,184.567 475.632,180.567 481.5,175.5 Z"/></g>
<g><path style="opacity:1" fill="#181818" d="M 270.5,260.5 C 274.461,261.884 275.461,264.551 273.5,268.5C 270.187,270.254 268.52,269.254 268.5,265.5C 268.437,263.486 269.103,261.819 270.5,260.5 Z"/></g>
<g><path style="opacity:1" fill="#141414" d="M 618.5,260.5 C 619.822,260.33 620.989,260.663 622,261.5C 622.667,263.833 622.667,266.167 622,268.5C 618.958,269.986 617.125,268.986 616.5,265.5C 617.187,263.823 617.854,262.156 618.5,260.5 Z"/></g>
<g><path style="opacity:1" fill="#141414" d="M 754.5,260.5 C 755.822,260.33 756.989,260.663 758,261.5C 758.667,263.833 758.667,266.167 758,268.5C 754.958,269.986 753.125,268.986 752.5,265.5C 753.187,263.823 753.854,262.156 754.5,260.5 Z"/></g>
<g><path style="opacity:1" fill="#101010" d="M 374.5,262.5 C 375.833,262.5 377.167,262.5 378.5,262.5C 376.989,275.778 376.156,289.111 376,302.5C 375,303.833 374,303.833 373,302.5C 372.667,300.167 372.333,297.833 372,295.5C 367.157,304.673 361.157,305.673 354,298.5C 352.052,291.135 353.885,284.968 359.5,280C 363.749,277.987 367.916,278.154 372,280.5C 372.266,274.398 373.099,268.398 374.5,262.5 Z"/></g>
<g><path style="opacity:1" fill="#111111" d="M 720.5,301.5 C 720.663,299.143 720.497,296.81 720,294.5C 718.961,295.244 718.461,296.244 718.5,297.5C 713.952,304.543 708.619,305.21 702.5,299.5C 698.565,288.703 702.065,281.703 713,278.5C 715.379,278.482 717.546,279.149 719.5,280.5C 720.171,274.419 721.171,268.419 722.5,262.5C 725.243,262.077 726.576,263.244 726.5,266C 725.007,278.107 724.007,290.274 723.5,302.5C 722.078,303.777 721.078,303.443 720.5,301.5 Z"/></g>
<g><path style="opacity:1" fill="#191919" d="M 734.5,278.5 C 733.357,281.976 733.19,285.642 734,289.5C 734.513,288.473 735.013,287.473 735.5,286.5C 736.526,283.628 738.192,281.128 740.5,279C 742.464,278.376 744.131,278.876 745.5,280.5C 746.467,288.11 746.8,295.777 746.5,303.5C 744.61,303.703 743.11,303.037 742,301.5C 741.796,294.771 741.63,288.104 741.5,281.5C 736.493,287.508 733.827,294.508 733.5,302.5C 732.178,302.67 731.011,302.337 730,301.5C 729.185,289.132 729.518,276.799 731,264.5C 731.7,262.968 732.866,261.968 734.5,261.5C 735.473,267.15 735.473,272.816 734.5,278.5 Z"/></g>
<g><path style="opacity:1" fill="#0c0c0c" d="M 278.5,263.5 C 279.833,263.5 281.167,263.5 282.5,263.5C 282.119,276.845 281.452,290.178 280.5,303.5C 279.833,303.833 279.167,304.167 278.5,304.5C 277.281,290.827 277.281,277.161 278.5,263.5 Z"/></g>
<g><path style="opacity:1" fill="#1c1c1c" d="M 627.5,263.5 C 628.833,263.5 630.167,263.5 631.5,263.5C 631,276.836 630.333,290.17 629.5,303.5C 628.28,304.711 627.113,304.711 626,303.5C 625.029,290.087 625.529,276.754 627.5,263.5 Z"/></g>
<g><path style="opacity:1" fill="#111111" d="M 208.5,287.5 C 207.793,293.066 207.126,298.732 206.5,304.5C 205.167,304.5 204.5,303.833 204.5,302.5C 204.5,296.833 204.5,291.167 204.5,285.5C 203.209,285.263 202.209,285.596 201.5,286.5C 200.522,286.189 199.855,285.522 199.5,284.5C 200.85,283.05 202.516,282.383 204.5,282.5C 203.066,274.874 205.399,268.708 211.5,264C 216.395,262.884 219.061,264.884 219.5,270C 219.25,272.422 218.416,274.589 217,276.5C 215.768,273.7 215.101,270.7 215,267.5C 211.084,266.39 209.084,268.057 209,272.5C 208.503,275.146 208.336,277.813 208.5,280.5C 211.983,279.916 214.983,280.749 217.5,283C 214.607,284.149 211.607,284.649 208.5,284.5C 208.5,285.5 208.5,286.5 208.5,287.5 Z"/></g>
<g><path style="opacity:1" fill="#151515" d="M 246.5,266.5 C 247.873,266.343 249.207,266.51 250.5,267C 252.743,269.488 254.743,272.154 256.5,275C 255.167,275.667 253.833,275.667 252.5,275C 250.112,272.371 248.112,269.538 246.5,266.5 Z"/></g>
<g><path style="opacity:1" fill="#111111" d="M 596.5,274.5 C 595.532,276.607 595.198,278.941 595.5,281.5C 596.791,281.737 597.791,281.404 598.5,280.5C 601.022,280.128 603.022,280.961 604.5,283C 601.607,284.149 598.607,284.649 595.5,284.5C 595.5,291.167 595.5,297.833 595.5,304.5C 593.62,304.771 592.287,304.104 591.5,302.5C 591.5,296.833 591.5,291.167 591.5,285.5C 590.209,285.263 589.209,285.596 588.5,286.5C 587.295,284.59 587.962,283.257 590.5,282.5C 590.4,275.623 592.733,269.79 597.5,265C 600.835,262.709 603.668,263.209 606,266.5C 606.364,263.751 607.697,261.751 610,260.5C 610.772,260.645 611.439,260.978 612,261.5C 612.667,263.833 612.667,266.167 612,268.5C 610.333,269.833 608.667,269.833 607,268.5C 604.439,279.073 602.772,278.74 602,267.5C 600.951,266.483 599.784,266.316 598.5,267C 596.887,269.228 596.22,271.728 596.5,274.5 Z"/></g>
<g><path style="opacity:1" fill="#131313" d="M 223.5,277.5 C 228.742,276.271 232.575,277.937 235,282.5C 234.836,289.476 234.669,296.476 234.5,303.5C 233.167,303.5 231.833,303.5 230.5,303.5C 230.762,302.022 230.429,300.689 229.5,299.5C 225.953,305.047 221.786,305.714 217,301.5C 216.365,299.365 216.699,297.365 218,295.5C 220.958,291.855 224.625,289.188 229,287.5C 230.297,283.825 229.297,281.158 226,279.5C 222.403,281.361 220.903,284.361 221.5,288.5C 220.5,288.5 219.5,288.5 218.5,288.5C 218.277,283.948 219.944,280.281 223.5,277.5 Z"/></g>
<g><path style="opacity:1" fill="#030303" d="M 268.5,277.5 C 269.5,277.5 270.5,277.5 271.5,277.5C 271.5,285.833 271.5,294.167 271.5,302.5C 270.178,302.67 269.011,302.337 268,301.5C 267.2,293.421 267.367,285.421 268.5,277.5 Z"/></g>
<g><path style="opacity:1" fill="#131313" d="M 421.5,277.5 C 424.187,277.336 426.854,277.503 429.5,278C 430.701,278.903 431.535,280.069 432,281.5C 431.563,288.859 431.729,296.192 432.5,303.5C 429.14,304.21 427.307,302.876 427,299.5C 425.5,301 424,302.5 422.5,304C 414.607,305.023 412.44,301.857 416,294.5C 419.092,291.578 422.592,289.245 426.5,287.5C 427.952,284.718 427.619,282.218 425.5,280C 420.385,280.317 418.385,283.15 419.5,288.5C 418.167,288.5 416.833,288.5 415.5,288.5C 415.844,283.848 417.844,280.182 421.5,277.5 Z"/></g>
<g><path style="opacity:1" fill="#7b7b7b" d="M 596.5,274.5 C 596.025,277.082 596.692,279.082 598.5,280.5C 597.791,281.404 596.791,281.737 595.5,281.5C 595.198,278.941 595.532,276.607 596.5,274.5 Z"/></g>
<g><path style="opacity:1" fill="#161616" d="M 606.5,277.5 C 607.833,277.5 609.167,277.5 610.5,277.5C 610.666,285.507 610.5,293.507 610,301.5C 608.286,302.925 606.953,302.592 606,300.5C 605.233,292.785 605.4,285.118 606.5,277.5 Z"/></g>
<g><path style="opacity:1" fill="#171717" d="M 616.5,277.5 C 617.833,277.5 619.167,277.5 620.5,277.5C 620.5,285.833 620.5,294.167 620.5,302.5C 618.61,302.703 617.11,302.037 616,300.5C 615.309,292.805 615.475,285.139 616.5,277.5 Z"/></g>
<g><path style="opacity:1" fill="#161616" d="M 685.5,277.5 C 691.302,276.006 695.136,278.006 697,283.5C 697.001,287.85 696.501,292.183 695.5,296.5C 695.753,298.858 696.086,301.192 696.5,303.5C 693.14,304.21 691.307,302.876 691,299.5C 688.543,304.186 684.877,305.519 680,303.5C 677.777,299.612 678.277,296.112 681.5,293C 684.166,290.665 687.166,288.831 690.5,287.5C 691.952,284.718 691.619,282.218 689.5,280C 686.702,279.439 684.869,280.606 684,283.5C 683.506,285.134 683.34,286.801 683.5,288.5C 681.365,288.853 680.032,288.02 679.5,286C 680.927,282.743 682.927,279.91 685.5,277.5 Z"/></g>
<g><path style="opacity:1" fill="#171717" d="M 752.5,277.5 C 753.833,277.5 755.167,277.5 756.5,277.5C 756.5,285.833 756.5,294.167 756.5,302.5C 754.61,302.703 753.11,302.037 752,300.5C 751.309,292.805 751.475,285.139 752.5,277.5 Z"/></g>
<g><path style="opacity:1" fill="#161616" d="M 344.5,301.5 C 344.664,298.813 344.497,296.146 344,293.5C 343.487,294.527 342.987,295.527 342.5,296.5C 340.674,304.18 337.174,305.18 332,299.5C 330.201,292.572 330.034,285.572 331.5,278.5C 333.288,278.215 334.955,278.548 336.5,279.5C 335.206,285.808 335.206,292.141 336.5,298.5C 338.718,297.076 340.218,295.076 341,292.5C 342.797,287.977 343.964,283.31 344.5,278.5C 345.833,278.5 347.167,278.5 348.5,278.5C 348.831,286.86 348.498,295.193 347.5,303.5C 346.261,303.058 345.261,302.391 344.5,301.5 Z"/></g>
<g><path style="opacity:1" fill="#151515" d="M 299.5,278.5 C 300.5,278.5 301.5,278.5 302.5,278.5C 302.335,281.518 302.502,284.518 303,287.5C 304.211,284.241 306.044,281.408 308.5,279C 309.944,278.219 311.277,278.386 312.5,279.5C 313.262,283.111 313.762,286.778 314,290.5C 315.265,285.618 317.765,281.618 321.5,278.5C 322.938,278.719 324.271,279.219 325.5,280C 325.529,286.99 325.863,293.99 326.5,301C 325.333,304.167 323.833,304.333 322,301.5C 321.667,295.167 321.333,288.833 321,282.5C 319.171,284.156 317.837,286.156 317,288.5C 315.53,293.243 313.864,297.909 312,302.5C 311,302.167 310,301.833 309,301.5C 309.305,294.85 309.305,288.183 309,281.5C 304.423,287.729 301.923,294.729 301.5,302.5C 300.167,302.5 298.833,302.5 297.5,302.5C 297.062,294.35 297.729,286.35 299.5,278.5 Z"/></g>
<g><path style="opacity:1" fill="#141414" d="M 387.5,282.5 C 386.371,284.628 386.204,286.961 387,289.5C 387.513,288.473 388.013,287.473 388.5,286.5C 389.507,281.986 392.174,279.486 396.5,279C 397.944,280.126 398.61,281.626 398.5,283.5C 397.732,286.154 397.566,288.821 398,291.5C 399.514,286.971 401.681,282.805 404.5,279C 406.567,278.464 408.401,278.964 410,280.5C 410.667,287.833 410.667,295.167 410,302.5C 407.91,303.791 406.576,303.124 406,300.5C 405.845,294.439 405.678,288.439 405.5,282.5C 401.18,288.478 398.514,295.144 397.5,302.5C 396.167,302.5 394.833,302.5 393.5,302.5C 395.316,274.838 392.816,274.505 386,301.5C 384.989,302.337 383.822,302.67 382.5,302.5C 382.302,294.466 382.635,286.466 383.5,278.5C 384.833,278.5 386.167,278.5 387.5,278.5C 387.5,279.833 387.5,281.167 387.5,282.5 Z"/></g>
<g><path style="opacity:1" fill="#0a0a0a" d="M 446.5,277.5 C 449.822,277.489 451.489,279.155 451.5,282.5C 451.563,284.481 450.896,286.148 449.5,287.5C 448.012,285.851 447.012,283.851 446.5,281.5C 445.201,282.09 444.368,283.09 444,284.5C 442.63,290.742 442.13,297.075 442.5,303.5C 441.167,303.5 439.833,303.5 438.5,303.5C 438.334,296.159 438.5,288.826 439,281.5C 441.26,279.003 442.593,279.67 443,283.5C 443.926,281.308 445.093,279.308 446.5,277.5 Z"/></g>
<g><path style="opacity:1" fill="#161616" d="M 647.5,278.5 C 648.833,278.5 650.167,278.5 651.5,278.5C 651.336,281.187 651.503,283.854 652,286.5C 658.807,275.211 662.473,276.211 663,289.5C 664.181,285.637 666.014,282.137 668.5,279C 670.92,278.313 673.087,278.813 675,280.5C 674.585,287.202 674.752,293.869 675.5,300.5C 674.332,302.217 672.665,302.884 670.5,302.5C 670.83,295.8 670.497,289.134 669.5,282.5C 665.463,288.611 662.796,295.278 661.5,302.5C 660.167,302.5 658.833,302.5 657.5,302.5C 658.112,295.465 658.112,288.465 657.5,281.5C 653.336,287.486 650.836,294.152 650,301.5C 648.989,302.337 647.822,302.67 646.5,302.5C 646.302,294.466 646.635,286.466 647.5,278.5 Z"/></g>
<g><path style="opacity:1" fill="#f3f3f3" d="M 360.5,281.5 C 364.306,281.02 367.639,282.02 370.5,284.5C 371.904,283.001 372.57,283.334 372.5,285.5C 371.779,291.982 368.446,296.316 362.5,298.5C 358.589,297.372 356.589,294.706 356.5,290.5C 356.686,286.923 358.02,283.923 360.5,281.5 Z"/></g>
<g><path style="opacity:1" fill="#f3f3f3" d="M 707.5,281.5 C 718.229,280.711 721.395,285.045 717,294.5C 712.736,299.65 708.736,299.65 705,294.5C 703.964,289.773 704.797,285.44 707.5,281.5 Z"/></g>
<g><path style="opacity:1" fill="#636363" d="M 734.5,278.5 C 734.194,281.385 734.527,284.052 735.5,286.5C 735.013,287.473 734.513,288.473 734,289.5C 733.19,285.642 733.357,281.976 734.5,278.5 Z"/></g>
<g><path style="opacity:1" fill="#6f6f6f" d="M 387.5,282.5 C 387.232,284.099 387.566,285.432 388.5,286.5C 388.013,287.473 387.513,288.473 387,289.5C 386.204,286.961 386.371,284.628 387.5,282.5 Z"/></g>
<g><path style="opacity:1" fill="#e4e4e4" d="M 228.5,290.5 C 230.344,291.204 230.844,292.537 230,294.5C 228.285,296.759 226.452,298.926 224.5,301C 220,303.167 218.833,302 221,297.5C 223.396,294.933 225.896,292.6 228.5,290.5 Z"/></g>
<g><path style="opacity:1" fill="#ededed" d="M 424.5,291.5 C 425.5,291.5 426.5,291.5 427.5,291.5C 426.239,297.093 422.906,300.759 417.5,302.5C 418.066,297.699 420.4,294.032 424.5,291.5 Z"/></g>
<g><path style="opacity:1" fill="#ececec" d="M 689.5,291.5 C 691.344,292.204 691.844,293.537 691,295.5C 689.078,299.597 685.912,301.93 681.5,302.5C 682.574,297.748 685.24,294.081 689.5,291.5 Z"/></g>
<g><path style="opacity:1" fill="#535353" d="M 201.5,286.5 C 202.209,285.596 203.209,285.263 204.5,285.5C 204.5,291.167 204.5,296.833 204.5,302.5C 204.144,296.923 203.144,291.59 201.5,286.5 Z"/></g>
<g><path style="opacity:1" fill="#8f8f8f" d="M 588.5,286.5 C 589.209,285.596 590.209,285.263 591.5,285.5C 591.5,291.167 591.5,296.833 591.5,302.5C 591.144,296.923 590.144,291.59 588.5,286.5 Z"/></g>
<g><path style="opacity:1" fill="#6e6e6e" d="M 344.5,301.5 C 343.833,299.833 343.167,298.167 342.5,296.5C 342.987,295.527 343.487,294.527 344,293.5C 344.497,296.146 344.664,298.813 344.5,301.5 Z"/></g>
<g><path style="opacity:1" fill="#505050" d="M 208.5,287.5 C 209.117,293.598 208.45,299.265 206.5,304.5C 207.126,298.732 207.793,293.066 208.5,287.5 Z"/></g>
<g><path style="opacity:1" fill="#929292" d="M 720.5,301.5 C 719.833,300.167 719.167,298.833 718.5,297.5C 718.461,296.244 718.961,295.244 720,294.5C 720.497,296.81 720.663,299.143 720.5,301.5 Z"/></g>
<g><path style="opacity:1" fill="#2c2c2c" d="M 85.5,427.5 C 86.8086,429.571 87.4752,432.071 87.5,435C 87.1667,437.5 86.8333,440 86.5,442.5C 85.5059,437.544 85.1725,432.544 85.5,427.5 Z"/></g>
<g><path style="opacity:1" fill="#222222" d="M 182.5,441.5 C 180.511,442.887 178.678,442.553 177,440.5C 176.333,438.167 176.333,435.833 177,433.5C 178.733,431.398 180.733,431.065 183,432.5C 183.202,430.744 183.702,429.078 184.5,427.5C 185.662,432.467 185.829,437.467 185,442.5C 184.329,441.748 183.496,441.414 182.5,441.5 Z"/></g>
<g><path style="opacity:1" fill="#2d2d2d" d="M 249.5,441.5 C 245.136,443.619 242.803,442.119 242.5,437C 243.339,432.466 245.839,430.966 250,432.5C 250.202,430.744 250.702,429.078 251.5,427.5C 252.833,432.5 252.833,437.5 251.5,442.5C 250.817,442.137 250.15,441.804 249.5,441.5 Z"/></g>
<g><path style="opacity:1" fill="#2c2c2c" d="M 266.5,427.5 C 267.809,429.571 268.475,432.071 268.5,435C 268.167,437.5 267.833,440 267.5,442.5C 266.506,437.544 266.173,432.544 266.5,427.5 Z"/></g>
<g><path style="opacity:1" fill="#4b4b4b" d="M 321.5,427.5 C 322.922,427.75 323.922,428.583 324.5,430C 322.511,430.519 321.511,429.686 321.5,427.5 Z"/></g>
<g><path style="opacity:1" fill="#303030" d="M 430.5,427.5 C 432.237,430.008 433.07,433.008 433,436.5C 434.046,434.91 435.213,433.41 436.5,432C 437.167,431.333 437.833,431.333 438.5,432C 434.566,435.123 434.566,438.29 438.5,441.5C 438.167,441.833 437.833,442.167 437.5,442.5C 436.5,440.833 435.167,439.5 433.5,438.5C 432.833,439.833 432.167,441.167 431.5,442.5C 430.506,437.544 430.173,432.544 430.5,427.5 Z"/></g>
<g><path style="opacity:1" fill="#2c2c2c" d="M 462.5,427.5 C 463.809,429.571 464.475,432.071 464.5,435C 464.167,437.5 463.833,440 463.5,442.5C 462.506,437.544 462.173,432.544 462.5,427.5 Z"/></g>
<g><path style="opacity:1" fill="#535353" d="M 71.5,426.5 C 73.1344,427.207 74.4677,428.373 75.5,430C 73.1589,430.168 71.8256,429.001 71.5,426.5 Z"/></g>
<g><path style="opacity:1" fill="#1c1c1c" d="M 301.5,442.5 C 301.5,438.167 301.5,433.833 301.5,429.5C 302.659,427.623 304.326,427.123 306.5,428C 301.926,428.935 301.593,430.435 305.5,432.5C 304.675,433.386 303.675,433.719 302.5,433.5C 302.81,436.713 302.477,439.713 301.5,442.5 Z"/></g>
<g><path style="opacity:1" fill="#2f2f2f" d="M 330.5,427.5 C 331.773,428.077 331.773,428.743 330.5,429.5C 329.537,429.03 329.537,428.363 330.5,427.5 Z"/></g>
<g><path style="opacity:1" fill="#505050" d="M 446.5,427.5 C 448.337,427.639 448.67,428.306 447.5,429.5C 446.702,429.043 446.369,428.376 446.5,427.5 Z"/></g>
<g><path style="opacity:1" fill="#141414" d="M 395.5,430.5 C 396.167,433.833 396.833,437.167 397.5,440.5C 398.263,441.268 399.263,441.768 400.5,442C 398.888,442.72 397.388,442.554 396,441.5C 395.744,438.443 395.244,435.443 394.5,432.5C 394.863,431.817 395.196,431.15 395.5,430.5 Z"/></g>
<g><path style="opacity:1" fill="#2e2e2e" d="M 80.5,431.5 C 81.7868,432.871 82.4535,434.705 82.5,437C 82.1667,438.833 81.8333,440.667 81.5,442.5C 80.5108,438.893 80.1774,435.226 80.5,431.5 Z"/></g>
<g><path style="opacity:1" fill="#242424" d="M 117.5,431.5 C 119.081,432.579 120.747,432.579 122.5,431.5C 124.029,431.529 125.196,432.196 126,433.5C 126.821,436.554 126.655,439.554 125.5,442.5C 124.516,439.572 124.183,436.572 124.5,433.5C 122.533,433.261 120.699,433.594 119,434.5C 118.667,437.167 118.333,439.833 118,442.5C 117.501,438.848 117.335,435.182 117.5,431.5 Z"/></g>
<g><path style="opacity:1" fill="#171717" d="M 170.5,441.5 C 168.777,442.807 166.943,442.807 165,441.5C 164.333,438.167 164.333,434.833 165,431.5C 165.256,434.557 165.756,437.557 166.5,440.5C 167.689,441.429 169.022,441.762 170.5,441.5 Z"/></g>
<g><path style="opacity:1" fill="#2e2e2e" d="M 170.5,441.5 C 171.093,438.2 171.76,434.866 172.5,431.5C 173.833,435.167 173.833,438.833 172.5,442.5C 171.817,442.137 171.15,441.804 170.5,441.5 Z"/></g>
<g><path style="opacity:1" fill="#777777" d="M 190.5,432.5 C 189.521,435.625 189.187,438.958 189.5,442.5C 188.192,438.981 188.192,435.315 189.5,431.5C 190.107,431.624 190.44,431.957 190.5,432.5 Z"/></g>
<g><path style="opacity:1" fill="#787878" d="M 220.5,432.5 C 219.521,435.625 219.187,438.958 219.5,442.5C 218.192,438.981 218.192,435.315 219.5,431.5C 220.107,431.624 220.44,431.957 220.5,432.5 Z"/></g>
<g><path style="opacity:1" fill="#4d4d4d" d="M 221.5,433.5 C 222.427,431.524 223.76,431.191 225.5,432.5C 224.311,433.429 222.978,433.762 221.5,433.5 Z"/></g>
<g><path style="opacity:1" fill="#424242" d="M 282.5,427.5 C 283.999,428.678 284.999,430.345 285.5,432.5C 287.969,430.993 290.135,431.327 292,433.5C 292.821,436.554 292.655,439.554 291.5,442.5C 290.516,439.572 290.183,436.572 290.5,433.5C 288.533,433.261 286.699,433.594 285,434.5C 284.818,437.226 284.318,439.893 283.5,442.5C 282.506,437.544 282.173,432.544 282.5,427.5 Z"/></g>
<g><path style="opacity:1" fill="#4f4f4f" d="M 329.5,431.5 C 330.787,432.871 331.453,434.705 331.5,437C 331.167,438.833 330.833,440.667 330.5,442.5C 329.511,438.893 329.177,435.226 329.5,431.5 Z"/></g>
<g><path style="opacity:1" fill="#3d3d3d" d="M 366.5,431.5 C 369.068,431.573 371.734,431.906 374.5,432.5C 375.833,435.833 375.833,439.167 374.5,442.5C 373.516,439.572 373.183,436.572 373.5,433.5C 371.856,433.286 370.356,433.62 369,434.5C 368.818,437.226 368.318,439.893 367.5,442.5C 366.511,438.893 366.177,435.226 366.5,431.5 Z"/></g>
<g><path style="opacity:1" fill="#616161" d="M 395.5,430.5 C 395.56,429.957 395.893,429.624 396.5,429.5C 397.5,430.5 398.5,431.5 399.5,432.5C 397.777,434.868 397.11,437.534 397.5,440.5C 396.833,437.167 396.167,433.833 395.5,430.5 Z"/></g>
<g><path style="opacity:1" fill="#2e2e2e" d="M 446.5,431.5 C 447.805,433.397 448.471,435.731 448.5,438.5C 448.333,440.833 448.167,443.167 448,445.5C 446.759,447.421 445.259,447.754 443.5,446.5C 444.325,445.614 445.325,445.281 446.5,445.5C 446.5,440.833 446.5,436.167 446.5,431.5 Z"/></g>
<g><path style="opacity:1" fill="#343434" d="M 52.5,427.5 C 56.8383,427.622 57.1716,427.955 53.5,428.5C 53.5,429.5 53.5,430.5 53.5,431.5C 57.5,432.167 57.5,432.833 53.5,433.5C 53.8174,436.572 53.4841,439.572 52.5,442.5C 51.2214,437.449 51.2214,432.449 52.5,427.5 Z"/></g>
<g><path style="opacity:1" fill="#2e2e2e" d="M 94.5,431.5 C 96.3652,433.513 98.0319,435.846 99.5,438.5C 100.498,436.51 101.498,434.51 102.5,432.5C 103.167,431.167 103.833,431.167 104.5,432.5C 102.374,436.711 100.541,441.044 99,445.5C 97.7592,447.421 96.2592,447.754 94.5,446.5C 96.7443,445.997 98.0776,444.663 98.5,442.5C 97.1612,438.815 95.8279,435.149 94.5,431.5 Z"/></g>
<g><path style="opacity:1" fill="#282828" d="M 154.5,433.5 C 153.833,445.5 153.167,445.5 152.5,433.5C 150.856,433.286 149.356,433.62 148,434.5C 147.818,437.226 147.318,439.893 146.5,442.5C 145.167,438.833 145.167,435.167 146.5,431.5C 149.346,430.877 152.012,431.544 154.5,433.5 Z"/></g>
<g><path style="opacity:1" fill="#303030" d="M 154.5,433.5 C 156.54,430.866 158.707,430.866 161,433.5C 161.821,436.554 161.655,439.554 160.5,442.5C 159.516,439.572 159.183,436.572 159.5,433.5C 157.833,433.5 156.167,433.5 154.5,433.5 Z"/></g>
<g><path style="opacity:1" fill="#eaeaea" d="M 182.5,441.5 C 177.738,440.908 176.404,438.408 178.5,434C 180.134,433.506 181.801,433.34 183.5,433.5C 183.721,436.279 183.388,438.946 182.5,441.5 Z"/></g>
<g><path style="opacity:1" fill="#030303" d="M 220.5,432.5 C 220.5,433.167 220.833,433.5 221.5,433.5C 220.912,436.61 220.245,439.61 219.5,442.5C 219.187,438.958 219.521,435.625 220.5,432.5 Z"/></g>
<g><path style="opacity:1" fill="#f1f1f1" d="M 249.5,441.5 C 244.738,440.908 243.404,438.408 245.5,434C 247.112,433.28 248.612,433.446 250,434.5C 250.703,436.929 250.537,439.262 249.5,441.5 Z"/></g>
<g><path style="opacity:1" fill="#6a6a6a" d="M 301.5,429.5 C 301.5,433.833 301.5,438.167 301.5,442.5C 300.764,439.305 300.097,435.971 299.5,432.5C 299.942,431.261 300.609,430.261 301.5,429.5 Z"/></g>
<g><path style="opacity:1" fill="#202020" d="M 212.5,441.5 C 208.014,443.177 206.681,441.677 208.5,437C 210.134,436.506 211.801,436.34 213.5,436.5C 213.5,435.5 213.5,434.5 213.5,433.5C 211.801,433.66 210.134,433.494 208.5,433C 210.333,431.212 212.333,431.046 214.5,432.5C 215.657,435.784 215.824,439.118 215,442.5C 214.329,441.748 213.496,441.414 212.5,441.5 Z"/></g>
<g><path style="opacity:1" fill="#202020" d="M 260.5,441.5 C 256.014,443.177 254.681,441.677 256.5,437C 258.134,436.506 259.801,436.34 261.5,436.5C 261.5,435.5 261.5,434.5 261.5,433.5C 259.801,433.66 258.134,433.494 256.5,433C 258.333,431.212 260.333,431.046 262.5,432.5C 263.657,435.784 263.824,439.118 263,442.5C 262.329,441.748 261.496,441.414 260.5,441.5 Z"/></g>
<g><path style="opacity:1" fill="#202020" d="M 424.5,441.5 C 420.014,443.177 418.681,441.677 420.5,437C 422.134,436.506 423.801,436.34 425.5,436.5C 425.5,435.5 425.5,434.5 425.5,433.5C 423.801,433.66 422.134,433.494 420.5,433C 422.333,431.212 424.333,431.046 426.5,432.5C 427.657,435.784 427.824,439.118 427,442.5C 426.329,441.748 425.496,441.414 424.5,441.5 Z"/></g>
<g><path style="opacity:1" fill="#222222" d="M 453.5,431.5 C 457.833,431.167 459.833,433.167 459.5,437.5C 457.076,437.192 454.743,437.526 452.5,438.5C 452.977,439.478 453.643,440.311 454.5,441C 456.424,441.179 458.091,441.346 459.5,441.5C 454.602,443.692 451.602,442.192 450.5,437C 450.863,434.808 451.863,432.974 453.5,431.5 Z"/></g>
<g><path style="opacity:1" fill="#fcfcfc" d="M 457.5,434.5 C 456.167,435.833 454.833,435.833 453.5,434.5C 454.833,433.167 456.167,433.167 457.5,434.5 Z"/></g>
<g><path style="opacity:1" fill="#333333" d="M 379.5,442.5 C 379.123,439.475 378.956,436.475 379,433.5C 381.497,431.522 384.331,431.022 387.5,432C 386.751,433.734 386.251,435.567 386,437.5C 378.758,438.982 378.925,440.316 386.5,441.5C 387.527,446.95 385.193,448.784 379.5,447C 377.019,445.196 377.019,443.696 379.5,442.5 Z"/></g>
<g><path style="opacity:1" fill="#eaeaea" d="M 381.5,432.5 C 384.084,433.048 385.084,434.715 384.5,437.5C 383.167,437.5 381.833,437.5 380.5,437.5C 380.366,435.708 380.699,434.042 381.5,432.5 Z"/></g>
<g><path style="opacity:1" fill="#909090" d="M 453.5,434.5 C 454.833,435.833 456.167,435.833 457.5,434.5C 458.043,434.56 458.376,434.893 458.5,435.5C 456.5,436.833 454.5,436.833 452.5,435.5C 452.624,434.893 452.957,434.56 453.5,434.5 Z"/></g>
<g><path style="opacity:1" fill="#272727" d="M 189.5,442.5 C 189.187,438.958 189.521,435.625 190.5,432.5C 192.936,430.983 195.102,431.316 197,433.5C 202.096,430.232 204.596,431.732 204.5,438C 204.167,439.5 203.833,441 203.5,442.5C 202.516,439.572 202.183,436.572 202.5,433.5C 200.856,433.286 199.356,433.62 198,434.5C 196.65,444.868 195.816,444.535 195.5,433.5C 193.856,433.286 192.356,433.62 191,434.5C 190.817,437.365 190.317,440.031 189.5,442.5 Z"/></g>
<g><path style="opacity:1" fill="#2c2c2c" d="M 344.5,431.5 C 346.453,434.141 347.953,437.141 349,440.5C 349.875,437.372 351.042,434.372 352.5,431.5C 352.193,436.613 350.693,441.613 348,446.5C 346.506,447.747 345.006,447.747 343.5,446.5C 346.068,446.048 347.401,444.548 347.5,442C 346.194,438.583 345.194,435.083 344.5,431.5 Z"/></g>
<g><path style="opacity:1" fill="#242424" d="M 479.5,431.5 C 486.662,431.613 486.995,432.613 480.5,434.5C 481.436,435.974 482.77,436.974 484.5,437.5C 485.747,439.006 485.747,440.506 484.5,442C 482.421,442.808 480.421,442.641 478.5,441.5C 479.909,441.346 481.576,441.179 483.5,441C 483.957,440.586 484.291,440.086 484.5,439.5C 482.999,438.248 481.332,437.248 479.5,436.5C 478.334,434.833 478.334,433.166 479.5,431.5 Z"/></g>
<g><path style="opacity:1" fill="#2c2c2c" d="M 59.5,431.5 C 61.4672,431.261 63.3005,431.594 65,432.5C 65.6667,435.833 65.6667,439.167 65,442.5C 62.7658,442.626 60.4324,442.293 58,441.5C 57.3333,440.167 57.3333,438.833 58,437.5C 59.7803,436.406 61.6136,435.406 63.5,434.5C 61.9223,433.702 60.2556,433.202 58.5,433C 59.056,432.617 59.3893,432.117 59.5,431.5 Z"/></g>
<g><path style="opacity:1" fill="#e3e3e3" d="M 59.5,437.5 C 60.8333,437.5 62.1667,437.5 63.5,437.5C 63.1144,441.738 61.4477,442.404 58.5,439.5C 58.8627,438.817 59.1961,438.15 59.5,437.5 Z"/></g>
<g><path style="opacity:1" fill="#eaeaea" d="M 212.5,441.5 C 209.306,441.824 208.306,440.658 209.5,438C 210.793,437.51 212.127,437.343 213.5,437.5C 213.567,438.959 213.234,440.292 212.5,441.5 Z"/></g>
<g><path style="opacity:1" fill="#eaeaea" d="M 260.5,441.5 C 257.306,441.824 256.306,440.658 257.5,438C 258.793,437.51 260.127,437.343 261.5,437.5C 261.567,438.959 261.234,440.292 260.5,441.5 Z"/></g>
<g><path style="opacity:1" fill="#2c2c2c" d="M 273.5,431.5 C 275.467,431.261 277.301,431.594 279,432.5C 279.667,435.833 279.667,439.167 279,442.5C 276.766,442.626 274.432,442.293 272,441.5C 271.333,440.167 271.333,438.833 272,437.5C 273.78,436.406 275.614,435.406 277.5,434.5C 275.922,433.702 274.256,433.202 272.5,433C 273.056,432.617 273.389,432.117 273.5,431.5 Z"/></g>
<g><path style="opacity:1" fill="#e3e3e3" d="M 273.5,437.5 C 274.833,437.5 276.167,437.5 277.5,437.5C 277.114,441.738 275.448,442.404 272.5,439.5C 272.863,438.817 273.196,438.15 273.5,437.5 Z"/></g>
<g><path style="opacity:1" fill="#eaeaea" d="M 424.5,441.5 C 421.306,441.824 420.306,440.658 421.5,438C 422.793,437.51 424.127,437.343 425.5,437.5C 425.567,438.959 425.234,440.292 424.5,441.5 Z"/></g>
<g><path style="opacity:1" fill="#2c2c2c" d="M 469.5,431.5 C 471.467,431.261 473.301,431.594 475,432.5C 475.667,435.833 475.667,439.167 475,442.5C 472.766,442.626 470.432,442.293 468,441.5C 467.333,440.167 467.333,438.833 468,437.5C 469.78,436.406 471.614,435.406 473.5,434.5C 471.922,433.702 470.256,433.202 468.5,433C 469.056,432.617 469.389,432.117 469.5,431.5 Z"/></g>
<g><path style="opacity:1" fill="#e3e3e3" d="M 469.5,437.5 C 470.833,437.5 472.167,437.5 473.5,437.5C 473.114,441.738 471.448,442.404 468.5,439.5C 468.863,438.817 469.196,438.15 469.5,437.5 Z"/></g>
<g><path style="opacity:1" fill="#2f2f2f" d="M 107.5,431.5 C 112.578,430.745 114.911,432.912 114.5,438C 114.167,439.5 113.833,441 113.5,442.5C 111.328,442.324 108.995,442.157 106.5,442C 105.167,440.333 105.167,438.667 106.5,437C 108.473,436.505 110.473,436.338 112.5,436.5C 112.5,435.5 112.5,434.5 112.5,433.5C 110.473,433.662 108.473,433.495 106.5,433C 107.056,432.617 107.389,432.117 107.5,431.5 Z"/></g>
<g><path style="opacity:1" fill="#eaeaea" d="M 107.5,437.5 C 109.288,437.215 110.955,437.548 112.5,438.5C 111.579,440.756 109.912,441.756 107.5,441.5C 107.5,440.167 107.5,438.833 107.5,437.5 Z"/></g>
<g><path style="opacity:1" fill="#2f2f2f" d="M 233.5,431.5 C 238.578,430.745 240.911,432.912 240.5,438C 240.167,439.5 239.833,441 239.5,442.5C 237.328,442.324 234.995,442.157 232.5,442C 231.167,440.333 231.167,438.667 232.5,437C 234.473,436.505 236.473,436.338 238.5,436.5C 238.5,435.5 238.5,434.5 238.5,433.5C 236.473,433.662 234.473,433.495 232.5,433C 233.056,432.617 233.389,432.117 233.5,431.5 Z"/></g>
<g><path style="opacity:1" fill="#eaeaea" d="M 233.5,437.5 C 235.288,437.215 236.955,437.548 238.5,438.5C 237.579,440.756 235.912,441.756 233.5,441.5C 233.5,440.167 233.5,438.833 233.5,437.5 Z"/></g>
<g><path style="opacity:1" fill="#252525" d="M 312.5,441.5 C 311.054,442.613 309.387,442.78 307.5,442C 306.521,437.483 308.521,435.65 313.5,436.5C 313.5,435.5 313.5,434.5 313.5,433.5C 311.712,433.785 310.045,433.452 308.5,432.5C 310.949,431.09 313.116,431.424 315,433.5C 315.821,436.554 315.655,439.554 314.5,442.5C 313.817,442.137 313.15,441.804 312.5,441.5 Z"/></g>
<g><path style="opacity:1" fill="#e7e7e7" d="M 312.5,441.5 C 311.167,441.5 309.833,441.5 308.5,441.5C 308.384,438.09 310.05,436.756 313.5,437.5C 313.567,438.959 313.234,440.292 312.5,441.5 Z"/></g>
<g><path style="opacity:1" fill="#252525" d="M 360.5,441.5 C 359.054,442.613 357.387,442.78 355.5,442C 354.521,437.483 356.521,435.65 361.5,436.5C 361.5,435.5 361.5,434.5 361.5,433.5C 359.712,433.785 358.045,433.452 356.5,432.5C 358.949,431.09 361.116,431.424 363,433.5C 363.821,436.554 363.655,439.554 362.5,442.5C 361.817,442.137 361.15,441.804 360.5,441.5 Z"/></g>
<g><path style="opacity:1" fill="#e7e7e7" d="M 360.5,441.5 C 359.167,441.5 357.833,441.5 356.5,441.5C 356.384,438.09 358.05,436.756 361.5,437.5C 361.567,438.959 361.234,440.292 360.5,441.5 Z"/></g>
<g><path style="opacity:1" fill="#2d2d2d" d="M 414.5,427.5 C 415.809,429.571 416.475,432.071 416.5,435C 416.167,437.5 415.833,440 415.5,442.5C 413.328,442.324 410.995,442.157 408.5,442C 405.282,437.409 406.115,433.909 411,431.5C 411.873,431.735 412.707,432.069 413.5,432.5C 414.452,430.955 414.785,429.288 414.5,427.5 Z"/></g>
<g><path style="opacity:1" fill="#f1f1f1" d="M 409.5,433.5 C 414.068,433.083 415.568,435.083 414,439.5C 412.604,441.527 410.938,441.86 409,440.5C 408.297,438.071 408.463,435.738 409.5,433.5 Z"/></g>
<g><path style="opacity:1" fill="#f9f9f9" d="M 379.5,442.5 C 381.5,442.5 383.5,442.5 385.5,442.5C 385.5,443.5 385.5,444.5 385.5,445.5C 383.5,445.5 381.5,445.5 379.5,445.5C 379.5,444.5 379.5,443.5 379.5,442.5 Z"/></g>
<g><path style="opacity:1" fill="#313131" d="M 131.5,432.5 C 133.693,431.203 136.027,431.203 138.5,432.5C 137.829,436.505 135.495,438.838 131.5,439.5C 133.078,440.298 134.744,440.798 136.5,441C 139.513,445.04 138.346,447.207 133,447.5C 130.624,447.457 129.124,446.291 128.5,444C 130.17,441.057 130.504,438.057 129.5,435C 129.684,433.624 130.351,432.791 131.5,432.5 Z"/></g>
<g><path style="opacity:1" fill="#f9f9f9" d="M 130.5,442.5 C 132.5,442.5 134.5,442.5 136.5,442.5C 136.5,443.5 136.5,444.5 136.5,445.5C 134.5,445.5 132.5,445.5 130.5,445.5C 130.5,444.5 130.5,443.5 130.5,442.5 Z"/></g>
<g><path style="opacity:1" fill="#dcdcdc" d="M 131.5,432.5 C 135.161,432.35 136.161,433.85 134.5,437C 130.707,437.487 129.707,435.987 131.5,432.5 Z"/></g>
<g><path style="opacity:1" fill="#303030" d="M 92.5,455.5 C 94.2371,458.008 95.0704,461.008 95,464.5C 96.0458,462.91 97.2125,461.41 98.5,460C 99.1667,459.333 99.8333,459.333 100.5,460C 96.5664,463.123 96.5664,466.29 100.5,469.5C 100.167,469.833 99.8333,470.167 99.5,470.5C 98.5,468.833 97.1667,467.5 95.5,466.5C 94.8333,467.833 94.1667,469.167 93.5,470.5C 92.5059,465.544 92.1725,460.544 92.5,455.5 Z"/></g>
<g><path style="opacity:1" fill="#141414" d="M 57.5,458.5 C 58.1667,461.833 58.8333,465.167 59.5,468.5C 60.2625,469.268 61.2625,469.768 62.5,470C 60.8876,470.72 59.3876,470.554 58,469.5C 57.7435,466.443 57.2435,463.443 56.5,460.5C 56.8627,459.817 57.1961,459.15 57.5,458.5 Z"/></g>
<g><path style="opacity:1" fill="#616161" d="M 57.5,458.5 C 57.56,457.957 57.8933,457.624 58.5,457.5C 59.5,458.5 60.5,459.5 61.5,460.5C 59.777,462.868 59.1103,465.534 59.5,468.5C 58.8333,465.167 58.1667,461.833 57.5,458.5 Z"/></g>
<g><path style="opacity:1" fill="#292929" d="M 108.5,459.5 C 110.081,460.579 111.747,460.579 113.5,459.5C 115.029,459.529 116.196,460.196 117,461.5C 117.821,464.554 117.655,467.554 116.5,470.5C 115.516,467.572 115.183,464.572 115.5,461.5C 113.833,461.5 112.167,461.5 110.5,461.5C 110.817,464.572 110.484,467.572 109.5,470.5C 108.511,466.893 108.177,463.226 108.5,459.5 Z"/></g>
<g><path style="opacity:1" fill="#777777" d="M 133.5,460.5 C 132.521,463.625 132.187,466.958 132.5,470.5C 131.192,466.981 131.192,463.315 132.5,459.5C 133.107,459.624 133.44,459.957 133.5,460.5 Z"/></g>
<g><path style="opacity:1" fill="#222222" d="M 150.5,459.5 C 152.081,460.579 153.747,460.579 155.5,459.5C 157.029,459.529 158.196,460.196 159,461.5C 161.164,467.82 158.997,470.82 152.5,470.5C 152.785,472.288 152.452,473.955 151.5,475.5C 150.505,470.208 150.172,464.875 150.5,459.5 Z"/></g>
<g><path style="opacity:1" fill="#eaeaea" d="M 152.5,461.5 C 158.704,461.314 160.037,463.814 156.5,469C 155.216,469.684 154.049,469.517 153,468.5C 152.503,466.19 152.337,463.857 152.5,461.5 Z"/></g>
<g><path style="opacity:1" fill="#202020" d="M 125.5,469.5 C 121.014,471.177 119.681,469.677 121.5,465C 123.134,464.506 124.801,464.34 126.5,464.5C 126.5,463.5 126.5,462.5 126.5,461.5C 124.801,461.66 123.134,461.494 121.5,461C 123.333,459.212 125.333,459.046 127.5,460.5C 128.657,463.784 128.824,467.118 128,470.5C 127.329,469.748 126.496,469.414 125.5,469.5 Z"/></g>
<g><path style="opacity:1" fill="#353535" d="M 173.5,455.5 C 175.237,458.008 176.07,461.008 176,464.5C 177.667,462.833 179.333,461.167 181,459.5C 180.973,461.417 180.139,463.084 178.5,464.5C 179.253,466.753 180.586,468.587 182.5,470C 179.899,469.599 177.899,468.099 176.5,465.5C 175.833,467.167 175.167,468.833 174.5,470.5C 173.506,465.544 173.173,460.544 173.5,455.5 Z"/></g>
<g><path style="opacity:1" fill="#272727" d="M 132.5,470.5 C 132.187,466.958 132.521,463.625 133.5,460.5C 135.936,458.983 138.102,459.316 140,461.5C 145.096,458.232 147.596,459.732 147.5,466C 147.167,467.5 146.833,469 146.5,470.5C 145.516,467.572 145.183,464.572 145.5,461.5C 143.856,461.286 142.356,461.62 141,462.5C 139.65,472.868 138.816,472.535 138.5,461.5C 136.856,461.286 135.356,461.62 134,462.5C 133.817,465.365 133.317,468.031 132.5,470.5 Z"/></g>
<g><path style="opacity:1" fill="#eaeaea" d="M 125.5,469.5 C 122.306,469.824 121.306,468.658 122.5,466C 123.793,465.51 125.127,465.343 126.5,465.5C 126.567,466.959 126.234,468.292 125.5,469.5 Z"/></g>
<g><path style="opacity:1" fill="#2c2c2c" d="M 164.5,459.5 C 166.467,459.261 168.301,459.594 170,460.5C 170.667,463.833 170.667,467.167 170,470.5C 167.766,470.626 165.432,470.293 163,469.5C 162.333,468.167 162.333,466.833 163,465.5C 164.78,464.406 166.614,463.406 168.5,462.5C 166.922,461.702 165.256,461.202 163.5,461C 164.056,460.617 164.389,460.117 164.5,459.5 Z"/></g>
<g><path style="opacity:1" fill="#e3e3e3" d="M 164.5,465.5 C 165.833,465.5 167.167,465.5 168.5,465.5C 168.114,469.738 166.448,470.404 163.5,467.5C 163.863,466.817 164.196,466.15 164.5,465.5 Z"/></g>
<g><path style="opacity:1" fill="#252525" d="M 86.5,469.5 C 85.0536,470.613 83.3869,470.78 81.5,470C 80.5214,465.483 82.5214,463.65 87.5,464.5C 87.5,463.5 87.5,462.5 87.5,461.5C 85.712,461.785 84.0453,461.452 82.5,460.5C 84.9492,459.09 87.1159,459.424 89,461.5C 89.8214,464.554 89.6548,467.554 88.5,470.5C 87.8165,470.137 87.1499,469.804 86.5,469.5 Z"/></g>
<g><path style="opacity:1" fill="#e7e7e7" d="M 86.5,469.5 C 85.1667,469.5 83.8333,469.5 82.5,469.5C 82.3838,466.09 84.0504,464.756 87.5,465.5C 87.5674,466.959 87.2341,468.292 86.5,469.5 Z"/></g>
<g><path style="opacity:1" fill="#212121" d="M 52.5,456.5 C 53.2389,456.369 53.9056,456.536 54.5,457C 51.8333,462.333 51.8333,467.667 54.5,473C 54.1667,473.167 53.8333,473.333 53.5,473.5C 49.9163,468.004 49.583,462.337 52.5,456.5 Z"/></g>
<g><path style="opacity:1" fill="#2d2d2d" d="M 76.5,455.5 C 77.8086,457.571 78.4752,460.071 78.5,463C 78.1667,465.5 77.8333,468 77.5,470.5C 75.3284,470.324 72.9951,470.157 70.5,470C 67.2818,465.409 68.1151,461.909 73,459.5C 73.8732,459.735 74.7065,460.069 75.5,460.5C 76.4519,458.955 76.7852,457.288 76.5,455.5 Z"/></g>
<g><path style="opacity:1" fill="#f1f1f1" d="M 71.5,461.5 C 76.0685,461.083 77.5685,463.083 76,467.5C 74.6043,469.527 72.9376,469.86 71,468.5C 70.2967,466.071 70.4634,463.738 71.5,461.5 Z"/></g>
<g><path style="opacity:1" fill="#3c3c3c" d="M 183.5,457.5 C 184.189,456.226 185.023,456.226 186,457.5C 187.534,461.711 187.867,466.044 187,470.5C 186.576,472.615 185.409,473.448 183.5,473C 184.998,470.583 185.665,467.917 185.5,465C 185.7,462.134 185.033,459.634 183.5,457.5 Z"/></g>
</svg>
