<?xml version="1.0" encoding="UTF-8"?>
<!DOCTYPE svg PUBLIC "-//W3C//DTD SVG 1.1//EN" "http://www.w3.org/Graphics/SVG/1.1/DTD/svg11.dtd">
<svg xmlns="http://www.w3.org/2000/svg" version="1.1" width="1000px" height="500px" style="shape-rendering:geometricPrecision; text-rendering:geometricPrecision; image-rendering:optimizeQuality; fill-rule:evenodd; clip-rule:evenodd" xmlns:xlink="http://www.w3.org/1999/xlink">
<g><path style="opacity:1" fill="#fefefe" d="M -0.5,-0.5 C 332.833,-0.5 666.167,-0.5 999.5,-0.5C 999.5,166.167 999.5,332.833 999.5,499.5C 666.167,499.5 332.833,499.5 -0.5,499.5C -0.5,332.833 -0.5,166.167 -0.5,-0.5 Z"/></g>
<g><path style="opacity:1" fill="#0f0f0f" d="M 391.5,64.5 C 393.527,64.3379 395.527,64.5045 397.5,65C 399.931,68.9151 399.931,72.9151 397.5,77C 397.93,78.4341 398.764,79.6008 400,80.5C 400.946,82.9563 400.446,84.9563 398.5,86.5C 397.126,85.2887 395.626,84.2887 394,83.5C 389.844,86.3183 385.677,89.1517 381.5,92C 379.833,92.6667 378.167,92.6667 376.5,92C 378.783,88.8228 379.617,85.3228 379,81.5C 376.006,80.1102 374.006,81.1102 373,84.5C 372.159,80.8798 372.826,77.5464 375,74.5C 377.881,72.9717 380.214,73.6384 382,76.5C 380.88,87.5381 383.714,89.0381 390.5,81C 385.096,75.2791 385.429,69.7791 391.5,64.5 Z"/></g>
<g><path style="opacity:1" fill="#f0f0f0" d="M 390.5,69.5 C 394.252,69.5007 395.252,71.1674 393.5,74.5C 391.244,73.5791 390.244,71.9124 390.5,69.5 Z"/></g>
<g><path style="opacity:1" fill="#121212" d="M 620.5,72.5 C 621.572,74.9358 620.905,77.1025 618.5,79C 611.709,82.2985 605.042,85.7985 598.5,89.5C 597.417,88.635 597.251,87.635 598,86.5C 599.167,85.3333 600.333,84.1667 601.5,83C 608.217,79.9795 614.551,76.4795 620.5,72.5 Z"/></g>
<g><path style="opacity:1" fill="#121212" d="M 433.5,86.5 C 439.839,87.0016 443.506,90.5016 444.5,97C 443.333,103.5 439.5,107.333 433,108.5C 427.953,106.926 425.787,103.426 426.5,98C 426.43,92.6289 428.764,88.7955 433.5,86.5 Z"/></g>
<g><path style="opacity:1" fill="#131313" d="M 480.5,89.5 C 481.376,89.3691 482.043,89.7025 482.5,90.5C 481.627,92.4134 480.627,94.2467 479.5,96C 472.676,99.2451 466.009,102.745 459.5,106.5C 458.422,104.525 458.755,102.692 460.5,101C 467.393,97.3924 474.059,93.5591 480.5,89.5 Z"/></g>
<g><path style="opacity:1" fill="#141414" d="M 557.5,90.5 C 558.376,90.3691 559.043,90.7025 559.5,91.5C 558.752,93.3325 557.752,94.9991 556.5,96.5C 549.833,100.167 543.167,103.833 536.5,107.5C 535.152,105.389 535.485,103.555 537.5,102C 544.393,98.3924 551.059,94.5591 557.5,90.5 Z"/></g>
<g><path style="opacity:1" fill="#f4f4f4" d="M 430.5,92.5 C 436.172,91.883 439.339,94.2163 440,99.5C 436.621,101.923 433.121,102.09 429.5,100C 428.083,97.2565 428.416,94.7565 430.5,92.5 Z"/></g>
<g><path style="opacity:1" fill="#0d0d0d" d="M 582.5,93.5 C 583.777,94.6936 584.444,96.3603 584.5,98.5C 585.5,117.682 587.667,136.682 591,155.5C 602.493,159.082 613.493,157.749 624,151.5C 624.839,148.86 624.339,146.527 622.5,144.5C 619.432,150.026 614.765,152.193 608.5,151C 607.299,150.097 606.465,148.931 606,147.5C 604.095,137.537 607.095,129.537 615,123.5C 627.186,132.071 630.519,143.404 625,157.5C 618.026,164.543 609.526,167.877 599.5,167.5C 591.814,168.315 586.98,164.982 585,157.5C 583.319,139.97 581.485,122.47 579.5,105C 579.114,100.762 580.114,96.9291 582.5,93.5 Z"/></g>
<g><path style="opacity:1" fill="#101010" d="M 617.5,102.5 C 620.663,103.321 623.33,104.988 625.5,107.5C 624.365,109.799 623.032,111.966 621.5,114C 620.5,114.667 619.5,114.667 618.5,114C 617.183,112.341 615.517,111.174 613.5,110.5C 612.099,112.626 610.266,114.293 608,115.5C 605.845,114.421 603.845,113.087 602,111.5C 601.333,110.833 601.333,110.167 602,109.5C 603.667,107.5 605.333,105.5 607,103.5C 608.896,105.53 611.063,107.197 613.5,108.5C 615.278,106.736 616.611,104.736 617.5,102.5 Z"/></g>
<g><path style="opacity:1" fill="#0e0e0e" d="M 403.5,111.5 C 404.693,111.97 405.36,112.97 405.5,114.5C 407.108,123.149 408.608,131.816 410,140.5C 411.149,145.942 412.983,151.109 415.5,156C 422.474,157.961 429.474,157.961 436.5,156C 437.804,155.196 438.471,154.029 438.5,152.5C 437.283,149.238 435.949,146.072 434.5,143C 435.327,139.512 436.827,136.346 439,133.5C 443.667,142.833 443.667,152.167 439,161.5C 436.658,164.754 433.491,166.588 429.5,167C 425.167,167.667 420.833,167.667 416.5,167C 414.376,165.878 412.543,164.378 411,162.5C 409.519,159.044 407.852,155.711 406,152.5C 399.852,162.896 390.685,167.396 378.5,166C 372.641,164.781 370.474,161.281 372,155.5C 372.815,153.377 373.815,151.377 375,149.5C 376.991,155.165 380.991,157.499 387,156.5C 393.007,156.834 398.34,155.168 403,151.5C 403.977,148.759 404.477,145.925 404.5,143C 403.645,135.581 402.312,128.248 400.5,121C 401.074,117.688 402.074,114.522 403.5,111.5 Z"/></g>
<g><path style="opacity:1" fill="#0b0b0b" d="M 477.5,122.5 C 485.827,124.327 486.66,127.993 480,133.5C 477.274,132.768 475.107,131.268 473.5,129C 474.713,126.738 476.046,124.571 477.5,122.5 Z"/></g>
<g><path style="opacity:1" fill="#0c0c0c" d="M 548.5,130.5 C 559.435,131.099 566.102,136.766 568.5,147.5C 568.596,149.926 567.93,152.093 566.5,154C 560.103,154.182 553.77,154.848 547.5,156C 539.269,158.203 536.103,163.37 538,171.5C 540.993,184.288 543.826,197.121 546.5,210C 546.062,211.92 545.395,213.754 544.5,215.5C 540.056,200.058 536.722,184.391 534.5,168.5C 533.652,154.684 539.986,146.35 553.5,143.5C 549.773,139.499 546.106,139.665 542.5,144C 541.365,144.749 540.365,144.583 539.5,143.5C 541.291,138.224 544.291,133.891 548.5,130.5 Z"/></g>
<g><path style="opacity:1" fill="#ebebeb" d="M 610.5,135.5 C 614.126,134.861 615.959,136.194 616,139.5C 611.579,141.224 609.745,139.89 610.5,135.5 Z"/></g>
<g><path style="opacity:1" fill="#0f0f0f" d="M 478.5,142.5 C 479.376,142.369 480.043,142.702 480.5,143.5C 488.227,161.993 485.227,178.493 471.5,193C 462.122,198.875 452.789,198.875 443.5,193C 460.75,193.416 473.25,185.916 481,170.5C 481.667,168.167 481.667,165.833 481,163.5C 478.678,159.365 476.845,155.032 475.5,150.5C 476.51,147.817 477.51,145.151 478.5,142.5 Z"/></g>
<g><path style="opacity:1" fill="#646464" d="M 640.5,171.5 C 639.833,171.5 639.5,171.833 639.5,172.5C 637.704,171.207 636.037,169.707 634.5,168C 636.812,168.447 638.812,169.613 640.5,171.5 Z"/></g>
<g><path style="opacity:1" fill="#686868" d="M 359.5,172.5 C 359.5,172.167 359.5,171.833 359.5,171.5C 360.879,168.927 362.879,167.427 365.5,167C 363.63,169.04 361.63,170.873 359.5,172.5 Z"/></g>
<g><path style="opacity:1" fill="#0e0e0e" d="M 359.5,171.5 C 359.5,171.833 359.5,172.167 359.5,172.5C 343.558,191.909 336.725,214.242 339,239.5C 342.747,232.337 346.747,225.337 351,218.5C 347.552,228.409 343.219,238.076 338,247.5C 336.333,250.167 334.667,250.167 333,247.5C 331.004,240.183 329.004,232.849 327,225.5C 326.502,222.183 326.335,218.85 326.5,215.5C 328.124,215.36 329.29,216.027 330,217.5C 331.333,222.167 332.667,226.833 334,231.5C 333.109,208.13 340.943,188.297 357.5,172C 358.094,171.536 358.761,171.369 359.5,171.5 Z"/></g>
<g><path style="opacity:1" fill="#0f0f0f" d="M 640.5,171.5 C 657.716,187.625 665.883,207.625 665,231.5C 666.507,226.136 668.007,220.803 669.5,215.5C 670.5,215.5 671.5,215.5 672.5,215.5C 672.665,218.85 672.498,222.183 672,225.5C 669.996,232.849 667.996,240.183 666,247.5C 664.759,249.421 663.259,249.754 661.5,248.5C 656.03,238.603 651.03,228.437 646.5,218C 647.332,217.312 647.998,217.479 648.5,218.5C 652.333,225.5 656.167,232.5 660,239.5C 662.274,214.233 655.44,191.9 639.5,172.5C 639.5,171.833 639.833,171.5 640.5,171.5 Z"/></g>
<g><path style="opacity:1" fill="#0f0f0f" d="M 436.5,175.5 C 439.658,176.313 442.324,177.98 444.5,180.5C 443.041,182.583 441.708,184.75 440.5,187C 437.531,186.342 434.865,184.842 432.5,182.5C 430.823,184.54 429.156,186.54 427.5,188.5C 420.084,185.409 419.584,181.409 426,176.5C 428.01,177.848 430.01,179.182 432,180.5C 434.378,179.623 435.878,177.956 436.5,175.5 Z"/></g>
<g><path style="opacity:1" fill="#141414" d="M 289.5,260.5 C 290.822,260.33 291.989,260.663 293,261.5C 293.667,263.833 293.667,266.167 293,268.5C 289.958,269.986 288.125,268.986 287.5,265.5C 288.187,263.823 288.854,262.156 289.5,260.5 Z"/></g>
<g><path style="opacity:1" fill="#181818" d="M 411.5,260.5 C 415.461,261.884 416.461,264.551 414.5,268.5C 411.187,270.254 409.52,269.254 409.5,265.5C 409.437,263.486 410.103,261.819 411.5,260.5 Z"/></g>
<g><path style="opacity:1" fill="#141414" d="M 618.5,260.5 C 619.822,260.33 620.989,260.663 622,261.5C 622.667,263.833 622.667,266.167 622,268.5C 618.958,269.986 617.125,268.986 616.5,265.5C 617.187,263.823 617.854,262.156 618.5,260.5 Z"/></g>
<g><path style="opacity:1" fill="#141414" d="M 754.5,260.5 C 755.822,260.33 756.989,260.663 758,261.5C 758.667,263.833 758.667,266.167 758,268.5C 754.958,269.986 753.125,268.986 752.5,265.5C 753.187,263.823 753.854,262.156 754.5,260.5 Z"/></g>
<g><path style="opacity:1" fill="#0b0b0b" d="M 343.5,261.5 C 344.787,262.871 345.453,264.705 345.5,267C 344.563,274.154 344.396,281.32 345,288.5C 346.265,283.933 348.931,280.6 353,278.5C 354.261,278.759 355.261,279.426 356,280.5C 356.5,288.159 356.666,295.826 356.5,303.5C 355.178,303.67 354.011,303.337 353,302.5C 353.317,275.667 349.983,276.001 343,303.5C 342.586,303.043 342.086,302.709 341.5,302.5C 340.334,292.183 340.168,281.849 341,271.5C 341.05,267.843 341.883,264.51 343.5,261.5 Z"/></g>
<g><path style="opacity:1" fill="#191919" d="M 389.5,261.5 C 390.787,262.871 391.453,264.705 391.5,267C 390.578,273.821 390.412,280.654 391,287.5C 392.439,284.397 394.273,281.564 396.5,279C 398.701,278.175 400.534,278.675 402,280.5C 402.5,288.159 402.666,295.826 402.5,303.5C 400.61,303.703 399.11,303.037 398,301.5C 397.796,294.771 397.63,288.104 397.5,281.5C 392.822,288.02 389.989,295.354 389,303.5C 387.667,302.833 386.667,301.833 386,300.5C 385.264,288.95 385.764,277.45 387.5,266C 387.759,264.213 388.425,262.713 389.5,261.5 Z"/></g>
<g><path style="opacity:1" fill="#111111" d="M 720.5,301.5 C 720.663,299.143 720.497,296.81 720,294.5C 718.961,295.244 718.461,296.244 718.5,297.5C 713.952,304.543 708.619,305.21 702.5,299.5C 698.565,288.703 702.065,281.703 713,278.5C 715.379,278.482 717.546,279.149 719.5,280.5C 720.171,274.419 721.171,268.419 722.5,262.5C 725.243,262.077 726.576,263.244 726.5,266C 725.007,278.107 724.007,290.274 723.5,302.5C 722.078,303.777 721.078,303.443 720.5,301.5 Z"/></g>
<g><path style="opacity:1" fill="#191919" d="M 734.5,278.5 C 733.357,281.976 733.19,285.642 734,289.5C 734.513,288.473 735.013,287.473 735.5,286.5C 736.526,283.628 738.192,281.128 740.5,279C 742.464,278.376 744.131,278.876 745.5,280.5C 746.467,288.11 746.8,295.777 746.5,303.5C 744.61,303.703 743.11,303.037 742,301.5C 741.796,294.771 741.63,288.104 741.5,281.5C 736.493,287.508 733.827,294.508 733.5,302.5C 732.178,302.67 731.011,302.337 730,301.5C 729.185,289.132 729.518,276.799 731,264.5C 731.7,262.968 732.866,261.968 734.5,261.5C 735.473,267.15 735.473,272.816 734.5,278.5 Z"/></g>
<g><path style="opacity:1" fill="#0c0c0c" d="M 298.5,263.5 C 299.833,263.5 301.167,263.5 302.5,263.5C 302.119,276.845 301.452,290.178 300.5,303.5C 299.833,303.833 299.167,304.167 298.5,304.5C 297.281,290.827 297.281,277.161 298.5,263.5 Z"/></g>
<g><path style="opacity:1" fill="#1c1c1c" d="M 627.5,263.5 C 628.833,263.5 630.167,263.5 631.5,263.5C 631,276.836 630.333,290.17 629.5,303.5C 628.28,304.711 627.113,304.711 626,303.5C 625.029,290.087 625.529,276.754 627.5,263.5 Z"/></g>
<g><path style="opacity:1" fill="#131313" d="M 231.5,263.5 C 239.769,264.931 241.603,269.264 237,276.5C 235.768,273.7 235.101,270.7 235,267.5C 233.506,266.253 232.006,266.253 230.5,267.5C 228.815,271.661 228.148,275.994 228.5,280.5C 230.857,280.337 233.19,280.503 235.5,281C 235.957,281.414 236.291,281.914 236.5,282.5C 233.562,283.489 230.562,284.156 227.5,284.5C 227.5,291.167 227.5,297.833 227.5,304.5C 225.876,304.64 224.71,303.973 224,302.5C 223.667,296.833 223.333,291.167 223,285.5C 221.989,286.337 220.822,286.67 219.5,286.5C 219.45,284.41 220.45,283.077 222.5,282.5C 222.654,274.652 225.654,268.319 231.5,263.5 Z"/></g>
<g><path style="opacity:1" fill="#151515" d="M 266.5,266.5 C 267.873,266.343 269.207,266.51 270.5,267C 272.743,269.488 274.743,272.154 276.5,275C 275.167,275.667 273.833,275.667 272.5,275C 270.112,272.371 268.112,269.538 266.5,266.5 Z"/></g>
<g><path style="opacity:1" fill="#111111" d="M 596.5,274.5 C 595.532,276.607 595.198,278.941 595.5,281.5C 596.791,281.737 597.791,281.404 598.5,280.5C 601.022,280.128 603.022,280.961 604.5,283C 601.607,284.149 598.607,284.649 595.5,284.5C 595.5,291.167 595.5,297.833 595.5,304.5C 593.62,304.771 592.287,304.104 591.5,302.5C 591.5,296.833 591.5,291.167 591.5,285.5C 590.209,285.263 589.209,285.596 588.5,286.5C 587.295,284.59 587.962,283.257 590.5,282.5C 590.4,275.623 592.733,269.79 597.5,265C 600.835,262.709 603.668,263.209 606,266.5C 606.364,263.751 607.697,261.751 610,260.5C 610.772,260.645 611.439,260.978 612,261.5C 612.667,263.833 612.667,266.167 612,268.5C 610.333,269.833 608.667,269.833 607,268.5C 604.439,279.073 602.772,278.74 602,267.5C 600.951,266.483 599.784,266.316 598.5,267C 596.887,269.228 596.22,271.728 596.5,274.5 Z"/></g>
<g><path style="opacity:1" fill="#131313" d="M 243.5,277.5 C 248.742,276.271 252.575,277.937 255,282.5C 254.836,289.476 254.669,296.476 254.5,303.5C 253.167,303.5 251.833,303.5 250.5,303.5C 250.762,302.022 250.429,300.689 249.5,299.5C 245.953,305.047 241.786,305.714 237,301.5C 236.365,299.365 236.699,297.365 238,295.5C 240.958,291.855 244.625,289.188 249,287.5C 250.297,283.825 249.297,281.158 246,279.5C 242.403,281.361 240.903,284.361 241.5,288.5C 240.5,288.5 239.5,288.5 238.5,288.5C 238.277,283.948 239.944,280.281 243.5,277.5 Z"/></g>
<g><path style="opacity:1" fill="#171717" d="M 287.5,277.5 C 288.833,277.5 290.167,277.5 291.5,277.5C 291.5,285.833 291.5,294.167 291.5,302.5C 289.61,302.703 288.11,302.037 287,300.5C 286.309,292.805 286.475,285.139 287.5,277.5 Z"/></g>
<g><path style="opacity:1" fill="#030303" d="M 409.5,277.5 C 410.5,277.5 411.5,277.5 412.5,277.5C 412.5,285.833 412.5,294.167 412.5,302.5C 411.178,302.67 410.011,302.337 409,301.5C 408.2,293.421 408.367,285.421 409.5,277.5 Z"/></g>
<g><path style="opacity:1" fill="#7b7b7b" d="M 596.5,274.5 C 596.025,277.082 596.692,279.082 598.5,280.5C 597.791,281.404 596.791,281.737 595.5,281.5C 595.198,278.941 595.532,276.607 596.5,274.5 Z"/></g>
<g><path style="opacity:1" fill="#161616" d="M 606.5,277.5 C 607.833,277.5 609.167,277.5 610.5,277.5C 610.666,285.507 610.5,293.507 610,301.5C 608.286,302.925 606.953,302.592 606,300.5C 605.233,292.785 605.4,285.118 606.5,277.5 Z"/></g>
<g><path style="opacity:1" fill="#171717" d="M 616.5,277.5 C 617.833,277.5 619.167,277.5 620.5,277.5C 620.5,285.833 620.5,294.167 620.5,302.5C 618.61,302.703 617.11,302.037 616,300.5C 615.309,292.805 615.475,285.139 616.5,277.5 Z"/></g>
<g><path style="opacity:1" fill="#161616" d="M 685.5,277.5 C 691.302,276.006 695.136,278.006 697,283.5C 697.001,287.85 696.501,292.183 695.5,296.5C 695.753,298.858 696.086,301.192 696.5,303.5C 693.14,304.21 691.307,302.876 691,299.5C 688.543,304.186 684.877,305.519 680,303.5C 677.777,299.612 678.277,296.112 681.5,293C 684.166,290.665 687.166,288.831 690.5,287.5C 691.952,284.718 691.619,282.218 689.5,280C 686.702,279.439 684.869,280.606 684,283.5C 683.506,285.134 683.34,286.801 683.5,288.5C 681.365,288.853 680.032,288.02 679.5,286C 680.927,282.743 682.927,279.91 685.5,277.5 Z"/></g>
<g><path style="opacity:1" fill="#171717" d="M 752.5,277.5 C 753.833,277.5 755.167,277.5 756.5,277.5C 756.5,285.833 756.5,294.167 756.5,302.5C 754.61,302.703 753.11,302.037 752,300.5C 751.309,292.805 751.475,285.139 752.5,277.5 Z"/></g>
<g><path style="opacity:1" fill="#101010" d="M 319.5,278.5 C 325.868,278.17 332.202,278.504 338.5,279.5C 333.015,285.485 327.348,291.319 321.5,297C 326.5,297.333 331.5,297.667 336.5,298C 336.957,298.414 337.291,298.914 337.5,299.5C 336.5,300.167 335.5,300.833 334.5,301.5C 328.478,302.206 322.478,302.872 316.5,303.5C 315.337,301.45 315.504,299.45 317,297.5C 321.833,292.667 326.667,287.833 331.5,283C 327.459,282.827 323.459,282.327 319.5,281.5C 318.209,280.473 318.209,279.473 319.5,278.5 Z"/></g>
<g><path style="opacity:1" fill="#111111" d="M 368.5,279.5 C 371.518,279.335 374.518,279.502 377.5,280C 379.049,281.214 380.215,282.714 381,284.5C 384.18,294.825 380.68,301.158 370.5,303.5C 364.22,302.551 361.22,298.884 361.5,292.5C 361.504,286.819 363.838,282.486 368.5,279.5 Z"/></g>
<g><path style="opacity:1" fill="#0a0a0a" d="M 426.5,277.5 C 429.822,277.489 431.489,279.155 431.5,282.5C 431.563,284.481 430.896,286.148 429.5,287.5C 428.012,285.851 427.012,283.851 426.5,281.5C 425.201,282.09 424.368,283.09 424,284.5C 422.63,290.742 422.13,297.075 422.5,303.5C 421.167,303.5 419.833,303.5 418.5,303.5C 418.334,296.159 418.5,288.826 419,281.5C 421.26,279.003 422.593,279.67 423,283.5C 423.926,281.308 425.093,279.308 426.5,277.5 Z"/></g>
<g><path style="opacity:1" fill="#161616" d="M 647.5,278.5 C 648.833,278.5 650.167,278.5 651.5,278.5C 651.336,281.187 651.503,283.854 652,286.5C 658.807,275.211 662.473,276.211 663,289.5C 664.181,285.637 666.014,282.137 668.5,279C 670.92,278.313 673.087,278.813 675,280.5C 674.585,287.202 674.752,293.869 675.5,300.5C 674.332,302.217 672.665,302.884 670.5,302.5C 670.83,295.8 670.497,289.134 669.5,282.5C 665.463,288.611 662.796,295.278 661.5,302.5C 660.167,302.5 658.833,302.5 657.5,302.5C 658.112,295.465 658.112,288.465 657.5,281.5C 653.336,287.486 650.836,294.152 650,301.5C 648.989,302.337 647.822,302.67 646.5,302.5C 646.302,294.466 646.635,286.466 647.5,278.5 Z"/></g>
<g><path style="opacity:1" fill="#f3f3f3" d="M 707.5,281.5 C 718.229,280.711 721.395,285.045 717,294.5C 712.736,299.65 708.736,299.65 705,294.5C 703.964,289.773 704.797,285.44 707.5,281.5 Z"/></g>
<g><path style="opacity:1" fill="#f4f4f4" d="M 370.5,282.5 C 375.892,282.898 378.225,285.898 377.5,291.5C 378.03,296.451 376.03,299.785 371.5,301.5C 367.536,299.916 365.87,296.916 366.5,292.5C 366.19,288.461 367.523,285.127 370.5,282.5 Z"/></g>
<g><path style="opacity:1" fill="#636363" d="M 734.5,278.5 C 734.194,281.385 734.527,284.052 735.5,286.5C 735.013,287.473 734.513,288.473 734,289.5C 733.19,285.642 733.357,281.976 734.5,278.5 Z"/></g>
<g><path style="opacity:1" fill="#e4e4e4" d="M 248.5,290.5 C 250.344,291.204 250.844,292.537 250,294.5C 248.285,296.759 246.452,298.926 244.5,301C 240,303.167 238.833,302 241,297.5C 243.396,294.933 245.896,292.6 248.5,290.5 Z"/></g>
<g><path style="opacity:1" fill="#ececec" d="M 689.5,291.5 C 691.344,292.204 691.844,293.537 691,295.5C 689.078,299.597 685.912,301.93 681.5,302.5C 682.574,297.748 685.24,294.081 689.5,291.5 Z"/></g>
<g><path style="opacity:1" fill="#8f8f8f" d="M 588.5,286.5 C 589.209,285.596 590.209,285.263 591.5,285.5C 591.5,291.167 591.5,296.833 591.5,302.5C 591.144,296.923 590.144,291.59 588.5,286.5 Z"/></g>
<g><path style="opacity:1" fill="#929292" d="M 720.5,301.5 C 719.833,300.167 719.167,298.833 718.5,297.5C 718.461,296.244 718.961,295.244 720,294.5C 720.497,296.81 720.663,299.143 720.5,301.5 Z"/></g>
<g><path style="opacity:1" fill="#2c2c2c" d="M 85.5,427.5 C 86.8086,429.571 87.4752,432.071 87.5,435C 87.1667,437.5 86.8333,440 86.5,442.5C 85.5059,437.544 85.1725,432.544 85.5,427.5 Z"/></g>
<g><path style="opacity:1" fill="#202020" d="M 155.5,427.5 C 156.163,429.042 156.83,430.709 157.5,432.5C 159.969,430.993 162.135,431.327 164,433.5C 164.821,436.554 164.655,439.554 163.5,442.5C 162.516,439.572 162.183,436.572 162.5,433.5C 160.533,433.261 158.699,433.594 157,434.5C 156.667,437.167 156.333,439.833 156,442.5C 155.501,437.511 155.334,432.511 155.5,427.5 Z"/></g>
<g><path style="opacity:1" fill="#353535" d="M 179.5,427.5 C 181.117,428.589 181.95,430.256 182,432.5C 183.796,431.233 185.629,431.233 187.5,432.5C 188.833,435.833 188.833,439.167 187.5,442.5C 186.516,439.572 186.183,436.572 186.5,433.5C 184.856,433.286 183.356,433.62 182,434.5C 181.818,437.226 181.318,439.893 180.5,442.5C 179.506,437.544 179.173,432.544 179.5,427.5 Z"/></g>
<g><path style="opacity:1" fill="#2d2d2d" d="M 227.5,441.5 C 223.136,443.619 220.803,442.119 220.5,437C 221.339,432.466 223.839,430.966 228,432.5C 228.202,430.744 228.702,429.078 229.5,427.5C 230.833,432.5 230.833,437.5 229.5,442.5C 228.817,442.137 228.15,441.804 227.5,441.5 Z"/></g>
<g><path style="opacity:1" fill="#202020" d="M 266.5,427.5 C 267.163,429.042 267.83,430.709 268.5,432.5C 270.969,430.993 273.135,431.327 275,433.5C 275.821,436.554 275.655,439.554 274.5,442.5C 273.516,439.572 273.183,436.572 273.5,433.5C 271.533,433.261 269.699,433.594 268,434.5C 267.667,437.167 267.333,439.833 267,442.5C 266.501,437.511 266.334,432.511 266.5,427.5 Z"/></g>
<g><path style="opacity:1" fill="#444444" d="M 318.5,427.5 C 319.809,429.571 320.475,432.071 320.5,435C 320.167,437.5 319.833,440 319.5,442.5C 318.506,437.544 318.173,432.544 318.5,427.5 Z"/></g>
<g><path style="opacity:1" fill="#2c2c2c" d="M 394.5,427.5 C 395.809,429.571 396.475,432.071 396.5,435C 396.167,437.5 395.833,440 395.5,442.5C 394.506,437.544 394.173,432.544 394.5,427.5 Z"/></g>
<g><path style="opacity:1" fill="#535353" d="M 71.5,426.5 C 73.1344,427.207 74.4677,428.373 75.5,430C 73.1589,430.168 71.8256,429.001 71.5,426.5 Z"/></g>
<g><path style="opacity:1" fill="#2f2f2f" d="M 192.5,427.5 C 193.773,428.077 193.773,428.743 192.5,429.5C 191.537,429.03 191.537,428.363 192.5,427.5 Z"/></g>
<g><path style="opacity:1" fill="#505050" d="M 378.5,427.5 C 380.337,427.639 380.67,428.306 379.5,429.5C 378.702,429.043 378.369,428.376 378.5,427.5 Z"/></g>
<g><path style="opacity:1" fill="#1f1f1f" d="M 285.5,427.5 C 290.539,427.451 290.705,428.118 286,429.5C 285.833,429.833 285.667,430.167 285.5,430.5C 289.335,431.996 289.335,432.996 285.5,433.5C 285.665,436.518 285.498,439.518 285,442.5C 284.963,438.911 284.13,435.578 282.5,432.5C 283.994,431.095 284.994,429.429 285.5,427.5 Z"/></g>
<g><path style="opacity:1" fill="#2e2e2e" d="M 80.5,431.5 C 81.7868,432.871 82.4535,434.705 82.5,437C 82.1667,438.833 81.8333,440.667 81.5,442.5C 80.5108,438.893 80.1774,435.226 80.5,431.5 Z"/></g>
<g><path style="opacity:1" fill="#242424" d="M 117.5,431.5 C 119.081,432.579 120.747,432.579 122.5,431.5C 124.029,431.529 125.196,432.196 126,433.5C 126.821,436.554 126.655,439.554 125.5,442.5C 124.516,439.572 124.183,436.572 124.5,433.5C 122.533,433.261 120.699,433.594 119,434.5C 118.667,437.167 118.333,439.833 118,442.5C 117.501,438.848 117.335,435.182 117.5,431.5 Z"/></g>
<g><path style="opacity:1" fill="#4f4f4f" d="M 191.5,431.5 C 192.787,432.871 193.453,434.705 193.5,437C 193.167,438.833 192.833,440.667 192.5,442.5C 191.511,438.893 191.177,435.226 191.5,431.5 Z"/></g>
<g><path style="opacity:1" fill="#787878" d="M 198.5,432.5 C 197.521,435.625 197.187,438.958 197.5,442.5C 196.192,438.981 196.192,435.315 197.5,431.5C 198.107,431.624 198.44,431.957 198.5,432.5 Z"/></g>
<g><path style="opacity:1" fill="#4d4d4d" d="M 199.5,433.5 C 200.427,431.524 201.76,431.191 203.5,432.5C 202.311,433.429 200.978,433.762 199.5,433.5 Z"/></g>
<g><path style="opacity:1" fill="#292929" d="M 327.5,431.5 C 329.837,433.965 331.337,436.965 332,440.5C 333.147,437.382 334.48,434.382 336,431.5C 335.308,436.254 333.975,440.921 332,445.5C 330.759,447.421 329.259,447.754 327.5,446.5C 329.391,445.689 330.724,444.356 331.5,442.5C 329.762,438.951 328.429,435.284 327.5,431.5 Z"/></g>
<g><path style="opacity:1" fill="#777777" d="M 351.5,432.5 C 350.521,435.625 350.187,438.958 350.5,442.5C 349.192,438.981 349.192,435.315 350.5,431.5C 351.107,431.624 351.44,431.957 351.5,432.5 Z"/></g>
<g><path style="opacity:1" fill="#171717" d="M 350.5,442.5 C 350.187,438.958 350.521,435.625 351.5,432.5C 353.67,431.232 355.837,431.232 358,432.5C 358.667,435.833 358.667,439.167 358,442.5C 357.502,439.518 357.335,436.518 357.5,433.5C 355.533,433.261 353.699,433.594 352,434.5C 351.817,437.365 351.317,440.031 350.5,442.5 Z"/></g>
<g><path style="opacity:1" fill="#2e2e2e" d="M 378.5,431.5 C 379.805,433.397 380.471,435.731 380.5,438.5C 380.333,440.833 380.167,443.167 380,445.5C 378.759,447.421 377.259,447.754 375.5,446.5C 376.325,445.614 377.325,445.281 378.5,445.5C 378.5,440.833 378.5,436.167 378.5,431.5 Z"/></g>
<g><path style="opacity:1" fill="#343434" d="M 52.5,427.5 C 56.8383,427.622 57.1716,427.955 53.5,428.5C 53.5,429.5 53.5,430.5 53.5,431.5C 57.5,432.167 57.5,432.833 53.5,433.5C 53.8174,436.572 53.4841,439.572 52.5,442.5C 51.2214,437.449 51.2214,432.449 52.5,427.5 Z"/></g>
<g><path style="opacity:1" fill="#2e2e2e" d="M 94.5,431.5 C 96.3652,433.513 98.0319,435.846 99.5,438.5C 100.498,436.51 101.498,434.51 102.5,432.5C 103.167,431.167 103.833,431.167 104.5,432.5C 102.374,436.711 100.541,441.044 99,445.5C 97.7592,447.421 96.2592,447.754 94.5,446.5C 96.7443,445.997 98.0776,444.663 98.5,442.5C 97.1612,438.815 95.8279,435.149 94.5,431.5 Z"/></g>
<g><path style="opacity:1" fill="#030303" d="M 198.5,432.5 C 198.5,433.167 198.833,433.5 199.5,433.5C 198.912,436.61 198.245,439.61 197.5,442.5C 197.187,438.958 197.521,435.625 198.5,432.5 Z"/></g>
<g><path style="opacity:1" fill="#f1f1f1" d="M 227.5,441.5 C 222.738,440.908 221.404,438.408 223.5,434C 225.112,433.28 226.612,433.446 228,434.5C 228.703,436.929 228.537,439.262 227.5,441.5 Z"/></g>
<g><path style="opacity:1" fill="#2b2b2b" d="M 169.5,431.5 C 176.03,431.243 178.197,434.243 176,440.5C 172.706,443.311 169.706,442.978 167,439.5C 166.018,436.225 166.851,433.559 169.5,431.5 Z"/></g>
<g><path style="opacity:1" fill="#f0f0f0" d="M 169.5,433.5 C 171.167,433.5 172.833,433.5 174.5,433.5C 174.663,435.857 174.497,438.19 174,440.5C 172.062,441.86 170.396,441.527 169,439.5C 168.322,437.402 168.489,435.402 169.5,433.5 Z"/></g>
<g><path style="opacity:1" fill="#202020" d="M 238.5,441.5 C 234.014,443.177 232.681,441.677 234.5,437C 236.134,436.506 237.801,436.34 239.5,436.5C 239.5,435.5 239.5,434.5 239.5,433.5C 237.801,433.66 236.134,433.494 234.5,433C 236.333,431.212 238.333,431.046 240.5,432.5C 241.657,435.784 241.824,439.118 241,442.5C 240.329,441.748 239.496,441.414 238.5,441.5 Z"/></g>
<g><path style="opacity:1" fill="#202020" d="M 343.5,441.5 C 339.014,443.177 337.681,441.677 339.5,437C 341.134,436.506 342.801,436.34 344.5,436.5C 344.5,435.5 344.5,434.5 344.5,433.5C 342.801,433.66 341.134,433.494 339.5,433C 341.333,431.212 343.333,431.046 345.5,432.5C 346.657,435.784 346.824,439.118 346,442.5C 345.329,441.748 344.496,441.414 343.5,441.5 Z"/></g>
<g><path style="opacity:1" fill="#222222" d="M 385.5,431.5 C 389.833,431.167 391.833,433.167 391.5,437.5C 389.076,437.192 386.743,437.526 384.5,438.5C 384.977,439.478 385.643,440.311 386.5,441C 388.424,441.179 390.091,441.346 391.5,441.5C 386.602,443.692 383.602,442.192 382.5,437C 382.863,434.808 383.863,432.974 385.5,431.5 Z"/></g>
<g><path style="opacity:1" fill="#fcfcfc" d="M 389.5,434.5 C 388.167,435.833 386.833,435.833 385.5,434.5C 386.833,433.167 388.167,433.167 389.5,434.5 Z"/></g>
<g><path style="opacity:1" fill="#202020" d="M 404.5,441.5 C 400.014,443.177 398.681,441.677 400.5,437C 402.134,436.506 403.801,436.34 405.5,436.5C 405.5,435.5 405.5,434.5 405.5,433.5C 403.801,433.66 402.134,433.494 400.5,433C 402.333,431.212 404.333,431.046 406.5,432.5C 407.657,435.784 407.824,439.118 407,442.5C 406.329,441.748 405.496,441.414 404.5,441.5 Z"/></g>
<g><path style="opacity:1" fill="#333333" d="M 362.5,442.5 C 362.319,439.447 362.152,436.447 362,433.5C 364.497,431.522 367.331,431.022 370.5,432C 369.751,433.734 369.251,435.567 369,437.5C 361.577,439.597 361.744,440.764 369.5,441C 370.799,446.689 368.466,448.689 362.5,447C 359.894,445.35 359.894,443.85 362.5,442.5 Z"/></g>
<g><path style="opacity:1" fill="#e8e8e8" d="M 364.5,432.5 C 365.5,432.5 366.5,432.5 367.5,432.5C 367.5,434.167 367.5,435.833 367.5,437.5C 363.716,437.475 362.716,435.808 364.5,432.5 Z"/></g>
<g><path style="opacity:1" fill="#909090" d="M 385.5,434.5 C 386.833,435.833 388.167,435.833 389.5,434.5C 390.043,434.56 390.376,434.893 390.5,435.5C 388.5,436.833 386.5,436.833 384.5,435.5C 384.624,434.893 384.957,434.56 385.5,434.5 Z"/></g>
<g><path style="opacity:1" fill="#242424" d="M 411.5,431.5 C 418.662,431.613 418.995,432.613 412.5,434.5C 413.436,435.974 414.77,436.974 416.5,437.5C 417.747,439.006 417.747,440.506 416.5,442C 414.421,442.808 412.421,442.641 410.5,441.5C 411.909,441.346 413.576,441.179 415.5,441C 415.957,440.586 416.291,440.086 416.5,439.5C 414.999,438.248 413.332,437.248 411.5,436.5C 410.334,434.833 410.334,433.166 411.5,431.5 Z"/></g>
<g><path style="opacity:1" fill="#2c2c2c" d="M 59.5,431.5 C 61.4672,431.261 63.3005,431.594 65,432.5C 65.6667,435.833 65.6667,439.167 65,442.5C 62.7658,442.626 60.4324,442.293 58,441.5C 57.3333,440.167 57.3333,438.833 58,437.5C 59.7803,436.406 61.6136,435.406 63.5,434.5C 61.9223,433.702 60.2556,433.202 58.5,433C 59.056,432.617 59.3893,432.117 59.5,431.5 Z"/></g>
<g><path style="opacity:1" fill="#e3e3e3" d="M 59.5,437.5 C 60.8333,437.5 62.1667,437.5 63.5,437.5C 63.1144,441.738 61.4477,442.404 58.5,439.5C 58.8627,438.817 59.1961,438.15 59.5,437.5 Z"/></g>
<g><path style="opacity:1" fill="#eaeaea" d="M 238.5,441.5 C 235.306,441.824 234.306,440.658 235.5,438C 236.793,437.51 238.127,437.343 239.5,437.5C 239.567,438.959 239.234,440.292 238.5,441.5 Z"/></g>
<g><path style="opacity:1" fill="#2c2c2c" d="M 251.5,431.5 C 253.467,431.261 255.301,431.594 257,432.5C 257.667,435.833 257.667,439.167 257,442.5C 254.766,442.626 252.432,442.293 250,441.5C 249.333,440.167 249.333,438.833 250,437.5C 251.78,436.406 253.614,435.406 255.5,434.5C 253.922,433.702 252.256,433.202 250.5,433C 251.056,432.617 251.389,432.117 251.5,431.5 Z"/></g>
<g><path style="opacity:1" fill="#e3e3e3" d="M 251.5,437.5 C 252.833,437.5 254.167,437.5 255.5,437.5C 255.114,441.738 253.448,442.404 250.5,439.5C 250.863,438.817 251.196,438.15 251.5,437.5 Z"/></g>
<g><path style="opacity:1" fill="#eaeaea" d="M 343.5,441.5 C 340.306,441.824 339.306,440.658 340.5,438C 341.793,437.51 343.127,437.343 344.5,437.5C 344.567,438.959 344.234,440.292 343.5,441.5 Z"/></g>
<g><path style="opacity:1" fill="#eaeaea" d="M 404.5,441.5 C 401.306,441.824 400.306,440.658 401.5,438C 402.793,437.51 404.127,437.343 405.5,437.5C 405.567,438.959 405.234,440.292 404.5,441.5 Z"/></g>
<g><path style="opacity:1" fill="#2f2f2f" d="M 107.5,431.5 C 112.578,430.745 114.911,432.912 114.5,438C 114.167,439.5 113.833,441 113.5,442.5C 111.328,442.324 108.995,442.157 106.5,442C 105.167,440.333 105.167,438.667 106.5,437C 108.473,436.505 110.473,436.338 112.5,436.5C 112.5,435.5 112.5,434.5 112.5,433.5C 110.473,433.662 108.473,433.495 106.5,433C 107.056,432.617 107.389,432.117 107.5,431.5 Z"/></g>
<g><path style="opacity:1" fill="#eaeaea" d="M 107.5,437.5 C 109.288,437.215 110.955,437.548 112.5,438.5C 111.579,440.756 109.912,441.756 107.5,441.5C 107.5,440.167 107.5,438.833 107.5,437.5 Z"/></g>
<g><path style="opacity:1" fill="#252525" d="M 215.5,441.5 C 214.054,442.613 212.387,442.78 210.5,442C 209.521,437.483 211.521,435.65 216.5,436.5C 216.5,435.5 216.5,434.5 216.5,433.5C 214.712,433.785 213.045,433.452 211.5,432.5C 213.949,431.09 216.116,431.424 218,433.5C 218.821,436.554 218.655,439.554 217.5,442.5C 216.817,442.137 216.15,441.804 215.5,441.5 Z"/></g>
<g><path style="opacity:1" fill="#e7e7e7" d="M 215.5,441.5 C 214.167,441.5 212.833,441.5 211.5,441.5C 211.384,438.09 213.05,436.756 216.5,437.5C 216.567,438.959 216.234,440.292 215.5,441.5 Z"/></g>
<g><path style="opacity:1" fill="#252525" d="M 295.5,441.5 C 294.054,442.613 292.387,442.78 290.5,442C 289.521,437.483 291.521,435.65 296.5,436.5C 296.5,435.5 296.5,434.5 296.5,433.5C 294.712,433.785 293.045,433.452 291.5,432.5C 293.949,431.09 296.116,431.424 298,433.5C 298.821,436.554 298.655,439.554 297.5,442.5C 296.817,442.137 296.15,441.804 295.5,441.5 Z"/></g>
<g><path style="opacity:1" fill="#e7e7e7" d="M 295.5,441.5 C 294.167,441.5 292.833,441.5 291.5,441.5C 291.384,438.09 293.05,436.756 296.5,437.5C 296.567,438.959 296.234,440.292 295.5,441.5 Z"/></g>
<g><path style="opacity:1" fill="#262626" d="M 145.5,431.5 C 147.924,431.192 150.257,431.526 152.5,432.5C 150.694,435.472 148.694,438.305 146.5,441C 148.5,441.333 150.5,441.667 152.5,442C 149.773,442.818 147.106,442.652 144.5,441.5C 146.412,439.343 148.079,437.009 149.5,434.5C 147.668,433.943 146.335,432.943 145.5,431.5 Z"/></g>
<g><path style="opacity:1" fill="#f0f0f0" d="M 362.5,442.5 C 364.924,442.192 367.257,442.526 369.5,443.5C 369.291,444.086 368.957,444.586 368.5,445C 366.527,445.495 364.527,445.662 362.5,445.5C 362.5,444.5 362.5,443.5 362.5,442.5 Z"/></g>
<g><path style="opacity:1" fill="#313131" d="M 131.5,432.5 C 133.693,431.203 136.027,431.203 138.5,432.5C 137.829,436.505 135.495,438.838 131.5,439.5C 133.078,440.298 134.744,440.798 136.5,441C 139.513,445.04 138.346,447.207 133,447.5C 130.624,447.457 129.124,446.291 128.5,444C 130.17,441.057 130.504,438.057 129.5,435C 129.684,433.624 130.351,432.791 131.5,432.5 Z"/></g>
<g><path style="opacity:1" fill="#f9f9f9" d="M 130.5,442.5 C 132.5,442.5 134.5,442.5 136.5,442.5C 136.5,443.5 136.5,444.5 136.5,445.5C 134.5,445.5 132.5,445.5 130.5,445.5C 130.5,444.5 130.5,443.5 130.5,442.5 Z"/></g>
<g><path style="opacity:1" fill="#dcdcdc" d="M 131.5,432.5 C 135.161,432.35 136.161,433.85 134.5,437C 130.707,437.487 129.707,435.987 131.5,432.5 Z"/></g>
<g><path style="opacity:1" fill="#303030" d="M 122.5,455.5 C 124.237,458.008 125.07,461.008 125,464.5C 126.046,462.91 127.213,461.41 128.5,460C 129.167,459.333 129.833,459.333 130.5,460C 126.566,463.123 126.566,466.29 130.5,469.5C 130.167,469.833 129.833,470.167 129.5,470.5C 128.5,468.833 127.167,467.5 125.5,466.5C 124.833,467.833 124.167,469.167 123.5,470.5C 122.506,465.544 122.173,460.544 122.5,455.5 Z"/></g>
<g><path style="opacity:1" fill="#242424" d="M 57.5,459.5 C 59.0806,460.579 60.7473,460.579 62.5,459.5C 64.0293,459.529 65.196,460.196 66,461.5C 66.8214,464.554 66.6548,467.554 65.5,470.5C 64.5159,467.572 64.1826,464.572 64.5,461.5C 62.5328,461.261 60.6995,461.594 59,462.5C 58.6667,465.167 58.3333,467.833 58,470.5C 57.5014,466.848 57.3347,463.182 57.5,459.5 Z"/></g>
<g><path style="opacity:1" fill="#262626" d="M 99.5,459.5 C 101.711,459.898 104.044,460.064 106.5,460C 109.167,463.333 109.167,466.667 106.5,470C 104.559,470.743 102.726,470.576 101,469.5C 100.667,471.5 100.333,473.5 100,475.5C 99.5006,470.177 99.334,464.844 99.5,459.5 Z"/></g>
<g><path style="opacity:1" fill="#282828" d="M 89.5,461.5 C 88.8333,473.5 88.1667,473.5 87.5,461.5C 85.8561,461.286 84.3561,461.62 83,462.5C 82.8184,465.226 82.3184,467.893 81.5,470.5C 80.1667,466.833 80.1667,463.167 81.5,459.5C 84.3458,458.877 87.0124,459.544 89.5,461.5 Z"/></g>
<g><path style="opacity:1" fill="#303030" d="M 89.5,461.5 C 91.54,458.866 93.7067,458.866 96,461.5C 96.8214,464.554 96.6548,467.554 95.5,470.5C 94.5159,467.572 94.1826,464.572 94.5,461.5C 92.8333,461.5 91.1667,461.5 89.5,461.5 Z"/></g>
<g><path style="opacity:1" fill="#e9e9e9" d="M 101.5,461.5 C 103.167,461.5 104.833,461.5 106.5,461.5C 106.663,463.857 106.497,466.19 106,468.5C 104.062,469.86 102.396,469.527 101,467.5C 100.322,465.402 100.489,463.402 101.5,461.5 Z"/></g>
<g><path style="opacity:1" fill="#252525" d="M 74.5,469.5 C 73.0536,470.613 71.3869,470.78 69.5,470C 68.5214,465.483 70.5214,463.65 75.5,464.5C 75.5,463.5 75.5,462.5 75.5,461.5C 73.712,461.785 72.0453,461.452 70.5,460.5C 72.9492,459.09 75.1159,459.424 77,461.5C 77.8214,464.554 77.6548,467.554 76.5,470.5C 75.8165,470.137 75.1499,469.804 74.5,469.5 Z"/></g>
<g><path style="opacity:1" fill="#e7e7e7" d="M 74.5,469.5 C 73.1667,469.5 71.8333,469.5 70.5,469.5C 70.3838,466.09 72.0504,464.756 75.5,465.5C 75.5674,466.959 75.2341,468.292 74.5,469.5 Z"/></g>
<g><path style="opacity:1" fill="#252525" d="M 116.5,469.5 C 115.054,470.613 113.387,470.78 111.5,470C 110.521,465.483 112.521,463.65 117.5,464.5C 117.5,463.5 117.5,462.5 117.5,461.5C 115.712,461.785 114.045,461.452 112.5,460.5C 114.949,459.09 117.116,459.424 119,461.5C 119.821,464.554 119.655,467.554 118.5,470.5C 117.817,470.137 117.15,469.804 116.5,469.5 Z"/></g>
<g><path style="opacity:1" fill="#e7e7e7" d="M 116.5,469.5 C 115.167,469.5 113.833,469.5 112.5,469.5C 112.384,466.09 114.05,464.756 117.5,465.5C 117.567,466.959 117.234,468.292 116.5,469.5 Z"/></g>
<g><path style="opacity:1" fill="#212121" d="M 52.5,456.5 C 53.2389,456.369 53.9056,456.536 54.5,457C 51.8333,462.333 51.8333,467.667 54.5,473C 54.1667,473.167 53.8333,473.333 53.5,473.5C 49.9163,468.004 49.583,462.337 52.5,456.5 Z"/></g>
<g><path style="opacity:1" fill="#1f1f1f" d="M 132.5,457.5 C 133.077,456.227 133.743,456.227 134.5,457.5C 137.307,463.04 136.974,468.373 133.5,473.5C 133.167,473.333 132.833,473.167 132.5,473C 133.998,470.583 134.665,467.917 134.5,465C 134.7,462.134 134.033,459.634 132.5,457.5 Z"/></g>
</svg>
