<?xml version="1.0" encoding="UTF-8"?>
<!DOCTYPE svg PUBLIC "-//W3C//DTD SVG 1.1//EN" "http://www.w3.org/Graphics/SVG/1.1/DTD/svg11.dtd">
<svg xmlns="http://www.w3.org/2000/svg" version="1.1" width="1000px" height="500px" style="shape-rendering:geometricPrecision; text-rendering:geometricPrecision; image-rendering:optimizeQuality; fill-rule:evenodd; clip-rule:evenodd" xmlns:xlink="http://www.w3.org/1999/xlink">
<g><path style="opacity:1" fill="#fefefe" d="M -0.5,-0.5 C 332.833,-0.5 666.167,-0.5 999.5,-0.5C 999.5,166.167 999.5,332.833 999.5,499.5C 666.167,499.5 332.833,499.5 -0.5,499.5C -0.5,332.833 -0.5,166.167 -0.5,-0.5 Z"/></g>
<g><path style="opacity:1" fill="#121212" d="M 480.5,64.5 C 488.003,63.8526 490.503,67.186 488,74.5C 485.958,76.5097 486.291,78.1764 489,79.5C 489.851,82.053 489.518,84.3863 488,86.5C 486.144,84.5938 483.977,83.7605 481.5,84C 477.59,89.1624 472.59,91.6624 466.5,91.5C 468.195,88.3297 468.695,84.9963 468,81.5C 465.546,79.987 463.879,80.6537 463,83.5C 461.973,79.8201 462.806,76.6534 465.5,74C 467.289,73.4795 468.956,73.8129 470.5,75C 472.128,78.6033 472.962,82.4366 473,86.5C 475.48,85.0183 477.647,83.185 479.5,81C 475.967,78.3278 474.8,74.8278 476,70.5C 477.332,68.34 478.832,66.34 480.5,64.5 Z"/></g>
<g><path style="opacity:1" fill="#d6d6d6" d="M 479.5,69.5 C 483.526,69.2566 484.859,70.9232 483.5,74.5C 481.039,73.7086 479.706,72.0419 479.5,69.5 Z"/></g>
<g><path style="opacity:1" fill="#131313" d="M 522.5,86.5 C 529.112,86.2795 532.778,89.4461 533.5,96C 533.161,102.855 529.661,107.021 523,108.5C 517.287,107.439 514.787,103.939 515.5,98C 515.586,92.7575 517.919,88.9242 522.5,86.5 Z"/></g>
<g><path style="opacity:1" fill="#0d0d0d" d="M 352.5,88.5 C 353.675,88.281 354.675,88.6143 355.5,89.5C 354.074,91.9372 352.741,94.4372 351.5,97C 335.103,102.354 319.103,108.687 303.5,116C 300.941,117.323 300.275,119.157 301.5,121.5C 312.356,125.857 320.523,133.19 326,143.5C 329.233,155.892 324.733,163.392 312.5,166C 303.775,167.811 295.108,167.811 286.5,166C 284.383,164.269 282.883,162.102 282,159.5C 275.772,166.688 267.938,169.188 258.5,167C 254.215,165.271 251.715,162.105 251,157.5C 249.342,139.094 247.176,120.761 244.5,102.5C 244.912,98.766 246.579,95.766 249.5,93.5C 251.063,111.86 252.896,130.193 255,148.5C 255.059,151.822 256.226,154.656 258.5,157C 269.257,159.989 277.924,157.156 284.5,148.5C 285.429,151.525 286.762,154.358 288.5,157C 297.167,157.667 305.833,157.667 314.5,157C 320.691,156.492 323.524,153.325 323,147.5C 319.5,144 316,140.5 312.5,137C 307.584,134.293 302.751,131.459 298,128.5C 297.333,123.833 297.333,119.167 298,114.5C 314.996,103.251 333.163,94.5841 352.5,88.5 Z"/></g>
<g><path style="opacity:1" fill="#121212" d="M 568.5,89.5 C 571.872,90.5697 571.872,92.4031 568.5,95C 561.991,98.7549 555.324,102.255 548.5,105.5C 547.884,102.876 548.884,100.709 551.5,99C 557.552,96.3126 563.219,93.1459 568.5,89.5 Z"/></g>
<g><path style="opacity:1" fill="#eeeeee" d="M 519.5,92.5 C 524.194,91.7002 527.694,93.3669 530,97.5C 530.667,98.1667 530.667,98.8333 530,99.5C 524.799,102.888 520.633,102.055 517.5,97C 518.044,95.415 518.711,93.915 519.5,92.5 Z"/></g>
<g><path style="opacity:1" fill="#131313" d="M 289.5,93.5 C 290.572,95.9358 289.905,98.1025 287.5,100C 280.676,103.245 274.009,106.745 267.5,110.5C 266.422,108.525 266.755,106.692 268.5,105C 275.666,101.303 282.666,97.4693 289.5,93.5 Z"/></g>
<g><path style="opacity:1" fill="#0e0e0e" d="M 669.5,93.5 C 670.725,94.1522 671.392,95.3189 671.5,97C 672.847,110.149 674.014,123.316 675,136.5C 675.552,142.993 676.718,149.326 678.5,155.5C 679.025,156.192 679.692,156.692 680.5,157C 687.167,157.667 693.833,157.667 700.5,157C 707.066,155.049 713.399,152.549 719.5,149.5C 711.286,143.73 702.286,142.063 692.5,144.5C 694.015,137.819 698.181,134.152 705,133.5C 708.642,133.713 712.142,134.547 715.5,136C 727.255,142.794 739.922,145.627 753.5,144.5C 753.425,147.206 753.092,149.873 752.5,152.5C 743.161,152.334 733.827,152.5 724.5,153C 714.316,157.924 703.983,162.591 693.5,167C 688.051,167.896 682.718,167.563 677.5,166C 674.57,163.88 672.737,161.047 672,157.5C 670.493,139.8 668.66,122.134 666.5,104.5C 666.667,102.5 666.833,100.5 667,98.5C 668.094,96.9221 668.928,95.2554 669.5,93.5 Z"/></g>
<g><path style="opacity:1" fill="#121212" d="M 365.5,93.5 C 367.593,111.509 369.593,129.676 371.5,148C 371.613,154.83 370.28,161.33 367.5,167.5C 367.523,161.29 367.356,154.957 367,148.5C 365.167,135.007 363.334,121.507 361.5,108C 361.722,102.837 363.056,98.0032 365.5,93.5 Z"/></g>
<g><path style="opacity:1" fill="#121212" d="M 721.5,96.5 C 724.872,97.5697 724.872,99.4031 721.5,102C 714.991,105.755 708.324,109.255 701.5,112.5C 700.884,109.876 701.884,107.709 704.5,106C 710.552,103.313 716.219,100.146 721.5,96.5 Z"/></g>
<g><path style="opacity:1" fill="#131313" d="M 404.5,97.5 C 405.376,97.3691 406.043,97.7025 406.5,98.5C 405.627,100.413 404.627,102.247 403.5,104C 396.676,107.245 390.009,110.745 383.5,114.5C 382.422,112.525 382.755,110.692 384.5,109C 391.393,105.392 398.059,101.559 404.5,97.5 Z"/></g>
<g><path style="opacity:1" fill="#121212" d="M 289.5,104.5 C 290.572,106.936 289.905,109.103 287.5,111C 280.709,114.298 274.042,117.798 267.5,121.5C 266.417,120.635 266.251,119.635 267,118.5C 268.167,117.333 269.333,116.167 270.5,115C 277.217,111.98 283.551,108.48 289.5,104.5 Z"/></g>
<g><path style="opacity:1" fill="#131313" d="M 639.5,105.5 C 640.376,105.369 641.043,105.702 641.5,106.5C 640.627,108.413 639.627,110.247 638.5,112C 631.676,115.245 625.009,118.745 618.5,122.5C 617.422,120.525 617.755,118.692 619.5,117C 626.393,113.392 633.059,109.559 639.5,105.5 Z"/></g>
<g><path style="opacity:1" fill="#0f0f0f" d="M 492.5,111.5 C 493.931,111.881 494.764,112.881 495,114.5C 496.685,126.633 499.019,138.633 502,150.5C 502.69,153.196 504.19,155.363 506.5,157C 511.833,157.667 517.167,157.667 522.5,157C 525.835,156.335 527.668,154.502 528,151.5C 526.62,148.572 525.12,145.738 523.5,143C 524.611,139.945 526.111,137.112 528,134.5C 528.667,135.167 529.333,135.833 530,136.5C 531.527,142.415 531.861,148.415 531,154.5C 530.289,161.545 526.455,165.711 519.5,167C 514.833,167.667 510.167,167.667 505.5,167C 503.376,165.878 501.543,164.378 500,162.5C 498.769,159.039 497.269,155.706 495.5,152.5C 489.196,163.151 479.862,167.651 467.5,166C 462.433,164.63 460.267,161.463 461,156.5C 461.725,154.051 462.725,151.717 464,149.5C 464.793,152.535 466.626,154.701 469.5,156C 476.355,157.035 483.022,156.368 489.5,154C 490.333,153.167 491.167,152.333 492,151.5C 493.555,146.618 493.888,141.618 493,136.5C 491.989,131.458 490.823,126.458 489.5,121.5C 490.104,118.024 491.104,114.691 492.5,111.5 Z"/></g>
<g><path style="opacity:1" fill="#0e0e0e" d="M 566.5,122.5 C 569.877,122.69 572.544,124.19 574.5,127C 571.432,135.079 567.432,135.579 562.5,128.5C 563.844,126.471 565.177,124.471 566.5,122.5 Z"/></g>
<g><path style="opacity:1" fill="#0f0f0f" d="M 636.5,135.5 C 645.782,137.077 647.616,141.744 642,149.5C 637.255,144.257 632.588,144.257 628,149.5C 626.813,151.044 626.48,152.711 627,154.5C 632.799,159.986 639.632,161.819 647.5,160C 656.01,155.557 657.343,156.891 651.5,164C 641.833,168.833 632.167,173.667 622.5,178.5C 621.152,176.389 621.485,174.555 623.5,173C 627.327,171.254 630.993,169.254 634.5,167C 628.84,166.423 624.34,163.923 621,159.5C 622.292,149.033 627.459,141.033 636.5,135.5 Z"/></g>
<g><path style="opacity:1" fill="#0f0f0f" d="M 405.5,142.5 C 410.184,148.042 412.184,154.542 411.5,162C 411.002,175.33 405.668,186.33 395.5,195C 386.485,198.786 377.818,198.12 369.5,193C 384.728,193.969 396.561,188.136 405,175.5C 406.943,173.01 408.109,170.177 408.5,167C 406.634,161.438 404.634,155.938 402.5,150.5C 402.948,147.609 403.948,144.942 405.5,142.5 Z"/></g>
<g><path style="opacity:1" fill="#131313" d="M 567.5,142.5 C 569.686,143.823 571.186,145.823 572,148.5C 576.811,166.076 572.644,181.243 559.5,194C 550.237,198.967 541.237,198.634 532.5,193C 547.798,193.6 559.631,187.433 568,174.5C 569.552,172.232 570.385,169.732 570.5,167C 569.077,161.149 567.077,155.482 564.5,150C 565.651,147.535 566.651,145.035 567.5,142.5 Z"/></g>
<g><path style="opacity:1" fill="#111111" d="M 277.5,175.5 C 280.774,176.14 283.441,177.807 285.5,180.5C 284.079,183.009 282.412,185.343 280.5,187.5C 277.804,186.149 275.47,184.316 273.5,182C 275.058,179.948 276.392,177.781 277.5,175.5 Z"/></g>
<g><path style="opacity:1" fill="#0d0d0d" d="M 526.5,175.5 C 534.704,177.947 535.537,181.947 529,187.5C 526.667,185.833 524.333,184.167 522,182.5C 520.691,184.976 518.858,186.976 516.5,188.5C 514.578,187.289 512.745,185.956 511,184.5C 511.172,181.649 512.339,179.149 514.5,177C 517.146,177.92 519.646,179.42 522,181.5C 523.332,179.34 524.832,177.34 526.5,175.5 Z"/></g>
<g><path style="opacity:1" fill="#0d0d0d" d="M 718.5,175.5 C 726.704,177.947 727.537,181.947 721,187.5C 718.456,185.998 716.29,184.164 714.5,182C 715.713,179.738 717.046,177.571 718.5,175.5 Z"/></g>
<g><path style="opacity:1" fill="#101010" d="M 317.5,180.5 C 318.376,180.369 319.043,180.702 319.5,181.5C 318.747,183.753 317.414,185.587 315.5,187C 309.675,189.745 304.008,192.745 298.5,196C 297.365,196.749 296.365,196.583 295.5,195.5C 296.128,193.742 297.128,192.242 298.5,191C 304.895,187.472 311.229,183.972 317.5,180.5 Z"/></g>
<g><path style="opacity:1" fill="#111111" d="M 248.5,251.5 C 247.352,255.981 247.185,260.648 248,265.5C 248.717,264.956 249.217,264.289 249.5,263.5C 253.069,256.698 256.902,250.031 261,243.5C 257.385,253.743 252.885,263.743 247.5,273.5C 245.326,274.893 243.493,274.56 242,272.5C 238.684,262.39 236.517,252.057 235.5,241.5C 236.833,241.5 238.167,241.5 239.5,241.5C 240.497,246.161 241.497,250.827 242.5,255.5C 242.461,256.756 242.961,257.756 244,258.5C 244.499,254.179 244.666,249.846 244.5,245.5C 246.016,224.298 255.016,207.131 271.5,194C 272.167,193.333 272.833,193.333 273.5,194C 257.397,209.713 249.064,228.88 248.5,251.5 Z"/></g>
<g><path style="opacity:1" fill="#0f0f0f" d="M 509.5,195.5 C 510.239,195.369 510.906,195.536 511.5,196C 494.225,215.493 486.725,238.326 489,264.5C 492.667,257.833 496.333,251.167 500,244.5C 500.654,243.304 501.154,243.304 501.5,244.5C 497.547,254.407 493.047,264.074 488,273.5C 486.333,274.833 484.667,274.833 483,273.5C 479.237,263.115 476.737,252.449 475.5,241.5C 476.833,241.5 478.167,241.5 479.5,241.5C 480.836,247.173 482.336,252.84 484,258.5C 482.847,233.433 491.347,212.433 509.5,195.5 Z"/></g>
<g><path style="opacity:1" fill="#0e0e0e" d="M 738.5,195.5 C 738.897,194.475 739.563,194.308 740.5,195C 758.846,211.679 767.679,232.512 767,257.5C 768.344,252.819 769.677,248.153 771,243.5C 771.71,242.027 772.876,241.36 774.5,241.5C 774.665,244.85 774.498,248.183 774,251.5C 771.998,258.838 769.998,266.171 768,273.5C 766.333,274.833 764.667,274.833 763,273.5C 757.502,263.854 753.169,253.854 750,243.5C 754,250.833 758,258.167 762,265.5C 764.585,238.489 756.751,215.156 738.5,195.5 Z"/></g>
<g><path style="opacity:1" fill="#7c7c7c" d="M 244.5,245.5 C 244.666,249.846 244.499,254.179 244,258.5C 242.961,257.756 242.461,256.756 242.5,255.5C 243.167,252.167 243.833,248.833 244.5,245.5 Z"/></g>
<g><path style="opacity:1" fill="#7b7b7b" d="M 248.5,251.5 C 248.183,255.702 248.517,259.702 249.5,263.5C 249.217,264.289 248.717,264.956 248,265.5C 247.185,260.648 247.352,255.981 248.5,251.5 Z"/></g>
<g><path style="opacity:1" fill="#141414" d="M 503.5,286.5 C 507.461,287.884 508.461,290.551 506.5,294.5C 503.187,296.254 501.52,295.254 501.5,291.5C 501.437,289.486 502.103,287.819 503.5,286.5 Z"/></g>
<g><path style="opacity:1" fill="#141414" d="M 783.5,286.5 C 784.822,286.33 785.989,286.663 787,287.5C 787.667,289.833 787.667,292.167 787,294.5C 783.958,295.986 782.125,294.986 781.5,291.5C 782.187,289.823 782.854,288.156 783.5,286.5 Z"/></g>
<g><path style="opacity:1" fill="#0b0b0b" d="M 213.5,287.5 C 214.787,288.871 215.453,290.705 215.5,293C 214.563,300.154 214.396,307.32 215,314.5C 216.265,309.933 218.931,306.6 223,304.5C 224.261,304.759 225.261,305.426 226,306.5C 226.5,314.159 226.666,321.826 226.5,329.5C 225.178,329.67 224.011,329.337 223,328.5C 223.317,301.667 219.983,302.001 213,329.5C 212.586,329.043 212.086,328.709 211.5,328.5C 210.334,318.183 210.168,307.849 211,297.5C 211.05,293.843 211.883,290.51 213.5,287.5 Z"/></g>
<g><path style="opacity:1" fill="#090909" d="M 255.5,289.5 C 256.833,289.5 258.167,289.5 259.5,289.5C 259.086,302.843 258.419,316.176 257.5,329.5C 256.833,329.833 256.167,330.167 255.5,330.5C 254.281,316.827 254.281,303.161 255.5,289.5 Z"/></g>
<g><path style="opacity:1" fill="#090909" d="M 511.5,289.5 C 512.833,289.5 514.167,289.5 515.5,289.5C 515.086,302.843 514.419,316.176 513.5,329.5C 512.833,329.833 512.167,330.167 511.5,330.5C 510.281,316.827 510.281,303.161 511.5,289.5 Z"/></g>
<g><path style="opacity:1" fill="#1c1c1c" d="M 792.5,289.5 C 793.833,289.5 795.167,289.5 796.5,289.5C 796,302.836 795.333,316.17 794.5,329.5C 793.28,330.711 792.113,330.711 791,329.5C 790.029,316.087 790.529,302.754 792.5,289.5 Z"/></g>
<g><path style="opacity:1" fill="#101010" d="M 442.5,300.5 C 441.532,302.607 441.198,304.941 441.5,307.5C 442.791,307.737 443.791,307.404 444.5,306.5C 447.022,306.128 449.022,306.961 450.5,309C 447.607,310.149 444.607,310.649 441.5,310.5C 441.5,317.167 441.5,323.833 441.5,330.5C 439.62,330.771 438.287,330.104 437.5,328.5C 437.5,322.833 437.5,317.167 437.5,311.5C 436.209,311.263 435.209,311.596 434.5,312.5C 433.295,310.59 433.962,309.257 436.5,308.5C 436.4,301.623 438.733,295.79 443.5,291C 446.835,288.709 449.668,289.209 452,292.5C 452.85,296.052 452.35,299.385 450.5,302.5C 449.914,302.291 449.414,301.957 449,301.5C 448.667,298.833 448.333,296.167 448,293.5C 445.546,291.987 443.879,292.654 443,295.5C 442.506,297.134 442.34,298.801 442.5,300.5 Z"/></g>
<g><path style="opacity:1" fill="#161616" d="M 479.5,293.5 C 480.601,292.402 481.934,292.235 483.5,293C 486.07,295.067 488.07,297.567 489.5,300.5C 488.277,301.614 486.944,301.781 485.5,301C 483.636,298.312 481.636,295.812 479.5,293.5 Z"/></g>
<g><path style="opacity:1" fill="#111111" d="M 761.5,300.5 C 760.532,302.607 760.198,304.941 760.5,307.5C 761.791,307.737 762.791,307.404 763.5,306.5C 766.022,306.128 768.022,306.961 769.5,309C 766.607,310.149 763.607,310.649 760.5,310.5C 760.5,317.167 760.5,323.833 760.5,330.5C 758.62,330.771 757.287,330.104 756.5,328.5C 756.5,322.833 756.5,317.167 756.5,311.5C 755.209,311.263 754.209,311.596 753.5,312.5C 752.295,310.59 752.962,309.257 755.5,308.5C 755.4,301.623 757.733,295.79 762.5,291C 765.835,288.709 768.668,289.209 771,292.5C 771.546,289.958 772.879,287.958 775,286.5C 775.772,286.645 776.439,286.978 777,287.5C 777.667,289.833 777.667,292.167 777,294.5C 775.062,295.86 773.396,295.527 772,293.5C 770.092,305.375 768.425,305.375 767,293.5C 765.951,292.483 764.784,292.316 763.5,293C 761.887,295.228 761.22,297.728 761.5,300.5 Z"/></g>
<g><path style="opacity:1" fill="#131313" d="M 237.5,303.5 C 242.742,302.271 246.575,303.937 249,308.5C 248.836,315.476 248.669,322.476 248.5,329.5C 247.167,329.5 245.833,329.5 244.5,329.5C 244.762,328.022 244.429,326.689 243.5,325.5C 239.953,331.047 235.786,331.714 231,327.5C 230.365,325.365 230.699,323.365 232,321.5C 234.958,317.855 238.625,315.188 243,313.5C 244.297,309.825 243.297,307.158 240,305.5C 236.403,307.361 234.903,310.361 235.5,314.5C 234.5,314.5 233.5,314.5 232.5,314.5C 232.277,309.948 233.944,306.281 237.5,303.5 Z"/></g>
<g><path style="opacity:1" fill="#7b7b7b" d="M 442.5,300.5 C 442.025,303.082 442.692,305.082 444.5,306.5C 443.791,307.404 442.791,307.737 441.5,307.5C 441.198,304.941 441.532,302.607 442.5,300.5 Z"/></g>
<g><path style="opacity:1" fill="#111111" d="M 457.5,303.5 C 461.954,302.617 465.454,303.95 468,307.5C 467.964,314.819 467.797,322.152 467.5,329.5C 464.612,329.78 463.112,328.447 463,325.5C 459.188,331.003 454.855,331.67 450,327.5C 450.991,320.324 455.158,315.658 462.5,313.5C 463.797,310.812 463.464,308.312 461.5,306C 460.167,305.333 458.833,305.333 457.5,306C 455.503,308.492 454.503,311.325 454.5,314.5C 453.5,314.5 452.5,314.5 451.5,314.5C 451.677,309.811 453.677,306.144 457.5,303.5 Z"/></g>
<g><path style="opacity:1" fill="#0e0e0e" d="M 501.5,303.5 C 502.833,303.5 504.167,303.5 505.5,303.5C 504.815,311.816 504.482,320.149 504.5,328.5C 503.178,328.67 502.011,328.337 501,327.5C 500.2,319.421 500.367,311.421 501.5,303.5 Z"/></g>
<g><path style="opacity:1" fill="#7b7b7b" d="M 761.5,300.5 C 761.025,303.082 761.692,305.082 763.5,306.5C 762.791,307.404 761.791,307.737 760.5,307.5C 760.198,304.941 760.532,302.607 761.5,300.5 Z"/></g>
<g><path style="opacity:1" fill="#171717" d="M 771.5,303.5 C 772.833,303.5 774.167,303.5 775.5,303.5C 775.5,311.833 775.5,320.167 775.5,328.5C 773.61,328.703 772.11,328.037 771,326.5C 770.309,318.805 770.475,311.139 771.5,303.5 Z"/></g>
<g><path style="opacity:1" fill="#171717" d="M 781.5,303.5 C 782.833,303.5 784.167,303.5 785.5,303.5C 785.5,311.833 785.5,320.167 785.5,328.5C 783.61,328.703 782.11,328.037 781,326.5C 780.309,318.805 780.475,311.139 781.5,303.5 Z"/></g>
<g><path style="opacity:1" fill="#e4e4e4" d="M 242.5,316.5 C 244.344,317.204 244.844,318.537 244,320.5C 242.285,322.759 240.452,324.926 238.5,327C 234,329.167 232.833,328 235,323.5C 237.396,320.933 239.896,318.6 242.5,316.5 Z"/></g>
<g><path style="opacity:1" fill="#ebebeb" d="M 462.5,316.5 C 463.124,316.917 463.457,317.584 463.5,318.5C 461.784,323.549 458.451,326.883 453.5,328.5C 453.372,326.345 453.872,324.345 455,322.5C 457.478,320.361 459.978,318.361 462.5,316.5 Z"/></g>
<g><path style="opacity:1" fill="#8f8f8f" d="M 434.5,312.5 C 435.209,311.596 436.209,311.263 437.5,311.5C 437.5,317.167 437.5,322.833 437.5,328.5C 437.144,322.923 436.144,317.59 434.5,312.5 Z"/></g>
<g><path style="opacity:1" fill="#8f8f8f" d="M 753.5,312.5 C 754.209,311.596 755.209,311.263 756.5,311.5C 756.5,317.167 756.5,322.833 756.5,328.5C 756.144,322.923 755.144,317.59 753.5,312.5 Z"/></g>
</svg>
