<?xml version="1.0" encoding="UTF-8"?>
<!DOCTYPE svg PUBLIC "-//W3C//DTD SVG 1.1//EN" "http://www.w3.org/Graphics/SVG/1.1/DTD/svg11.dtd">
<svg xmlns="http://www.w3.org/2000/svg" version="1.1" width="1200px" height="1000px" style="shape-rendering:geometricPrecision; text-rendering:geometricPrecision; image-rendering:optimizeQuality; fill-rule:evenodd; clip-rule:evenodd" xmlns:xlink="http://www.w3.org/1999/xlink">
<g><path style="opacity:1" fill="#fefeff" d="M -0.5,-0.5 C 399.5,-0.5 799.5,-0.5 1199.5,-0.5C 1199.5,332.833 1199.5,666.167 1199.5,999.5C 799.5,999.5 399.5,999.5 -0.5,999.5C -0.5,666.167 -0.5,332.833 -0.5,-0.5 Z"/></g>
<g><path style="opacity:1" fill="#98abfe" d="M 1124.5,841.5 C 1123.83,841.5 1123.17,841.5 1122.5,841.5C 1122.5,697.5 1122.5,553.5 1122.5,409.5C 1122.5,373.833 1122.5,338.167 1122.5,302.5C 971.001,301.5 819.334,301.167 667.5,301.5C 470.5,300.167 273.5,300.167 76.5,301.5C 76.5,337.833 76.5,374.167 76.5,410.5C 76.5,554.167 76.5,697.833 76.5,841.5C 75.8333,841.5 75.1667,841.5 74.5,841.5C 74.5,613.5 74.5,385.5 74.5,157.5C 424.5,157.5 774.5,157.5 1124.5,157.5C 1124.5,385.5 1124.5,613.5 1124.5,841.5 Z"/></g>
<g><path style="opacity:1" fill="#0e0f15" d="M 709.5,204.5 C 710.822,204.33 711.989,204.663 713,205.5C 712.653,208.271 712.82,210.938 713.5,213.5C 710.91,213.396 708.577,214.063 706.5,215.5C 705.833,215.167 705.167,214.833 704.5,214.5C 705.833,213.5 707.167,212.5 708.5,211.5C 707.073,208.884 707.406,206.551 709.5,204.5 Z"/></g>
<g><path style="opacity:1" fill="#101016" d="M 512.5,205.5 C 517.165,206.849 517.665,209.182 514,212.5C 512.833,211.333 511.667,210.167 510.5,209C 511.823,208.184 512.489,207.017 512.5,205.5 Z"/></g>
<g><path style="opacity:1" fill="#6e7bb8" d="M 709.5,206.5 C 711.085,207.002 711.585,208.002 711,209.5C 709.961,208.756 709.461,207.756 709.5,206.5 Z"/></g>
<g><path style="opacity:1" fill="#12131a" d="M 566.5,206.5 C 567.822,206.33 568.989,206.663 570,207.5C 569.952,209.926 570.119,212.259 570.5,214.5C 567.974,215.424 565.474,216.424 563,217.5C 562.5,217.167 562,216.833 561.5,216.5C 562.833,215.5 564.167,214.5 565.5,213.5C 564.073,210.884 564.406,208.551 566.5,206.5 Z"/></g>
<g><path style="opacity:1" fill="#101118" d="M 692.5,207.5 C 697.668,208.339 698.668,210.839 695.5,215C 690.917,215.934 689.417,214.1 691,209.5C 691.717,208.956 692.217,208.289 692.5,207.5 Z"/></g>
<g><path style="opacity:1" fill="#8596de" d="M 691.5,210.5 C 692.978,210.238 694.311,210.571 695.5,211.5C 694.833,211.833 694.167,212.167 693.5,212.5C 692.287,212.253 691.62,211.586 691.5,210.5 Z"/></g>
<g><path style="opacity:1" fill="#0a0b10" d="M 589.5,212.5 C 591.384,212.712 592.717,213.712 593.5,215.5C 592.711,221.115 592.211,226.782 592,232.5C 591.594,235.494 590.094,237.661 587.5,239C 583.1,239.978 578.933,239.478 575,237.5C 574.506,235.866 574.34,234.199 574.5,232.5C 570.357,233.238 566.69,235.071 563.5,238C 560.568,238.953 557.568,239.453 554.5,239.5C 553.611,251.43 547.945,254.763 537.5,249.5C 543.323,249.172 548.156,246.838 552,242.5C 552.148,240.095 551.648,237.761 550.5,235.5C 550.608,234.558 550.941,233.725 551.5,233C 557.639,235.319 563.639,234.652 569.5,231C 566.329,228.89 562.996,228.39 559.5,229.5C 558.275,227.157 558.941,225.323 561.5,224C 565.337,224.068 569.003,225.068 572.5,227C 576.152,227.499 579.818,227.665 583.5,227.5C 583.5,228.833 583.5,230.167 583.5,231.5C 581.076,231.192 578.743,231.526 576.5,232.5C 577.025,233.192 577.692,233.692 578.5,234C 581.833,234.667 585.167,234.667 588.5,234C 589,233.5 589.5,233 590,232.5C 590.098,227.474 589.598,222.474 588.5,217.5C 588.592,215.742 588.925,214.076 589.5,212.5 Z"/></g>
<g><path style="opacity:1" fill="#13131a" d="M 530.5,210.5 C 535.654,211.268 536.654,213.768 533.5,218C 528.917,218.934 527.417,217.1 529,212.5C 529.717,211.956 530.217,211.289 530.5,210.5 Z"/></g>
<g><path style="opacity:1" fill="#93a5f5" d="M 530.5,213.5 C 531.675,213.281 532.675,213.614 533.5,214.5C 531.948,215.798 530.948,215.465 530.5,213.5 Z"/></g>
<g><path style="opacity:1" fill="#171921" d="M 650.5,211.5 C 651.5,211.5 652.5,211.5 653.5,211.5C 653.232,214.119 653.565,216.619 654.5,219C 651.436,221.392 648.102,222.225 644.5,221.5C 648.001,220.864 649.001,219.031 647.5,216C 648.315,214.357 649.315,212.857 650.5,211.5 Z"/></g>
<g><path style="opacity:1" fill="#161820" d="M 547.5,212.5 C 551.35,212.701 552.35,214.534 550.5,218C 551.167,218.667 551.833,219.333 552.5,220C 549.833,221.167 547.167,222.333 544.5,223.5C 543.833,223.167 543.167,222.833 542.5,222.5C 543.833,221.5 545.167,220.5 546.5,219.5C 545.328,216.995 545.662,214.661 547.5,212.5 Z"/></g>
<g><path style="opacity:1" fill="#0f1016" d="M 600.5,213.5 C 601.646,220.218 602.646,227.051 603.5,234C 606.429,234.777 609.263,234.61 612,233.5C 612.529,231.415 612.029,229.582 610.5,228C 611.907,222.529 613.407,222.363 615,227.5C 615.655,236.51 611.489,240.343 602.5,239C 601.299,238.097 600.465,236.931 600,235.5C 599.377,231.014 598.877,226.514 598.5,222C 598.364,218.927 599.03,216.094 600.5,213.5 Z"/></g>
<g><path style="opacity:1" fill="#0c0d12" d="M 513.5,215.5 C 516.642,215.799 518.809,217.466 520,220.5C 520.667,223.833 520.667,227.167 520,230.5C 516.92,234.631 512.753,237.131 507.5,238C 500.371,240.447 493.538,239.947 487,236.5C 484.642,231.983 485.308,227.983 489,224.5C 488.402,227.161 488.568,229.827 489.5,232.5C 493.974,234.468 498.64,234.968 503.5,234C 508.387,232.65 513.054,230.817 517.5,228.5C 518.988,224.181 518.322,223.681 515.5,227C 513.888,227.72 512.388,227.554 511,226.5C 509.946,222.345 510.78,218.678 513.5,215.5 Z"/></g>
<g><path style="opacity:1" fill="#13141b" d="M 681.5,216.5 C 682.791,217.542 682.791,218.708 681.5,220C 679.167,221.167 676.833,222.333 674.5,223.5C 674.167,223.167 673.833,222.833 673.5,222.5C 676.196,220.491 678.863,218.491 681.5,216.5 Z"/></g>
<g><path style="opacity:1" fill="#8090d6" d="M 512.5,220.5 C 513.675,220.281 514.675,220.614 515.5,221.5C 513.948,222.798 512.948,222.465 512.5,220.5 Z"/></g>
<g><path style="opacity:1" fill="#0b0b10" d="M 710.5,223.5 C 714.603,228.535 714.27,233.368 709.5,238C 703.54,240.868 699.04,239.368 696,233.5C 693.309,237.762 689.476,239.762 684.5,239.5C 683.589,251.447 677.922,254.78 667.5,249.5C 673.323,249.172 678.156,246.838 682,242.5C 682.148,240.095 681.648,237.761 680.5,235.5C 680.608,234.558 680.941,233.725 681.5,233C 683.342,233.579 685.342,234.079 687.5,234.5C 692.891,234.174 693.558,232.508 689.5,229.5C 690.04,228.252 690.707,227.085 691.5,226C 694.167,225.333 696.833,225.333 699.5,226C 702.08,228.12 702.08,230.287 699.5,232.5C 699.709,233.086 700.043,233.586 700.5,234C 703.5,234.667 706.5,234.667 709.5,234C 710.022,233.439 710.355,232.772 710.5,232C 707.928,229.196 707.928,226.363 710.5,223.5 Z"/></g>
<g><path style="opacity:1" fill="#0f1016" d="M 532.5,225.5 C 535.292,225.452 537.125,226.785 538,229.5C 539.209,235.886 538.209,241.886 535,247.5C 530.496,252.748 525.996,252.748 521.5,247.5C 527.59,248.377 532.424,246.043 536,240.5C 536.872,236.865 535.705,235.865 532.5,237.5C 529.747,235.957 528.913,233.624 530,230.5C 530.847,228.807 531.68,227.14 532.5,225.5 Z"/></g>
<g><path style="opacity:1" fill="#090a0f" d="M 664.5,221.5 C 666.922,222.692 667.922,224.692 667.5,227.5C 667.438,234.729 663.772,238.562 656.5,239C 650.881,240.299 645.214,240.632 639.5,240C 632.773,236.494 631.773,231.661 636.5,225.5C 636.833,225.667 637.167,225.833 637.5,226C 634.966,228.747 634.966,231.413 637.5,234C 644.793,235.704 652.126,235.704 659.5,234C 661.997,233.588 663.997,232.422 665.5,230.5C 663.218,227.746 662.885,224.746 664.5,221.5 Z"/></g>
<g><path style="opacity:1" fill="#14151d" d="M 609.5,241.5 C 614.165,242.849 614.665,245.182 611,248.5C 609.926,247.382 608.76,246.382 607.5,245.5C 608.18,244.14 608.847,242.807 609.5,241.5 Z"/></g>
<g><path style="opacity:1" fill="#09090e" d="M 711.5,241.5 C 714.927,243.013 715.261,245.013 712.5,247.5C 710.002,244.809 707.835,245.142 706,248.5C 702.923,246.698 702.757,244.698 705.5,242.5C 708.126,245.493 710.126,245.16 711.5,241.5 Z"/></g>
<g><path style="opacity:1" fill="#08090e" d="M 649.5,243.5 C 654.416,244.747 654.749,246.747 650.5,249.5C 647.025,247.916 646.692,245.916 649.5,243.5 Z"/></g>
<g><path style="opacity:1" fill="#12131a" d="M 503.5,243.5 C 504.776,244.386 504.776,245.386 503.5,246.5C 501.004,247.58 498.67,248.914 496.5,250.5C 495.167,249.5 495.167,248.5 496.5,247.5C 499.059,246.392 501.392,245.059 503.5,243.5 Z"/></g>
<g><path style="opacity:1" fill="#13151c" d="M 614.5,251.5 C 616.927,252.279 616.927,253.446 614.5,255C 612.167,256.167 609.833,257.333 607.5,258.5C 607.167,258.167 606.833,257.833 606.5,257.5C 609.196,255.491 611.863,253.491 614.5,251.5 Z"/></g>
<g><path style="opacity:1" fill="#b2bff4" d="M 236.5,302.5 C 379.666,301.5 522.999,301.167 666.5,301.5C 666.5,301.833 666.5,302.167 666.5,302.5C 619.167,302.5 571.833,302.5 524.5,302.5C 523.833,302.5 523.167,302.5 522.5,302.5C 475.833,302.5 429.167,302.5 382.5,302.5C 382.5,337.833 382.5,373.167 382.5,408.5C 382.5,409.167 382.5,409.833 382.5,410.5C 382.5,445.833 382.5,481.167 382.5,516.5C 382.5,517.167 382.5,517.833 382.5,518.5C 382.5,553.833 382.5,589.167 382.5,624.5C 382.5,625.167 382.5,625.833 382.5,626.5C 382.5,661.833 382.5,697.167 382.5,732.5C 382.5,733.167 382.5,733.833 382.5,734.5C 382.5,769.833 382.5,805.167 382.5,840.5C 382.5,840.833 382.5,841.167 382.5,841.5C 381.5,698.001 381.167,554.334 381.5,410.5C 381.832,374.329 381.498,338.329 380.5,302.5C 332.5,302.5 284.5,302.5 236.5,302.5 Z"/></g>
<g><path style="opacity:1" fill="#d8d8d8" d="M 235.5,302.5 C 235.5,337.833 235.5,373.167 235.5,408.5C 182.833,408.5 130.167,408.5 77.5,408.5C 77.5,373.167 77.5,337.833 77.5,302.5C 130.167,302.5 182.833,302.5 235.5,302.5 Z"/></g>
<g><path style="opacity:1" fill="#d8d8d8" d="M 236.5,302.5 C 284.5,302.5 332.5,302.5 380.5,302.5C 380.5,337.833 380.5,373.167 380.5,408.5C 332.5,408.5 284.5,408.5 236.5,408.5C 236.5,373.167 236.5,337.833 236.5,302.5 Z"/></g>
<g><path style="opacity:1" fill="#d8d8d8" d="M 522.5,302.5 C 522.5,337.833 522.5,373.167 522.5,408.5C 475.833,408.5 429.167,408.5 382.5,408.5C 382.5,373.167 382.5,337.833 382.5,302.5C 429.167,302.5 475.833,302.5 522.5,302.5 Z"/></g>
<g><path style="opacity:1" fill="#d8d8d8" d="M 524.5,302.5 C 571.833,302.5 619.167,302.5 666.5,302.5C 666.5,337.833 666.5,373.167 666.5,408.5C 619.167,408.5 571.833,408.5 524.5,408.5C 524.5,373.167 524.5,337.833 524.5,302.5 Z"/></g>
<g><path style="opacity:1" fill="#1c1c1c" d="M 595.5,342.5 C 596.5,342.5 597.5,342.5 598.5,342.5C 597.5,347.833 596.5,347.833 595.5,342.5 Z"/></g>
<g><path style="opacity:1" fill="#1d1d1d" d="M 314.5,343.5 C 317.716,343.872 318.216,345.206 316,347.5C 313.628,346.683 313.128,345.35 314.5,343.5 Z"/></g>
<g><path style="opacity:1" fill="#1b1b1b" d="M 475.5,343.5 C 477.104,344.287 477.771,345.62 477.5,347.5C 476.5,347.5 475.5,347.5 474.5,347.5C 474.433,346.041 474.766,344.708 475.5,343.5 Z"/></g>
<g><path style="opacity:1" fill="#1c1c1c" d="M 327.5,344.5 C 331.029,345.03 331.362,346.363 328.5,348.5C 326.358,347.563 326.024,346.23 327.5,344.5 Z"/></g>
<g><path style="opacity:1" fill="#1e1e1e" d="M 296.5,346.5 C 300.029,347.03 300.362,348.363 297.5,350.5C 295.358,349.563 295.024,348.23 296.5,346.5 Z"/></g>
<g><path style="opacity:1" fill="#181818" d="M 600.5,351.5 C 600.254,354.47 598.588,355.803 595.5,355.5C 593.98,352.458 594.647,349.792 597.5,347.5C 598.984,348.467 599.984,349.8 600.5,351.5 Z"/></g>
<g><path style="opacity:1" fill="#121212" d="M 153.5,349.5 C 155.476,350.427 155.809,351.76 154.5,353.5C 152.358,352.563 152.024,351.23 153.5,349.5 Z"/></g>
<g><path style="opacity:1" fill="#1e1e1e" d="M 139.5,350.5 C 144.119,351.127 146.119,353.794 145.5,358.5C 143.208,358.244 141.041,358.577 139,359.5C 139.326,363.47 139.326,367.47 139,371.5C 137.289,366.953 136.622,362.286 137,357.5C 138.074,356.382 139.24,355.382 140.5,354.5C 139.738,354.089 138.738,353.923 137.5,354C 138.305,352.887 138.972,351.721 139.5,350.5 Z"/></g>
<g><path style="opacity:1" fill="#101010" d="M 588.5,356.5 C 592.683,357.455 596.683,357.455 600.5,356.5C 600.244,358.776 598.91,359.943 596.5,360C 592.171,361.151 588.338,360.318 585,357.5C 583.887,358.305 582.721,358.972 581.5,359.5C 581.511,357.983 582.177,356.816 583.5,356C 581.606,354.921 581.273,353.587 582.5,352C 584.167,351.333 585.833,351.333 587.5,352C 588.193,353.684 588.526,355.184 588.5,356.5 Z"/></g>
<g><path style="opacity:1" fill="#181818" d="M 314.5,349.5 C 318.438,349.843 319.438,351.843 317.5,355.5C 320.913,356.823 324.247,356.656 327.5,355C 325.212,354.178 322.878,353.511 320.5,353C 321.226,351.603 322.393,350.769 324,350.5C 327.998,352.105 332.165,352.771 336.5,352.5C 336.5,353.5 336.5,354.5 336.5,355.5C 334.143,355.337 331.81,355.503 329.5,356C 324.838,360.261 319.505,361.428 313.5,359.5C 307.863,360.243 302.196,360.743 296.5,361C 295.285,363.096 294.451,362.929 294,360.5C 293.302,367.528 289.468,370.361 282.5,369C 278.68,365.725 278.513,362.225 282,358.5C 281.416,360.7 281.582,362.867 282.5,365C 285.167,365.667 287.833,365.667 290.5,365C 291.804,364.196 292.471,363.029 292.5,361.5C 291.472,359.44 291.472,357.44 292.5,355.5C 293.293,355.931 294.127,356.265 295,356.5C 297.449,355.056 299.615,353.222 301.5,351C 303.473,350.505 305.473,350.338 307.5,350.5C 307.5,352.5 307.5,354.5 307.5,356.5C 308.833,356.5 310.167,356.5 311.5,356.5C 311.688,353.794 312.688,351.461 314.5,349.5 Z"/></g>
<g><path style="opacity:1" fill="#bdbdbd" d="M 301.5,353.5 C 302.978,353.238 304.311,353.571 305.5,354.5C 303.473,356.339 301.14,356.839 298.5,356C 299.571,355.148 300.571,354.315 301.5,353.5 Z"/></g>
<g><path style="opacity:1" fill="#bdbdbd" d="M 313.5,352.5 C 314.5,352.5 315.5,352.5 316.5,352.5C 315.754,356.31 314.754,356.31 313.5,352.5 Z"/></g>
<g><path style="opacity:1" fill="#151515" d="M 466.5,349.5 C 467.822,349.33 468.989,349.663 470,350.5C 470.495,352.473 470.662,354.473 470.5,356.5C 472.604,356.799 474.604,356.466 476.5,355.5C 475.319,353.802 475.319,352.135 476.5,350.5C 479.402,354.393 478.736,357.56 474.5,360C 468.946,359.95 463.612,360.783 458.5,362.5C 456.375,359.568 453.709,358.902 450.5,360.5C 448.971,360.471 447.804,359.804 447,358.5C 440.797,361.974 434.464,362.308 428,359.5C 427.333,357.5 427.333,355.5 428,353.5C 428.11,355.848 429.277,357.348 431.5,358C 437.216,359.166 442.55,358.333 447.5,355.5C 451.024,356.017 454.524,356.35 458,356.5C 460.988,354.344 463.822,352.011 466.5,349.5 Z"/></g>
<g><path style="opacity:1" fill="#bdbdbd" d="M 463.5,353.5 C 465.288,353.215 466.955,353.548 468.5,354.5C 466.473,356.339 464.14,356.839 461.5,356C 462.381,355.292 463.047,354.458 463.5,353.5 Z"/></g>
<g><path style="opacity:1" fill="#181818" d="M 160.5,350.5 C 165.346,352.039 170.346,352.706 175.5,352.5C 175.5,353.5 175.5,354.5 175.5,355.5C 172.813,355.336 170.146,355.503 167.5,356C 164.107,358.363 160.44,360.196 156.5,361.5C 155.061,368.145 151.395,369.978 145.5,367C 148.973,366.681 151.806,365.181 154,362.5C 154.496,360.965 154.33,359.465 153.5,358C 153.63,356.941 154.13,356.108 155,355.5C 158.541,356.872 162.041,356.706 165.5,355C 163.376,353.418 161.21,353.251 159,354.5C 158.7,352.934 159.2,351.601 160.5,350.5 Z"/></g>
<g><path style="opacity:1" fill="#6f6f6f" d="M 600.5,351.5 C 601.833,353.167 601.833,354.833 600.5,356.5C 596.683,357.455 592.683,357.455 588.5,356.5C 591.059,356.802 593.393,356.468 595.5,355.5C 598.588,355.803 600.254,354.47 600.5,351.5 Z"/></g>
<g><path style="opacity:1" fill="#1c1c1c" d="M 165.5,361.5 C 168.861,362.203 169.194,363.537 166.5,365.5C 164.3,364.675 163.966,363.342 165.5,361.5 Z"/></g>
<g><path style="opacity:1" fill="#252525" d="M 608.5,353.5 C 612.481,357.886 612.481,362.386 608.5,367C 605.577,369.032 602.911,368.698 600.5,366C 603.938,366.135 606.772,364.968 609,362.5C 609.756,360.191 609.256,358.191 607.5,356.5C 608.127,355.583 608.461,354.583 608.5,353.5 Z"/></g>
<g><path style="opacity:1" fill="#1d1d1d" d="M 435.5,363.5 C 438.569,363.963 439.069,365.296 437,367.5C 434.628,366.683 434.128,365.35 435.5,363.5 Z"/></g>
<g><path style="opacity:1" fill="#1b1b1b" d="M 581.5,359.5 C 579.679,363.231 580.346,366.397 583.5,369C 587.416,370.102 591.416,370.769 595.5,371C 587.217,375.807 581.55,373.807 578.5,365C 578.613,362.601 579.613,360.768 581.5,359.5 Z"/></g>
<g><path style="opacity:1" fill="#cfd8ff" d="M 668.5,302.5 C 668.5,337.833 668.5,373.167 668.5,408.5C 819.5,408.5 970.5,408.5 1121.5,408.5C 1121.5,373.167 1121.5,337.833 1121.5,302.5C 1121.83,302.5 1122.17,302.5 1122.5,302.5C 1122.5,338.167 1122.5,373.833 1122.5,409.5C 970.833,409.5 819.167,409.5 667.5,409.5C 667.168,373.663 667.502,337.996 668.5,302.5 Z"/></g>
<g><path style="opacity:1" fill="#fefffe" d="M 668.5,302.5 C 819.5,302.5 970.5,302.5 1121.5,302.5C 1121.5,337.833 1121.5,373.167 1121.5,408.5C 970.5,408.5 819.5,408.5 668.5,408.5C 668.5,373.167 668.5,337.833 668.5,302.5 Z"/></g>
<g><path style="opacity:1" fill="#bbc5f3" d="M 76.5,301.5 C 129.669,301.168 182.669,301.501 235.5,302.5C 182.833,302.5 130.167,302.5 77.5,302.5C 77.5,337.833 77.5,373.167 77.5,408.5C 130.167,408.5 182.833,408.5 235.5,408.5C 235.5,409.167 235.5,409.833 235.5,410.5C 182.833,410.5 130.167,410.5 77.5,410.5C 77.1667,410.5 76.8333,410.5 76.5,410.5C 76.5,374.167 76.5,337.833 76.5,301.5 Z"/></g>
<g><path style="opacity:1" fill="#c0c9f1" d="M 380.5,302.5 C 381.498,338.329 381.832,374.329 381.5,410.5C 381.167,410.5 380.833,410.5 380.5,410.5C 332.5,410.5 284.5,410.5 236.5,410.5C 236.5,409.833 236.5,409.167 236.5,408.5C 284.5,408.5 332.5,408.5 380.5,408.5C 380.5,373.167 380.5,337.833 380.5,302.5 Z"/></g>
<g><path style="opacity:1" fill="#bdc7f2" d="M 522.5,302.5 C 523.167,302.5 523.833,302.5 524.5,302.5C 524.5,337.833 524.5,373.167 524.5,408.5C 571.833,408.5 619.167,408.5 666.5,408.5C 666.5,409.167 666.5,409.833 666.5,410.5C 619.167,410.5 571.833,410.5 524.5,410.5C 523.833,410.5 523.167,410.5 522.5,410.5C 475.833,410.5 429.167,410.5 382.5,410.5C 382.5,409.833 382.5,409.167 382.5,408.5C 429.167,408.5 475.833,408.5 522.5,408.5C 522.5,373.167 522.5,337.833 522.5,302.5 Z"/></g>
<g><path style="opacity:1" fill="#fefefe" d="M 77.5,410.5 C 130.167,410.5 182.833,410.5 235.5,410.5C 235.5,445.833 235.5,481.167 235.5,516.5C 182.833,516.5 130.167,516.5 77.5,516.5C 77.5,481.167 77.5,445.833 77.5,410.5 Z"/></g>
<g><path style="opacity:1" fill="#fefefe" d="M 236.5,410.5 C 284.5,410.5 332.5,410.5 380.5,410.5C 380.5,445.833 380.5,481.167 380.5,516.5C 332.5,516.5 284.5,516.5 236.5,516.5C 236.5,481.167 236.5,445.833 236.5,410.5 Z"/></g>
<g><path style="opacity:1" fill="#fefefe" d="M 382.5,410.5 C 429.167,410.5 475.833,410.5 522.5,410.5C 522.5,445.833 522.5,481.167 522.5,516.5C 475.833,516.5 429.167,516.5 382.5,516.5C 382.5,481.167 382.5,445.833 382.5,410.5 Z"/></g>
<g><path style="opacity:1" fill="#fefefe" d="M 524.5,410.5 C 571.833,410.5 619.167,410.5 666.5,410.5C 666.5,445.833 666.5,481.167 666.5,516.5C 619.167,516.5 571.833,516.5 524.5,516.5C 524.5,481.167 524.5,445.833 524.5,410.5 Z"/></g>
<g><path style="opacity:1" fill="#1b1b1b" d="M 611.5,443.5 C 614.113,444.095 614.113,444.929 611.5,446C 615.048,447.103 614.715,448.27 610.5,449.5C 609.23,447.243 609.564,445.243 611.5,443.5 Z"/></g>
<g><path style="opacity:1" fill="#141414" d="M 596.5,451.5 C 598.355,451.272 599.188,451.939 599,453.5C 596.366,454.692 595.532,454.026 596.5,451.5 Z"/></g>
<g><path style="opacity:1" fill="#2a2a2a" d="M 611.5,452.5 C 612.991,455.186 613.657,458.186 613.5,461.5C 613.603,464.037 613.103,466.371 612,468.5C 610.966,463.098 610.8,457.764 611.5,452.5 Z"/></g>
<g><path style="opacity:1" fill="#151515" d="M 603.5,451.5 C 605.103,451.312 606.437,451.812 607.5,453C 607.047,458.131 606.047,463.131 604.5,468C 602.101,468.711 599.768,468.544 597.5,467.5C 591.046,470.76 584.546,471.093 578,468.5C 577.333,466.833 577.333,465.167 578,463.5C 578.5,465.333 579.667,466.5 581.5,467C 586.147,468.004 590.481,467.338 594.5,465C 593.317,461.528 594.483,459.028 598,457.5C 600.134,459.287 600.967,461.62 600.5,464.5C 602.167,464.5 603.833,464.5 605.5,464.5C 604.993,460.14 604.327,455.807 603.5,451.5 Z"/></g>
<g><path style="opacity:1" fill="#0d0d0d" d="M 152.5,461.5 C 155.247,461.187 157.914,461.52 160.5,462.5C 159.167,462.833 157.833,463.167 156.5,463.5C 154.667,463.415 153.334,462.748 152.5,461.5 Z"/></g>
<g><path style="opacity:1" fill="#dfdfdf" d="M 596.5,460.5 C 598.048,460.821 598.715,461.821 598.5,463.5C 595.752,463.598 595.086,462.598 596.5,460.5 Z"/></g>
<g><path style="opacity:1" fill="#1c1c1c" d="M 309.5,452.5 C 311.268,456.044 312.102,460.044 312,464.5C 313.699,465.406 315.533,465.739 317.5,465.5C 317.481,463.94 317.148,462.44 316.5,461C 316.63,459.941 317.13,459.108 318,458.5C 320.769,465.718 318.436,468.718 311,467.5C 309.612,462.628 309.112,457.628 309.5,452.5 Z"/></g>
<g><path style="opacity:1" fill="#161616" d="M 443.5,460.5 C 445.346,460.222 446.68,460.889 447.5,462.5C 445.833,463.167 444.167,463.833 442.5,464.5C 444.797,466.319 447.131,466.985 449.5,466.5C 447.206,468.653 444.54,470.32 441.5,471.5C 441.167,471.167 440.833,470.833 440.5,470.5C 442.922,468.952 442.922,467.286 440.5,465.5C 441.26,463.64 442.26,461.973 443.5,460.5 Z"/></g>
<g><path style="opacity:1" fill="#1e1e1e" d="M 453.5,452.5 C 455.423,456.029 456.089,460.029 455.5,464.5C 457.857,464.663 460.19,464.497 462.5,464C 460.152,462.312 459.985,460.478 462,458.5C 464.967,465.198 462.801,468.364 455.5,468C 455,467.5 454.5,467 454,466.5C 453.111,461.746 452.945,457.08 453.5,452.5 Z"/></g>
<g><path style="opacity:1" fill="#1c1c1c" d="M 300.5,460.5 C 303.275,460.834 303.941,462.167 302.5,464.5C 300.064,463.109 299.398,463.609 300.5,466C 302.557,466.305 304.557,466.305 306.5,466C 303.97,468.192 301.136,470.026 298,471.5C 298.775,469.518 298.608,467.518 297.5,465.5C 298.092,463.577 299.092,461.911 300.5,460.5 Z"/></g>
<g><path style="opacity:1" fill="#1c1c1c" d="M 313.5,470.5 C 315.858,471.114 318.192,471.447 320.5,471.5C 320.192,472.308 319.692,472.975 319,473.5C 317.293,472.862 315.46,472.862 313.5,473.5C 313.5,472.5 313.5,471.5 313.5,470.5 Z"/></g>
<g><path style="opacity:1" fill="#1b1b1b" d="M 457.5,470.5 C 459.858,471.114 462.192,471.447 464.5,471.5C 462.687,472.635 460.854,473.635 459,474.5C 457.812,473.437 457.312,472.103 457.5,470.5 Z"/></g>
<g><path style="opacity:1" fill="#fefefe" d="M 235.5,518.5 C 235.5,553.833 235.5,589.167 235.5,624.5C 182.833,624.5 130.167,624.5 77.5,624.5C 77.5,589.167 77.5,553.833 77.5,518.5C 130.167,518.5 182.833,518.5 235.5,518.5 Z"/></g>
<g><path style="opacity:1" fill="#fefefe" d="M 236.5,518.5 C 284.5,518.5 332.5,518.5 380.5,518.5C 380.5,553.833 380.5,589.167 380.5,624.5C 332.5,624.5 284.5,624.5 236.5,624.5C 236.5,589.167 236.5,553.833 236.5,518.5 Z"/></g>
<g><path style="opacity:1" fill="#fefefe" d="M 382.5,518.5 C 429.167,518.5 475.833,518.5 522.5,518.5C 522.5,553.833 522.5,589.167 522.5,624.5C 475.833,624.5 429.167,624.5 382.5,624.5C 382.5,589.167 382.5,553.833 382.5,518.5 Z"/></g>
<g><path style="opacity:1" fill="#fefefe" d="M 666.5,518.5 C 666.5,553.833 666.5,589.167 666.5,624.5C 619.167,624.5 571.833,624.5 524.5,624.5C 524.5,589.167 524.5,553.833 524.5,518.5C 571.833,518.5 619.167,518.5 666.5,518.5 Z"/></g>
<g><path style="opacity:1" fill="#232323" d="M 594.5,560.5 C 596.35,563.514 597.35,567.014 597.5,571C 597.204,572.888 596.704,574.722 596,576.5C 595.17,571.192 594.67,565.859 594.5,560.5 Z"/></g>
<g><path style="opacity:1" fill="#1e1e1e" d="M 604.5,567.5 C 606.017,567.511 607.184,568.177 608,569.5C 610.051,576.235 608.051,581.235 602,584.5C 596.09,582.145 596.59,580.978 603.5,581C 605.607,579.736 606.607,577.903 606.5,575.5C 605.178,575.67 604.011,575.337 603,574.5C 602.391,571.935 602.891,569.601 604.5,567.5 Z"/></g>
<g><path style="opacity:1" fill="#1c1c1c" d="M 587.5,567.5 C 589.017,567.511 590.184,568.177 591,569.5C 592.305,575.933 590.305,580.933 585,584.5C 583.274,584.054 581.774,583.221 580.5,582C 582.952,581.71 585.285,581.044 587.5,580C 589.037,578.89 589.703,577.39 589.5,575.5C 588.178,575.67 587.011,575.337 586,574.5C 585.391,571.935 585.891,569.601 587.5,567.5 Z"/></g>
<g><path style="opacity:1" fill="#0d0d0d" d="M 152.5,569.5 C 155.247,569.187 157.914,569.52 160.5,570.5C 159.167,570.833 157.833,571.167 156.5,571.5C 154.667,571.415 153.334,570.748 152.5,569.5 Z"/></g>
<g><path style="opacity:1" fill="#1c1c1c" d="M 309.5,560.5 C 311.268,564.044 312.102,568.044 312,572.5C 313.699,573.406 315.533,573.739 317.5,573.5C 317.481,571.94 317.148,570.44 316.5,569C 316.63,567.941 317.13,567.108 318,566.5C 320.769,573.718 318.436,576.718 311,575.5C 309.612,570.628 309.112,565.628 309.5,560.5 Z"/></g>
<g><path style="opacity:1" fill="#161616" d="M 443.5,568.5 C 445.346,568.222 446.68,568.889 447.5,570.5C 445.833,571.167 444.167,571.833 442.5,572.5C 444.797,574.319 447.131,574.985 449.5,574.5C 447.206,576.653 444.54,578.32 441.5,579.5C 441.167,579.167 440.833,578.833 440.5,578.5C 442.922,576.952 442.922,575.286 440.5,573.5C 441.26,571.64 442.26,569.973 443.5,568.5 Z"/></g>
<g><path style="opacity:1" fill="#1e1e1e" d="M 453.5,560.5 C 455.423,564.029 456.089,568.029 455.5,572.5C 457.857,572.663 460.19,572.497 462.5,572C 460.152,570.312 459.985,568.478 462,566.5C 464.967,573.198 462.801,576.364 455.5,576C 455,575.5 454.5,575 454,574.5C 453.111,569.746 452.945,565.08 453.5,560.5 Z"/></g>
<g><path style="opacity:1" fill="#1c1c1c" d="M 300.5,568.5 C 303.275,568.834 303.941,570.167 302.5,572.5C 300.064,571.109 299.398,571.609 300.5,574C 302.557,574.305 304.557,574.305 306.5,574C 303.97,576.192 301.136,578.026 298,579.5C 298.775,577.518 298.608,575.518 297.5,573.5C 298.092,571.577 299.092,569.911 300.5,568.5 Z"/></g>
<g><path style="opacity:1" fill="#1c1c1c" d="M 313.5,578.5 C 315.858,579.114 318.192,579.447 320.5,579.5C 320.192,580.308 319.692,580.975 319,581.5C 317.293,580.862 315.46,580.862 313.5,581.5C 313.5,580.5 313.5,579.5 313.5,578.5 Z"/></g>
<g><path style="opacity:1" fill="#1b1b1b" d="M 457.5,578.5 C 459.858,579.114 462.192,579.447 464.5,579.5C 462.687,580.635 460.854,581.635 459,582.5C 457.812,581.437 457.312,580.103 457.5,578.5 Z"/></g>
<g><path style="opacity:1" fill="#d6ddff" d="M 380.5,410.5 C 380.833,410.5 381.167,410.5 381.5,410.5C 381.167,554.334 381.5,698.001 382.5,841.5C 477.167,841.5 571.833,841.5 666.5,841.5C 818.5,841.5 970.5,841.5 1122.5,841.5C 1123.17,841.5 1123.83,841.5 1124.5,841.5C 774.5,842.833 424.5,842.833 74.5,841.5C 75.1667,841.5 75.8333,841.5 76.5,841.5C 129.5,841.5 182.5,841.5 235.5,841.5C 236.167,841.5 236.5,841.167 236.5,840.5C 284.5,840.5 332.5,840.5 380.5,840.5C 380.5,805.167 380.5,769.833 380.5,734.5C 332.5,734.5 284.5,734.5 236.5,734.5C 236.5,733.833 236.5,733.167 236.5,732.5C 284.5,732.5 332.5,732.5 380.5,732.5C 380.5,697.167 380.5,661.833 380.5,626.5C 332.5,626.5 284.5,626.5 236.5,626.5C 236.5,625.833 236.5,625.167 236.5,624.5C 284.5,624.5 332.5,624.5 380.5,624.5C 380.5,589.167 380.5,553.833 380.5,518.5C 332.5,518.5 284.5,518.5 236.5,518.5C 236.5,517.833 236.5,517.167 236.5,516.5C 284.5,516.5 332.5,516.5 380.5,516.5C 380.5,481.167 380.5,445.833 380.5,410.5 Z"/></g>
<g><path style="opacity:1" fill="#c9d3ff" d="M 76.5,410.5 C 76.8333,410.5 77.1667,410.5 77.5,410.5C 77.5,445.833 77.5,481.167 77.5,516.5C 130.167,516.5 182.833,516.5 235.5,516.5C 235.5,517.167 235.5,517.833 235.5,518.5C 182.833,518.5 130.167,518.5 77.5,518.5C 77.5,553.833 77.5,589.167 77.5,624.5C 130.167,624.5 182.833,624.5 235.5,624.5C 235.5,625.167 235.5,625.833 235.5,626.5C 182.833,626.5 130.167,626.5 77.5,626.5C 77.5,661.833 77.5,697.167 77.5,732.5C 130.167,732.5 182.833,732.5 235.5,732.5C 235.5,733.167 235.5,733.833 235.5,734.5C 182.833,734.5 130.167,734.5 77.5,734.5C 77.5,769.833 77.5,805.167 77.5,840.5C 130.167,840.5 182.833,840.5 235.5,840.5C 235.5,840.833 235.5,841.167 235.5,841.5C 182.5,841.5 129.5,841.5 76.5,841.5C 76.5,697.833 76.5,554.167 76.5,410.5 Z"/></g>
<g><path style="opacity:1" fill="#fefefe" d="M 235.5,626.5 C 235.5,661.833 235.5,697.167 235.5,732.5C 182.833,732.5 130.167,732.5 77.5,732.5C 77.5,697.167 77.5,661.833 77.5,626.5C 130.167,626.5 182.833,626.5 235.5,626.5 Z"/></g>
<g><path style="opacity:1" fill="#aabafc" d="M 76.5,301.5 C 273.5,300.167 470.5,300.167 667.5,301.5C 667.167,301.5 666.833,301.5 666.5,301.5C 522.999,301.167 379.666,301.5 236.5,302.5C 236.5,337.833 236.5,373.167 236.5,408.5C 236.5,409.167 236.5,409.833 236.5,410.5C 236.5,445.833 236.5,481.167 236.5,516.5C 236.5,517.167 236.5,517.833 236.5,518.5C 236.5,553.833 236.5,589.167 236.5,624.5C 236.5,625.167 236.5,625.833 236.5,626.5C 236.5,661.833 236.5,697.167 236.5,732.5C 236.5,733.167 236.5,733.833 236.5,734.5C 236.5,769.833 236.5,805.167 236.5,840.5C 236.5,841.167 236.167,841.5 235.5,841.5C 235.5,841.167 235.5,840.833 235.5,840.5C 235.5,805.167 235.5,769.833 235.5,734.5C 235.5,733.833 235.5,733.167 235.5,732.5C 235.5,697.167 235.5,661.833 235.5,626.5C 235.5,625.833 235.5,625.167 235.5,624.5C 235.5,589.167 235.5,553.833 235.5,518.5C 235.5,517.833 235.5,517.167 235.5,516.5C 235.5,481.167 235.5,445.833 235.5,410.5C 235.5,409.833 235.5,409.167 235.5,408.5C 235.5,373.167 235.5,337.833 235.5,302.5C 182.669,301.501 129.669,301.168 76.5,301.5 Z"/></g>
<g><path style="opacity:1" fill="#fefefe" d="M 236.5,626.5 C 284.5,626.5 332.5,626.5 380.5,626.5C 380.5,661.833 380.5,697.167 380.5,732.5C 332.5,732.5 284.5,732.5 236.5,732.5C 236.5,697.167 236.5,661.833 236.5,626.5 Z"/></g>
<g><path style="opacity:1" fill="#fefefe" d="M 382.5,626.5 C 429.167,626.5 475.833,626.5 522.5,626.5C 522.5,661.833 522.5,697.167 522.5,732.5C 475.833,732.5 429.167,732.5 382.5,732.5C 382.5,697.167 382.5,661.833 382.5,626.5 Z"/></g>
<g><path style="opacity:1" fill="#cad4ff" d="M 522.5,410.5 C 523.167,410.5 523.833,410.5 524.5,410.5C 524.5,445.833 524.5,481.167 524.5,516.5C 571.833,516.5 619.167,516.5 666.5,516.5C 666.5,517.167 666.5,517.833 666.5,518.5C 619.167,518.5 571.833,518.5 524.5,518.5C 524.5,553.833 524.5,589.167 524.5,624.5C 571.833,624.5 619.167,624.5 666.5,624.5C 666.5,625.167 666.5,625.833 666.5,626.5C 619.167,626.5 571.833,626.5 524.5,626.5C 524.5,661.833 524.5,697.167 524.5,732.5C 571.833,732.5 619.167,732.5 666.5,732.5C 666.5,733.167 666.5,733.833 666.5,734.5C 619.167,734.5 571.833,734.5 524.5,734.5C 524.5,769.833 524.5,805.167 524.5,840.5C 571.833,840.5 619.167,840.5 666.5,840.5C 666.5,840.833 666.5,841.167 666.5,841.5C 571.833,841.5 477.167,841.5 382.5,841.5C 382.5,841.167 382.5,840.833 382.5,840.5C 429.167,840.5 475.833,840.5 522.5,840.5C 522.5,805.167 522.5,769.833 522.5,734.5C 475.833,734.5 429.167,734.5 382.5,734.5C 382.5,733.833 382.5,733.167 382.5,732.5C 429.167,732.5 475.833,732.5 522.5,732.5C 522.5,697.167 522.5,661.833 522.5,626.5C 475.833,626.5 429.167,626.5 382.5,626.5C 382.5,625.833 382.5,625.167 382.5,624.5C 429.167,624.5 475.833,624.5 522.5,624.5C 522.5,589.167 522.5,553.833 522.5,518.5C 475.833,518.5 429.167,518.5 382.5,518.5C 382.5,517.833 382.5,517.167 382.5,516.5C 429.167,516.5 475.833,516.5 522.5,516.5C 522.5,481.167 522.5,445.833 522.5,410.5 Z"/></g>
<g><path style="opacity:1" fill="#fefefe" d="M 666.5,626.5 C 666.5,661.833 666.5,697.167 666.5,732.5C 619.167,732.5 571.833,732.5 524.5,732.5C 524.5,697.167 524.5,661.833 524.5,626.5C 571.833,626.5 619.167,626.5 666.5,626.5 Z"/></g>
<g><path style="opacity:1" fill="#b1bffe" d="M 666.5,301.5 C 666.833,301.5 667.167,301.5 667.5,301.5C 819.334,301.167 971.001,301.5 1122.5,302.5C 1122.17,302.5 1121.83,302.5 1121.5,302.5C 970.5,302.5 819.5,302.5 668.5,302.5C 667.502,337.996 667.168,373.663 667.5,409.5C 819.167,409.5 970.833,409.5 1122.5,409.5C 1122.5,553.5 1122.5,697.5 1122.5,841.5C 970.5,841.5 818.5,841.5 666.5,841.5C 666.5,841.167 666.5,840.833 666.5,840.5C 666.5,805.167 666.5,769.833 666.5,734.5C 666.5,733.833 666.5,733.167 666.5,732.5C 666.5,697.167 666.5,661.833 666.5,626.5C 666.5,625.833 666.5,625.167 666.5,624.5C 666.5,589.167 666.5,553.833 666.5,518.5C 666.5,517.833 666.5,517.167 666.5,516.5C 666.5,481.167 666.5,445.833 666.5,410.5C 666.5,409.833 666.5,409.167 666.5,408.5C 666.5,373.167 666.5,337.833 666.5,302.5C 666.5,302.167 666.5,301.833 666.5,301.5 Z"/></g>
<g><path style="opacity:1" fill="#ccd5fe" d="M 667.5,518.5 C 818.833,518.5 970.167,518.5 1121.5,518.5C 1121.5,553.833 1121.5,589.167 1121.5,624.5C 970.167,624.5 818.833,624.5 667.5,624.5C 667.5,589.167 667.5,553.833 667.5,518.5 Z"/></g>
<g><path style="opacity:1" fill="#23242a" d="M 869.5,586.5 C 871.337,586.639 871.67,587.306 870.5,588.5C 864.179,591.168 863.845,590.501 869.5,586.5 Z"/></g>
<g><path style="opacity:1" fill="#767b93" d="M 948.5,585.5 C 951.898,585.18 955.232,585.513 958.5,586.5C 958.376,587.107 958.043,587.44 957.5,587.5C 954.5,586.833 951.5,586.167 948.5,585.5 Z"/></g>
<g><path style="opacity:1" fill="#191b1f" d="M 809.5,581.5 C 810.239,581.369 810.906,581.536 811.5,582C 809.61,583.873 807.61,584.706 805.5,584.5C 806.901,583.479 808.235,582.479 809.5,581.5 Z"/></g>
<g><path style="opacity:1" fill="#121315" d="M 978.5,577.5 C 980.476,578.427 980.809,579.76 979.5,581.5C 977.358,580.563 977.024,579.23 978.5,577.5 Z"/></g>
<g><path style="opacity:1" fill="#141417" d="M 942.5,577.5 C 941.881,582.206 943.881,584.873 948.5,585.5C 951.5,586.167 954.5,586.833 957.5,587.5C 951.74,590.788 946.573,590.121 942,585.5C 941.199,582.633 941.366,579.966 942.5,577.5 Z"/></g>
<g><path style="opacity:1" fill="#1b1c20" d="M 810.5,558.5 C 811.5,558.5 812.5,558.5 813.5,558.5C 813.869,564.513 814.036,570.513 814,576.5C 811.133,580.433 807.467,581.433 803,579.5C 802.21,576.366 802.543,573.366 804,570.5C 803.186,576.862 805.686,578.862 811.5,576.5C 811.833,575 812.167,573.5 812.5,572C 811.896,567.481 811.229,562.981 810.5,558.5 Z"/></g>
<g><path style="opacity:1" fill="#161619" d="M 885.5,559.5 C 886.978,559.238 888.311,559.571 889.5,560.5C 889.291,561.086 888.957,561.586 888.5,562C 884.512,562.576 880.845,563.909 877.5,566C 882.257,567.069 884.091,569.902 883,574.5C 879.757,576.263 876.257,576.929 872.5,576.5C 872.2,584.294 868.533,586.461 861.5,583C 868.866,582.824 871.866,579.324 870.5,572.5C 874.514,572.666 878.514,572.499 882.5,572C 880.5,571 878.5,570 876.5,569C 875.167,567.333 875.167,565.667 876.5,564C 879.592,562.454 882.592,560.954 885.5,559.5 Z"/></g>
<g><path style="opacity:1" fill="#1b1c20" d="M 844.5,558.5 C 845.117,558.611 845.617,558.944 846,559.5C 846.667,563.833 846.667,568.167 846,572.5C 844.155,576.795 841.488,577.462 838,574.5C 837.311,575.357 836.478,576.023 835.5,576.5C 833.689,575.264 831.856,575.264 830,576.5C 828.739,576.241 827.739,575.574 827,574.5C 822.905,577.637 820.238,576.637 819,571.5C 818.175,567.789 818.341,564.122 819.5,560.5C 820.491,564.445 820.824,568.445 820.5,572.5C 823.365,572.945 825.865,572.278 828,570.5C 829.916,573.033 831.916,573.033 834,570.5C 835.402,572.973 836.902,572.973 838.5,570.5C 840.179,572.104 842.179,572.771 844.5,572.5C 843.976,567.737 843.976,563.07 844.5,558.5 Z"/></g>
<g><path style="opacity:1" fill="#18191d" d="M 942.5,577.5 C 943.048,575.606 944.048,573.94 945.5,572.5C 943.73,571.18 943.397,569.68 944.5,568C 946.5,567.333 948.5,567.333 950.5,568C 951.727,569.587 951.394,570.921 949.5,572C 954.494,573.226 958.994,572.393 963,569.5C 967.527,572.803 972.36,573.303 977.5,571C 975.5,570.167 973.5,569.333 971.5,568.5C 972,567.119 973,566.453 974.5,566.5C 978.693,568.066 983.026,568.732 987.5,568.5C 987.5,569.5 987.5,570.5 987.5,571.5C 984.813,571.336 982.146,571.503 979.5,572C 976.903,574.646 973.737,576.146 970,576.5C 967.953,575.455 965.953,575.455 964,576.5C 962.527,576.097 961.194,575.43 960,574.5C 955.535,577.408 951.368,577.075 947.5,573.5C 945.814,574.857 944.148,576.19 942.5,577.5 Z"/></g>
<g><path style="opacity:1" fill="#1a1b1f" d="M 921.5,558.5 C 922.117,558.611 922.617,558.944 923,559.5C 923.667,563.833 923.667,568.167 923,572.5C 922.535,573.931 921.701,575.097 920.5,576C 917.623,575.702 914.79,575.868 912,576.5C 910.715,576.05 909.548,575.383 908.5,574.5C 905.329,577.335 902.496,577.002 900,573.5C 896.749,577.249 893.916,577.249 891.5,573.5C 891.833,572.833 892.167,572.167 892.5,571.5C 898.566,573.932 900.566,572.098 898.5,566C 898.63,564.941 899.13,564.108 900,563.5C 901.107,566.225 901.941,569.059 902.5,572C 906.067,573.075 909.067,572.242 911.5,569.5C 914.361,571.98 917.694,572.98 921.5,572.5C 920.976,567.737 920.976,563.07 921.5,558.5 Z"/></g>
<g><path style="opacity:1" fill="#151619" d="M 850.5,560.5 C 852.389,563.678 853.389,567.344 853.5,571.5C 853.423,573.299 852.923,574.966 852,576.5C 851.316,571.178 850.816,565.844 850.5,560.5 Z"/></g>
<g><path style="opacity:1" fill="#1e1f23" d="M 927.5,560.5 C 929.35,563.514 930.35,567.014 930.5,571C 930.204,572.888 929.704,574.722 929,576.5C 928.17,571.192 927.67,565.859 927.5,560.5 Z"/></g>
<g><path style="opacity:1" fill="#1e1f24" d="M 909.5,557.5 C 910.5,557.5 911.5,557.5 912.5,557.5C 912.5,559.5 912.5,561.5 912.5,563.5C 910.488,564.014 908.488,564.18 906.5,564C 907.672,563.581 908.672,562.915 909.5,562C 908.272,560.51 908.272,559.01 909.5,557.5 Z"/></g>
<g><path style="opacity:1" fill="#5f6477" d="M 960.5,557.5 C 960.953,558.458 961.619,559.292 962.5,560C 961.263,560.232 960.263,560.732 959.5,561.5C 958.147,559.872 958.481,558.538 960.5,557.5 Z"/></g>
<g><path style="opacity:1" fill="#17181b" d="M 977.5,557.5 C 979.337,557.639 979.67,558.306 978.5,559.5C 976.922,560.64 975.256,561.14 973.5,561C 975.093,560.051 976.426,558.885 977.5,557.5 Z"/></g>
<g><path style="opacity:1" fill="#1e1f24" d="M 945.5,555.5 C 946.5,555.5 947.5,555.5 948.5,555.5C 948.5,557.5 948.5,559.5 948.5,561.5C 946.488,562.014 944.488,562.18 942.5,562C 943.672,561.581 944.672,560.915 945.5,560C 944.272,558.51 944.272,557.01 945.5,555.5 Z"/></g>
<g><path style="opacity:1" fill="#212227" d="M 833.5,555.5 C 834.451,556.919 834.784,558.585 834.5,560.5C 832.139,560.674 829.806,561.007 827.5,561.5C 827.238,560.022 827.571,558.689 828.5,557.5C 829.541,559.991 830.374,559.991 831,557.5C 832.813,558.609 833.646,557.942 833.5,555.5 Z"/></g>
<g><path style="opacity:1" fill="#151619" d="M 960.5,557.5 C 963.389,557.999 964.056,559.499 962.5,562C 961.251,562.74 960.251,562.573 959.5,561.5C 960.263,560.732 961.263,560.232 962.5,560C 961.619,559.292 960.953,558.458 960.5,557.5 Z"/></g>
<g><path style="opacity:1" fill="#18191d" d="M 898.5,557.5 C 902.337,558.203 902.503,559.536 899,561.5C 897.232,560.318 897.065,558.985 898.5,557.5 Z"/></g>
<g><path style="opacity:1" fill="#141518" d="M 878.5,554.5 C 879.397,555.598 880.23,555.598 881,554.5C 881.483,555.448 881.649,556.448 881.5,557.5C 879.401,558.231 877.401,558.231 875.5,557.5C 876.77,556.712 877.77,555.712 878.5,554.5 Z"/></g>
<g><path style="opacity:1" fill="#191a1e" d="M 832.5,551.5 C 834.337,551.639 834.67,552.306 833.5,553.5C 831.922,554.64 830.256,555.14 828.5,555C 830.093,554.051 831.426,552.885 832.5,551.5 Z"/></g>
<g><path style="opacity:1" fill="#17181b" d="M 897.5,550.5 C 899.337,550.639 899.67,551.306 898.5,552.5C 896.922,553.64 895.256,554.14 893.5,554C 895.093,553.051 896.426,551.885 897.5,550.5 Z"/></g>
<g><path style="opacity:1" fill="#1e1f24" d="M 880.5,548.5 C 881.043,548.56 881.376,548.893 881.5,549.5C 879.578,550.711 877.745,552.044 876,553.5C 875.333,552.833 875.333,552.167 876,551.5C 877.652,550.601 879.152,549.601 880.5,548.5 Z"/></g>
<g><path style="opacity:1" fill="#ccd5fe" d="M 667.5,410.5 C 818.833,410.5 970.167,410.5 1121.5,410.5C 1121.5,445.833 1121.5,481.167 1121.5,516.5C 970.167,516.5 818.833,516.5 667.5,516.5C 667.5,481.167 667.5,445.833 667.5,410.5 Z"/></g>
<g><path style="opacity:1" fill="#1e1f24" d="M 892.5,470.5 C 893.525,470.897 893.692,471.563 893,472.5C 891.129,474.065 889.296,474.731 887.5,474.5C 889.419,473.388 891.086,472.054 892.5,470.5 Z"/></g>
<g><path style="opacity:1" fill="#191a1e" d="M 879.5,470.5 C 881.785,471.546 884.118,471.546 886.5,470.5C 886.5,471.5 886.5,472.5 886.5,473.5C 884.227,472.265 882.394,472.598 881,474.5C 879.812,473.437 879.312,472.103 879.5,470.5 Z"/></g>
<g><path style="opacity:1" fill="#191a1e" d="M 910.5,450.5 C 911.922,450.75 912.922,451.583 913.5,453C 913.133,456.407 912.967,459.907 913,463.5C 912.293,465.081 911.46,466.581 910.5,468C 907.47,467.601 904.47,467.768 901.5,468.5C 899.971,468.471 898.804,467.804 898,466.5C 895.602,469.054 893.269,469.054 891,466.5C 890.044,467.894 888.711,468.561 887,468.5C 884.333,467.167 881.667,467.167 879,468.5C 877.11,468.215 875.777,467.215 875,465.5C 873.301,466.406 871.467,466.739 869.5,466.5C 869.351,465.448 869.517,464.448 870,463.5C 872.413,461.591 874.247,459.257 875.5,456.5C 876.214,459.027 876.88,461.527 877.5,464C 888.762,464.478 900.095,464.644 911.5,464.5C 910.873,459.859 910.54,455.193 910.5,450.5 Z"/></g>
<g><path style="opacity:1" fill="#191a1d" d="M 894.5,457.5 C 899.266,457.328 903.932,457.661 908.5,458.5C 907.597,460.62 906.263,460.954 904.5,459.5C 903.808,460.025 903.308,460.692 903,461.5C 900.396,460.006 897.729,459.673 895,460.5C 893.317,459.824 893.15,458.824 894.5,457.5 Z"/></g>
<g><path style="opacity:1" fill="#1c1c21" d="M 888.5,457.5 C 893.833,458.5 893.833,459.5 888.5,460.5C 888.5,459.5 888.5,458.5 888.5,457.5 Z"/></g>
<g><path style="opacity:1" fill="#1c1d22" d="M 884.5,453.5 C 885.239,453.369 885.906,453.536 886.5,454C 884.61,455.873 882.61,456.706 880.5,456.5C 881.901,455.479 883.235,454.479 884.5,453.5 Z"/></g>
<g><path style="opacity:1" fill="#1d1d22" d="M 917.5,452.5 C 918.809,454.571 919.475,457.071 919.5,460C 919.333,462.5 919.167,465 919,467.5C 917.593,462.45 917.093,457.45 917.5,452.5 Z"/></g>
<g><path style="opacity:1" fill="#191a1e" d="M 896.5,452.5 C 899.14,453.794 899.14,455.127 896.5,456.5C 895.374,455.192 895.374,453.858 896.5,452.5 Z"/></g>
<g><path style="opacity:1" fill="#212228" d="M 871.5,451.5 C 873.858,452.114 876.192,452.447 878.5,452.5C 876.548,453.544 874.548,454.544 872.5,455.5C 870.358,454.563 870.024,453.23 871.5,451.5 Z"/></g>
<g><path style="opacity:1" fill="#23242a" d="M 905.5,444.5 C 907.344,445.204 907.844,446.537 907,448.5C 904.993,449.669 902.827,450.335 900.5,450.5C 900.343,449.127 900.51,447.793 901,446.5C 902.16,448.797 903.16,448.464 904,445.5C 905.087,447.932 905.587,447.598 905.5,444.5 Z"/></g>
<g><path style="opacity:1" fill="#5f6477" d="M 895.5,442.5 C 895.953,443.458 896.619,444.292 897.5,445C 896.263,445.232 895.263,445.732 894.5,446.5C 893.147,444.872 893.481,443.538 895.5,442.5 Z"/></g>
<g><path style="opacity:1" fill="#24252b" d="M 905.5,440.5 C 906.525,440.897 906.692,441.563 906,442.5C 904.333,443.5 902.667,444.5 901,445.5C 900.333,444.833 900.333,444.167 901,443.5C 902.652,442.601 904.152,441.601 905.5,440.5 Z"/></g>
<g><path style="opacity:1" fill="#151619" d="M 895.5,442.5 C 898.389,442.999 899.056,444.499 897.5,447C 896.251,447.74 895.251,447.573 894.5,446.5C 895.263,445.732 896.263,445.232 897.5,445C 896.619,444.292 895.953,443.458 895.5,442.5 Z"/></g>
<g><path style="opacity:1" fill="#1e1f24" d="M 871.5,439.5 C 872.5,439.5 873.5,439.5 874.5,439.5C 874.5,441.5 874.5,443.5 874.5,445.5C 872.488,446.014 870.488,446.18 868.5,446C 869.672,445.581 870.672,444.915 871.5,444C 870.272,442.51 870.272,441.01 871.5,439.5 Z"/></g>
<g><path style="opacity:1" fill="#ccd5fe" d="M 667.5,626.5 C 818.833,626.5 970.167,626.5 1121.5,626.5C 1121.5,661.833 1121.5,697.167 1121.5,732.5C 970.167,732.5 818.833,732.5 667.5,732.5C 667.5,697.167 667.5,661.833 667.5,626.5 Z"/></g>
<g><path style="opacity:1" fill="#2a2b33" d="M 953.5,652.5 C 954.773,653.077 954.773,653.743 953.5,654.5C 951.76,656.211 949.76,657.044 947.5,657C 949.389,655.236 951.389,653.736 953.5,652.5 Z"/></g>
<g><path style="opacity:1" fill="#1e1f24" d="M 819.5,655.5 C 820.5,655.5 821.5,655.5 822.5,655.5C 822.5,657.5 822.5,659.5 822.5,661.5C 820.488,662.014 818.488,662.18 816.5,662C 817.672,661.581 818.672,660.915 819.5,660C 818.272,658.51 818.272,657.01 819.5,655.5 Z"/></g>
<g><path style="opacity:1" fill="#26272d" d="M 950.5,657.5 C 953.718,657.651 954.051,658.484 951.5,660C 952.167,660.333 952.833,660.667 953.5,661C 948.471,664.16 947.471,662.994 950.5,657.5 Z"/></g>
<g><path style="opacity:1" fill="#222222" d="M 468.5,659.5 C 472.456,660.053 472.456,660.886 468.5,662C 472.188,663.381 471.855,664.548 467.5,665.5C 467.436,664.635 467.103,663.635 466.5,662.5C 467.193,661.482 467.859,660.482 468.5,659.5 Z"/></g>
<g><path style="opacity:1" fill="#232429" d="M 868.5,660.5 C 869.239,660.369 869.906,660.536 870.5,661C 868.86,663.339 866.86,664.172 864.5,663.5C 865.901,662.479 867.235,661.479 868.5,660.5 Z"/></g>
<g><path style="opacity:1" fill="#151619" d="M 850.5,665.5 C 853.389,665.999 854.056,667.499 852.5,670C 851.251,670.74 850.251,670.573 849.5,669.5C 850.263,668.732 851.263,668.232 852.5,668C 851.619,667.292 850.953,666.458 850.5,665.5 Z"/></g>
<g><path style="opacity:1" fill="#17181b" d="M 963.5,665.5 C 964.478,665.811 965.145,666.478 965.5,667.5C 964.071,672.549 963.237,677.549 963,682.5C 960.894,684.291 958.394,684.958 955.5,684.5C 955.5,683.167 955.5,681.833 955.5,680.5C 957.665,680.884 959.332,680.217 960.5,678.5C 958.672,674.166 955.505,671.499 951,670.5C 950.51,669.207 950.343,667.873 950.5,666.5C 951.552,666.351 952.552,666.517 953.5,667C 956.685,669.884 959.518,673.051 962,676.5C 962.24,672.748 962.74,669.081 963.5,665.5 Z"/></g>
<g><path style="opacity:1" fill="#181818" d="M 453.5,667.5 C 455.355,667.272 456.188,667.939 456,669.5C 453.366,670.692 452.532,670.026 453.5,667.5 Z"/></g>
<g><path style="opacity:1" fill="#17181b" d="M 836.5,666.5 C 838.337,666.639 838.67,667.306 837.5,668.5C 835.922,669.64 834.256,670.14 832.5,670C 834.093,669.051 835.426,667.885 836.5,666.5 Z"/></g>
<g><path style="opacity:1" fill="#5f6477" d="M 850.5,665.5 C 850.953,666.458 851.619,667.292 852.5,668C 851.263,668.232 850.263,668.732 849.5,669.5C 848.147,667.872 848.481,666.538 850.5,665.5 Z"/></g>
<g><path style="opacity:1" fill="#1e1f23" d="M 819.5,667.5 C 821.205,668.535 822.872,668.535 824.5,667.5C 824.833,668 825.167,668.5 825.5,669C 823.741,669.267 822.075,670.1 820.5,671.5C 818.358,670.563 818.024,669.23 819.5,667.5 Z"/></g>
<g><path style="opacity:1" fill="#18191d" d="M 902.5,665.5 C 903.5,665.5 904.5,665.5 905.5,665.5C 905.5,667.5 905.5,669.5 905.5,671.5C 903.488,672.014 901.488,672.18 899.5,672C 900.672,671.581 901.672,670.915 902.5,670C 901.272,668.51 901.272,667.01 902.5,665.5 Z"/></g>
<g><path style="opacity:1" fill="#343741" d="M 938.5,665.5 C 942.161,665.35 943.161,666.85 941.5,670C 940.207,670.49 938.873,670.657 937.5,670.5C 937.366,668.708 937.699,667.042 938.5,665.5 Z"/></g>
<g><path style="opacity:1" fill="#222222" d="M 468.5,668.5 C 469.809,670.571 470.475,673.071 470.5,676C 470.333,678.5 470.167,681 470,683.5C 468.593,678.45 468.093,673.45 468.5,668.5 Z"/></g>
<g><path style="opacity:1" fill="#232323" d="M 594.5,668.5 C 596.35,671.514 597.35,675.014 597.5,679C 597.204,680.888 596.704,682.722 596,684.5C 595.17,679.192 594.67,673.859 594.5,668.5 Z"/></g>
<g><path style="opacity:1" fill="#111215" d="M 868.5,668.5 C 870.476,669.427 870.809,670.76 869.5,672.5C 867.358,671.563 867.024,670.23 868.5,668.5 Z"/></g>
<g><path style="opacity:1" fill="#1d1d22" d="M 887.5,668.5 C 888.809,670.571 889.475,673.071 889.5,676C 889.333,678.5 889.167,681 889,683.5C 887.593,678.45 887.093,673.45 887.5,668.5 Z"/></g>
<g><path style="opacity:1" fill="#18191d" d="M 925.5,668.5 C 926.773,669.077 926.773,669.743 925.5,670.5C 923.922,671.64 922.256,672.14 920.5,672C 922.233,670.811 923.9,669.644 925.5,668.5 Z"/></g>
<g><path style="opacity:1" fill="#1d1d22" d="M 969.5,668.5 C 970.809,670.571 971.475,673.071 971.5,676C 971.333,678.5 971.167,681 971,683.5C 969.593,678.45 969.093,673.45 969.5,668.5 Z"/></g>
<g><path style="opacity:1" fill="#1e1e1e" d="M 604.5,675.5 C 606.017,675.511 607.184,676.177 608,677.5C 610.051,684.235 608.051,689.235 602,692.5C 596.09,690.145 596.59,688.978 603.5,689C 605.607,687.736 606.607,685.903 606.5,683.5C 605.178,683.67 604.011,683.337 603,682.5C 602.391,679.935 602.891,677.601 604.5,675.5 Z"/></g>
<g><path style="opacity:1" fill="#1c1c1c" d="M 587.5,675.5 C 589.017,675.511 590.184,676.177 591,677.5C 592.305,683.933 590.305,688.933 585,692.5C 583.274,692.054 581.774,691.221 580.5,690C 582.952,689.71 585.285,689.044 587.5,688C 589.037,686.89 589.703,685.39 589.5,683.5C 588.178,683.67 587.011,683.337 586,682.5C 585.391,679.935 585.891,677.601 587.5,675.5 Z"/></g>
<g><path style="opacity:1" fill="#0d0d0d" d="M 152.5,677.5 C 155.247,677.187 157.914,677.52 160.5,678.5C 159.167,678.833 157.833,679.167 156.5,679.5C 154.667,679.415 153.334,678.748 152.5,677.5 Z"/></g>
<g><path style="opacity:1" fill="#191919" d="M 461.5,666.5 C 462.922,666.75 463.922,667.583 464.5,669C 464.133,672.407 463.967,675.907 464,679.5C 462.448,684.412 459.282,685.745 454.5,683.5C 449.14,686.276 443.474,687.11 437.5,686C 434.92,684.519 434.087,682.352 435,679.5C 435.423,678.044 436.256,677.544 437.5,678C 436.009,680.022 436.342,681.688 438.5,683C 442.866,683.886 447.033,683.386 451,681.5C 451.333,679.833 451.667,678.167 452,676.5C 452.879,673.654 454.546,672.987 457,674.5C 457.495,676.473 457.662,678.473 457.5,680.5C 459.167,680.5 460.833,680.5 462.5,680.5C 461.873,675.859 461.54,671.193 461.5,666.5 Z"/></g>
<g><path style="opacity:1" fill="#e1e1e1" d="M 453.5,676.5 C 456.674,676.952 457.007,677.952 454.5,679.5C 452.481,678.867 452.147,677.867 453.5,676.5 Z"/></g>
<g><path style="opacity:1" fill="#191a1d" d="M 881.5,666.5 C 882.117,666.611 882.617,666.944 883,667.5C 883.667,671.833 883.667,676.167 883,680.5C 882.535,681.931 881.701,683.097 880.5,684C 877.833,684.667 875.167,684.667 872.5,684C 871.91,682.491 871.244,680.991 870.5,679.5C 867.322,681.839 863.822,683.506 860,684.5C 857.953,683.455 855.953,683.455 854,684.5C 852.527,684.097 851.194,683.43 850,682.5C 847.253,685.034 844.587,685.034 842,682.5C 841.311,683.357 840.478,684.023 839.5,684.5C 837.689,683.264 835.856,683.264 834,684.5C 832.739,684.241 831.739,683.574 831,682.5C 827.844,685.399 825.178,685.065 823,681.5C 821.301,682.406 819.467,682.739 817.5,682.5C 817.491,680.692 817.991,679.025 819,677.5C 821,676.833 822.333,675.5 823,673.5C 824.352,675.594 824.852,677.927 824.5,680.5C 827.365,680.945 829.865,680.278 832,678.5C 833.916,681.033 835.916,681.033 838,678.5C 839.402,680.973 840.902,680.973 842.5,678.5C 843.623,679.544 844.956,680.21 846.5,680.5C 848.981,680.187 851.147,679.187 853,677.5C 857.46,680.847 862.293,681.347 867.5,679C 865.045,677.623 862.712,677.123 860.5,677.5C 861.27,675.728 862.603,674.728 864.5,674.5C 868.655,676.185 872.988,676.851 877.5,676.5C 877.5,677.5 877.5,678.5 877.5,679.5C 875.801,679.34 874.134,679.506 872.5,680C 875.482,680.498 878.482,680.665 881.5,680.5C 880.976,675.737 880.976,671.07 881.5,666.5 Z"/></g>
<g><path style="opacity:1" fill="#afb6d9" d="M 820.5,677.5 C 821.376,677.369 822.043,677.702 822.5,678.5C 820.192,679.873 819.525,679.54 820.5,677.5 Z"/></g>
<g><path style="opacity:1" fill="#161616" d="M 299.5,676.5 C 301.346,676.222 302.68,676.889 303.5,678.5C 301.833,679.167 300.167,679.833 298.5,680.5C 300.797,682.319 303.131,682.985 305.5,682.5C 303.206,684.653 300.54,686.32 297.5,687.5C 297.167,687.167 296.833,686.833 296.5,686.5C 298.922,684.952 298.922,683.286 296.5,681.5C 297.26,679.64 298.26,677.973 299.5,676.5 Z"/></g>
<g><path style="opacity:1" fill="#1b1b1b" d="M 309.5,668.5 C 311.423,672.029 312.089,676.029 311.5,680.5C 313.924,680.808 316.257,680.474 318.5,679.5C 316.152,678.14 315.985,676.473 318,674.5C 321.559,681.682 319.392,684.849 311.5,684C 311,683.5 310.5,683 310,682.5C 309.111,677.746 308.945,673.08 309.5,668.5 Z"/></g>
<g><path style="opacity:1" fill="#141518" d="M 903.5,676.5 C 904.833,676.5 906.167,676.5 907.5,676.5C 907.5,677.5 907.5,678.5 907.5,679.5C 901.552,679.626 901.219,680.626 906.5,682.5C 907.442,682.392 908.275,682.059 909,681.5C 909.667,682.167 909.667,682.833 909,683.5C 906.301,685.634 903.467,686.634 900.5,686.5C 902.922,684.952 902.922,683.286 900.5,681.5C 901.26,679.64 902.26,677.973 903.5,676.5 Z"/></g>
<g><path style="opacity:1" fill="#1a1a1e" d="M 913.5,668.5 C 915.423,672.029 916.089,676.029 915.5,680.5C 919.21,681.028 922.377,680.028 925,677.5C 926.928,679.424 929.262,680.424 932,680.5C 935.154,679.51 938.321,679.343 941.5,680C 942.603,677.031 943.936,676.864 945.5,679.5C 946.298,677.922 946.798,676.256 947,674.5C 949.151,677.915 948.651,680.915 945.5,683.5C 944.5,682.833 943.5,682.167 942.5,681.5C 940.74,684.926 938.574,685.259 936,682.5C 935.044,683.894 933.711,684.561 932,684.5C 929.953,683.455 927.953,683.455 926,684.5C 924.527,684.097 923.194,683.43 922,682.5C 919.333,685.167 916.667,685.167 914,682.5C 913.111,677.746 912.945,673.08 913.5,668.5 Z"/></g>
<g><path style="opacity:1" fill="#181818" d="M 314.5,686.5 C 316.388,687.275 318.388,687.275 320.5,686.5C 320.719,687.675 320.386,688.675 319.5,689.5C 318.033,688.305 316.533,688.305 315,689.5C 313.317,688.824 313.15,687.824 314.5,686.5 Z"/></g>
<g><path style="opacity:1" fill="#fefefe" d="M 235.5,734.5 C 235.5,769.833 235.5,805.167 235.5,840.5C 182.833,840.5 130.167,840.5 77.5,840.5C 77.5,805.167 77.5,769.833 77.5,734.5C 130.167,734.5 182.833,734.5 235.5,734.5 Z"/></g>
<g><path style="opacity:1" fill="#fefefe" d="M 236.5,734.5 C 284.5,734.5 332.5,734.5 380.5,734.5C 380.5,769.833 380.5,805.167 380.5,840.5C 332.5,840.5 284.5,840.5 236.5,840.5C 236.5,805.167 236.5,769.833 236.5,734.5 Z"/></g>
<g><path style="opacity:1" fill="#fefefe" d="M 382.5,734.5 C 429.167,734.5 475.833,734.5 522.5,734.5C 522.5,769.833 522.5,805.167 522.5,840.5C 475.833,840.5 429.167,840.5 382.5,840.5C 382.5,805.167 382.5,769.833 382.5,734.5 Z"/></g>
<g><path style="opacity:1" fill="#fefefe" d="M 666.5,734.5 C 666.5,769.833 666.5,805.167 666.5,840.5C 619.167,840.5 571.833,840.5 524.5,840.5C 524.5,805.167 524.5,769.833 524.5,734.5C 571.833,734.5 619.167,734.5 666.5,734.5 Z"/></g>
<g><path style="opacity:1" fill="#ccd5fe" d="M 667.5,734.5 C 818.833,734.5 970.167,734.5 1121.5,734.5C 1121.5,769.833 1121.5,805.167 1121.5,840.5C 970.167,840.5 818.833,840.5 667.5,840.5C 667.5,805.167 667.5,769.833 667.5,734.5 Z"/></g>
<g><path style="opacity:1" fill="#2a2b33" d="M 949.5,760.5 C 950.773,761.077 950.773,761.743 949.5,762.5C 947.76,764.211 945.76,765.044 943.5,765C 945.389,763.236 947.389,761.736 949.5,760.5 Z"/></g>
<g><path style="opacity:1" fill="#18191d" d="M 823.5,763.5 C 824.5,763.5 825.5,763.5 826.5,763.5C 826.5,765.5 826.5,767.5 826.5,769.5C 824.488,770.014 822.488,770.18 820.5,770C 821.672,769.581 822.672,768.915 823.5,768C 822.272,766.51 822.272,765.01 823.5,763.5 Z"/></g>
<g><path style="opacity:1" fill="#343741" d="M 938.5,763.5 C 942.161,763.35 943.161,764.85 941.5,768C 940.207,768.49 938.873,768.657 937.5,768.5C 937.366,766.708 937.699,765.042 938.5,763.5 Z"/></g>
<g><path style="opacity:1" fill="#26272d" d="M 946.5,765.5 C 949.718,765.651 950.051,766.484 947.5,768C 948.167,768.333 948.833,768.667 949.5,769C 944.471,772.16 943.471,770.994 946.5,765.5 Z"/></g>
<g><path style="opacity:1" fill="#1c1d22" d="M 872.5,768.5 C 873.239,768.369 873.906,768.536 874.5,769C 872.61,770.873 870.61,771.706 868.5,771.5C 869.901,770.479 871.235,769.479 872.5,768.5 Z"/></g>
<g><path style="opacity:1" fill="#18191d" d="M 909.5,767.5 C 910.5,767.5 911.5,767.5 912.5,767.5C 912.5,769.5 912.5,771.5 912.5,773.5C 910.488,774.014 908.488,774.18 906.5,774C 907.672,773.581 908.672,772.915 909.5,772C 908.272,770.51 908.272,769.01 909.5,767.5 Z"/></g>
<g><path style="opacity:1" fill="#141414" d="M 167.5,770.5 C 169.476,771.427 169.809,772.76 168.5,774.5C 166.358,773.563 166.024,772.23 167.5,770.5 Z"/></g>
<g><path style="opacity:1" fill="#242424" d="M 463.5,770.5 C 466.861,771.203 467.194,772.537 464.5,774.5C 462.358,773.563 462.024,772.23 463.5,770.5 Z"/></g>
<g><path style="opacity:1" fill="#151515" d="M 181.5,773.5 C 184.569,773.963 185.069,775.296 183,777.5C 181.812,776.437 181.312,775.103 181.5,773.5 Z"/></g>
<g><path style="opacity:1" fill="#151619" d="M 854.5,773.5 C 857.389,773.999 858.056,775.499 856.5,778C 855.251,778.74 854.251,778.573 853.5,777.5C 854.263,776.732 855.263,776.232 856.5,776C 855.619,775.292 854.953,774.458 854.5,773.5 Z"/></g>
<g><path style="opacity:1" fill="#1f1f1f" d="M 478.5,773.5 C 482.029,774.03 482.362,775.363 479.5,777.5C 477.358,776.563 477.024,775.23 478.5,773.5 Z"/></g>
<g><path style="opacity:1" fill="#151619" d="M 939.5,774.5 C 940.5,774.5 941.5,774.5 942.5,774.5C 942.5,775.5 942.5,776.5 942.5,777.5C 941.5,777.5 940.5,777.5 939.5,777.5C 939.5,776.5 939.5,775.5 939.5,774.5 Z"/></g>
<g><path style="opacity:1" fill="#1b1c21" d="M 959.5,773.5 C 960.478,773.811 961.145,774.478 961.5,775.5C 960.436,780.445 959.603,785.445 959,790.5C 956.894,792.291 954.394,792.958 951.5,792.5C 951.5,791.167 951.5,789.833 951.5,788.5C 953.665,788.884 955.332,788.217 956.5,786.5C 954.672,782.166 951.505,779.499 947,778.5C 946.51,777.207 946.343,775.873 946.5,774.5C 947.552,774.351 948.552,774.517 949.5,775C 952.685,777.884 955.518,781.051 958,784.5C 958.24,780.748 958.74,777.081 959.5,773.5 Z"/></g>
<g><path style="opacity:1" fill="#17181b" d="M 840.5,774.5 C 842.337,774.639 842.67,775.306 841.5,776.5C 839.922,777.64 838.256,778.14 836.5,778C 838.093,777.051 839.426,775.885 840.5,774.5 Z"/></g>
<g><path style="opacity:1" fill="#5f6477" d="M 854.5,773.5 C 854.953,774.458 855.619,775.292 856.5,776C 855.263,776.232 854.263,776.732 853.5,777.5C 852.147,775.872 852.481,774.538 854.5,773.5 Z"/></g>
<g><path style="opacity:1" fill="#1e1e1e" d="M 135.5,775.5 C 137.104,776.287 137.771,777.62 137.5,779.5C 136.5,779.5 135.5,779.5 134.5,779.5C 134.433,778.041 134.766,776.708 135.5,775.5 Z"/></g>
<g><path style="opacity:1" fill="#141414" d="M 431.5,776.5 C 433.355,776.272 434.188,776.939 434,778.5C 431.366,779.692 430.532,779.026 431.5,776.5 Z"/></g>
<g><path style="opacity:1" fill="#1e1e1e" d="M 608.5,775.5 C 610.104,776.287 610.771,777.62 610.5,779.5C 609.5,779.5 608.5,779.5 607.5,779.5C 607.433,778.041 607.766,776.708 608.5,775.5 Z"/></g>
<g><path style="opacity:1" fill="#1e1f23" d="M 823.5,775.5 C 825.205,776.535 826.872,776.535 828.5,775.5C 828.833,776 829.167,776.5 829.5,777C 827.741,777.267 826.075,778.1 824.5,779.5C 822.358,778.563 822.024,777.23 823.5,775.5 Z"/></g>
<g><path style="opacity:1" fill="#232429" d="M 932.5,774.5 C 933.239,774.369 933.906,774.536 934.5,775C 932.86,777.339 930.86,778.172 928.5,777.5C 929.901,776.479 931.235,775.479 932.5,774.5 Z"/></g>
<g><path style="opacity:1" fill="#202020" d="M 464.5,776.5 C 467.95,777.737 468.95,780.07 467.5,783.5C 465.929,784.309 464.262,784.643 462.5,784.5C 462.283,781.579 462.949,778.913 464.5,776.5 Z"/></g>
<g><path style="opacity:1" fill="#111215" d="M 872.5,776.5 C 874.476,777.427 874.809,778.76 873.5,780.5C 871.358,779.563 871.024,778.23 872.5,776.5 Z"/></g>
<g><path style="opacity:1" fill="#1d1d22" d="M 891.5,776.5 C 892.809,778.571 893.475,781.071 893.5,784C 893.333,786.5 893.167,789 893,791.5C 891.593,786.45 891.093,781.45 891.5,776.5 Z"/></g>
<g><path style="opacity:1" fill="#1e1f23" d="M 965.5,776.5 C 967.35,779.514 968.35,783.014 968.5,787C 968.204,788.888 967.704,790.722 967,792.5C 966.17,787.192 965.67,781.859 965.5,776.5 Z"/></g>
<g><path style="opacity:1" fill="#161616" d="M 111.5,779.5 C 113.476,780.427 113.809,781.76 112.5,783.5C 110.358,782.563 110.024,781.23 111.5,779.5 Z"/></g>
<g><path style="opacity:1" fill="#1a1a1a" d="M 183.5,779.5 C 184.563,782.217 185.563,785.051 186.5,788C 189.167,788.667 191.833,788.667 194.5,788C 195.833,787.333 195.833,786.667 194.5,786C 192.744,785.798 191.078,785.298 189.5,784.5C 190.171,783.054 191.338,782.388 193,782.5C 196.998,784.105 201.165,784.771 205.5,784.5C 205.5,785.5 205.5,786.5 205.5,787.5C 202.813,787.336 200.146,787.503 197.5,788C 195.047,790.543 192.047,792.043 188.5,792.5C 186.234,792.069 184.734,790.736 184,788.5C 182.456,791.689 179.956,792.855 176.5,792C 175.253,790.506 175.253,789.006 176.5,787.5C 178.702,788.78 180.868,788.78 183,787.5C 182.777,784.743 182.944,782.076 183.5,779.5 Z"/></g>
<g><path style="opacity:1" fill="#222222" d="M 407.5,779.5 C 410.861,780.203 411.194,781.537 408.5,783.5C 406.3,782.675 405.966,781.342 407.5,779.5 Z"/></g>
<g><path style="opacity:1" fill="#161616" d="M 584.5,779.5 C 586.476,780.427 586.809,781.76 585.5,783.5C 583.358,782.563 583.024,781.23 584.5,779.5 Z"/></g>
<g><path style="opacity:1" fill="#121215" d="M 935.5,788.5 C 938.686,789.97 941.686,789.47 944.5,787C 942.893,787.019 941.226,787.185 939.5,787.5C 938.25,784.578 938.917,781.911 941.5,779.5C 945.837,782.685 946.503,786.518 943.5,791C 938.867,793.607 935.033,792.774 932,788.5C 927.863,794.121 924.53,793.788 922,787.5C 921.175,783.789 921.341,780.122 922.5,776.5C 923.491,780.445 923.824,784.445 923.5,788.5C 925.857,788.663 928.19,788.497 930.5,788C 926.854,785.867 927.354,784.367 932,783.5C 935.749,784.077 936.249,785.577 933.5,788C 934.094,788.464 934.761,788.631 935.5,788.5 Z"/></g>
<g><path style="opacity:1" fill="#1c1c1c" d="M 432.5,782.5 C 435.312,785.839 434.979,789.005 431.5,792C 427.212,792.056 424.712,794.223 424,798.5C 421.35,801.217 418.85,801.051 416.5,798C 419.613,798.053 422.113,796.886 424,794.5C 423.287,792.953 422.454,791.286 421.5,789.5C 421.76,787.813 422.427,786.313 423.5,785C 425.934,784.667 426.934,785.834 426.5,788.5C 428.857,788.663 431.19,788.497 433.5,788C 431.365,786.444 431.032,784.611 432.5,782.5 Z"/></g>
<g><path style="opacity:1" fill="#1f1f1f" d="M 168.5,776.5 C 173.013,779.909 173.68,784.076 170.5,789C 164.847,792.098 158.847,793.098 152.5,792C 148.684,789.067 148.517,785.901 152,782.5C 151.49,784.38 151.657,786.213 152.5,788C 158.78,789.051 164.78,788.218 170.5,785.5C 171.583,784.635 171.749,783.635 171,782.5C 168.778,785.303 166.945,785.137 165.5,782C 166.124,779.915 167.124,778.082 168.5,776.5 Z"/></g>
<g><path style="opacity:1" fill="#0a0a0a" d="M 304.5,785.5 C 307.247,785.187 309.914,785.52 312.5,786.5C 311.167,786.833 309.833,787.167 308.5,787.5C 306.667,787.415 305.334,786.748 304.5,785.5 Z"/></g>
<g><path style="opacity:1" fill="#171717" d="M 467.5,784.5 C 468.799,786.153 468.466,787.653 466.5,789C 461.152,791.803 455.486,792.803 449.5,792C 446.92,790.519 446.087,788.352 447,785.5C 447.374,786.416 447.874,787.25 448.5,788C 452.5,788.667 456.5,788.667 460.5,788C 463.281,787.478 465.615,786.311 467.5,784.5 Z"/></g>
<g><path style="opacity:1" fill="#18181c" d="M 884.5,774.5 C 885.922,774.75 886.922,775.583 887.5,777C 887.133,780.407 886.967,783.907 887,787.5C 885.133,792.294 881.633,793.794 876.5,792C 875.91,790.491 875.244,788.991 874.5,787.5C 871.322,789.839 867.822,791.506 864,792.5C 861.953,791.455 859.953,791.455 858,792.5C 856.527,792.097 855.194,791.43 854,790.5C 851.253,793.034 848.587,793.034 846,790.5C 844.333,791.833 842.667,791.833 841,790.5C 839,793.167 837,793.167 835,790.5C 831.844,793.399 829.178,793.065 827,789.5C 825.301,790.406 823.467,790.739 821.5,790.5C 821.491,788.692 821.991,787.025 823,785.5C 825,784.833 826.333,783.5 827,781.5C 828.352,783.594 828.852,785.927 828.5,788.5C 831.365,788.945 833.865,788.278 836,786.5C 837.916,789.033 839.916,789.033 842,786.5C 843.333,789.167 844.667,789.167 846,786.5C 847.126,787.944 848.626,788.61 850.5,788.5C 852.981,788.187 855.147,787.187 857,785.5C 861.46,788.847 866.293,789.347 871.5,787C 869.045,785.623 866.712,785.123 864.5,785.5C 865.27,783.728 866.603,782.728 868.5,782.5C 872.655,784.185 876.988,784.851 881.5,784.5C 881.5,785.5 881.5,786.5 881.5,787.5C 879.801,787.34 878.134,787.506 876.5,788C 879.482,788.498 882.482,788.665 885.5,788.5C 884.873,783.859 884.54,779.193 884.5,774.5 Z"/></g>
<g><path style="opacity:1" fill="#afb6d9" d="M 824.5,785.5 C 825.376,785.369 826.043,785.702 826.5,786.5C 824.192,787.873 823.525,787.54 824.5,785.5 Z"/></g>
<g><path style="opacity:1" fill="#1d1d1d" d="M 135.5,782.5 C 138.814,784.446 139.314,787.113 137,790.5C 134.772,792.113 132.272,792.78 129.5,792.5C 128.623,799.62 125.29,801.453 119.5,798C 123.349,798.076 126.349,796.576 128.5,793.5C 123.549,791.04 123.383,788.04 128,784.5C 129.24,786.645 131.074,787.978 133.5,788.5C 134.5,788.167 135.5,787.833 136.5,787.5C 135.691,785.929 135.357,784.262 135.5,782.5 Z"/></g>
<g><path style="opacity:1" fill="#1e1e1e" d="M 608.5,782.5 C 611.814,784.446 612.314,787.113 610,790.5C 607.948,791.723 605.781,792.723 603.5,793.5C 601.648,800.105 597.981,801.605 592.5,798C 595.822,797.941 598.656,796.774 601,794.5C 599.991,792.95 599.158,791.117 598.5,789C 598.728,785.739 600.228,784.572 603,785.5C 603.483,786.448 603.649,787.448 603.5,788.5C 605.604,788.799 607.604,788.466 609.5,787.5C 608.691,785.929 608.357,784.262 608.5,782.5 Z"/></g>
<g><path style="opacity:1" fill="#1d1d1d" d="M 479.5,779.5 C 481.162,781.912 482.162,784.746 482.5,788C 485.964,788.817 489.298,788.483 492.5,787C 490.376,785.418 488.21,785.251 486,786.5C 485.815,784.174 486.982,782.84 489.5,782.5C 493.655,784.185 497.988,784.851 502.5,784.5C 502.5,785.5 502.5,786.5 502.5,787.5C 499.813,787.336 497.146,787.503 494.5,788C 491.654,790.173 488.488,791.673 485,792.5C 482.837,792.505 481.337,791.505 480.5,789.5C 478.408,792.152 475.742,792.986 472.5,792C 471.151,790.365 471.318,788.865 473,787.5C 475,788.833 477,788.833 479,787.5C 479.497,784.854 479.664,782.187 479.5,779.5 Z"/></g>
<g><path style="opacity:1" fill="#63677b" d="M 935.5,788.5 C 937.099,788.768 938.432,788.434 939.5,787.5C 941.226,787.185 942.893,787.019 944.5,787C 941.686,789.47 938.686,789.97 935.5,788.5 Z"/></g>
<g><path style="opacity:1" fill="#17181b" d="M 914.5,774.5 C 915.756,774.461 916.756,774.961 917.5,776C 917.254,781.745 917.088,787.578 917,793.5C 914.347,796.194 911.18,797.027 907.5,796C 904.878,792.87 904.878,789.703 907.5,786.5C 907.347,788.5 907.68,790.667 908.5,793C 911.257,793.782 913.757,793.282 916,791.5C 916.061,786.562 915.227,781.728 913.5,777C 913.743,776.098 914.077,775.265 914.5,774.5 Z"/></g>
<g><path style="opacity:1" fill="#232323" d="M 412.5,782.5 C 418.094,787.803 417.761,792.969 411.5,798C 405.818,798.648 402.984,796.148 403,790.5C 403.333,789.833 403.667,789.167 404,788.5C 404.251,790.433 404.751,792.266 405.5,794C 408.23,794.728 410.897,794.562 413.5,793.5C 413.833,792.667 414.167,791.833 414.5,791C 413.383,788.269 412.717,785.435 412.5,782.5 Z"/></g>
<g><path style="opacity:1" fill="#1b1b1b" d="M 116.5,782.5 C 117.966,783.347 118.8,784.68 119,786.5C 121.023,794.126 118.19,797.959 110.5,798C 106.787,796.309 105.621,793.475 107,789.5C 108.942,794.705 112.442,795.871 117.5,793C 118.287,789.996 117.621,787.163 115.5,784.5C 115.863,783.817 116.196,783.15 116.5,782.5 Z"/></g>
<g><path style="opacity:1" fill="#1b1b1b" d="M 589.5,782.5 C 590.966,783.347 591.8,784.68 592,786.5C 594.023,794.126 591.19,797.959 583.5,798C 579.787,796.309 578.621,793.475 580,789.5C 581.942,794.705 585.442,795.871 590.5,793C 591.287,789.996 590.621,787.163 588.5,784.5C 588.863,783.817 589.196,783.15 589.5,782.5 Z"/></g>
</svg>
