<?xml version="1.0" encoding="UTF-8"?>
<!DOCTYPE svg PUBLIC "-//W3C//DTD SVG 1.1//EN" "http://www.w3.org/Graphics/SVG/1.1/DTD/svg11.dtd">
<svg xmlns="http://www.w3.org/2000/svg" version="1.1" width="1000px" height="500px" style="shape-rendering:geometricPrecision; text-rendering:geometricPrecision; image-rendering:optimizeQuality; fill-rule:evenodd; clip-rule:evenodd" xmlns:xlink="http://www.w3.org/1999/xlink">
<g><path style="opacity:1" fill="#fefefe" d="M -0.5,-0.5 C 332.833,-0.5 666.167,-0.5 999.5,-0.5C 999.5,166.167 999.5,332.833 999.5,499.5C 666.167,499.5 332.833,499.5 -0.5,499.5C -0.5,332.833 -0.5,166.167 -0.5,-0.5 Z"/></g>
<g><path style="opacity:1" fill="#161616" d="M 200.5,174.5 C 204.92,175.09 205.586,177.09 202.5,180.5C 199.513,179.205 198.846,177.205 200.5,174.5 Z"/></g>
<g><path style="opacity:1" fill="#161616" d="M 670.5,184.5 C 674.92,185.09 675.586,187.09 672.5,190.5C 669.513,189.205 668.846,187.205 670.5,184.5 Z"/></g>
<g><path style="opacity:1" fill="#111111" d="M 201.5,184.5 C 203.39,184.297 204.89,184.963 206,186.5C 212.179,195.741 210.345,202.574 200.5,207C 196.5,207.667 192.5,207.667 188.5,207C 185.147,205.323 182.147,203.157 179.5,200.5C 169.247,205.969 166.08,213.969 170,224.5C 175.283,229.563 181.616,231.896 189,231.5C 204.671,229.559 205.171,230.725 190.5,235C 169.168,237.678 161.668,228.844 168,208.5C 170.463,205.035 173.296,201.869 176.5,199C 171.141,195.666 171.475,192.666 177.5,190C 183.172,188.896 186.338,191.063 187,196.5C 183.833,197.667 183.667,199.167 186.5,201C 193.28,203.171 199.947,202.838 206.5,200C 207.747,198.506 207.747,197.006 206.5,195.5C 203.9,200.211 201.067,200.544 198,196.5C 197.447,191.992 198.614,187.992 201.5,184.5 Z"/></g>
<g><path style="opacity:1" fill="#e2e2e2" d="M 200.5,190.5 C 204.31,191.754 204.31,192.754 200.5,193.5C 200.5,192.5 200.5,191.5 200.5,190.5 Z"/></g>
<g><path style="opacity:1" fill="#111111" d="M 267.5,193.5 C 274.841,193.334 282.174,193.5 289.5,194C 290.833,195 290.833,196 289.5,197C 283.796,197.367 278.13,198.034 272.5,199C 293.054,202.024 310.221,211.191 324,226.5C 327.005,230.123 329.005,234.123 330,238.5C 313.837,217.165 292.337,205.331 265.5,203C 289.895,222.134 289.228,223.134 263.5,206C 252.063,197.81 253.397,193.643 267.5,193.5 Z"/></g>
<g><path style="opacity:1" fill="#111111" d="M 380.5,199.5 C 381.167,201.5 381.833,203.5 382.5,205.5C 382.621,216.618 383.787,227.618 386,238.5C 386.465,239.931 387.299,241.097 388.5,242C 392.926,242.791 397.259,242.457 401.5,241C 402.167,240.333 402.833,239.667 403.5,239C 396.416,236.852 395.749,233.519 401.5,229C 407.953,225.325 413.786,226.158 419,231.5C 419.604,235.588 417.77,238.088 413.5,239C 414.833,240 416.167,241 417.5,242C 423.569,242.804 429.569,242.471 435.5,241C 437.587,240.208 439.421,239.041 441,237.5C 440.443,232.325 438.943,232.159 436.5,237C 430.671,240.121 427.671,238.455 427.5,232C 427.155,226.178 429.488,222.011 434.5,219.5C 438.384,221.226 440.884,224.226 442,228.5C 444.482,242.372 438.482,249.372 424,249.5C 422.167,249.333 420.333,249.167 418.5,249C 415.008,246.994 411.674,244.828 408.5,242.5C 404.665,244.918 400.665,247.085 396.5,249C 391.788,250.443 387.955,249.277 385,245.5C 384.83,252.23 384.163,258.897 383,265.5C 378.616,273.45 371.783,277.45 362.5,277.5C 351.903,276.058 347.737,270.058 350,259.5C 351.139,255.888 352.806,252.554 355,249.5C 348.804,265.557 354.304,272.057 371.5,269C 375.207,268.064 378.374,266.231 381,263.5C 381.731,245.302 381.231,227.135 379.5,209C 379.542,205.749 379.875,202.583 380.5,199.5 Z"/></g>
<g><path style="opacity:1" fill="#111111" d="M 653.5,240.5 C 658.833,241.167 664.167,241.833 669.5,242.5C 661.335,245.708 653.002,246.208 644.5,244C 636.83,239.353 633.996,232.52 636,223.5C 638.398,217.871 641.898,213.037 646.5,209C 641.141,205.666 641.475,202.666 647.5,200C 651.07,199.196 654.237,200.03 657,202.5C 657.92,205.308 657.087,207.475 654.5,209C 655.551,210.385 656.884,211.385 658.5,212C 664.724,213.061 670.724,212.394 676.5,210C 677.747,208.506 677.747,207.006 676.5,205.5C 673.9,210.211 671.067,210.544 668,206.5C 667.151,201.364 668.818,197.364 673,194.5C 678.324,198.498 680.324,203.831 679,210.5C 677.056,213.734 674.222,215.9 670.5,217C 662.191,219.251 655.357,217.085 650,210.5C 644.273,213.227 640.273,217.56 638,223.5C 637.323,234.328 642.489,239.995 653.5,240.5 Z"/></g>
<g><path style="opacity:1" fill="#e2e2e2" d="M 670.5,200.5 C 674.31,201.754 674.31,202.754 670.5,203.5C 670.5,202.5 670.5,201.5 670.5,200.5 Z"/></g>
<g><path style="opacity:1" fill="#5f5f5f" d="M 380.5,199.5 C 380.56,198.957 380.893,198.624 381.5,198.5C 382.474,200.743 382.808,203.076 382.5,205.5C 381.833,203.5 381.167,201.5 380.5,199.5 Z"/></g>
<g><path style="opacity:1" fill="#161616" d="M 751.5,227.5 C 742.381,223.058 734.048,217.391 726.5,210.5C 725.246,208.741 725.579,207.241 727.5,206C 738.425,203.504 749.425,203.004 760.5,204.5C 760.64,206.124 759.973,207.29 758.5,208C 753.103,208.227 747.769,208.894 742.5,210C 762.414,212.54 779.247,221.04 793,235.5C 796.18,239.536 798.513,243.869 800,248.5C 783.914,227.706 762.747,216.206 736.5,214C 741.695,218.366 746.695,222.866 751.5,227.5 Z"/></g>
<g><path style="opacity:1" fill="#141414" d="M 431.5,205.5 C 438.279,206.894 438.946,209.561 433.5,213.5C 428.996,211.755 428.33,209.089 431.5,205.5 Z"/></g>
<g><path style="opacity:1" fill="#1e1e1e" d="M 225.5,194.5 C 226.75,194.577 227.583,195.244 228,196.5C 230.795,204.886 229.461,212.553 224,219.5C 218.849,223.998 213.349,224.498 207.5,221C 217.54,220.935 224.207,216.269 227.5,207C 226.786,204.236 225.786,201.569 224.5,199C 225.148,197.56 225.481,196.06 225.5,194.5 Z"/></g>
<g><path style="opacity:1" fill="#161616" d="M 919.5,219.5 C 921.547,231.641 923.213,243.975 924.5,256.5C 924.145,260.921 923.312,265.254 922,269.5C 920.369,255.863 918.869,242.196 917.5,228.5C 917.449,225.303 918.115,222.303 919.5,219.5 Z"/></g>
<g><path style="opacity:1" fill="#1b1b1b" d="M 696.5,204.5 C 701.398,214.152 700.064,222.986 692.5,231C 687.795,234.322 683.128,234.322 678.5,231C 686.593,230.91 692.759,227.41 697,220.5C 697.971,216.135 697.138,212.135 694.5,208.5C 695.18,207.14 695.847,205.807 696.5,204.5 Z"/></g>
<g><path style="opacity:1" fill="#e2e2e2" d="M 431.5,226.5 C 436.663,228.424 436.663,229.591 431.5,230C 430.316,228.855 430.316,227.688 431.5,226.5 Z"/></g>
<g><path style="opacity:1" fill="#606060" d="M 751.5,227.5 C 752.756,227.461 753.756,227.961 754.5,229C 753.002,229.585 752.002,229.085 751.5,227.5 Z"/></g>
<g><path style="opacity:1" fill="#151515" d="M 236.5,237.5 C 241.197,238.874 241.531,240.874 237.5,243.5C 233.928,242.061 233.595,240.061 236.5,237.5 Z"/></g>
<g><path style="opacity:1" fill="#707070" d="M 653.5,240.5 C 659.842,240.334 666.175,240.5 672.5,241C 671.756,242.039 670.756,242.539 669.5,242.5C 664.167,241.833 658.833,241.167 653.5,240.5 Z"/></g>
<g><path style="opacity:1" fill="#0c0c0c" d="M 268.5,251.5 C 267.957,251.56 267.624,251.893 267.5,252.5C 286.488,253.5 305.488,253.833 324.5,253.5C 328.915,253.305 333.249,253.805 337.5,255C 338.833,255.667 338.833,256.333 337.5,257C 336.167,257.333 334.833,257.667 333.5,258C 311.518,259.154 289.518,259.82 267.5,260C 269.351,261.684 271.018,263.517 272.5,265.5C 271.833,265.833 271.167,266.167 270.5,266.5C 265.092,263.928 260.759,260.094 257.5,255C 262.485,250.173 268.151,246.34 274.5,243.5C 275.932,243.733 276.432,244.4 276,245.5C 273.914,248.094 271.414,250.094 268.5,251.5 Z"/></g>
<g><path style="opacity:1" fill="#0f0f0f" d="M 217.5,246.5 C 225,245.166 227.833,248.166 226,255.5C 225.07,257.552 223.57,259.052 221.5,260C 227.204,260.687 232.87,260.521 238.5,259.5C 238.604,256.91 237.937,254.577 236.5,252.5C 236.703,250.792 237.536,249.459 239,248.5C 240.58,251.972 240.913,255.638 240,259.5C 239.727,261.329 238.893,262.829 237.5,264C 225.576,265.438 213.576,265.938 201.5,265.5C 200.258,272.008 199.592,272.008 199.5,265.5C 195.727,266.178 192.894,264.844 191,261.5C 186.076,266.347 180.909,266.68 175.5,262.5C 164.833,267.906 153.5,269.74 141.5,268C 132.459,264.951 130.125,259.118 134.5,250.5C 135.002,249.479 135.668,249.312 136.5,250C 133.431,254.325 134.098,257.992 138.5,261C 147.712,263.953 157.045,264.286 166.5,262C 170.062,261.261 173.228,259.761 176,257.5C 176.374,258.416 176.874,259.25 177.5,260C 183.694,261.711 188.86,260.211 193,255.5C 194.449,260.218 197.615,261.718 202.5,260C 207.047,254.951 212.047,250.451 217.5,246.5 Z"/></g>
<g><path style="opacity:1" fill="#151515" d="M 706.5,248.5 C 711.197,249.874 711.531,251.874 707.5,254.5C 703.928,253.061 703.595,251.061 706.5,248.5 Z"/></g>
<g><path style="opacity:1" fill="#0f0f0f" d="M 904.5,250.5 C 906.735,251.286 907.735,252.952 907.5,255.5C 907.302,259.479 905.969,262.979 903.5,266C 899.418,267.293 896.251,266.126 894,262.5C 891.117,268.023 886.617,270.523 880.5,270C 878.667,268.833 877.167,267.333 876,265.5C 874.048,267.894 871.548,269.394 868.5,270C 862.038,270.849 855.705,270.349 849.5,268.5C 849.664,271.187 849.497,273.854 849,276.5C 847.084,279.033 845.084,279.033 843,276.5C 841.497,273.124 839.997,269.791 838.5,266.5C 835.634,267.182 833.134,268.516 831,270.5C 831.785,280.669 832.952,290.835 834.5,301C 834.596,303.375 834.096,305.541 833,307.5C 831.433,297.168 829.933,286.834 828.5,276.5C 828.128,270.412 830.128,265.245 834.5,261C 837.341,259.414 840.007,257.58 842.5,255.5C 850.695,263.133 860.362,265.633 871.5,263C 873.96,261.542 876.127,259.709 878,257.5C 879.458,263.059 882.958,264.892 888.5,263C 891.91,260.702 894.243,257.535 895.5,253.5C 896.944,258.322 899.944,259.989 904.5,258.5C 902.38,255.969 902.38,253.302 904.5,250.5 Z"/></g>
<g><path style="opacity:1" fill="#f2f2f2" d="M 213.5,252.5 C 216.187,252.336 218.854,252.503 221.5,253C 223.481,253.605 223.815,254.605 222.5,256C 217.096,258.939 211.429,260.105 205.5,259.5C 207.595,256.398 210.262,254.065 213.5,252.5 Z"/></g>
<g><path style="opacity:1" fill="#5f5f5f" d="M 268.5,251.5 C 287.167,252.167 305.833,252.833 324.5,253.5C 305.488,253.833 286.488,253.5 267.5,252.5C 267.624,251.893 267.957,251.56 268.5,251.5 Z"/></g>
<g><path style="opacity:1" fill="#0a0a0a" d="M 783.5,269.5 C 768.152,269.167 752.819,269.501 737.5,270.5C 737.624,271.107 737.957,271.44 738.5,271.5C 741.044,272.708 742.378,274.708 742.5,277.5C 739.86,277.046 737.527,275.879 735.5,274C 732.728,271.312 730.062,268.646 727.5,266C 732.622,260.054 738.955,255.887 746.5,253.5C 746.649,254.552 746.483,255.552 746,256.5C 743.257,258.788 740.423,260.955 737.5,263C 757.833,263.333 778.167,263.667 798.5,264C 801.92,264.517 805.253,265.35 808.5,266.5C 808.291,267.086 807.957,267.586 807.5,268C 799.536,269.098 791.536,269.598 783.5,269.5 Z"/></g>
<g><path style="opacity:1" fill="#101010" d="M 604.5,263.5 C 604.232,265.099 604.566,266.432 605.5,267.5C 606.359,270.452 608.359,272.285 611.5,273C 619.795,274.767 628.129,274.767 636.5,273C 640.062,272.261 643.228,270.761 646,268.5C 649.257,271.428 653.091,272.262 657.5,271C 660.057,270.315 661.891,268.815 663,266.5C 664.652,271.038 667.818,272.538 672.5,271C 675.833,267.667 679.167,264.333 682.5,261C 686.091,258.195 690.091,257.195 694.5,258C 698.893,263.437 697.893,267.77 691.5,271C 697.204,271.687 702.87,271.521 708.5,270.5C 708.604,267.91 707.937,265.577 706.5,263.5C 706.703,261.792 707.536,260.459 709,259.5C 710.58,262.972 710.913,266.638 710,270.5C 709.727,272.329 708.893,273.829 707.5,275C 695.576,276.438 683.576,276.938 671.5,276.5C 670.258,283.008 669.592,283.008 669.5,276.5C 666.01,276.755 663.343,275.422 661.5,272.5C 656.369,277.312 651.036,277.645 645.5,273.5C 642.495,275.671 639.161,277.171 635.5,278C 627.542,279.39 619.542,279.723 611.5,279C 603.477,276.136 601.144,270.97 604.5,263.5 Z"/></g>
<g><path style="opacity:1" fill="#efefef" d="M 683.5,263.5 C 687.544,262.958 691.211,263.791 694.5,266C 689.23,268.904 683.563,270.737 677.5,271.5C 676.068,271.267 675.568,270.6 676,269.5C 678.478,267.361 680.978,265.361 683.5,263.5 Z"/></g>
<g><path style="opacity:1" fill="#7c7c7c" d="M 605.5,267.5 C 604.566,266.432 604.232,265.099 604.5,263.5C 604.272,261.645 604.939,260.812 606.5,261C 605.577,263.041 605.244,265.208 605.5,267.5 Z"/></g>
<g><path style="opacity:1" fill="#afafaf" d="M 783.5,269.5 C 768.5,270.167 753.5,270.833 738.5,271.5C 737.957,271.44 737.624,271.107 737.5,270.5C 752.819,269.501 768.152,269.167 783.5,269.5 Z"/></g>
<g><path style="opacity:1" fill="#151515" d="M 151.5,272.5 C 155.109,274.424 155.275,276.424 152,278.5C 148.897,276.888 148.73,274.888 151.5,272.5 Z"/></g>
<g><path style="opacity:1" fill="#111111" d="M 286.5,312.5 C 285.244,312.461 284.244,312.961 283.5,314C 288.823,314.499 294.156,314.666 299.5,314.5C 300.404,315.209 300.737,316.209 300.5,317.5C 289.231,319.3 277.898,319.8 266.5,319C 265.483,317.951 265.316,316.784 266,315.5C 273.4,307.43 281.4,300.096 290,293.5C 286.258,299.269 281.592,304.602 276,309.5C 302.201,305.137 321.868,290.471 335,265.5C 330.181,282.009 320.348,294.842 305.5,304C 299.381,307.394 293.048,310.228 286.5,312.5 Z"/></g>
<g><path style="opacity:1" fill="#1a1a1a" d="M 621.5,283.5 C 626.506,285.293 626.673,287.293 622,289.5C 620.72,289.387 619.887,288.72 619.5,287.5C 620.18,286.14 620.847,284.807 621.5,283.5 Z"/></g>
<g><path style="opacity:1" fill="#131313" d="M 804.5,275.5 C 805.573,276.251 805.74,277.251 805,278.5C 795.35,302.149 778.183,317.315 753.5,324C 759.157,324.499 764.824,324.666 770.5,324.5C 770.67,325.822 770.337,326.989 769.5,328C 758.574,330.338 747.574,330.838 736.5,329.5C 735.674,328.549 735.508,327.549 736,326.5C 743.714,318.284 751.881,310.617 760.5,303.5C 756.433,310.117 751.1,316.284 744.5,322C 767.521,316.738 786.021,304.571 800,285.5C 801.786,282.264 803.286,278.93 804.5,275.5 Z"/></g>
<g><path style="opacity:1" fill="#161616" d="M 675.5,298.5 C 679.905,299.625 680.405,301.625 677,304.5C 673.155,303.177 672.655,301.177 675.5,298.5 Z"/></g>
<g><path style="opacity:1" fill="#161616" d="M 701.5,302.5 C 706.416,303.747 706.749,305.747 702.5,308.5C 699.025,306.916 698.692,304.916 701.5,302.5 Z"/></g>
<g><path style="opacity:1" fill="#121212" d="M 167.5,305.5 C 175.391,305.549 178.724,309.382 177.5,317C 172.021,316.634 167.188,318.134 163,321.5C 164.209,330.801 165.209,340.135 166,349.5C 164.084,341.338 162.251,333.171 160.5,325C 160.428,318.07 163.761,313.736 170.5,312C 168.407,310.073 166.407,310.24 164.5,312.5C 164.167,312.167 163.833,311.833 163.5,311.5C 164.467,309.21 165.8,307.21 167.5,305.5 Z"/></g>
<g><path style="opacity:1" fill="#191919" d="M 635.5,305.5 C 640.1,306.482 640.6,308.482 637,311.5C 635.745,310.789 634.579,309.956 633.5,309C 634.305,307.887 634.972,306.721 635.5,305.5 Z"/></g>
<g><path style="opacity:1" fill="#181818" d="M 193.5,306.5 C 198.222,307.915 198.555,309.915 194.5,312.5C 191.089,311.206 190.756,309.206 193.5,306.5 Z"/></g>
<g><path style="opacity:1" fill="#0e0e0e" d="M 206.5,306.5 C 212.738,307.446 218.738,309.28 224.5,312C 227.817,312.498 231.15,312.665 234.5,312.5C 234.5,313.833 234.5,315.167 234.5,316.5C 229.156,316.334 223.823,316.501 218.5,317C 212.06,321.227 205.06,323.727 197.5,324.5C 197.077,331.859 193.744,337.359 187.5,341C 184.036,341.817 180.702,341.483 177.5,340C 186.229,339.101 192.229,334.601 195.5,326.5C 194.6,324.761 193.933,322.928 193.5,321C 193.502,317.943 194.502,317.276 196.5,319C 204.006,320.348 211.006,319.014 217.5,315C 212.808,311.943 207.808,310.943 202.5,312C 203.665,310.008 204.998,308.175 206.5,306.5 Z"/></g>
<g><path style="opacity:1" fill="#101010" d="M 675.5,310.5 C 678.238,309.965 680.072,310.965 681,313.5C 682.098,317.505 681.265,321.005 678.5,324C 686.832,326.508 694.832,325.508 702.5,321C 697.808,317.943 692.808,316.943 687.5,318C 688.782,315.046 690.948,313.213 694,312.5C 699.208,314.186 704.375,316.019 709.5,318C 712.817,318.498 716.15,318.665 719.5,318.5C 719.5,319.833 719.5,321.167 719.5,322.5C 714.156,322.334 708.823,322.501 703.5,323C 698.62,325.607 693.62,327.94 688.5,330C 683.002,331.101 677.835,330.268 673,327.5C 670.5,328.333 668,329.167 665.5,330C 654.485,330.168 643.485,330.668 632.5,331.5C 631.902,332.795 631.402,334.128 631,335.5C 630.798,333.744 630.298,332.078 629.5,330.5C 627.346,344.918 619.012,351.085 604.5,349C 600.394,347.203 598.394,344.037 598.5,339.5C 599.183,335.801 600.683,332.468 603,329.5C 602.278,332.012 601.778,334.679 601.5,337.5C 601.326,339.693 601.993,341.527 603.5,343C 608.382,344.555 613.382,344.888 618.5,344C 621.102,343.117 623.269,341.617 625,339.5C 625.679,334.971 625.513,330.471 624.5,326C 624.707,322.556 625.707,322.056 627.5,324.5C 629.421,325.641 631.421,325.808 633.5,325C 636.167,321 639.5,317.667 643.5,315C 647.211,311.662 651.378,310.829 656,312.5C 658.702,317.82 657.535,321.987 652.5,325C 657.167,325.667 661.833,325.667 666.5,325C 668.428,319.557 671.428,314.723 675.5,310.5 Z"/></g>
<g><path style="opacity:1" fill="#747474" d="M 286.5,312.5 C 290.833,313.167 295.167,313.833 299.5,314.5C 294.156,314.666 288.823,314.499 283.5,314C 284.244,312.961 285.244,312.461 286.5,312.5 Z"/></g>
<g><path style="opacity:1" fill="#e9e9e9" d="M 674.5,315.5 C 677.127,315.293 678.793,316.46 679.5,319C 676.729,323.494 674.063,323.494 671.5,319C 672.071,317.401 673.071,316.234 674.5,315.5 Z"/></g>
<g><path style="opacity:1" fill="#f1f1f1" d="M 644.5,317.5 C 647.187,317.336 649.854,317.503 652.5,318C 654.481,318.605 654.815,319.605 653.5,321C 647.821,323.921 641.821,325.254 635.5,325C 638.106,321.882 641.106,319.382 644.5,317.5 Z"/></g>
<g><path style="opacity:1" fill="#171717" d="M 216.5,328.5 C 221.456,329.778 221.789,331.778 217.5,334.5C 213.867,333.059 213.534,331.059 216.5,328.5 Z"/></g>
</svg>
