<?xml version="1.0" encoding="UTF-8"?>
<!DOCTYPE svg PUBLIC "-//W3C//DTD SVG 1.1//EN" "http://www.w3.org/Graphics/SVG/1.1/DTD/svg11.dtd">
<svg xmlns="http://www.w3.org/2000/svg" version="1.1" width="1000px" height="500px" style="shape-rendering:geometricPrecision; text-rendering:geometricPrecision; image-rendering:optimizeQuality; fill-rule:evenodd; clip-rule:evenodd" xmlns:xlink="http://www.w3.org/1999/xlink">
<g><path style="opacity:1" fill="#fefefe" d="M -0.5,-0.5 C 332.833,-0.5 666.167,-0.5 999.5,-0.5C 999.5,166.167 999.5,332.833 999.5,499.5C 666.167,499.5 332.833,499.5 -0.5,499.5C -0.5,332.833 -0.5,166.167 -0.5,-0.5 Z"/></g>
<g><path style="opacity:1" fill="#151515" d="M 510.5,65.5 C 511.376,65.3691 512.043,65.7025 512.5,66.5C 511.752,68.3325 510.752,69.9991 509.5,71.5C 502.746,75.2939 495.913,78.9605 489,82.5C 488.08,79.6917 488.913,77.5251 491.5,76C 498.217,72.9795 504.551,69.4795 510.5,65.5 Z"/></g>
<g><path style="opacity:1" fill="#111111" d="M 675.5,65.5 C 676.376,65.3691 677.043,65.7025 677.5,66.5C 676.752,68.3325 675.752,69.9991 674.5,71.5C 668.342,74.4119 662.342,77.5785 656.5,81C 655.365,81.7494 654.365,81.5827 653.5,80.5C 654.128,78.7419 655.128,77.2419 656.5,76C 663.217,72.9795 669.551,69.4795 675.5,65.5 Z"/></g>
<g><path style="opacity:1" fill="#121212" d="M 403.5,73.5 C 406.872,74.5697 406.872,76.4031 403.5,79C 396.991,82.7549 390.324,86.2549 383.5,89.5C 382.884,86.876 383.884,84.7093 386.5,83C 392.552,80.3126 398.219,77.1459 403.5,73.5 Z"/></g>
<g><path style="opacity:1" fill="#141414" d="M 510.5,76.5 C 511.376,76.3691 512.043,76.7025 512.5,77.5C 511.752,79.3325 510.752,80.9991 509.5,82.5C 502.833,86.1667 496.167,89.8333 489.5,93.5C 488.152,91.3886 488.485,89.5553 490.5,88C 497.393,84.3924 504.059,80.5591 510.5,76.5 Z"/></g>
<g><path style="opacity:1" fill="#0f0f0f" d="M 676.5,79.5 C 677.496,79.4142 678.329,79.7476 679,80.5C 680.162,86.5566 679.162,92.2233 676,97.5C 673,98.8333 670,98.8333 667,97.5C 660.12,107.416 655.62,106.583 653.5,95C 653.565,92.7746 653.898,90.6079 654.5,88.5C 654.833,88.1667 655.167,87.8333 655.5,87.5C 656.259,90.1566 656.926,92.8233 657.5,95.5C 658.723,96.6139 660.056,96.7805 661.5,96C 663.579,92.0072 665.246,87.8405 666.5,83.5C 667.897,85.9066 669.23,88.4066 670.5,91C 671.784,91.6838 672.951,91.5171 674,90.5C 675.562,86.9855 676.395,83.3189 676.5,79.5 Z"/></g>
<g><path style="opacity:1" fill="#141414" d="M 544.5,86.5 C 555.57,88.3118 558.404,94.3118 553,104.5C 544.363,111.213 539.196,109.213 537.5,98.5C 537.8,93.2234 540.133,89.2234 544.5,86.5 Z"/></g>
<g><path style="opacity:1" fill="#0f0f0f" d="M 298.5,88.5 C 300.527,88.3379 302.527,88.5045 304.5,89C 306.931,92.9151 306.931,96.9151 304.5,101C 304.93,102.434 305.764,103.601 307,104.5C 307.946,106.956 307.446,108.956 305.5,110.5C 304.126,109.289 302.626,108.289 301,107.5C 296.844,110.318 292.677,113.152 288.5,116C 286.833,116.667 285.167,116.667 283.5,116C 285.783,112.823 286.617,109.323 286,105.5C 283.006,104.11 281.006,105.11 280,108.5C 279.159,104.88 279.826,101.546 282,98.5C 284.881,96.9717 287.214,97.6384 289,100.5C 287.88,111.538 290.714,113.038 297.5,105C 292.096,99.2791 292.429,93.7791 298.5,88.5 Z"/></g>
<g><path style="opacity:1" fill="#121212" d="M 590.5,89.5 C 593.872,90.5697 593.872,92.4031 590.5,95C 583.991,98.7549 577.324,102.255 570.5,105.5C 569.884,102.876 570.884,100.709 573.5,99C 579.552,96.3126 585.219,93.1459 590.5,89.5 Z"/></g>
<g><path style="opacity:1" fill="#f3f3f3" d="M 541.5,92.5 C 547.51,91.5606 551.01,93.8939 552,99.5C 543.571,103.567 540.071,101.234 541.5,92.5 Z"/></g>
<g><path style="opacity:1" fill="#f0f0f0" d="M 297.5,93.5 C 301.252,93.5007 302.252,95.1674 300.5,98.5C 298.244,97.5791 297.244,95.9124 297.5,93.5 Z"/></g>
<g><path style="opacity:1" fill="#0e0e0e" d="M 367.5,93.5 C 368.725,94.1522 369.392,95.3189 369.5,97C 370.847,110.149 372.014,123.316 373,136.5C 373.552,142.993 374.718,149.326 376.5,155.5C 377.025,156.192 377.692,156.692 378.5,157C 390.08,159.358 400.58,157.191 410,150.5C 410.558,147.946 409.725,145.946 407.5,144.5C 404.711,149.894 400.378,152.061 394.5,151C 392.667,150.5 391.5,149.333 391,147.5C 389.827,140.347 391.16,133.681 395,127.5C 398.569,122.34 402.236,122.34 406,127.5C 420.056,152.144 412.89,165.478 384.5,167.5C 376.814,168.315 371.98,164.982 370,157.5C 368.493,139.8 366.66,122.134 364.5,104.5C 364.667,102.5 364.833,100.5 365,98.5C 366.094,96.9221 366.928,95.2554 367.5,93.5 Z"/></g>
<g><path style="opacity:1" fill="#161616" d="M 465.5,93.5 C 466.117,93.6107 466.617,93.944 467,94.5C 468.283,112.562 470.116,130.562 472.5,148.5C 471.818,155.085 470.318,161.418 468,167.5C 466.827,147.596 464.994,127.762 462.5,108C 462.478,102.927 463.478,98.0935 465.5,93.5 Z"/></g>
<g><path style="opacity:1" fill="#131313" d="M 712.5,93.5 C 713.222,93.9175 713.722,94.5842 714,95.5C 715.086,113.037 716.586,130.537 718.5,148C 718.397,152.545 717.897,157.045 717,161.5C 716.767,163.78 715.934,165.78 714.5,167.5C 713.836,147.528 711.836,127.528 708.5,107.5C 709.232,102.64 710.566,97.9729 712.5,93.5 Z"/></g>
<g><path style="opacity:1" fill="#101010" d="M 343.5,102.5 C 349.067,101.753 350.9,104.087 349,109.5C 346.301,109.664 343.468,109.83 340.5,110C 339.549,110.718 339.383,111.551 340,112.5C 344.114,115.689 348.614,116.355 353.5,114.5C 353.703,116.39 353.037,117.89 351.5,119C 345.921,120.971 340.421,123.137 335,125.5C 334.5,125.167 334,124.833 333.5,124.5C 334.301,121.867 335.967,120.033 338.5,119C 335.613,117.724 334.446,115.557 335,112.5C 336.978,108.362 339.811,105.029 343.5,102.5 Z"/></g>
<g><path style="opacity:1" fill="#0d0d0d" d="M 403.5,102.5 C 411.127,104.876 412.127,108.709 406.5,114C 403.633,113.819 401.133,112.652 399,110.5C 397.216,112.367 395.216,114.034 393,115.5C 389.471,114.301 387.804,111.968 388,108.5C 389.574,107.016 390.907,105.349 392,103.5C 394.257,105.046 396.424,106.712 398.5,108.5C 400.164,106.509 401.831,104.509 403.5,102.5 Z"/></g>
<g><path style="opacity:1" fill="#0e0e0e" d="M 515.5,111.5 C 518.426,124.015 521.26,136.682 524,149.5C 524.606,152.548 526.106,155.048 528.5,157C 535.715,158.113 542.715,157.446 549.5,155C 550.022,154.439 550.355,153.772 550.5,153C 548.97,149.439 547.303,145.939 545.5,142.5C 546.58,140.004 547.914,137.67 549.5,135.5C 550.167,134.167 550.833,134.167 551.5,135.5C 553.994,143.423 554.161,151.423 552,159.5C 549.889,163.944 546.389,166.444 541.5,167C 537.167,167.667 532.833,167.667 528.5,167C 526.413,166.208 524.579,165.041 523,163.5C 521.151,159.802 519.318,156.136 517.5,152.5C 511.179,163.16 501.846,167.66 489.5,166C 481.18,162.357 480.18,157.19 486.5,150.5C 489.342,155.418 493.675,157.418 499.5,156.5C 509.007,157.603 514.674,153.603 516.5,144.5C 515.228,136.973 513.894,129.473 512.5,122C 512.206,118.1 513.206,114.6 515.5,111.5 Z"/></g>
<g><path style="opacity:1" fill="#0f0f0f" d="M 589.5,121.5 C 592.401,122.792 594.734,124.792 596.5,127.5C 593.409,134.916 589.409,135.416 584.5,129C 586.301,126.557 587.968,124.057 589.5,121.5 Z"/></g>
<g><path style="opacity:1" fill="#0f0f0f" d="M 668.5,122.5 C 676.833,124.85 677.666,128.85 671,134.5C 668.456,132.998 666.29,131.164 664.5,129C 665.713,126.738 667.046,124.571 668.5,122.5 Z"/></g>
<g><path style="opacity:1" fill="#0d0d0d" d="M 686.5,130.5 C 696.54,144.335 698.706,159.335 693,175.5C 683.6,187.567 671.433,191.4 656.5,187C 649.945,183.063 646.612,177.23 646.5,169.5C 647.523,162.261 650.023,155.595 654,149.5C 652.464,154.136 651.297,158.97 650.5,164C 651.193,171.369 655.193,176.035 662.5,178C 673.638,179.592 683.471,176.758 692,169.5C 693.318,166.594 693.652,163.594 693,160.5C 690.639,152.782 687.472,145.449 683.5,138.5C 684.51,135.817 685.51,133.151 686.5,130.5 Z"/></g>
<g><path style="opacity:1" fill="#0c0c0c" d="M 345.5,134.5 C 347.41,135.975 348.576,137.975 349,140.5C 351.47,163.347 341.303,172.181 318.5,167C 315.736,166.468 313.07,165.634 310.5,164.5C 309.818,169.289 308.652,173.955 307,178.5C 303.467,180.075 300.8,179.075 299,175.5C 296.867,170.931 295.034,166.264 293.5,161.5C 288.949,162.69 285.116,165.024 282,168.5C 281.333,171.167 281.333,173.833 282,176.5C 284.106,188.302 285.939,200.135 287.5,212C 287.333,214.167 287.167,216.333 287,218.5C 286.692,219.308 286.192,219.975 285.5,220.5C 281.606,203.017 279.44,185.35 279,167.5C 282.591,157.576 289.257,150.576 299,146.5C 303.937,151.39 309.771,154.89 316.5,157C 325.576,157.913 334.576,157.58 343.5,156C 344.804,155.196 345.471,154.029 345.5,152.5C 344.167,149.167 342.833,145.833 341.5,142.5C 342.418,139.594 343.751,136.928 345.5,134.5 Z"/></g>
<g><path style="opacity:1" fill="#e9e9e9" d="M 396.5,134.5 C 398.609,135.391 400.609,136.558 402.5,138C 401.003,140.207 399.003,140.874 396.5,140C 395.248,138.172 395.248,136.339 396.5,134.5 Z"/></g>
<g><path style="opacity:1" fill="#111111" d="M 590.5,142.5 C 594.793,147.976 596.793,154.31 596.5,161.5C 596.261,176.488 589.927,187.988 577.5,196C 569.311,198.646 561.644,197.646 554.5,193C 561.863,193.313 568.863,191.98 575.5,189C 583.762,183.415 589.762,176.082 593.5,167C 591.431,161.531 589.098,156.198 586.5,151C 587.711,148.08 589.044,145.247 590.5,142.5 Z"/></g>
<g><path style="opacity:1" fill="#0f0f0f" d="M 548.5,175.5 C 556.679,177.883 557.513,181.883 551,187.5C 548.99,186.152 546.99,184.818 545,183.5C 542.699,184.8 540.699,186.467 539,188.5C 537.01,187.182 535.01,185.848 533,184.5C 533.658,181.531 535.158,178.865 537.5,176.5C 539.937,177.803 542.104,179.47 544,181.5C 545.752,179.649 547.252,177.649 548.5,175.5 Z"/></g>
<g><path style="opacity:1" fill="#101010" d="M 349.5,182.5 C 350.376,182.369 351.043,182.702 351.5,183.5C 350.747,185.753 349.414,187.587 347.5,189C 341.675,191.745 336.008,194.745 330.5,198C 329.365,198.749 328.365,198.583 327.5,197.5C 328.128,195.742 329.128,194.242 330.5,193C 336.895,189.472 343.229,185.972 349.5,182.5 Z"/></g>
<g><path style="opacity:1" fill="#101010" d="M 710.5,183.5 C 716.113,182.079 718.28,184.079 717,189.5C 716.612,190.428 715.945,191.095 715,191.5C 712.566,190.678 710.066,190.344 707.5,190.5C 707.452,193.292 708.785,195.125 711.5,196C 714.917,196.025 718.25,196.192 721.5,196.5C 720.96,197.748 720.293,198.915 719.5,200C 713.503,202.276 707.503,204.443 701.5,206.5C 701.744,203.737 703.077,201.571 705.5,200C 702.793,198.136 701.959,195.636 703,192.5C 705.335,189.335 707.835,186.335 710.5,183.5 Z"/></g>
<g><path style="opacity:1" fill="#0e0e0e" d="M 513.5,263.5 C 513.783,264.289 514.283,264.956 515,265.5C 515.5,258.508 515.666,251.508 515.5,244.5C 515.273,227.481 515.607,210.481 516.5,193.5C 517.675,193.281 518.675,193.614 519.5,194.5C 520.23,197.109 520.73,199.776 521,202.5C 521.333,223.5 521.667,244.5 522,265.5C 523.5,264 525,262.5 526.5,261C 527.635,260.251 528.635,260.417 529.5,261.5C 525.845,266.486 521.845,271.153 517.5,275.5C 512.321,270.315 508.321,264.315 505.5,257.5C 505.733,256.068 506.4,255.568 507.5,256C 510.094,258.086 512.094,260.586 513.5,263.5 Z"/></g>
<g><path style="opacity:1" fill="#0f0f0f" d="M 242.5,250.5 C 241.35,255.316 241.184,260.316 242,265.5C 242.717,264.956 243.217,264.289 243.5,263.5C 247.069,256.698 250.902,250.031 255,243.5C 251.385,253.743 246.885,263.743 241.5,273.5C 239.326,274.893 237.493,274.56 236,272.5C 232.684,262.39 230.517,252.057 229.5,241.5C 230.822,241.33 231.989,241.663 233,242.5C 234.327,246.809 235.494,251.142 236.5,255.5C 236.461,256.756 236.961,257.756 238,258.5C 238.499,254.514 238.666,250.514 238.5,246.5C 239.704,224.923 248.704,207.423 265.5,194C 266.167,193.333 266.833,193.333 267.5,194C 251.688,209.463 243.354,228.297 242.5,250.5 Z"/></g>
<g><path style="opacity:1" fill="#111111" d="M 760.5,245.5 C 760.334,249.846 760.501,254.179 761,258.5C 762.039,257.756 762.539,256.756 762.5,255.5C 763.354,250.769 764.52,246.102 766,241.5C 768.395,240.202 769.562,241.035 769.5,244C 767.869,254.355 765.536,264.522 762.5,274.5C 760.712,274.785 759.045,274.452 757.5,273.5C 752.115,263.743 747.615,253.743 744,243.5C 748.098,250.031 751.931,256.698 755.5,263.5C 755.783,264.289 756.283,264.956 757,265.5C 757.814,260.98 757.647,256.646 756.5,252.5C 756.144,228.961 747.477,209.128 730.5,193C 744.324,201.707 753.491,214.207 758,230.5C 759.574,235.384 760.407,240.384 760.5,245.5 Z"/></g>
<g><path style="opacity:1" fill="#131313" d="M 719.5,205.5 C 722.872,206.57 722.872,208.403 719.5,211C 712.991,214.755 706.324,218.255 699.5,221.5C 698.417,220.635 698.251,219.635 699,218.5C 700.167,217.333 701.333,216.167 702.5,215C 708.552,212.313 714.219,209.146 719.5,205.5 Z"/></g>
<g><path style="opacity:1" fill="#797979" d="M 760.5,245.5 C 761.167,248.833 761.833,252.167 762.5,255.5C 762.539,256.756 762.039,257.756 761,258.5C 760.501,254.179 760.334,249.846 760.5,245.5 Z"/></g>
<g><path style="opacity:1" fill="#6b6b6b" d="M 238.5,246.5 C 238.666,250.514 238.499,254.514 238,258.5C 236.961,257.756 236.461,256.756 236.5,255.5C 237.167,252.5 237.833,249.5 238.5,246.5 Z"/></g>
<g><path style="opacity:1" fill="#636363" d="M 515.5,244.5 C 515.666,251.508 515.5,258.508 515,265.5C 514.283,264.956 513.783,264.289 513.5,263.5C 514.167,257.167 514.833,250.833 515.5,244.5 Z"/></g>
<g><path style="opacity:1" fill="#7e7e7e" d="M 242.5,250.5 C 242.182,255.032 242.515,259.366 243.5,263.5C 243.217,264.289 242.717,264.956 242,265.5C 241.184,260.316 241.35,255.316 242.5,250.5 Z"/></g>
<g><path style="opacity:1" fill="#848484" d="M 756.5,252.5 C 757.647,256.646 757.814,260.98 757,265.5C 756.283,264.956 755.783,264.289 755.5,263.5C 756.482,260.038 756.815,256.371 756.5,252.5 Z"/></g>
<g><path style="opacity:1" fill="#141414" d="M 457.5,286.5 C 461.461,287.884 462.461,290.551 460.5,294.5C 457.187,296.254 455.52,295.254 455.5,291.5C 455.437,289.486 456.103,287.819 457.5,286.5 Z"/></g>
<g><path style="opacity:1" fill="#141414" d="M 748.5,286.5 C 752.461,287.884 753.461,290.551 751.5,294.5C 748.187,296.254 746.52,295.254 746.5,291.5C 746.437,289.486 747.103,287.819 748.5,286.5 Z"/></g>
<g><path style="opacity:1" fill="#141414" d="M 779.5,286.5 C 783.461,287.884 784.461,290.551 782.5,294.5C 779.187,296.254 777.52,295.254 777.5,291.5C 777.437,289.486 778.103,287.819 779.5,286.5 Z"/></g>
<g><path style="opacity:1" fill="#171717" d="M 153.5,322.5 C 154.167,322.5 154.5,322.833 154.5,323.5C 152.779,329.027 149.112,330.86 143.5,329C 139.969,326.129 137.136,322.629 135,318.5C 134.827,322.541 134.327,326.541 133.5,330.5C 132.5,329.833 131.5,329.167 130.5,328.5C 129.507,316.166 129.674,303.833 131,291.5C 131.589,289.137 133.089,288.137 135.5,288.5C 134.999,297.17 134.833,305.837 135,314.5C 138.354,311.062 141.688,307.728 145,304.5C 146.257,304.85 146.591,305.517 146,306.5C 142.779,309.721 139.613,312.887 136.5,316C 138.947,318.903 141.614,321.57 144.5,324C 147.741,324.793 150.741,324.293 153.5,322.5 Z"/></g>
<g><path style="opacity:1" fill="#0b0b0b" d="M 156.5,326.5 C 156.5,323.167 156.5,319.833 156.5,316.5C 156.153,307.084 156.82,297.751 158.5,288.5C 159.167,288.167 159.833,287.833 160.5,287.5C 160.796,296.468 160.963,305.468 161,314.5C 162.265,309.933 164.931,306.6 169,304.5C 170.261,304.759 171.261,305.426 172,306.5C 172.5,314.159 172.666,321.826 172.5,329.5C 171.178,329.67 170.011,329.337 169,328.5C 169.317,301.667 165.983,302.001 159,329.5C 157.583,328.922 156.75,327.922 156.5,326.5 Z"/></g>
<g><path style="opacity:1" fill="#121212" d="M 293.5,301.5 C 292.353,305.646 292.186,309.98 293,314.5C 294.039,313.756 294.539,312.756 294.5,311.5C 295.928,307.551 298.595,305.384 302.5,305C 303.333,305.833 304.167,306.667 305,307.5C 304.883,314.814 304.717,322.147 304.5,329.5C 303.178,329.67 302.011,329.337 301,328.5C 300.667,321.5 300.333,314.5 300,307.5C 295.396,313.717 292.729,320.717 292,328.5C 290.853,329.458 289.853,329.125 289,327.5C 288.179,314.799 288.512,302.132 290,289.5C 291,288.833 292,288.167 293,287.5C 293.499,292.155 293.666,296.821 293.5,301.5 Z"/></g>
<g><path style="opacity:1" fill="#191919" d="M 546.5,304.5 C 545.357,307.976 545.19,311.642 546,315.5C 546.513,314.473 547.013,313.473 547.5,312.5C 548.526,309.628 550.192,307.128 552.5,305C 554.464,304.376 556.131,304.876 557.5,306.5C 558.467,314.11 558.8,321.777 558.5,329.5C 556.61,329.703 555.11,329.037 554,327.5C 553.796,320.771 553.63,314.104 553.5,307.5C 548.493,313.508 545.827,320.508 545.5,328.5C 544.178,328.67 543.011,328.337 542,327.5C 541.185,315.132 541.518,302.799 543,290.5C 543.7,288.968 544.866,287.968 546.5,287.5C 547.473,293.15 547.473,298.816 546.5,304.5 Z"/></g>
<g><path style="opacity:1" fill="#090909" d="M 756.5,289.5 C 757.833,289.5 759.167,289.5 760.5,289.5C 760.086,302.843 759.419,316.176 758.5,329.5C 757.833,329.833 757.167,330.167 756.5,330.5C 755.281,316.827 755.281,303.161 756.5,289.5 Z"/></g>
<g><path style="opacity:1" fill="#161616" d="M 233.5,303.5 C 239.302,302.006 243.136,304.006 245,309.5C 245.001,313.85 244.501,318.183 243.5,322.5C 243.753,324.858 244.086,327.192 244.5,329.5C 241.14,330.21 239.307,328.876 239,325.5C 236.543,330.186 232.877,331.519 228,329.5C 225.777,325.612 226.277,322.112 229.5,319C 232.166,316.665 235.166,314.831 238.5,313.5C 239.952,310.718 239.619,308.218 237.5,306C 234.702,305.439 232.869,306.606 232,309.5C 231.506,311.134 231.34,312.801 231.5,314.5C 229.365,314.853 228.032,314.02 227.5,312C 228.927,308.743 230.927,305.91 233.5,303.5 Z"/></g>
<g><path style="opacity:1" fill="#111111" d="M 316.5,303.5 C 320.954,302.617 324.454,303.95 327,307.5C 326.964,314.819 326.797,322.152 326.5,329.5C 323.612,329.78 322.112,328.447 322,325.5C 318.188,331.003 313.855,331.67 309,327.5C 309.991,320.324 314.158,315.658 321.5,313.5C 322.797,310.812 322.464,308.312 320.5,306C 319.167,305.333 317.833,305.333 316.5,306C 314.503,308.492 313.503,311.325 313.5,314.5C 312.5,314.5 311.5,314.5 310.5,314.5C 310.677,309.811 312.677,306.144 316.5,303.5 Z"/></g>
<g><path style="opacity:1" fill="#0e0e0e" d="M 455.5,303.5 C 456.833,303.5 458.167,303.5 459.5,303.5C 458.815,311.816 458.482,320.149 458.5,328.5C 457.178,328.67 456.011,328.337 455,327.5C 454.2,319.421 454.367,311.421 455.5,303.5 Z"/></g>
<g><path style="opacity:1" fill="#131313" d="M 569.5,303.5 C 572.187,303.336 574.854,303.503 577.5,304C 578.701,304.903 579.535,306.069 580,307.5C 579.563,314.859 579.729,322.192 580.5,329.5C 577.14,330.21 575.307,328.876 575,325.5C 573.5,327 572,328.5 570.5,330C 562.607,331.023 560.44,327.857 564,320.5C 567.092,317.578 570.592,315.245 574.5,313.5C 575.952,310.718 575.619,308.218 573.5,306C 568.385,306.317 566.385,309.15 567.5,314.5C 566.167,314.5 564.833,314.5 563.5,314.5C 563.844,309.848 565.844,306.182 569.5,303.5 Z"/></g>
<g><path style="opacity:1" fill="#131313" d="M 695.5,303.5 C 698.187,303.336 700.854,303.503 703.5,304C 704.701,304.903 705.535,306.069 706,307.5C 705.563,314.859 705.729,322.192 706.5,329.5C 703.14,330.21 701.307,328.876 701,325.5C 699.5,327 698,328.5 696.5,330C 688.607,331.023 686.44,327.857 690,320.5C 693.092,317.578 696.592,315.245 700.5,313.5C 701.952,310.718 701.619,308.218 699.5,306C 694.385,306.317 692.385,309.15 693.5,314.5C 692.167,314.5 690.833,314.5 689.5,314.5C 689.844,309.848 691.844,306.182 695.5,303.5 Z"/></g>
<g><path style="opacity:1" fill="#0e0e0e" d="M 746.5,303.5 C 747.833,303.5 749.167,303.5 750.5,303.5C 749.815,311.816 749.482,320.149 749.5,328.5C 748.178,328.67 747.011,328.337 746,327.5C 745.2,319.421 745.367,311.421 746.5,303.5 Z"/></g>
<g><path style="opacity:1" fill="#0e0e0e" d="M 777.5,303.5 C 778.833,303.5 780.167,303.5 781.5,303.5C 780.815,311.816 780.482,320.149 780.5,328.5C 779.178,328.67 778.011,328.337 777,327.5C 776.2,319.421 776.367,311.421 777.5,303.5 Z"/></g>
<g><path style="opacity:1" fill="#131313" d="M 837.5,303.5 C 842.742,302.271 846.575,303.937 849,308.5C 848.836,315.476 848.669,322.476 848.5,329.5C 847.167,329.5 845.833,329.5 844.5,329.5C 844.762,328.022 844.429,326.689 843.5,325.5C 839.953,331.047 835.786,331.714 831,327.5C 830.365,325.365 830.699,323.365 832,321.5C 834.958,317.855 838.625,315.188 843,313.5C 844.297,309.825 843.297,307.158 840,305.5C 836.403,307.361 834.903,310.361 835.5,314.5C 834.5,314.5 833.5,314.5 832.5,314.5C 832.277,309.948 833.944,306.281 837.5,303.5 Z"/></g>
<g><path style="opacity:1" fill="#181818" d="M 266.5,304.5 C 268.199,304.34 269.866,304.506 271.5,305C 270.19,311.444 270.19,317.944 271.5,324.5C 273.197,323.636 274.363,322.303 275,320.5C 277.014,315.293 278.514,309.96 279.5,304.5C 280.833,304.5 282.167,304.5 283.5,304.5C 283.5,312.833 283.5,321.167 283.5,329.5C 281.61,329.703 280.11,329.037 279,327.5C 278.667,325.5 278.333,323.5 278,321.5C 276.381,328.981 272.714,330.314 267,325.5C 265.171,318.559 265.004,311.559 266.5,304.5 Z"/></g>
<g><path style="opacity:1" fill="#171717" d="M 474.5,304.5 C 476.833,304.5 479.167,304.5 481.5,304.5C 482.167,307.833 480.833,309.833 477.5,310.5C 476.468,308.96 475.135,308.46 473.5,309C 471.651,310.093 469.984,311.426 468.5,313C 473.322,312.778 477.489,314.278 481,317.5C 482.176,321.26 481.01,324.093 477.5,326C 474.576,327.881 471.409,329.048 468,329.5C 463.744,329.581 462.077,327.581 463,323.5C 466.972,319.331 467.806,319.665 465.5,324.5C 466.365,325.583 467.365,325.749 468.5,325C 480.878,317.627 479.545,314.627 464.5,316C 463.978,315.439 463.645,314.772 463.5,314C 466.118,309.544 469.784,306.377 474.5,304.5 Z"/></g>
<g><path style="opacity:1" fill="#0a0a0a" d="M 532.5,326.5 C 532.663,324.143 532.497,321.81 532,319.5C 531.59,320.901 531.09,322.234 530.5,323.5C 529.604,326.069 527.938,328.069 525.5,329.5C 523.517,328.018 521.684,326.351 520,324.5C 519.333,318.167 519.333,311.833 520,305.5C 521.356,304.62 522.856,304.286 524.5,304.5C 523.669,311.131 523.336,317.798 523.5,324.5C 524.822,324.67 525.989,324.337 527,323.5C 529.798,317.773 531.798,311.773 533,305.5C 534.011,304.663 535.178,304.33 536.5,304.5C 536.831,312.86 536.498,321.193 535.5,329.5C 534.145,328.812 533.145,327.812 532.5,326.5 Z"/></g>
<g><path style="opacity:1" fill="#121212" d="M 184.5,305.5 C 192.892,303.84 197.225,307.174 197.5,315.5C 197.428,326.682 192.094,330.849 181.5,328C 174.386,319.508 175.386,312.008 184.5,305.5 Z"/></g>
<g><path style="opacity:1" fill="#6e6e6e" d="M 207.5,298.5 C 207.194,301.385 207.527,304.052 208.5,306.5C 208.217,307.289 207.717,307.956 207,308.5C 206.192,304.973 206.359,301.64 207.5,298.5 Z"/></g>
<g><path style="opacity:1" fill="#101010" d="M 207.5,298.5 C 206.359,301.64 206.192,304.973 207,308.5C 207.717,307.956 208.217,307.289 208.5,306.5C 216.881,303.029 221.881,305.862 223.5,315C 222.733,324.445 217.733,328.778 208.5,328C 207.269,326.817 207.269,325.651 208.5,324.5C 211.173,326.912 213.673,326.579 216,323.5C 219.42,318.634 219.253,313.967 215.5,309.5C 212.386,307.938 209.553,308.271 207,310.5C 206.5,316.825 206.334,323.158 206.5,329.5C 205.178,329.67 204.011,329.337 203,328.5C 202.339,315.486 202.506,302.486 203.5,289.5C 204.833,289.5 206.167,289.5 207.5,289.5C 207.5,292.5 207.5,295.5 207.5,298.5 Z"/></g>
<g><path style="opacity:1" fill="#0a0a0a" d="M 258.5,303.5 C 261.822,303.489 263.489,305.155 263.5,308.5C 263.563,310.481 262.896,312.148 261.5,313.5C 260.012,311.851 259.012,309.851 258.5,307.5C 257.201,308.09 256.368,309.09 256,310.5C 254.63,316.742 254.13,323.075 254.5,329.5C 253.167,329.5 251.833,329.5 250.5,329.5C 250.334,322.159 250.5,314.826 251,307.5C 253.26,305.003 254.593,305.67 255,309.5C 255.926,307.308 257.093,305.308 258.5,303.5 Z"/></g>
<g><path style="opacity:1" fill="#151515" d="M 487.5,304.5 C 488.5,304.5 489.5,304.5 490.5,304.5C 490.335,307.518 490.502,310.518 491,313.5C 492.211,310.241 494.044,307.408 496.5,305C 497.944,304.219 499.277,304.386 500.5,305.5C 501.262,309.111 501.762,312.778 502,316.5C 503.265,311.618 505.765,307.618 509.5,304.5C 510.938,304.719 512.271,305.219 513.5,306C 513.529,312.99 513.863,319.99 514.5,327C 513.333,330.167 511.833,330.333 510,327.5C 509.667,321.167 509.333,314.833 509,308.5C 507.171,310.156 505.837,312.156 505,314.5C 503.53,319.243 501.864,323.909 500,328.5C 499,328.167 498,327.833 497,327.5C 497.305,320.85 497.305,314.183 497,307.5C 492.423,313.729 489.923,320.729 489.5,328.5C 488.167,328.5 486.833,328.5 485.5,328.5C 485.062,320.35 485.729,312.35 487.5,304.5 Z"/></g>
<g><path style="opacity:1" fill="#161616" d="M 712.5,304.5 C 713.833,304.5 715.167,304.5 716.5,304.5C 716.336,307.187 716.503,309.854 717,312.5C 723.807,301.211 727.473,302.211 728,315.5C 729.181,311.637 731.014,308.137 733.5,305C 735.92,304.313 738.087,304.813 740,306.5C 739.585,313.202 739.752,319.869 740.5,326.5C 739.332,328.217 737.665,328.884 735.5,328.5C 735.83,321.8 735.497,315.134 734.5,308.5C 730.463,314.611 727.796,321.278 726.5,328.5C 725.167,328.5 723.833,328.5 722.5,328.5C 723.112,321.465 723.112,314.465 722.5,307.5C 718.336,313.486 715.836,320.152 715,327.5C 713.989,328.337 712.822,328.67 711.5,328.5C 711.302,320.466 711.635,312.466 712.5,304.5 Z"/></g>
<g><path style="opacity:1" fill="#6b6b6b" d="M 789.5,304.5 C 788.065,307.028 787.065,309.695 786.5,312.5C 786.5,309.833 786.5,307.167 786.5,304.5C 787.5,304.5 788.5,304.5 789.5,304.5 Z"/></g>
<g><path style="opacity:1" fill="#090909" d="M 789.5,304.5 C 789.833,304.5 790.167,304.5 790.5,304.5C 790.334,308.514 790.501,312.514 791,316.5C 791.791,315.255 792.291,313.922 792.5,312.5C 793.17,309.662 794.504,307.162 796.5,305C 798.579,304.192 800.579,304.359 802.5,305.5C 803.467,313.11 803.8,320.777 803.5,328.5C 802.178,328.67 801.011,328.337 800,327.5C 799.831,320.809 799.331,314.142 798.5,307.5C 796.803,308.364 795.637,309.697 795,311.5C 792.779,316.993 791.279,322.66 790.5,328.5C 788.833,328.5 787.167,328.5 785.5,328.5C 786.194,323.195 786.528,317.862 786.5,312.5C 787.065,309.695 788.065,307.028 789.5,304.5 Z"/></g>
<g><path style="opacity:1" fill="#6b6b6b" d="M 812.5,304.5 C 811.065,307.028 810.065,309.695 809.5,312.5C 809.5,309.833 809.5,307.167 809.5,304.5C 810.5,304.5 811.5,304.5 812.5,304.5 Z"/></g>
<g><path style="opacity:1" fill="#090909" d="M 812.5,304.5 C 812.833,304.5 813.167,304.5 813.5,304.5C 813.334,308.514 813.501,312.514 814,316.5C 814.791,315.255 815.291,313.922 815.5,312.5C 816.17,309.662 817.504,307.162 819.5,305C 821.579,304.192 823.579,304.359 825.5,305.5C 826.467,313.11 826.8,320.777 826.5,328.5C 825.178,328.67 824.011,328.337 823,327.5C 822.831,320.809 822.331,314.142 821.5,307.5C 819.803,308.364 818.637,309.697 818,311.5C 815.779,316.993 814.279,322.66 813.5,328.5C 811.833,328.5 810.167,328.5 808.5,328.5C 809.194,323.195 809.528,317.862 809.5,312.5C 810.065,309.695 811.065,307.028 812.5,304.5 Z"/></g>
<g><path style="opacity:1" fill="#f1f1f1" d="M 185.5,308.5 C 190.933,308.441 193.6,311.275 193.5,317C 193.702,322.117 191.536,325.617 187,327.5C 183.24,325.762 181.406,322.762 181.5,318.5C 181.866,314.728 183.199,311.394 185.5,308.5 Z"/></g>
<g><path style="opacity:1" fill="#8d8d8d" d="M 293.5,301.5 C 293.187,305.042 293.521,308.375 294.5,311.5C 294.539,312.756 294.039,313.756 293,314.5C 292.186,309.98 292.353,305.646 293.5,301.5 Z"/></g>
<g><path style="opacity:1" fill="#636363" d="M 546.5,304.5 C 546.194,307.385 546.527,310.052 547.5,312.5C 547.013,313.473 546.513,314.473 546,315.5C 545.19,311.642 545.357,307.976 546.5,304.5 Z"/></g>
<g><path style="opacity:1" fill="#787878" d="M 790.5,304.5 C 791.167,307.167 791.833,309.833 792.5,312.5C 792.291,313.922 791.791,315.255 791,316.5C 790.501,312.514 790.334,308.514 790.5,304.5 Z"/></g>
<g><path style="opacity:1" fill="#787878" d="M 813.5,304.5 C 814.167,307.167 814.833,309.833 815.5,312.5C 815.291,313.922 814.791,315.255 814,316.5C 813.501,312.514 813.334,308.514 813.5,304.5 Z"/></g>
<g><path style="opacity:1" fill="#ececec" d="M 237.5,317.5 C 239.344,318.204 239.844,319.537 239,321.5C 237.078,325.597 233.912,327.93 229.5,328.5C 230.574,323.748 233.24,320.081 237.5,317.5 Z"/></g>
<g><path style="opacity:1" fill="#ebebeb" d="M 321.5,316.5 C 322.124,316.917 322.457,317.584 322.5,318.5C 320.784,323.549 317.451,326.883 312.5,328.5C 312.372,326.345 312.872,324.345 314,322.5C 316.478,320.361 318.978,318.361 321.5,316.5 Z"/></g>
<g><path style="opacity:1" fill="#ededed" d="M 572.5,317.5 C 573.5,317.5 574.5,317.5 575.5,317.5C 574.239,323.093 570.906,326.759 565.5,328.5C 566.066,323.699 568.4,320.032 572.5,317.5 Z"/></g>
<g><path style="opacity:1" fill="#ededed" d="M 698.5,317.5 C 699.5,317.5 700.5,317.5 701.5,317.5C 700.239,323.093 696.906,326.759 691.5,328.5C 692.066,323.699 694.4,320.032 698.5,317.5 Z"/></g>
<g><path style="opacity:1" fill="#e4e4e4" d="M 842.5,316.5 C 844.344,317.204 844.844,318.537 844,320.5C 842.285,322.759 840.452,324.926 838.5,327C 834,329.167 832.833,328 835,323.5C 837.396,320.933 839.896,318.6 842.5,316.5 Z"/></g>
<g><path style="opacity:1" fill="#9a9a9a" d="M 532.5,326.5 C 531.833,325.5 531.167,324.5 530.5,323.5C 531.09,322.234 531.59,320.901 532,319.5C 532.497,321.81 532.663,324.143 532.5,326.5 Z"/></g>
<g><path style="opacity:1" fill="#8c8c8c" d="M 156.5,316.5 C 156.5,319.833 156.5,323.167 156.5,326.5C 155.833,325.5 155.167,324.5 154.5,323.5C 154.5,322.833 154.167,322.5 153.5,322.5C 154.842,320.639 155.842,318.639 156.5,316.5 Z"/></g>
</svg>
