<?xml version="1.0" encoding="UTF-8"?>
<!DOCTYPE svg PUBLIC "-//W3C//DTD SVG 1.1//EN" "http://www.w3.org/Graphics/SVG/1.1/DTD/svg11.dtd">
<svg xmlns="http://www.w3.org/2000/svg" version="1.1" width="1000px" height="500px" style="shape-rendering:geometricPrecision; text-rendering:geometricPrecision; image-rendering:optimizeQuality; fill-rule:evenodd; clip-rule:evenodd" xmlns:xlink="http://www.w3.org/1999/xlink">
<g><path style="opacity:1" fill="#fefefe" d="M -0.5,-0.5 C 332.833,-0.5 666.167,-0.5 999.5,-0.5C 999.5,166.167 999.5,332.833 999.5,499.5C 666.167,499.5 332.833,499.5 -0.5,499.5C -0.5,332.833 -0.5,166.167 -0.5,-0.5 Z"/></g>
<g><path style="opacity:1" fill="#141414" d="M 429.5,31.5 C 431.811,32.961 431.811,34.7944 429.5,37C 422.991,40.7549 416.324,44.2549 409.5,47.5C 408.152,45.3886 408.485,43.5553 410.5,42C 417.217,38.9795 423.551,35.4795 429.5,31.5 Z"/></g>
<g><path style="opacity:1" fill="#0a0a0a" d="M 430.5,45.5 C 431.496,45.4142 432.329,45.7476 433,46.5C 433.913,52.0416 433.246,57.3749 431,62.5C 428.104,64.745 424.937,65.0784 421.5,63.5C 419.221,68.31 415.554,70.1434 410.5,69C 409.667,68.1667 408.833,67.3333 408,66.5C 407.233,62.4425 407.4,58.4425 408.5,54.5C 408.833,54.1667 409.167,53.8333 409.5,53.5C 410.259,56.1566 410.926,58.8233 411.5,61.5C 412.723,62.6139 414.056,62.7805 415.5,62C 418.043,58.0866 419.876,53.92 421,49.5C 422.147,51.7312 423.147,54.0645 424,56.5C 425.333,57.8333 426.667,57.8333 428,56.5C 429.622,53.0131 430.455,49.3465 430.5,45.5 Z"/></g>
<g><path style="opacity:1" fill="#141414" d="M 236.5,65.5 C 237.497,65.4701 238.164,65.9701 238.5,67C 237.711,68.6255 236.711,70.1255 235.5,71.5C 228.833,75.1667 222.167,78.8333 215.5,82.5C 214.422,80.5253 214.755,78.692 216.5,77C 223.393,73.3924 230.059,69.5591 236.5,65.5 Z"/></g>
<g><path style="opacity:1" fill="#121212" d="M 802.5,73.5 C 805.872,74.5697 805.872,76.4031 802.5,79C 795.991,82.7549 789.324,86.2549 782.5,89.5C 781.884,86.876 782.884,84.7093 785.5,83C 791.552,80.3126 797.219,77.1459 802.5,73.5 Z"/></g>
<g><path style="opacity:1" fill="#131313" d="M 614.5,74.5 C 615.376,74.3691 616.043,74.7025 616.5,75.5C 615.627,77.4134 614.627,79.2467 613.5,81C 606.676,84.2451 600.009,87.7451 593.5,91.5C 592.422,89.5253 592.755,87.692 594.5,86C 601.393,82.3924 608.059,78.5591 614.5,74.5 Z"/></g>
<g><path style="opacity:1" fill="#131313" d="M 236.5,76.5 C 237.376,76.3691 238.043,76.7025 238.5,77.5C 237.627,79.4134 236.627,81.2467 235.5,83C 228.676,86.2451 222.009,89.7451 215.5,93.5C 214.422,91.5253 214.755,89.692 216.5,88C 223.393,84.3924 230.059,80.5591 236.5,76.5 Z"/></g>
<g><path style="opacity:1" fill="#101010" d="M 515.5,77.5 C 517.527,77.3379 519.527,77.5045 521.5,78C 523.97,82.253 523.97,86.5863 521.5,91C 522.477,92.497 523.477,93.997 524.5,95.5C 524.32,96.5539 523.987,97.5539 523.5,98.5C 521.219,99.1847 518.886,99.3513 516.5,99C 512.512,104.707 507.179,107.04 500.5,106C 505.53,102.816 510.196,99.149 514.5,95C 510.788,92.3981 509.622,88.8981 511,84.5C 512.511,82.1384 514.011,79.8051 515.5,77.5 Z"/></g>
<g><path style="opacity:1" fill="#0e0e0e" d="M 421.5,81.5 C 424.269,83.6471 426.603,86.3138 428.5,89.5C 427.139,91.0284 425.972,92.6951 425,94.5C 424.826,111.373 422.326,127.873 417.5,144C 420.603,149.982 421.103,156.149 419,162.5C 418.052,164.57 416.552,166.07 414.5,167C 407.174,167.5 399.841,167.666 392.5,167.5C 392.5,164.5 392.5,161.5 392.5,158.5C 401.935,158.443 408.269,153.943 411.5,145C 404.834,130.995 395.834,118.662 384.5,108C 382.833,108.333 381.167,108.667 379.5,109C 375.964,105.799 372.797,102.299 370,98.5C 368.758,93.3063 369.758,88.6397 373,84.5C 390.057,100.211 404.057,118.211 415,138.5C 416.197,135.911 417.197,133.244 418,130.5C 419.166,115.528 419.833,100.528 420,85.5C 420.791,84.255 421.291,82.9217 421.5,81.5 Z"/></g>
<g><path style="opacity:1" fill="#e1e1e1" d="M 514.5,83.5 C 518.225,83.7796 519.392,85.7796 518,89.5C 515.735,88.0842 514.569,86.0842 514.5,83.5 Z"/></g>
<g><path style="opacity:1" fill="#121212" d="M 271.5,86.5 C 281.022,87.8855 284.189,93.2188 281,102.5C 272.122,111.803 266.622,110.303 264.5,98C 264.586,92.7575 266.919,88.9242 271.5,86.5 Z"/></g>
<g><path style="opacity:1" fill="#0d0d0d" d="M 639.5,87.5 C 641.856,90.3654 643.856,93.532 645.5,97C 642.271,99.5663 640.938,102.9 641.5,107C 643.166,117.331 644.833,127.665 646.5,138C 645.895,146.476 644.061,154.643 641,162.5C 639.269,164.617 637.102,166.117 634.5,167C 623.776,168.951 613.776,167.118 604.5,161.5C 595.781,166.346 586.448,168.346 576.5,167.5C 574.579,177.009 570.746,185.675 565,193.5C 554.742,203.409 543.908,204.076 532.5,195.5C 553.662,197.363 567.328,188.03 573.5,167.5C 567.474,168.324 562.307,166.658 558,162.5C 557.669,155.805 559.669,149.805 564,144.5C 565.117,142.876 566.617,141.876 568.5,141.5C 574.469,144.996 577.469,150.329 577.5,157.5C 583.869,157.653 590.203,157.32 596.5,156.5C 596.063,151.588 596.896,146.922 599,142.5C 602.313,136.159 607.146,131.493 613.5,128.5C 618.41,131.295 621.076,135.628 621.5,141.5C 621.135,146.894 619.135,151.56 615.5,155.5C 615.833,155.833 616.167,156.167 616.5,156.5C 622.448,157.624 628.448,157.79 634.5,157C 642.151,154.092 644.651,148.592 642,140.5C 638.796,124.949 636.796,109.283 636,93.5C 636.926,91.3083 638.093,89.3083 639.5,87.5 Z"/></g>
<g><path style="opacity:1" fill="#131313" d="M 318.5,88.5 C 319.376,88.3691 320.043,88.7025 320.5,89.5C 319.627,91.4134 318.627,93.2467 317.5,95C 310.676,98.2451 304.009,101.745 297.5,105.5C 296.422,103.525 296.755,101.692 298.5,100C 305.393,96.3924 312.059,92.5591 318.5,88.5 Z"/></g>
<g><path style="opacity:1" fill="#131313" d="M 741.5,90.5 C 742.376,90.3691 743.043,90.7025 743.5,91.5C 742.627,93.4134 741.627,95.2467 740.5,97C 733.676,100.245 727.009,103.745 720.5,107.5C 719.422,105.525 719.755,103.692 721.5,102C 728.393,98.3924 735.059,94.5591 741.5,90.5 Z"/></g>
<g><path style="opacity:1" fill="#f5f5f5" d="M 268.5,92.5 C 274.203,91.7299 277.37,94.0632 278,99.5C 272.849,102.901 269.016,101.901 266.5,96.5C 266.752,94.9271 267.418,93.5938 268.5,92.5 Z"/></g>
<g><path style="opacity:1" fill="#141414" d="M 558.5,93.5 C 569.57,95.3118 572.404,101.312 567,111.5C 558.363,118.213 553.196,116.213 551.5,105.5C 551.8,100.223 554.133,96.2234 558.5,93.5 Z"/></g>
<g><path style="opacity:1" fill="#131313" d="M 662.5,93.5 C 663.222,93.9175 663.722,94.5842 664,95.5C 665.086,113.037 666.586,130.537 668.5,148C 668.397,152.545 667.897,157.045 667,161.5C 666.767,163.78 665.934,165.78 664.5,167.5C 663.836,147.528 661.836,127.528 658.5,107.5C 659.232,102.64 660.566,97.9729 662.5,93.5 Z"/></g>
<g><path style="opacity:1" fill="#0e0e0e" d="M 766.5,93.5 C 767.725,94.1522 768.392,95.3189 768.5,97C 769.847,110.149 771.014,123.316 772,136.5C 772.552,142.993 773.718,149.326 775.5,155.5C 776.025,156.192 776.692,156.692 777.5,157C 789.08,159.358 799.58,157.191 809,150.5C 809.558,147.946 808.725,145.946 806.5,144.5C 803.711,149.894 799.378,152.061 793.5,151C 791.667,150.5 790.5,149.333 790,147.5C 788.827,140.347 790.16,133.681 794,127.5C 797.569,122.34 801.236,122.34 805,127.5C 819.056,152.144 811.89,165.478 783.5,167.5C 775.814,168.315 770.98,164.982 769,157.5C 767.493,139.8 765.66,122.134 763.5,104.5C 763.667,102.5 763.833,100.5 764,98.5C 765.094,96.9221 765.928,95.2554 766.5,93.5 Z"/></g>
<g><path style="opacity:1" fill="#121212" d="M 191.5,93.5 C 194.682,111.765 197.015,130.432 198.5,149.5C 197.802,155.658 196.469,161.658 194.5,167.5C 194.502,161.956 194.336,156.289 194,150.5C 192.077,136.511 190.243,122.511 188.5,108.5C 188.865,103.34 189.865,98.3402 191.5,93.5 Z"/></g>
<g><path style="opacity:1" fill="#121212" d="M 445.5,93.5 C 447.593,111.509 449.593,129.676 451.5,148C 451.613,154.83 450.28,161.33 447.5,167.5C 447.523,161.29 447.356,154.957 447,148.5C 445.167,135.007 443.334,121.507 441.5,108C 441.722,102.837 443.056,98.0032 445.5,93.5 Z"/></g>
<g><path style="opacity:1" fill="#f3f3f3" d="M 555.5,99.5 C 561.51,98.5606 565.01,100.894 566,106.5C 557.571,110.567 554.071,108.234 555.5,99.5 Z"/></g>
<g><path style="opacity:1" fill="#0d0d0d" d="M 802.5,102.5 C 810.127,104.876 811.127,108.709 805.5,114C 802.633,113.819 800.133,112.652 798,110.5C 796.216,112.367 794.216,114.034 792,115.5C 788.471,114.301 786.804,111.968 787,108.5C 788.574,107.016 789.907,105.349 791,103.5C 793.257,105.046 795.424,106.712 797.5,108.5C 799.164,106.509 800.831,104.509 802.5,102.5 Z"/></g>
<g><path style="opacity:1" fill="#111111" d="M 615.5,104.5 C 618.663,105.321 621.33,106.988 623.5,109.5C 622.079,112.009 620.412,114.343 618.5,116.5C 616.191,115.349 614.024,114.016 612,112.5C 609.784,113.966 607.784,115.633 606,117.5C 603.845,116.421 601.845,115.087 600,113.5C 600.658,110.531 602.158,107.865 604.5,105.5C 606.937,106.803 609.104,108.47 611,110.5C 613.102,108.905 614.602,106.905 615.5,104.5 Z"/></g>
<g><path style="opacity:1" fill="#0e0e0e" d="M 241.5,111.5 C 242.693,111.97 243.36,112.97 243.5,114.5C 245.108,123.149 246.608,131.816 248,140.5C 249.149,145.942 250.983,151.109 253.5,156C 260.474,157.961 267.474,157.961 274.5,156C 275.804,155.196 276.471,154.029 276.5,152.5C 275.167,149.167 273.833,145.833 272.5,142.5C 273.137,139.893 274.304,137.56 276,135.5C 276.667,134.167 277.333,134.167 278,135.5C 281.289,143.807 281.289,152.14 278,160.5C 271.515,167.047 263.681,169.213 254.5,167C 252.376,165.878 250.543,164.378 249,162.5C 247.519,159.044 245.852,155.711 244,152.5C 237.852,162.896 228.685,167.396 216.5,166C 210.641,164.781 208.474,161.281 210,155.5C 210.815,153.377 211.815,151.377 213,149.5C 214.991,155.165 218.991,157.499 225,156.5C 231.007,156.834 236.34,155.168 241,151.5C 241.977,148.759 242.477,145.925 242.5,143C 241.645,135.581 240.312,128.248 238.5,121C 239.074,117.688 240.074,114.522 241.5,111.5 Z"/></g>
<g><path style="opacity:1" fill="#0b0b0b" d="M 315.5,122.5 C 323.827,124.327 324.66,127.993 318,133.5C 315.274,132.768 313.107,131.268 311.5,129C 312.713,126.738 314.046,124.571 315.5,122.5 Z"/></g>
<g><path style="opacity:1" fill="#0c0c0c" d="M 515.5,130.5 C 526.435,131.099 533.102,136.766 535.5,147.5C 535.596,149.926 534.93,152.093 533.5,154C 527.103,154.182 520.77,154.848 514.5,156C 506.269,158.203 503.103,163.37 505,171.5C 507.993,184.288 510.826,197.121 513.5,210C 513.062,211.92 512.395,213.754 511.5,215.5C 507.056,200.058 503.722,184.391 501.5,168.5C 500.652,154.684 506.986,146.35 520.5,143.5C 516.773,139.499 513.106,139.665 509.5,144C 508.365,144.749 507.365,144.583 506.5,143.5C 508.291,138.224 511.291,133.891 515.5,130.5 Z"/></g>
<g><path style="opacity:1" fill="#0c0c0c" d="M 732.5,130.5 C 743.665,130.579 750.331,136.079 752.5,147C 752.624,149.59 751.958,151.923 750.5,154C 741.676,153.471 733.343,155.137 725.5,159C 723.951,160.214 722.785,161.714 722,163.5C 721.856,167.504 722.189,171.504 723,175.5C 725.554,186.657 728.054,197.823 730.5,209C 730.369,211.253 729.869,213.419 729,215.5C 724.314,199.923 720.814,184.09 718.5,168C 719.048,162.69 720.215,157.524 722,152.5C 726.221,147.921 731.388,144.921 737.5,143.5C 736.33,141.745 734.663,140.745 732.5,140.5C 723.731,146.058 722.231,144.058 728,134.5C 729.397,132.93 730.897,131.596 732.5,130.5 Z"/></g>
<g><path style="opacity:1" fill="#e9e9e9" d="M 795.5,134.5 C 797.609,135.391 799.609,136.558 801.5,138C 800.003,140.207 798.003,140.874 795.5,140C 794.248,138.172 794.248,136.339 795.5,134.5 Z"/></g>
<g><path style="opacity:1" fill="#f7f7f7" d="M 606.5,139.5 C 614.074,138.404 617.074,141.404 615.5,148.5C 612.956,150.019 610.289,151.352 607.5,152.5C 600.055,148.463 599.721,144.13 606.5,139.5 Z"/></g>
<g><path style="opacity:1" fill="#0f0f0f" d="M 316.5,142.5 C 317.376,142.369 318.043,142.702 318.5,143.5C 326.227,161.993 323.227,178.493 309.5,193C 300.122,198.875 290.789,198.875 281.5,193C 298.75,193.416 311.25,185.916 319,170.5C 319.667,168.167 319.667,165.833 319,163.5C 316.678,159.365 314.845,155.032 313.5,150.5C 314.51,147.817 315.51,145.151 316.5,142.5 Z"/></g>
<g><path style="opacity:1" fill="#e0e0e0" d="M 413.5,151.5 C 415.28,152.99 415.946,154.99 415.5,157.5C 412.824,158.008 410.157,158.175 407.5,158C 409.706,155.963 411.706,153.797 413.5,151.5 Z"/></g>
<g><path style="opacity:1" fill="#ebebeb" d="M 564.5,150.5 C 568.248,151.042 570.915,153.042 572.5,156.5C 565.827,159.134 563.161,157.134 564.5,150.5 Z"/></g>
<g><path style="opacity:1" fill="#0d0d0d" d="M 275.5,175.5 C 278.34,176.423 280.674,178.09 282.5,180.5C 281.365,182.799 280.032,184.966 278.5,187C 275.854,186.08 273.354,184.58 271,182.5C 269.39,184.731 267.557,186.731 265.5,188.5C 258.406,185.729 257.74,181.896 263.5,177C 264.167,176.333 264.833,176.333 265.5,177C 267.017,178.685 268.684,180.185 270.5,181.5C 272.19,179.481 273.856,177.481 275.5,175.5 Z"/></g>
<g><path style="opacity:1" fill="#101010" d="M 443.5,183.5 C 449.113,182.079 451.28,184.079 450,189.5C 449.612,190.428 448.945,191.095 448,191.5C 445.566,190.678 443.066,190.344 440.5,190.5C 440.452,193.292 441.785,195.125 444.5,196C 447.917,196.025 451.25,196.192 454.5,196.5C 453.96,197.748 453.293,198.915 452.5,200C 446.503,202.276 440.503,204.443 434.5,206.5C 434.744,203.737 436.077,201.571 438.5,200C 435.793,198.136 434.959,195.636 436,192.5C 438.335,189.335 440.835,186.335 443.5,183.5 Z"/></g>
<g><path style="opacity:1" fill="#949494" d="M 791.5,195.5 C 790.833,195.5 790.5,195.833 790.5,196.5C 789.038,195.542 787.705,194.376 786.5,193C 788.459,193.097 790.125,193.93 791.5,195.5 Z"/></g>
<g><path style="opacity:1" fill="#828282" d="M 203.5,197.5 C 203.5,197.167 203.5,196.833 203.5,196.5C 204.562,194.243 206.228,193.077 208.5,193C 206.963,194.707 205.296,196.207 203.5,197.5 Z"/></g>
<g><path style="opacity:1" fill="#606060" d="M 625.5,197.5 C 624.833,197.5 624.5,197.833 624.5,198.5C 616.727,191.218 617.061,190.885 625.5,197.5 Z"/></g>
<g><path style="opacity:1" fill="#131313" d="M 411.5,193.5 C 412.239,193.369 412.906,193.536 413.5,194C 394.123,213.787 385.623,237.621 388,265.5C 391.833,258.5 395.667,251.5 399.5,244.5C 400.167,243.167 400.833,243.167 401.5,244.5C 397.122,254.258 392.455,263.924 387.5,273.5C 385.647,274.76 383.814,274.76 382,273.5C 380.005,265.519 378.005,257.519 376,249.5C 375.503,246.854 375.336,244.187 375.5,241.5C 376.822,241.33 377.989,241.663 379,242.5C 380.333,247.167 381.667,251.833 383,256.5C 382.804,230.907 392.304,209.907 411.5,193.5 Z"/></g>
<g><path style="opacity:1" fill="#0f0f0f" d="M 625.5,197.5 C 638.988,209.81 646.655,225.143 648.5,243.5C 648.334,248.511 648.501,253.511 649,258.5C 649.717,257.956 650.217,257.289 650.5,256.5C 651.115,250.685 652.949,245.352 656,240.5C 657.023,241.6 657.523,242.933 657.5,244.5C 656.052,254.34 653.885,264.007 651,273.5C 649.186,274.76 647.353,274.76 645.5,273.5C 640.62,264.407 636.286,255.073 632.5,245.5C 632.846,244.304 633.346,244.304 634,245.5C 637.667,252.167 641.333,258.833 645,265.5C 646.962,240.316 640.128,217.982 624.5,198.5C 624.5,197.833 624.833,197.5 625.5,197.5 Z"/></g>
<g><path style="opacity:1" fill="#0f0f0f" d="M 203.5,196.5 C 203.5,196.833 203.5,197.167 203.5,197.5C 186.791,216.961 179.624,239.628 182,265.5C 185.833,258.5 189.667,251.5 193.5,244.5C 194.002,243.479 194.668,243.312 195.5,244C 190.795,253.91 185.961,263.744 181,273.5C 179.333,274.833 177.667,274.833 176,273.5C 174.74,267.72 173.073,262.053 171,256.5C 170.088,251.536 169.588,246.536 169.5,241.5C 170.5,241.5 171.5,241.5 172.5,241.5C 173.839,246.515 175.339,251.515 177,256.5C 176.522,237.051 182.188,219.718 194,204.5C 196.766,201.223 199.933,198.557 203.5,196.5 Z"/></g>
<g><path style="opacity:1" fill="#0f0f0f" d="M 790.5,196.5 C 790.5,195.833 790.833,195.5 791.5,195.5C 809.852,211.893 818.685,232.56 818,257.5C 819.507,252.136 821.007,246.803 822.5,241.5C 823.5,241.5 824.5,241.5 825.5,241.5C 825.412,246.536 824.912,251.536 824,256.5C 821.927,262.053 820.26,267.72 819,273.5C 817.333,274.833 815.667,274.833 814,273.5C 809.107,264.212 804.607,254.712 800.5,245C 800.667,244.5 800.833,244 801,243.5C 805,250.833 809,258.167 813,265.5C 815.481,239.041 807.981,216.041 790.5,196.5 Z"/></g>
<g><path style="opacity:1" fill="#131313" d="M 452.5,205.5 C 455.872,206.57 455.872,208.403 452.5,211C 445.991,214.755 439.324,218.255 432.5,221.5C 431.417,220.635 431.251,219.635 432,218.5C 433.167,217.333 434.333,216.167 435.5,215C 441.552,212.313 447.219,209.146 452.5,205.5 Z"/></g>
<g><path style="opacity:1" fill="#525252" d="M 648.5,243.5 C 649.167,247.833 649.833,252.167 650.5,256.5C 650.217,257.289 649.717,257.956 649,258.5C 648.501,253.511 648.334,248.511 648.5,243.5 Z"/></g>
<g><path style="opacity:1" fill="#141414" d="M 99.5,286.5 C 103.461,287.884 104.461,290.551 102.5,294.5C 99.1866,296.254 97.52,295.254 97.5,291.5C 97.4365,289.486 98.1032,287.819 99.5,286.5 Z"/></g>
<g><path style="opacity:1" fill="#141414" d="M 145.5,286.5 C 149.461,287.884 150.461,290.551 148.5,294.5C 145.187,296.254 143.52,295.254 143.5,291.5C 143.437,289.486 144.103,287.819 145.5,286.5 Z"/></g>
<g><path style="opacity:1" fill="#141414" d="M 380.5,286.5 C 384.461,287.884 385.461,290.551 383.5,294.5C 380.187,296.254 378.52,295.254 378.5,291.5C 378.437,289.486 379.103,287.819 380.5,286.5 Z"/></g>
<g><path style="opacity:1" fill="#141414" d="M 426.5,286.5 C 430.461,287.884 431.461,290.551 429.5,294.5C 426.187,296.254 424.52,295.254 424.5,291.5C 424.437,289.486 425.103,287.819 426.5,286.5 Z"/></g>
<g><path style="opacity:1" fill="#141414" d="M 676.5,286.5 C 680.461,287.884 681.461,290.551 679.5,294.5C 676.187,296.254 674.52,295.254 674.5,291.5C 674.437,289.486 675.103,287.819 676.5,286.5 Z"/></g>
<g><path style="opacity:1" fill="#181818" d="M 819.5,286.5 C 823.461,287.884 824.461,290.551 822.5,294.5C 819.187,296.254 817.52,295.254 817.5,291.5C 817.437,289.486 818.103,287.819 819.5,286.5 Z"/></g>
<g><path style="opacity:1" fill="#191919" d="M 270.5,287.5 C 271.787,288.871 272.453,290.705 272.5,293C 271.578,299.821 271.412,306.654 272,313.5C 273.439,310.397 275.273,307.564 277.5,305C 279.701,304.175 281.534,304.675 283,306.5C 283.5,314.159 283.666,321.826 283.5,329.5C 281.61,329.703 280.11,329.037 279,327.5C 278.796,320.771 278.63,314.104 278.5,307.5C 273.822,314.02 270.989,321.354 270,329.5C 268.667,328.833 267.667,327.833 267,326.5C 266.264,314.95 266.764,303.45 268.5,292C 268.759,290.213 269.425,288.713 270.5,287.5 Z"/></g>
<g><path style="opacity:1" fill="#0f0f0f" d="M 688.5,301.5 C 687.809,310.734 687.142,320.068 686.5,329.5C 685.811,330.774 684.977,330.774 684,329.5C 683.309,316.151 683.475,302.817 684.5,289.5C 685.833,289.5 687.167,289.5 688.5,289.5C 688.5,293.5 688.5,297.5 688.5,301.5 Z"/></g>
<g><path style="opacity:1" fill="#0c0c0c" d="M 827.5,289.5 C 828.833,289.5 830.167,289.5 831.5,289.5C 831.119,302.845 830.452,316.178 829.5,329.5C 828.833,329.833 828.167,330.167 827.5,330.5C 826.281,316.827 826.281,303.161 827.5,289.5 Z"/></g>
<g><path style="opacity:1" fill="#141414" d="M 341.5,308.5 C 339.5,309.167 337.5,309.833 335.5,310.5C 333.952,310.821 333.285,311.821 333.5,313.5C 332.793,319.066 332.126,324.732 331.5,330.5C 330.167,330.5 329.5,329.833 329.5,328.5C 329.5,322.833 329.5,317.167 329.5,311.5C 328.209,311.263 327.209,311.596 326.5,312.5C 324.726,311.119 323.226,311.452 322,313.5C 320.807,306.063 318.807,305.73 316,312.5C 315.501,318.157 315.334,323.824 315.5,329.5C 313.856,329.714 312.356,329.38 311,328.5C 310.353,320.811 310.52,313.144 311.5,305.5C 313.911,305.137 315.411,306.137 316,308.5C 319.913,301.637 323.079,301.97 325.5,309.5C 326.736,308.754 328.07,308.421 329.5,308.5C 328.066,300.874 330.399,294.708 336.5,290C 341.395,288.884 344.061,290.884 344.5,296C 344.25,298.422 343.416,300.589 342,302.5C 340.768,299.7 340.101,296.7 340,293.5C 336.084,292.39 334.084,294.057 334,298.5C 333.503,301.146 333.336,303.813 333.5,306.5C 335.857,306.337 338.19,306.503 340.5,307C 341.056,307.383 341.389,307.883 341.5,308.5 Z"/></g>
<g><path style="opacity:1" fill="#151515" d="M 225.5,292.5 C 226.873,292.343 228.207,292.51 229.5,293C 231.743,295.488 233.743,298.154 235.5,301C 234.167,301.667 232.833,301.667 231.5,301C 229.112,298.371 227.112,295.538 225.5,292.5 Z"/></g>
<g><path style="opacity:1" fill="#151515" d="M 506.5,292.5 C 507.873,292.343 509.207,292.51 510.5,293C 512.743,295.488 514.743,298.154 516.5,301C 515.167,301.667 513.833,301.667 512.5,301C 510.112,298.371 508.112,295.538 506.5,292.5 Z"/></g>
<g><path style="opacity:1" fill="#101010" d="M 615.5,300.5 C 614.532,302.607 614.198,304.941 614.5,307.5C 615.791,307.737 616.791,307.404 617.5,306.5C 620.022,306.128 622.022,306.961 623.5,309C 620.607,310.149 617.607,310.649 614.5,310.5C 614.5,317.167 614.5,323.833 614.5,330.5C 612.62,330.771 611.287,330.104 610.5,328.5C 610.5,322.833 610.5,317.167 610.5,311.5C 609.209,311.263 608.209,311.596 607.5,312.5C 606.295,310.59 606.962,309.257 609.5,308.5C 609.4,301.623 611.733,295.79 616.5,291C 619.835,288.709 622.668,289.209 625,292.5C 625.85,296.052 625.35,299.385 623.5,302.5C 622.914,302.291 622.414,301.957 622,301.5C 621.667,298.833 621.333,296.167 621,293.5C 618.546,291.987 616.879,292.654 616,295.5C 615.506,297.134 615.34,298.801 615.5,300.5 Z"/></g>
<g><path style="opacity:1" fill="#131313" d="M 653.5,292.5 C 657.656,293.645 660.656,296.311 662.5,300.5C 661.277,301.614 659.944,301.781 658.5,301C 656.18,298.522 654.514,295.689 653.5,292.5 Z"/></g>
<g><path style="opacity:1" fill="#0f0f0f" d="M 808.5,286.5 C 809.822,286.33 810.989,286.663 812,287.5C 812.667,289.833 812.667,292.167 812,294.5C 810.062,295.86 808.396,295.527 807,293.5C 805.328,305.344 803.828,305.344 802.5,293.5C 801.277,292.386 799.944,292.219 798.5,293C 796.752,297.294 796.085,301.794 796.5,306.5C 799.681,306.002 802.347,306.835 804.5,309C 801.487,309.502 798.487,310.002 795.5,310.5C 795.5,317.167 795.5,323.833 795.5,330.5C 794.178,330.67 793.011,330.337 792,329.5C 791.83,323.472 791.33,317.472 790.5,311.5C 789.137,312.879 788.137,312.713 787.5,311C 788.098,309.699 789.098,308.865 790.5,308.5C 791.227,303.258 792.727,298.258 795,293.5C 798.451,288.87 802.117,288.537 806,292.5C 806.655,290.372 807.489,288.372 808.5,286.5 Z"/></g>
<g><path style="opacity:1" fill="#131313" d="M 132.5,293.5 C 133.5,293.5 134.5,293.5 135.5,293.5C 135.5,296.833 135.5,300.167 135.5,303.5C 139.653,304.02 143.653,304.02 147.5,303.5C 146.815,311.816 146.482,320.149 146.5,328.5C 145.178,328.67 144.011,328.337 143,327.5C 142.5,320.508 142.334,313.508 142.5,306.5C 139.794,306.575 137.127,306.908 134.5,307.5C 134.666,314.508 134.5,321.508 134,328.5C 132.989,329.337 131.822,329.67 130.5,329.5C 129.614,322.543 129.28,315.543 129.5,308.5C 127.335,308.884 125.668,308.217 124.5,306.5C 126.333,304.95 128.499,303.95 131,303.5C 131.61,300.173 132.11,296.839 132.5,293.5 Z"/></g>
<g><path style="opacity:1" fill="#131313" d="M 413.5,293.5 C 414.5,293.5 415.5,293.5 416.5,293.5C 416.5,296.833 416.5,300.167 416.5,303.5C 420.653,304.02 424.653,304.02 428.5,303.5C 427.815,311.816 427.482,320.149 427.5,328.5C 426.178,328.67 425.011,328.337 424,327.5C 423.5,320.508 423.334,313.508 423.5,306.5C 420.794,306.575 418.127,306.908 415.5,307.5C 415.666,314.508 415.5,321.508 415,328.5C 413.989,329.337 412.822,329.67 411.5,329.5C 410.614,322.543 410.28,315.543 410.5,308.5C 408.335,308.884 406.668,308.217 405.5,306.5C 407.333,304.95 409.499,303.95 412,303.5C 412.61,300.173 413.11,296.839 413.5,293.5 Z"/></g>
<g><path style="opacity:1" fill="#0e0e0e" d="M 97.5,303.5 C 98.8333,303.5 100.167,303.5 101.5,303.5C 100.815,311.816 100.482,320.149 100.5,328.5C 99.1779,328.67 98.0113,328.337 97,327.5C 96.2004,319.421 96.3671,311.421 97.5,303.5 Z"/></g>
<g><path style="opacity:1" fill="#131313" d="M 202.5,303.5 C 207.742,302.271 211.575,303.937 214,308.5C 213.836,315.476 213.669,322.476 213.5,329.5C 212.167,329.5 210.833,329.5 209.5,329.5C 209.762,328.022 209.429,326.689 208.5,325.5C 204.953,331.047 200.786,331.714 196,327.5C 195.365,325.365 195.699,323.365 197,321.5C 199.958,317.855 203.625,315.188 208,313.5C 209.297,309.825 208.297,307.158 205,305.5C 201.403,307.361 199.903,310.361 200.5,314.5C 199.5,314.5 198.5,314.5 197.5,314.5C 197.277,309.948 198.944,306.281 202.5,303.5 Z"/></g>
<g><path style="opacity:1" fill="#131313" d="M 294.5,303.5 C 297.187,303.336 299.854,303.503 302.5,304C 303.701,304.903 304.535,306.069 305,307.5C 304.563,314.859 304.729,322.192 305.5,329.5C 302.14,330.21 300.307,328.876 300,325.5C 298.5,327 297,328.5 295.5,330C 287.607,331.023 285.44,327.857 289,320.5C 292.092,317.578 295.592,315.245 299.5,313.5C 300.952,310.718 300.619,308.218 298.5,306C 293.385,306.317 291.385,309.15 292.5,314.5C 291.167,314.5 289.833,314.5 288.5,314.5C 288.844,309.848 290.844,306.182 294.5,303.5 Z"/></g>
<g><path style="opacity:1" fill="#0e0e0e" d="M 378.5,303.5 C 379.833,303.5 381.167,303.5 382.5,303.5C 381.815,311.816 381.482,320.149 381.5,328.5C 380.178,328.67 379.011,328.337 378,327.5C 377.2,319.421 377.367,311.421 378.5,303.5 Z"/></g>
<g><path style="opacity:1" fill="#131313" d="M 483.5,303.5 C 488.742,302.271 492.575,303.937 495,308.5C 494.836,315.476 494.669,322.476 494.5,329.5C 493.167,329.5 491.833,329.5 490.5,329.5C 490.762,328.022 490.429,326.689 489.5,325.5C 485.953,331.047 481.786,331.714 477,327.5C 476.365,325.365 476.699,323.365 478,321.5C 480.958,317.855 484.625,315.188 489,313.5C 490.297,309.825 489.297,307.158 486,305.5C 482.403,307.361 480.903,310.361 481.5,314.5C 480.5,314.5 479.5,314.5 478.5,314.5C 478.277,309.948 479.944,306.281 483.5,303.5 Z"/></g>
<g><path style="opacity:1" fill="#7b7b7b" d="M 615.5,300.5 C 615.025,303.082 615.692,305.082 617.5,306.5C 616.791,307.404 615.791,307.737 614.5,307.5C 614.198,304.941 614.532,302.607 615.5,300.5 Z"/></g>
<g><path style="opacity:1" fill="#131313" d="M 630.5,303.5 C 633.187,303.336 635.854,303.503 638.5,304C 639.701,304.903 640.535,306.069 641,307.5C 640.563,314.859 640.729,322.192 641.5,329.5C 638.14,330.21 636.307,328.876 636,325.5C 634.5,327 633,328.5 631.5,330C 623.607,331.023 621.44,327.857 625,320.5C 628.092,317.578 631.592,315.245 635.5,313.5C 636.952,310.718 636.619,308.218 634.5,306C 629.385,306.317 627.385,309.15 628.5,314.5C 627.167,314.5 625.833,314.5 624.5,314.5C 624.844,309.848 626.844,306.182 630.5,303.5 Z"/></g>
<g><path style="opacity:1" fill="#0e0e0e" d="M 674.5,303.5 C 675.833,303.5 677.167,303.5 678.5,303.5C 677.815,311.816 677.482,320.149 677.5,328.5C 676.178,328.67 675.011,328.337 674,327.5C 673.2,319.421 673.367,311.421 674.5,303.5 Z"/></g>
<g><path style="opacity:1" fill="#141414" d="M 806.5,303.5 C 807.833,303.5 809.167,303.5 810.5,303.5C 810.5,311.833 810.5,320.167 810.5,328.5C 808.61,328.703 807.11,328.037 806,326.5C 805.523,318.822 805.69,311.155 806.5,303.5 Z"/></g>
<g><path style="opacity:1" fill="#030303" d="M 817.5,303.5 C 818.5,303.5 819.5,303.5 820.5,303.5C 820.5,311.833 820.5,320.167 820.5,328.5C 819.178,328.67 818.011,328.337 817,327.5C 816.2,319.421 816.367,311.421 817.5,303.5 Z"/></g>
<g><path style="opacity:1" fill="#171717" d="M 116.5,304.5 C 118.833,304.5 121.167,304.5 123.5,304.5C 124.167,307.833 122.833,309.833 119.5,310.5C 118.468,308.96 117.135,308.46 115.5,309C 113.651,310.093 111.984,311.426 110.5,313C 115.322,312.778 119.489,314.278 123,317.5C 124.176,321.26 123.01,324.093 119.5,326C 116.576,327.881 113.409,329.048 110,329.5C 105.744,329.581 104.077,327.581 105,323.5C 108.972,319.331 109.806,319.665 107.5,324.5C 108.365,325.583 109.365,325.749 110.5,325C 122.878,317.627 121.545,314.627 106.5,316C 105.978,315.439 105.645,314.772 105.5,314C 108.118,309.544 111.784,306.377 116.5,304.5 Z"/></g>
<g><path style="opacity:1" fill="#161616" d="M 162.5,304.5 C 164.857,304.337 167.19,304.503 169.5,305C 170.207,307.691 169.041,309.525 166,310.5C 162.479,308.613 159.313,309.446 156.5,313C 161.276,313.061 165.443,314.561 169,317.5C 170.173,321.305 169.007,324.139 165.5,326C 161.514,328.665 157.181,329.665 152.5,329C 149.735,326.034 150.068,323.367 153.5,321C 154.332,320.312 154.998,320.479 155.5,321.5C 154.833,322.5 154.167,323.5 153.5,324.5C 154.365,325.583 155.365,325.749 156.5,325C 158.996,323.92 161.33,322.586 163.5,321C 165.037,319.89 165.703,318.39 165.5,316.5C 161.167,316.5 156.833,316.5 152.5,316.5C 152.34,314.801 152.506,313.134 153,311.5C 156.068,308.917 159.235,306.584 162.5,304.5 Z"/></g>
<g><path style="opacity:1" fill="#121212" d="M 356.5,327.5 C 356.664,324.813 356.497,322.146 356,319.5C 355.487,320.527 354.987,321.527 354.5,322.5C 351.525,331.498 347.858,331.831 343.5,323.5C 343.5,318.167 343.5,312.833 343.5,307.5C 343.5,306.5 343.5,305.5 343.5,304.5C 345.288,304.215 346.955,304.548 348.5,305.5C 347.206,311.808 347.206,318.141 348.5,324.5C 350.718,323.076 352.218,321.076 353,318.5C 354.797,313.977 355.964,309.31 356.5,304.5C 357.833,304.5 359.167,304.5 360.5,304.5C 360.831,312.86 360.498,321.193 359.5,329.5C 358.261,329.058 357.261,328.391 356.5,327.5 Z"/></g>
<g><path style="opacity:1" fill="#171717" d="M 397.5,304.5 C 399.833,304.5 402.167,304.5 404.5,304.5C 405.167,307.833 403.833,309.833 400.5,310.5C 399.468,308.96 398.135,308.46 396.5,309C 394.651,310.093 392.984,311.426 391.5,313C 396.322,312.778 400.489,314.278 404,317.5C 405.176,321.26 404.01,324.093 400.5,326C 397.576,327.881 394.409,329.048 391,329.5C 386.744,329.581 385.077,327.581 386,323.5C 389.972,319.331 390.806,319.665 388.5,324.5C 389.365,325.583 390.365,325.749 391.5,325C 403.878,317.627 402.545,314.627 387.5,316C 386.978,315.439 386.645,314.772 386.5,314C 389.118,309.544 392.784,306.377 397.5,304.5 Z"/></g>
<g><path style="opacity:1" fill="#171717" d="M 443.5,304.5 C 445.833,304.5 448.167,304.5 450.5,304.5C 451.167,307.833 449.833,309.833 446.5,310.5C 445.468,308.96 444.135,308.46 442.5,309C 440.651,310.093 438.984,311.426 437.5,313C 442.322,312.778 446.489,314.278 450,317.5C 451.176,321.26 450.01,324.093 446.5,326C 443.576,327.881 440.409,329.048 437,329.5C 432.744,329.581 431.077,327.581 432,323.5C 435.972,319.331 436.806,319.665 434.5,324.5C 435.365,325.583 436.365,325.749 437.5,325C 449.878,317.627 448.545,314.627 433.5,316C 432.978,315.439 432.645,314.772 432.5,314C 435.118,309.544 438.784,306.377 443.5,304.5 Z"/></g>
<g><path style="opacity:1" fill="#0f0f0f" d="M 455.5,304.5 C 456.473,305.791 457.473,305.791 458.5,304.5C 459.325,308.122 459.825,311.789 460,315.5C 461.181,311.637 463.014,308.137 465.5,305C 468.025,304.104 470.192,304.604 472,306.5C 472.5,313.826 472.666,321.159 472.5,328.5C 470.549,328.773 469.049,328.107 468,326.5C 467.41,321.483 467.577,316.483 468.5,311.5C 468.564,309.611 468.064,307.944 467,306.5C 462.968,312.944 460.302,319.944 459,327.5C 457.644,328.38 456.144,328.714 454.5,328.5C 455.166,320.517 455.499,312.517 455.5,304.5 Z"/></g>
<g><path style="opacity:1" fill="#6b6b6b" d="M 177.5,304.5 C 176.065,307.028 175.065,309.695 174.5,312.5C 174.5,309.833 174.5,307.167 174.5,304.5C 175.5,304.5 176.5,304.5 177.5,304.5 Z"/></g>
<g><path style="opacity:1" fill="#090909" d="M 177.5,304.5 C 177.833,304.5 178.167,304.5 178.5,304.5C 178.334,308.514 178.501,312.514 179,316.5C 179.791,315.255 180.291,313.922 180.5,312.5C 181.17,309.662 182.504,307.162 184.5,305C 186.579,304.192 188.579,304.359 190.5,305.5C 191.467,313.11 191.8,320.777 191.5,328.5C 190.178,328.67 189.011,328.337 188,327.5C 187.831,320.809 187.331,314.142 186.5,307.5C 184.803,308.364 183.637,309.697 183,311.5C 180.779,316.993 179.279,322.66 178.5,328.5C 176.833,328.5 175.167,328.5 173.5,328.5C 174.194,323.195 174.528,317.862 174.5,312.5C 175.065,309.695 176.065,307.028 177.5,304.5 Z"/></g>
<g><path style="opacity:1" fill="#6c6c6c" d="M 688.5,301.5 C 689.139,311.227 688.472,320.56 686.5,329.5C 687.142,320.068 687.809,310.734 688.5,301.5 Z"/></g>
<g><path style="opacity:1" fill="#787878" d="M 178.5,304.5 C 179.167,307.167 179.833,309.833 180.5,312.5C 180.291,313.922 179.791,315.255 179,316.5C 178.501,312.514 178.334,308.514 178.5,304.5 Z"/></g>
<g><path style="opacity:1" fill="#e4e4e4" d="M 207.5,316.5 C 209.344,317.204 209.844,318.537 209,320.5C 207.285,322.759 205.452,324.926 203.5,327C 199,329.167 197.833,328 200,323.5C 202.396,320.933 204.896,318.6 207.5,316.5 Z"/></g>
<g><path style="opacity:1" fill="#ededed" d="M 297.5,317.5 C 298.5,317.5 299.5,317.5 300.5,317.5C 299.239,323.093 295.906,326.759 290.5,328.5C 291.066,323.699 293.4,320.032 297.5,317.5 Z"/></g>
<g><path style="opacity:1" fill="#686868" d="M 343.5,307.5 C 343.5,312.833 343.5,318.167 343.5,323.5C 342.515,319.366 342.182,315.032 342.5,310.5C 340.167,310.5 337.833,310.5 335.5,310.5C 337.5,309.833 339.5,309.167 341.5,308.5C 342.167,308.167 342.833,307.833 343.5,307.5 Z"/></g>
<g><path style="opacity:1" fill="#e4e4e4" d="M 488.5,316.5 C 490.344,317.204 490.844,318.537 490,320.5C 488.285,322.759 486.452,324.926 484.5,327C 480,329.167 478.833,328 481,323.5C 483.396,320.933 485.896,318.6 488.5,316.5 Z"/></g>
<g><path style="opacity:1" fill="#ededed" d="M 633.5,317.5 C 634.5,317.5 635.5,317.5 636.5,317.5C 635.239,323.093 631.906,326.759 626.5,328.5C 627.066,323.699 629.4,320.032 633.5,317.5 Z"/></g>
<g><path style="opacity:1" fill="#535353" d="M 326.5,312.5 C 327.209,311.596 328.209,311.263 329.5,311.5C 329.5,317.167 329.5,322.833 329.5,328.5C 329.144,322.923 328.144,317.59 326.5,312.5 Z"/></g>
<g><path style="opacity:1" fill="#8f8f8f" d="M 607.5,312.5 C 608.209,311.596 609.209,311.263 610.5,311.5C 610.5,317.167 610.5,322.833 610.5,328.5C 610.144,322.923 609.144,317.59 607.5,312.5 Z"/></g>
<g><path style="opacity:1" fill="#6e6e6e" d="M 356.5,327.5 C 355.833,325.833 355.167,324.167 354.5,322.5C 354.987,321.527 355.487,320.527 356,319.5C 356.497,322.146 356.664,324.813 356.5,327.5 Z"/></g>
<g><path style="opacity:1" fill="#505050" d="M 333.5,313.5 C 334.117,319.598 333.45,325.265 331.5,330.5C 332.126,324.732 332.793,319.066 333.5,313.5 Z"/></g>
</svg>
