<?xml version="1.0" encoding="UTF-8"?>
<!DOCTYPE svg PUBLIC "-//W3C//DTD SVG 1.1//EN" "http://www.w3.org/Graphics/SVG/1.1/DTD/svg11.dtd">
<svg xmlns="http://www.w3.org/2000/svg" version="1.1" width="1000px" height="500px" style="shape-rendering:geometricPrecision; text-rendering:geometricPrecision; image-rendering:optimizeQuality; fill-rule:evenodd; clip-rule:evenodd" xmlns:xlink="http://www.w3.org/1999/xlink">
<g><path style="opacity:1" fill="#fefefe" d="M -0.5,-0.5 C 332.833,-0.5 666.167,-0.5 999.5,-0.5C 999.5,166.167 999.5,332.833 999.5,499.5C 666.167,499.5 332.833,499.5 -0.5,499.5C -0.5,332.833 -0.5,166.167 -0.5,-0.5 Z"/></g>
<g><path style="opacity:1" fill="#0f0f0f" d="M 759.5,189.5 C 761.144,189.286 762.644,189.62 764,190.5C 764.777,193.429 764.61,196.263 763.5,199C 765.155,200.444 765.822,202.278 765.5,204.5C 763.856,204.714 762.356,204.38 761,203.5C 758.315,207.927 754.482,209.76 749.5,209C 752.423,206.955 755.257,204.788 758,202.5C 755.642,197.949 756.142,193.615 759.5,189.5 Z"/></g>
<g><path style="opacity:1" fill="#d4d4d4" d="M 758.5,193.5 C 761.076,193.722 761.91,195.055 761,197.5C 759.519,196.529 758.685,195.196 758.5,193.5 Z"/></g>
<g><path style="opacity:1" fill="#171717" d="M 824.5,197.5 C 826.39,197.297 827.89,197.963 829,199.5C 829.562,201.866 829.396,204.199 828.5,206.5C 828.722,208.055 829.389,209.389 830.5,210.5C 830.081,211.672 829.415,212.672 828.5,213.5C 827.232,212.572 825.899,212.405 824.5,213C 822.315,215.588 819.648,217.421 816.5,218.5C 815.068,218.267 814.568,217.6 815,216.5C 817.333,214.833 819.667,213.167 822,211.5C 822.112,209.243 821.612,207.076 820.5,205C 820.927,201.977 822.261,199.477 824.5,197.5 Z"/></g>
<g><path style="opacity:1" fill="#d9d9d9" d="M 823.5,202.5 C 824.995,202.415 825.995,203.081 826.5,204.5C 824.604,205.639 823.604,204.973 823.5,202.5 Z"/></g>
<g><path style="opacity:1" fill="#0f0f0f" d="M 693.5,204.5 C 695.144,204.286 696.644,204.62 698,205.5C 698.777,208.429 698.61,211.263 697.5,214C 699.155,215.444 699.822,217.278 699.5,219.5C 697.856,219.714 696.356,219.38 695,218.5C 692.315,222.927 688.482,224.76 683.5,224C 686.423,221.955 689.257,219.788 692,217.5C 689.642,212.949 690.142,208.615 693.5,204.5 Z"/></g>
<g><path style="opacity:1" fill="#101010" d="M 790.5,206.5 C 791.675,206.281 792.675,206.614 793.5,207.5C 792.966,209.614 791.966,211.448 790.5,213C 777.381,217.471 765.215,223.638 754,231.5C 753.383,232.449 753.549,233.282 754.5,234C 768.813,240.322 781.48,248.989 792.5,260C 796.5,260.667 800.5,260.667 804.5,260C 806.976,258.691 808.976,256.858 810.5,254.5C 812.068,260.188 815.735,262.021 821.5,260C 824.893,258.778 827.56,256.611 829.5,253.5C 833.232,260.01 837.232,260.01 841.5,253.5C 844.411,260.154 849.411,262.32 856.5,260C 860.238,258.601 861.904,255.934 861.5,252C 859.284,239.883 857.784,227.716 857,215.5C 857.368,214.09 858.201,213.09 859.5,212.5C 863.272,215.25 863.772,218.25 861,221.5C 860.833,222.667 860.667,223.833 860.5,225C 863.159,235.354 863.992,245.854 863,256.5C 861.819,265.792 856.653,269.292 847.5,267C 844.527,265.235 842.36,262.735 841,259.5C 839.046,264.385 835.546,266.552 830.5,266C 828.951,264.786 827.785,263.286 827,261.5C 823.047,267.039 817.88,268.539 811.5,266C 810.382,264.926 809.382,263.76 808.5,262.5C 804.136,267.056 798.803,268.556 792.5,267C 786.314,261.313 779.981,255.813 773.5,250.5C 774.048,260.45 769.382,265.95 759.5,267C 754.177,267.499 748.844,267.666 743.5,267.5C 742.114,276.779 737.781,284.279 730.5,290C 723.938,292.443 717.938,291.443 712.5,287C 727.474,288.506 737.141,282.006 741.5,267.5C 737.612,267.655 734.112,266.655 731,264.5C 730.371,258.093 732.704,253.093 738,249.5C 742.199,251.888 744.365,255.555 744.5,260.5C 751.175,260.666 757.842,260.5 764.5,260C 770.733,259.141 772.566,255.974 770,250.5C 768.5,249 767,247.5 765.5,246C 761.423,244.213 757.59,242.046 754,239.5C 750.21,234.145 750.71,229.311 755.5,225C 766.658,217.755 778.325,211.589 790.5,206.5 Z"/></g>
<g><path style="opacity:1" fill="#d4d4d4" d="M 692.5,208.5 C 695.076,208.722 695.91,210.055 695,212.5C 693.519,211.529 692.685,210.196 692.5,208.5 Z"/></g>
<g><path style="opacity:1" fill="#181818" d="M 730.5,216.5 C 737.276,215.776 740.11,218.776 739,225.5C 736.928,230.143 733.428,231.643 728.5,230C 725.397,224.886 726.064,220.386 730.5,216.5 Z"/></g>
<g><path style="opacity:1" fill="#161616" d="M 829.5,216.5 C 831.934,220.154 832.1,224.154 830,228.5C 827.925,230.648 825.592,230.982 823,229.5C 821.029,233.186 818.195,234.186 814.5,232.5C 813.022,229.024 813.188,225.691 815,222.5C 815.333,224.167 815.667,225.833 816,227.5C 816.561,228.022 817.228,228.355 818,228.5C 820.153,225.903 821.653,222.903 822.5,219.5C 822.976,222.119 824.309,224.119 826.5,225.5C 828.264,222.785 829.264,219.785 829.5,216.5 Z"/></g>
<g><path style="opacity:1" fill="#1a1a1a" d="M 874.5,216.5 C 877.059,228.087 878.726,240.087 879.5,252.5C 879.541,257.725 878.708,262.725 877,267.5C 876.034,253.604 874.534,239.771 872.5,226C 873.068,222.8 873.735,219.633 874.5,216.5 Z"/></g>
<g><path style="opacity:1" fill="#181818" d="M 170.5,219.5 C 187.573,218.878 187.739,220.212 171,223.5C 170.51,222.207 170.343,220.873 170.5,219.5 Z"/></g>
<g><path style="opacity:1" fill="#ececec" d="M 730.5,219.5 C 734.837,219.969 736.504,222.135 735.5,226C 729.244,226.934 727.577,224.767 730.5,219.5 Z"/></g>
<g><path style="opacity:1" fill="#2f2f2f" d="M 315.5,220.5 C 316.239,220.369 316.906,220.536 317.5,221C 314.767,223.784 311.601,225.951 308,227.5C 307.383,226.551 307.549,225.718 308.5,225C 311.239,223.974 313.572,222.474 315.5,220.5 Z"/></g>
<g><path style="opacity:1" fill="#191919" d="M 196.5,239.5 C 195.833,237.5 195.167,235.5 194.5,233.5C 194.125,230.603 194.625,227.937 196,225.5C 196.465,226.931 197.299,228.097 198.5,229C 198,229.5 197.5,230 197,230.5C 196.502,233.482 196.335,236.482 196.5,239.5 Z"/></g>
<g><path style="opacity:1" fill="#151515" d="M 316.5,226.5 C 317.622,228.288 317.789,230.288 317,232.5C 314.528,233.2 312.195,234.2 310,235.5C 307.681,234.591 307.014,232.925 308,230.5C 308.71,231.973 309.876,232.64 311.5,232.5C 311.312,230.897 311.812,229.563 313,228.5C 315.351,231.043 316.517,230.377 316.5,226.5 Z"/></g>
<g><path style="opacity:1" fill="#161616" d="M 194.5,241.5 C 195.338,241.842 195.672,242.508 195.5,243.5C 194.278,247.165 194.278,250.831 195.5,254.5C 195.281,255.938 194.781,257.271 194,258.5C 190.943,259.451 187.777,259.784 184.5,259.5C 184.5,258.167 184.5,256.833 184.5,255.5C 188.002,255.833 190.336,254.333 191.5,251C 188.742,245.907 185.575,241.073 182,236.5C 176.526,236.134 174.693,233.134 176.5,227.5C 183.183,233.206 188.683,239.873 193,247.5C 193.813,245.564 194.313,243.564 194.5,241.5 Z"/></g>
<g><path style="opacity:1" fill="#202020" d="M 545.5,229.5 C 550.654,230.268 551.654,232.768 548.5,237C 543.917,237.934 542.417,236.1 544,231.5C 544.717,230.956 545.217,230.289 545.5,229.5 Z"/></g>
<g><path style="opacity:1" fill="#242424" d="M 441.5,227.5 C 442.774,228.189 442.774,229.023 441.5,230C 438.942,231.626 436.275,232.626 433.5,233C 436.059,230.897 438.726,229.064 441.5,227.5 Z"/></g>
<g><path style="opacity:1" fill="#202020" d="M 257.5,231.5 C 262.654,232.268 263.654,234.768 260.5,239C 255.917,239.934 254.417,238.1 256,233.5C 256.717,232.956 257.217,232.289 257.5,231.5 Z"/></g>
<g><path style="opacity:1" fill="#2e2e2e" d="M 344.5,230.5 C 346.255,237.081 347.255,243.914 347.5,251C 347.557,253.96 347.057,256.793 346,259.5C 345.386,251.643 344.553,243.81 343.5,236C 343.696,234.122 344.029,232.288 344.5,230.5 Z"/></g>
<g><path style="opacity:1" fill="#1d1d1d" d="M 590.5,256.5 C 589.833,254.5 589.167,252.5 588.5,250.5C 587.513,244.195 587.347,237.862 588,231.5C 589.968,239.715 590.801,248.049 590.5,256.5 Z"/></g>
<g><path style="opacity:1" fill="#1d1d1d" d="M 494.5,230.5 C 496.153,239.629 496.653,248.963 496,258.5C 495.405,251.627 494.572,244.794 493.5,238C 493.555,235.413 493.889,232.913 494.5,230.5 Z"/></g>
<g><path style="opacity:1" fill="#6a6a6a" d="M 194.5,233.5 C 195.167,235.5 195.833,237.5 196.5,239.5C 196.768,241.099 196.434,242.432 195.5,243.5C 195.672,242.508 195.338,241.842 194.5,241.5C 194.5,238.833 194.5,236.167 194.5,233.5 Z"/></g>
<g><path style="opacity:1" fill="#2d2d2d" d="M 204.5,230.5 C 207.22,239.97 207.72,249.637 206,259.5C 204.246,249.836 203.746,240.169 204.5,230.5 Z"/></g>
<g><path style="opacity:1" fill="#dddddd" d="M 257.5,233.5 C 262.663,235.424 262.663,236.591 257.5,237C 256.316,235.855 256.316,234.688 257.5,233.5 Z"/></g>
<g><path style="opacity:1" fill="#1d1d1d" d="M 467.5,227.5 C 468.5,227.5 469.5,227.5 470.5,227.5C 470.292,229.92 470.626,232.253 471.5,234.5C 468.636,235.207 466.136,236.541 464,238.5C 463.5,238.333 463,238.167 462.5,238C 466.236,236.784 467.236,234.451 465.5,231C 465.978,229.697 466.645,228.531 467.5,227.5 Z"/></g>
<g><path style="opacity:1" fill="#151515" d="M 694.5,236.5 C 700.642,237.832 701.142,240.499 696,244.5C 690.82,242.52 690.32,239.854 694.5,236.5 Z"/></g>
<g><path style="opacity:1" fill="#1d1d1d" d="M 157.5,238.5 C 158.995,238.415 159.995,239.081 160.5,240.5C 159.68,242.111 158.346,242.778 156.5,242.5C 156.433,241.041 156.766,239.708 157.5,238.5 Z"/></g>
<g><path style="opacity:1" fill="#040404" d="M 602.5,241.5 C 603.496,241.414 604.329,241.748 605,242.5C 605.494,244.134 605.66,245.801 605.5,247.5C 626.833,247.5 648.167,247.5 669.5,247.5C 669.5,248.833 669.5,250.167 669.5,251.5C 648.167,251.5 626.833,251.5 605.5,251.5C 605.949,253.977 605.283,255.977 603.5,257.5C 599.762,255.303 596.429,252.636 593.5,249.5C 596.344,246.591 599.344,243.924 602.5,241.5 Z"/></g>
<g><path style="opacity:1" fill="#111111" d="M 706.5,242.5 C 709.908,245.637 712.075,249.637 713,254.5C 715.629,276.88 706.129,285.38 684.5,280C 678.353,273.06 677.853,265.56 683,257.5C 680.16,269.662 684.994,275.495 697.5,275C 702.738,274.297 707.238,272.13 711,268.5C 711.667,265.833 711.667,263.167 711,260.5C 709.021,256.045 707.188,251.545 705.5,247C 705.773,245.467 706.106,243.967 706.5,242.5 Z"/></g>
<g><path style="opacity:1" fill="#171717" d="M 536.5,258.5 C 536.44,257.957 536.107,257.624 535.5,257.5C 534.52,260.086 534.187,262.753 534.5,265.5C 533.299,272.024 529.299,275.357 522.5,275.5C 517.692,275.024 515.358,272.357 515.5,267.5C 515.515,265.366 516.015,263.366 517,261.5C 517.496,263.035 517.33,264.535 516.5,266C 516.777,267.892 517.777,269.225 519.5,270C 524.436,271.123 528.936,270.29 533,267.5C 532.695,255.176 532.695,242.842 533,230.5C 533.838,238.569 535.004,246.569 536.5,254.5C 539.577,255.799 542.577,255.632 545.5,254C 541.553,249.827 542.72,247.327 549,246.5C 555.075,247.39 555.908,249.89 551.5,254C 555.026,255.337 558.692,255.837 562.5,255.5C 562.101,250.296 564.268,246.629 569,244.5C 569.772,244.645 570.439,244.978 571,245.5C 571.741,248.562 571.575,251.562 570.5,254.5C 573.941,256.006 577.108,255.673 580,253.5C 580.099,246.584 579.265,239.75 577.5,233C 577.626,227.995 578.96,227.495 581.5,231.5C 580.389,232.611 579.722,233.945 579.5,235.5C 580.749,239.914 581.416,244.414 581.5,249C 582.757,255.694 580.091,259.194 573.5,259.5C 570.68,259.422 568.013,258.755 565.5,257.5C 559.354,260.641 553.688,259.974 548.5,255.5C 545.002,258.937 541.002,259.937 536.5,258.5 Z"/></g>
<g><path style="opacity:1" fill="#1f1f1f" d="M 567.5,235.5 C 568.995,235.415 569.995,236.081 570.5,237.5C 569.68,239.111 568.346,239.778 566.5,239.5C 566.433,238.041 566.766,236.708 567.5,235.5 Z"/></g>
<g><path style="opacity:1" fill="#dddddd" d="M 545.5,231.5 C 550.663,233.424 550.663,234.591 545.5,235C 544.316,233.855 544.316,232.688 545.5,231.5 Z"/></g>
<g><path style="opacity:1" fill="#131313" d="M 142.5,262.5 C 142.523,260.4 141.856,258.567 140.5,257C 140.63,255.941 141.13,255.108 142,254.5C 147.599,256.324 152.766,255.49 157.5,252C 154.23,251.005 150.897,250.172 147.5,249.5C 149.441,246.666 152.107,245.832 155.5,247C 160.576,249.414 165.91,250.914 171.5,251.5C 171.291,252.086 170.957,252.586 170.5,253C 163.545,252.532 157.212,254.199 151.5,258C 148.937,259.079 146.271,259.579 143.5,259.5C 143.737,260.791 143.404,261.791 142.5,262.5 Z"/></g>
<g><path style="opacity:1" fill="#151515" d="M 229.5,260.5 C 230.927,257.236 233.261,254.736 236.5,253C 235.906,252.536 235.239,252.369 234.5,252.5C 232.5,251.833 230.5,251.167 228.5,250.5C 228.611,249.883 228.944,249.383 229.5,249C 232.817,248.502 236.15,248.335 239.5,248.5C 242.833,249.167 246.167,249.833 249.5,250.5C 248.21,251.935 246.544,252.935 244.5,253.5C 244.709,254.086 245.043,254.586 245.5,255C 249.833,255.667 254.167,255.667 258.5,255C 259.893,252.317 261.226,252.15 262.5,254.5C 267.893,256.034 272.893,255.201 277.5,252C 273.916,250.927 270.25,250.26 266.5,250C 267.729,247.551 269.729,246.384 272.5,246.5C 278.546,249.181 284.879,250.847 291.5,251.5C 290.286,253.069 288.619,253.902 286.5,254C 286.833,254.333 287.167,254.667 287.5,255C 291.5,255.667 295.5,255.667 299.5,255C 300.646,254.355 301.646,253.522 302.5,252.5C 304.441,255.334 307.107,256.168 310.5,255C 314.225,248.903 319.559,245.903 326.5,246C 329.129,249.199 328.796,252.199 325.5,255C 328.833,255.667 332.167,255.667 335.5,255C 336.643,247.51 336.309,240.01 334.5,232.5C 334.901,227.746 336.234,227.413 338.5,231.5C 337.104,232.852 336.437,234.519 336.5,236.5C 338.779,243.157 338.946,249.823 337,256.5C 336.167,257.333 335.333,258.167 334.5,259C 326.147,259.168 317.813,259.668 309.5,260.5C 307.993,264.355 307.326,264.021 307.5,259.5C 304.722,259.978 302.722,258.978 301.5,256.5C 300.646,257.522 299.646,258.355 298.5,259C 294.5,259.667 290.5,259.667 286.5,259C 284.845,257.556 284.178,255.722 284.5,253.5C 282.473,253.338 280.473,253.505 278.5,254C 274.272,256.532 269.772,258.365 265,259.5C 262.849,259.357 261.182,258.357 260,256.5C 259.097,257.701 257.931,258.535 256.5,259C 252.5,259.667 248.5,259.667 244.5,259C 242.845,257.556 242.178,255.722 242.5,253.5C 237.486,254.502 233.152,256.835 229.5,260.5 Z"/></g>
<g><path style="opacity:1" fill="#858585" d="M 239.5,248.5 C 243.226,248.177 246.893,248.511 250.5,249.5C 250.376,250.107 250.043,250.44 249.5,250.5C 246.167,249.833 242.833,249.167 239.5,248.5 Z"/></g>
<g><path style="opacity:1" fill="#e5e5e5" d="M 565.5,248.5 C 566.873,248.343 568.207,248.51 569.5,249C 570.451,249.718 570.617,250.551 570,251.5C 565.652,254.558 564.152,253.558 565.5,248.5 Z"/></g>
<g><path style="opacity:1" fill="#eaeaea" d="M 318.5,249.5 C 320.527,249.338 322.527,249.505 324.5,250C 325.833,251 325.833,252 324.5,253C 320.682,254.944 316.682,255.611 312.5,255C 314.342,252.926 316.342,251.093 318.5,249.5 Z"/></g>
<g><path style="opacity:1" fill="#787878" d="M 228.5,250.5 C 230.5,251.167 232.5,251.833 234.5,252.5C 232.076,252.808 229.743,252.474 227.5,251.5C 227.624,250.893 227.957,250.56 228.5,250.5 Z"/></g>
<g><path style="opacity:1" fill="#161616" d="M 484.5,228.5 C 486.121,228.787 487.121,229.787 487.5,231.5C 487.182,239.449 487.016,247.449 487,255.5C 483.596,259.984 479.43,260.651 474.5,257.5C 473.719,258.737 472.719,259.737 471.5,260.5C 469.167,259.167 466.833,257.833 464.5,256.5C 463.3,257.531 461.966,258.365 460.5,259C 452.5,259.333 444.5,259.667 436.5,260C 435.118,264.705 434.451,264.539 434.5,259.5C 431.675,259.919 429.509,258.919 428,256.5C 424.61,260.032 420.943,260.366 417,257.5C 414.791,248.578 414.291,239.578 415.5,230.5C 416.359,238.859 417.359,247.192 418.5,255.5C 422.721,256.192 426.387,255.192 429.5,252.5C 431.503,255.505 434.17,256.172 437.5,254.5C 441.408,248.712 446.742,245.878 453.5,246C 455.19,249.525 454.524,252.525 451.5,255C 455.167,255.667 458.833,255.667 462.5,255C 464.385,252.778 466.551,250.944 469,249.5C 471.489,251.319 473.989,253.152 476.5,255C 479.167,255.667 481.833,255.667 484.5,255C 485.98,253.701 486.646,252.034 486.5,250C 485.142,242.894 484.475,235.727 484.5,228.5 Z"/></g>
<g><path style="opacity:1" fill="#dfdfdf" d="M 468.5,251.5 C 470.377,252.659 470.877,254.326 470,256.5C 468.926,255.382 467.76,254.382 466.5,253.5C 467.243,252.818 467.909,252.151 468.5,251.5 Z"/></g>
<g><path style="opacity:1" fill="#e9e9e9" d="M 445.5,249.5 C 454.671,250.555 454.671,252.388 445.5,255C 443.167,255.667 440.833,255.667 438.5,255C 440.54,252.664 442.873,250.831 445.5,249.5 Z"/></g>
<g><path style="opacity:1" fill="#1f1f1f" d="M 440.5,238.5 C 443.78,239.732 444.114,241.399 441.5,243.5C 439.296,242.218 438.962,240.551 440.5,238.5 Z"/></g>
<g><path style="opacity:1" fill="#cdcdcd" d="M 191.5,253.5 C 193.337,253.639 193.67,254.306 192.5,255.5C 191.702,255.043 191.369,254.376 191.5,253.5 Z"/></g>
<g><path style="opacity:1" fill="#f1f1f1" d="M 734.5,256.5 C 737.278,256.022 739.278,257.022 740.5,259.5C 736.857,261.395 734.857,260.395 734.5,256.5 Z"/></g>
<g><path style="opacity:1" fill="#7c7c7c" d="M 588.5,250.5 C 589.167,252.5 589.833,254.5 590.5,256.5C 590.539,257.756 590.039,258.756 589,259.5C 588.502,256.518 588.335,253.518 588.5,250.5 Z"/></g>
<g><path style="opacity:1" fill="#8f8f8f" d="M 536.5,258.5 C 535.833,260.833 535.167,263.167 534.5,265.5C 534.187,262.753 534.52,260.086 535.5,257.5C 536.107,257.624 536.44,257.957 536.5,258.5 Z"/></g>
<g><path style="opacity:1" fill="#1d1d1d" d="M 260.5,262.5 C 263.709,263.297 264.209,264.963 262,267.5C 260.437,264.956 258.937,264.956 257.5,267.5C 253.793,266.687 253.627,265.354 257,263.5C 258.922,265.105 260.089,264.772 260.5,262.5 Z"/></g>
<g><path style="opacity:1" fill="#232323" d="M 406.5,249.5 C 408.548,251.456 409.548,253.956 409.5,257C 409.139,263.062 406.473,267.729 401.5,271C 398.697,271.755 396.03,271.422 393.5,270C 399.087,269.456 403.587,266.956 407,262.5C 407.747,259.147 407.247,255.98 405.5,253C 405.989,251.862 406.322,250.695 406.5,249.5 Z"/></g>
<g><path style="opacity:1" fill="#1d1d1d" d="M 142.5,262.5 C 141.005,270.742 136.338,273.576 128.5,271C 134.644,270.435 139.311,267.602 142.5,262.5 Z"/></g>
<g><path style="opacity:1" fill="#232323" d="M 161.5,264.5 C 163.842,264.775 163.842,265.608 161.5,267C 159.254,268.039 157.087,269.206 155,270.5C 154.383,269.551 154.549,268.718 155.5,268C 157.727,267.059 159.727,265.892 161.5,264.5 Z"/></g>
<g><path style="opacity:1" fill="#131313" d="M 229.5,260.5 C 226.437,268.874 229.104,274.374 237.5,277C 242.5,277.333 247.5,277.667 252.5,278C 245.14,281.286 237.807,281.286 230.5,278C 226.809,273.865 225.642,269.031 227,263.5C 227.377,262.058 228.21,261.058 229.5,260.5 Z"/></g>
<g><path style="opacity:1" fill="#161616" d="M 373.5,240.5 C 380.131,241.317 380.131,242.484 373.5,244C 369.281,247.754 370.115,249.92 376,250.5C 379.24,249.189 382.407,248.022 385.5,247C 380.573,251.048 375.74,255.215 371,259.5C 367.181,269.034 370.348,274.867 380.5,277C 385.535,277.418 390.535,277.418 395.5,277C 389.485,280.035 383.152,281.035 376.5,280C 368.77,277.041 365.937,271.541 368,263.5C 369.002,259.836 370.836,256.669 373.5,254C 370.797,253.135 369.464,251.301 369.5,248.5C 370.293,245.58 371.626,242.914 373.5,240.5 Z"/></g>
<g><path style="opacity:1" fill="#232323" d="M 567.5,265.5 C 569.842,265.775 569.842,266.608 567.5,268C 565.254,269.039 563.087,270.206 561,271.5C 560.383,270.551 560.549,269.718 561.5,269C 563.727,268.059 565.727,266.892 567.5,265.5 Z"/></g>
<g><path style="opacity:1" fill="#282828" d="M 282.5,264.5 C 283.774,265.189 283.774,266.023 282.5,267C 279.475,268.688 276.475,270.021 273.5,271C 276.402,268.583 279.402,266.416 282.5,264.5 Z"/></g>
<g><path style="opacity:1" fill="#1e1e1e" d="M 404.5,274.5 C 405.774,275.189 405.774,276.023 404.5,277C 401.623,278.946 398.623,280.279 395.5,281C 398.567,278.812 401.567,276.645 404.5,274.5 Z"/></g>
<g><path style="opacity:1" fill="#2c2c2c" d="M 139.5,275.5 C 141.337,275.639 141.67,276.306 140.5,277.5C 130.348,282.53 130.015,281.863 139.5,275.5 Z"/></g>
<g><path style="opacity:1" fill="#2c2c2c" d="M 527.5,277.5 C 529.337,277.639 529.67,278.306 528.5,279.5C 518.348,284.53 518.015,283.863 527.5,277.5 Z"/></g>
<g><path style="opacity:1" fill="#2c2c2c" d="M 239.5,284.5 C 241.337,284.639 241.67,285.306 240.5,286.5C 230.348,291.53 230.015,290.863 239.5,284.5 Z"/></g>
<g><path style="opacity:1" fill="#282828" d="M 379.5,283.5 C 380.774,284.189 380.774,285.023 379.5,286C 376.475,287.688 373.475,289.021 370.5,290C 373.402,287.583 376.402,285.416 379.5,283.5 Z"/></g>
</svg>
