<?xml version="1.0" encoding="UTF-8"?>
<!DOCTYPE svg PUBLIC "-//W3C//DTD SVG 1.1//EN" "http://www.w3.org/Graphics/SVG/1.1/DTD/svg11.dtd">
<svg xmlns="http://www.w3.org/2000/svg" version="1.1" width="1000px" height="500px" style="shape-rendering:geometricPrecision; text-rendering:geometricPrecision; image-rendering:optimizeQuality; fill-rule:evenodd; clip-rule:evenodd" xmlns:xlink="http://www.w3.org/1999/xlink">
<g><path style="opacity:1" fill="#fefefe" d="M -0.5,-0.5 C 332.833,-0.5 666.167,-0.5 999.5,-0.5C 999.5,166.167 999.5,332.833 999.5,499.5C 666.167,499.5 332.833,499.5 -0.5,499.5C -0.5,332.833 -0.5,166.167 -0.5,-0.5 Z"/></g>
<g><path style="opacity:1" fill="#101010" d="M 363.5,184.5 C 364.5,184.5 365.5,184.5 366.5,184.5C 366.292,186.92 366.626,189.253 367.5,191.5C 364.636,192.207 362.136,193.541 360,195.5C 359.5,195.333 359,195.167 358.5,195C 363.239,192.933 364.906,189.433 363.5,184.5 Z"/></g>
<g><path style="opacity:1" fill="#878787" d="M 363.5,186.5 C 365.337,186.639 365.67,187.306 364.5,188.5C 363.702,188.043 363.369,187.376 363.5,186.5 Z"/></g>
<g><path style="opacity:1" fill="#1d1d1d" d="M 400.5,188.5 C 402.252,188.418 403.252,189.251 403.5,191C 402.804,193.118 402.637,195.284 403,197.5C 401.129,196.332 399.629,196.832 398.5,199C 397.5,199.667 396.5,199.667 395.5,199C 399.112,197.92 400.112,195.753 398.5,192.5C 398.752,190.927 399.418,189.594 400.5,188.5 Z"/></g>
<g><path style="opacity:1" fill="#181818" d="M 649.5,192.5 C 656.276,191.776 659.11,194.776 658,201.5C 655.928,206.143 652.428,207.643 647.5,206C 644.397,200.886 645.064,196.386 649.5,192.5 Z"/></g>
<g><path style="opacity:1" fill="#ececec" d="M 649.5,195.5 C 653.837,195.969 655.504,198.135 654.5,202C 648.244,202.934 646.577,200.767 649.5,195.5 Z"/></g>
<g><path style="opacity:1" fill="#161616" d="M 347.5,198.5 C 352.668,199.339 353.668,201.839 350.5,206C 345.917,206.934 344.417,205.1 346,200.5C 346.717,199.956 347.217,199.289 347.5,198.5 Z"/></g>
<g><path style="opacity:1" fill="#1d1d1d" d="M 431.5,224.5 C 430.833,222.5 430.167,220.5 429.5,218.5C 428.513,212.195 428.347,205.862 429,199.5C 430.968,207.715 431.801,216.049 431.5,224.5 Z"/></g>
<g><path style="opacity:1" fill="#1d1d1d" d="M 326.5,192.5 C 327.5,192.5 328.5,192.5 329.5,192.5C 329.292,194.92 329.626,197.253 330.5,199.5C 327.636,200.207 325.136,201.541 323,203.5C 322.5,203.333 322,203.167 321.5,203C 325.236,201.784 326.236,199.451 324.5,196C 324.978,194.697 325.645,193.531 326.5,192.5 Z"/></g>
<g><path style="opacity:1" fill="#dcdcdc" d="M 347.5,200.5 C 352.663,202.424 352.663,203.591 347.5,204C 346.316,202.855 346.316,201.688 347.5,200.5 Z"/></g>
<g><path style="opacity:1" fill="#171717" d="M 379.5,193.5 C 380.5,193.5 381.5,193.5 382.5,193.5C 382.719,194.675 382.386,195.675 381.5,196.5C 374.325,198.887 367.658,202.22 361.5,206.5C 360.479,207.002 360.312,207.668 361,208.5C 368.944,212.219 376.111,217.052 382.5,223C 386.389,224.14 389.722,223.307 392.5,220.5C 396.394,224.533 400.061,224.199 403.5,219.5C 404.386,220.325 404.719,221.325 404.5,222.5C 407.238,223.035 409.072,222.035 410,219.5C 412.903,223.964 416.57,224.631 421,221.5C 421.099,214.584 420.265,207.75 418.5,201C 418.626,195.995 419.96,195.495 422.5,199.5C 421.389,200.611 420.722,201.945 420.5,203.5C 422.3,210.071 422.8,216.738 422,223.5C 418.049,228.818 414.049,228.818 410,223.5C 407.633,226.932 404.966,227.265 402,224.5C 398.735,227.924 395.235,228.257 391.5,225.5C 388.711,227.298 385.711,227.798 382.5,227C 379.02,224.354 375.686,221.521 372.5,218.5C 372.072,221.522 370.739,224.022 368.5,226C 363.915,227.225 359.248,227.725 354.5,227.5C 353.241,237.647 347.908,241.48 338.5,239C 345.956,238.944 350.956,235.444 353.5,228.5C 346.045,225.883 345.545,222.216 352,217.5C 353.649,218.786 354.815,220.453 355.5,222.5C 373.587,224.404 375.087,220.404 360,210.5C 358.824,206.74 359.99,203.907 363.5,202C 369.053,199.392 374.387,196.559 379.5,193.5 Z"/></g>
<g><path style="opacity:1" fill="#181818" d="M 403.5,199.5 C 404.754,201.357 404.754,203.357 403.5,205.5C 400.827,206.759 398.161,207.592 395.5,208C 394.424,206.274 394.257,204.441 395,202.5C 395.249,203.624 395.749,204.624 396.5,205.5C 397.852,204.482 398.852,203.149 399.5,201.5C 402.147,204.18 403.48,203.513 403.5,199.5 Z"/></g>
<g><path style="opacity:1" fill="#242424" d="M 326.5,209.5 C 329.709,210.297 330.209,211.963 328,214.5C 327.075,213.953 326.242,213.287 325.5,212.5C 326.127,211.583 326.461,210.583 326.5,209.5 Z"/></g>
<g><path style="opacity:1" fill="#101010" d="M 442.5,213.5 C 444.167,213.5 445.833,213.5 447.5,213.5C 447.007,215.806 446.674,218.139 446.5,220.5C 472.502,229.223 498.502,238.056 524.5,247C 527.167,248.667 527.167,250.333 524.5,252C 498.167,261 471.833,270 445.5,279C 445.216,280.956 445.216,283.123 445.5,285.5C 440.579,285.472 436.246,283.972 432.5,281C 434.242,277.517 436.242,274.184 438.5,271C 439.5,270.333 440.5,270.333 441.5,271C 442.147,272.609 442.98,274.109 444,275.5C 468.554,266.927 493.054,258.26 517.5,249.5C 493.738,240.745 469.905,232.078 446,223.5C 444.498,225.175 442.998,226.841 441.5,228.5C 438.386,225.718 436.053,222.385 434.5,218.5C 434.608,217.558 434.941,216.725 435.5,216C 438.004,215.302 440.337,214.469 442.5,213.5 Z"/></g>
<g><path style="opacity:1" fill="#0f0f0f" d="M 573.5,214.5 C 580.825,213.992 583.658,217.326 582,224.5C 579.839,228.124 576.672,229.291 572.5,228C 569.729,223.318 570.062,218.818 573.5,214.5 Z"/></g>
<g><path style="opacity:1" fill="#101010" d="M 672.5,212.5 C 674.943,213.499 676.609,215.332 677.5,218C 675.814,220.208 674.814,222.708 674.5,225.5C 675.964,232.818 677.297,240.151 678.5,247.5C 678.296,253.062 677.129,258.395 675,263.5C 670.865,267.191 666.031,268.358 660.5,267C 657.636,264.771 655.636,261.937 654.5,258.5C 652.984,262.047 650.651,264.881 647.5,267C 641.833,267.667 636.167,267.667 630.5,267C 624.833,265.625 623.166,262.292 625.5,257C 622.833,256.333 620.167,256.333 617.5,257C 609.898,259.802 602.565,263.135 595.5,267C 592.447,267.179 589.447,267.679 586.5,268.5C 585.41,276.18 582.077,282.68 576.5,288C 570.833,290 565.167,290 559.5,288C 571.566,287.25 579.566,281.25 583.5,270C 582.551,267.694 581.551,265.361 580.5,263C 581.196,261.107 582.03,259.274 583,257.5C 583.833,258.333 584.667,259.167 585.5,260C 589.833,260.667 594.167,260.667 598.5,260C 603.604,258.613 608.604,256.946 613.5,255C 607.552,251.338 601.218,250.171 594.5,251.5C 593.417,250.635 593.251,249.635 594,248.5C 595.909,245.586 598.575,243.919 602,243.5C 607.974,245.269 613.808,247.436 619.5,250C 625.101,251.217 630.768,251.717 636.5,251.5C 636.579,252.93 636.246,254.264 635.5,255.5C 633.167,256.167 630.833,256.833 628.5,257.5C 628.977,258.478 629.643,259.311 630.5,260C 636.833,260.667 643.167,260.667 649.5,260C 651.049,258.786 652.215,257.286 653,255.5C 653.572,244.128 653.072,232.794 651.5,221.5C 651.667,219.5 651.833,217.5 652,215.5C 652.414,215.043 652.914,214.709 653.5,214.5C 655.218,226.431 656.385,238.431 657,250.5C 657.833,259.656 662.666,262.823 671.5,260C 674.685,258.296 676.019,255.63 675.5,252C 673.962,241.309 672.295,230.643 670.5,220C 670.739,217.365 671.406,214.865 672.5,212.5 Z"/></g>
<g><path style="opacity:1" fill="#e0e0e0" d="M 573.5,217.5 C 576.683,217.929 579.016,219.596 580.5,222.5C 576.8,225.525 573.8,225.025 571.5,221C 571.978,219.697 572.645,218.531 573.5,217.5 Z"/></g>
<g><path style="opacity:1" fill="#151515" d="M 614.5,217.5 C 615.799,219.153 615.466,220.653 613.5,222C 609.167,224.167 604.833,226.333 600.5,228.5C 600.167,228.167 599.833,227.833 599.5,227.5C 604.013,223.412 609.013,220.079 614.5,217.5 Z"/></g>
<g><path style="opacity:1" fill="#e7e7e7" d="M 349.5,222.5 C 350.849,221.203 352.182,221.37 353.5,223C 352.072,223.579 350.738,223.412 349.5,222.5 Z"/></g>
<g><path style="opacity:1" fill="#7c7c7c" d="M 429.5,218.5 C 430.167,220.5 430.833,222.5 431.5,224.5C 431.539,225.756 431.039,226.756 430,227.5C 429.502,224.518 429.335,221.518 429.5,218.5 Z"/></g>
<g><path style="opacity:1" fill="#1f1f1f" d="M 333.5,213.5 C 338.234,218.255 339.401,223.921 337,230.5C 332.402,235.645 326.902,236.812 320.5,234C 317.938,229.482 318.105,224.982 321,220.5C 320.435,223.712 320.602,226.879 321.5,230C 326.627,232.124 331.46,231.624 336,228.5C 336.12,223.353 335.286,218.353 333.5,213.5 Z"/></g>
<g><path style="opacity:1" fill="#0f0f0f" d="M 546.5,241.5 C 556.803,242.126 561.136,247.459 559.5,257.5C 555.541,258.327 551.541,258.827 547.5,259C 539.969,260.62 537.469,265.12 540,272.5C 542.142,280.426 543.975,288.426 545.5,296.5C 545.523,298.067 545.023,299.4 544,300.5C 541.126,289.963 538.959,279.296 537.5,268.5C 536.462,258.564 540.795,252.564 550.5,250.5C 549.562,249.447 548.395,248.78 547,248.5C 545.263,249.62 543.429,250.62 541.5,251.5C 541.167,251.167 540.833,250.833 540.5,250.5C 541.766,246.955 543.766,243.955 546.5,241.5 Z"/></g>
<g><path style="opacity:1" fill="#161616" d="M 581.5,243.5 C 583.358,244.595 585.025,245.929 586.5,247.5C 585.139,249.028 583.972,250.695 583,252.5C 577.563,250.3 577.063,247.3 581.5,243.5 Z"/></g>
<g><path style="opacity:1" fill="#222222" d="M 368.5,246.5 C 373.942,246.886 375.275,249.386 372.5,254C 370.866,254.494 369.199,254.66 367.5,254.5C 367.351,253.448 367.517,252.448 368,251.5C 369.356,252.38 370.856,252.714 372.5,252.5C 372.278,249.315 370.778,248.315 368,249.5C 367.53,248.423 367.697,247.423 368.5,246.5 Z"/></g>
<g><path style="opacity:1" fill="#101010" d="M 335.5,253.5 C 336.5,253.5 337.5,253.5 338.5,253.5C 338.292,255.92 338.626,258.253 339.5,260.5C 336.636,261.207 334.136,262.541 332,264.5C 331.5,264.333 331,264.167 330.5,264C 335.239,261.933 336.906,258.433 335.5,253.5 Z"/></g>
<g><path style="opacity:1" fill="#878787" d="M 335.5,255.5 C 337.337,255.639 337.67,256.306 336.5,257.5C 335.702,257.043 335.369,256.376 335.5,255.5 Z"/></g>
<g><path style="opacity:1" fill="#141414" d="M 373.5,261.5 C 376.861,262.203 377.194,263.537 374.5,265.5C 372.358,264.563 372.024,263.23 373.5,261.5 Z"/></g>
<g><path style="opacity:1" fill="#212121" d="M 350.5,262.5 C 354.541,262.502 355.208,263.835 352.5,266.5C 351.5,266 350.5,265.5 349.5,265C 350.252,264.329 350.586,263.496 350.5,262.5 Z"/></g>
<g><path style="opacity:1" fill="#282828" d="M 396.5,263.5 C 398.842,263.775 398.842,264.608 396.5,266C 393.942,267.626 391.275,268.626 388.5,269C 391.07,266.913 393.737,265.08 396.5,263.5 Z"/></g>
<g><path style="opacity:1" fill="#1d1d1d" d="M 427.5,262.5 C 429.153,271.629 429.653,280.963 429,290.5C 428.405,283.627 427.572,276.794 426.5,270C 426.555,267.413 426.889,264.913 427.5,262.5 Z"/></g>
<g><path style="opacity:1" fill="#121212" d="M 615.5,273.5 C 620.472,273.952 621.472,276.119 618.5,280C 612.136,280.109 611.136,277.943 615.5,273.5 Z"/></g>
<g><path style="opacity:1" fill="#191919" d="M 678.5,274.5 C 679.522,275.892 679.189,277.225 677.5,278.5C 673.326,281.088 668.993,283.421 664.5,285.5C 663.269,284.349 663.269,283.183 664.5,282C 669.387,279.726 674.054,277.226 678.5,274.5 Z"/></g>
<g><path style="opacity:1" fill="#181818" d="M 418.5,260.5 C 419.88,260.962 420.547,261.962 420.5,263.5C 420.059,265.145 419.726,266.811 419.5,268.5C 421.776,275.133 421.942,281.8 420,288.5C 419.167,289.333 418.333,290.167 417.5,291C 412.442,292.01 407.609,291.51 403,289.5C 402.51,288.207 402.343,286.873 402.5,285.5C 395.753,286.795 389.253,288.795 383,291.5C 379.18,291.353 376.847,289.353 376,285.5C 373.103,290.155 368.937,291.655 363.5,290C 362.115,288.035 362.282,286.202 364,284.5C 364.758,286.91 366.425,287.91 369,287.5C 371.667,287.833 373.667,286.833 375,284.5C 375.591,280.709 375.091,277.042 373.5,273.5C 373.719,272.062 374.219,270.729 375,269.5C 376.097,275.213 377.597,280.879 379.5,286.5C 385.24,288.104 390.573,287.271 395.5,284C 392.23,283.005 388.897,282.172 385.5,281.5C 386.412,279.257 388.078,278.257 390.5,278.5C 396.573,281.08 402.906,282.413 409.5,282.5C 409.5,283.5 409.5,284.5 409.5,285.5C 407.801,285.34 406.134,285.506 404.5,286C 409.037,287.819 413.703,287.986 418.5,286.5C 418.702,277.773 418.702,269.106 418.5,260.5 Z"/></g>
<g><path style="opacity:1" fill="#626262" d="M 322.5,284.5 C 321.833,283.833 321.167,283.167 320.5,282.5C 320.795,280.577 321.628,278.91 323,277.5C 322.793,279.751 322.627,282.085 322.5,284.5 Z"/></g>
<g><path style="opacity:1" fill="#161616" d="M 320.5,282.5 C 321.167,283.167 321.833,283.833 322.5,284.5C 323.058,285.79 324.058,286.623 325.5,287C 334.457,288.298 343.123,287.298 351.5,284C 353.813,283.359 355.48,282.026 356.5,280C 356.167,279.5 355.833,279 355.5,278.5C 350.242,281.987 348.075,280.653 349,274.5C 351.764,269.3 354.43,269.3 357,274.5C 359.019,283.166 355.519,287.999 346.5,289C 339.649,291.245 332.649,291.912 325.5,291C 321.512,289.516 319.846,286.683 320.5,282.5 Z"/></g>
<g><path style="opacity:1" fill="#e3e3e3" d="M 350.5,274.5 C 351.675,274.281 352.675,274.614 353.5,275.5C 351.948,276.798 350.948,276.465 350.5,274.5 Z"/></g>
<g><path style="opacity:1" fill="#171717" d="M 549.5,301.5 C 550.376,301.369 551.043,301.702 551.5,302.5C 550.687,303.814 549.687,304.981 548.5,306C 544,308.5 539.5,311 535,313.5C 534.289,311.633 534.789,310.133 536.5,309C 541.223,306.978 545.557,304.478 549.5,301.5 Z"/></g>
</svg>
