<?xml version="1.0" encoding="UTF-8"?>
<!DOCTYPE svg PUBLIC "-//W3C//DTD SVG 1.1//EN" "http://www.w3.org/Graphics/SVG/1.1/DTD/svg11.dtd">
<svg xmlns="http://www.w3.org/2000/svg" version="1.1" width="1000px" height="500px" style="shape-rendering:geometricPrecision; text-rendering:geometricPrecision; image-rendering:optimizeQuality; fill-rule:evenodd; clip-rule:evenodd" xmlns:xlink="http://www.w3.org/1999/xlink">
<g><path style="opacity:1" fill="#fefefe" d="M -0.5,-0.5 C 332.833,-0.5 666.167,-0.5 999.5,-0.5C 999.5,166.167 999.5,332.833 999.5,499.5C 666.167,499.5 332.833,499.5 -0.5,499.5C -0.5,332.833 -0.5,166.167 -0.5,-0.5 Z"/></g>
<g><path style="opacity:1" fill="#181818" d="M 160.5,178.5 C 177.573,177.878 177.739,179.212 161,182.5C 160.51,181.207 160.343,179.873 160.5,178.5 Z"/></g>
<g><path style="opacity:1" fill="#2f2f2f" d="M 305.5,179.5 C 306.239,179.369 306.906,179.536 307.5,180C 304.767,182.784 301.601,184.951 298,186.5C 297.383,185.551 297.549,184.718 298.5,184C 301.239,182.974 303.572,181.474 305.5,179.5 Z"/></g>
<g><path style="opacity:1" fill="#191919" d="M 186.5,198.5 C 185.833,196.5 185.167,194.5 184.5,192.5C 184.125,189.603 184.625,186.937 186,184.5C 186.465,185.931 187.299,187.097 188.5,188C 188,188.5 187.5,189 187,189.5C 186.502,192.482 186.335,195.482 186.5,198.5 Z"/></g>
<g><path style="opacity:1" fill="#151515" d="M 306.5,185.5 C 307.622,187.288 307.789,189.288 307,191.5C 304.528,192.2 302.195,193.2 300,194.5C 297.681,193.591 297.014,191.925 298,189.5C 298.71,190.973 299.876,191.64 301.5,191.5C 301.312,189.897 301.812,188.563 303,187.5C 305.351,190.043 306.517,189.377 306.5,185.5 Z"/></g>
<g><path style="opacity:1" fill="#161616" d="M 184.5,200.5 C 185.338,200.842 185.672,201.508 185.5,202.5C 184.278,206.165 184.278,209.831 185.5,213.5C 185.281,214.938 184.781,216.271 184,217.5C 180.943,218.451 177.777,218.784 174.5,218.5C 174.5,217.167 174.5,215.833 174.5,214.5C 178.002,214.833 180.336,213.333 181.5,210C 178.742,204.907 175.575,200.073 172,195.5C 166.526,195.134 164.693,192.134 166.5,186.5C 173.183,192.206 178.683,198.873 183,206.5C 183.813,204.564 184.313,202.564 184.5,200.5 Z"/></g>
<g><path style="opacity:1" fill="#202020" d="M 535.5,188.5 C 540.654,189.268 541.654,191.768 538.5,196C 533.917,196.934 532.417,195.1 534,190.5C 534.717,189.956 535.217,189.289 535.5,188.5 Z"/></g>
<g><path style="opacity:1" fill="#242424" d="M 431.5,186.5 C 432.774,187.189 432.774,188.023 431.5,189C 428.942,190.626 426.275,191.626 423.5,192C 426.059,189.897 428.726,188.064 431.5,186.5 Z"/></g>
<g><path style="opacity:1" fill="#202020" d="M 247.5,190.5 C 252.654,191.268 253.654,193.768 250.5,198C 245.917,198.934 244.417,197.1 246,192.5C 246.717,191.956 247.217,191.289 247.5,190.5 Z"/></g>
<g><path style="opacity:1" fill="#2e2e2e" d="M 334.5,189.5 C 336.255,196.081 337.255,202.914 337.5,210C 337.557,212.96 337.057,215.793 336,218.5C 335.386,210.643 334.553,202.81 333.5,195C 333.696,193.122 334.029,191.288 334.5,189.5 Z"/></g>
<g><path style="opacity:1" fill="#1d1d1d" d="M 580.5,215.5 C 579.833,213.5 579.167,211.5 578.5,209.5C 577.513,203.195 577.347,196.862 578,190.5C 579.968,198.715 580.801,207.049 580.5,215.5 Z"/></g>
<g><path style="opacity:1" fill="#1d1d1d" d="M 484.5,189.5 C 486.153,198.629 486.653,207.963 486,217.5C 485.405,210.627 484.572,203.794 483.5,197C 483.555,194.413 483.889,191.913 484.5,189.5 Z"/></g>
<g><path style="opacity:1" fill="#6a6a6a" d="M 184.5,192.5 C 185.167,194.5 185.833,196.5 186.5,198.5C 186.768,200.099 186.434,201.432 185.5,202.5C 185.672,201.508 185.338,200.842 184.5,200.5C 184.5,197.833 184.5,195.167 184.5,192.5 Z"/></g>
<g><path style="opacity:1" fill="#2d2d2d" d="M 194.5,189.5 C 197.22,198.97 197.72,208.637 196,218.5C 194.246,208.836 193.746,199.169 194.5,189.5 Z"/></g>
<g><path style="opacity:1" fill="#dddddd" d="M 247.5,192.5 C 252.663,194.424 252.663,195.591 247.5,196C 246.316,194.855 246.316,193.688 247.5,192.5 Z"/></g>
<g><path style="opacity:1" fill="#1d1d1d" d="M 457.5,187.5 C 458.5,187.5 459.5,187.5 460.5,187.5C 460.292,189.92 460.626,192.253 461.5,194.5C 458.636,195.207 456.136,196.541 454,198.5C 453.5,198.333 453,198.167 452.5,198C 456.236,196.784 457.236,194.451 455.5,191C 455.978,189.697 456.645,188.531 457.5,187.5 Z"/></g>
<g><path style="opacity:1" fill="#767676" d="M 522.5,190.5 C 522.56,189.957 522.893,189.624 523.5,189.5C 524.487,192.768 524.82,196.102 524.5,199.5C 523.833,196.5 523.167,193.5 522.5,190.5 Z"/></g>
<g><path style="opacity:1" fill="#141414" d="M 147.5,197.5 C 150.861,198.203 151.194,199.537 148.5,201.5C 146.358,200.563 146.024,199.23 147.5,197.5 Z"/></g>
<g><path style="opacity:1" fill="#121212" d="M 781.5,192.5 C 788.555,192.25 791.055,195.583 789,202.5C 786.947,206.292 783.781,207.458 779.5,206C 776.409,200.799 777.075,196.299 781.5,192.5 Z"/></g>
<g><path style="opacity:1" fill="#e6e6e6" d="M 780.5,195.5 C 785.102,195.428 787.102,197.428 786.5,201.5C 780.487,203.454 778.487,201.454 780.5,195.5 Z"/></g>
<g><path style="opacity:1" fill="#171717" d="M 522.5,190.5 C 523.167,193.5 523.833,196.5 524.5,199.5C 524.485,204.588 525.485,209.421 527.5,214C 530.303,214.755 532.97,214.422 535.5,213C 531.553,208.827 532.72,206.327 539,205.5C 545.075,206.39 545.908,208.89 541.5,213C 545.026,214.337 548.692,214.837 552.5,214.5C 552.054,211.99 552.72,209.99 554.5,208.5C 557.372,201.97 560.038,201.97 562.5,208.5C 562.113,210.274 561.447,211.941 560.5,213.5C 563.941,215.006 567.108,214.673 570,212.5C 569.977,205.993 569.477,199.493 568.5,193C 568.833,191.167 569.167,189.333 569.5,187.5C 570.415,188.328 571.081,189.328 571.5,190.5C 571.182,198.449 571.016,206.449 571,214.5C 569.471,217.516 566.971,218.849 563.5,218.5C 560.68,218.422 558.013,217.755 555.5,216.5C 549.354,219.641 543.688,218.974 538.5,214.5C 535.029,217.917 531.029,218.917 526.5,217.5C 526.485,229.017 520.819,234.517 509.5,234C 504.594,229.148 504.26,223.981 508.5,218.5C 508.833,218.667 509.167,218.833 509.5,219C 505.588,228.098 508.588,231.432 518.5,229C 520.329,228.727 521.829,227.893 523,226.5C 523.5,214.492 523.333,202.492 522.5,190.5 Z"/></g>
<g><path style="opacity:1" fill="#131313" d="M 557.5,194.5 C 560.861,195.203 561.194,196.537 558.5,198.5C 556.358,197.563 556.024,196.23 557.5,194.5 Z"/></g>
<g><path style="opacity:1" fill="#dddddd" d="M 535.5,190.5 C 540.663,192.424 540.663,193.591 535.5,194C 534.316,192.855 534.316,191.688 535.5,190.5 Z"/></g>
<g><path style="opacity:1" fill="#0f0f0f" d="M 722.5,204.5 C 724.144,204.286 725.644,204.62 727,205.5C 727.777,208.429 727.61,211.263 726.5,214C 728.155,215.444 728.822,217.278 728.5,219.5C 726.856,219.714 725.356,219.38 724,218.5C 721.315,222.927 717.482,224.76 712.5,224C 715.423,221.955 718.257,219.788 721,217.5C 718.642,212.949 719.142,208.615 722.5,204.5 Z"/></g>
<g><path style="opacity:1" fill="#141414" d="M 132.5,221.5 C 132.523,219.4 131.856,217.567 130.5,216C 130.63,214.941 131.13,214.108 132,213.5C 137.56,215.215 142.727,214.381 147.5,211C 144.289,209.847 140.956,209.18 137.5,209C 139.541,205.638 142.541,204.638 146.5,206C 151.099,208.867 156.099,210.034 161.5,209.5C 161.5,210.5 161.5,211.5 161.5,212.5C 154.238,211.49 147.571,212.99 141.5,217C 138.937,218.079 136.271,218.579 133.5,218.5C 133.737,219.791 133.404,220.791 132.5,221.5 Z"/></g>
<g><path style="opacity:1" fill="#131313" d="M 219.5,219.5 C 220.927,216.236 223.261,213.736 226.5,212C 225.906,211.536 225.239,211.369 224.5,211.5C 222.5,210.833 220.5,210.167 218.5,209.5C 218.611,208.883 218.944,208.383 219.5,208C 222.817,207.502 226.15,207.335 229.5,207.5C 232.833,208.167 236.167,208.833 239.5,209.5C 238.21,210.935 236.544,211.935 234.5,212.5C 234.709,213.086 235.043,213.586 235.5,214C 239.833,214.667 244.167,214.667 248.5,214C 249.893,211.317 251.226,211.15 252.5,213.5C 257.893,215.034 262.893,214.201 267.5,211C 263.916,209.927 260.25,209.26 256.5,209C 257.729,206.551 259.729,205.384 262.5,205.5C 268.546,208.181 274.879,209.847 281.5,210.5C 280.286,212.069 278.619,212.902 276.5,213C 276.833,213.333 277.167,213.667 277.5,214C 281.5,214.667 285.5,214.667 289.5,214C 290.931,213.535 292.097,212.701 293,211.5C 294.666,214.379 297.166,215.212 300.5,214C 303.911,209.402 308.244,206.235 313.5,204.5C 319.397,206.265 320.064,209.432 315.5,214C 318.833,214.667 322.167,214.667 325.5,214C 326.98,212.701 327.646,211.034 327.5,209C 326.715,203.292 325.715,197.625 324.5,192C 324.626,186.995 325.96,186.495 328.5,190.5C 327.389,191.611 326.722,192.945 326.5,194.5C 328.3,201.071 328.8,207.738 328,214.5C 327.5,216.333 326.333,217.5 324.5,218C 316.147,218.168 307.813,218.668 299.5,219.5C 297.718,223.338 297.385,223.171 298.5,219C 295.724,218.934 293.558,217.768 292,215.5C 291.097,216.701 289.931,217.535 288.5,218C 284.5,218.667 280.5,218.667 276.5,218C 274.845,216.556 274.178,214.722 274.5,212.5C 272.473,212.338 270.473,212.505 268.5,213C 264.272,215.532 259.772,217.365 255,218.5C 252.849,218.357 251.182,217.357 250,215.5C 249.097,216.701 247.931,217.535 246.5,218C 242.5,218.667 238.5,218.667 234.5,218C 232.845,216.556 232.178,214.722 232.5,212.5C 227.486,213.502 223.152,215.835 219.5,219.5 Z"/></g>
<g><path style="opacity:1" fill="#101010" d="M 593.5,205.5 C 594.496,205.414 595.329,205.748 596,206.5C 595.681,208.743 595.848,210.91 596.5,213C 623.954,225.56 651.287,238.393 678.5,251.5C 679.833,253.167 679.833,254.833 678.5,256.5C 650.643,266.784 622.976,277.45 595.5,288.5C 596.767,290.371 596.767,292.204 595.5,294C 591.682,293.843 588.015,292.843 584.5,291C 583.483,289.951 583.316,288.784 584,287.5C 585.47,284.204 587.637,281.537 590.5,279.5C 592.211,280.581 593.711,281.915 595,283.5C 621.167,273.667 647.333,263.833 673.5,254C 647.12,241.314 620.62,228.814 594,216.5C 592.667,217.833 591.333,219.167 590,220.5C 587.289,218.108 585.289,215.108 584,211.5C 583.333,210.5 583.333,209.5 584,208.5C 587.188,207.233 590.355,206.233 593.5,205.5 Z"/></g>
<g><path style="opacity:1" fill="#858585" d="M 229.5,207.5 C 233.226,207.177 236.893,207.511 240.5,208.5C 240.376,209.107 240.043,209.44 239.5,209.5C 236.167,208.833 232.833,208.167 229.5,207.5 Z"/></g>
<g><path style="opacity:1" fill="#e2e2e2" d="M 554.5,208.5 C 555.695,208.322 556.862,207.989 558,207.5C 561.418,209.605 561.085,211.271 557,212.5C 554.98,211.968 554.147,210.635 554.5,208.5 Z"/></g>
<g><path style="opacity:1" fill="#ededed" d="M 308.5,208.5 C 310.527,208.338 312.527,208.505 314.5,209C 315.833,210 315.833,211 314.5,212C 310.682,213.944 306.682,214.611 302.5,214C 304.396,211.932 306.396,210.099 308.5,208.5 Z"/></g>
<g><path style="opacity:1" fill="#d4d4d4" d="M 721.5,208.5 C 724.076,208.722 724.91,210.055 724,212.5C 722.519,211.529 721.685,210.196 721.5,208.5 Z"/></g>
<g><path style="opacity:1" fill="#787878" d="M 218.5,209.5 C 220.5,210.167 222.5,210.833 224.5,211.5C 222.076,211.808 219.743,211.474 217.5,210.5C 217.624,209.893 217.957,209.56 218.5,209.5 Z"/></g>
<g><path style="opacity:1" fill="#151515" d="M 474.5,187.5 C 476.121,187.787 477.121,188.787 477.5,190.5C 477.182,198.449 477.016,206.449 477,214.5C 473.596,218.984 469.43,219.651 464.5,216.5C 463.719,217.737 462.719,218.737 461.5,219.5C 459.167,218.167 456.833,216.833 454.5,215.5C 453.3,216.531 451.966,217.365 450.5,218C 442.5,218.333 434.5,218.667 426.5,219C 425.118,223.705 424.451,223.539 424.5,218.5C 421.675,218.919 419.509,217.919 418,215.5C 415.177,218.571 411.844,219.238 408,217.5C 406.352,210.443 405.185,203.277 404.5,196C 404.404,193.625 404.904,191.459 406,189.5C 406.81,197.766 407.976,205.933 409.5,214C 413.389,215.14 416.722,214.307 419.5,211.5C 421.503,214.505 424.17,215.172 427.5,213.5C 431.408,207.712 436.742,204.878 443.5,205C 445.19,208.525 444.524,211.525 441.5,214C 445.167,214.667 448.833,214.667 452.5,214C 454.385,211.778 456.551,209.944 459,208.5C 461.112,209.608 462.946,211.108 464.5,213C 468.519,215.16 472.353,214.994 476,212.5C 475.459,204.197 474.959,195.864 474.5,187.5 Z"/></g>
<g><path style="opacity:1" fill="#dfdfdf" d="M 458.5,210.5 C 460.377,211.659 460.877,213.326 460,215.5C 458.926,214.382 457.76,213.382 456.5,212.5C 457.243,211.818 457.909,211.151 458.5,210.5 Z"/></g>
<g><path style="opacity:1" fill="#e9e9e9" d="M 435.5,208.5 C 444.671,209.555 444.671,211.388 435.5,214C 433.167,214.667 430.833,214.667 428.5,214C 430.54,211.664 432.873,209.831 435.5,208.5 Z"/></g>
<g><path style="opacity:1" fill="#1f1f1f" d="M 430.5,197.5 C 433.78,198.732 434.114,200.399 431.5,202.5C 429.296,201.218 428.962,199.551 430.5,197.5 Z"/></g>
<g><path style="opacity:1" fill="#cdcdcd" d="M 181.5,212.5 C 183.337,212.639 183.67,213.306 182.5,214.5C 181.702,214.043 181.369,213.376 181.5,212.5 Z"/></g>
<g><path style="opacity:1" fill="#7c7c7c" d="M 578.5,209.5 C 579.167,211.5 579.833,213.5 580.5,215.5C 580.539,216.756 580.039,217.756 579,218.5C 578.502,215.518 578.335,212.518 578.5,209.5 Z"/></g>
<g><path style="opacity:1" fill="#0f0f0f" d="M 868.5,216.5 C 870.813,217.825 872.479,219.825 873.5,222.5C 871.114,224.411 870.114,226.911 870.5,230C 871.953,236.766 872.953,243.6 873.5,250.5C 873.424,255.958 872.59,261.292 871,266.5C 869.622,269.108 867.455,270.608 864.5,271C 858.833,271.667 853.167,271.667 847.5,271C 842.102,269.554 840.102,266.054 841.5,260.5C 837.753,260.392 834.086,260.892 830.5,262C 822.76,266.876 814.427,270.042 805.5,271.5C 802.869,271.679 800.535,271.013 798.5,269.5C 796.473,266.779 794.973,263.779 794,260.5C 789.191,268.885 782.024,272.051 772.5,270C 768.68,266.725 768.513,263.225 772,259.5C 773.692,262.967 776.525,264.3 780.5,263.5C 790.741,264.093 794.574,259.426 792,249.5C 791.371,245.948 790.538,242.448 789.5,239C 789.826,236.516 790.826,234.349 792.5,232.5C 794.015,241.228 795.849,249.895 798,258.5C 798.295,260.931 799.462,262.764 801.5,264C 806.5,264.667 811.5,264.667 816.5,264C 820.833,262.333 825.167,260.667 829.5,259C 823.837,254.905 817.67,253.738 811,255.5C 810.405,254.101 810.572,252.768 811.5,251.5C 813.373,249.279 815.707,247.946 818.5,247.5C 824.588,249.375 830.588,251.542 836.5,254C 842.156,254.888 847.823,255.721 853.5,256.5C 852.754,257.736 852.421,259.07 852.5,260.5C 849.753,260.187 847.086,260.52 844.5,261.5C 844.709,262.086 845.043,262.586 845.5,263C 852.392,264.591 859.392,264.924 866.5,264C 871.224,261.565 872.724,257.731 871,252.5C 869.067,243.569 867.567,234.569 866.5,225.5C 866.346,222.263 867.013,219.263 868.5,216.5 Z"/></g>
<g><path style="opacity:1" fill="#151515" d="M 788.5,218.5 C 795.341,219.191 796.175,221.858 791,226.5C 789.365,225.274 787.865,223.941 786.5,222.5C 787.63,221.378 788.297,220.044 788.5,218.5 Z"/></g>
<g><path style="opacity:1" fill="#0f0f0f" d="M 750.5,219.5 C 756.75,221.418 757.083,224.085 751.5,227.5C 750.167,226.5 748.833,225.5 747.5,224.5C 748.26,222.64 749.26,220.973 750.5,219.5 Z"/></g>
<g><path style="opacity:1" fill="#1c1c1c" d="M 884.5,220.5 C 885.8,222.223 886.467,224.39 886.5,227C 887.555,237.661 888.555,248.328 889.5,259C 889.255,263.306 888.422,267.473 887,271.5C 885.799,257.955 884.299,244.455 882.5,231C 882.481,227.348 883.148,223.848 884.5,220.5 Z"/></g>
<g><path style="opacity:1" fill="#1d1d1d" d="M 250.5,221.5 C 253.709,222.297 254.209,223.963 252,226.5C 250.437,223.956 248.937,223.956 247.5,226.5C 243.793,225.687 243.627,224.354 247,222.5C 248.922,224.105 250.089,223.772 250.5,221.5 Z"/></g>
<g><path style="opacity:1" fill="#1d1d1d" d="M 831.5,221.5 C 832.399,222.994 832.065,224.494 830.5,226C 825.674,228.246 821.008,230.746 816.5,233.5C 816.167,233.167 815.833,232.833 815.5,232.5C 816.305,230.528 817.639,229.028 819.5,228C 823.722,226.059 827.722,223.892 831.5,221.5 Z"/></g>
<g><path style="opacity:1" fill="#232323" d="M 396.5,208.5 C 398.548,210.456 399.548,212.956 399.5,216C 399.139,222.062 396.473,226.729 391.5,230C 388.697,230.755 386.03,230.422 383.5,229C 389.087,228.456 393.587,225.956 397,221.5C 397.747,218.147 397.247,214.98 395.5,212C 395.989,210.862 396.322,209.695 396.5,208.5 Z"/></g>
<g><path style="opacity:1" fill="#1d1d1d" d="M 132.5,221.5 C 131.005,229.742 126.338,232.576 118.5,230C 124.644,229.435 129.311,226.602 132.5,221.5 Z"/></g>
<g><path style="opacity:1" fill="#131313" d="M 219.5,219.5 C 216.437,227.874 219.104,233.374 227.5,236C 232.5,236.333 237.5,236.667 242.5,237C 235.14,240.286 227.807,240.286 220.5,237C 216.809,232.865 215.642,228.031 217,222.5C 217.377,221.058 218.21,220.058 219.5,219.5 Z"/></g>
<g><path style="opacity:1" fill="#2c2c2c" d="M 151.5,223.5 C 153.337,223.639 153.67,224.306 152.5,225.5C 142.348,230.53 142.015,229.863 151.5,223.5 Z"/></g>
<g><path style="opacity:1" fill="#151515" d="M 364.5,199.5 C 366.308,199.491 367.975,199.991 369.5,201C 366.804,201.765 364.304,202.932 362,204.5C 361.167,207.818 362.501,209.485 366,209.5C 369.348,208.391 372.515,207.224 375.5,206C 371.025,209.804 366.525,213.637 362,217.5C 357.073,227.149 359.906,233.316 370.5,236C 375.535,236.418 380.535,236.418 385.5,236C 378.765,239.64 371.765,240.307 364.5,238C 358.892,235.182 356.725,230.682 358,224.5C 358.898,220.205 360.731,216.372 363.5,213C 358.663,209.958 358.163,206.124 362,201.5C 362.995,200.934 363.828,200.267 364.5,199.5 Z"/></g>
<g><path style="opacity:1" fill="#232323" d="M 557.5,225.5 C 559.842,225.775 559.842,226.608 557.5,228C 555.254,229.039 553.087,230.206 551,231.5C 550.383,230.551 550.549,229.718 551.5,229C 553.727,228.059 555.727,226.892 557.5,225.5 Z"/></g>
<g><path style="opacity:1" fill="#282828" d="M 272.5,224.5 C 273.774,225.189 273.774,226.023 272.5,227C 269.475,228.688 266.475,230.021 263.5,231C 266.402,228.583 269.402,226.416 272.5,224.5 Z"/></g>
<g><path style="opacity:1" fill="#0d0d0d" d="M 751.5,233.5 C 754.325,233.081 756.491,234.081 758,236.5C 762.083,244.052 762.416,251.719 759,259.5C 741.794,269.808 723.294,273.308 703.5,270C 693.878,263.469 692.878,255.636 700.5,246.5C 700.833,246.667 701.167,246.833 701.5,247C 695.403,256.905 698.07,262.905 709.5,265C 725.639,266.132 740.973,263.132 755.5,256C 760.672,254.202 761.505,251.369 758,247.5C 754.626,253.113 750.626,253.779 746,249.5C 745.266,243.298 747.099,237.965 751.5,233.5 Z"/></g>
<g><path style="opacity:1" fill="#232323" d="M 393.5,234.5 C 395.842,234.775 395.842,235.608 393.5,237C 391.254,238.039 389.087,239.206 387,240.5C 386.383,239.551 386.549,238.718 387.5,238C 389.727,237.059 391.727,235.892 393.5,234.5 Z"/></g>
<g><path style="opacity:1" fill="#282828" d="M 131.5,234.5 C 132.774,235.189 132.774,236.023 131.5,237C 128.475,238.688 125.475,240.021 122.5,241C 125.402,238.583 128.402,236.416 131.5,234.5 Z"/></g>
<g><path style="opacity:1" fill="#282828" d="M 519.5,236.5 C 520.774,237.189 520.774,238.023 519.5,239C 516.475,240.688 513.475,242.021 510.5,243C 513.402,240.583 516.402,238.416 519.5,236.5 Z"/></g>
<g><path style="opacity:1" fill="#dfdfdf" d="M 749.5,240.5 C 754.526,241.098 755.192,242.764 751.5,245.5C 748.807,244.468 748.14,242.802 749.5,240.5 Z"/></g>
<g><path style="opacity:1" fill="#282828" d="M 231.5,243.5 C 232.774,244.189 232.774,245.023 231.5,246C 228.475,247.688 225.475,249.021 222.5,250C 225.402,247.583 228.402,245.416 231.5,243.5 Z"/></g>
<g><path style="opacity:1" fill="#282828" d="M 369.5,243.5 C 370.774,244.189 370.774,245.023 369.5,246C 366.475,247.688 363.475,249.021 360.5,250C 363.402,247.583 366.402,245.416 369.5,243.5 Z"/></g>
<g><path style="opacity:1" fill="#1c1c1c" d="M 190.5,259.5 C 207.308,258.792 207.642,260.126 191.5,263.5C 190.571,262.311 190.238,260.978 190.5,259.5 Z"/></g>
<g><path style="opacity:1" fill="#171717" d="M 257.5,261.5 C 258.622,263.288 258.789,265.288 258,267.5C 255.528,268.2 253.195,269.2 251,270.5C 248.681,269.591 248.014,267.925 249,265.5C 249.71,266.973 250.876,267.64 252.5,267.5C 252.72,262.744 253.72,262.078 255.5,265.5C 257.111,264.68 257.778,263.346 257.5,261.5 Z"/></g>
<g><path style="opacity:1" fill="#1a1a1a" d="M 215.5,267.5 C 216.922,267.75 217.922,268.583 218.5,270C 216.974,276.723 215.64,283.557 214.5,290.5C 216.957,299.377 213.624,302.71 204.5,300.5C 204.5,299.167 204.5,297.833 204.5,296.5C 209.325,296.512 211.491,294.179 211,289.5C 208.05,284.882 204.716,280.548 201,276.5C 199.413,277.727 198.079,277.394 197,275.5C 195.798,273.323 195.298,270.989 195.5,268.5C 197.39,268.297 198.89,268.963 200,270.5C 204.823,276.147 209.157,282.147 213,288.5C 215.155,281.691 215.988,274.691 215.5,267.5 Z"/></g>
<g><path style="opacity:1" fill="#202020" d="M 307.5,268.5 C 308.822,268.33 309.989,268.663 311,269.5C 310.773,271.574 310.939,273.574 311.5,275.5C 309.076,277.474 306.409,278.641 303.5,279C 306.933,276.449 308.267,272.949 307.5,268.5 Z"/></g>
<g><path style="opacity:1" fill="#202020" d="M 535.5,269.5 C 540.654,270.268 541.654,272.768 538.5,277C 533.917,277.934 532.417,276.1 534,271.5C 534.717,270.956 535.217,270.289 535.5,269.5 Z"/></g>
<g><path style="opacity:1" fill="#242424" d="M 431.5,267.5 C 432.774,268.189 432.774,269.023 431.5,270C 428.942,271.626 426.275,272.626 423.5,273C 426.059,270.897 428.726,269.064 431.5,267.5 Z"/></g>
<g><path style="opacity:1" fill="#242424" d="M 278.5,269.5 C 279.774,270.189 279.774,271.023 278.5,272C 275.942,273.626 273.275,274.626 270.5,275C 273.059,272.897 275.726,271.064 278.5,269.5 Z"/></g>
<g><path style="opacity:1" fill="#dddddd" d="M 535.5,271.5 C 540.663,273.424 540.663,274.591 535.5,275C 534.316,273.855 534.316,272.688 535.5,271.5 Z"/></g>
<g><path style="opacity:1" fill="#1d1d1d" d="M 227.5,297.5 C 226.833,295.5 226.167,293.5 225.5,291.5C 224.513,285.195 224.347,278.862 225,272.5C 226.968,280.715 227.801,289.049 227.5,297.5 Z"/></g>
<g><path style="opacity:1" fill="#232323" d="M 257.5,270.5 C 258.774,271.189 258.774,272.023 257.5,273C 254.942,274.626 252.275,275.626 249.5,276C 252.059,273.897 254.726,272.064 257.5,270.5 Z"/></g>
<g><path style="opacity:1" fill="#2e2e2e" d="M 334.5,271.5 C 336.255,278.081 337.255,284.914 337.5,292C 337.557,294.96 337.057,297.793 336,300.5C 335.386,292.643 334.553,284.81 333.5,277C 333.696,275.122 334.029,273.288 334.5,271.5 Z"/></g>
<g><path style="opacity:1" fill="#1d1d1d" d="M 580.5,297.5 C 579.833,295.5 579.167,293.5 578.5,291.5C 577.513,285.195 577.347,278.862 578,272.5C 579.968,280.715 580.801,289.049 580.5,297.5 Z"/></g>
<g><path style="opacity:1" fill="#1e1e1e" d="M 286.5,271.5 C 288.198,268.876 290.031,268.876 292,271.5C 292.833,276 291,277.833 286.5,277C 285.193,275.057 285.193,273.223 286.5,271.5 Z"/></g>
<g><path style="opacity:1" fill="#1d1d1d" d="M 484.5,271.5 C 486.153,280.629 486.653,289.963 486,299.5C 485.405,292.627 484.572,285.794 483.5,279C 483.555,276.413 483.889,273.913 484.5,271.5 Z"/></g>
<g><path style="opacity:1" fill="#1d1d1d" d="M 457.5,268.5 C 458.5,268.5 459.5,268.5 460.5,268.5C 460.292,270.92 460.626,273.253 461.5,275.5C 458.636,276.207 456.136,277.541 454,279.5C 453.5,279.333 453,279.167 452.5,279C 456.236,277.784 457.236,275.451 455.5,272C 455.978,270.697 456.645,269.531 457.5,268.5 Z"/></g>
<g><path style="opacity:1" fill="#767676" d="M 522.5,272.5 C 522.56,271.957 522.893,271.624 523.5,271.5C 524.487,274.768 524.82,278.102 524.5,281.5C 523.833,278.5 523.167,275.5 522.5,272.5 Z"/></g>
<g><path style="opacity:1" fill="#161616" d="M 177.5,279.5 C 179.912,279.694 180.912,281.027 180.5,283.5C 177.014,283.705 176.014,282.371 177.5,279.5 Z"/></g>
<g><path style="opacity:1" fill="#171717" d="M 522.5,272.5 C 523.167,275.5 523.833,278.5 524.5,281.5C 524.485,286.588 525.485,291.421 527.5,296C 530.303,296.755 532.97,296.422 535.5,295C 531.553,290.827 532.72,288.327 539,287.5C 545.075,288.39 545.908,290.89 541.5,295C 545.026,296.337 548.692,296.837 552.5,296.5C 552.054,293.99 552.72,291.99 554.5,290.5C 557.372,283.97 560.038,283.97 562.5,290.5C 562.113,292.274 561.447,293.941 560.5,295.5C 563.941,297.006 567.108,296.673 570,294.5C 569.977,287.993 569.477,281.493 568.5,275C 568.833,273.167 569.167,271.333 569.5,269.5C 570.415,270.328 571.081,271.328 571.5,272.5C 571.182,280.449 571.016,288.449 571,296.5C 569.471,299.516 566.971,300.849 563.5,300.5C 560.68,300.422 558.013,299.755 555.5,298.5C 549.354,301.641 543.688,300.974 538.5,296.5C 535.029,299.917 531.029,300.917 526.5,299.5C 526.485,311.017 520.819,316.517 509.5,316C 504.594,311.148 504.26,305.981 508.5,300.5C 508.833,300.667 509.167,300.833 509.5,301C 505.588,310.098 508.588,313.432 518.5,311C 520.329,310.727 521.829,309.893 523,308.5C 523.5,296.492 523.333,284.492 522.5,272.5 Z"/></g>
<g><path style="opacity:1" fill="#131313" d="M 557.5,276.5 C 560.861,277.203 561.194,278.537 558.5,280.5C 556.358,279.563 556.024,278.23 557.5,276.5 Z"/></g>
<g><path style="opacity:1" fill="#171717" d="M 264.5,308.5 C 264.422,298.796 263.755,289.129 262.5,279.5C 262.453,276.705 262.953,274.039 264,271.5C 264.074,279.625 265.074,287.625 267,295.5C 270.962,297.196 274.462,296.53 277.5,293.5C 280.266,296.905 283.6,297.405 287.5,295C 282.499,292.923 282.499,290.589 287.5,288C 290.85,287.07 293.683,287.903 296,290.5C 296.163,292.387 295.329,293.887 293.5,295C 296.294,296.557 299.294,296.89 302.5,296C 305.011,294.152 307.511,292.319 310,290.5C 312.489,292.319 314.989,294.152 317.5,296C 320.167,296.667 322.833,296.667 325.5,296C 326.98,294.701 327.646,293.034 327.5,291C 326.715,285.292 325.715,279.625 324.5,274C 324.191,269.92 325.357,269.087 328,271.5C 327.888,273.178 327.388,274.845 326.5,276.5C 327.749,280.914 328.416,285.414 328.5,290C 328.754,299.872 324.421,302.706 315.5,298.5C 311.987,301.073 308.654,300.739 305.5,297.5C 300.076,301.626 294.91,301.293 290,296.5C 287.63,298.768 284.797,300.101 281.5,300.5C 279.076,300.852 277.576,299.852 277,297.5C 273.531,300.916 269.864,301.25 266,298.5C 265.821,302.025 265.321,305.359 264.5,308.5 Z"/></g>
<g><path style="opacity:1" fill="#191919" d="M 277.5,284.5 C 280.78,285.732 281.114,287.399 278.5,289.5C 277.522,289.023 276.689,288.357 276,287.5C 274.921,289.394 273.587,289.727 272,288.5C 271.786,285.686 272.953,285.02 275.5,286.5C 276.522,286.145 277.189,285.478 277.5,284.5 Z"/></g>
<g><path style="opacity:1" fill="#dddddd" d="M 286.5,271.5 C 289.5,271.167 290.833,272.5 290.5,275.5C 287.5,275.833 286.167,274.5 286.5,271.5 Z"/></g>
<g><path style="opacity:1" fill="#e2e2e2" d="M 554.5,290.5 C 555.695,290.322 556.862,289.989 558,289.5C 561.418,291.605 561.085,293.271 557,294.5C 554.98,293.968 554.147,292.635 554.5,290.5 Z"/></g>
<g><path style="opacity:1" fill="#cecece" d="M 308.5,292.5 C 311.423,293.163 312.09,294.83 310.5,297.5C 307.807,296.468 307.14,294.802 308.5,292.5 Z"/></g>
<g><path style="opacity:1" fill="#151515" d="M 474.5,269.5 C 476.121,269.787 477.121,270.787 477.5,272.5C 477.182,280.449 477.016,288.449 477,296.5C 473.596,300.984 469.43,301.651 464.5,298.5C 463.719,299.737 462.719,300.737 461.5,301.5C 459.167,300.167 456.833,298.833 454.5,297.5C 453.3,298.531 451.966,299.365 450.5,300C 442.5,300.333 434.5,300.667 426.5,301C 425.118,305.705 424.451,305.539 424.5,300.5C 421.675,300.919 419.509,299.919 418,297.5C 415.177,300.571 411.844,301.238 408,299.5C 406.352,292.443 405.185,285.277 404.5,278C 404.404,275.625 404.904,273.459 406,271.5C 406.81,279.766 407.976,287.933 409.5,296C 413.389,297.14 416.722,296.307 419.5,293.5C 421.503,296.505 424.17,297.172 427.5,295.5C 431.408,289.712 436.742,286.878 443.5,287C 445.19,290.525 444.524,293.525 441.5,296C 445.167,296.667 448.833,296.667 452.5,296C 454.385,293.778 456.551,291.944 459,290.5C 461.112,291.608 462.946,293.108 464.5,295C 468.519,297.16 472.353,296.994 476,294.5C 475.459,286.197 474.959,277.864 474.5,269.5 Z"/></g>
<g><path style="opacity:1" fill="#dfdfdf" d="M 458.5,292.5 C 460.377,293.659 460.877,295.326 460,297.5C 458.926,296.382 457.76,295.382 456.5,294.5C 457.243,293.818 457.909,293.151 458.5,292.5 Z"/></g>
<g><path style="opacity:1" fill="#e9e9e9" d="M 435.5,290.5 C 444.671,291.555 444.671,293.388 435.5,296C 433.167,296.667 430.833,296.667 428.5,296C 430.54,293.664 432.873,291.831 435.5,290.5 Z"/></g>
<g><path style="opacity:1" fill="#1f1f1f" d="M 430.5,279.5 C 433.78,280.732 434.114,282.399 431.5,284.5C 429.296,283.218 428.962,281.551 430.5,279.5 Z"/></g>
<g><path style="opacity:1" fill="#171717" d="M 170.5,287.5 C 175.134,287.48 179.467,288.646 183.5,291C 186.146,291.497 188.813,291.664 191.5,291.5C 191.5,292.5 191.5,293.5 191.5,294.5C 184.238,293.49 177.571,294.99 171.5,299C 168.937,300.079 166.271,300.579 163.5,300.5C 163.118,310.741 158.118,314.575 148.5,312C 155.32,311.597 159.987,308.264 162.5,302C 160.338,299.897 160.171,297.73 162,295.5C 167.41,297.065 172.576,296.398 177.5,293.5C 174.442,291.859 171.108,291.026 167.5,291C 168.71,289.961 169.71,288.794 170.5,287.5 Z"/></g>
<g><path style="opacity:1" fill="#7c7c7c" d="M 225.5,291.5 C 226.167,293.5 226.833,295.5 227.5,297.5C 227.539,298.756 227.039,299.756 226,300.5C 225.502,297.518 225.335,294.518 225.5,291.5 Z"/></g>
<g><path style="opacity:1" fill="#7c7c7c" d="M 578.5,291.5 C 579.167,293.5 579.833,295.5 580.5,297.5C 580.539,298.756 580.039,299.756 579,300.5C 578.502,297.518 578.335,294.518 578.5,291.5 Z"/></g>
<g><path style="opacity:1" fill="#1c1c1c" d="M 264.5,308.5 C 264.201,311.642 262.534,313.809 259.5,315C 248.515,318.345 244.348,314.512 247,303.5C 247.419,302.328 248.085,301.328 249,300.5C 245.506,310.343 249.006,313.843 259.5,311C 261.193,310.153 262.86,309.32 264.5,308.5 Z"/></g>
<g><path style="opacity:1" fill="#232323" d="M 396.5,290.5 C 398.548,292.456 399.548,294.956 399.5,298C 399.139,304.062 396.473,308.729 391.5,312C 388.697,312.755 386.03,312.422 383.5,311C 389.087,310.456 393.587,307.956 397,303.5C 397.747,300.147 397.247,296.98 395.5,294C 395.989,292.862 396.322,291.695 396.5,290.5 Z"/></g>
<g><path style="opacity:1" fill="#282828" d="M 183.5,304.5 C 184.774,305.189 184.774,306.023 183.5,307C 180.475,308.688 177.475,310.021 174.5,311C 177.402,308.583 180.402,306.416 183.5,304.5 Z"/></g>
<g><path style="opacity:1" fill="#151515" d="M 364.5,281.5 C 366.308,281.491 367.975,281.991 369.5,283C 366.804,283.765 364.304,284.932 362,286.5C 361.167,289.818 362.501,291.485 366,291.5C 369.348,290.391 372.515,289.224 375.5,288C 371.025,291.804 366.525,295.637 362,299.5C 357.073,309.149 359.906,315.316 370.5,318C 375.535,318.418 380.535,318.418 385.5,318C 378.765,321.64 371.765,322.307 364.5,320C 358.892,317.182 356.725,312.682 358,306.5C 358.898,302.205 360.731,298.372 363.5,295C 358.663,291.958 358.163,288.124 362,283.5C 362.995,282.934 363.828,282.267 364.5,281.5 Z"/></g>
<g><path style="opacity:1" fill="#232323" d="M 557.5,306.5 C 559.842,306.775 559.842,307.608 557.5,309C 555.254,310.039 553.087,311.206 551,312.5C 550.383,311.551 550.549,310.718 551.5,310C 553.727,309.059 555.727,307.892 557.5,306.5 Z"/></g>
<g><path style="opacity:1" fill="#1e1e1e" d="M 161.5,315.5 C 162.774,316.189 162.774,317.023 161.5,318C 158.623,319.946 155.623,321.279 152.5,322C 155.567,319.812 158.567,317.645 161.5,315.5 Z"/></g>
<g><path style="opacity:1" fill="#232323" d="M 393.5,316.5 C 395.842,316.775 395.842,317.608 393.5,319C 391.254,320.039 389.087,321.206 387,322.5C 386.383,321.551 386.549,320.718 387.5,320C 389.727,319.059 391.727,317.892 393.5,316.5 Z"/></g>
<g><path style="opacity:1" fill="#282828" d="M 519.5,317.5 C 520.774,318.189 520.774,319.023 519.5,320C 516.475,321.688 513.475,323.021 510.5,324C 513.402,321.583 516.402,319.416 519.5,317.5 Z"/></g>
<g><path style="opacity:1" fill="#282828" d="M 369.5,324.5 C 370.774,325.189 370.774,326.023 369.5,327C 366.475,328.688 363.475,330.021 360.5,331C 363.402,328.583 366.402,326.416 369.5,324.5 Z"/></g>
</svg>
