<?xml version="1.0" encoding="UTF-8"?>
<!DOCTYPE svg PUBLIC "-//W3C//DTD SVG 1.1//EN" "http://www.w3.org/Graphics/SVG/1.1/DTD/svg11.dtd">
<svg xmlns="http://www.w3.org/2000/svg" version="1.1" width="1000px" height="500px" style="shape-rendering:geometricPrecision; text-rendering:geometricPrecision; image-rendering:optimizeQuality; fill-rule:evenodd; clip-rule:evenodd" xmlns:xlink="http://www.w3.org/1999/xlink">
<g><path style="opacity:1" fill="#fefefe" d="M -0.5,-0.5 C 332.833,-0.5 666.167,-0.5 999.5,-0.5C 999.5,166.167 999.5,332.833 999.5,499.5C 666.167,499.5 332.833,499.5 -0.5,499.5C -0.5,332.833 -0.5,166.167 -0.5,-0.5 Z"/></g>
<g><path style="opacity:1" fill="#0f0f0f" d="M 472.5,64.5 C 474.527,64.3379 476.527,64.5045 478.5,65C 480.931,68.9151 480.931,72.9151 478.5,77C 478.93,78.4341 479.764,79.6008 481,80.5C 481.946,82.9563 481.446,84.9563 479.5,86.5C 478.126,85.2887 476.626,84.2887 475,83.5C 470.844,86.3183 466.677,89.1517 462.5,92C 460.833,92.6667 459.167,92.6667 457.5,92C 459.783,88.8228 460.617,85.3228 460,81.5C 457.006,80.1102 455.006,81.1102 454,84.5C 453.159,80.8798 453.826,77.5464 456,74.5C 458.881,72.9717 461.214,73.6384 463,76.5C 461.88,87.5381 464.714,89.0381 471.5,81C 466.096,75.2791 466.429,69.7791 472.5,64.5 Z"/></g>
<g><path style="opacity:1" fill="#f0f0f0" d="M 471.5,69.5 C 475.252,69.5007 476.252,71.1674 474.5,74.5C 472.244,73.5791 471.244,71.9124 471.5,69.5 Z"/></g>
<g><path style="opacity:1" fill="#131313" d="M 396.5,72.5 C 397.376,72.3691 398.043,72.7025 398.5,73.5C 397.627,75.4134 396.627,77.2467 395.5,79C 388.676,82.2451 382.009,85.7451 375.5,89.5C 374.422,87.5253 374.755,85.692 376.5,84C 383.393,80.3924 390.059,76.5591 396.5,72.5 Z"/></g>
<g><path style="opacity:1" fill="#141414" d="M 724.5,76.5 C 725.376,76.3691 726.043,76.7025 726.5,77.5C 725.752,79.3325 724.752,80.9991 723.5,82.5C 716.833,86.1667 710.167,89.8333 703.5,93.5C 702.152,91.3886 702.485,89.5553 704.5,88C 711.393,84.3924 718.059,80.5591 724.5,76.5 Z"/></g>
<g><path style="opacity:1" fill="#121212" d="M 514.5,86.5 C 520.839,87.0016 524.506,90.5016 525.5,97C 524.333,103.5 520.5,107.333 514,108.5C 508.953,106.926 506.787,103.426 507.5,98C 507.43,92.6289 509.764,88.7955 514.5,86.5 Z"/></g>
<g><path style="opacity:1" fill="#111111" d="M 298.5,87.5 C 299.572,89.9358 298.905,92.1025 296.5,94C 289.709,97.2985 283.042,100.798 276.5,104.5C 275.884,101.876 276.884,99.7093 279.5,98C 286.217,94.9795 292.551,91.4795 298.5,87.5 Z"/></g>
<g><path style="opacity:1" fill="#131313" d="M 561.5,88.5 C 562.376,88.3691 563.043,88.7025 563.5,89.5C 562.627,91.4134 561.627,93.2467 560.5,95C 553.676,98.2451 547.009,101.745 540.5,105.5C 539.422,103.525 539.755,101.692 541.5,100C 548.393,96.3924 555.059,92.5591 561.5,88.5 Z"/></g>
<g><path style="opacity:1" fill="#0e0e0e" d="M 758.5,88.5 C 759.675,88.281 760.675,88.6143 761.5,89.5C 760.074,91.9372 758.741,94.4372 757.5,97C 741.103,102.354 725.103,108.687 709.5,116C 706.941,117.323 706.275,119.157 707.5,121.5C 718.356,125.857 726.523,133.19 732,143.5C 734.882,159.626 728.048,167.46 711.5,167C 704.06,167.928 696.726,167.594 689.5,166C 686.57,163.88 684.737,161.047 684,157.5C 682.429,139.643 680.595,121.809 678.5,104C 678.024,99.7895 679.357,96.2895 682.5,93.5C 684.629,107.749 686.129,122.083 687,136.5C 687.552,142.993 688.718,149.326 690.5,155.5C 691.025,156.192 691.692,156.692 692.5,157C 701.833,157.667 711.167,157.667 720.5,157C 726.691,156.492 729.524,153.325 729,147.5C 725.5,144 722,140.5 718.5,137C 713.584,134.293 708.751,131.459 704,128.5C 703.333,123.833 703.333,119.167 704,114.5C 720.996,103.251 739.163,94.5841 758.5,88.5 Z"/></g>
<g><path style="opacity:1" fill="#131313" d="M 645.5,90.5 C 646.376,90.3691 647.043,90.7025 647.5,91.5C 646.627,93.4134 645.627,95.2467 644.5,97C 637.676,100.245 631.009,103.745 624.5,107.5C 623.422,105.525 623.755,103.692 625.5,102C 632.393,98.3924 639.059,94.5591 645.5,90.5 Z"/></g>
<g><path style="opacity:1" fill="#f4f4f4" d="M 511.5,92.5 C 517.172,91.883 520.339,94.2163 521,99.5C 517.621,101.923 514.121,102.09 510.5,100C 509.083,97.2565 509.416,94.7565 511.5,92.5 Z"/></g>
<g><path style="opacity:1" fill="#0d0d0d" d="M 247.5,93.5 C 248.812,95.7432 249.478,98.4098 249.5,101.5C 250.549,117.211 252.049,132.878 254,148.5C 254.059,151.822 255.226,154.656 257.5,157C 265.77,158.613 273.437,157.28 280.5,153C 283.726,148.105 287.893,144.272 293,141.5C 294.225,141.862 295.391,142.362 296.5,143C 301.244,148.74 306.91,153.406 313.5,157C 319.5,157.667 325.5,157.667 331.5,157C 334.249,156.636 336.249,155.303 337.5,153C 335.97,149.439 334.303,145.939 332.5,142.5C 333.666,139.497 335.333,136.83 337.5,134.5C 339.943,138.436 340.943,142.769 340.5,147.5C 340.669,164.45 332.336,170.95 315.5,167C 311.921,165.294 308.421,163.461 305,161.5C 304.513,168.131 301.013,170.297 294.5,168C 290.026,165.027 285.693,161.86 281.5,158.5C 273.821,167.752 264.488,169.919 253.5,165C 251.438,162.932 250.272,160.432 250,157.5C 248.342,139.094 246.176,120.761 243.5,102.5C 244.03,99.1101 245.363,96.1101 247.5,93.5 Z"/></g>
<g><path style="opacity:1" fill="#0d0d0d" d="M 359.5,93.5 C 360.812,95.7432 361.478,98.4098 361.5,101.5C 362.456,114.851 363.623,128.185 365,141.5C 365.364,146.322 366.364,150.988 368,155.5C 368.5,156 369,156.5 369.5,157C 379.633,158.629 389.3,157.296 398.5,153C 402.217,150.321 402.384,147.488 399,144.5C 396.182,150.108 391.682,152.275 385.5,151C 381.954,147.548 380.787,143.382 382,138.5C 387.82,118.855 394.82,118.522 403,137.5C 407.416,154.494 400.916,164.327 383.5,167C 377.245,168.127 371.245,167.46 365.5,165C 364.789,163.745 363.956,162.579 363,161.5C 360.59,141.82 358.09,122.154 355.5,102.5C 356.03,99.1101 357.363,96.1101 359.5,93.5 Z"/></g>
<g><path style="opacity:1" fill="#121212" d="M 296.5,99.5 C 299.872,100.57 299.872,102.403 296.5,105C 289.991,108.755 283.324,112.255 276.5,115.5C 275.884,112.876 276.884,110.709 279.5,109C 285.552,106.313 291.219,103.146 296.5,99.5 Z"/></g>
<g><path style="opacity:1" fill="#0e0e0e" d="M 334.5,102.5 C 341.26,101.488 343.26,104.154 340.5,110.5C 338.512,110.173 336.512,109.84 334.5,109.5C 332.681,109.342 331.348,110.009 330.5,111.5C 334.322,115.405 338.822,116.405 344,114.5C 345.479,115.873 345.312,117.373 343.5,119C 337.262,121.637 330.929,123.637 324.5,125C 325.79,122.708 327.457,120.708 329.5,119C 326.793,117.136 325.959,114.636 327,111.5C 329.335,108.335 331.835,105.335 334.5,102.5 Z"/></g>
<g><path style="opacity:1" fill="#101010" d="M 394.5,102.5 C 402.72,104.989 403.553,108.989 397,114.5C 394.976,112.984 392.809,111.651 390.5,110.5C 388.655,112.231 386.822,113.898 385,115.5C 382.501,114.917 380.501,113.584 379,111.5C 379.658,108.531 381.158,105.865 383.5,103.5C 385.524,105.358 387.691,107.025 390,108.5C 392.102,106.905 393.602,104.905 394.5,102.5 Z"/></g>
<g><path style="opacity:1" fill="#0e0e0e" d="M 484.5,111.5 C 485.117,111.611 485.617,111.944 486,112.5C 487.641,126.039 490.308,139.372 494,152.5C 494.465,153.931 495.299,155.097 496.5,156C 503.474,157.961 510.474,157.961 517.5,156C 518.804,155.196 519.471,154.029 519.5,152.5C 518.283,149.238 516.949,146.072 515.5,143C 516.327,139.512 517.827,136.346 520,133.5C 524.667,142.833 524.667,152.167 520,161.5C 517.658,164.754 514.491,166.588 510.5,167C 504.294,168.245 498.461,167.412 493,164.5C 490.616,160.675 488.616,156.675 487,152.5C 480.458,163.019 470.958,167.519 458.5,166C 452.943,164.496 451.11,160.996 453,155.5C 453.473,153.221 454.473,151.221 456,149.5C 456.394,152.893 458.227,155.06 461.5,156C 469.133,157.366 476.3,156.199 483,152.5C 484.872,149.795 485.705,146.795 485.5,143.5C 484.115,136.024 482.782,128.524 481.5,121C 481.806,117.585 482.806,114.418 484.5,111.5 Z"/></g>
<g><path style="opacity:1" fill="#0f0f0f" d="M 557.5,122.5 C 567.002,124.317 567.836,127.983 560,133.5C 557.627,132.576 555.794,131.076 554.5,129C 555.391,126.721 556.391,124.554 557.5,122.5 Z"/></g>
<g><path style="opacity:1" fill="#101010" d="M 637.5,122.5 C 645.866,124.644 646.7,128.644 640,134.5C 637.691,133.025 635.524,131.358 633.5,129.5C 634.861,127.15 636.194,124.816 637.5,122.5 Z"/></g>
<g><path style="opacity:1" fill="#0c0c0c" d="M 655.5,130.5 C 666.392,145.102 668.225,160.768 661,177.5C 649.953,189.039 637.12,191.539 622.5,185C 617.961,181.057 615.961,176.057 616.5,170C 616.52,162.467 618.686,155.633 623,149.5C 621.871,154.246 620.704,159.079 619.5,164C 620.657,171.495 624.991,176.161 632.5,178C 643.187,178.992 652.687,176.159 661,169.5C 662.368,166.262 662.701,162.928 662,159.5C 659.01,152.36 656.177,145.193 653.5,138C 653.739,135.365 654.406,132.865 655.5,130.5 Z"/></g>
<g><path style="opacity:1" fill="#e9e9e9" d="M 387.5,135.5 C 391.029,134.889 392.862,136.223 393,139.5C 388.085,141.679 386.251,140.346 387.5,135.5 Z"/></g>
<g><path style="opacity:1" fill="#0f0f0f" d="M 559.5,142.5 C 564.184,148.042 566.184,154.542 565.5,162C 565.002,175.33 559.668,186.33 549.5,195C 540.485,198.786 531.818,198.12 523.5,193C 538.728,193.969 550.561,188.136 559,175.5C 560.943,173.01 562.109,170.177 562.5,167C 560.634,161.438 558.634,155.938 556.5,150.5C 556.948,147.609 557.948,144.942 559.5,142.5 Z"/></g>
<g><path style="opacity:1" fill="#eeeeee" d="M 290.5,147.5 C 293.48,147.241 295.313,148.574 296,151.5C 296.818,154.227 296.652,156.894 295.5,159.5C 292.19,157.518 289.19,155.185 286.5,152.5C 287.857,150.814 289.19,149.148 290.5,147.5 Z"/></g>
<g><path style="opacity:1" fill="#0f0f0f" d="M 517.5,175.5 C 520.658,176.313 523.324,177.98 525.5,180.5C 524.041,182.583 522.708,184.75 521.5,187C 518.531,186.342 515.865,184.842 513.5,182.5C 511.823,184.54 510.156,186.54 508.5,188.5C 501.084,185.409 500.584,181.409 507,176.5C 509.01,177.848 511.01,179.182 513,180.5C 515.378,179.623 516.878,177.956 517.5,175.5 Z"/></g>
<g><path style="opacity:1" fill="#0b0b0b" d="M 490.5,222.5 C 490.168,232.522 490.501,242.522 491.5,252.5C 492.107,252.376 492.44,252.043 492.5,251.5C 493.479,249.855 494.812,248.521 496.5,247.5C 497.5,247.833 498.167,248.5 498.5,249.5C 495.153,254.342 491.32,258.675 487,262.5C 482.396,258.656 478.73,253.989 476,248.5C 475.598,247.128 475.098,245.795 474.5,244.5C 474.833,244.167 475.167,243.833 475.5,243.5C 478.161,245.494 480.494,247.827 482.5,250.5C 482.783,251.289 483.283,251.956 484,252.5C 484.5,242.839 484.666,233.172 484.5,223.5C 484.333,211.829 484.5,200.162 485,188.5C 485.151,185.881 485.985,183.547 487.5,181.5C 488.086,181.709 488.586,182.043 489,182.5C 490.357,195.792 490.857,209.125 490.5,222.5 Z"/></g>
<g><path style="opacity:1" fill="#111111" d="M 340.5,182.5 C 341.552,182.351 342.552,182.517 343.5,183C 342.5,184.667 341.5,186.333 340.5,188C 333.991,191.755 327.324,195.255 320.5,198.5C 319.334,196.635 319.667,194.968 321.5,193.5C 328.06,190.059 334.393,186.392 340.5,182.5 Z"/></g>
<g><path style="opacity:1" fill="#101010" d="M 252.5,235.5 C 251.348,240.985 251.182,246.651 252,252.5C 252.717,251.956 253.217,251.289 253.5,250.5C 256.988,244.194 260.488,237.86 264,231.5C 260.814,241.885 256.481,251.885 251,261.5C 248.978,262.991 247.312,262.658 246,260.5C 244.74,254.72 243.073,249.053 241,243.5C 239.95,238.552 239.45,233.552 239.5,228.5C 240.5,228.5 241.5,228.5 242.5,228.5C 243.993,233.803 245.493,239.136 247,244.5C 246.565,220.447 255.065,200.281 272.5,184C 273.167,183.333 273.833,183.333 274.5,184C 261.053,198.496 253.719,215.662 252.5,235.5 Z"/></g>
<g><path style="opacity:1" fill="#111111" d="M 698.5,183.5 C 698.897,182.475 699.563,182.308 700.5,183C 718.466,199.444 727.299,219.944 727,244.5C 728.333,239.833 729.667,235.167 731,230.5C 731.71,229.027 732.876,228.36 734.5,228.5C 734.412,233.536 733.912,238.536 733,243.5C 730.928,249.048 729.262,254.715 728,260.5C 726.688,262.658 725.022,262.991 723,261.5C 718.209,252.253 713.709,242.919 709.5,233.5C 709.667,232.833 709.833,232.167 710,231.5C 713.747,238.663 717.747,245.663 722,252.5C 724.384,225.814 716.55,202.814 698.5,183.5 Z"/></g>
<g><path style="opacity:1" fill="#a9a9a9" d="M 490.5,222.5 C 491.167,232.167 491.833,241.833 492.5,251.5C 492.44,252.043 492.107,252.376 491.5,252.5C 490.501,242.522 490.168,232.522 490.5,222.5 Z"/></g>
<g><path style="opacity:1" fill="#acacac" d="M 484.5,223.5 C 484.666,233.172 484.5,242.839 484,252.5C 483.283,251.956 482.783,251.289 482.5,250.5C 483.167,241.5 483.833,232.5 484.5,223.5 Z"/></g>
<g><path style="opacity:1" fill="#b5b5b5" d="M 252.5,235.5 C 252.179,240.695 252.513,245.695 253.5,250.5C 253.217,251.289 252.717,251.956 252,252.5C 251.182,246.651 251.348,240.985 252.5,235.5 Z"/></g>
<g><path style="opacity:1" fill="#151515" d="M 426.5,273.5 C 429.734,273.237 431.068,274.737 430.5,278C 430.947,280.599 429.947,282.099 427.5,282.5C 423.837,280.019 423.504,277.019 426.5,273.5 Z"/></g>
<g><path style="opacity:1" fill="#181818" d="M 706.5,273.5 C 710.461,274.884 711.461,277.551 709.5,281.5C 706.187,283.254 704.52,282.254 704.5,278.5C 704.437,276.486 705.103,274.819 706.5,273.5 Z"/></g>
<g><path style="opacity:1" fill="#0c0c0c" d="M 144.5,294.5 C 143.203,296.693 143.203,299.027 144.5,301.5C 145.107,301.376 145.44,301.043 145.5,300.5C 148.118,297.215 151.118,294.215 154.5,291.5C 154.833,291.833 155.167,292.167 155.5,292.5C 153.062,296.442 150.062,299.942 146.5,303C 148.5,306.333 151.167,309 154.5,311C 158.18,312.027 161.347,311.194 164,308.5C 163.647,315.168 160.147,317.668 153.5,316C 149.776,313.716 147.109,310.549 145.5,306.5C 145.44,305.957 145.107,305.624 144.5,305.5C 144.112,309.589 143.112,313.256 141.5,316.5C 140.883,316.389 140.383,316.056 140,315.5C 139.733,302.827 140.067,290.161 141,277.5C 142.11,275.963 143.61,275.297 145.5,275.5C 144.81,281.81 144.476,288.143 144.5,294.5 Z"/></g>
<g><path style="opacity:1" fill="#191919" d="M 169.5,274.5 C 170.787,275.871 171.453,277.705 171.5,280C 170.578,286.821 170.412,293.654 171,300.5C 172.439,297.397 174.273,294.564 176.5,292C 178.701,291.175 180.534,291.675 182,293.5C 182.5,301.159 182.666,308.826 182.5,316.5C 180.61,316.703 179.11,316.037 178,314.5C 177.796,307.771 177.63,301.104 177.5,294.5C 172.822,301.02 169.989,308.354 169,316.5C 167.667,315.833 166.667,314.833 166,313.5C 165.264,301.95 165.764,290.45 167.5,279C 167.759,277.213 168.425,275.713 169.5,274.5 Z"/></g>
<g><path style="opacity:1" fill="#0b0b0b" d="M 301.5,274.5 C 302.787,275.871 303.453,277.705 303.5,280C 302.563,287.154 302.396,294.32 303,301.5C 304.265,296.933 306.931,293.6 311,291.5C 312.261,291.759 313.261,292.426 314,293.5C 314.5,301.159 314.666,308.826 314.5,316.5C 313.178,316.67 312.011,316.337 311,315.5C 311.317,288.667 307.983,289.001 301,316.5C 300.586,316.043 300.086,315.709 299.5,315.5C 298.334,305.183 298.168,294.849 299,284.5C 299.05,280.843 299.883,277.51 301.5,274.5 Z"/></g>
<g><path style="opacity:1" fill="#191919" d="M 514.5,274.5 C 515.787,275.871 516.453,277.705 516.5,280C 515.578,286.821 515.412,293.654 516,300.5C 517.439,297.397 519.273,294.564 521.5,292C 523.701,291.175 525.534,291.675 527,293.5C 527.5,301.159 527.666,308.826 527.5,316.5C 525.61,316.703 524.11,316.037 523,314.5C 522.796,307.771 522.63,301.104 522.5,294.5C 517.822,301.02 514.989,308.354 514,316.5C 512.667,315.833 511.667,314.833 511,313.5C 510.264,301.95 510.764,290.45 512.5,279C 512.759,277.213 513.425,275.713 514.5,274.5 Z"/></g>
<g><path style="opacity:1" fill="#0c0c0c" d="M 714.5,276.5 C 715.833,276.5 717.167,276.5 718.5,276.5C 718.119,289.845 717.452,303.178 716.5,316.5C 715.833,316.833 715.167,317.167 714.5,317.5C 713.281,303.827 713.281,290.161 714.5,276.5 Z"/></g>
<g><path style="opacity:1" fill="#131313" d="M 243.5,290.5 C 246.187,290.336 248.854,290.503 251.5,291C 252.701,291.903 253.535,293.069 254,294.5C 253.563,301.859 253.729,309.192 254.5,316.5C 251.14,317.21 249.307,315.876 249,312.5C 247.5,314 246,315.5 244.5,317C 236.607,318.023 234.44,314.857 238,307.5C 241.092,304.578 244.592,302.245 248.5,300.5C 249.952,297.718 249.619,295.218 247.5,293C 242.385,293.317 240.385,296.15 241.5,301.5C 240.167,301.5 238.833,301.5 237.5,301.5C 237.844,296.848 239.844,293.182 243.5,290.5 Z"/></g>
<g><path style="opacity:1" fill="#131313" d="M 325.5,290.5 C 330.742,289.271 334.575,290.937 337,295.5C 336.836,302.476 336.669,309.476 336.5,316.5C 335.167,316.5 333.833,316.5 332.5,316.5C 332.762,315.022 332.429,313.689 331.5,312.5C 327.953,318.047 323.786,318.714 319,314.5C 318.365,312.365 318.699,310.365 320,308.5C 322.958,304.855 326.625,302.188 331,300.5C 332.297,296.825 331.297,294.158 328,292.5C 324.403,294.361 322.903,297.361 323.5,301.5C 322.5,301.5 321.5,301.5 320.5,301.5C 320.277,296.948 321.944,293.281 325.5,290.5 Z"/></g>
<g><path style="opacity:1" fill="#161616" d="M 424.5,290.5 C 425.833,290.5 427.167,290.5 428.5,290.5C 428.666,298.507 428.5,306.507 428,314.5C 426.286,315.925 424.953,315.592 424,313.5C 423.233,305.785 423.4,298.118 424.5,290.5 Z"/></g>
<g><path style="opacity:1" fill="#161616" d="M 538.5,290.5 C 544.302,289.006 548.136,291.006 550,296.5C 550.001,300.85 549.501,305.183 548.5,309.5C 548.753,311.858 549.086,314.192 549.5,316.5C 546.14,317.21 544.307,315.876 544,312.5C 541.543,317.186 537.877,318.519 533,316.5C 530.777,312.612 531.277,309.112 534.5,306C 537.166,303.665 540.166,301.831 543.5,300.5C 544.952,297.718 544.619,295.218 542.5,293C 539.702,292.439 537.869,293.606 537,296.5C 536.506,298.134 536.34,299.801 536.5,301.5C 534.365,301.853 533.032,301.02 532.5,299C 533.927,295.743 535.927,292.91 538.5,290.5 Z"/></g>
<g><path style="opacity:1" fill="#111111" d="M 653.5,290.5 C 657.954,289.617 661.454,290.95 664,294.5C 663.964,301.819 663.797,309.152 663.5,316.5C 660.612,316.78 659.112,315.447 659,312.5C 655.188,318.003 650.855,318.67 646,314.5C 646.991,307.324 651.158,302.658 658.5,300.5C 659.797,297.812 659.464,295.312 657.5,293C 656.167,292.333 654.833,292.333 653.5,293C 651.503,295.492 650.503,298.325 650.5,301.5C 649.5,301.5 648.5,301.5 647.5,301.5C 647.677,296.811 649.677,293.144 653.5,290.5 Z"/></g>
<g><path style="opacity:1" fill="#030303" d="M 704.5,290.5 C 705.5,290.5 706.5,290.5 707.5,290.5C 707.5,298.833 707.5,307.167 707.5,315.5C 706.178,315.67 705.011,315.337 704,314.5C 703.2,306.421 703.367,298.421 704.5,290.5 Z"/></g>
<g><path style="opacity:1" fill="#131313" d="M 736.5,275.5 C 737.5,275.5 738.5,275.5 739.5,275.5C 738.584,284.16 738.084,292.827 738,301.5C 741.349,297.984 744.849,294.651 748.5,291.5C 749.521,292.002 749.688,292.668 749,293.5C 746.537,296.965 743.704,300.131 740.5,303C 744.466,311.421 750.299,313.255 758,308.5C 758.333,309.167 758.667,309.833 759,310.5C 761.618,305.884 765.451,302.717 770.5,301C 771.591,298.936 771.758,296.769 771,294.5C 767.841,291.659 765.508,292.326 764,296.5C 763.506,298.134 763.34,299.801 763.5,301.5C 762.5,301.5 761.5,301.5 760.5,301.5C 760.844,292.985 765.177,289.485 773.5,291C 776.167,293 777.5,295.667 777.5,299C 776.669,304.804 776.335,310.638 776.5,316.5C 775.167,316.5 773.833,316.5 772.5,316.5C 772.762,315.022 772.429,313.689 771.5,312.5C 766.225,319.483 761.725,319.15 758,311.5C 755.459,316.069 751.625,317.569 746.5,316C 743.547,312.592 740.713,309.092 738,305.5C 737.827,309.541 737.327,313.541 736.5,317.5C 735.522,317.023 734.689,316.357 734,315.5C 733.333,305.5 733.333,295.5 734,285.5C 734.05,281.843 734.883,278.51 736.5,275.5 Z"/></g>
<g><path style="opacity:1" fill="#131313" d="M 810.5,290.5 C 815.742,289.271 819.575,290.937 822,295.5C 821.836,302.476 821.669,309.476 821.5,316.5C 820.167,316.5 818.833,316.5 817.5,316.5C 817.762,315.022 817.429,313.689 816.5,312.5C 812.953,318.047 808.786,318.714 804,314.5C 803.365,312.365 803.699,310.365 805,308.5C 807.958,304.855 811.625,302.188 816,300.5C 817.297,296.825 816.297,294.158 813,292.5C 809.403,294.361 807.903,297.361 808.5,301.5C 807.5,301.5 806.5,301.5 805.5,301.5C 805.277,296.948 806.944,293.281 810.5,290.5 Z"/></g>
<g><path style="opacity:1" fill="#0e0e0e" d="M 276.5,291.5 C 277.833,291.5 279.167,291.5 280.5,291.5C 279.788,298.143 279.454,304.809 279.5,311.5C 280.822,311.67 281.989,311.337 283,310.5C 286.06,304.821 288.226,298.821 289.5,292.5C 290.689,291.571 292.022,291.238 293.5,291.5C 292.25,298.835 292.25,306.168 293.5,313.5C 292.714,316.975 291.214,317.308 289,314.5C 288.667,311.833 288.333,309.167 288,306.5C 286.96,316.218 282.96,317.885 276,311.5C 275.208,304.753 275.374,298.086 276.5,291.5 Z"/></g>
<g><path style="opacity:1" fill="#161616" d="M 443.5,291.5 C 445.857,291.337 448.19,291.503 450.5,292C 451.207,294.691 450.041,296.525 447,297.5C 443.479,295.613 440.313,296.446 437.5,300C 442.276,300.061 446.443,301.561 450,304.5C 451.173,308.305 450.007,311.139 446.5,313C 442.514,315.665 438.181,316.665 433.5,316C 430.735,313.034 431.068,310.367 434.5,308C 435.332,307.312 435.998,307.479 436.5,308.5C 435.833,309.5 435.167,310.5 434.5,311.5C 435.365,312.583 436.365,312.749 437.5,312C 439.996,310.92 442.33,309.586 444.5,308C 446.037,306.89 446.703,305.39 446.5,303.5C 442.167,303.5 437.833,303.5 433.5,303.5C 433.34,301.801 433.506,300.134 434,298.5C 437.068,295.917 440.235,293.584 443.5,291.5 Z"/></g>
<g><path style="opacity:1" fill="#0e0e0e" d="M 489.5,291.5 C 490.833,291.5 492.167,291.5 493.5,291.5C 492.788,298.143 492.454,304.809 492.5,311.5C 493.822,311.67 494.989,311.337 496,310.5C 499.06,304.821 501.226,298.821 502.5,292.5C 503.689,291.571 505.022,291.238 506.5,291.5C 505.25,298.835 505.25,306.168 506.5,313.5C 505.714,316.975 504.214,317.308 502,314.5C 501.667,311.833 501.333,309.167 501,306.5C 499.96,316.218 495.96,317.885 489,311.5C 488.208,304.753 488.374,298.086 489.5,291.5 Z"/></g>
<g><path style="opacity:1" fill="#121212" d="M 195.5,291.5 C 202.706,291.707 206.706,295.373 207.5,302.5C 206.473,315.091 200.306,318.758 189,313.5C 184.493,304.183 186.66,296.85 195.5,291.5 Z"/></g>
<g><path style="opacity:1" fill="#171717" d="M 214.5,275.5 C 215.5,275.5 216.5,275.5 217.5,275.5C 217.425,281.869 217.258,288.202 217,294.5C 221.87,290.464 226.537,290.797 231,295.5C 235.72,308.393 231.22,315.06 217.5,315.5C 217.276,311.485 218.443,310.819 221,313.5C 225.545,311.594 227.712,308.094 227.5,303C 226.924,295.493 223.424,293.66 217,297.5C 216.667,303.5 216.333,309.5 216,315.5C 215,316.833 214,316.833 213,315.5C 211.978,302.042 212.478,288.709 214.5,275.5 Z"/></g>
<g><path style="opacity:1" fill="#171717" d="M 268.5,290.5 C 271.822,290.489 273.489,292.155 273.5,295.5C 271.367,302.116 269.701,301.783 268.5,294.5C 266.854,295.779 265.687,297.445 265,299.5C 264.501,305.157 264.334,310.824 264.5,316.5C 262.856,316.714 261.356,316.38 260,315.5C 259.353,307.811 259.52,300.144 260.5,292.5C 262.911,292.137 264.411,293.137 265,295.5C 265.997,293.677 267.164,292.01 268.5,290.5 Z"/></g>
<g><path style="opacity:1" fill="#111111" d="M 459.5,292.5 C 459.335,295.518 459.502,298.518 460,301.5C 460.513,300.473 461.013,299.473 461.5,298.5C 462.446,296.11 463.779,293.944 465.5,292C 466.833,291.333 468.167,291.333 469.5,292C 470.3,296.08 470.8,300.247 471,304.5C 471.989,299.688 474.156,295.521 477.5,292C 479.567,291.464 481.401,291.964 483,293.5C 482.786,300.572 482.786,307.572 483,314.5C 481.667,315.833 480.333,315.833 479,314.5C 478.899,308.116 478.732,301.782 478.5,295.5C 474.083,301.407 471.417,308.074 470.5,315.5C 469.167,315.5 467.833,315.5 466.5,315.5C 466.666,308.492 466.5,301.492 466,294.5C 461.818,300.87 459.318,307.87 458.5,315.5C 457.5,315.5 456.5,315.5 455.5,315.5C 455.334,307.826 455.5,300.159 456,292.5C 457.292,291.209 458.458,291.209 459.5,292.5 Z"/></g>
<g><path style="opacity:1" fill="#141414" d="M 674.5,295.5 C 673.371,297.628 673.204,299.961 674,302.5C 674.513,301.473 675.013,300.473 675.5,299.5C 676.507,294.986 679.174,292.486 683.5,292C 684.944,293.126 685.61,294.626 685.5,296.5C 684.732,299.154 684.566,301.821 685,304.5C 686.514,299.971 688.681,295.805 691.5,292C 693.567,291.464 695.401,291.964 697,293.5C 697.667,300.833 697.667,308.167 697,315.5C 694.91,316.791 693.576,316.124 693,313.5C 692.845,307.439 692.678,301.439 692.5,295.5C 688.18,301.478 685.514,308.144 684.5,315.5C 683.167,315.5 681.833,315.5 680.5,315.5C 682.316,287.838 679.816,287.505 673,314.5C 671.989,315.337 670.822,315.67 669.5,315.5C 669.302,307.466 669.635,299.466 670.5,291.5C 671.833,291.5 673.167,291.5 674.5,291.5C 674.5,292.833 674.5,294.167 674.5,295.5 Z"/></g>
<g><path style="opacity:1" fill="#6b6b6b" d="M 785.5,291.5 C 784.065,294.028 783.065,296.695 782.5,299.5C 782.5,296.833 782.5,294.167 782.5,291.5C 783.5,291.5 784.5,291.5 785.5,291.5 Z"/></g>
<g><path style="opacity:1" fill="#090909" d="M 785.5,291.5 C 785.833,291.5 786.167,291.5 786.5,291.5C 786.334,295.514 786.501,299.514 787,303.5C 787.791,302.255 788.291,300.922 788.5,299.5C 789.17,296.662 790.504,294.162 792.5,292C 794.579,291.192 796.579,291.359 798.5,292.5C 799.467,300.11 799.8,307.777 799.5,315.5C 798.178,315.67 797.011,315.337 796,314.5C 795.831,307.809 795.331,301.142 794.5,294.5C 792.803,295.364 791.637,296.697 791,298.5C 788.779,303.993 787.279,309.66 786.5,315.5C 784.833,315.5 783.167,315.5 781.5,315.5C 782.194,310.195 782.528,304.862 782.5,299.5C 783.065,296.695 784.065,294.028 785.5,291.5 Z"/></g>
<g><path style="opacity:1" fill="#f1f1f1" d="M 195.5,295.5 C 200.681,295.85 203.348,298.683 203.5,304C 203.721,309.03 201.554,312.53 197,314.5C 191.906,311.659 190.239,307.326 192,301.5C 192.926,299.308 194.093,297.308 195.5,295.5 Z"/></g>
<g><path style="opacity:1" fill="#969696" d="M 459.5,292.5 C 460.167,294.5 460.833,296.5 461.5,298.5C 461.013,299.473 460.513,300.473 460,301.5C 459.502,298.518 459.335,295.518 459.5,292.5 Z"/></g>
<g><path style="opacity:1" fill="#707070" d="M 144.5,294.5 C 144.205,296.735 144.539,298.735 145.5,300.5C 145.44,301.043 145.107,301.376 144.5,301.5C 143.203,299.027 143.203,296.693 144.5,294.5 Z"/></g>
<g><path style="opacity:1" fill="#6f6f6f" d="M 674.5,295.5 C 674.232,297.099 674.566,298.432 675.5,299.5C 675.013,300.473 674.513,301.473 674,302.5C 673.204,299.961 673.371,297.628 674.5,295.5 Z"/></g>
<g><path style="opacity:1" fill="#787878" d="M 786.5,291.5 C 787.167,294.167 787.833,296.833 788.5,299.5C 788.291,300.922 787.791,302.255 787,303.5C 786.501,299.514 786.334,295.514 786.5,291.5 Z"/></g>
<g><path style="opacity:1" fill="#ededed" d="M 246.5,304.5 C 247.5,304.5 248.5,304.5 249.5,304.5C 248.239,310.093 244.906,313.759 239.5,315.5C 240.066,310.699 242.4,307.032 246.5,304.5 Z"/></g>
<g><path style="opacity:1" fill="#e4e4e4" d="M 330.5,303.5 C 332.344,304.204 332.844,305.537 332,307.5C 330.285,309.759 328.452,311.926 326.5,314C 322,316.167 320.833,315 323,310.5C 325.396,307.933 327.896,305.6 330.5,303.5 Z"/></g>
<g><path style="opacity:1" fill="#ececec" d="M 542.5,304.5 C 544.344,305.204 544.844,306.537 544,308.5C 542.078,312.597 538.912,314.93 534.5,315.5C 535.574,310.748 538.24,307.081 542.5,304.5 Z"/></g>
<g><path style="opacity:1" fill="#ebebeb" d="M 658.5,303.5 C 659.124,303.917 659.457,304.584 659.5,305.5C 657.784,310.549 654.451,313.883 649.5,315.5C 649.372,313.345 649.872,311.345 651,309.5C 653.478,307.361 655.978,305.361 658.5,303.5 Z"/></g>
<g><path style="opacity:1" fill="#e4e4e4" d="M 770.5,303.5 C 772.344,304.204 772.844,305.537 772,307.5C 770.285,309.759 768.452,311.926 766.5,314C 762,316.167 760.833,315 763,310.5C 765.396,307.933 767.896,305.6 770.5,303.5 Z"/></g>
<g><path style="opacity:1" fill="#e4e4e4" d="M 815.5,303.5 C 817.344,304.204 817.844,305.537 817,307.5C 815.285,309.759 813.452,311.926 811.5,314C 807,316.167 805.833,315 808,310.5C 810.396,307.933 812.896,305.6 815.5,303.5 Z"/></g>
<g><path style="opacity:1" fill="#898989" d="M 145.5,306.5 C 144.518,309.962 144.185,313.629 144.5,317.5C 143.209,317.737 142.209,317.404 141.5,316.5C 143.112,313.256 144.112,309.589 144.5,305.5C 145.107,305.624 145.44,305.957 145.5,306.5 Z"/></g>
</svg>
