<?xml version="1.0" encoding="UTF-8"?>
<!DOCTYPE svg PUBLIC "-//W3C//DTD SVG 1.1//EN" "http://www.w3.org/Graphics/SVG/1.1/DTD/svg11.dtd">
<svg xmlns="http://www.w3.org/2000/svg" version="1.1" width="1000px" height="500px" style="shape-rendering:geometricPrecision; text-rendering:geometricPrecision; image-rendering:optimizeQuality; fill-rule:evenodd; clip-rule:evenodd" xmlns:xlink="http://www.w3.org/1999/xlink">
<g><path style="opacity:1" fill="#fefefe" d="M -0.5,-0.5 C 332.833,-0.5 666.167,-0.5 999.5,-0.5C 999.5,166.167 999.5,332.833 999.5,499.5C 666.167,499.5 332.833,499.5 -0.5,499.5C -0.5,332.833 -0.5,166.167 -0.5,-0.5 Z"/></g>
<g><path style="opacity:1" fill="#222222" d="M 381.5,147.5 C 386.942,147.886 388.275,150.386 385.5,155C 383.866,155.494 382.199,155.66 380.5,155.5C 380.351,154.448 380.517,153.448 381,152.5C 382.356,153.38 383.856,153.714 385.5,153.5C 385.278,150.315 383.778,149.315 381,150.5C 380.53,149.423 380.697,148.423 381.5,147.5 Z"/></g>
<g><path style="opacity:1" fill="#222222" d="M 277.5,153.5 C 282.942,153.886 284.275,156.386 281.5,161C 279.866,161.494 278.199,161.66 276.5,161.5C 276.351,160.448 276.517,159.448 277,158.5C 278.356,159.38 279.856,159.714 281.5,159.5C 281.278,156.315 279.778,155.315 277,156.5C 276.53,155.423 276.697,154.423 277.5,153.5 Z"/></g>
<g><path style="opacity:1" fill="#202020" d="M 294.5,155.5 C 295.822,155.33 296.989,155.663 298,156.5C 297.773,158.574 297.939,160.574 298.5,162.5C 296.076,164.474 293.409,165.641 290.5,166C 293.933,163.449 295.267,159.949 294.5,155.5 Z"/></g>
<g><path style="opacity:1" fill="#101010" d="M 401.5,155.5 C 402.5,155.5 403.5,155.5 404.5,155.5C 404.292,157.92 404.626,160.253 405.5,162.5C 402.636,163.207 400.136,164.541 398,166.5C 397.5,166.333 397,166.167 396.5,166C 401.239,163.933 402.906,160.433 401.5,155.5 Z"/></g>
<g><path style="opacity:1" fill="#212121" d="M 214.5,158.5 C 218.541,158.502 219.208,159.835 216.5,162.5C 215.5,162 214.5,161.5 213.5,161C 214.252,160.329 214.586,159.496 214.5,158.5 Z"/></g>
<g><path style="opacity:1" fill="#878787" d="M 401.5,157.5 C 403.337,157.639 403.67,158.306 402.5,159.5C 401.702,159.043 401.369,158.376 401.5,157.5 Z"/></g>
<g><path style="opacity:1" fill="#2e2e2e" d="M 321.5,158.5 C 323.255,165.081 324.255,171.914 324.5,179C 324.557,181.96 324.057,184.793 323,187.5C 322.386,179.643 321.553,171.81 320.5,164C 320.696,162.122 321.029,160.288 321.5,158.5 Z"/></g>
<g><path style="opacity:1" fill="#2e2e2e" d="M 528.5,158.5 C 530.255,165.081 531.255,171.914 531.5,179C 531.557,181.96 531.057,184.793 530,187.5C 529.386,179.643 528.553,171.81 527.5,164C 527.696,162.122 528.029,160.288 528.5,158.5 Z"/></g>
<g><path style="opacity:1" fill="#242424" d="M 259.5,158.5 C 260.774,159.189 260.774,160.023 259.5,161C 256.942,162.626 254.275,163.626 251.5,164C 254.059,161.897 256.726,160.064 259.5,158.5 Z"/></g>
<g><path style="opacity:1" fill="#2d2d2d" d="M 428.5,158.5 C 431.22,167.97 431.72,177.637 430,187.5C 428.246,177.836 427.746,168.169 428.5,158.5 Z"/></g>
<g><path style="opacity:1" fill="#191919" d="M 384.5,163.5 C 386.912,163.694 387.912,165.027 387.5,167.5C 384.014,167.705 383.014,166.371 384.5,163.5 Z"/></g>
<g><path style="opacity:1" fill="#1e1e1e" d="M 481.5,161.5 C 483.198,158.876 485.031,158.876 487,161.5C 487.833,166 486,167.833 481.5,167C 480.193,165.057 480.193,163.223 481.5,161.5 Z"/></g>
<g><path style="opacity:1" fill="#dddddd" d="M 481.5,161.5 C 484.5,161.167 485.833,162.5 485.5,165.5C 482.5,165.833 481.167,164.5 481.5,161.5 Z"/></g>
<g><path style="opacity:1" fill="#292929" d="M 370.5,162.5 C 371.774,163.189 371.774,164.023 370.5,165C 368.167,166.167 365.833,167.333 363.5,168.5C 363.167,168.167 362.833,167.833 362.5,167.5C 365.231,165.808 367.898,164.142 370.5,162.5 Z"/></g>
<g><path style="opacity:1" fill="#202020" d="M 279.5,172.5 C 280.995,172.415 281.995,173.081 282.5,174.5C 281.68,176.111 280.346,176.778 278.5,176.5C 278.433,175.041 278.766,173.708 279.5,172.5 Z"/></g>
<g><path style="opacity:1" fill="#626262" d="M 186.5,180.5 C 185.833,179.833 185.167,179.167 184.5,178.5C 184.795,176.577 185.628,174.91 187,173.5C 186.793,175.751 186.627,178.085 186.5,180.5 Z"/></g>
<g><path style="opacity:1" fill="#0d0d0d" d="M 542.5,175.5 C 547.694,175.416 548.694,177.416 545.5,181.5C 581.797,203.652 618.131,225.819 654.5,248C 653.949,249.398 653.616,250.732 653.5,252C 617.298,273.597 581.298,295.43 545.5,317.5C 548.464,320.239 548.131,322.239 544.5,323.5C 540.936,322.953 537.436,322.286 534,321.5C 534.53,317.738 535.697,314.071 537.5,310.5C 538.167,310.167 538.833,309.833 539.5,309.5C 541.106,311.073 542.773,312.24 544.5,313C 578.001,292.415 611.667,272.082 645.5,252C 612.168,251.5 578.835,251.333 545.5,251.5C 545.5,253.5 545.5,255.5 545.5,257.5C 540.978,256.067 537.311,253.4 534.5,249.5C 537.311,245.6 540.978,242.933 545.5,241.5C 545.5,243.5 545.5,245.5 545.5,247.5C 578.835,247.667 612.168,247.5 645.5,247C 611.667,226.918 578.001,206.585 544.5,186C 542.806,187.944 540.472,189.111 537.5,189.5C 535.996,185.522 534.83,181.522 534,177.5C 536.939,176.872 539.772,176.205 542.5,175.5 Z"/></g>
<g><path style="opacity:1" fill="#131313" d="M 268.5,182.5 C 267.711,182.783 267.044,183.283 266.5,184C 269.039,184.796 271.372,184.629 273.5,183.5C 276.97,184.125 279.804,183.125 282,180.5C 283.666,183.379 286.166,184.212 289.5,183C 291.977,181.357 294.31,179.524 296.5,177.5C 300.768,182.469 306.101,184.302 312.5,183C 313.643,175.51 313.309,168.01 311.5,160.5C 311.901,155.746 313.234,155.413 315.5,159.5C 314.104,160.852 313.437,162.519 313.5,164.5C 315.324,170.384 315.824,176.384 315,182.5C 311.657,187.963 307.157,188.963 301.5,185.5C 300.672,186.415 299.672,187.081 298.5,187.5C 296.128,186.897 293.961,185.897 292,184.5C 288.275,188.386 284.609,188.386 281,184.5C 280.097,185.701 278.931,186.535 277.5,187C 268.737,186.878 260.237,187.711 252,189.5C 249.516,188.114 247.183,186.447 245,184.5C 243.005,186.747 240.505,187.747 237.5,187.5C 236.846,194.52 233.179,198.854 226.5,200.5C 224.701,200.423 223.034,199.923 221.5,199C 228.397,198.768 233.063,195.434 235.5,189C 234.833,187.667 234.167,186.333 233.5,185C 233.613,183.72 234.28,182.887 235.5,182.5C 239.539,184.283 243.039,183.616 246,180.5C 247.666,183.379 250.166,184.212 253.5,183C 256.993,177.991 261.66,174.824 267.5,173.5C 270.5,173.167 271.833,174.5 271.5,177.5C 271.714,179.942 270.714,181.608 268.5,182.5 Z"/></g>
<g><path style="opacity:1" fill="#e9e9e9" d="M 261.5,177.5 C 271.526,178.002 271.859,179.835 262.5,183C 260.167,183.667 257.833,183.667 255.5,183C 257.396,180.932 259.396,179.099 261.5,177.5 Z"/></g>
<g><path style="opacity:1" fill="#191919" d="M 519.5,154.5 C 522.38,155.523 522.88,157.19 521,159.5C 520.798,165.759 519.965,171.926 518.5,178C 520.703,186.628 517.369,189.795 508.5,187.5C 508.5,186.167 508.5,184.833 508.5,183.5C 512.002,183.833 514.336,182.333 515.5,179C 512.742,173.907 509.575,169.073 506,164.5C 500.526,164.134 498.693,161.134 500.5,155.5C 507.436,161.372 512.936,168.372 517,176.5C 519.108,169.325 519.942,161.992 519.5,154.5 Z"/></g>
<g><path style="opacity:1" fill="#161616" d="M 184.5,178.5 C 185.167,179.167 185.833,179.833 186.5,180.5C 187.058,181.79 188.058,182.623 189.5,183C 198.457,184.298 207.123,183.298 215.5,180C 217.813,179.359 219.48,178.026 220.5,176C 220.167,175.5 219.833,175 219.5,174.5C 214.242,177.987 212.075,176.653 213,170.5C 215.764,165.3 218.43,165.3 221,170.5C 223.019,179.166 219.519,183.999 210.5,185C 203.649,187.245 196.649,187.912 189.5,187C 185.512,185.516 183.846,182.683 184.5,178.5 Z"/></g>
<g><path style="opacity:1" fill="#e3e3e3" d="M 214.5,170.5 C 215.675,170.281 216.675,170.614 217.5,171.5C 215.948,172.798 214.948,172.465 214.5,170.5 Z"/></g>
<g><path style="opacity:1" fill="#191919" d="M 419.5,156.5 C 420.88,156.962 421.547,157.962 421.5,159.5C 421.059,161.145 420.726,162.811 420.5,164.5C 422.776,171.133 422.942,177.8 421,184.5C 417.206,188.156 413.039,188.49 408.5,185.5C 407.719,186.737 406.719,187.737 405.5,188.5C 403.191,187.349 401.024,186.016 399,184.5C 393.954,188.119 388.621,188.453 383,185.5C 379.906,186.566 376.74,187.232 373.5,187.5C 372.846,194.52 369.179,198.854 362.5,200.5C 360.701,200.423 359.034,199.923 357.5,199C 364.397,198.768 369.063,195.434 371.5,189C 370.833,187.667 370.167,186.333 369.5,185C 369.645,184.228 369.978,183.561 370.5,183C 373.413,183.29 376.413,183.457 379.5,183.5C 379.858,178.494 382.191,174.827 386.5,172.5C 390.086,175.379 390.419,178.712 387.5,182.5C 390.446,183.655 393.446,183.821 396.5,183C 398.996,181.446 401.163,179.613 403,177.5C 405.489,179.319 407.989,181.152 410.5,183C 413.562,183.741 416.562,183.575 419.5,182.5C 419.702,173.773 419.702,165.106 419.5,156.5 Z"/></g>
<g><path style="opacity:1" fill="#eeeeee" d="M 383.5,176.5 C 389.283,177.554 389.617,179.221 384.5,181.5C 382.296,180.218 381.962,178.551 383.5,176.5 Z"/></g>
<g><path style="opacity:1" fill="#cfcfcf" d="M 295.5,179.5 C 298.119,180.403 298.786,182.069 297.5,184.5C 294.807,183.468 294.14,181.802 295.5,179.5 Z"/></g>
<g><path style="opacity:1" fill="#f7f7f7" d="M 402.5,179.5 C 404.476,180.427 404.809,181.76 403.5,183.5C 401.358,182.563 401.024,181.23 402.5,179.5 Z"/></g>
<g><path style="opacity:1" fill="#181818" d="M 493.5,176.5 C 496.311,180.247 495.478,183.247 491,185.5C 489.715,185.05 488.548,184.383 487.5,183.5C 485.747,185.261 483.747,186.594 481.5,187.5C 479.896,187.061 478.396,186.394 477,185.5C 472.695,187.713 468.195,188.046 463.5,186.5C 460.8,194.509 458.8,194.176 457.5,185.5C 454.412,185.367 452.412,186.7 451.5,189.5C 452.393,194.522 453.393,199.522 454.5,204.5C 454.523,206.067 454.023,207.4 453,208.5C 451.452,201.221 450.785,193.887 451,186.5C 454.249,179.423 458.749,178.256 464.5,183C 469.674,184.282 474.34,183.449 478.5,180.5C 482.476,184.719 485.642,184.053 488,178.5C 492.104,182.741 493.938,182.074 493.5,176.5 Z"/></g>
<g><path style="opacity:1" fill="#131313" d="M 349.5,170.5 C 355.823,172.464 358.656,176.798 358,183.5C 354.265,187.096 349.765,188.429 344.5,187.5C 344.5,186.167 344.5,184.833 344.5,183.5C 348.546,183.85 352.38,183.183 356,181.5C 355.721,177.059 353.221,174.726 348.5,174.5C 348.433,173.041 348.766,171.708 349.5,170.5 Z"/></g>
<g><path style="opacity:1" fill="#656565" d="M 268.5,182.5 C 269.919,183.451 271.585,183.784 273.5,183.5C 271.372,184.629 269.039,184.796 266.5,184C 267.044,183.283 267.711,182.783 268.5,182.5 Z"/></g>
<g><path style="opacity:1" fill="#282828" d="M 520.5,190.5 C 521.774,191.189 521.774,192.023 520.5,193C 517.475,194.688 514.475,196.021 511.5,197C 514.402,194.583 517.402,192.416 520.5,190.5 Z"/></g>
<g><path style="opacity:1" fill="#232323" d="M 352.5,193.5 C 354.842,193.775 354.842,194.608 352.5,196C 350.254,197.039 348.087,198.206 346,199.5C 345.383,198.551 345.549,197.718 346.5,197C 348.727,196.059 350.727,194.892 352.5,193.5 Z"/></g>
<g><path style="opacity:1" fill="#0f0f0f" d="M 686.5,195.5 C 688.144,195.286 689.644,195.62 691,196.5C 691.777,199.429 691.61,202.263 690.5,205C 692.155,206.444 692.822,208.278 692.5,210.5C 690.856,210.714 689.356,210.38 688,209.5C 685.315,213.927 681.482,215.76 676.5,215C 679.423,212.955 682.257,210.788 685,208.5C 682.642,203.949 683.142,199.615 686.5,195.5 Z"/></g>
<g><path style="opacity:1" fill="#232323" d="M 202.5,194.5 C 204.842,194.775 204.842,195.608 202.5,197C 200.254,198.039 198.087,199.206 196,200.5C 195.383,199.551 195.549,198.718 196.5,198C 198.727,197.059 200.727,195.892 202.5,194.5 Z"/></g>
<g><path style="opacity:1" fill="#191919" d="M 797.5,198.5 C 798.239,198.369 798.906,198.536 799.5,199C 798.743,200.512 797.743,201.846 796.5,203C 792,205.5 787.5,208 783,210.5C 782.289,208.633 782.789,207.133 784.5,206C 789.223,203.978 793.557,201.478 797.5,198.5 Z"/></g>
<g><path style="opacity:1" fill="#d4d4d4" d="M 685.5,199.5 C 688.076,199.722 688.91,201.055 688,203.5C 686.519,202.529 685.685,201.196 685.5,199.5 Z"/></g>
<g><path style="opacity:1" fill="#232323" d="M 233.5,204.5 C 235.842,204.775 235.842,205.608 233.5,207C 231.254,208.039 229.087,209.206 227,210.5C 226.383,209.551 226.549,208.718 227.5,208C 229.727,207.059 231.727,205.892 233.5,204.5 Z"/></g>
<g><path style="opacity:1" fill="#2c2c2c" d="M 456.5,210.5 C 458.337,210.639 458.67,211.306 457.5,212.5C 447.348,217.53 447.015,216.863 456.5,210.5 Z"/></g>
<g><path style="opacity:1" fill="#202020" d="M 373.5,217.5 C 378.654,218.268 379.654,220.768 376.5,225C 371.917,225.934 370.417,224.1 372,219.5C 372.717,218.956 373.217,218.289 373.5,217.5 Z"/></g>
<g><path style="opacity:1" fill="#161616" d="M 853.5,216.5 C 855.547,228.643 857.213,240.976 858.5,253.5C 858.145,257.921 857.312,262.254 856,266.5C 854.369,252.863 852.869,239.196 851.5,225.5C 851.449,222.303 852.115,219.303 853.5,216.5 Z"/></g>
<g><path style="opacity:1" fill="#dddddd" d="M 373.5,219.5 C 378.663,221.424 378.663,222.591 373.5,223C 372.316,221.855 372.316,220.688 373.5,219.5 Z"/></g>
<g><path style="opacity:1" fill="#2f2f2f" d="M 404.5,219.5 C 405.239,219.369 405.906,219.536 406.5,220C 403.767,222.784 400.601,224.951 397,226.5C 396.383,225.551 396.549,224.718 397.5,224C 400.239,222.974 402.572,221.474 404.5,219.5 Z"/></g>
<g><path style="opacity:1" fill="#121212" d="M 749.5,218.5 C 756.555,218.25 759.055,221.583 757,228.5C 754.947,232.292 751.781,233.458 747.5,232C 744.409,226.799 745.075,222.299 749.5,218.5 Z"/></g>
<g><path style="opacity:1" fill="#e6e6e6" d="M 748.5,221.5 C 753.102,221.428 755.102,223.428 754.5,227.5C 748.487,229.454 746.487,227.454 748.5,221.5 Z"/></g>
<g><path style="opacity:1" fill="#202020" d="M 249.5,225.5 C 254.654,226.268 255.654,228.768 252.5,233C 247.917,233.934 246.417,232.1 248,227.5C 248.717,226.956 249.217,226.289 249.5,225.5 Z"/></g>
<g><path style="opacity:1" fill="#1c1c1c" d="M 719.5,223.5 C 720.376,223.369 721.043,223.702 721.5,224.5C 720.352,226.149 719.019,227.649 717.5,229C 713.255,231.039 709.088,233.206 705,235.5C 704.289,233.633 704.789,232.133 706.5,231C 711.223,228.978 715.557,226.478 719.5,223.5 Z"/></g>
<g><path style="opacity:1" fill="#151515" d="M 405.5,225.5 C 406.622,227.288 406.789,229.288 406,231.5C 403.528,232.2 401.195,233.2 399,234.5C 396.681,233.591 396.014,231.925 397,229.5C 397.71,230.973 398.876,231.64 400.5,231.5C 400.312,229.897 400.812,228.563 402,227.5C 404.351,230.043 405.517,229.377 405.5,225.5 Z"/></g>
<g><path style="opacity:1" fill="#202020" d="M 266.5,227.5 C 267.822,227.33 268.989,227.663 270,228.5C 269.773,230.574 269.939,232.574 270.5,234.5C 268.076,236.474 265.409,237.641 262.5,238C 265.933,235.449 267.267,231.949 266.5,227.5 Z"/></g>
<g><path style="opacity:1" fill="#121212" d="M 690.5,226.5 C 697.062,227.564 697.895,230.231 693,234.5C 691.414,233.624 689.914,232.624 688.5,231.5C 687.167,232.833 685.833,234.167 684.5,235.5C 680.363,233.764 679.696,231.264 682.5,228C 684.903,227.37 686.737,228.203 688,230.5C 689.481,229.529 690.315,228.196 690.5,226.5 Z"/></g>
<g><path style="opacity:1" fill="#dddddd" d="M 249.5,227.5 C 254.663,229.424 254.663,230.591 249.5,231C 248.316,229.855 248.316,228.688 249.5,227.5 Z"/></g>
<g><path style="opacity:1" fill="#212121" d="M 186.5,230.5 C 190.541,230.502 191.208,231.835 188.5,234.5C 187.5,234 186.5,233.5 185.5,233C 186.252,232.329 186.586,231.496 186.5,230.5 Z"/></g>
<g><path style="opacity:1" fill="#101010" d="M 822.5,206.5 C 823.552,206.351 824.552,206.517 825.5,207C 824.692,209.088 823.692,211.088 822.5,213C 813.602,216.115 804.936,219.782 796.5,224C 792.381,226.29 788.714,229.124 785.5,232.5C 799.514,240.179 812.514,249.345 824.5,260C 828.167,260.667 831.833,260.667 835.5,260C 838.992,258.123 840.326,255.123 839.5,251C 838.167,240.669 836.834,230.336 835.5,220C 835.611,211.162 837.611,210.495 841.5,218C 840.001,220.398 839.334,223.065 839.5,226C 840.337,233.191 841.337,240.358 842.5,247.5C 842.14,251.517 841.64,255.517 841,259.5C 837.744,266.597 832.244,269.097 824.5,267C 818.293,261.125 811.793,255.625 805,250.5C 805.98,260.517 801.48,266.017 791.5,267C 786.5,267.667 781.5,267.667 776.5,267C 773.527,265.235 771.36,262.735 770,259.5C 768.046,264.385 764.546,266.552 759.5,266C 757.951,264.786 756.785,263.286 756,261.5C 752.767,266.249 748.267,268.082 742.5,267C 740.36,266.027 738.693,264.527 737.5,262.5C 733.771,266.523 729.104,268.189 723.5,267.5C 722.193,285.012 713.193,291.846 696.5,288C 708.532,286.947 716.865,280.947 721.5,270C 720.167,267.667 718.833,265.333 717.5,263C 718.196,261.107 719.03,259.274 720,257.5C 720.833,258.333 721.667,259.167 722.5,260C 729.569,262.035 735.236,260.202 739.5,254.5C 740.406,256.386 741.406,258.22 742.5,260C 749.431,261.637 754.764,259.47 758.5,253.5C 762.232,260.01 766.232,260.01 770.5,253.5C 771.803,255.937 773.47,258.104 775.5,260C 782.5,260.667 789.5,260.667 796.5,260C 801.637,258.794 803.47,255.627 802,250.5C 797.154,246.081 791.821,242.414 786,239.5C 782.129,233.559 782.962,228.393 788.5,224C 799.487,217.341 810.821,211.507 822.5,206.5 Z"/></g>
<g><path style="opacity:1" fill="#2e2e2e" d="M 293.5,230.5 C 295.255,237.081 296.255,243.914 296.5,251C 296.557,253.96 296.057,256.793 295,259.5C 294.386,251.643 293.553,243.81 292.5,236C 292.696,234.122 293.029,232.288 293.5,230.5 Z"/></g>
<g><path style="opacity:1" fill="#282828" d="M 501.5,231.5 C 503.842,231.775 503.842,232.608 501.5,234C 498.942,235.626 496.275,236.626 493.5,237C 496.07,234.913 498.737,233.08 501.5,231.5 Z"/></g>
<g><path style="opacity:1" fill="#292929" d="M 231.5,229.5 C 232.774,230.189 232.774,231.023 231.5,232C 229.167,233.167 226.833,234.333 224.5,235.5C 224.167,235.167 223.833,234.833 223.5,234.5C 226.231,232.808 228.898,231.142 231.5,229.5 Z"/></g>
<g><path style="opacity:1" fill="#2d2d2d" d="M 421.5,230.5 C 424.22,239.97 424.72,249.637 423,259.5C 421.246,249.836 420.746,240.169 421.5,230.5 Z"/></g>
<g><path style="opacity:1" fill="#1e1e1e" d="M 472.5,231.5 C 474.198,228.876 476.031,228.876 478,231.5C 478.833,236 477,237.833 472.5,237C 471.193,235.057 471.193,233.223 472.5,231.5 Z"/></g>
<g><path style="opacity:1" fill="#dddddd" d="M 472.5,231.5 C 475.5,231.167 476.833,232.5 476.5,235.5C 473.5,235.833 472.167,234.5 472.5,231.5 Z"/></g>
<g><path style="opacity:1" fill="#242424" d="M 529.5,232.5 C 530.774,233.189 530.774,234.023 529.5,235C 526.942,236.626 524.275,237.626 521.5,238C 524.059,235.897 526.726,234.064 529.5,232.5 Z"/></g>
<g><path style="opacity:1" fill="#1e1e1e" d="M 331.5,233.5 C 333.198,230.876 335.031,230.876 337,233.5C 337.833,238 336,239.833 331.5,239C 330.193,237.057 330.193,235.223 331.5,233.5 Z"/></g>
<g><path style="opacity:1" fill="#dddddd" d="M 331.5,233.5 C 334.5,233.167 335.833,234.5 335.5,237.5C 332.5,237.833 331.167,236.5 331.5,233.5 Z"/></g>
<g><path style="opacity:1" fill="#171717" d="M 383.5,250.5 C 383.062,249.494 382.396,249.494 381.5,250.5C 379.112,247.462 376.112,245.129 372.5,243.5C 371.48,241.568 371.313,239.568 372,237.5C 378.436,231.196 385.936,227.529 394.5,226.5C 394.023,227.478 393.357,228.311 392.5,229C 385.072,231.212 378.405,234.712 372.5,239.5C 380.174,243.679 387.174,248.845 393.5,255C 397.709,256.189 401.376,255.356 404.5,252.5C 405.386,253.325 405.719,254.325 405.5,255.5C 411.18,256.843 413.847,254.676 413.5,249C 412.997,243.813 412.33,238.647 411.5,233.5C 411.436,231.611 411.936,229.944 413,228.5C 414.576,230.976 414.743,233.642 413.5,236.5C 415.776,243.133 415.942,249.8 414,256.5C 410.665,260.11 406.998,260.443 403,257.5C 400.439,259.344 397.606,259.844 394.5,259C 390.957,255.951 387.291,253.118 383.5,250.5 Z"/></g>
<g><path style="opacity:1" fill="#0f0f0f" d="M 686.5,240.5 C 691.647,241.473 695.147,244.473 697,249.5C 698.894,256.676 697.06,262.509 691.5,267C 683.689,269.73 679.689,267.064 679.5,259C 680.585,252.335 682.919,246.168 686.5,240.5 Z"/></g>
<g><path style="opacity:1" fill="#202020" d="M 251.5,244.5 C 252.995,244.415 253.995,245.081 254.5,246.5C 253.68,248.111 252.346,248.778 250.5,248.5C 250.433,247.041 250.766,245.708 251.5,244.5 Z"/></g>
<g><path style="opacity:1" fill="#181818" d="M 404.5,243.5 C 408.095,244.905 408.262,246.572 405,248.5C 403.598,246.027 402.098,246.027 400.5,248.5C 398.512,247.711 398.179,246.545 399.5,245C 400.549,244.508 401.549,244.674 402.5,245.5C 403.522,245.145 404.189,244.478 404.5,243.5 Z"/></g>
<g><path style="opacity:1" fill="#121212" d="M 455.5,276.5 C 459.833,277.167 464.167,277.833 468.5,278.5C 462.963,280.291 457.296,280.791 451.5,280C 443.905,276.527 441.405,270.694 444,262.5C 445.738,258.759 448.238,255.592 451.5,253C 447.54,250.911 447.54,248.911 451.5,247C 455.175,245.703 457.842,246.703 459.5,250C 457.244,251.834 457.244,253.501 459.5,255C 466.436,256.916 472.102,255.082 476.5,249.5C 483.873,256.428 491.873,257.261 500.5,252C 497.23,251.005 493.897,250.172 490.5,249.5C 491.412,247.257 493.078,246.257 495.5,246.5C 501.663,248.776 507.996,250.442 514.5,251.5C 514.291,252.086 513.957,252.586 513.5,253C 509.833,253.333 506.167,253.667 502.5,254C 498.833,255.667 495.167,257.333 491.5,259C 487.958,259.851 484.625,259.351 481.5,257.5C 480.672,258.415 479.672,259.081 478.5,259.5C 476.128,258.897 473.961,257.897 472,256.5C 470.566,256.93 469.399,257.764 468.5,259C 467.167,259.167 465.833,259.333 464.5,259.5C 460.141,258.561 456.141,257.061 452.5,255C 448.175,257.975 445.508,261.975 444.5,267C 445.826,272.823 449.492,275.99 455.5,276.5 Z"/></g>
<g><path style="opacity:1" fill="#626262" d="M 158.5,252.5 C 157.833,251.833 157.167,251.167 156.5,250.5C 156.795,248.577 157.628,246.91 159,245.5C 158.793,247.751 158.627,250.085 158.5,252.5 Z"/></g>
<g><path style="opacity:1" fill="#131313" d="M 240.5,254.5 C 239.711,254.783 239.044,255.283 238.5,256C 241.039,256.796 243.372,256.629 245.5,255.5C 248.97,256.125 251.804,255.125 254,252.5C 255.666,255.379 258.166,256.212 261.5,255C 263.977,253.357 266.31,251.524 268.5,249.5C 272.768,254.469 278.101,256.302 284.5,255C 285.643,247.51 285.309,240.01 283.5,232.5C 283.901,227.746 285.234,227.413 287.5,231.5C 286.104,232.852 285.437,234.519 285.5,236.5C 287.324,242.384 287.824,248.384 287,254.5C 283.657,259.963 279.157,260.963 273.5,257.5C 272.672,258.415 271.672,259.081 270.5,259.5C 268.128,258.897 265.961,257.897 264,256.5C 260.275,260.386 256.609,260.386 253,256.5C 252.097,257.701 250.931,258.535 249.5,259C 240.737,258.878 232.237,259.711 224,261.5C 221.516,260.114 219.183,258.447 217,256.5C 215.005,258.747 212.505,259.747 209.5,259.5C 208.846,266.52 205.179,270.854 198.5,272.5C 196.701,272.423 195.034,271.923 193.5,271C 200.397,270.768 205.063,267.434 207.5,261C 206.833,259.667 206.167,258.333 205.5,257C 205.613,255.72 206.28,254.887 207.5,254.5C 211.539,256.283 215.039,255.616 218,252.5C 219.666,255.379 222.166,256.212 225.5,255C 228.993,249.991 233.66,246.824 239.5,245.5C 242.5,245.167 243.833,246.5 243.5,249.5C 243.714,251.942 242.714,253.608 240.5,254.5 Z"/></g>
<g><path style="opacity:1" fill="#e9e9e9" d="M 233.5,249.5 C 243.526,250.002 243.859,251.835 234.5,255C 232.167,255.667 229.833,255.667 227.5,255C 229.396,252.932 231.396,251.099 233.5,249.5 Z"/></g>
<g><path style="opacity:1" fill="#161616" d="M 156.5,250.5 C 157.167,251.167 157.833,251.833 158.5,252.5C 159.058,253.79 160.058,254.623 161.5,255C 170.457,256.298 179.123,255.298 187.5,252C 189.813,251.359 191.48,250.026 192.5,248C 192.167,247.5 191.833,247 191.5,246.5C 186.242,249.987 184.075,248.653 185,242.5C 187.764,237.3 190.43,237.3 193,242.5C 195.019,251.166 191.519,255.999 182.5,257C 175.649,259.245 168.649,259.912 161.5,259C 157.512,257.516 155.846,254.683 156.5,250.5 Z"/></g>
<g><path style="opacity:1" fill="#e3e3e3" d="M 186.5,242.5 C 187.675,242.281 188.675,242.614 189.5,243.5C 187.948,244.798 186.948,244.465 186.5,242.5 Z"/></g>
<g><path style="opacity:1" fill="#696969" d="M 383.5,250.5 C 383.768,252.099 383.434,253.432 382.5,254.5C 382.5,253.833 382.167,253.5 381.5,253.5C 381.5,252.5 381.5,251.5 381.5,250.5C 382.396,249.494 383.062,249.494 383.5,250.5 Z"/></g>
<g><path style="opacity:1" fill="#f0f0f0" d="M 684.5,250.5 C 688.281,250.974 691.448,252.641 694,255.5C 694.749,256.635 694.583,257.635 693.5,258.5C 683.928,262.588 680.928,259.922 684.5,250.5 Z"/></g>
<g><path style="opacity:1" fill="#cfcfcf" d="M 267.5,251.5 C 270.119,252.403 270.786,254.069 269.5,256.5C 266.807,255.468 266.14,253.802 267.5,251.5 Z"/></g>
<g><path style="opacity:1" fill="#171717" d="M 381.5,253.5 C 382.167,253.5 382.5,253.833 382.5,254.5C 381.781,256.888 380.115,258.388 377.5,259C 373.833,259.667 370.167,259.667 366.5,259C 365.299,258.097 364.465,256.931 364,255.5C 361.633,258.932 358.966,259.265 356,256.5C 352.735,259.924 349.235,260.257 345.5,257.5C 342.711,259.298 339.711,259.798 336.5,259C 335.874,258.25 335.374,257.416 335,256.5C 332.695,258.93 329.862,259.93 326.5,259.5C 326.737,260.791 326.404,261.791 325.5,262.5C 324.64,260.184 324.14,257.851 324,255.5C 326.636,255.455 329.47,255.288 332.5,255C 333.646,254.355 334.646,253.522 335.5,252.5C 339.043,256.423 342.71,256.423 346.5,252.5C 350.226,256.6 353.726,256.267 357,251.5C 359.128,255.376 361.461,255.376 364,251.5C 364.465,252.931 365.299,254.097 366.5,255C 370.5,255.667 374.5,255.667 378.5,255C 379.737,254.768 380.737,254.268 381.5,253.5 Z"/></g>
<g><path style="opacity:1" fill="#cfcfcf" d="M 475.5,251.5 C 478.119,252.403 478.786,254.069 477.5,256.5C 474.807,255.468 474.14,253.802 475.5,251.5 Z"/></g>
<g><path style="opacity:1" fill="#656565" d="M 240.5,254.5 C 241.919,255.451 243.585,255.784 245.5,255.5C 243.372,256.629 241.039,256.796 238.5,256C 239.044,255.283 239.711,254.783 240.5,254.5 Z"/></g>
<g><path style="opacity:1" fill="#171717" d="M 500.5,262.5 C 504.474,264.581 504.141,265.914 499.5,266.5C 499.433,265.041 499.766,263.708 500.5,262.5 Z"/></g>
<g><path style="opacity:1" fill="#181818" d="M 335.5,262.5 C 339.127,263.47 339.461,265.137 336.5,267.5C 335.522,267.023 334.689,266.357 334,265.5C 332.921,267.394 331.587,267.727 330,266.5C 329.786,263.686 330.953,263.02 333.5,264.5C 334.522,264.145 335.189,263.478 335.5,262.5 Z"/></g>
<g><path style="opacity:1" fill="#1d1d1d" d="M 325.5,262.5 C 324.005,270.742 319.338,273.576 311.5,271C 317.644,270.435 322.311,267.602 325.5,262.5 Z"/></g>
<g><path style="opacity:1" fill="#232323" d="M 355.5,265.5 C 357.842,265.775 357.842,266.608 355.5,268C 353.254,269.039 351.087,270.206 349,271.5C 348.383,270.551 348.549,269.718 349.5,269C 351.727,268.059 353.727,266.892 355.5,265.5 Z"/></g>
<g><path style="opacity:1" fill="#202020" d="M 527.5,246.5 C 529.752,246.916 531.252,248.249 532,250.5C 533.644,259.801 530.81,267.301 523.5,273C 520.536,273.569 517.87,272.902 515.5,271C 525.074,270.759 529.907,265.926 530,256.5C 528.333,257.833 526.667,257.833 525,256.5C 524.024,252.673 524.857,249.34 527.5,246.5 Z"/></g>
<g><path style="opacity:1" fill="#b1b1b1" d="M 526.5,251.5 C 528.337,251.639 528.67,252.306 527.5,253.5C 526.702,253.043 526.369,252.376 526.5,251.5 Z"/></g>
<g><path style="opacity:1" fill="#232323" d="M 174.5,266.5 C 176.842,266.775 176.842,267.608 174.5,269C 172.254,270.039 170.087,271.206 168,272.5C 167.383,271.551 167.549,270.718 168.5,270C 170.727,269.059 172.727,267.892 174.5,266.5 Z"/></g>
<g><path style="opacity:1" fill="#aaaaaa" d="M 455.5,276.5 C 460.511,276.334 465.511,276.501 470.5,277C 469.956,277.717 469.289,278.217 468.5,278.5C 464.167,277.833 459.833,277.167 455.5,276.5 Z"/></g>
<g><path style="opacity:1" fill="#232323" d="M 205.5,275.5 C 207.842,275.775 207.842,276.608 205.5,278C 203.254,279.039 201.087,280.206 199,281.5C 198.383,280.551 198.549,279.718 199.5,279C 201.727,278.059 203.727,276.892 205.5,275.5 Z"/></g>
<g><path style="opacity:1" fill="#282828" d="M 324.5,274.5 C 325.774,275.189 325.774,276.023 324.5,277C 321.475,278.688 318.475,280.021 315.5,281C 318.402,278.583 321.402,276.416 324.5,274.5 Z"/></g>
<g><path style="opacity:1" fill="#2c2c2c" d="M 457.5,283.5 C 459.337,283.639 459.67,284.306 458.5,285.5C 448.348,290.53 448.015,289.863 457.5,283.5 Z"/></g>
<g><path style="opacity:1" fill="#1b1b1b" d="M 363.5,288.5 C 365.379,288.393 365.712,288.893 364.5,290C 354.44,295.713 354.107,295.213 363.5,288.5 Z"/></g>
<g><path style="opacity:1" fill="#181818" d="M 365.5,293.5 C 366.754,295.357 366.754,297.357 365.5,299.5C 362.827,300.759 360.161,301.592 357.5,302C 356.424,300.274 356.257,298.441 357,296.5C 357.249,297.624 357.749,298.624 358.5,299.5C 359.852,298.482 360.852,297.149 361.5,295.5C 364.147,298.18 365.48,297.513 365.5,293.5 Z"/></g>
<g><path style="opacity:1" fill="#242424" d="M 270.5,297.5 C 271.774,298.189 271.774,299.023 270.5,300C 267.942,301.626 265.275,302.626 262.5,303C 265.059,300.897 267.726,299.064 270.5,297.5 Z"/></g>
<g><path style="opacity:1" fill="#282828" d="M 380.5,298.5 C 382.842,298.775 382.842,299.608 380.5,301C 377.942,302.626 375.275,303.626 372.5,304C 375.07,301.913 377.737,300.08 380.5,298.5 Z"/></g>
<g><path style="opacity:1" fill="#101010" d="M 394.5,299.5 C 395.5,299.5 396.5,299.5 397.5,299.5C 397.292,301.92 397.626,304.253 398.5,306.5C 395.636,307.207 393.136,308.541 391,310.5C 390.5,310.333 390,310.167 389.5,310C 394.239,307.933 395.906,304.433 394.5,299.5 Z"/></g>
<g><path style="opacity:1" fill="#878787" d="M 394.5,301.5 C 396.337,301.639 396.67,302.306 395.5,303.5C 394.702,303.043 394.369,302.376 394.5,301.5 Z"/></g>
<g><path style="opacity:1" fill="#1a1a1a" d="M 287.5,300.5 C 288.812,301.145 289.812,302.145 290.5,303.5C 289.104,304.852 288.437,306.519 288.5,308.5C 290.324,314.384 290.824,320.384 290,326.5C 288.287,331.038 285.12,332.538 280.5,331C 279.299,330.097 278.465,328.931 278,327.5C 275.633,330.932 272.966,331.265 270,328.5C 266.735,331.924 263.235,332.257 259.5,329.5C 255.564,332.051 251.731,332.051 248,329.5C 245.79,320.57 245.29,311.57 246.5,302.5C 247.009,310.855 248.342,319.021 250.5,327C 254.389,328.14 257.722,327.307 260.5,324.5C 264.226,328.6 267.726,328.267 271,323.5C 273.128,327.376 275.461,327.376 278,323.5C 280.325,327.51 283.659,328.51 288,326.5C 288.606,319.103 288.106,311.77 286.5,304.5C 286.623,303.075 286.957,301.742 287.5,300.5 Z"/></g>
<g><path style="opacity:1" fill="#2e2e2e" d="M 296.5,302.5 C 298.255,309.081 299.255,315.914 299.5,323C 299.557,325.96 299.057,328.793 298,331.5C 297.386,323.643 296.553,315.81 295.5,308C 295.696,306.122 296.029,304.288 296.5,302.5 Z"/></g>
<g><path style="opacity:1" fill="#282828" d="M 501.5,303.5 C 503.842,303.775 503.842,304.608 501.5,306C 498.942,307.626 496.275,308.626 493.5,309C 496.07,306.913 498.737,305.08 501.5,303.5 Z"/></g>
<g><path style="opacity:1" fill="#202020" d="M 270.5,303.5 C 272.852,304.952 273.185,306.952 271.5,309.5C 268.582,310.87 265.582,311.87 262.5,312.5C 262.338,310.473 262.505,308.473 263,306.5C 263.249,307.624 263.749,308.624 264.5,309.5C 265.852,308.482 266.852,307.149 267.5,305.5C 269.714,307.924 270.714,307.257 270.5,303.5 Z"/></g>
<g><path style="opacity:1" fill="#2d2d2d" d="M 421.5,302.5 C 424.22,311.97 424.72,321.637 423,331.5C 421.246,321.836 420.746,312.169 421.5,302.5 Z"/></g>
<g><path style="opacity:1" fill="#1e1e1e" d="M 472.5,303.5 C 474.198,300.876 476.031,300.876 478,303.5C 478.833,308 477,309.833 472.5,309C 471.193,307.057 471.193,305.223 472.5,303.5 Z"/></g>
<g><path style="opacity:1" fill="#dddddd" d="M 472.5,303.5 C 475.5,303.167 476.833,304.5 476.5,307.5C 473.5,307.833 472.167,306.5 472.5,303.5 Z"/></g>
<g><path style="opacity:1" fill="#242424" d="M 529.5,304.5 C 530.774,305.189 530.774,306.023 529.5,307C 526.942,308.626 524.275,309.626 521.5,310C 524.059,307.897 526.726,306.064 529.5,304.5 Z"/></g>
<g><path style="opacity:1" fill="#2c2c2c" d="M 334.5,310.5 C 337.956,311.536 338.29,313.203 335.5,315.5C 333.246,314.286 332.913,312.619 334.5,310.5 Z"/></g>
<g><path style="opacity:1" fill="#0d0d0d" d="M 361.5,310.5 C 364.861,311.203 365.194,312.537 362.5,314.5C 360.3,313.675 359.966,312.342 361.5,310.5 Z"/></g>
<g><path style="opacity:1" fill="#1c1c1c" d="M 378.5,309.5 C 379.5,309.5 380.5,309.5 381.5,309.5C 381.649,310.552 381.483,311.552 381,312.5C 380.107,311.289 379.274,311.289 378.5,312.5C 378.709,313.086 379.043,313.586 379.5,314C 381.085,314.085 382.418,314.251 383.5,314.5C 381.711,315.877 379.711,316.877 377.5,317.5C 376.102,314.565 376.435,311.898 378.5,309.5 Z"/></g>
<g><path style="opacity:1" fill="#161616" d="M 337.5,316.5 C 340.861,317.203 341.194,318.537 338.5,320.5C 336.824,319.272 336.491,317.939 337.5,316.5 Z"/></g>
<g><path style="opacity:1" fill="#181818" d="M 332.5,316.5 C 334.912,316.694 335.912,318.027 335.5,320.5C 332.014,320.705 331.014,319.371 332.5,316.5 Z"/></g>
<g><path style="opacity:1" fill="#121212" d="M 455.5,348.5 C 459.833,349.167 464.167,349.833 468.5,350.5C 462.963,352.291 457.296,352.791 451.5,352C 443.905,348.527 441.405,342.694 444,334.5C 445.738,330.759 448.238,327.592 451.5,325C 447.54,322.911 447.54,320.911 451.5,319C 455.175,317.703 457.842,318.703 459.5,322C 457.244,323.834 457.244,325.501 459.5,327C 466.436,328.916 472.102,327.082 476.5,321.5C 483.873,328.428 491.873,329.261 500.5,324C 497.23,323.005 493.897,322.172 490.5,321.5C 491.412,319.257 493.078,318.257 495.5,318.5C 501.663,320.776 507.996,322.442 514.5,323.5C 514.291,324.086 513.957,324.586 513.5,325C 509.833,325.333 506.167,325.667 502.5,326C 498.833,327.667 495.167,329.333 491.5,331C 487.958,331.851 484.625,331.351 481.5,329.5C 480.672,330.415 479.672,331.081 478.5,331.5C 476.128,330.897 473.961,329.897 472,328.5C 470.566,328.93 469.399,329.764 468.5,331C 467.167,331.167 465.833,331.333 464.5,331.5C 460.141,330.561 456.141,329.061 452.5,327C 448.175,329.975 445.508,333.975 444.5,339C 445.826,344.823 449.492,347.99 455.5,348.5 Z"/></g>
<g><path style="opacity:1" fill="#666666" d="M 321.5,325.5 C 320.833,324.833 320.167,324.167 319.5,323.5C 319.762,321.394 320.762,320.227 322.5,320C 321.594,321.699 321.261,323.533 321.5,325.5 Z"/></g>
<g><path style="opacity:1" fill="#151515" d="M 236.5,300.5 C 240.128,302.29 240.461,304.623 237.5,307.5C 239.3,314.071 239.8,320.738 239,327.5C 238.5,329.333 237.333,330.5 235.5,331C 232.106,331.752 228.773,331.585 225.5,330.5C 224.915,332.865 223.748,334.865 222,336.5C 220.331,334.132 218.664,331.799 217,329.5C 215.739,329.759 214.739,330.426 214,331.5C 214.442,338.49 214.776,345.49 215,352.5C 213.895,346.704 213.062,340.87 212.5,335C 211.868,329.092 214.368,325.259 220,323.5C 224.842,327.284 230.342,328.451 236.5,327C 237,326.5 237.5,326 238,325.5C 238.099,318.584 237.265,311.75 235.5,305C 235.605,303.408 235.939,301.908 236.5,300.5 Z"/></g>
<g><path style="opacity:1" fill="#181818" d="M 412.5,300.5 C 413.88,300.962 414.547,301.962 414.5,303.5C 414.059,305.145 413.726,306.811 413.5,308.5C 415.776,315.133 415.942,321.8 414,328.5C 410.206,332.156 406.039,332.49 401.5,329.5C 400.719,330.737 399.719,331.737 398.5,332.5C 396.191,331.349 394.024,330.016 392,328.5C 389.259,330.784 386.092,331.784 382.5,331.5C 381.241,341.647 375.908,345.48 366.5,343C 373.956,342.944 378.956,339.444 381.5,332.5C 374.788,330.712 373.788,327.212 378.5,322C 379.635,321.251 380.635,321.417 381.5,322.5C 383.392,327.521 386.725,328.687 391.5,326C 392.68,324.104 394.18,322.604 396,321.5C 398.489,323.319 400.989,325.152 403.5,327C 406.562,327.741 409.562,327.575 412.5,326.5C 412.702,317.773 412.702,309.106 412.5,300.5 Z"/></g>
<g><path style="opacity:1" fill="#161616" d="M 319.5,323.5 C 320.167,324.167 320.833,324.833 321.5,325.5C 322.574,326.885 323.907,328.051 325.5,329C 331.833,329.667 338.167,329.667 344.5,329C 347.308,328.402 349.808,327.235 352,325.5C 355.183,327.523 358.683,328.023 362.5,327C 363.354,325.119 363.021,323.286 361.5,321.5C 362.351,318.388 363.517,318.054 365,320.5C 365.429,330.905 360.929,333.905 351.5,329.5C 342.862,333.188 333.862,334.355 324.5,333C 320.61,331.055 318.943,327.888 319.5,323.5 Z"/></g>
<g><path style="opacity:1" fill="#f7f7f7" d="M 395.5,323.5 C 397.476,324.427 397.809,325.76 396.5,327.5C 394.358,326.563 394.024,325.23 395.5,323.5 Z"/></g>
<g><path style="opacity:1" fill="#cfcfcf" d="M 475.5,323.5 C 478.119,324.403 478.786,326.069 477.5,328.5C 474.807,327.468 474.14,325.802 475.5,323.5 Z"/></g>
<g><path style="opacity:1" fill="#e7e7e7" d="M 377.5,326.5 C 378.849,325.203 380.182,325.37 381.5,327C 380.072,327.579 378.738,327.412 377.5,326.5 Z"/></g>
<g><path style="opacity:1" fill="#171717" d="M 500.5,334.5 C 504.474,336.581 504.141,337.914 499.5,338.5C 499.433,337.041 499.766,335.708 500.5,334.5 Z"/></g>
<g><path style="opacity:1" fill="#232323" d="M 238.5,336.5 C 240.842,336.775 240.842,337.608 238.5,339C 236.254,340.039 234.087,341.206 232,342.5C 231.383,341.551 231.549,340.718 232.5,340C 234.727,339.059 236.727,337.892 238.5,336.5 Z"/></g>
<g><path style="opacity:1" fill="#202020" d="M 527.5,318.5 C 529.752,318.916 531.252,320.249 532,322.5C 533.644,331.801 530.81,339.301 523.5,345C 520.536,345.569 517.87,344.902 515.5,343C 525.074,342.759 529.907,337.926 530,328.5C 528.333,329.833 526.667,329.833 525,328.5C 524.024,324.673 524.857,321.34 527.5,318.5 Z"/></g>
<g><path style="opacity:1" fill="#b1b1b1" d="M 526.5,323.5 C 528.337,323.639 528.67,324.306 527.5,325.5C 526.702,325.043 526.369,324.376 526.5,323.5 Z"/></g>
<g><path style="opacity:1" fill="#232323" d="M 339.5,341.5 C 341.842,341.775 341.842,342.608 339.5,344C 337.254,345.039 335.087,346.206 333,347.5C 332.383,346.551 332.549,345.718 333.5,345C 335.727,344.059 337.727,342.892 339.5,341.5 Z"/></g>
<g><path style="opacity:1" fill="#aaaaaa" d="M 455.5,348.5 C 460.511,348.334 465.511,348.501 470.5,349C 469.956,349.717 469.289,350.217 468.5,350.5C 464.167,349.833 459.833,349.167 455.5,348.5 Z"/></g>
<g><path style="opacity:1" fill="#1e1e1e" d="M 219.5,353.5 C 220.774,354.189 220.774,355.023 219.5,356C 216.623,357.946 213.623,359.279 210.5,360C 213.567,357.812 216.567,355.645 219.5,353.5 Z"/></g>
<g><path style="opacity:1" fill="#2c2c2c" d="M 457.5,355.5 C 459.337,355.639 459.67,356.306 458.5,357.5C 448.348,362.53 448.015,361.863 457.5,355.5 Z"/></g>
</svg>
