<?xml version="1.0" encoding="UTF-8"?>
<!DOCTYPE svg PUBLIC "-//W3C//DTD SVG 1.1//EN" "http://www.w3.org/Graphics/SVG/1.1/DTD/svg11.dtd">
<svg xmlns="http://www.w3.org/2000/svg" version="1.1" width="1000px" height="500px" style="shape-rendering:geometricPrecision; text-rendering:geometricPrecision; image-rendering:optimizeQuality; fill-rule:evenodd; clip-rule:evenodd" xmlns:xlink="http://www.w3.org/1999/xlink">
<g><path style="opacity:1" fill="#fefefe" d="M -0.5,-0.5 C 332.833,-0.5 666.167,-0.5 999.5,-0.5C 999.5,166.167 999.5,332.833 999.5,499.5C 666.167,499.5 332.833,499.5 -0.5,499.5C -0.5,332.833 -0.5,166.167 -0.5,-0.5 Z"/></g>
<g><path style="opacity:1" fill="#232323" d="M 530.5,135.5 C 532.379,135.393 532.712,135.893 531.5,137C 529.083,138.626 526.583,140.126 524,141.5C 523.383,140.551 523.549,139.718 524.5,139C 526.727,138.059 528.727,136.892 530.5,135.5 Z"/></g>
<g><path style="opacity:1" fill="#1b1b1b" d="M 527.5,141.5 C 528.5,141.5 529.5,141.5 530.5,141.5C 530.5,142.5 530.5,143.5 530.5,144.5C 529.127,144.343 527.793,144.51 526.5,145C 528.285,146.163 530.285,146.83 532.5,147C 529.975,148.616 527.309,149.616 524.5,150C 526.8,148.887 527.133,147.387 525.5,145.5C 525.752,143.927 526.418,142.594 527.5,141.5 Z"/></g>
<g><path style="opacity:1" fill="#181818" d="M 546.5,154.5 C 547.995,154.415 548.995,155.081 549.5,156.5C 548.632,163.909 547.298,171.242 545.5,178.5C 547.498,186.826 544.165,189.826 535.5,187.5C 535.5,186.167 535.5,184.833 535.5,183.5C 539.155,183.528 541.822,181.861 543.5,178.5C 540.241,173.073 536.408,168.073 532,163.5C 531,164.833 530,164.833 529,163.5C 525.427,154.45 527.094,153.45 534,160.5C 537.695,165.362 541.195,170.362 544.5,175.5C 546.284,168.636 546.951,161.636 546.5,154.5 Z"/></g>
<g><path style="opacity:1" fill="#292929" d="M 400.5,153.5 C 401.774,154.189 401.774,155.023 400.5,156C 398.167,157.167 395.833,158.333 393.5,159.5C 393.167,159.167 392.833,158.833 392.5,158.5C 395.231,156.808 397.898,155.142 400.5,153.5 Z"/></g>
<g><path style="opacity:1" fill="#202020" d="M 509.5,159.5 C 514.654,160.268 515.654,162.768 512.5,167C 507.917,167.934 506.417,166.1 508,161.5C 508.717,160.956 509.217,160.289 509.5,159.5 Z"/></g>
<g><path style="opacity:1" fill="#1d1d1d" d="M 558.5,184.5 C 557.833,182.5 557.167,180.5 556.5,178.5C 555.513,172.195 555.347,165.862 556,159.5C 557.968,167.715 558.801,176.049 558.5,184.5 Z"/></g>
<g><path style="opacity:1" fill="#222222" d="M 320.5,161.5 C 322.518,162.623 324.518,162.623 326.5,161.5C 327.5,161.833 328.167,162.5 328.5,163.5C 326.409,164.449 324.242,165.449 322,166.5C 319.527,165.26 319.027,163.593 320.5,161.5 Z"/></g>
<g><path style="opacity:1" fill="#1e1e1e" d="M 368.5,159.5 C 370.198,156.876 372.031,156.876 374,159.5C 374.833,164 373,165.833 368.5,165C 367.193,163.057 367.193,161.223 368.5,159.5 Z"/></g>
<g><path style="opacity:1" fill="#dddddd" d="M 368.5,159.5 C 371.5,159.167 372.833,160.5 372.5,163.5C 369.5,163.833 368.167,162.5 368.5,159.5 Z"/></g>
<g><path style="opacity:1" fill="#2d2d2d" d="M 428.5,158.5 C 431.22,167.97 431.72,177.637 430,187.5C 428.246,177.836 427.746,168.169 428.5,158.5 Z"/></g>
<g><path style="opacity:1" fill="#dddddd" d="M 509.5,161.5 C 514.663,163.424 514.663,164.591 509.5,165C 508.316,163.855 508.316,162.688 509.5,161.5 Z"/></g>
<g><path style="opacity:1" fill="#242424" d="M 488.5,160.5 C 489.774,161.189 489.774,162.023 488.5,163C 485.942,164.626 483.275,165.626 480.5,166C 483.059,163.897 485.726,162.064 488.5,160.5 Z"/></g>
<g><path style="opacity:1" fill="#282828" d="M 348.5,163.5 C 350.842,163.775 350.842,164.608 348.5,166C 345.942,167.626 343.275,168.626 340.5,169C 343.07,166.913 345.737,165.08 348.5,163.5 Z"/></g>
<g><path style="opacity:1" fill="#161616" d="M 398.5,166.5 C 401.861,167.203 402.194,168.537 399.5,170.5C 397.358,169.563 397.024,168.23 398.5,166.5 Z"/></g>
<g><path style="opacity:1" fill="#151515" d="M 419.5,156.5 C 420.88,156.962 421.547,157.962 421.5,159.5C 421.059,161.145 420.726,162.811 420.5,164.5C 422.776,171.133 422.942,177.8 421,184.5C 420.167,185.333 419.333,186.167 418.5,187C 414.5,187.667 410.5,187.667 406.5,187C 404.845,185.556 404.178,183.722 404.5,181.5C 402.473,181.338 400.473,181.505 398.5,182C 394.053,184.805 389.22,186.638 384,187.5C 381.621,187.518 379.454,186.851 377.5,185.5C 376.672,186.415 375.672,187.081 374.5,187.5C 372.128,186.897 369.961,185.897 368,184.5C 363.589,188.749 359.589,188.416 356,183.5C 353.633,186.932 350.966,187.265 348,184.5C 344.735,187.924 341.235,188.257 337.5,185.5C 331.559,189.163 327.393,187.83 325,181.5C 322.085,184.134 319.252,184.134 316.5,181.5C 318.14,178.027 320.64,175.36 324,173.5C 324.333,172.167 324.667,170.833 325,169.5C 326.009,174.07 327.176,178.57 328.5,183C 332.389,184.14 335.722,183.307 338.5,180.5C 342.394,184.533 346.061,184.199 349.5,179.5C 350.386,180.325 350.719,181.325 350.5,182.5C 353.238,183.035 355.072,182.035 356,179.5C 358.053,183.292 361.219,184.458 365.5,183C 367.977,181.357 370.31,179.524 372.5,177.5C 379.825,184.517 387.825,185.351 396.5,180C 393.23,179.005 389.897,178.172 386.5,177.5C 387.412,175.257 389.078,174.257 391.5,174.5C 395.325,175.164 398.992,176.331 402.5,178C 405.146,178.497 407.813,178.664 410.5,178.5C 410.5,179.5 410.5,180.5 410.5,181.5C 409.022,181.238 407.689,181.571 406.5,182.5C 410.851,183.775 415.185,183.775 419.5,182.5C 419.702,173.773 419.702,165.106 419.5,156.5 Z"/></g>
<g><path style="opacity:1" fill="#ededed" d="M 323.5,175.5 C 324.434,176.568 324.768,177.901 324.5,179.5C 319.597,179.306 319.264,177.973 323.5,175.5 Z"/></g>
<g><path style="opacity:1" fill="#0d0d0d" d="M 561.5,177.5 C 565.514,177.334 569.514,177.501 573.5,178C 574.022,178.561 574.355,179.228 574.5,180C 573.496,181.603 572.662,183.103 572,184.5C 595.833,205.667 619.667,226.833 643.5,248C 643.033,251.568 641.033,254.568 637.5,257C 615.5,276.333 593.5,295.667 571.5,315C 574.21,316.46 574.876,318.46 573.5,321C 569.514,321.499 565.514,321.666 561.5,321.5C 561.23,317.15 561.897,312.983 563.5,309C 565.903,308.37 567.737,309.203 569,311.5C 591.5,291.667 614,271.833 636.5,252C 615.503,251.5 594.503,251.333 573.5,251.5C 573.949,253.977 573.283,255.977 571.5,257.5C 567.762,255.303 564.429,252.636 561.5,249.5C 564.429,246.364 567.762,243.697 571.5,241.5C 573.283,243.023 573.949,245.023 573.5,247.5C 594.503,247.667 615.503,247.5 636.5,247C 614,227.167 591.5,207.333 569,187.5C 567.677,190.059 565.843,190.725 563.5,189.5C 562.189,185.611 561.522,181.611 561.5,177.5 Z"/></g>
<g><path style="opacity:1" fill="#181818" d="M 468.5,158.5 C 470.16,166.511 471.493,174.678 472.5,183C 474.833,183.667 477.167,183.667 479.5,183C 482.011,181.152 484.511,179.319 487,177.5C 489.112,178.608 490.946,180.108 492.5,182C 497.238,184.366 501.571,183.866 505.5,180.5C 509.156,184.642 512.49,184.309 515.5,179.5C 516.85,180.95 518.516,181.617 520.5,181.5C 520.34,179.801 520.506,178.134 521,176.5C 523.391,180.373 522.558,183.373 518.5,185.5C 516.945,185.278 515.611,184.611 514.5,183.5C 511.788,187.681 508.454,188.348 504.5,185.5C 500.432,188.089 496.432,188.089 492.5,185.5C 488.987,188.073 485.654,187.739 482.5,184.5C 477.74,188.8 473.573,188.467 470,183.5C 468.734,175.109 468.234,166.776 468.5,158.5 Z"/></g>
<g><path style="opacity:1" fill="#cfcfcf" d="M 371.5,179.5 C 374.119,180.403 374.786,182.069 373.5,184.5C 370.807,183.468 370.14,181.802 371.5,179.5 Z"/></g>
<g><path style="opacity:1" fill="#cecece" d="M 485.5,179.5 C 488.423,180.163 489.09,181.83 487.5,184.5C 484.807,183.468 484.14,181.802 485.5,179.5 Z"/></g>
<g><path style="opacity:1" fill="#181818" d="M 454.5,175.5 C 459.197,175.007 460.363,176.674 458,180.5C 455.486,177.823 453.653,178.323 452.5,182C 452.833,182.5 453.167,183 453.5,183.5C 456.503,184.085 459.503,184.752 462.5,185.5C 458.732,188.404 454.732,190.071 450.5,190.5C 451.833,189.5 453.167,188.5 454.5,187.5C 451.932,187.048 450.599,185.548 450.5,183C 450.927,179.977 452.261,177.477 454.5,175.5 Z"/></g>
<g><path style="opacity:1" fill="#848484" d="M 543.5,181.5 C 544.376,181.369 545.043,181.702 545.5,182.5C 543.192,183.873 542.525,183.54 543.5,181.5 Z"/></g>
<g><path style="opacity:1" fill="#7c7c7c" d="M 556.5,178.5 C 557.167,180.5 557.833,182.5 558.5,184.5C 558.539,185.756 558.039,186.756 557,187.5C 556.502,184.518 556.335,181.518 556.5,178.5 Z"/></g>
<g><path style="opacity:1" fill="#282828" d="M 325.5,192.5 C 326.774,193.189 326.774,194.023 325.5,195C 322.475,196.688 319.475,198.021 316.5,199C 319.402,196.583 322.402,194.416 325.5,192.5 Z"/></g>
<g><path style="opacity:1" fill="#282828" d="M 459.5,192.5 C 460.774,193.189 460.774,194.023 459.5,195C 456.475,196.688 453.475,198.021 450.5,199C 453.402,196.583 456.402,194.416 459.5,192.5 Z"/></g>
<g><path style="opacity:1" fill="#141414" d="M 651.5,215.5 C 657.78,216.254 659.113,219.421 655.5,225C 659.719,229.466 658.719,231.133 652.5,230C 650.833,231.667 649.167,233.333 647.5,235C 645.5,235.667 643.5,235.667 641.5,235C 644.783,233.439 647.617,231.273 650,228.5C 649.421,226.658 648.921,224.658 648.5,222.5C 649.025,219.971 650.025,217.638 651.5,215.5 Z"/></g>
<g><path style="opacity:1" fill="#141414" d="M 717.5,212.5 C 719.943,213.499 721.609,215.332 722.5,218C 720.814,220.208 719.814,222.708 719.5,225.5C 720.964,232.818 722.297,240.151 723.5,247.5C 723.296,253.062 722.129,258.395 720,263.5C 713.554,269.153 707.554,268.82 702,262.5C 697.377,267.021 691.877,268.521 685.5,267C 682.892,265.622 681.392,263.455 681,260.5C 679.069,246.859 677.736,233.192 677,219.5C 677.833,218.5 678.667,217.5 679.5,216.5C 681.15,230.146 682.65,243.812 684,257.5C 691.404,262.156 698.07,261.156 704,254.5C 706.288,259.997 710.455,261.83 716.5,260C 719.685,258.296 721.019,255.63 720.5,252C 718.962,241.309 717.295,230.643 715.5,220C 715.739,217.365 716.406,214.865 717.5,212.5 Z"/></g>
<g><path style="opacity:1" fill="#131313" d="M 734.5,216.5 C 737.08,231.595 738.247,246.928 738,262.5C 737.784,264.384 737.117,266.051 736,267.5C 735.937,265.04 736.104,262.54 736.5,260C 734.706,248.731 733.373,237.397 732.5,226C 732.331,222.599 732.998,219.432 734.5,216.5 Z"/></g>
<g><path style="opacity:1" fill="#bbbbbb" d="M 651.5,219.5 C 654.275,219.834 654.941,221.167 653.5,223.5C 651.889,222.68 651.222,221.346 651.5,219.5 Z"/></g>
<g><path style="opacity:1" fill="#1b1b1b" d="M 538.5,220.5 C 540.379,220.393 540.712,220.893 539.5,222C 529.44,227.713 529.107,227.213 538.5,220.5 Z"/></g>
<g><path style="opacity:1" fill="#161616" d="M 523.5,223.5 C 528.668,224.339 529.668,226.839 526.5,231C 521.917,231.934 520.417,230.1 522,225.5C 522.717,224.956 523.217,224.289 523.5,223.5 Z"/></g>
<g><path style="opacity:1" fill="#1d1d1d" d="M 707.5,223.5 C 708.399,224.994 708.065,226.494 706.5,228C 701.674,230.246 697.008,232.746 692.5,235.5C 692.167,235.167 691.833,234.833 691.5,234.5C 692.305,232.528 693.639,231.028 695.5,230C 699.722,228.059 703.722,225.892 707.5,223.5 Z"/></g>
<g><path style="opacity:1" fill="#dcdcdc" d="M 523.5,225.5 C 528.663,227.424 528.663,228.591 523.5,229C 522.316,227.855 522.316,226.688 523.5,225.5 Z"/></g>
<g><path style="opacity:1" fill="#181818" d="M 540.5,225.5 C 541.754,227.357 541.754,229.357 540.5,231.5C 537.827,232.759 535.161,233.592 532.5,234C 531.424,232.274 531.257,230.441 532,228.5C 532.249,229.624 532.749,230.624 533.5,231.5C 534.852,230.482 535.852,229.149 536.5,227.5C 539.147,230.18 540.48,229.513 540.5,225.5 Z"/></g>
<g><path style="opacity:1" fill="#1d1d1d" d="M 558.5,256.5 C 557.833,254.5 557.167,252.5 556.5,250.5C 555.513,244.195 555.347,237.862 556,231.5C 557.968,239.715 558.801,248.049 558.5,256.5 Z"/></g>
<g><path style="opacity:1" fill="#222222" d="M 488.5,233.5 C 490.518,234.623 492.518,234.623 494.5,233.5C 495.5,233.833 496.167,234.5 496.5,235.5C 494.409,236.449 492.242,237.449 490,238.5C 487.527,237.26 487.027,235.593 488.5,233.5 Z"/></g>
<g><path style="opacity:1" fill="#1a1a1a" d="M 507.5,235.5 C 509.842,235.775 509.842,236.608 507.5,238C 505.336,238.914 503.336,240.081 501.5,241.5C 501.167,241.167 500.833,240.833 500.5,240.5C 503.077,239.057 505.41,237.39 507.5,235.5 Z"/></g>
<g><path style="opacity:1" fill="#1c1c1c" d="M 524.5,238.5 C 527.709,239.297 528.209,240.963 526,243.5C 523.527,242.26 523.027,240.593 524.5,238.5 Z"/></g>
<g><path style="opacity:1" fill="#101010" d="M 655.5,245.5 C 661.715,246.17 663.048,249.17 659.5,254.5C 656.297,251.878 653.13,251.878 650,254.5C 648.55,258.724 650.05,261.224 654.5,262C 659.229,262.996 663.729,262.496 668,260.5C 668.265,262.163 667.765,263.663 666.5,265C 660.061,268.303 653.561,271.469 647,274.5C 645.743,274.15 645.409,273.483 646,272.5C 648.414,270.709 650.914,269.043 653.5,267.5C 645.023,265.158 643.189,260.158 648,252.5C 650.396,249.933 652.896,247.6 655.5,245.5 Z"/></g>
<g><path style="opacity:1" fill="#151515" d="M 546.5,228.5 C 548.121,228.787 549.121,229.787 549.5,231.5C 549.182,239.449 549.016,247.449 549,255.5C 545.74,260.285 542.073,260.619 538,256.5C 534.254,260.393 530.588,260.393 527,256.5C 523.665,260.11 519.998,260.443 516,257.5C 512.333,260.167 508.667,260.167 505,257.5C 499.273,261.108 495.273,259.775 493,253.5C 490.085,256.134 487.252,256.134 484.5,253.5C 486.14,250.027 488.64,247.36 492,245.5C 492.333,244.167 492.667,242.833 493,241.5C 494.009,246.07 495.176,250.57 496.5,255C 500.389,256.14 503.722,255.307 506.5,252.5C 507.386,253.325 507.719,254.325 507.5,255.5C 511.401,256.143 514.734,255.143 517.5,252.5C 518.386,253.325 518.719,254.325 518.5,255.5C 522.287,256.186 525.454,255.186 528,252.5C 531.622,256.415 535.288,256.415 539,252.5C 540.666,255.379 543.166,256.212 546.5,255C 547.98,253.701 548.646,252.034 548.5,250C 547.142,242.894 546.475,235.727 546.5,228.5 Z"/></g>
<g><path style="opacity:1" fill="#ededed" d="M 491.5,247.5 C 492.434,248.568 492.768,249.901 492.5,251.5C 487.597,251.306 487.264,249.973 491.5,247.5 Z"/></g>
<g><path style="opacity:1" fill="#111111" d="M 514.5,244.5 C 517.861,245.203 518.194,246.537 515.5,248.5C 513.358,247.563 513.024,246.23 514.5,244.5 Z"/></g>
<g><path style="opacity:1" fill="#292929" d="M 538.5,243.5 C 541.709,244.297 542.209,245.963 540,248.5C 538.119,246.175 536.452,246.175 535,248.5C 532.659,247.993 532.159,246.826 533.5,245C 534.549,244.508 535.549,244.674 536.5,245.5C 537.522,245.145 538.189,244.478 538.5,243.5 Z"/></g>
<g><path style="opacity:1" fill="#1f1f1f" d="M 527.5,243.5 C 530.709,244.297 531.209,245.963 529,248.5C 527.343,245.84 525.676,245.84 524,248.5C 520.957,247.259 521.124,245.925 524.5,244.5C 526.225,246.092 527.225,245.758 527.5,243.5 Z"/></g>
<g><path style="opacity:1" fill="#7c7c7c" d="M 556.5,250.5 C 557.167,252.5 557.833,254.5 558.5,256.5C 558.539,257.756 558.039,258.756 557,259.5C 556.502,256.518 556.335,253.518 556.5,250.5 Z"/></g>
<g><path style="opacity:1" fill="#1d1d1d" d="M 506.5,262.5 C 510.276,263.665 510.443,265.332 507,267.5C 505.598,265.027 504.098,265.027 502.5,267.5C 500.512,266.711 500.179,265.545 501.5,264C 502.549,263.508 503.549,263.674 504.5,264.5C 505.522,264.145 506.189,263.478 506.5,262.5 Z"/></g>
<g><path style="opacity:1" fill="#2c2c2c" d="M 491.5,265.5 C 493.337,265.639 493.67,266.306 492.5,267.5C 482.348,272.53 482.015,271.863 491.5,265.5 Z"/></g>
<g><path style="opacity:1" fill="#232323" d="M 517.5,267.5 C 519.842,267.775 519.842,268.608 517.5,270C 515.254,271.039 513.087,272.206 511,273.5C 510.383,272.551 510.549,271.718 511.5,271C 513.727,270.059 515.727,268.892 517.5,267.5 Z"/></g>
<g><path style="opacity:1" fill="#141414" d="M 695.5,273.5 C 696.857,274.685 698.357,275.685 700,276.5C 701.667,275.5 703.333,274.5 705,273.5C 709.264,275.804 709.264,278.471 705,281.5C 701.69,277.164 699.023,277.497 697,282.5C 695.028,281.695 693.528,280.361 692.5,278.5C 693.763,276.971 694.763,275.305 695.5,273.5 Z"/></g>
<g><path style="opacity:1" fill="#202020" d="M 496.5,301.5 C 501.654,302.268 502.654,304.768 499.5,309C 494.917,309.934 493.417,308.1 495,303.5C 495.717,302.956 496.217,302.289 496.5,301.5 Z"/></g>
<g><path style="opacity:1" fill="#dddddd" d="M 496.5,303.5 C 501.663,305.424 501.663,306.591 496.5,307C 495.316,305.855 495.316,304.688 496.5,303.5 Z"/></g>
<g><path style="opacity:1" fill="#1d1d1d" d="M 558.5,328.5 C 557.833,326.5 557.167,324.5 556.5,322.5C 555.513,316.195 555.347,309.862 556,303.5C 557.968,311.715 558.801,320.049 558.5,328.5 Z"/></g>
<g><path style="opacity:1" fill="#242424" d="M 525.5,303.5 C 526.774,304.189 526.774,305.023 525.5,306C 522.942,307.626 520.275,308.626 517.5,309C 520.059,306.897 522.726,305.064 525.5,303.5 Z"/></g>
<g><path style="opacity:1" fill="#151515" d="M 478.5,348.5 C 483.167,349.167 487.833,349.833 492.5,350.5C 486.629,352.323 480.629,352.823 474.5,352C 465.797,346.444 464.297,339.277 470,330.5C 471.833,328.667 473.667,326.833 475.5,325C 472.007,323.522 471.674,321.522 474.5,319C 477.303,318.245 479.97,318.578 482.5,320C 484.013,322.454 483.346,324.121 480.5,325C 484.483,327.436 488.816,328.102 493.5,327C 495.385,324.778 497.551,322.944 500,321.5C 507.428,328.56 515.595,329.393 524.5,324C 520.916,322.927 517.25,322.26 513.5,322C 514.729,319.551 516.729,318.384 519.5,318.5C 525.546,321.181 531.879,322.847 538.5,323.5C 537.286,325.069 535.619,325.902 533.5,326C 533.833,326.333 534.167,326.667 534.5,327C 538.5,327.667 542.5,327.667 546.5,327C 547.98,325.701 548.646,324.034 548.5,322C 546.804,314.863 546.471,307.697 547.5,300.5C 548.415,301.328 549.081,302.328 549.5,303.5C 549.624,312.212 549.124,320.879 548,329.5C 543.391,331.51 538.558,332.01 533.5,331C 531.845,329.556 531.178,327.722 531.5,325.5C 529.473,325.338 527.473,325.505 525.5,326C 521.148,328.677 516.482,330.511 511.5,331.5C 509.311,331.406 507.311,330.739 505.5,329.5C 504.719,330.737 503.719,331.737 502.5,332.5C 500.167,331.167 497.833,329.833 495.5,328.5C 488.95,332.931 482.95,332.265 477.5,326.5C 467.469,331.867 466.136,338.7 473.5,347C 475.025,348.009 476.692,348.509 478.5,348.5 Z"/></g>
<g><path style="opacity:1" fill="#dfdfdf" d="M 499.5,323.5 C 501.377,324.659 501.877,326.326 501,328.5C 499.926,327.382 498.76,326.382 497.5,325.5C 498.243,324.818 498.909,324.151 499.5,323.5 Z"/></g>
<g><path style="opacity:1" fill="#7c7c7c" d="M 556.5,322.5 C 557.167,324.5 557.833,326.5 558.5,328.5C 558.539,329.756 558.039,330.756 557,331.5C 556.502,328.518 556.335,325.518 556.5,322.5 Z"/></g>
<g><path style="opacity:1" fill="#181818" d="M 526.5,334.5 C 530.474,336.581 530.141,337.914 525.5,338.5C 525.433,337.041 525.766,335.708 526.5,334.5 Z"/></g>
<g><path style="opacity:1" fill="#a7a7a7" d="M 478.5,348.5 C 483.844,348.334 489.177,348.501 494.5,349C 493.956,349.717 493.289,350.217 492.5,350.5C 487.833,349.833 483.167,349.167 478.5,348.5 Z"/></g>
<g><path style="opacity:1" fill="#232323" d="M 481.5,355.5 C 483.842,355.775 483.842,356.608 481.5,358C 479.254,359.039 477.087,360.206 475,361.5C 474.383,360.551 474.549,359.718 475.5,359C 477.727,358.059 479.727,356.892 481.5,355.5 Z"/></g>
</svg>
