<?xml version="1.0" encoding="UTF-8"?>
<!DOCTYPE svg PUBLIC "-//W3C//DTD SVG 1.1//EN" "http://www.w3.org/Graphics/SVG/1.1/DTD/svg11.dtd">
<svg xmlns="http://www.w3.org/2000/svg" version="1.1" width="1000px" height="500px" style="shape-rendering:geometricPrecision; text-rendering:geometricPrecision; image-rendering:optimizeQuality; fill-rule:evenodd; clip-rule:evenodd" xmlns:xlink="http://www.w3.org/1999/xlink">
<g><path style="opacity:1" fill="#fefefe" d="M -0.5,-0.5 C 332.833,-0.5 666.167,-0.5 999.5,-0.5C 999.5,166.167 999.5,332.833 999.5,499.5C 666.167,499.5 332.833,499.5 -0.5,499.5C -0.5,332.833 -0.5,166.167 -0.5,-0.5 Z"/></g>
<g><path style="opacity:1" fill="#191919" d="M 361.5,153.5 C 362.5,153.5 363.5,153.5 364.5,153.5C 364.5,156.167 364.5,158.833 364.5,161.5C 361.865,162.683 359.198,163.516 356.5,164C 360.236,162.784 361.236,160.451 359.5,157C 359.978,155.697 360.645,154.531 361.5,153.5 Z"/></g>
<g><path style="opacity:1" fill="#242424" d="M 423.5,155.5 C 424.774,156.189 424.774,157.023 423.5,158C 420.942,159.626 418.275,160.626 415.5,161C 418.059,158.897 420.726,157.064 423.5,155.5 Z"/></g>
<g><path style="opacity:1" fill="#202020" d="M 396.5,166.5 C 401.654,167.268 402.654,169.768 399.5,174C 394.917,174.934 393.417,173.1 395,168.5C 395.717,167.956 396.217,167.289 396.5,166.5 Z"/></g>
<g><path style="opacity:1" fill="#dddddd" d="M 396.5,168.5 C 401.663,170.424 401.663,171.591 396.5,172C 395.316,170.855 395.316,169.688 396.5,168.5 Z"/></g>
<g><path style="opacity:1" fill="#2d2d2d" d="M 455.5,165.5 C 458.22,174.97 458.72,184.637 457,194.5C 455.246,184.836 454.746,175.169 455.5,165.5 Z"/></g>
<g><path style="opacity:1" fill="#282828" d="M 379.5,169.5 C 381.842,169.775 381.842,170.608 379.5,172C 376.942,173.626 374.275,174.626 371.5,175C 374.07,172.913 376.737,171.08 379.5,169.5 Z"/></g>
<g><path style="opacity:1" fill="#1e1e1e" d="M 359.5,171.5 C 360.482,172.141 361.482,172.807 362.5,173.5C 365.147,170.82 366.48,171.487 366.5,175.5C 365.07,175.579 363.736,175.246 362.5,174.5C 361.742,175.811 360.742,176.311 359.5,176C 358.272,174.51 358.272,173.01 359.5,171.5 Z"/></g>
<g><path style="opacity:1" fill="#171717" d="M 428.5,185.5 C 428.062,184.494 427.396,184.494 426.5,185.5C 424.112,182.462 421.112,180.129 417.5,178.5C 416.48,176.568 416.313,174.568 417,172.5C 423.436,166.196 430.936,162.529 439.5,161.5C 439.023,162.478 438.357,163.311 437.5,164C 430.072,166.212 423.405,169.712 417.5,174.5C 425.174,178.679 432.174,183.845 438.5,190C 444.501,192.098 447.501,190.098 447.5,184C 446.997,178.813 446.33,173.647 445.5,168.5C 445.436,166.611 445.936,164.944 447,163.5C 448.576,165.976 448.743,168.642 447.5,171.5C 449.776,178.133 449.942,184.8 448,191.5C 445.79,194.29 442.956,195.123 439.5,194C 435.957,190.951 432.291,188.118 428.5,185.5 Z"/></g>
<g><path style="opacity:1" fill="#151515" d="M 361.5,179.5 C 365.895,180.266 367.895,182.933 367.5,187.5C 366.884,194.309 363.717,195.976 358,192.5C 357.386,187.716 358.553,183.383 361.5,179.5 Z"/></g>
<g><path style="opacity:1" fill="#0e0e0e" d="M 550.5,246.5 C 551.289,246.217 551.956,245.717 552.5,245C 525.835,244.5 499.169,244.333 472.5,244.5C 472.5,246.167 472.5,247.833 472.5,249.5C 471.399,250.598 470.066,250.765 468.5,250C 465.512,248.01 462.845,245.677 460.5,243C 462.871,240.294 465.537,237.961 468.5,236C 470.066,235.235 471.399,235.402 472.5,236.5C 472.5,238.167 472.5,239.833 472.5,241.5C 498.835,241.667 525.169,241.5 551.5,241C 550.956,240.283 550.289,239.783 549.5,239.5C 523.36,223.593 497.026,207.926 470.5,192.5C 469.155,193.347 468.155,194.513 467.5,196C 466.833,196.667 466.167,196.667 465.5,196C 462.982,192.108 461.482,187.941 461,183.5C 465.401,182.533 469.901,182.2 474.5,182.5C 474.523,184.6 473.856,186.433 472.5,188C 501.137,206.323 530.137,224.157 559.5,241.5C 558.167,242.5 558.167,243.5 559.5,244.5C 531.522,265.822 503.189,286.655 474.5,307C 473.426,307.739 472.759,308.739 472.5,310C 473.856,311.567 474.523,313.4 474.5,315.5C 469.833,315.5 465.167,315.5 460.5,315.5C 460.528,310.579 462.028,306.246 465,302.5C 466.626,303.289 468.126,304.289 469.5,305.5C 496.707,286.069 523.707,266.402 550.5,246.5 Z"/></g>
<g><path style="opacity:1" fill="#ececec" d="M 359.5,185.5 C 362.056,185.132 364.056,185.966 365.5,188C 365.355,188.772 365.022,189.439 364.5,190C 362.866,190.494 361.199,190.66 359.5,190.5C 359.5,188.833 359.5,187.167 359.5,185.5 Z"/></g>
<g><path style="opacity:1" fill="#696969" d="M 428.5,185.5 C 428.768,187.099 428.434,188.432 427.5,189.5C 427.5,188.833 427.167,188.5 426.5,188.5C 426.5,187.5 426.5,186.5 426.5,185.5C 427.396,184.494 428.062,184.494 428.5,185.5 Z"/></g>
<g><path style="opacity:1" fill="#0f0f0f" d="M 755.5,186.5 C 762.825,185.992 765.658,189.326 764,196.5C 761.839,200.124 758.672,201.291 754.5,200C 751.729,195.318 752.062,190.818 755.5,186.5 Z"/></g>
<g><path style="opacity:1" fill="#141414" d="M 426.5,188.5 C 427.167,188.5 427.5,188.833 427.5,189.5C 426.781,191.888 425.115,193.388 422.5,194C 418.833,194.667 415.167,194.667 411.5,194C 410.382,192.926 409.382,191.76 408.5,190.5C 406.25,193.949 403.584,194.282 400.5,191.5C 396.876,195.301 393.376,195.301 390,191.5C 388.005,193.747 385.505,194.747 382.5,194.5C 381.48,204.06 376.48,207.893 367.5,206C 377.514,204.754 381.848,199.254 380.5,189.5C 384.539,191.283 388.039,190.616 391,187.5C 394.805,191.601 398.472,191.268 402,186.5C 404.061,190.438 406.227,190.438 408.5,186.5C 409.382,187.76 410.382,188.926 411.5,190C 415.5,190.667 419.5,190.667 423.5,190C 424.737,189.768 425.737,189.268 426.5,188.5 Z"/></g>
<g><path style="opacity:1" fill="#101010" d="M 677.5,190.5 C 684.276,189.776 687.11,192.776 686,199.5C 683.389,204.723 679.723,205.723 675,202.5C 673.773,197.938 674.607,193.938 677.5,190.5 Z"/></g>
<g><path style="opacity:1" fill="#e0e0e0" d="M 755.5,189.5 C 758.683,189.929 761.016,191.596 762.5,194.5C 758.8,197.525 755.8,197.025 753.5,193C 753.978,191.697 754.645,190.531 755.5,189.5 Z"/></g>
<g><path style="opacity:1" fill="#e8e8e8" d="M 677.5,193.5 C 681.791,193.93 683.458,196.097 682.5,200C 676.244,200.934 674.577,198.767 677.5,193.5 Z"/></g>
<g><path style="opacity:1" fill="#151515" d="M 725.5,200.5 C 726.799,202.153 726.466,203.653 724.5,205C 720.167,207.167 715.833,209.333 711.5,211.5C 711.167,211.167 710.833,210.833 710.5,210.5C 715.013,206.412 720.013,203.079 725.5,200.5 Z"/></g>
<g><path style="opacity:1" fill="#101010" d="M 683.5,217.5 C 689.316,219.414 689.816,222.08 685,225.5C 680.878,223.614 680.378,220.947 683.5,217.5 Z"/></g>
<g><path style="opacity:1" fill="#151515" d="M 721.5,223.5 C 728.625,224.614 729.292,227.281 723.5,231.5C 719.209,229.616 718.542,226.949 721.5,223.5 Z"/></g>
<g><path style="opacity:1" fill="#101010" d="M 408.5,224.5 C 409.5,224.5 410.5,224.5 411.5,224.5C 411.292,226.92 411.626,229.253 412.5,231.5C 409.636,232.207 407.136,233.541 405,235.5C 404.5,235.333 404,235.167 403.5,235C 408.239,232.933 409.906,229.433 408.5,224.5 Z"/></g>
<g><path style="opacity:1" fill="#1d1d1d" d="M 446.5,222.5 C 447.88,222.962 448.547,223.962 448.5,225.5C 448.059,227.145 447.726,228.811 447.5,230.5C 449.776,237.133 449.942,243.8 448,250.5C 444.665,254.11 440.998,254.443 437,251.5C 433.283,254.084 429.617,254.084 426,251.5C 423.791,242.578 423.291,233.578 424.5,224.5C 425.148,232.589 426.315,240.589 428,248.5C 431.962,250.196 435.462,249.53 438.5,246.5C 439.386,247.325 439.719,248.325 439.5,249.5C 441.92,249.708 444.253,249.374 446.5,248.5C 446.702,239.773 446.702,231.106 446.5,222.5 Z"/></g>
<g><path style="opacity:1" fill="#878787" d="M 408.5,226.5 C 410.337,226.639 410.67,227.306 409.5,228.5C 408.702,228.043 408.369,227.376 408.5,226.5 Z"/></g>
<g><path style="opacity:1" fill="#0e0e0e" d="M 630.5,227.5 C 636.247,228.753 636.914,231.42 632.5,235.5C 628.209,233.616 627.542,230.949 630.5,227.5 Z"/></g>
<g><path style="opacity:1" fill="#2d2d2d" d="M 455.5,224.5 C 458.22,233.97 458.72,243.637 457,253.5C 455.246,243.836 454.746,234.169 455.5,224.5 Z"/></g>
<g><path style="opacity:1" fill="#282828" d="M 439.5,228.5 C 441.842,228.775 441.842,229.608 439.5,231C 436.942,232.626 434.275,233.626 431.5,234C 434.07,231.913 436.737,230.08 439.5,228.5 Z"/></g>
<g><path style="opacity:1" fill="#0e0e0e" d="M 653.5,252.5 C 652.711,252.783 652.044,253.283 651.5,254C 655.358,254.81 659.024,254.643 662.5,253.5C 666.24,253.759 669.906,253.426 673.5,252.5C 674.322,243.865 678.489,237.532 686,233.5C 691.636,237.183 692.97,242.183 690,248.5C 689.535,249.931 688.701,251.097 687.5,252C 687.833,252.333 688.167,252.667 688.5,253C 699.428,254.822 709.762,253.155 719.5,248C 716.618,246.48 713.618,245.147 710.5,244C 706.664,243.694 702.997,243.528 699.5,243.5C 701.212,239.481 704.212,237.147 708.5,236.5C 714.588,238.375 720.588,240.542 726.5,243C 732.117,244.052 737.784,244.718 743.5,245C 742.62,246.356 742.286,247.856 742.5,249.5C 739.753,249.187 737.086,249.52 734.5,250.5C 735.09,251.799 736.09,252.632 737.5,253C 743.833,253.667 750.167,253.667 756.5,253C 758.049,251.786 759.215,250.286 760,248.5C 760.595,237.95 760.095,227.45 758.5,217C 758.667,214.167 758.833,211.333 759,208.5C 759.414,208.043 759.914,207.709 760.5,207.5C 761.808,218.816 762.975,230.149 764,241.5C 764.257,245.377 765.257,249.043 767,252.5C 772.652,254.506 777.652,253.506 782,249.5C 781.113,237.79 779.613,226.123 777.5,214.5C 777.416,204.481 779.749,203.481 784.5,211.5C 782.114,213.411 781.114,215.911 781.5,219C 784.635,230.059 785.135,241.225 783,252.5C 780.149,259.358 774.982,261.858 767.5,260C 764.457,257.407 762.29,254.24 761,250.5C 760.002,254.493 757.835,257.659 754.5,260C 748.5,260.667 742.5,260.667 736.5,260C 731.865,258.144 730.198,254.644 731.5,249.5C 727.753,249.392 724.086,249.892 720.5,251C 714.319,254.257 707.985,257.257 701.5,260C 693.897,261.366 686.73,260.199 680,256.5C 676.542,257.813 673.042,258.98 669.5,260C 655.155,260.167 640.822,260.667 626.5,261.5C 623.803,269.487 623.137,269.32 624.5,261C 623.207,260.51 621.873,260.343 620.5,260.5C 619.588,279.573 609.588,288.073 590.5,286C 583.097,282.485 580.263,276.652 582,268.5C 582.892,265.048 584.558,262.048 587,259.5C 580.854,274.703 586.021,281.203 602.5,279C 612.445,279.383 617.445,274.717 617.5,265C 617.548,261.506 616.881,258.173 615.5,255C 615.493,253.188 616.16,251.688 617.5,250.5C 620.277,253.195 623.611,254.028 627.5,253C 632.972,245.93 639.638,240.264 647.5,236C 657.333,233.833 661.167,237.667 659,247.5C 657.296,249.373 655.463,251.04 653.5,252.5 Z"/></g>
<g><path style="opacity:1" fill="#7f7f7f" d="M 472.5,236.5 C 473.434,237.568 473.768,238.901 473.5,240.5C 499.005,240.831 524.339,240.498 549.5,239.5C 550.289,239.783 550.956,240.283 551.5,241C 525.169,241.5 498.835,241.667 472.5,241.5C 472.5,239.833 472.5,238.167 472.5,236.5 Z"/></g>
<g><path style="opacity:1" fill="#f1f1f1" d="M 682.5,240.5 C 687.019,240.995 688.685,243.329 687.5,247.5C 683.07,250.726 679.737,249.893 677.5,245C 679.043,243.287 680.709,241.787 682.5,240.5 Z"/></g>
<g><path style="opacity:1" fill="#f0f0f0" d="M 644.5,242.5 C 648.007,242.307 651.34,242.973 654.5,244.5C 655.731,245.651 655.731,246.817 654.5,248C 647.298,252.141 639.631,253.641 631.5,252.5C 634.998,247.936 639.331,244.602 644.5,242.5 Z"/></g>
<g><path style="opacity:1" fill="#818181" d="M 550.5,246.5 C 525.005,245.502 499.339,245.169 473.5,245.5C 473.768,247.099 473.434,248.432 472.5,249.5C 472.5,247.833 472.5,246.167 472.5,244.5C 499.169,244.333 525.835,244.5 552.5,245C 551.956,245.717 551.289,246.217 550.5,246.5 Z"/></g>
<g><path style="opacity:1" fill="#191919" d="M 409.5,241.5 C 411.167,241.5 412.833,241.5 414.5,241.5C 414.5,242.833 414.5,244.167 414.5,245.5C 411.975,244.108 409.808,244.442 408,246.5C 408.129,249.768 409.963,251.101 413.5,250.5C 415.1,250.449 416.6,250.116 418,249.5C 418.667,250.167 418.667,250.833 418,251.5C 414.029,254.075 409.863,255.909 405.5,257C 406.685,255.647 408.019,254.48 409.5,253.5C 406.932,253.048 405.599,251.548 405.5,249C 406.436,246.295 407.769,243.795 409.5,241.5 Z"/></g>
<g><path style="opacity:1" fill="#9d9d9d" d="M 653.5,252.5 C 656.287,253.477 659.287,253.81 662.5,253.5C 659.024,254.643 655.358,254.81 651.5,254C 652.044,253.283 652.711,252.783 653.5,252.5 Z"/></g>
<g><path style="opacity:1" fill="#1d1d1d" d="M 438.5,256.5 C 442.276,257.665 442.443,259.332 439,261.5C 437.598,259.027 436.098,259.027 434.5,261.5C 432.512,260.711 432.179,259.545 433.5,258C 434.549,257.508 435.549,257.674 436.5,258.5C 437.522,258.145 438.189,257.478 438.5,256.5 Z"/></g>
<g><path style="opacity:1" fill="#171717" d="M 784.5,268.5 C 785.376,268.369 786.043,268.702 786.5,269.5C 785.687,270.814 784.687,271.981 783.5,273C 779,275.5 774.5,278 770,280.5C 769.289,278.633 769.789,277.133 771.5,276C 776.223,273.978 780.557,271.478 784.5,268.5 Z"/></g>
<g><path style="opacity:1" fill="#191919" d="M 373.5,281.5 C 374.5,281.5 375.5,281.5 376.5,281.5C 376.5,284.167 376.5,286.833 376.5,289.5C 373.865,290.683 371.198,291.516 368.5,292C 372.236,290.784 373.236,288.451 371.5,285C 371.978,283.697 372.645,282.531 373.5,281.5 Z"/></g>
<g><path style="opacity:1" fill="#202020" d="M 416.5,290.5 C 421.654,291.268 422.654,293.768 419.5,298C 414.917,298.934 413.417,297.1 415,292.5C 415.717,291.956 416.217,291.289 416.5,290.5 Z"/></g>
<g><path style="opacity:1" fill="#242424" d="M 436.5,288.5 C 437.774,289.189 437.774,290.023 436.5,291C 433.942,292.626 431.275,293.626 428.5,294C 431.059,291.897 433.726,290.064 436.5,288.5 Z"/></g>
<g><path style="opacity:1" fill="#191919" d="M 605.5,291.5 C 606.522,292.892 606.189,294.225 604.5,295.5C 600.326,298.088 595.993,300.421 591.5,302.5C 590.269,301.349 590.269,300.183 591.5,299C 596.387,296.726 601.054,294.226 605.5,291.5 Z"/></g>
<g><path style="opacity:1" fill="#dddddd" d="M 416.5,292.5 C 421.663,294.424 421.663,295.591 416.5,296C 415.316,294.855 415.316,293.688 416.5,292.5 Z"/></g>
<g><path style="opacity:1" fill="#1d1d1d" d="M 455.5,295.5 C 457.153,304.629 457.653,313.963 457,323.5C 456.405,316.627 455.572,309.794 454.5,303C 454.555,300.413 454.889,297.913 455.5,295.5 Z"/></g>
<g><path style="opacity:1" fill="#1b1b1b" d="M 372.5,298.5 C 374.28,299.755 376.113,299.755 378,298.5C 381.058,299.324 381.224,300.658 378.5,302.5C 376.214,301.58 373.881,301.58 371.5,302.5C 371.433,301.041 371.766,299.708 372.5,298.5 Z"/></g>
<g><path style="opacity:1" fill="#242424" d="M 396.5,296.5 C 397.774,297.189 397.774,298.023 396.5,299C 393.942,300.626 391.275,301.626 388.5,302C 391.059,299.897 393.726,298.064 396.5,296.5 Z"/></g>
<g><path style="opacity:1" fill="#121212" d="M 434.5,300.5 C 437.861,301.203 438.194,302.537 435.5,304.5C 433.358,303.563 433.024,302.23 434.5,300.5 Z"/></g>
<g><path style="opacity:1" fill="#171717" d="M 446.5,293.5 C 447.88,293.962 448.547,294.962 448.5,296.5C 448.059,298.145 447.726,299.811 447.5,301.5C 449.776,308.133 449.942,314.8 448,321.5C 444.743,324.428 440.909,325.262 436.5,324C 435.271,323.219 433.938,322.719 432.5,322.5C 428.958,324.091 425.291,324.591 421.5,324C 420.874,323.25 420.374,322.416 420,321.5C 419.097,322.701 417.931,323.535 416.5,324C 412.5,324.667 408.5,324.667 404.5,324C 402.845,322.556 402.178,320.722 402.5,318.5C 400.473,318.338 398.473,318.505 396.5,319C 392.148,321.677 387.482,323.511 382.5,324.5C 379.107,324.11 377.274,322.11 377,318.5C 374.519,320.314 371.685,320.98 368.5,320.5C 369.18,316.298 371.347,312.964 375,310.5C 375.219,309.062 375.719,307.729 376.5,306.5C 377.608,310.816 378.608,315.149 379.5,319.5C 385.228,321.105 390.561,320.272 395.5,317C 391.916,315.927 388.25,315.26 384.5,315C 385.729,312.551 387.729,311.384 390.5,311.5C 396.546,314.181 402.879,315.847 409.5,316.5C 408.286,318.069 406.619,318.902 404.5,319C 404.833,319.333 405.167,319.667 405.5,320C 409.5,320.667 413.5,320.667 417.5,320C 418.646,319.355 419.646,318.522 420.5,317.5C 422.781,320.228 425.781,321.228 429.5,320.5C 429.627,315.573 431.794,311.906 436,309.5C 438.528,310.197 439.694,311.864 439.5,314.5C 439.563,316.481 438.896,318.148 437.5,319.5C 440.506,320.748 443.506,320.748 446.5,319.5C 446.702,310.773 446.702,302.106 446.5,293.5 Z"/></g>
<g><path style="opacity:1" fill="#191919" d="M 420.5,308.5 C 423.78,309.732 424.114,311.399 421.5,313.5C 420.522,313.023 419.689,312.357 419,311.5C 417.921,313.394 416.587,313.727 415,312.5C 414.786,309.686 415.953,309.02 418.5,310.5C 419.522,310.145 420.189,309.478 420.5,308.5 Z"/></g>
<g><path style="opacity:1" fill="#eaeaea" d="M 374.5,312.5 C 376.176,313.183 376.843,314.517 376.5,316.5C 374.801,316.66 373.134,316.494 371.5,316C 372.71,314.961 373.71,313.794 374.5,312.5 Z"/></g>
<g><path style="opacity:1" fill="#f0f0f0" d="M 433.5,313.5 C 438.218,314.319 438.552,315.986 434.5,318.5C 431.14,317.209 430.806,315.543 433.5,313.5 Z"/></g>
</svg>
