<?xml version="1.0" encoding="UTF-8"?>
<!DOCTYPE svg PUBLIC "-//W3C//DTD SVG 1.1//EN" "http://www.w3.org/Graphics/SVG/1.1/DTD/svg11.dtd">
<svg xmlns="http://www.w3.org/2000/svg" version="1.1" width="1000px" height="500px" style="shape-rendering:geometricPrecision; text-rendering:geometricPrecision; image-rendering:optimizeQuality; fill-rule:evenodd; clip-rule:evenodd" xmlns:xlink="http://www.w3.org/1999/xlink">
<g><path style="opacity:1" fill="#fefefe" d="M -0.5,-0.5 C 332.833,-0.5 666.167,-0.5 999.5,-0.5C 999.5,166.167 999.5,332.833 999.5,499.5C 666.167,499.5 332.833,499.5 -0.5,499.5C -0.5,332.833 -0.5,166.167 -0.5,-0.5 Z"/></g>
<g><path style="opacity:1" fill="#151515" d="M 655.5,189.5 C 657.144,189.286 658.644,189.62 660,190.5C 660.607,193.202 660.44,195.868 659.5,198.5C 662.151,200.863 662.151,203.196 659.5,205.5C 658.5,204.833 657.5,204.167 656.5,203.5C 653.805,207.514 650.139,209.348 645.5,209C 648.295,207.207 650.795,205.04 653,202.5C 652.862,200.51 652.362,198.51 651.5,196.5C 652.071,193.687 653.404,191.354 655.5,189.5 Z"/></g>
<g><path style="opacity:1" fill="#bbbbbb" d="M 654.5,193.5 C 657.275,193.834 657.941,195.167 656.5,197.5C 655.295,196.423 654.628,195.09 654.5,193.5 Z"/></g>
<g><path style="opacity:1" fill="#191919" d="M 767.5,202.5 C 768.239,202.369 768.906,202.536 769.5,203C 768.743,204.512 767.743,205.846 766.5,207C 762,209.5 757.5,212 753,214.5C 752.289,212.633 752.789,211.133 754.5,210C 759.223,207.978 763.557,205.478 767.5,202.5 Z"/></g>
<g><path style="opacity:1" fill="#0f0f0f" d="M 731.5,206.5 C 738.825,205.992 741.658,209.326 740,216.5C 737.839,220.124 734.672,221.291 730.5,220C 727.729,215.318 728.062,210.818 731.5,206.5 Z"/></g>
<g><path style="opacity:1" fill="#e0e0e0" d="M 731.5,209.5 C 734.683,209.929 737.016,211.596 738.5,214.5C 734.8,217.525 731.8,217.025 729.5,213C 729.978,211.697 730.645,210.531 731.5,209.5 Z"/></g>
<g><path style="opacity:1" fill="#1b1b1b" d="M 422.5,210.5 C 424.379,210.393 424.712,210.893 423.5,212C 413.44,217.713 413.107,217.213 422.5,210.5 Z"/></g>
<g><path style="opacity:1" fill="#161616" d="M 800.5,216.5 C 802.547,228.643 804.213,240.976 805.5,253.5C 805.145,257.921 804.312,262.254 803,266.5C 801.369,252.863 799.869,239.196 798.5,225.5C 798.449,222.303 799.115,219.303 800.5,216.5 Z"/></g>
<g><path style="opacity:1" fill="#181818" d="M 424.5,215.5 C 425.754,217.357 425.754,219.357 424.5,221.5C 421.827,222.759 419.161,223.592 416.5,224C 415.424,222.274 415.257,220.441 416,218.5C 416.249,219.624 416.749,220.624 417.5,221.5C 418.852,220.482 419.852,219.149 420.5,217.5C 423.147,220.18 424.48,219.513 424.5,215.5 Z"/></g>
<g><path style="opacity:1" fill="#191919" d="M 696.5,217.5 C 697.239,217.369 697.906,217.536 698.5,218C 697.743,219.512 696.743,220.846 695.5,222C 691,224.5 686.5,227 682,229.5C 681.289,227.633 681.789,226.133 683.5,225C 688.223,222.978 692.557,220.478 696.5,217.5 Z"/></g>
<g><path style="opacity:1" fill="#292929" d="M 343.5,215.5 C 344.774,216.189 344.774,217.023 343.5,218C 341.167,219.167 338.833,220.333 336.5,221.5C 336.167,221.167 335.833,220.833 335.5,220.5C 338.231,218.808 340.898,217.142 343.5,215.5 Z"/></g>
<g><path style="opacity:1" fill="#131313" d="M 661.5,220.5 C 667.446,221.516 668.446,224.016 664.5,228C 662.544,227.778 660.71,226.945 659,225.5C 657.647,226.685 656.48,228.019 655.5,229.5C 653.483,228.826 651.817,227.659 650.5,226C 651.726,224.365 653.059,222.865 654.5,221.5C 657.769,225.56 660.102,225.226 661.5,220.5 Z"/></g>
<g><path style="opacity:1" fill="#191919" d="M 207.5,221.5 C 208.5,221.5 209.5,221.5 210.5,221.5C 210.5,224.167 210.5,226.833 210.5,229.5C 207.865,230.683 205.198,231.516 202.5,232C 206.236,230.784 207.236,228.451 205.5,225C 205.978,223.697 206.645,222.531 207.5,221.5 Z"/></g>
<g><path style="opacity:1" fill="#161616" d="M 285.5,225.5 C 290.668,226.339 291.668,228.839 288.5,233C 283.917,233.934 282.417,232.1 284,227.5C 284.717,226.956 285.217,226.289 285.5,225.5 Z"/></g>
<g><path style="opacity:1" fill="#0f0f0f" d="M 764.5,224.5 C 770.79,226.45 771.124,229.117 765.5,232.5C 760.725,230.604 760.392,227.937 764.5,224.5 Z"/></g>
<g><path style="opacity:1" fill="#181818" d="M 339.5,226.5 C 341.252,226.418 342.252,227.251 342.5,229C 342.001,236.485 340.668,243.818 338.5,251C 340.429,258.568 337.429,261.401 329.5,259.5C 329.5,258.167 329.5,256.833 329.5,255.5C 333.075,255.548 335.409,253.881 336.5,250.5C 333.241,245.073 329.408,240.073 325,235.5C 324,236.833 323,236.833 322,235.5C 318.427,226.45 320.094,225.45 327,232.5C 331.057,237.558 334.724,242.892 338,248.5C 339.348,241.239 339.848,233.906 339.5,226.5 Z"/></g>
<g><path style="opacity:1" fill="#dcdcdc" d="M 285.5,227.5 C 290.663,229.424 290.663,230.591 285.5,231C 284.316,229.855 284.316,228.688 285.5,227.5 Z"/></g>
<g><path style="opacity:1" fill="#191919" d="M 520.5,226.5 C 522.252,226.418 523.252,227.251 523.5,229C 522.206,238.475 521.039,247.975 520,257.5C 517.196,259.344 514.03,260.011 510.5,259.5C 510.5,258.167 510.5,256.833 510.5,255.5C 514.075,255.548 516.409,253.881 517.5,250.5C 513.888,242.723 508.388,236.723 501,232.5C 500.333,231.167 500.333,229.833 501,228.5C 501.718,227.549 502.551,227.383 503.5,228C 509.428,233.924 514.594,240.424 519,247.5C 520.384,240.589 520.884,233.589 520.5,226.5 Z"/></g>
<g><path style="opacity:1" fill="#272727" d="M 406.5,229.5 C 410.905,229.7 411.405,231.033 408,233.5C 405.256,232.939 404.756,231.606 406.5,229.5 Z"/></g>
<g><path style="opacity:1" fill="#1e1e1e" d="M 222.5,230.5 C 223.5,230.5 224.5,230.5 225.5,230.5C 225.426,234.541 224.093,235.208 221.5,232.5C 221.863,231.817 222.196,231.15 222.5,230.5 Z"/></g>
<g><path style="opacity:1" fill="#222222" d="M 483.5,231.5 C 488.942,231.886 490.275,234.386 487.5,239C 485.866,239.494 484.199,239.66 482.5,239.5C 482.351,238.448 482.517,237.448 483,236.5C 484.356,237.38 485.856,237.714 487.5,237.5C 487.278,234.315 485.778,233.315 483,234.5C 482.53,233.423 482.697,232.423 483.5,231.5 Z"/></g>
<g><path style="opacity:1" fill="#1a1a1a" d="M 266.5,229.5 C 268.842,229.775 268.842,230.608 266.5,232C 264.336,232.914 262.336,234.081 260.5,235.5C 260.167,235.167 259.833,234.833 259.5,234.5C 262.077,233.057 264.41,231.39 266.5,229.5 Z"/></g>
<g><path style="opacity:1" fill="#1d1d1d" d="M 430.5,230.5 C 432.153,239.629 432.653,248.963 432,258.5C 431.405,251.627 430.572,244.794 429.5,238C 429.555,235.413 429.889,232.913 430.5,230.5 Z"/></g>
<g><path style="opacity:1" fill="#1d1d1d" d="M 530.5,230.5 C 532.153,239.629 532.653,248.963 532,258.5C 531.405,251.627 530.572,244.794 529.5,238C 529.555,235.413 529.889,232.913 530.5,230.5 Z"/></g>
<g><path style="opacity:1" fill="#1a1a1a" d="M 300.5,231.5 C 302.842,231.775 302.842,232.608 300.5,234C 298.336,234.914 296.336,236.081 294.5,237.5C 294.167,237.167 293.833,236.833 293.5,236.5C 296.077,235.057 298.41,233.39 300.5,231.5 Z"/></g>
<g><path style="opacity:1" fill="#0f0f0f" d="M 707.5,250.5 C 711.442,250.875 715.109,251.875 718.5,253.5C 718.586,254.496 718.252,255.329 717.5,256C 715.1,256.186 712.766,256.686 710.5,257.5C 710.977,258.478 711.643,259.311 712.5,260C 719.167,260.667 725.833,260.667 732.5,260C 735.583,259.214 737.749,257.381 739,254.5C 739.792,256.587 740.959,258.421 742.5,260C 745.833,260.667 749.167,260.667 752.5,260C 753.949,255.266 756.115,250.766 759,246.5C 765.691,237.798 770.191,238.798 772.5,249.5C 771.859,252.949 770.526,256.116 768.5,259C 773.771,260.958 779.105,260.958 784.5,259C 785,258.5 785.5,258 786,257.5C 786.167,255.333 786.333,253.167 786.5,251C 785.167,240.669 783.834,230.336 782.5,220C 782.611,211.162 784.611,210.495 788.5,218C 787.001,220.398 786.334,223.065 786.5,226C 787.337,233.191 788.337,240.358 789.5,247.5C 789.393,253.101 788.226,258.435 786,263.5C 784.681,265.487 782.848,266.654 780.5,267C 773.263,268.221 766.43,267.054 760,263.5C 754.282,267.055 748.116,268.222 741.5,267C 739.981,265.649 738.648,264.149 737.5,262.5C 735.549,264.622 733.215,266.122 730.5,267C 724.5,267.667 718.5,267.667 712.5,267C 707.865,265.144 706.198,261.644 707.5,256.5C 697.661,257.169 688.661,260.336 680.5,266C 675.924,267.476 671.257,267.81 666.5,267C 663.854,264.13 661.854,260.964 660.5,257.5C 655.413,262.805 650.413,262.805 645.5,257.5C 647.716,251.285 651.716,246.619 657.5,243.5C 658.115,240.564 659.282,237.897 661,235.5C 662.468,243.803 664.301,251.97 666.5,260C 676.68,261.372 686.347,259.706 695.5,255C 689.145,251.275 682.478,249.775 675.5,250.5C 677.672,244.915 681.672,242.748 687.5,244C 693.785,247.484 700.451,249.651 707.5,250.5 Z"/></g>
<g><path style="opacity:1" fill="#141414" d="M 420.5,228.5 C 422.121,228.787 423.121,229.787 423.5,231.5C 423.624,240.212 423.124,248.879 422,257.5C 416.25,261.106 412.25,259.773 410,253.5C 407.013,258.152 402.846,259.652 397.5,258C 396.253,256.506 396.253,255.006 397.5,253.5C 401.564,256.297 405.398,255.964 409,252.5C 409.319,248.761 408.819,245.094 407.5,241.5C 407.719,240.062 408.219,238.729 409,237.5C 410.013,243.244 411.346,248.911 413,254.5C 416.24,256.036 419.24,255.703 422,253.5C 421.459,245.197 420.959,236.864 420.5,228.5 Z"/></g>
<g><path style="opacity:1" fill="#121212" d="M 738.5,239.5 C 743.435,240.549 744.435,243.049 741.5,247C 739.322,247.165 737.489,246.332 736,244.5C 733.455,249.651 730.621,249.818 727.5,245C 729.443,239.844 732.109,239.344 735.5,243.5C 736.984,242.533 737.984,241.2 738.5,239.5 Z"/></g>
<g><path style="opacity:1" fill="#040404" d="M 544.5,241.5 C 545.496,241.414 546.329,241.748 547,242.5C 547.494,244.134 547.66,245.801 547.5,247.5C 572.833,247.5 598.167,247.5 623.5,247.5C 623.5,248.833 623.5,250.167 623.5,251.5C 598.167,251.5 572.833,251.5 547.5,251.5C 547.949,253.977 547.283,255.977 545.5,257.5C 541.854,255.183 538.52,252.516 535.5,249.5C 538.52,246.811 541.52,244.144 544.5,241.5 Z"/></g>
<g><path style="opacity:1" fill="#111111" d="M 286.5,244.5 C 289.861,245.203 290.194,246.537 287.5,248.5C 285.358,247.563 285.024,246.23 286.5,244.5 Z"/></g>
<g><path style="opacity:1" fill="#e1e1e1" d="M 657.5,246.5 C 658.496,246.414 659.329,246.748 660,247.5C 660.949,254.79 658.115,256.457 651.5,252.5C 653.215,250.118 655.215,248.118 657.5,246.5 Z"/></g>
<g><path style="opacity:1" fill="#ececec" d="M 762.5,247.5 C 766.075,247.452 768.409,249.119 769.5,252.5C 766.51,256.452 763.01,257.119 759,254.5C 758.176,251.16 759.343,248.827 762.5,247.5 Z"/></g>
<g><path style="opacity:1" fill="#161616" d="M 223.5,238.5 C 226.292,238.452 228.125,239.785 229,242.5C 230.151,246.829 229.318,250.662 226.5,254C 217.286,258.388 207.619,260.055 197.5,259C 192.311,256.087 191.144,251.92 194,246.5C 192.425,250.437 193.591,253.271 197.5,255C 208.101,256.791 218.101,255.124 227.5,250C 228.731,248.817 228.731,247.651 227.5,246.5C 222.242,249.987 220.075,248.653 221,242.5C 221.662,241.016 222.496,239.683 223.5,238.5 Z"/></g>
<g><path style="opacity:1" fill="#dcdcdc" d="M 222.5,242.5 C 223.675,242.281 224.675,242.614 225.5,243.5C 223.948,244.798 222.948,244.465 222.5,242.5 Z"/></g>
<g><path style="opacity:1" fill="#181818" d="M 387.5,240.5 C 388.833,240.5 390.167,240.5 391.5,240.5C 391.5,241.833 391.5,243.167 391.5,244.5C 387.197,243.796 383.697,245.13 381,248.5C 380.219,249.944 380.386,251.277 381.5,252.5C 391.507,252.997 392.841,256.497 385.5,263C 379.074,266.576 372.407,267.243 365.5,265C 361.675,260.367 361.509,255.533 365,250.5C 363.608,260.104 367.775,263.937 377.5,262C 381.385,261.261 385.052,259.927 388.5,258C 386.038,256.784 383.371,256.118 380.5,256C 378.012,253.373 377.845,250.54 380,247.5C 382.396,244.933 384.896,242.6 387.5,240.5 Z"/></g>
<g><path style="opacity:1" fill="#909090" d="M 707.5,250.5 C 711.5,250.5 715.5,250.5 719.5,250.5C 719.737,251.791 719.404,252.791 718.5,253.5C 715.109,251.875 711.442,250.875 707.5,250.5 Z"/></g>
<g><path style="opacity:1" fill="#151515" d="M 494.5,248.5 C 495.725,249.152 496.392,250.319 496.5,252C 496.185,257.487 493.852,258.654 489.5,255.5C 487.747,257.261 485.747,258.594 483.5,259.5C 481.617,259.124 480.117,258.124 479,256.5C 474.925,259.603 470.425,260.27 465.5,258.5C 463.103,266.335 460.77,266.169 458.5,258C 455.647,257.341 453.98,258.508 453.5,261.5C 455.174,267.75 455.674,274.083 455,280.5C 452.855,272.953 452.189,265.287 453,257.5C 455.004,254.91 457.504,252.91 460.5,251.5C 465.496,255.346 471.162,256.512 477.5,255C 479.138,251.943 480.471,251.943 481.5,255C 485.684,256.165 488.517,254.665 490,250.5C 494.264,254.869 495.764,254.202 494.5,248.5 Z"/></g>
<g><path style="opacity:1" fill="#191919" d="M 271.5,245.5 C 279.877,245.192 281.544,248.358 276.5,255C 281.351,256.258 285.685,255.424 289.5,252.5C 290.386,253.325 290.719,254.325 290.5,255.5C 293.119,255.768 295.619,255.435 298,254.5C 298.395,252.821 298.228,251.155 297.5,249.5C 297.556,248.263 298.056,247.263 299,246.5C 302.498,257.669 298.831,261.336 288,257.5C 286.941,257.63 286.108,258.13 285.5,259C 277.147,259.168 268.813,259.668 260.5,260.5C 258.993,264.355 258.326,264.021 258.5,259.5C 255.722,259.978 253.722,258.978 252.5,256.5C 250.422,258.986 247.755,259.986 244.5,259.5C 244.118,269.741 239.118,273.575 229.5,271C 236.32,270.597 240.987,267.264 243.5,261C 242.833,259.667 242.167,258.333 241.5,257C 241.645,256.228 241.978,255.561 242.5,255C 245.098,255.422 247.764,255.422 250.5,255C 251.646,254.355 252.646,253.522 253.5,252.5C 255.441,255.334 258.107,256.168 261.5,255C 264.25,251.142 267.584,247.975 271.5,245.5 Z"/></g>
<g><path style="opacity:1" fill="#eaeaea" d="M 269.5,249.5 C 271.527,249.338 273.527,249.505 275.5,250C 276.833,251 276.833,252 275.5,253C 271.682,254.944 267.682,255.611 263.5,255C 265.342,252.926 267.342,251.093 269.5,249.5 Z"/></g>
<g><path style="opacity:1" fill="#a8a8a8" d="M 517.5,253.5 C 518.376,253.369 519.043,253.702 519.5,254.5C 517.192,255.873 516.525,255.54 517.5,253.5 Z"/></g>
<g><path style="opacity:1" fill="#1b1b1b" d="M 297.5,262.5 C 300.709,263.297 301.209,264.963 299,267.5C 298.311,266.643 297.478,265.977 296.5,265.5C 293.853,268.18 292.52,267.513 292.5,263.5C 293.93,263.421 295.264,263.754 296.5,264.5C 297.298,264.043 297.631,263.376 297.5,262.5 Z"/></g>
<g><path style="opacity:1" fill="#232323" d="M 515.5,262.5 C 517.842,262.775 517.842,263.608 515.5,265C 513.254,266.039 511.087,267.206 509,268.5C 508.383,267.551 508.549,266.718 509.5,266C 511.727,265.059 513.727,263.892 515.5,262.5 Z"/></g>
<g><path style="opacity:1" fill="#282828" d="M 407.5,264.5 C 408.774,265.189 408.774,266.023 407.5,267C 404.475,268.688 401.475,270.021 398.5,271C 401.402,268.583 404.402,266.416 407.5,264.5 Z"/></g>
<g><path style="opacity:1" fill="#1f1f1f" d="M 374.5,269.5 C 378.127,270.47 378.461,272.137 375.5,274.5C 374.522,274.023 373.689,273.357 373,272.5C 371.921,274.394 370.587,274.727 369,273.5C 368.786,270.686 369.953,270.02 372.5,271.5C 373.522,271.145 374.189,270.478 374.5,269.5 Z"/></g>
<g><path style="opacity:1" fill="#282828" d="M 242.5,274.5 C 243.774,275.189 243.774,276.023 242.5,277C 239.475,278.688 236.475,280.021 233.5,281C 236.402,278.583 239.402,276.416 242.5,274.5 Z"/></g>
<g><path style="opacity:1" fill="#232323" d="M 458.5,282.5 C 460.842,282.775 460.842,283.608 458.5,285C 456.254,286.039 454.087,287.206 452,288.5C 451.383,287.551 451.549,286.718 452.5,286C 454.727,285.059 456.727,283.892 458.5,282.5 Z"/></g>
</svg>
