<?xml version="1.0" encoding="UTF-8"?>
<!DOCTYPE svg PUBLIC "-//W3C//DTD SVG 1.1//EN" "http://www.w3.org/Graphics/SVG/1.1/DTD/svg11.dtd">
<svg xmlns="http://www.w3.org/2000/svg" version="1.1" width="1000px" height="500px" style="shape-rendering:geometricPrecision; text-rendering:geometricPrecision; image-rendering:optimizeQuality; fill-rule:evenodd; clip-rule:evenodd" xmlns:xlink="http://www.w3.org/1999/xlink">
<g><path style="opacity:1" fill="#fefefe" d="M -0.5,-0.5 C 332.833,-0.5 666.167,-0.5 999.5,-0.5C 999.5,166.167 999.5,332.833 999.5,499.5C 666.167,499.5 332.833,499.5 -0.5,499.5C -0.5,332.833 -0.5,166.167 -0.5,-0.5 Z"/></g>
<g><path style="opacity:1" fill="#101010" d="M 411.5,59.5 C 413.527,59.3379 415.527,59.5045 417.5,60C 419.97,64.253 419.97,68.5863 417.5,73C 418.477,74.497 419.477,75.997 420.5,77.5C 420.32,78.5539 419.987,79.5539 419.5,80.5C 417.219,81.1847 414.886,81.3513 412.5,81C 408.512,86.7066 403.179,89.04 396.5,88C 401.53,84.8157 406.196,81.149 410.5,77C 406.788,74.3981 405.622,70.8981 407,66.5C 408.511,64.1384 410.011,61.8051 411.5,59.5 Z"/></g>
<g><path style="opacity:1" fill="#e1e1e1" d="M 410.5,65.5 C 414.225,65.7796 415.392,67.7796 414,71.5C 411.735,70.0842 410.569,68.0842 410.5,65.5 Z"/></g>
<g><path style="opacity:1" fill="#141414" d="M 672.5,68.5 C 673.376,68.3691 674.043,68.7025 674.5,69.5C 673.752,71.3325 672.752,72.9991 671.5,74.5C 664.833,78.1667 658.167,81.8333 651.5,85.5C 650.152,83.3886 650.485,81.5553 652.5,80C 659.393,76.3924 666.059,72.5591 672.5,68.5 Z"/></g>
<g><path style="opacity:1" fill="#111111" d="M 296.5,76.5 C 297.572,78.9358 296.905,81.1025 294.5,83C 287.709,86.2985 281.042,89.7985 274.5,93.5C 273.884,90.876 274.884,88.7093 277.5,87C 284.217,83.9795 290.551,80.4795 296.5,76.5 Z"/></g>
<g><path style="opacity:1" fill="#0c0c0c" d="M 516.5,78.5 C 519.044,78.1043 521.211,78.771 523,80.5C 523.813,84.6645 523.313,88.6645 521.5,92.5C 526.625,95.0272 526.792,97.6939 522,100.5C 520.527,100.097 519.194,99.4303 518,98.5C 515.5,101 513,103.5 510.5,106C 507.634,107.457 504.634,107.79 501.5,107C 505.951,104.217 510.117,101.05 514,97.5C 513.169,94.8232 512.002,92.1566 510.5,89.5C 511.734,85.3626 513.734,81.6959 516.5,78.5 Z"/></g>
<g><path style="opacity:1" fill="#101010" d="M 376.5,85.5 C 378.527,85.3379 380.527,85.5045 382.5,86C 384.97,90.253 384.97,94.5863 382.5,99C 383.477,100.497 384.477,101.997 385.5,103.5C 385.32,104.554 384.987,105.554 384.5,106.5C 382.219,107.185 379.886,107.351 377.5,107C 373.512,112.707 368.179,115.04 361.5,114C 366.53,110.816 371.196,107.149 375.5,103C 371.788,100.398 370.622,96.8981 372,92.5C 373.511,90.1384 375.011,87.8051 376.5,85.5 Z"/></g>
<g><path style="opacity:1" fill="#d7d7d7" d="M 514.5,84.5 C 517.833,84.5 519.5,86.1667 519.5,89.5C 516.736,89.0012 515.069,87.3345 514.5,84.5 Z"/></g>
<g><path style="opacity:1" fill="#121212" d="M 294.5,88.5 C 297.872,89.5697 297.872,91.4031 294.5,94C 287.991,97.7549 281.324,101.255 274.5,104.5C 273.884,101.876 274.884,99.7093 277.5,98C 283.552,95.3126 289.219,92.1459 294.5,88.5 Z"/></g>
<g><path style="opacity:1" fill="#0c0c0c" d="M 664.5,90.5 C 667.036,109.157 669.203,128.157 671,147.5C 671.533,151.446 673.366,154.612 676.5,157C 690.009,158.775 702.676,156.275 714.5,149.5C 706.046,143.794 697.046,142.461 687.5,145.5C 686.432,143.813 686.599,142.146 688,140.5C 691.362,134.158 696.528,131.992 703.5,134C 712.883,138.193 722.55,141.527 732.5,144C 737.823,144.499 743.156,144.666 748.5,144.5C 748.244,146.937 747.577,149.271 746.5,151.5C 737.184,152.332 727.851,152.832 718.5,153C 708.364,158.145 698.03,162.812 687.5,167C 675.999,169.579 668.999,165.079 666.5,153.5C 664.798,157.741 662.465,161.574 659.5,165C 649.049,170.197 641.549,167.363 637,156.5C 634.058,163.388 628.891,166.221 621.5,165C 619.622,163.457 618.122,161.624 617,159.5C 608.239,169.581 599.406,169.914 590.5,160.5C 583.797,167.011 575.797,169.178 566.5,167C 563.667,165.5 561.5,163.333 560,160.5C 556.547,164.145 552.38,166.645 547.5,168C 531.153,172.529 514.487,174.196 497.5,173C 482.138,170.643 475.638,161.81 478,146.5C 483.024,133.581 484.19,133.581 481.5,146.5C 481.913,153.09 485.246,157.59 491.5,160C 511.646,164.981 531.646,164.314 551.5,158C 554.834,156.669 557.834,154.835 560.5,152.5C 561.648,154.149 562.981,155.649 564.5,157C 570.833,157.667 577.167,157.667 583.5,157C 587.618,155.045 590.952,152.212 593.5,148.5C 594.808,156.66 599.475,159.494 607.5,157C 613.445,155.56 617.779,152.06 620.5,146.5C 621.348,153.186 625.014,155.686 631.5,154C 634.07,151.933 636.07,149.433 637.5,146.5C 640.903,156.868 647.903,160.368 658.5,157C 660.709,155.127 662.542,152.96 664,150.5C 664.953,134.075 664.12,117.742 661.5,101.5C 661.139,97.4255 662.139,93.7588 664.5,90.5 Z"/></g>
<g><path style="opacity:1" fill="#e1e1e1" d="M 375.5,91.5 C 379.225,91.7796 380.392,93.7796 379,97.5C 376.735,96.0842 375.569,94.0842 375.5,91.5 Z"/></g>
<g><path style="opacity:1" fill="#121212" d="M 253.5,93.5 C 256.682,111.765 259.015,130.432 260.5,149.5C 259.802,155.658 258.469,161.658 256.5,167.5C 256.502,161.956 256.336,156.289 256,150.5C 254.077,136.511 252.243,122.511 250.5,108.5C 250.865,103.34 251.865,98.3402 253.5,93.5 Z"/></g>
<g><path style="opacity:1" fill="#141414" d="M 717.5,95.5 C 718.376,95.3691 719.043,95.7025 719.5,96.5C 718.752,98.3325 717.752,99.9991 716.5,101.5C 709.833,105.167 703.167,108.833 696.5,112.5C 695.152,110.389 695.485,108.555 697.5,107C 704.393,103.392 711.059,99.5591 717.5,95.5 Z"/></g>
<g><path style="opacity:1" fill="#121212" d="M 608.5,96.5 C 618.022,97.8855 621.189,103.219 618,112.5C 609.122,121.803 603.622,120.303 601.5,108C 601.586,102.758 603.919,98.9242 608.5,96.5 Z"/></g>
<g><path style="opacity:1" fill="#f5f5f5" d="M 605.5,102.5 C 611.203,101.73 614.37,104.063 615,109.5C 609.849,112.901 606.016,111.901 603.5,106.5C 603.752,104.927 604.418,103.594 605.5,102.5 Z"/></g>
<g><path style="opacity:1" fill="#0c0c0c" d="M 418.5,102.5 C 426.379,104.628 427.379,108.462 421.5,114C 418.933,113.304 416.433,112.138 414,110.5C 412.333,112.167 410.667,113.833 409,115.5C 401.654,113.347 400.821,109.847 406.5,105C 407.5,104.333 408.5,104.333 409.5,105C 410.685,106.353 412.019,107.52 413.5,108.5C 415.641,106.878 417.308,104.878 418.5,102.5 Z"/></g>
<g><path style="opacity:1" fill="#0b0b0b" d="M 285.5,122.5 C 301.411,128.254 308.578,139.588 307,156.5C 305.451,161.042 302.284,163.875 297.5,165C 289.316,167.178 280.983,168.011 272.5,167.5C 272.249,164.091 272.583,160.758 273.5,157.5C 281.191,156.814 288.858,155.981 296.5,155C 298.833,154 301.167,153 303.5,152C 303.551,147.275 301.551,143.275 297.5,140C 293.31,137.155 288.81,134.988 284,133.5C 283.744,129.754 284.244,126.087 285.5,122.5 Z"/></g>
<g><path style="opacity:1" fill="#0b0b0b" d="M 413.5,123.5 C 417.147,123.622 419.981,125.288 422,128.5C 428.376,136.264 430.043,144.93 427,154.5C 423.613,160.622 418.446,164.455 411.5,166C 405.891,167.384 400.225,167.717 394.5,167C 388.653,164.246 383.32,160.746 378.5,156.5C 370.63,164.936 360.963,168.603 349.5,167.5C 347.579,177.009 343.746,185.675 338,193.5C 327.742,203.409 316.908,204.076 305.5,195.5C 326.662,197.363 340.328,188.03 346.5,167.5C 340.474,168.324 335.307,166.658 331,162.5C 330.669,155.805 332.669,149.805 337,144.5C 338.117,142.876 339.617,141.876 341.5,141.5C 347.469,144.996 350.469,150.329 350.5,157.5C 357.549,158.282 364.216,157.115 370.5,154C 370.957,153.586 371.291,153.086 371.5,152.5C 360.797,149.571 359.797,144.737 368.5,138C 377.163,134.124 385.33,134.958 393,140.5C 394.301,142.365 394.635,144.365 394,146.5C 391.933,149.07 389.433,151.07 386.5,152.5C 388.457,154.485 390.79,155.985 393.5,157C 403.633,158.629 413.3,157.296 422.5,153C 426.452,150.073 426.452,147.239 422.5,144.5C 418.052,152.268 412.552,153.268 406,147.5C 404.801,138.312 407.301,130.312 413.5,123.5 Z"/></g>
<g><path style="opacity:1" fill="#0f0f0f" d="M 524.5,127.5 C 532.379,129.628 533.379,133.462 527.5,139C 524.633,138.819 522.133,137.652 520,135.5C 517.981,137.188 516.314,139.188 515,141.5C 507.682,138.838 506.848,135.005 512.5,130C 513.5,129.333 514.5,129.333 515.5,130C 516.685,131.353 518.019,132.52 519.5,133.5C 521.641,131.878 523.308,129.878 524.5,127.5 Z"/></g>
<g><path style="opacity:1" fill="#e2e2e2" d="M 411.5,134.5 C 414.168,134.834 416.168,136.167 417.5,138.5C 411.957,141.973 409.957,140.639 411.5,134.5 Z"/></g>
<g><path style="opacity:1" fill="#ebebeb" d="M 337.5,150.5 C 341.248,151.042 343.915,153.042 345.5,156.5C 338.827,159.134 336.161,157.134 337.5,150.5 Z"/></g>
<g><path style="opacity:1" fill="#101010" d="M 712.5,175.5 C 715.774,176.14 718.441,177.807 720.5,180.5C 719.079,183.009 717.412,185.343 715.5,187.5C 708.837,184.847 707.837,180.847 712.5,175.5 Z"/></g>
<g><path style="opacity:1" fill="#101010" d="M 228.5,247.5 C 227.357,250.976 227.19,254.642 228,258.5C 228.717,257.956 229.217,257.289 229.5,256.5C 232.988,250.194 236.488,243.86 240,237.5C 240.654,236.304 241.154,236.304 241.5,237.5C 237.212,247.374 232.545,257.041 227.5,266.5C 225.955,267.452 224.288,267.785 222.5,267.5C 219.705,257.316 217.372,246.983 215.5,236.5C 215.708,233.815 216.875,233.149 219,234.5C 220.327,238.809 221.494,243.142 222.5,247.5C 222.709,248.922 223.209,250.255 224,251.5C 224.499,247.514 224.666,243.514 224.5,239.5C 226.157,218.685 234.824,201.518 250.5,188C 251.167,187.333 251.833,187.333 252.5,188C 236.396,204.46 228.396,224.293 228.5,247.5 Z"/></g>
<g><path style="opacity:1" fill="#101010" d="M 529.5,188.5 C 529.897,187.475 530.563,187.308 531.5,188C 550.07,204.987 558.903,226.154 558,251.5C 559.514,245.777 561.18,240.11 563,234.5C 564,233.167 565,233.167 566,234.5C 565.58,245.771 563.08,256.604 558.5,267C 556.024,267.68 554.191,266.847 553,264.5C 548.286,255.74 544.12,246.74 540.5,237.5C 540.846,236.304 541.346,236.304 542,237.5C 545.667,244.167 549.333,250.833 553,257.5C 555.699,230.714 547.866,207.714 529.5,188.5 Z"/></g>
<g><path style="opacity:1" fill="#101010" d="M 738.5,188.5 C 738.897,187.475 739.563,187.308 740.5,188C 758.846,204.679 767.679,225.512 767,250.5C 768.344,245.819 769.677,241.153 771,236.5C 771.368,235.09 772.201,234.09 773.5,233.5C 774.659,237.122 774.825,240.789 774,244.5C 771.984,252.233 769.817,259.9 767.5,267.5C 769.228,270.883 768.561,273.55 765.5,275.5C 764.558,275.392 763.725,275.059 763,274.5C 762.289,272.101 762.456,269.768 763.5,267.5C 757.836,257.522 753.336,247.189 750,236.5C 753.747,243.663 757.747,250.663 762,257.5C 764.388,230.826 756.554,207.826 738.5,188.5 Z"/></g>
<g><path style="opacity:1" fill="#9d9d9d" d="M 224.5,239.5 C 224.666,243.514 224.499,247.514 224,251.5C 223.209,250.255 222.709,248.922 222.5,247.5C 223.167,244.833 223.833,242.167 224.5,239.5 Z"/></g>
<g><path style="opacity:1" fill="#626262" d="M 228.5,247.5 C 228.19,250.713 228.523,253.713 229.5,256.5C 229.217,257.289 228.717,257.956 228,258.5C 227.19,254.642 227.357,250.976 228.5,247.5 Z"/></g>
<g><path style="opacity:1" fill="#151515" d="M 393.5,266.5 C 396.734,266.237 398.068,267.737 397.5,271C 397.947,273.599 396.947,275.099 394.5,275.5C 390.837,273.019 390.504,270.019 393.5,266.5 Z"/></g>
<g><path style="opacity:1" fill="#181818" d="M 594.5,266.5 C 598.461,267.884 599.461,270.551 597.5,274.5C 594.187,276.254 592.52,275.254 592.5,271.5C 592.437,269.486 593.103,267.819 594.5,266.5 Z"/></g>
<g><path style="opacity:1" fill="#111111" d="M 171.5,268.5 C 172.833,268.5 174.167,268.5 175.5,268.5C 173.589,280.799 173.256,293.132 174.5,305.5C 174.384,307.552 173.384,308.885 171.5,309.5C 169.929,307.118 169.096,304.451 169,301.5C 164.871,310.088 159.205,311.422 152,305.5C 148.445,296.791 150.612,289.958 158.5,285C 162.372,284.109 166.038,284.609 169.5,286.5C 170.299,280.499 170.966,274.499 171.5,268.5 Z"/></g>
<g><path style="opacity:1" fill="#090909" d="M 602.5,269.5 C 603.833,269.5 605.167,269.5 606.5,269.5C 606.086,282.843 605.419,296.176 604.5,309.5C 603.833,309.833 603.167,310.167 602.5,310.5C 601.281,296.827 601.281,283.161 602.5,269.5 Z"/></g>
<g><path style="opacity:1" fill="#0c0c0c" d="M 772.5,269.5 C 773.833,269.5 775.167,269.5 776.5,269.5C 776.119,282.845 775.452,296.178 774.5,309.5C 773.833,309.833 773.167,310.167 772.5,310.5C 771.281,296.827 771.281,283.161 772.5,269.5 Z"/></g>
<g><path style="opacity:1" fill="#111111" d="M 532.5,293.5 C 531.793,299.066 531.126,304.732 530.5,310.5C 529.167,310.5 528.5,309.833 528.5,308.5C 528.5,302.833 528.5,297.167 528.5,291.5C 527.209,291.263 526.209,291.596 525.5,292.5C 524.522,292.189 523.855,291.522 523.5,290.5C 524.85,289.05 526.516,288.383 528.5,288.5C 527.066,280.874 529.399,274.708 535.5,270C 540.395,268.884 543.061,270.884 543.5,276C 543.25,278.422 542.416,280.589 541,282.5C 539.768,279.7 539.101,276.7 539,273.5C 535.084,272.39 533.084,274.057 533,278.5C 532.503,281.146 532.336,283.813 532.5,286.5C 535.983,285.916 538.983,286.749 541.5,289C 538.607,290.149 535.607,290.649 532.5,290.5C 532.5,291.5 532.5,292.5 532.5,293.5 Z"/></g>
<g><path style="opacity:1" fill="#151515" d="M 290.5,272.5 C 291.873,272.343 293.207,272.51 294.5,273C 296.743,275.488 298.743,278.154 300.5,281C 299.167,281.667 297.833,281.667 296.5,281C 294.112,278.371 292.112,275.538 290.5,272.5 Z"/></g>
<g><path style="opacity:1" fill="#161616" d="M 570.5,273.5 C 571.601,272.402 572.934,272.235 574.5,273C 577.07,275.067 579.07,277.567 580.5,280.5C 579.277,281.614 577.944,281.781 576.5,281C 574.636,278.312 572.636,275.812 570.5,273.5 Z"/></g>
<g><path style="opacity:1" fill="#0f0f0f" d="M 753.5,266.5 C 754.822,266.33 755.989,266.663 757,267.5C 757.667,269.833 757.667,272.167 757,274.5C 755.062,275.86 753.396,275.527 752,273.5C 750.328,285.344 748.828,285.344 747.5,273.5C 746.277,272.386 744.944,272.219 743.5,273C 741.752,277.294 741.085,281.794 741.5,286.5C 744.681,286.002 747.347,286.835 749.5,289C 746.487,289.502 743.487,290.002 740.5,290.5C 740.5,297.167 740.5,303.833 740.5,310.5C 739.178,310.67 738.011,310.337 737,309.5C 736.83,303.472 736.33,297.472 735.5,291.5C 734.137,292.879 733.137,292.713 732.5,291C 733.098,289.699 734.098,288.865 735.5,288.5C 736.227,283.258 737.727,278.258 740,273.5C 743.451,268.87 747.117,268.537 751,272.5C 751.655,270.372 752.489,268.372 753.5,266.5 Z"/></g>
<g><path style="opacity:1" fill="#131313" d="M 113.5,283.5 C 116.187,283.336 118.854,283.503 121.5,284C 122.701,284.903 123.535,286.069 124,287.5C 123.563,294.859 123.729,302.192 124.5,309.5C 121.14,310.21 119.307,308.876 119,305.5C 117.5,307 116,308.5 114.5,310C 106.607,311.023 104.44,307.857 108,300.5C 111.092,297.578 114.592,295.245 118.5,293.5C 119.952,290.718 119.619,288.218 117.5,286C 112.385,286.317 110.385,289.15 111.5,294.5C 110.167,294.5 108.833,294.5 107.5,294.5C 107.844,289.848 109.844,286.182 113.5,283.5 Z"/></g>
<g><path style="opacity:1" fill="#131313" d="M 185.5,283.5 C 188.187,283.336 190.854,283.503 193.5,284C 194.701,284.903 195.535,286.069 196,287.5C 195.563,294.859 195.729,302.192 196.5,309.5C 193.14,310.21 191.307,308.876 191,305.5C 189.5,307 188,308.5 186.5,310C 178.607,311.023 176.44,307.857 180,300.5C 183.092,297.578 186.592,295.245 190.5,293.5C 191.952,290.718 191.619,288.218 189.5,286C 184.385,286.317 182.385,289.15 183.5,294.5C 182.167,294.5 180.833,294.5 179.5,294.5C 179.844,289.848 181.844,286.182 185.5,283.5 Z"/></g>
<g><path style="opacity:1" fill="#131313" d="M 267.5,283.5 C 272.742,282.271 276.575,283.937 279,288.5C 278.836,295.476 278.669,302.476 278.5,309.5C 277.167,309.5 275.833,309.5 274.5,309.5C 274.762,308.022 274.429,306.689 273.5,305.5C 269.953,311.047 265.786,311.714 261,307.5C 260.365,305.365 260.699,303.365 262,301.5C 264.958,297.855 268.625,295.188 273,293.5C 274.297,289.825 273.297,287.158 270,285.5C 266.403,287.361 264.903,290.361 265.5,294.5C 264.5,294.5 263.5,294.5 262.5,294.5C 262.277,289.948 263.944,286.281 267.5,283.5 Z"/></g>
<g><path style="opacity:1" fill="#161616" d="M 339.5,283.5 C 345.302,282.006 349.136,284.006 351,289.5C 351.001,293.85 350.501,298.183 349.5,302.5C 349.753,304.858 350.086,307.192 350.5,309.5C 347.14,310.21 345.307,308.876 345,305.5C 342.543,310.186 338.877,311.519 334,309.5C 331.777,305.612 332.277,302.112 335.5,299C 338.166,296.665 341.166,294.831 344.5,293.5C 345.952,290.718 345.619,288.218 343.5,286C 340.702,285.439 338.869,286.606 338,289.5C 337.506,291.134 337.34,292.801 337.5,294.5C 335.365,294.853 334.032,294.02 333.5,292C 334.927,288.743 336.927,285.91 339.5,283.5 Z"/></g>
<g><path style="opacity:1" fill="#161616" d="M 391.5,283.5 C 392.833,283.5 394.167,283.5 395.5,283.5C 395.666,291.507 395.5,299.507 395,307.5C 393.286,308.925 391.953,308.592 391,306.5C 390.233,298.785 390.4,291.118 391.5,283.5 Z"/></g>
<g><path style="opacity:1" fill="#111111" d="M 548.5,283.5 C 552.954,282.617 556.454,283.95 559,287.5C 558.964,294.819 558.797,302.152 558.5,309.5C 555.612,309.78 554.112,308.447 554,305.5C 550.188,311.003 545.855,311.67 541,307.5C 541.991,300.324 546.158,295.658 553.5,293.5C 554.797,290.812 554.464,288.312 552.5,286C 551.167,285.333 549.833,285.333 548.5,286C 546.503,288.492 545.503,291.325 545.5,294.5C 544.5,294.5 543.5,294.5 542.5,294.5C 542.677,289.811 544.677,286.144 548.5,283.5 Z"/></g>
<g><path style="opacity:1" fill="#030303" d="M 592.5,283.5 C 593.5,283.5 594.5,283.5 595.5,283.5C 595.5,291.833 595.5,300.167 595.5,308.5C 594.178,308.67 593.011,308.337 592,307.5C 591.2,299.421 591.367,291.421 592.5,283.5 Z"/></g>
<g><path style="opacity:1" fill="#141414" d="M 751.5,283.5 C 752.833,283.5 754.167,283.5 755.5,283.5C 755.5,291.833 755.5,300.167 755.5,308.5C 753.61,308.703 752.11,308.037 751,306.5C 750.523,298.822 750.69,291.155 751.5,283.5 Z"/></g>
<g><path style="opacity:1" fill="#030303" d="M 762.5,283.5 C 763.5,283.5 764.5,283.5 765.5,283.5C 765.5,291.833 765.5,300.167 765.5,308.5C 764.178,308.67 763.011,308.337 762,307.5C 761.2,299.421 761.367,291.421 762.5,283.5 Z"/></g>
<g><path style="opacity:1" fill="#131313" d="M 140.5,284.5 C 148.486,284.12 149.319,286.12 143,290.5C 141.278,290.389 141.112,289.889 142.5,289C 138.965,288.93 135.965,290.263 133.5,293C 138.276,293.061 142.443,294.561 146,297.5C 147.221,302.97 145.054,306.47 139.5,308C 136.179,309.438 132.846,309.605 129.5,308.5C 127.702,304.887 128.535,302.22 132,300.5C 132.5,300.667 133,300.833 133.5,301C 129.692,305.311 130.692,306.311 136.5,304C 139.857,302.488 141.857,299.988 142.5,296.5C 125.87,296.164 125.204,292.164 140.5,284.5 Z"/></g>
<g><path style="opacity:1" fill="#0f0f0f" d="M 311.5,284.5 C 312.473,285.791 313.473,285.791 314.5,284.5C 315.325,288.122 315.825,291.789 316,295.5C 317.181,291.637 319.014,288.137 321.5,285C 324.025,284.104 326.192,284.604 328,286.5C 328.5,293.826 328.666,301.159 328.5,308.5C 326.549,308.773 325.049,308.107 324,306.5C 323.41,301.483 323.577,296.483 324.5,291.5C 324.564,289.611 324.064,287.944 323,286.5C 318.968,292.944 316.302,299.944 315,307.5C 313.644,308.38 312.144,308.714 310.5,308.5C 311.166,300.517 311.499,292.517 311.5,284.5 Z"/></g>
<g><path style="opacity:1" fill="#131313" d="M 356.5,283.5 C 357.496,283.414 358.329,283.748 359,284.5C 360.178,289.543 361.511,294.543 363,299.5C 365.513,293.798 368.513,288.465 372,283.5C 373.917,289.087 375.751,294.754 377.5,300.5C 380.833,294.833 384.167,289.167 387.5,283.5C 388.308,283.808 388.975,284.308 389.5,285C 385.627,292.579 381.627,300.079 377.5,307.5C 376.349,308.731 375.183,308.731 374,307.5C 372.98,302.087 371.647,296.754 370,291.5C 367.333,297.5 364.667,303.5 362,309.5C 361.333,308.833 360.667,308.167 360,307.5C 358.169,300.352 356.336,293.186 354.5,286C 355.056,284.989 355.722,284.156 356.5,283.5 Z"/></g>
<g><path style="opacity:1" fill="#141414" d="M 79.5,288.5 C 78.3709,290.628 78.2042,292.961 79,295.5C 79.5133,294.473 80.0133,293.473 80.5,292.5C 81.5071,287.986 84.1738,285.486 88.5,285C 89.9436,286.126 90.6102,287.626 90.5,289.5C 89.7325,292.154 89.5658,294.821 90,297.5C 91.5139,292.971 93.6806,288.805 96.5,285C 98.5672,284.464 100.401,284.964 102,286.5C 102.667,293.833 102.667,301.167 102,308.5C 99.9098,309.791 98.5764,309.124 98,306.5C 97.8451,300.439 97.6785,294.439 97.5,288.5C 93.1802,294.478 90.5136,301.144 89.5,308.5C 88.1667,308.5 86.8333,308.5 85.5,308.5C 87.3162,280.838 84.8162,280.505 78,307.5C 76.9887,308.337 75.8221,308.67 74.5,308.5C 74.3018,300.466 74.6351,292.466 75.5,284.5C 76.8333,284.5 78.1667,284.5 79.5,284.5C 79.5,285.833 79.5,287.167 79.5,288.5 Z"/></g>
<g><path style="opacity:1" fill="#171717" d="M 210.5,283.5 C 213.822,283.489 215.489,285.155 215.5,288.5C 213.367,295.116 211.701,294.783 210.5,287.5C 208.854,288.779 207.687,290.445 207,292.5C 206.501,298.157 206.334,303.824 206.5,309.5C 204.856,309.714 203.356,309.38 202,308.5C 201.353,300.811 201.52,293.144 202.5,285.5C 204.911,285.137 206.411,286.137 207,288.5C 207.997,286.677 209.164,285.01 210.5,283.5 Z"/></g>
<g><path style="opacity:1" fill="#161616" d="M 229.5,284.5 C 230.833,284.5 232.167,284.5 233.5,284.5C 233.336,287.187 233.503,289.854 234,292.5C 240.807,281.211 244.473,282.211 245,295.5C 246.181,291.637 248.014,288.137 250.5,285C 252.92,284.313 255.087,284.813 257,286.5C 256.585,293.202 256.752,299.869 257.5,306.5C 256.332,308.217 254.665,308.884 252.5,308.5C 252.83,301.8 252.497,295.134 251.5,288.5C 247.463,294.611 244.796,301.278 243.5,308.5C 242.167,308.5 240.833,308.5 239.5,308.5C 240.112,301.465 240.112,294.465 239.5,287.5C 235.336,293.486 232.836,300.152 232,307.5C 230.989,308.337 229.822,308.67 228.5,308.5C 228.302,300.466 228.635,292.466 229.5,284.5 Z"/></g>
<g><path style="opacity:1" fill="#f8f8f8" d="M 157.5,287.5 C 161.306,287.02 164.639,288.02 167.5,290.5C 168.904,289.001 169.57,289.334 169.5,291.5C 169.137,298.188 165.804,302.521 159.5,304.5C 157.617,304.124 156.117,303.124 155,301.5C 153.806,296.369 154.639,291.702 157.5,287.5 Z"/></g>
<g><path style="opacity:1" fill="#6f6f6f" d="M 79.5,288.5 C 79.2322,290.099 79.5655,291.432 80.5,292.5C 80.0133,293.473 79.5133,294.473 79,295.5C 78.2042,292.961 78.3709,290.628 79.5,288.5 Z"/></g>
<g><path style="opacity:1" fill="#ededed" d="M 116.5,297.5 C 117.5,297.5 118.5,297.5 119.5,297.5C 118.239,303.093 114.906,306.759 109.5,308.5C 110.066,303.699 112.4,300.032 116.5,297.5 Z"/></g>
<g><path style="opacity:1" fill="#ededed" d="M 188.5,297.5 C 189.5,297.5 190.5,297.5 191.5,297.5C 190.239,303.093 186.906,306.759 181.5,308.5C 182.066,303.699 184.4,300.032 188.5,297.5 Z"/></g>
<g><path style="opacity:1" fill="#e4e4e4" d="M 272.5,296.5 C 274.344,297.204 274.844,298.537 274,300.5C 272.285,302.759 270.452,304.926 268.5,307C 264,309.167 262.833,308 265,303.5C 267.396,300.933 269.896,298.6 272.5,296.5 Z"/></g>
<g><path style="opacity:1" fill="#ececec" d="M 343.5,297.5 C 345.344,298.204 345.844,299.537 345,301.5C 343.078,305.597 339.912,307.93 335.5,308.5C 336.574,303.748 339.24,300.081 343.5,297.5 Z"/></g>
<g><path style="opacity:1" fill="#ebebeb" d="M 553.5,296.5 C 554.124,296.917 554.457,297.584 554.5,298.5C 552.784,303.549 549.451,306.883 544.5,308.5C 544.372,306.345 544.872,304.345 546,302.5C 548.478,300.361 550.978,298.361 553.5,296.5 Z"/></g>
<g><path style="opacity:1" fill="#535353" d="M 525.5,292.5 C 526.209,291.596 527.209,291.263 528.5,291.5C 528.5,297.167 528.5,302.833 528.5,308.5C 528.144,302.923 527.144,297.59 525.5,292.5 Z"/></g>
<g><path style="opacity:1" fill="#505050" d="M 532.5,293.5 C 533.117,299.598 532.45,305.265 530.5,310.5C 531.126,304.732 531.793,299.066 532.5,293.5 Z"/></g>
<g><path style="opacity:1" fill="#303030" d="M 96.5,441.5 C 92.1363,443.619 89.803,442.119 89.5,437C 90.3392,432.466 92.8392,430.966 97,432.5C 97.2022,430.744 97.7022,429.078 98.5,427.5C 99.8333,432.5 99.8333,437.5 98.5,442.5C 97.8165,442.137 97.1499,441.804 96.5,441.5 Z"/></g>
<g><path style="opacity:1" fill="#202020" d="M 435.5,441.5 C 433.511,442.887 431.678,442.553 430,440.5C 429.333,438.167 429.333,435.833 430,433.5C 431.733,431.398 433.733,431.065 436,432.5C 436.202,430.744 436.702,429.078 437.5,427.5C 438.662,432.467 438.829,437.467 438,442.5C 437.329,441.748 436.496,441.414 435.5,441.5 Z"/></g>
<g><path style="opacity:1" fill="#303030" d="M 472.5,441.5 C 468.136,443.619 465.803,442.119 465.5,437C 466.339,432.466 468.839,430.966 473,432.5C 473.202,430.744 473.702,429.078 474.5,427.5C 475.833,432.5 475.833,437.5 474.5,442.5C 473.817,442.137 473.15,441.804 472.5,441.5 Z"/></g>
<g><path style="opacity:1" fill="#2e2e2e" d="M 159.5,428.5 C 161.496,427.312 162.329,427.979 162,430.5C 161.292,429.619 160.458,428.953 159.5,428.5 Z"/></g>
<g><path style="opacity:1" fill="#565656" d="M 264.5,433.5 C 263.596,434.209 263.263,435.209 263.5,436.5C 262.167,436.5 260.833,436.5 259.5,436.5C 260.398,435.842 261.398,435.176 262.5,434.5C 260.922,433.702 259.256,433.202 257.5,433C 260.094,430.894 262.427,431.06 264.5,433.5 Z"/></g>
<g><path style="opacity:1" fill="#565656" d="M 299.5,433.5 C 298.596,434.209 298.263,435.209 298.5,436.5C 297.167,436.5 295.833,436.5 294.5,436.5C 295.398,435.842 296.398,435.176 297.5,434.5C 295.922,433.702 294.256,433.202 292.5,433C 295.094,430.894 297.427,431.06 299.5,433.5 Z"/></g>
<g><path style="opacity:1" fill="#565656" d="M 355.5,433.5 C 354.596,434.209 354.263,435.209 354.5,436.5C 353.167,436.5 351.833,436.5 350.5,436.5C 351.398,435.842 352.398,435.176 353.5,434.5C 351.922,433.702 350.256,433.202 348.5,433C 351.094,430.894 353.427,431.06 355.5,433.5 Z"/></g>
<g><path style="opacity:1" fill="#0a0a0a" d="M 367.5,430.5 C 368.167,433.833 368.833,437.167 369.5,440.5C 370.263,441.268 371.263,441.768 372.5,442C 370.888,442.72 369.388,442.554 368,441.5C 367.501,437.848 367.335,434.182 367.5,430.5 Z"/></g>
<g><path style="opacity:1" fill="#565656" d="M 449.5,433.5 C 448.596,434.209 448.263,435.209 448.5,436.5C 447.167,436.5 445.833,436.5 444.5,436.5C 445.398,435.842 446.398,435.176 447.5,434.5C 445.922,433.702 444.256,433.202 442.5,433C 445.094,430.894 447.427,431.06 449.5,433.5 Z"/></g>
<g><path style="opacity:1" fill="#565656" d="M 520.5,433.5 C 519.596,434.209 519.263,435.209 519.5,436.5C 518.167,436.5 516.833,436.5 515.5,436.5C 516.398,435.842 517.398,435.176 518.5,434.5C 516.922,433.702 515.256,433.202 513.5,433C 516.094,430.894 518.427,431.06 520.5,433.5 Z"/></g>
<g><path style="opacity:1" fill="#272727" d="M 51.5,431.5 C 55.7736,431.807 60.1069,431.974 64.5,432C 66.6912,435.23 67.0245,438.73 65.5,442.5C 64.5159,439.572 64.1826,436.572 64.5,433.5C 62.8561,433.286 61.3561,433.62 60,434.5C 58.6498,444.868 57.8165,444.535 57.5,433.5C 55.8561,433.286 54.3561,433.62 53,434.5C 52.6667,437.167 52.3333,439.833 52,442.5C 51.5014,438.848 51.3347,435.182 51.5,431.5 Z"/></g>
<g><path style="opacity:1" fill="#787878" d="M 115.5,432.5 C 114.521,435.625 114.187,438.958 114.5,442.5C 113.192,438.981 113.192,435.315 114.5,431.5C 115.107,431.624 115.44,431.957 115.5,432.5 Z"/></g>
<g><path style="opacity:1" fill="#393939" d="M 116.5,433.5 C 117.14,431.668 118.14,431.335 119.5,432.5C 118.675,433.386 117.675,433.719 116.5,433.5 Z"/></g>
<g><path style="opacity:1" fill="#272727" d="M 127.5,431.5 C 131.774,431.807 136.107,431.974 140.5,432C 142.691,435.23 143.024,438.73 141.5,442.5C 140.516,439.572 140.183,436.572 140.5,433.5C 138.856,433.286 137.356,433.62 136,434.5C 134.65,444.868 133.816,444.535 133.5,433.5C 131.856,433.286 130.356,433.62 129,434.5C 128.667,437.167 128.333,439.833 128,442.5C 127.501,438.848 127.335,435.182 127.5,431.5 Z"/></g>
<g><path style="opacity:1" fill="#484848" d="M 207.5,431.5 C 208.787,432.871 209.453,434.705 209.5,437C 209.167,438.833 208.833,440.667 208.5,442.5C 207.511,438.893 207.177,435.226 207.5,431.5 Z"/></g>
<g><path style="opacity:1" fill="#292929" d="M 238.5,431.5 C 243.07,431.958 247.737,432.124 252.5,432C 253.622,435.409 253.789,438.909 253,442.5C 252.782,439.574 252.282,436.74 251.5,434C 249.888,433.28 248.388,433.446 247,434.5C 246.333,445.167 245.667,445.167 245,434.5C 243.644,433.62 242.144,433.286 240.5,433.5C 240.817,436.572 240.484,439.572 239.5,442.5C 238.511,438.893 238.177,435.226 238.5,431.5 Z"/></g>
<g><path style="opacity:1" fill="#272727" d="M 273.5,431.5 C 277.774,431.807 282.107,431.974 286.5,432C 288.691,435.23 289.024,438.73 287.5,442.5C 286.516,439.572 286.183,436.572 286.5,433.5C 284.856,433.286 283.356,433.62 282,434.5C 280.65,444.868 279.816,444.535 279.5,433.5C 277.856,433.286 276.356,433.62 275,434.5C 274.667,437.167 274.333,439.833 274,442.5C 273.501,438.848 273.335,435.182 273.5,431.5 Z"/></g>
<g><path style="opacity:1" fill="#1b1b1b" d="M 359.5,431.5 C 360.222,431.918 360.722,432.584 361,433.5C 362.133,431.789 363.633,431.289 365.5,432C 361.176,434.09 359.343,437.59 360,442.5C 359.501,438.848 359.335,435.182 359.5,431.5 Z"/></g>
<g><path style="opacity:1" fill="#636363" d="M 367.5,430.5 C 367.56,429.957 367.893,429.624 368.5,429.5C 369.5,430.5 370.5,431.5 371.5,432.5C 369.777,434.868 369.11,437.534 369.5,440.5C 368.833,437.167 368.167,433.833 367.5,430.5 Z"/></g>
<g><path style="opacity:1" fill="#484848" d="M 374.5,431.5 C 375.787,432.871 376.453,434.705 376.5,437C 376.167,438.833 375.833,440.667 375.5,442.5C 374.511,438.893 374.177,435.226 374.5,431.5 Z"/></g>
<g><path style="opacity:1" fill="#292929" d="M 390.5,431.5 C 395.07,431.958 399.737,432.124 404.5,432C 405.622,435.409 405.789,438.909 405,442.5C 404.782,439.574 404.282,436.74 403.5,434C 401.888,433.28 400.388,433.446 399,434.5C 398.333,445.167 397.667,445.167 397,434.5C 395.644,433.62 394.144,433.286 392.5,433.5C 392.817,436.572 392.484,439.572 391.5,442.5C 390.511,438.893 390.177,435.226 390.5,431.5 Z"/></g>
<g><path style="opacity:1" fill="#787878" d="M 454.5,432.5 C 453.521,435.625 453.187,438.958 453.5,442.5C 452.192,438.981 452.192,435.315 453.5,431.5C 454.107,431.624 454.44,431.957 454.5,432.5 Z"/></g>
<g><path style="opacity:1" fill="#393939" d="M 455.5,433.5 C 456.14,431.668 457.14,431.335 458.5,432.5C 457.675,433.386 456.675,433.719 455.5,433.5 Z"/></g>
<g><path style="opacity:1" fill="#3b3b3b" d="M 489.5,431.5 C 492.068,431.573 494.734,431.906 497.5,432.5C 498.833,435.833 498.833,439.167 497.5,442.5C 496.516,439.572 496.183,436.572 496.5,433.5C 494.856,433.286 493.356,433.62 492,434.5C 491.818,437.226 491.318,439.893 490.5,442.5C 489.511,438.893 489.177,435.226 489.5,431.5 Z"/></g>
<g><path style="opacity:1" fill="#242424" d="M 524.5,431.5 C 526.081,432.579 527.747,432.579 529.5,431.5C 531.029,431.529 532.196,432.196 533,433.5C 533.821,436.554 533.655,439.554 532.5,442.5C 531.516,439.572 531.183,436.572 531.5,433.5C 529.533,433.261 527.699,433.594 526,434.5C 525.667,437.167 525.333,439.833 525,442.5C 524.501,438.848 524.335,435.182 524.5,431.5 Z"/></g>
<g><path style="opacity:1" fill="#efefef" d="M 96.5,441.5 C 91.7418,440.978 90.4085,438.478 92.5,434C 94.1124,433.28 95.6124,433.446 97,434.5C 97.7033,436.929 97.5366,439.262 96.5,441.5 Z"/></g>
<g><path style="opacity:1" fill="#030303" d="M 115.5,432.5 C 115.5,433.167 115.833,433.5 116.5,433.5C 115.912,436.61 115.245,439.61 114.5,442.5C 114.187,438.958 114.521,435.625 115.5,432.5 Z"/></g>
<g><path style="opacity:1" fill="#2c2c2c" d="M 190.5,431.5 C 192.556,433.24 193.889,435.573 194.5,438.5C 195.575,436.098 196.742,433.764 198,431.5C 199.61,433.597 200.777,435.93 201.5,438.5C 202.35,436.096 203.35,433.763 204.5,431.5C 204.833,432 205.167,432.5 205.5,433C 204.164,435.678 203.33,438.511 203,441.5C 202.586,441.957 202.086,442.291 201.5,442.5C 200.063,439.959 198.897,437.292 198,434.5C 197.305,436.722 196.472,438.889 195.5,441C 195.15,442.257 194.483,442.591 193.5,442C 192.563,438.484 191.563,434.984 190.5,431.5 Z"/></g>
<g><path style="opacity:1" fill="#2d2d2d" d="M 343.5,428.5 C 344.239,428.369 344.906,428.536 345.5,429C 342.833,434.333 342.833,439.667 345.5,445C 345.167,445.167 344.833,445.333 344.5,445.5C 340.916,440.004 340.583,434.337 343.5,428.5 Z"/></g>
<g><path style="opacity:1" fill="#eaeaea" d="M 435.5,441.5 C 430.738,440.908 429.404,438.408 431.5,434C 433.134,433.506 434.801,433.34 436.5,433.5C 436.721,436.279 436.388,438.946 435.5,441.5 Z"/></g>
<g><path style="opacity:1" fill="#030303" d="M 454.5,432.5 C 454.5,433.167 454.833,433.5 455.5,433.5C 454.912,436.61 454.245,439.61 453.5,442.5C 453.187,438.958 453.521,435.625 454.5,432.5 Z"/></g>
<g><path style="opacity:1" fill="#efefef" d="M 472.5,441.5 C 467.742,440.978 466.408,438.478 468.5,434C 470.112,433.28 471.612,433.446 473,434.5C 473.703,436.929 473.537,439.262 472.5,441.5 Z"/></g>
<g><path style="opacity:1" fill="#202020" d="M 74.5,441.5 C 70.0143,443.177 68.681,441.677 70.5,437C 72.1341,436.506 73.8008,436.34 75.5,436.5C 75.5,435.5 75.5,434.5 75.5,433.5C 73.8008,433.66 72.1341,433.494 70.5,433C 72.8091,430.949 74.9757,431.116 77,433.5C 77.6667,436.5 77.6667,439.5 77,442.5C 76.3292,441.748 75.4959,441.414 74.5,441.5 Z"/></g>
<g><path style="opacity:1" fill="#202020" d="M 107.5,441.5 C 103.014,443.177 101.681,441.677 103.5,437C 105.134,436.506 106.801,436.34 108.5,436.5C 108.5,435.5 108.5,434.5 108.5,433.5C 106.801,433.66 105.134,433.494 103.5,433C 105.809,430.949 107.976,431.116 110,433.5C 110.667,436.5 110.667,439.5 110,442.5C 109.329,441.748 108.496,441.414 107.5,441.5 Z"/></g>
<g><path style="opacity:1" fill="#202020" d="M 150.5,441.5 C 146.014,443.177 144.681,441.677 146.5,437C 148.134,436.506 149.801,436.34 151.5,436.5C 151.5,435.5 151.5,434.5 151.5,433.5C 149.801,433.66 148.134,433.494 146.5,433C 148.809,430.949 150.976,431.116 153,433.5C 153.667,436.5 153.667,439.5 153,442.5C 152.329,441.748 151.496,441.414 150.5,441.5 Z"/></g>
<g><path style="opacity:1" fill="#2b2b2b" d="M 168.5,431.5 C 170.081,432.579 171.747,432.579 173.5,431.5C 175.029,431.529 176.196,432.196 177,433.5C 177.821,436.554 177.655,439.554 176.5,442.5C 175.516,439.572 175.183,436.572 175.5,433.5C 173.833,433.5 172.167,433.5 170.5,433.5C 170.817,436.572 170.484,439.572 169.5,442.5C 168.511,438.893 168.177,435.226 168.5,431.5 Z"/></g>
<g><path style="opacity:1" fill="#202020" d="M 185.5,441.5 C 181.014,443.177 179.681,441.677 181.5,437C 183.134,436.506 184.801,436.34 186.5,436.5C 186.5,435.5 186.5,434.5 186.5,433.5C 184.801,433.66 183.134,433.494 181.5,433C 183.809,430.949 185.976,431.116 188,433.5C 188.667,436.5 188.667,439.5 188,442.5C 187.329,441.748 186.496,441.414 185.5,441.5 Z"/></g>
<g><path style="opacity:1" fill="#2b2b2b" d="M 313.5,431.5 C 315.081,432.579 316.747,432.579 318.5,431.5C 320.029,431.529 321.196,432.196 322,433.5C 322.821,436.554 322.655,439.554 321.5,442.5C 320.516,439.572 320.183,436.572 320.5,433.5C 318.833,433.5 317.167,433.5 315.5,433.5C 315.817,436.572 315.484,439.572 314.5,442.5C 313.511,438.893 313.177,435.226 313.5,431.5 Z"/></g>
<g><path style="opacity:1" fill="#202020" d="M 330.5,441.5 C 326.014,443.177 324.681,441.677 326.5,437C 328.134,436.506 329.801,436.34 331.5,436.5C 331.5,435.5 331.5,434.5 331.5,433.5C 329.801,433.66 328.134,433.494 326.5,433C 328.809,430.949 330.976,431.116 333,433.5C 333.667,436.5 333.667,439.5 333,442.5C 332.329,441.748 331.496,441.414 330.5,441.5 Z"/></g>
<g><path style="opacity:1" fill="#393939" d="M 421.5,439.5 C 422.242,437.574 423.242,435.741 424.5,434C 422.744,433.798 421.078,433.298 419.5,432.5C 421.743,431.526 424.076,431.192 426.5,431.5C 425.849,434.803 424.182,437.47 421.5,439.5 Z"/></g>
<g><path style="opacity:1" fill="#353535" d="M 302.5,427.5 C 304.237,430.008 305.07,433.008 305,436.5C 306.667,434.833 308.333,433.167 310,431.5C 309.973,433.417 309.139,435.084 307.5,436.5C 308.253,438.753 309.586,440.587 311.5,442C 308.899,441.599 306.899,440.099 305.5,437.5C 304.833,439.167 304.167,440.833 303.5,442.5C 302.506,437.544 302.173,432.544 302.5,427.5 Z"/></g>
<g><path style="opacity:1" fill="#353535" d="M 502.5,442.5 C 502.319,439.447 502.152,436.447 502,433.5C 504.497,431.522 507.331,431.022 510.5,432C 509.751,433.734 509.251,435.567 509,437.5C 501.577,439.597 501.744,440.764 509.5,441C 510.799,446.689 508.466,448.689 502.5,447C 499.894,445.35 499.894,443.85 502.5,442.5 Z"/></g>
<g><path style="opacity:1" fill="#eeeeee" d="M 504.5,432.5 C 507.084,433.048 508.084,434.715 507.5,437.5C 503.716,437.475 502.716,435.808 504.5,432.5 Z"/></g>
<g><path style="opacity:1" fill="#242424" d="M 81.5,431.5 C 88.6619,431.613 88.9952,432.613 82.5,434.5C 83.4363,435.974 84.7697,436.974 86.5,437.5C 87.7472,439.006 87.7472,440.506 86.5,442C 84.4213,442.808 82.4213,442.641 80.5,441.5C 81.9091,441.346 83.5758,441.179 85.5,441C 85.9574,440.586 86.2907,440.086 86.5,439.5C 84.9991,438.248 83.3325,437.248 81.5,436.5C 80.3336,434.833 80.3336,433.166 81.5,431.5 Z"/></g>
<g><path style="opacity:1" fill="#2d2d2d" d="M 218.5,431.5 C 226.377,432.381 226.377,433.381 218.5,434.5C 220.95,435.711 222.95,437.378 224.5,439.5C 224.392,440.442 224.059,441.275 223.5,442C 221.421,442.808 219.421,442.641 217.5,441.5C 218.887,441.193 220.554,441.193 222.5,441.5C 222.594,438.459 221.094,436.793 218,436.5C 217.36,434.735 217.527,433.068 218.5,431.5 Z"/></g>
<g><path style="opacity:1" fill="#e9e9e9" d="M 74.5,441.5 C 71.306,441.824 70.306,440.658 71.5,438C 72.7932,437.51 74.1266,437.343 75.5,437.5C 75.5674,438.959 75.2341,440.292 74.5,441.5 Z"/></g>
<g><path style="opacity:1" fill="#e9e9e9" d="M 107.5,441.5 C 104.306,441.824 103.306,440.658 104.5,438C 105.793,437.51 107.127,437.343 108.5,437.5C 108.567,438.959 108.234,440.292 107.5,441.5 Z"/></g>
<g><path style="opacity:1" fill="#e9e9e9" d="M 150.5,441.5 C 147.306,441.824 146.306,440.658 147.5,438C 148.793,437.51 150.127,437.343 151.5,437.5C 151.567,438.959 151.234,440.292 150.5,441.5 Z"/></g>
<g><path style="opacity:1" fill="#e9e9e9" d="M 185.5,441.5 C 182.306,441.824 181.306,440.658 182.5,438C 183.793,437.51 185.127,437.343 186.5,437.5C 186.567,438.959 186.234,440.292 185.5,441.5 Z"/></g>
<g><path style="opacity:1" fill="#1f1f1f" d="M 264.5,433.5 C 264.665,436.518 264.498,439.518 264,442.5C 261.766,442.626 259.432,442.293 257,441.5C 255.923,438.738 256.756,437.072 259.5,436.5C 260.833,436.5 262.167,436.5 263.5,436.5C 263.263,435.209 263.596,434.209 264.5,433.5 Z"/></g>
<g><path style="opacity:1" fill="#e2e2e2" d="M 258.5,437.5 C 259.833,437.5 261.167,437.5 262.5,437.5C 262.114,441.738 260.448,442.404 257.5,439.5C 257.863,438.817 258.196,438.15 258.5,437.5 Z"/></g>
<g><path style="opacity:1" fill="#1f1f1f" d="M 299.5,433.5 C 299.665,436.518 299.498,439.518 299,442.5C 296.766,442.626 294.432,442.293 292,441.5C 290.923,438.738 291.756,437.072 294.5,436.5C 295.833,436.5 297.167,436.5 298.5,436.5C 298.263,435.209 298.596,434.209 299.5,433.5 Z"/></g>
<g><path style="opacity:1" fill="#e2e2e2" d="M 293.5,437.5 C 294.833,437.5 296.167,437.5 297.5,437.5C 297.114,441.738 295.448,442.404 292.5,439.5C 292.863,438.817 293.196,438.15 293.5,437.5 Z"/></g>
<g><path style="opacity:1" fill="#e9e9e9" d="M 330.5,441.5 C 327.306,441.824 326.306,440.658 327.5,438C 328.793,437.51 330.127,437.343 331.5,437.5C 331.567,438.959 331.234,440.292 330.5,441.5 Z"/></g>
<g><path style="opacity:1" fill="#1f1f1f" d="M 355.5,433.5 C 355.665,436.518 355.498,439.518 355,442.5C 352.766,442.626 350.432,442.293 348,441.5C 346.923,438.738 347.756,437.072 350.5,436.5C 351.833,436.5 353.167,436.5 354.5,436.5C 354.263,435.209 354.596,434.209 355.5,433.5 Z"/></g>
<g><path style="opacity:1" fill="#e2e2e2" d="M 349.5,437.5 C 350.833,437.5 352.167,437.5 353.5,437.5C 353.114,441.738 351.448,442.404 348.5,439.5C 348.863,438.817 349.196,438.15 349.5,437.5 Z"/></g>
<g><path style="opacity:1" fill="#1f1f1f" d="M 449.5,433.5 C 449.665,436.518 449.498,439.518 449,442.5C 446.766,442.626 444.432,442.293 442,441.5C 440.923,438.738 441.756,437.072 444.5,436.5C 445.833,436.5 447.167,436.5 448.5,436.5C 448.263,435.209 448.596,434.209 449.5,433.5 Z"/></g>
<g><path style="opacity:1" fill="#e2e2e2" d="M 443.5,437.5 C 444.833,437.5 446.167,437.5 447.5,437.5C 447.114,441.738 445.448,442.404 442.5,439.5C 442.863,438.817 443.196,438.15 443.5,437.5 Z"/></g>
<g><path style="opacity:1" fill="#1f1f1f" d="M 520.5,433.5 C 520.665,436.518 520.498,439.518 520,442.5C 517.766,442.626 515.432,442.293 513,441.5C 511.923,438.738 512.756,437.072 515.5,436.5C 516.833,436.5 518.167,436.5 519.5,436.5C 519.263,435.209 519.596,434.209 520.5,433.5 Z"/></g>
<g><path style="opacity:1" fill="#e2e2e2" d="M 514.5,437.5 C 515.833,437.5 517.167,437.5 518.5,437.5C 518.114,441.738 516.448,442.404 513.5,439.5C 513.863,438.817 514.196,438.15 514.5,437.5 Z"/></g>
<g><path style="opacity:1" fill="#323232" d="M 228.5,431.5 C 233.578,430.745 235.911,432.912 235.5,438C 235.167,439.5 234.833,441 234.5,442.5C 232.328,442.324 229.995,442.157 227.5,442C 226.167,440.333 226.167,438.667 227.5,437C 229.473,436.505 231.473,436.338 233.5,436.5C 233.5,435.5 233.5,434.5 233.5,433.5C 231.473,433.662 229.473,433.495 227.5,433C 228.056,432.617 228.389,432.117 228.5,431.5 Z"/></g>
<g><path style="opacity:1" fill="#e9e9e9" d="M 228.5,437.5 C 230.288,437.215 231.955,437.548 233.5,438.5C 232.579,440.756 230.912,441.756 228.5,441.5C 228.5,440.167 228.5,438.833 228.5,437.5 Z"/></g>
<g><path style="opacity:1" fill="#323232" d="M 410.5,431.5 C 415.578,430.745 417.911,432.912 417.5,438C 417.167,439.5 416.833,441 416.5,442.5C 414.328,442.324 411.995,442.157 409.5,442C 408.167,440.333 408.167,438.667 409.5,437C 411.473,436.505 413.473,436.338 415.5,436.5C 415.5,435.5 415.5,434.5 415.5,433.5C 413.473,433.662 411.473,433.495 409.5,433C 410.056,432.617 410.389,432.117 410.5,431.5 Z"/></g>
<g><path style="opacity:1" fill="#e9e9e9" d="M 410.5,437.5 C 412.288,437.215 413.955,437.548 415.5,438.5C 414.579,440.756 412.912,441.756 410.5,441.5C 410.5,440.167 410.5,438.833 410.5,437.5 Z"/></g>
<g><path style="opacity:1" fill="#3c3c3c" d="M 378.5,429.5 C 379.189,428.226 380.023,428.226 381,429.5C 382.534,433.711 382.867,438.044 382,442.5C 381.576,444.615 380.409,445.448 378.5,445C 379.998,442.583 380.665,439.917 380.5,437C 380.7,434.134 380.033,431.634 378.5,429.5 Z"/></g>
<g><path style="opacity:1" fill="#121212" d="M 421.5,439.5 C 422.949,441.164 424.949,441.998 427.5,442C 424.773,442.818 422.106,442.652 419.5,441.5C 419.855,440.478 420.522,439.811 421.5,439.5 Z"/></g>
<g><path style="opacity:1" fill="#1e1e1e" d="M 480.5,431.5 C 485.017,431.02 487.35,433.02 487.5,437.5C 485.167,437.5 482.833,437.5 480.5,437.5C 480.33,438.822 480.663,439.989 481.5,441C 483.424,441.179 485.091,441.346 486.5,441.5C 479.525,443.356 477.025,440.689 479,433.5C 479.717,432.956 480.217,432.289 480.5,431.5 Z"/></g>
<g><path style="opacity:1" fill="#d4d4d4" d="M 480.5,433.5 C 482.665,433.116 484.332,433.783 485.5,435.5C 483.5,436.833 481.5,436.833 479.5,435.5C 479.863,434.817 480.196,434.15 480.5,433.5 Z"/></g>
<g><path style="opacity:1" fill="#eeeeee" d="M 502.5,442.5 C 504.924,442.192 507.257,442.526 509.5,443.5C 509.291,444.086 508.957,444.586 508.5,445C 506.527,445.495 504.527,445.662 502.5,445.5C 502.5,444.5 502.5,443.5 502.5,442.5 Z"/></g>
<g><path style="opacity:1" fill="#323232" d="M 132.5,455.5 C 133.773,456.077 133.773,456.743 132.5,457.5C 131.537,457.03 131.537,456.363 132.5,455.5 Z"/></g>
<g><path style="opacity:1" fill="#1b1b1b" d="M 122.5,457.5 C 121.515,461.634 121.182,465.968 121.5,470.5C 120.999,467.105 119.999,463.772 118.5,460.5C 119.816,459.193 120.816,457.693 121.5,456C 122.833,455.333 124.167,455.333 125.5,456C 124.263,456.232 123.263,456.732 122.5,457.5 Z"/></g>
<g><path style="opacity:1" fill="#272727" d="M 51.5,459.5 C 55.7736,459.807 60.1069,459.974 64.5,460C 66.6912,463.23 67.0245,466.73 65.5,470.5C 64.5159,467.572 64.1826,464.572 64.5,461.5C 62.8561,461.286 61.3561,461.62 60,462.5C 58.6498,472.868 57.8165,472.535 57.5,461.5C 55.8561,461.286 54.3561,461.62 53,462.5C 52.6667,465.167 52.3333,467.833 52,470.5C 51.5014,466.848 51.3347,463.182 51.5,459.5 Z"/></g>
<g><path style="opacity:1" fill="#2e2e2e" d="M 126.5,459.5 C 127.787,460.871 128.453,462.705 128.5,465C 128.167,466.833 127.833,468.667 127.5,470.5C 126.511,466.893 126.177,463.226 126.5,459.5 Z"/></g>
<g><path style="opacity:1" fill="#505050" d="M 131.5,459.5 C 132.787,460.871 133.453,462.705 133.5,465C 133.167,466.833 132.833,468.667 132.5,470.5C 131.511,466.893 131.177,463.226 131.5,459.5 Z"/></g>
<g><path style="opacity:1" fill="#242424" d="M 147.5,459.5 C 149.081,460.579 150.747,460.579 152.5,459.5C 154.029,459.529 155.196,460.196 156,461.5C 156.821,464.554 156.655,467.554 155.5,470.5C 154.516,467.572 154.183,464.572 154.5,461.5C 152.533,461.261 150.699,461.594 149,462.5C 148.667,465.167 148.333,467.833 148,470.5C 147.501,466.848 147.335,463.182 147.5,459.5 Z"/></g>
<g><path style="opacity:1" fill="#626262" d="M 122.5,457.5 C 122.721,458.735 123.388,459.735 124.5,460.5C 123.001,463.772 122.001,467.105 121.5,470.5C 121.182,465.968 121.515,461.634 122.5,457.5 Z"/></g>
<g><path style="opacity:1" fill="#202020" d="M 74.5,469.5 C 70.0143,471.177 68.681,469.677 70.5,465C 72.1341,464.506 73.8008,464.34 75.5,464.5C 75.5,463.5 75.5,462.5 75.5,461.5C 73.8008,461.66 72.1341,461.494 70.5,461C 72.8091,458.949 74.9757,459.116 77,461.5C 77.6667,464.5 77.6667,467.5 77,470.5C 76.3292,469.748 75.4959,469.414 74.5,469.5 Z"/></g>
<g><path style="opacity:1" fill="#2b2b2b" d="M 91.5,459.5 C 93.0806,460.579 94.7473,460.579 96.5,459.5C 98.0293,459.529 99.196,460.196 100,461.5C 100.821,464.554 100.655,467.554 99.5,470.5C 98.5159,467.572 98.1826,464.572 98.5,461.5C 96.8333,461.5 95.1667,461.5 93.5,461.5C 93.8174,464.572 93.4841,467.572 92.5,470.5C 91.5108,466.893 91.1774,463.226 91.5,459.5 Z"/></g>
<g><path style="opacity:1" fill="#202020" d="M 108.5,469.5 C 104.014,471.177 102.681,469.677 104.5,465C 106.134,464.506 107.801,464.34 109.5,464.5C 109.5,463.5 109.5,462.5 109.5,461.5C 107.801,461.66 106.134,461.494 104.5,461C 106.809,458.949 108.976,459.116 111,461.5C 111.667,464.5 111.667,467.5 111,470.5C 110.329,469.748 109.496,469.414 108.5,469.5 Z"/></g>
<g><path style="opacity:1" fill="#353535" d="M 80.5,455.5 C 82.2371,458.008 83.0704,461.008 83,464.5C 84.6667,462.833 86.3333,461.167 88,459.5C 87.9725,461.417 87.1392,463.084 85.5,464.5C 86.2531,466.753 87.5864,468.587 89.5,470C 86.899,469.599 84.899,468.099 83.5,465.5C 82.8333,467.167 82.1667,468.833 81.5,470.5C 80.5059,465.544 80.1725,460.544 80.5,455.5 Z"/></g>
<g><path style="opacity:1" fill="#e9e9e9" d="M 74.5,469.5 C 71.306,469.824 70.306,468.658 71.5,466C 72.7932,465.51 74.1266,465.343 75.5,465.5C 75.5674,466.959 75.2341,468.292 74.5,469.5 Z"/></g>
<g><path style="opacity:1" fill="#e9e9e9" d="M 108.5,469.5 C 105.306,469.824 104.306,468.658 105.5,466C 106.793,465.51 108.127,465.343 109.5,465.5C 109.567,466.959 109.234,468.292 108.5,469.5 Z"/></g>
<g><path style="opacity:1" fill="#252525" d="M 174.5,469.5 C 173.054,470.613 171.387,470.78 169.5,470C 168.521,465.483 170.521,463.65 175.5,464.5C 175.5,463.5 175.5,462.5 175.5,461.5C 173.712,461.785 172.045,461.452 170.5,460.5C 172.949,459.09 175.116,459.424 177,461.5C 177.821,464.554 177.655,467.554 176.5,470.5C 175.817,470.137 175.15,469.804 174.5,469.5 Z"/></g>
<g><path style="opacity:1" fill="#e6e6e6" d="M 174.5,469.5 C 173.167,469.5 171.833,469.5 170.5,469.5C 170.384,466.09 172.05,464.756 175.5,465.5C 175.567,466.959 175.234,468.292 174.5,469.5 Z"/></g>
<g><path style="opacity:1" fill="#272727" d="M 158.5,459.5 C 160.453,462.141 161.953,465.141 163,468.5C 163.875,465.372 165.042,462.372 166.5,459.5C 166.193,464.613 164.693,469.613 162,474.5C 160.506,475.747 159.006,475.747 157.5,474.5C 160.068,474.048 161.401,472.548 161.5,470C 160.194,466.583 159.194,463.083 158.5,459.5 Z"/></g>
</svg>
