<?xml version="1.0" encoding="UTF-8"?>
<!DOCTYPE svg PUBLIC "-//W3C//DTD SVG 1.1//EN" "http://www.w3.org/Graphics/SVG/1.1/DTD/svg11.dtd">
<svg xmlns="http://www.w3.org/2000/svg" version="1.1" width="1000px" height="500px" style="shape-rendering:geometricPrecision; text-rendering:geometricPrecision; image-rendering:optimizeQuality; fill-rule:evenodd; clip-rule:evenodd" xmlns:xlink="http://www.w3.org/1999/xlink">
<g><path style="opacity:1" fill="#fefefe" d="M -0.5,-0.5 C 332.833,-0.5 666.167,-0.5 999.5,-0.5C 999.5,166.167 999.5,332.833 999.5,499.5C 666.167,499.5 332.833,499.5 -0.5,499.5C -0.5,332.833 -0.5,166.167 -0.5,-0.5 Z"/></g>
<g><path style="opacity:1" fill="#111111" d="M 397.5,57.5 C 398.572,59.9358 397.905,62.1025 395.5,64C 388.709,67.2985 382.042,70.7985 375.5,74.5C 374.884,71.876 375.884,69.7093 378.5,68C 385.217,64.9795 391.551,61.4795 397.5,57.5 Z"/></g>
<g><path style="opacity:1" fill="#141414" d="M 585.5,59.5 C 596.57,61.3118 599.404,67.3118 594,77.5C 585.363,84.2125 580.196,82.2125 578.5,71.5C 578.8,66.2234 581.133,62.2234 585.5,59.5 Z"/></g>
<g><path style="opacity:1" fill="#f3f3f3" d="M 582.5,65.5 C 588.51,64.5606 592.01,66.8939 593,72.5C 584.571,76.5672 581.071,74.2339 582.5,65.5 Z"/></g>
<g><path style="opacity:1" fill="#121212" d="M 395.5,69.5 C 398.872,70.5697 398.872,72.4031 395.5,75C 388.991,78.7549 382.324,82.2549 375.5,85.5C 374.884,82.876 375.884,80.7093 378.5,79C 384.552,76.3126 390.219,73.1459 395.5,69.5 Z"/></g>
<g><path style="opacity:1" fill="#141414" d="M 456.5,72.5 C 457.376,72.3691 458.043,72.7025 458.5,73.5C 457.752,75.3325 456.752,76.9991 455.5,78.5C 448.833,82.1667 442.167,85.8333 435.5,89.5C 434.152,87.3886 434.485,85.5553 436.5,84C 443.393,80.3924 450.059,76.5591 456.5,72.5 Z"/></g>
<g><path style="opacity:1" fill="#121212" d="M 652.5,73.5 C 655.872,74.5697 655.872,76.4031 652.5,79C 645.991,82.7549 639.324,86.2549 632.5,89.5C 631.884,86.876 632.884,84.7093 635.5,83C 641.552,80.3126 647.219,77.1459 652.5,73.5 Z"/></g>
<g><path style="opacity:1" fill="#0d0d0d" d="M 562.5,76.5 C 565.044,76.1043 567.211,76.771 569,78.5C 569.671,82.6357 569.171,86.6357 567.5,90.5C 569.031,91.6131 570.031,93.1131 570.5,95C 569.326,99.0015 567.16,99.5015 564,96.5C 561.5,99 559,101.5 556.5,104C 553.634,105.457 550.634,105.79 547.5,105C 552.39,102.046 556.723,98.3792 560.5,94C 555.834,89.9944 555.334,85.4944 559,80.5C 560.376,79.2949 561.542,77.9616 562.5,76.5 Z"/></g>
<g><path style="opacity:1" fill="#101010" d="M 528.5,77.5 C 530.527,77.3379 532.527,77.5045 534.5,78C 536.97,82.253 536.97,86.5863 534.5,91C 535.477,92.497 536.477,93.997 537.5,95.5C 537.32,96.5539 536.987,97.5539 536.5,98.5C 534.219,99.1847 531.886,99.3513 529.5,99C 525.512,104.707 520.179,107.04 513.5,106C 518.53,102.816 523.196,99.149 527.5,95C 523.788,92.3981 522.622,88.8981 524,84.5C 525.511,82.1384 527.011,79.8051 528.5,77.5 Z"/></g>
<g><path style="opacity:1" fill="#121212" d="M 419.5,80.5 C 425.839,81.0016 429.506,84.5016 430.5,91C 429.333,97.5 425.5,101.333 419,102.5C 413.953,100.926 411.787,97.4258 412.5,92C 412.43,86.6289 414.764,82.7955 419.5,80.5 Z"/></g>
<g><path style="opacity:1" fill="#dbdbdb" d="M 560.5,82.5 C 564.225,82.7796 565.392,84.7796 564,88.5C 561.735,87.0842 560.569,85.0842 560.5,82.5 Z"/></g>
<g><path style="opacity:1" fill="#e1e1e1" d="M 527.5,83.5 C 531.225,83.7796 532.392,85.7796 531,89.5C 528.735,88.0842 527.569,86.0842 527.5,83.5 Z"/></g>
<g><path style="opacity:1" fill="#f4f4f4" d="M 416.5,86.5 C 422.172,85.883 425.339,88.2163 426,93.5C 422.621,95.923 419.121,96.0897 415.5,94C 414.083,91.2565 414.416,88.7565 416.5,86.5 Z"/></g>
<g><path style="opacity:1" fill="#131313" d="M 628.5,89.5 C 629.376,89.3691 630.043,89.7025 630.5,90.5C 629.627,92.4134 628.627,94.2467 627.5,96C 620.676,99.2451 614.009,102.745 607.5,106.5C 606.422,104.525 606.755,102.692 608.5,101C 615.393,97.3924 622.059,93.5591 628.5,89.5 Z"/></g>
<g><path style="opacity:1" fill="#0d0d0d" d="M 589.5,90.5 C 590.805,92.3972 591.471,94.7305 591.5,97.5C 592.669,113.533 594.169,129.533 596,145.5C 597.61,157.122 604.11,160.955 615.5,157C 619.593,155.075 622.926,152.242 625.5,148.5C 626.429,151.525 627.762,154.358 629.5,157C 638.157,158.336 646.49,157.336 654.5,154C 660.122,151.671 660.788,148.504 656.5,144.5C 653.711,149.894 649.378,152.061 643.5,151C 641.667,150.5 640.5,149.333 640,147.5C 638.827,140.347 640.16,133.681 644,127.5C 647.569,122.34 651.236,122.34 655,127.5C 668.896,151.152 662.229,164.485 635,167.5C 628.875,168.044 624.875,165.377 623,159.5C 616.678,167.039 608.845,169.206 599.5,166C 595.523,162.754 593.023,158.587 592,153.5C 590.601,156.629 588.935,159.629 587,162.5C 582.811,167.088 577.645,168.588 571.5,167C 568.527,165.235 566.36,162.735 565,159.5C 558.902,167.11 551.068,169.61 541.5,167C 540.333,165.833 539.167,164.667 538,163.5C 536.646,159.727 535.146,156.06 533.5,152.5C 526.936,159.655 519.769,160.322 512,154.5C 514.208,144.482 520.041,137.148 529.5,132.5C 529.926,128.46 531.259,124.793 533.5,121.5C 535.544,131.092 537.377,140.759 539,150.5C 539.642,152.762 540.475,154.929 541.5,157C 546.833,157.667 552.167,157.667 557.5,157C 559.725,156.439 561.725,155.439 563.5,154C 564.622,151.876 566.122,150.043 568,148.5C 568.507,154.512 571.674,157.512 577.5,157.5C 584.319,158.181 588.485,155.181 590,148.5C 590.283,133.444 589.45,118.444 587.5,103.5C 587.27,98.9496 587.936,94.6163 589.5,90.5 Z"/></g>
<g><path style="opacity:1" fill="#0d0d0d" d="M 389.5,94.5 C 392.169,109.18 394.669,124.18 397,139.5C 398.015,146.024 400.515,151.857 404.5,157C 414.49,159.673 422.324,156.84 428,148.5C 428.689,151.408 429.855,154.075 431.5,156.5C 440.957,158.583 449.957,157.417 458.5,153C 462.217,150.321 462.384,147.488 459,144.5C 456.182,150.108 451.682,152.275 445.5,151C 440.693,145.311 440.193,139.144 444,132.5C 447.323,121.914 452.323,120.914 459,129.5C 470.15,149.013 464.983,161.513 443.5,167C 435.008,169.66 428.841,167.16 425,159.5C 419.257,167.058 411.757,169.558 402.5,167C 400,165.833 398.167,164 397,161.5C 394.235,149.573 391.901,137.573 390,125.5C 388.076,135.385 385.409,145.052 382,154.5C 379.211,162.255 374.044,167.755 366.5,171C 359.911,173.147 353.244,174.98 346.5,176.5C 345.167,175.833 345.167,175.167 346.5,174.5C 357.95,169.698 368.116,163.032 377,154.5C 377.923,152.966 378.423,151.299 378.5,149.5C 373.654,137.984 365.654,129.318 354.5,123.5C 352.653,124.186 350.986,125.186 349.5,126.5C 344.687,124.856 340.52,122.189 337,118.5C 336.333,114.167 336.333,109.833 337,105.5C 338.133,103.789 339.633,103.289 341.5,104C 359.333,112.5 372.5,125.667 381,143.5C 383.432,138.113 385.099,132.446 386,126.5C 386.333,118.167 386.667,109.833 387,101.5C 387.847,99.1457 388.68,96.8123 389.5,94.5 Z"/></g>
<g><path style="opacity:1" fill="#101010" d="M 454.5,102.5 C 462.72,104.989 463.553,108.989 457,114.5C 454.976,112.984 452.809,111.651 450.5,110.5C 448.655,112.231 446.822,113.898 445,115.5C 442.501,114.917 440.501,113.584 439,111.5C 439.658,108.531 441.158,105.865 443.5,103.5C 445.524,105.358 447.691,107.025 450,108.5C 452.102,106.905 453.602,104.905 454.5,102.5 Z"/></g>
<g><path style="opacity:1" fill="#0d0d0d" d="M 652.5,102.5 C 660.127,104.876 661.127,108.709 655.5,114C 652.633,113.819 650.133,112.652 648,110.5C 646.216,112.367 644.216,114.034 642,115.5C 638.471,114.301 636.804,111.968 637,108.5C 638.574,107.016 639.907,105.349 641,103.5C 643.257,105.046 645.424,106.712 647.5,108.5C 649.164,106.509 650.831,104.509 652.5,102.5 Z"/></g>
<g><path style="opacity:1" fill="#0f0f0f" d="M 426.5,127.5 C 435.139,128.941 436.473,132.775 430.5,139C 427.854,138.08 425.354,136.58 423,134.5C 421.39,136.731 419.557,138.731 417.5,140.5C 410.406,137.729 409.74,133.896 415.5,129C 417.814,129.59 419.981,130.757 422,132.5C 424.401,131.601 425.901,129.934 426.5,127.5 Z"/></g>
<g><path style="opacity:1" fill="#0f0f0f" d="M 566.5,127.5 C 575.139,128.941 576.473,132.775 570.5,139C 567.854,138.08 565.354,136.58 563,134.5C 561.39,136.731 559.557,138.731 557.5,140.5C 550.406,137.729 549.74,133.896 555.5,129C 557.814,129.59 559.981,130.757 562,132.5C 564.401,131.601 565.901,129.934 566.5,127.5 Z"/></g>
<g><path style="opacity:1" fill="#101010" d="M 624.5,127.5 C 627.658,128.313 630.324,129.98 632.5,132.5C 631.079,135.009 629.412,137.343 627.5,139.5C 624.991,138.079 622.657,136.412 620.5,134.5C 618.823,136.54 617.156,138.54 615.5,140.5C 612.888,139.221 610.555,137.555 608.5,135.5C 609.851,132.804 611.684,130.47 614,128.5C 616.01,129.848 618.01,131.182 620,132.5C 622.378,131.623 623.878,129.956 624.5,127.5 Z"/></g>
<g><path style="opacity:1" fill="#e9e9e9" d="M 447.5,135.5 C 451.029,134.889 452.862,136.223 453,139.5C 448.085,141.679 446.251,140.346 447.5,135.5 Z"/></g>
<g><path style="opacity:1" fill="#e9e9e9" d="M 645.5,134.5 C 647.609,135.391 649.609,136.558 651.5,138C 650.003,140.207 648.003,140.874 645.5,140C 644.248,138.172 644.248,136.339 645.5,134.5 Z"/></g>
<g><path style="opacity:1" fill="#eaeaea" d="M 529.5,137.5 C 530.496,137.414 531.329,137.748 532,138.5C 533.057,141.549 533.224,144.549 532.5,147.5C 528.529,148.556 524.529,148.556 520.5,147.5C 522.075,142.923 525.075,139.589 529.5,137.5 Z"/></g>
<g><path style="opacity:1" fill="#101010" d="M 317.5,222.5 C 317.709,223.922 318.209,225.255 319,226.5C 319.499,222.848 319.665,219.182 319.5,215.5C 320.734,194.867 329.067,177.7 344.5,164C 345.167,163.333 345.833,163.333 346.5,164C 328.823,183.365 321.323,206.198 324,232.5C 327.667,225.833 331.333,219.167 335,212.5C 335.654,211.304 336.154,211.304 336.5,212.5C 332.468,222.897 327.635,232.897 322,242.5C 320.667,243.833 319.333,243.833 318,242.5C 316.537,237.11 314.87,231.777 313,226.5C 311.92,220.861 311.087,215.195 310.5,209.5C 311.822,209.33 312.989,209.663 314,210.5C 315.479,214.417 316.646,218.417 317.5,222.5 Z"/></g>
<g><path style="opacity:1" fill="#0b0b0b" d="M 478.5,254.5 C 477.345,261.321 477.179,268.321 478,275.5C 478.717,274.956 479.217,274.289 479.5,273.5C 485.04,262.463 491.207,251.796 498,241.5C 492.435,257.645 485.435,273.312 477,288.5C 474.034,291.265 471.367,290.932 469,287.5C 465.261,274.279 461.927,260.946 459,247.5C 458.333,244.5 458.333,241.5 459,238.5C 460.779,237.521 462.445,237.854 464,239.5C 466.33,247.484 468.663,255.484 471,263.5C 470.026,232.426 479.026,204.759 498,180.5C 503.701,173.952 510.201,168.785 517.5,165C 492.395,189.456 479.395,219.289 478.5,254.5 Z"/></g>
<g><path style="opacity:1" fill="#0f0f0f" d="M 593.5,217.5 C 593.334,222.511 593.501,227.511 594,232.5C 594.513,231.473 595.013,230.473 595.5,229.5C 596.368,224.763 597.534,220.096 599,215.5C 600.011,214.663 601.178,214.33 602.5,214.5C 602.494,219.215 601.994,223.882 601,228.5C 599.129,234.447 597.462,240.447 596,246.5C 594.604,248.527 592.938,248.86 591,247.5C 587.333,240.167 583.667,232.833 580,225.5C 578.686,222.911 578.019,220.244 578,217.5C 581.512,223.86 585.012,230.194 588.5,236.5C 588.783,237.289 589.283,237.956 590,238.5C 590.817,232.984 590.651,227.65 589.5,222.5C 588.437,201.213 580.437,183.047 565.5,168C 572.525,172.358 578.359,178.192 583,185.5C 589.411,195.232 592.911,205.898 593.5,217.5 Z"/></g>
<g><path style="opacity:1" fill="#0e0e0e" d="M 656.5,173.5 C 663.7,178.189 670.2,183.856 676,190.5C 686.333,202.167 696.667,213.833 707,225.5C 707.497,222.854 707.664,220.187 707.5,217.5C 708.833,217.5 710.167,217.5 711.5,217.5C 711.5,223.5 711.5,229.5 711.5,235.5C 704.037,234.953 696.87,233.286 690,230.5C 689.388,228.763 690.054,227.763 692,227.5C 695.143,228.531 698.309,229.031 701.5,229C 689.706,214.87 677.539,201.037 665,187.5C 661.391,183.277 658.557,178.61 656.5,173.5 Z"/></g>
<g><path style="opacity:1" fill="#9c9c9c" d="M 319.5,215.5 C 319.665,219.182 319.499,222.848 319,226.5C 318.209,225.255 317.709,223.922 317.5,222.5C 318.167,220.167 318.833,217.833 319.5,215.5 Z"/></g>
<g><path style="opacity:1" fill="#545454" d="M 593.5,217.5 C 594.167,221.5 594.833,225.5 595.5,229.5C 595.013,230.473 594.513,231.473 594,232.5C 593.501,227.511 593.334,222.511 593.5,217.5 Z"/></g>
<g><path style="opacity:1" fill="#9b9b9b" d="M 589.5,222.5 C 590.651,227.65 590.817,232.984 590,238.5C 589.283,237.956 588.783,237.289 588.5,236.5C 589.486,232.03 589.819,227.363 589.5,222.5 Z"/></g>
<g><path style="opacity:1" fill="#141414" d="M 412.5,244.5 C 413.822,244.33 414.989,244.663 416,245.5C 416.667,247.833 416.667,250.167 416,252.5C 412.958,253.986 411.125,252.986 410.5,249.5C 411.187,247.823 411.854,246.156 412.5,244.5 Z"/></g>
<g><path style="opacity:1" fill="#141414" d="M 610.5,244.5 C 611.822,244.33 612.989,244.663 614,245.5C 614.667,247.833 614.667,250.167 614,252.5C 610.958,253.986 609.125,252.986 608.5,249.5C 609.187,247.823 609.854,246.156 610.5,244.5 Z"/></g>
<g><path style="opacity:1" fill="#181818" d="M 732.5,252.5 C 732.5,251.167 732.5,249.833 732.5,248.5C 734.792,243.131 736.792,243.298 738.5,249C 738.098,253.032 736.098,254.199 732.5,252.5 Z"/></g>
<g><path style="opacity:1" fill="#181818" d="M 744.5,244.5 C 748.461,245.884 749.461,248.551 747.5,252.5C 744.187,254.254 742.52,253.254 742.5,249.5C 742.437,247.486 743.103,245.819 744.5,244.5 Z"/></g>
<g><path style="opacity:1" fill="#111111" d="M 279.5,285.5 C 279.663,283.143 279.497,280.81 279,278.5C 277.961,279.244 277.461,280.244 277.5,281.5C 272.952,288.543 267.619,289.21 261.5,283.5C 257.565,272.703 261.065,265.703 272,262.5C 274.379,262.482 276.546,263.149 278.5,264.5C 279.171,258.419 280.171,252.419 281.5,246.5C 284.243,246.077 285.576,247.244 285.5,250C 284.007,262.107 283.007,274.274 282.5,286.5C 281.078,287.777 280.078,287.443 279.5,285.5 Z"/></g>
<g><path style="opacity:1" fill="#0f0f0f" d="M 343.5,259.5 C 342.809,268.734 342.142,278.068 341.5,287.5C 340.811,288.774 339.977,288.774 339,287.5C 338.309,274.151 338.475,260.817 339.5,247.5C 340.833,247.5 342.167,247.5 343.5,247.5C 343.5,251.5 343.5,255.5 343.5,259.5 Z"/></g>
<g><path style="opacity:1" fill="#0c0c0c" d="M 619.5,247.5 C 620.833,247.5 622.167,247.5 623.5,247.5C 623.119,260.845 622.452,274.178 621.5,287.5C 620.833,287.833 620.167,288.167 619.5,288.5C 618.281,274.827 618.281,261.161 619.5,247.5 Z"/></g>
<g><path style="opacity:1" fill="#090909" d="M 752.5,247.5 C 753.833,247.5 755.167,247.5 756.5,247.5C 756.086,260.843 755.419,274.176 754.5,287.5C 753.833,287.833 753.167,288.167 752.5,288.5C 751.281,274.827 751.281,261.161 752.5,247.5 Z"/></g>
<g><path style="opacity:1" fill="#131313" d="M 552.5,247.5 C 560.769,248.931 562.603,253.264 558,260.5C 556.768,257.7 556.101,254.7 556,251.5C 554.506,250.253 553.006,250.253 551.5,251.5C 549.815,255.661 549.148,259.994 549.5,264.5C 551.857,264.337 554.19,264.503 556.5,265C 556.957,265.414 557.291,265.914 557.5,266.5C 554.562,267.489 551.562,268.156 548.5,268.5C 548.5,275.167 548.5,281.833 548.5,288.5C 546.876,288.64 545.71,287.973 545,286.5C 544.667,280.833 544.333,275.167 544,269.5C 542.989,270.337 541.822,270.67 540.5,270.5C 540.45,268.41 541.45,267.077 543.5,266.5C 543.654,258.652 546.654,252.319 552.5,247.5 Z"/></g>
<g><path style="opacity:1" fill="#111111" d="M 730.5,249.5 C 731.369,251.717 731.702,254.05 731.5,256.5C 731.688,258.103 731.188,259.437 730,260.5C 728.768,257.7 728.101,254.7 728,251.5C 726.506,250.253 725.006,250.253 723.5,251.5C 721.815,255.661 721.148,259.994 721.5,264.5C 723.857,264.337 726.19,264.503 728.5,265C 729.056,265.383 729.389,265.883 729.5,266.5C 727.5,267.167 725.5,267.833 723.5,268.5C 722.5,268.5 721.5,268.5 720.5,268.5C 720.5,275.167 720.5,281.833 720.5,288.5C 718.876,288.64 717.71,287.973 717,286.5C 716.667,280.833 716.333,275.167 716,269.5C 714.989,270.337 713.822,270.67 712.5,270.5C 712.45,268.41 713.45,267.077 715.5,266.5C 715.847,260.626 717.68,255.293 721,250.5C 724.008,247.106 727.174,246.773 730.5,249.5 Z"/></g>
<g><path style="opacity:1" fill="#0e0e0e" d="M 380.5,247.5 C 387.109,248.258 389.276,251.925 387,258.5C 386.692,259.308 386.192,259.975 385.5,260.5C 384.752,257.503 384.085,254.503 383.5,251.5C 382.277,250.386 380.944,250.219 379.5,251C 377.752,255.294 377.085,259.794 377.5,264.5C 380.681,264.002 383.347,264.835 385.5,267C 382.487,267.502 379.487,268.002 376.5,268.5C 376.5,275.167 376.5,281.833 376.5,288.5C 375.178,288.67 374.011,288.337 373,287.5C 372.83,281.472 372.33,275.472 371.5,269.5C 370.137,270.879 369.137,270.713 368.5,269C 369.098,267.699 370.098,266.865 371.5,266.5C 371.682,258.656 374.682,252.322 380.5,247.5 Z"/></g>
<g><path style="opacity:1" fill="#151515" d="M 587.5,250.5 C 588.873,250.343 590.207,250.51 591.5,251C 593.743,253.488 595.743,256.154 597.5,259C 596.167,259.667 594.833,259.667 593.5,259C 591.112,256.371 589.112,253.538 587.5,250.5 Z"/></g>
<g><path style="opacity:1" fill="#7d7d7d" d="M 732.5,248.5 C 732.5,249.833 732.5,251.167 732.5,252.5C 732.768,254.099 732.434,255.432 731.5,256.5C 731.702,254.05 731.369,251.717 730.5,249.5C 731.167,249.167 731.833,248.833 732.5,248.5 Z"/></g>
<g><path style="opacity:1" fill="#131313" d="M 222.5,261.5 C 227.742,260.271 231.575,261.937 234,266.5C 233.836,273.476 233.669,280.476 233.5,287.5C 232.167,287.5 230.833,287.5 229.5,287.5C 229.762,286.022 229.429,284.689 228.5,283.5C 224.953,289.047 220.786,289.714 216,285.5C 215.365,283.365 215.699,281.365 217,279.5C 219.958,275.855 223.625,273.188 228,271.5C 229.297,267.825 228.297,265.158 225,263.5C 221.403,265.361 219.903,268.361 220.5,272.5C 219.5,272.5 218.5,272.5 217.5,272.5C 217.277,267.948 218.944,264.281 222.5,261.5 Z"/></g>
<g><path style="opacity:1" fill="#131313" d="M 294.5,261.5 C 299.742,260.271 303.575,261.937 306,266.5C 305.836,273.476 305.669,280.476 305.5,287.5C 304.167,287.5 302.833,287.5 301.5,287.5C 301.762,286.022 301.429,284.689 300.5,283.5C 296.953,289.047 292.786,289.714 288,285.5C 287.365,283.365 287.699,281.365 289,279.5C 291.958,275.855 295.625,273.188 300,271.5C 301.297,267.825 300.297,265.158 297,263.5C 293.403,265.361 291.903,268.361 292.5,272.5C 291.5,272.5 290.5,272.5 289.5,272.5C 289.277,267.948 290.944,264.281 294.5,261.5 Z"/></g>
<g><path style="opacity:1" fill="#111111" d="M 354.5,261.5 C 358.954,260.617 362.454,261.95 365,265.5C 364.964,272.819 364.797,280.152 364.5,287.5C 361.612,287.78 360.112,286.447 360,283.5C 356.188,289.003 351.855,289.67 347,285.5C 347.991,278.324 352.158,273.658 359.5,271.5C 360.797,268.812 360.464,266.312 358.5,264C 357.167,263.333 355.833,263.333 354.5,264C 352.503,266.492 351.503,269.325 351.5,272.5C 350.5,272.5 349.5,272.5 348.5,272.5C 348.677,267.811 350.677,264.144 354.5,261.5 Z"/></g>
<g><path style="opacity:1" fill="#171717" d="M 410.5,261.5 C 411.833,261.5 413.167,261.5 414.5,261.5C 414.5,269.833 414.5,278.167 414.5,286.5C 412.61,286.703 411.11,286.037 410,284.5C 409.309,276.805 409.475,269.139 410.5,261.5 Z"/></g>
<g><path style="opacity:1" fill="#131313" d="M 564.5,261.5 C 569.742,260.271 573.575,261.937 576,266.5C 575.836,273.476 575.669,280.476 575.5,287.5C 574.167,287.5 572.833,287.5 571.5,287.5C 571.762,286.022 571.429,284.689 570.5,283.5C 566.953,289.047 562.786,289.714 558,285.5C 557.365,283.365 557.699,281.365 559,279.5C 561.958,275.855 565.625,273.188 570,271.5C 571.297,267.825 570.297,265.158 567,263.5C 563.403,265.361 561.903,268.361 562.5,272.5C 561.5,272.5 560.5,272.5 559.5,272.5C 559.277,267.948 560.944,264.281 564.5,261.5 Z"/></g>
<g><path style="opacity:1" fill="#171717" d="M 608.5,261.5 C 609.833,261.5 611.167,261.5 612.5,261.5C 612.5,269.833 612.5,278.167 612.5,286.5C 610.61,286.703 609.11,286.037 608,284.5C 607.309,276.805 607.475,269.139 608.5,261.5 Z"/></g>
<g><path style="opacity:1" fill="#030303" d="M 731.5,284.5 C 731.5,278.833 731.5,273.167 731.5,267.5C 730.599,263.759 731.932,261.759 735.5,261.5C 735.5,269.833 735.5,278.167 735.5,286.5C 733.62,286.771 732.287,286.104 731.5,284.5 Z"/></g>
<g><path style="opacity:1" fill="#030303" d="M 742.5,261.5 C 743.5,261.5 744.5,261.5 745.5,261.5C 745.5,269.833 745.5,278.167 745.5,286.5C 744.178,286.67 743.011,286.337 742,285.5C 741.2,277.421 741.367,269.421 742.5,261.5 Z"/></g>
<g><path style="opacity:1" fill="#161616" d="M 249.5,262.5 C 251.857,262.337 254.19,262.503 256.5,263C 257.207,265.691 256.041,267.525 253,268.5C 249.479,266.613 246.313,267.446 243.5,271C 248.276,271.061 252.443,272.561 256,275.5C 257.173,279.305 256.007,282.139 252.5,284C 248.514,286.665 244.181,287.665 239.5,287C 236.735,284.034 237.068,281.367 240.5,279C 241.332,278.312 241.998,278.479 242.5,279.5C 241.833,280.5 241.167,281.5 240.5,282.5C 241.365,283.583 242.365,283.749 243.5,283C 245.996,281.92 248.33,280.586 250.5,279C 252.037,277.89 252.703,276.39 252.5,274.5C 248.167,274.5 243.833,274.5 239.5,274.5C 239.34,272.801 239.506,271.134 240,269.5C 243.068,266.917 246.235,264.584 249.5,262.5 Z"/></g>
<g><path style="opacity:1" fill="#101010" d="M 388.5,262.5 C 394.868,262.17 401.202,262.504 407.5,263.5C 402.015,269.485 396.348,275.319 390.5,281C 395.5,281.333 400.5,281.667 405.5,282C 405.957,282.414 406.291,282.914 406.5,283.5C 405.5,284.167 404.5,284.833 403.5,285.5C 397.478,286.206 391.478,286.872 385.5,287.5C 384.337,285.45 384.504,283.45 386,281.5C 390.833,276.667 395.667,271.833 400.5,267C 396.459,266.827 392.459,266.327 388.5,265.5C 387.209,264.473 387.209,263.473 388.5,262.5 Z"/></g>
<g><path style="opacity:1" fill="#151515" d="M 185.5,262.5 C 186.5,262.5 187.5,262.5 188.5,262.5C 188.335,265.518 188.502,268.518 189,271.5C 190.211,268.241 192.044,265.408 194.5,263C 195.944,262.219 197.277,262.386 198.5,263.5C 199.262,267.111 199.762,270.778 200,274.5C 201.265,269.618 203.765,265.618 207.5,262.5C 208.938,262.719 210.271,263.219 211.5,264C 211.529,270.99 211.863,277.99 212.5,285C 211.333,288.167 209.833,288.333 208,285.5C 207.667,279.167 207.333,272.833 207,266.5C 205.171,268.156 203.837,270.156 203,272.5C 201.53,277.243 199.864,281.909 198,286.5C 197,286.167 196,285.833 195,285.5C 195.305,278.85 195.305,272.183 195,265.5C 190.423,271.729 187.923,278.729 187.5,286.5C 186.167,286.5 184.833,286.5 183.5,286.5C 183.062,278.35 183.729,270.35 185.5,262.5 Z"/></g>
<g><path style="opacity:1" fill="#171717" d="M 319.5,261.5 C 321.39,261.297 322.89,261.963 324,263.5C 324.667,265.833 324.667,268.167 324,270.5C 323.282,271.451 322.449,271.617 321.5,271C 320.762,264.931 319.262,264.431 317,269.5C 316.667,275.167 316.333,280.833 316,286.5C 314.644,287.38 313.144,287.714 311.5,287.5C 311.302,279.466 311.635,271.466 312.5,263.5C 313.5,263.5 314.5,263.5 315.5,263.5C 315.343,264.873 315.51,266.207 316,267.5C 316.926,265.308 318.093,263.308 319.5,261.5 Z"/></g>
<g><path style="opacity:1" fill="#f3f3f3" d="M 266.5,265.5 C 277.229,264.711 280.395,269.045 276,278.5C 271.736,283.65 267.736,283.65 264,278.5C 262.964,273.773 263.797,269.44 266.5,265.5 Z"/></g>
<g><path style="opacity:1" fill="#8e8e8e" d="M 478.5,254.5 C 478.177,261.022 478.51,267.355 479.5,273.5C 479.217,274.289 478.717,274.956 478,275.5C 477.179,268.321 477.345,261.321 478.5,254.5 Z"/></g>
<g><path style="opacity:1" fill="#6c6c6c" d="M 343.5,259.5 C 344.139,269.227 343.472,278.56 341.5,287.5C 342.142,278.068 342.809,268.734 343.5,259.5 Z"/></g>
<g><path style="opacity:1" fill="#aeaeae" d="M 729.5,266.5 C 730.167,266.833 730.833,267.167 731.5,267.5C 731.5,273.167 731.5,278.833 731.5,284.5C 730.512,279.36 730.179,274.026 730.5,268.5C 728.167,268.5 725.833,268.5 723.5,268.5C 725.5,267.833 727.5,267.167 729.5,266.5 Z"/></g>
<g><path style="opacity:1" fill="#e4e4e4" d="M 227.5,274.5 C 229.344,275.204 229.844,276.537 229,278.5C 227.285,280.759 225.452,282.926 223.5,285C 219,287.167 217.833,286 220,281.5C 222.396,278.933 224.896,276.6 227.5,274.5 Z"/></g>
<g><path style="opacity:1" fill="#e4e4e4" d="M 299.5,274.5 C 301.344,275.204 301.844,276.537 301,278.5C 299.285,280.759 297.452,282.926 295.5,285C 291,287.167 289.833,286 292,281.5C 294.396,278.933 296.896,276.6 299.5,274.5 Z"/></g>
<g><path style="opacity:1" fill="#ebebeb" d="M 359.5,274.5 C 360.124,274.917 360.457,275.584 360.5,276.5C 358.784,281.549 355.451,284.883 350.5,286.5C 350.372,284.345 350.872,282.345 352,280.5C 354.478,278.361 356.978,276.361 359.5,274.5 Z"/></g>
<g><path style="opacity:1" fill="#e4e4e4" d="M 569.5,274.5 C 571.344,275.204 571.844,276.537 571,278.5C 569.285,280.759 567.452,282.926 565.5,285C 561,287.167 559.833,286 562,281.5C 564.396,278.933 566.896,276.6 569.5,274.5 Z"/></g>
<g><path style="opacity:1" fill="#929292" d="M 279.5,285.5 C 278.833,284.167 278.167,282.833 277.5,281.5C 277.461,280.244 277.961,279.244 279,278.5C 279.497,280.81 279.663,283.143 279.5,285.5 Z"/></g>
<g><path style="opacity:1" fill="#141414" d="M 549.5,301.5 C 553.461,302.884 554.461,305.551 552.5,309.5C 549.187,311.254 547.52,310.254 547.5,306.5C 547.437,304.486 548.103,302.819 549.5,301.5 Z"/></g>
<g><path style="opacity:1" fill="#191919" d="M 560.5,319.5 C 559.357,322.976 559.19,326.642 560,330.5C 560.513,329.473 561.013,328.473 561.5,327.5C 562.526,324.628 564.192,322.128 566.5,320C 568.464,319.376 570.131,319.876 571.5,321.5C 572.467,329.11 572.8,336.777 572.5,344.5C 570.61,344.703 569.11,344.037 568,342.5C 567.796,335.771 567.63,329.104 567.5,322.5C 562.493,328.508 559.827,335.508 559.5,343.5C 558.178,343.67 557.011,343.337 556,342.5C 555.185,330.132 555.518,317.799 557,305.5C 557.7,303.968 558.866,302.968 560.5,302.5C 561.473,308.15 561.473,313.816 560.5,319.5 Z"/></g>
<g><path style="opacity:1" fill="#0f0f0f" d="M 469.5,316.5 C 468.809,325.734 468.142,335.068 467.5,344.5C 466.811,345.774 465.977,345.774 465,344.5C 464.309,331.151 464.475,317.817 465.5,304.5C 466.833,304.5 468.167,304.5 469.5,304.5C 469.5,308.5 469.5,312.5 469.5,316.5 Z"/></g>
<g><path style="opacity:1" fill="#131313" d="M 408.5,304.5 C 416.769,305.931 418.603,310.264 414,317.5C 412.768,314.7 412.101,311.7 412,308.5C 410.506,307.253 409.006,307.253 407.5,308.5C 405.815,312.661 405.148,316.994 405.5,321.5C 407.857,321.337 410.19,321.503 412.5,322C 412.957,322.414 413.291,322.914 413.5,323.5C 410.562,324.489 407.562,325.156 404.5,325.5C 404.5,332.167 404.5,338.833 404.5,345.5C 402.876,345.64 401.71,344.973 401,343.5C 400.667,337.833 400.333,332.167 400,326.5C 398.989,327.337 397.822,327.67 396.5,327.5C 396.45,325.41 397.45,324.077 399.5,323.5C 399.654,315.652 402.654,309.319 408.5,304.5 Z"/></g>
<g><path style="opacity:1" fill="#0e0e0e" d="M 421.5,307.5 C 425.728,308.466 428.728,311.133 430.5,315.5C 429.635,316.583 428.635,316.749 427.5,316C 424.619,313.721 422.619,310.888 421.5,307.5 Z"/></g>
<g><path style="opacity:1" fill="#808080" d="M 523.5,304.5 C 524.209,303.596 525.209,303.263 526.5,303.5C 526.802,306.059 526.468,308.393 525.5,310.5C 525.975,307.918 525.308,305.918 523.5,304.5 Z"/></g>
<g><path style="opacity:1" fill="#131313" d="M 382.5,318.5 C 385.187,318.336 387.854,318.503 390.5,319C 391.701,319.903 392.535,321.069 393,322.5C 392.563,329.859 392.729,337.192 393.5,344.5C 390.14,345.21 388.307,343.876 388,340.5C 386.5,342 385,343.5 383.5,345C 375.607,346.023 373.44,342.857 377,335.5C 380.092,332.578 383.592,330.245 387.5,328.5C 388.952,325.718 388.619,323.218 386.5,321C 381.385,321.317 379.385,324.15 380.5,329.5C 379.167,329.5 377.833,329.5 376.5,329.5C 376.844,324.848 378.844,321.182 382.5,318.5 Z"/></g>
<g><path style="opacity:1" fill="#0e0e0e" d="M 547.5,318.5 C 548.833,318.5 550.167,318.5 551.5,318.5C 550.815,326.816 550.482,335.149 550.5,343.5C 549.178,343.67 548.011,343.337 547,342.5C 546.2,334.421 546.367,326.421 547.5,318.5 Z"/></g>
<g><path style="opacity:1" fill="#0e0e0e" d="M 442.5,319.5 C 443.833,319.5 445.167,319.5 446.5,319.5C 445.788,326.143 445.454,332.809 445.5,339.5C 446.822,339.67 447.989,339.337 449,338.5C 452.06,332.821 454.226,326.821 455.5,320.5C 456.689,319.571 458.022,319.238 459.5,319.5C 458.25,326.835 458.25,334.168 459.5,341.5C 458.714,344.975 457.214,345.308 455,342.5C 454.667,339.833 454.333,337.167 454,334.5C 452.96,344.218 448.96,345.885 442,339.5C 441.208,332.753 441.374,326.086 442.5,319.5 Z"/></g>
<g><path style="opacity:1" fill="#0a0a0a" d="M 487.5,341.5 C 487.663,339.143 487.497,336.81 487,334.5C 486.59,335.901 486.09,337.234 485.5,338.5C 484.604,341.069 482.938,343.069 480.5,344.5C 478.517,343.018 476.684,341.351 475,339.5C 474.333,333.167 474.333,326.833 475,320.5C 476.356,319.62 477.856,319.286 479.5,319.5C 478.669,326.131 478.336,332.798 478.5,339.5C 479.822,339.67 480.989,339.337 482,338.5C 484.798,332.773 486.798,326.773 488,320.5C 489.011,319.663 490.178,319.33 491.5,319.5C 491.831,327.86 491.498,336.193 490.5,344.5C 489.145,343.812 488.145,342.812 487.5,341.5 Z"/></g>
<g><path style="opacity:1" fill="#141414" d="M 500.5,319.5 C 502.25,322.355 503.083,325.689 503,329.5C 503.973,326.221 505.473,323.221 507.5,320.5C 513.489,318.31 516.155,320.477 515.5,327C 514.752,332.477 514.419,337.977 514.5,343.5C 513.178,343.67 512.011,343.337 511,342.5C 510.831,335.809 510.331,329.142 509.5,322.5C 505.279,328.817 502.613,335.817 501.5,343.5C 499.833,343.5 498.167,343.5 496.5,343.5C 496.833,339.5 497.167,335.5 497.5,331.5C 497.977,327.38 498.977,323.38 500.5,319.5 Z"/></g>
<g><path style="opacity:1" fill="#111111" d="M 347.5,320.5 C 347.335,323.518 347.502,326.518 348,329.5C 348.513,328.473 349.013,327.473 349.5,326.5C 350.446,324.11 351.779,321.944 353.5,320C 354.833,319.333 356.167,319.333 357.5,320C 358.3,324.08 358.8,328.247 359,332.5C 359.989,327.688 362.156,323.521 365.5,320C 367.567,319.464 369.401,319.964 371,321.5C 370.786,328.572 370.786,335.572 371,342.5C 369.667,343.833 368.333,343.833 367,342.5C 366.899,336.116 366.732,329.782 366.5,323.5C 362.083,329.407 359.417,336.074 358.5,343.5C 357.167,343.5 355.833,343.5 354.5,343.5C 354.666,336.492 354.5,329.492 354,322.5C 349.818,328.87 347.318,335.87 346.5,343.5C 345.5,343.5 344.5,343.5 343.5,343.5C 343.334,335.826 343.5,328.159 344,320.5C 345.292,319.209 346.458,319.209 347.5,320.5 Z"/></g>
<g><path style="opacity:1" fill="#909090" d="M 500.5,319.5 C 498.977,323.38 497.977,327.38 497.5,331.5C 497.5,327.5 497.5,323.5 497.5,319.5C 498.5,319.5 499.5,319.5 500.5,319.5 Z"/></g>
<g><path style="opacity:1" fill="#121212" d="M 523.5,304.5 C 525.308,305.918 525.975,307.918 525.5,310.5C 525.334,314.514 525.501,318.514 526,322.5C 530.258,318.607 534.591,318.607 539,322.5C 542.545,328.941 542.045,335.108 537.5,341C 534.119,343.245 530.452,343.912 526.5,343C 525.269,341.817 525.269,340.651 526.5,339.5C 529.311,342.179 531.811,341.845 534,338.5C 537.491,333.467 537.325,328.633 533.5,324C 531.167,323.333 528.833,323.333 526.5,324C 525.874,324.75 525.374,325.584 525,326.5C 524.501,332.491 524.334,338.491 524.5,344.5C 523.5,344.5 522.5,344.5 521.5,344.5C 520.473,334.856 520.307,325.189 521,315.5C 520.906,311.367 521.74,307.701 523.5,304.5 Z"/></g>
<g><path style="opacity:1" fill="#636363" d="M 560.5,319.5 C 560.194,322.385 560.527,325.052 561.5,327.5C 561.013,328.473 560.513,329.473 560,330.5C 559.19,326.642 559.357,322.976 560.5,319.5 Z"/></g>
<g><path style="opacity:1" fill="#6c6c6c" d="M 469.5,316.5 C 470.139,326.227 469.472,335.56 467.5,344.5C 468.142,335.068 468.809,325.734 469.5,316.5 Z"/></g>
<g><path style="opacity:1" fill="#969696" d="M 347.5,320.5 C 348.167,322.5 348.833,324.5 349.5,326.5C 349.013,327.473 348.513,328.473 348,329.5C 347.502,326.518 347.335,323.518 347.5,320.5 Z"/></g>
<g><path style="opacity:1" fill="#ededed" d="M 385.5,332.5 C 386.5,332.5 387.5,332.5 388.5,332.5C 387.239,338.093 383.906,341.759 378.5,343.5C 379.066,338.699 381.4,335.032 385.5,332.5 Z"/></g>
<g><path style="opacity:1" fill="#9a9a9a" d="M 487.5,341.5 C 486.833,340.5 486.167,339.5 485.5,338.5C 486.09,337.234 486.59,335.901 487,334.5C 487.497,336.81 487.663,339.143 487.5,341.5 Z"/></g>
<g><path style="opacity:1" fill="#303030" d="M 96.5,455.5 C 92.1363,457.619 89.803,456.119 89.5,451C 90.3392,446.466 92.8392,444.966 97,446.5C 97.2022,444.744 97.7022,443.078 98.5,441.5C 99.8333,446.5 99.8333,451.5 98.5,456.5C 97.8165,456.137 97.1499,455.804 96.5,455.5 Z"/></g>
<g><path style="opacity:1" fill="#444444" d="M 225.5,441.5 C 226.809,443.571 227.475,446.071 227.5,449C 227.167,451.5 226.833,454 226.5,456.5C 225.506,451.544 225.173,446.544 225.5,441.5 Z"/></g>
<g><path style="opacity:1" fill="#202020" d="M 355.5,455.5 C 353.511,456.887 351.678,456.553 350,454.5C 349.333,452.167 349.333,449.833 350,447.5C 351.733,445.398 353.733,445.065 356,446.5C 356.202,444.744 356.702,443.078 357.5,441.5C 358.662,446.467 358.829,451.467 358,456.5C 357.329,455.748 356.496,455.414 355.5,455.5 Z"/></g>
<g><path style="opacity:1" fill="#2c2c2c" d="M 490.5,441.5 C 491.809,443.571 492.475,446.071 492.5,449C 492.167,451.5 491.833,454 491.5,456.5C 490.506,451.544 490.173,446.544 490.5,441.5 Z"/></g>
<g><path style="opacity:1" fill="#2f2f2f" d="M 145.5,441.5 C 150.539,441.451 150.705,442.118 146,443.5C 145.833,443.833 145.667,444.167 145.5,444.5C 149.335,445.996 149.335,446.996 145.5,447.5C 145.817,450.572 145.484,453.572 144.5,456.5C 143.76,453.164 143.094,449.83 142.5,446.5C 143.26,444.64 144.26,442.973 145.5,441.5 Z"/></g>
<g><path style="opacity:1" fill="#2f2f2f" d="M 243.5,441.5 C 248.539,441.451 248.705,442.118 244,443.5C 243.833,443.833 243.667,444.167 243.5,444.5C 247.335,445.996 247.335,446.996 243.5,447.5C 243.817,450.572 243.484,453.572 242.5,456.5C 241.76,453.164 241.094,449.83 240.5,446.5C 241.26,444.64 242.26,442.973 243.5,441.5 Z"/></g>
<g><path style="opacity:1" fill="#1f1f1f" d="M 475.5,441.5 C 480.539,441.451 480.705,442.118 476,443.5C 475.833,443.833 475.667,444.167 475.5,444.5C 479.335,445.996 479.335,446.996 475.5,447.5C 475.665,450.518 475.498,453.518 475,456.5C 474.963,452.911 474.13,449.578 472.5,446.5C 473.994,445.095 474.994,443.429 475.5,441.5 Z"/></g>
<g><path style="opacity:1" fill="#565656" d="M 216.5,447.5 C 215.596,448.209 215.263,449.209 215.5,450.5C 214.167,450.5 212.833,450.5 211.5,450.5C 212.398,449.842 213.398,449.176 214.5,448.5C 212.922,447.702 211.256,447.202 209.5,447C 212.094,444.894 214.427,445.06 216.5,447.5 Z"/></g>
<g><path style="opacity:1" fill="#505050" d="M 263.5,450.5 C 263.5,450.167 263.5,449.833 263.5,449.5C 262.322,448.001 260.655,447.001 258.5,446.5C 261.167,445.167 263.833,445.167 266.5,446.5C 265.479,447.901 264.479,449.235 263.5,450.5 Z"/></g>
<g><path style="opacity:1" fill="#272727" d="M 51.5,445.5 C 55.7736,445.807 60.1069,445.974 64.5,446C 66.6912,449.23 67.0245,452.73 65.5,456.5C 64.5159,453.572 64.1826,450.572 64.5,447.5C 62.8561,447.286 61.3561,447.62 60,448.5C 58.6498,458.868 57.8165,458.535 57.5,447.5C 55.8561,447.286 54.3561,447.62 53,448.5C 52.6667,451.167 52.3333,453.833 52,456.5C 51.5014,452.848 51.3347,449.182 51.5,445.5 Z"/></g>
<g><path style="opacity:1" fill="#787878" d="M 115.5,446.5 C 114.521,449.625 114.187,452.958 114.5,456.5C 113.192,452.981 113.192,449.315 114.5,445.5C 115.107,445.624 115.44,445.957 115.5,446.5 Z"/></g>
<g><path style="opacity:1" fill="#393939" d="M 116.5,447.5 C 117.14,445.668 118.14,445.335 119.5,446.5C 118.675,447.386 117.675,447.719 116.5,447.5 Z"/></g>
<g><path style="opacity:1" fill="#484848" d="M 159.5,445.5 C 160.787,446.871 161.453,448.705 161.5,451C 161.167,452.833 160.833,454.667 160.5,456.5C 159.511,452.893 159.177,449.226 159.5,445.5 Z"/></g>
<g><path style="opacity:1" fill="#292929" d="M 190.5,445.5 C 195.07,445.958 199.737,446.124 204.5,446C 205.622,449.409 205.789,452.909 205,456.5C 204.782,453.574 204.282,450.74 203.5,448C 201.888,447.28 200.388,447.446 199,448.5C 198.333,459.167 197.667,459.167 197,448.5C 195.644,447.62 194.144,447.286 192.5,447.5C 192.817,450.572 192.484,453.572 191.5,456.5C 190.511,452.893 190.177,449.226 190.5,445.5 Z"/></g>
<g><path style="opacity:1" fill="#787878" d="M 275.5,446.5 C 274.521,449.625 274.187,452.958 274.5,456.5C 273.192,452.981 273.192,449.315 274.5,445.5C 275.107,445.624 275.44,445.957 275.5,446.5 Z"/></g>
<g><path style="opacity:1" fill="#262626" d="M 336.5,445.5 C 337.222,445.918 337.722,446.584 338,447.5C 339.241,445.579 340.741,445.246 342.5,446.5C 341.372,447.262 340.205,447.929 339,448.5C 338.818,451.226 338.318,453.893 337.5,456.5C 336.511,452.893 336.177,449.226 336.5,445.5 Z"/></g>
<g><path style="opacity:1" fill="#242424" d="M 373.5,445.5 C 375.081,446.579 376.747,446.579 378.5,445.5C 380.029,445.529 381.196,446.196 382,447.5C 382.821,450.554 382.655,453.554 381.5,456.5C 380.516,453.572 380.183,450.572 380.5,447.5C 378.533,447.261 376.699,447.594 375,448.5C 374.667,451.167 374.333,453.833 374,456.5C 373.501,452.848 373.335,449.182 373.5,445.5 Z"/></g>
<g><path style="opacity:1" fill="#3b3b3b" d="M 407.5,445.5 C 410.068,445.573 412.734,445.906 415.5,446.5C 416.833,449.833 416.833,453.167 415.5,456.5C 414.516,453.572 414.183,450.572 414.5,447.5C 412.856,447.286 411.356,447.62 410,448.5C 409.818,451.226 409.318,453.893 408.5,456.5C 407.511,452.893 407.177,449.226 407.5,445.5 Z"/></g>
<g><path style="opacity:1" fill="#484848" d="M 480.5,445.5 C 481.787,446.871 482.453,448.705 482.5,451C 482.167,452.833 481.833,454.667 481.5,456.5C 480.511,452.893 480.177,449.226 480.5,445.5 Z"/></g>
<g><path style="opacity:1" fill="#2e2e2e" d="M 485.5,445.5 C 486.787,446.871 487.453,448.705 487.5,451C 487.167,452.833 486.833,454.667 486.5,456.5C 485.511,452.893 485.177,449.226 485.5,445.5 Z"/></g>
<g><path style="opacity:1" fill="#787878" d="M 502.5,446.5 C 501.521,449.625 501.187,452.958 501.5,456.5C 500.192,452.981 500.192,449.315 501.5,445.5C 502.107,445.624 502.44,445.957 502.5,446.5 Z"/></g>
<g><path style="opacity:1" fill="#181818" d="M 501.5,456.5 C 501.187,452.958 501.521,449.625 502.5,446.5C 507.783,444.085 510.116,445.752 509.5,451.5C 509.333,453.167 509.167,454.833 509,456.5C 508.667,453.833 508.333,451.167 508,448.5C 506.612,447.446 505.112,447.28 503.5,448C 502.872,450.939 502.205,453.772 501.5,456.5 Z"/></g>
<g><path style="opacity:1" fill="#2b2b2b" d="M 511.5,445.5 C 512.376,445.369 513.043,445.702 513.5,446.5C 514.308,448.925 515.308,451.258 516.5,453.5C 517.692,451.258 518.692,448.925 519.5,446.5C 520.167,445.167 520.833,445.167 521.5,446.5C 519.667,450.833 517.833,455.167 516,459.5C 514.759,461.421 513.259,461.754 511.5,460.5C 513.744,459.997 515.078,458.663 515.5,456.5C 514.435,452.709 513.101,449.042 511.5,445.5 Z"/></g>
<g><path style="opacity:1" fill="#efefef" d="M 96.5,455.5 C 91.7418,454.978 90.4085,452.478 92.5,448C 94.1124,447.28 95.6124,447.446 97,448.5C 97.7033,450.929 97.5366,453.262 96.5,455.5 Z"/></g>
<g><path style="opacity:1" fill="#030303" d="M 115.5,446.5 C 115.5,447.167 115.833,447.5 116.5,447.5C 115.912,450.61 115.245,453.61 114.5,456.5C 114.187,452.958 114.521,449.625 115.5,446.5 Z"/></g>
<g><path style="opacity:1" fill="#eaeaea" d="M 355.5,455.5 C 350.738,454.908 349.404,452.408 351.5,448C 353.134,447.506 354.801,447.34 356.5,447.5C 356.721,450.279 356.388,452.946 355.5,455.5 Z"/></g>
<g><path style="opacity:1" fill="#383838" d="M 442.5,441.5 C 446.838,441.622 447.172,441.955 443.5,442.5C 443.5,443.5 443.5,444.5 443.5,445.5C 447.5,446.167 447.5,446.833 443.5,447.5C 443.817,450.572 443.484,453.572 442.5,456.5C 442.039,453.045 441.039,449.878 439.5,447C 440.971,445.417 441.971,443.583 442.5,441.5 Z"/></g>
<g><path style="opacity:1" fill="#202020" d="M 74.5,455.5 C 70.0143,457.177 68.681,455.677 70.5,451C 72.1341,450.506 73.8008,450.34 75.5,450.5C 75.5,449.5 75.5,448.5 75.5,447.5C 73.8008,447.66 72.1341,447.494 70.5,447C 72.8091,444.949 74.9757,445.116 77,447.5C 77.6667,450.5 77.6667,453.5 77,456.5C 76.3292,455.748 75.4959,455.414 74.5,455.5 Z"/></g>
<g><path style="opacity:1" fill="#202020" d="M 107.5,455.5 C 103.014,457.177 101.681,455.677 103.5,451C 105.134,450.506 106.801,450.34 108.5,450.5C 108.5,449.5 108.5,448.5 108.5,447.5C 106.801,447.66 105.134,447.494 103.5,447C 105.809,444.949 107.976,445.116 110,447.5C 110.667,450.5 110.667,453.5 110,456.5C 109.329,455.748 108.496,455.414 107.5,455.5 Z"/></g>
<g><path style="opacity:1" fill="#393939" d="M 151.5,453.5 C 152.242,451.574 153.242,449.741 154.5,448C 152.744,447.798 151.078,447.298 149.5,446.5C 151.743,445.526 154.076,445.192 156.5,445.5C 155.849,448.803 154.182,451.47 151.5,453.5 Z"/></g>
<g><path style="opacity:1" fill="#202020" d="M 297.5,455.5 C 293.014,457.177 291.681,455.677 293.5,451C 295.134,450.506 296.801,450.34 298.5,450.5C 298.5,449.5 298.5,448.5 298.5,447.5C 296.801,447.66 295.134,447.494 293.5,447C 295.809,444.949 297.976,445.116 300,447.5C 300.667,450.5 300.667,453.5 300,456.5C 299.329,455.748 298.496,455.414 297.5,455.5 Z"/></g>
<g><path style="opacity:1" fill="#393939" d="M 460.5,453.5 C 461.242,451.574 462.242,449.741 463.5,448C 461.744,447.798 460.078,447.298 458.5,446.5C 460.743,445.526 463.076,445.192 465.5,445.5C 464.849,448.803 463.182,451.47 460.5,453.5 Z"/></g>
<g><path style="opacity:1" fill="#222222" d="M 363.5,445.5 C 368.339,444.677 370.673,446.677 370.5,451.5C 368.167,451.5 365.833,451.5 363.5,451.5C 363.33,452.822 363.663,453.989 364.5,455C 366.167,455.333 367.833,455.667 369.5,456C 361.281,456.505 359.281,453.005 363.5,445.5 Z"/></g>
<g><path style="opacity:1" fill="#d7d7d7" d="M 363.5,447.5 C 365.167,447.5 366.833,447.5 368.5,447.5C 368.5,448.5 368.5,449.5 368.5,450.5C 366.833,450.5 365.167,450.5 363.5,450.5C 363.5,449.5 363.5,448.5 363.5,447.5 Z"/></g>
<g><path style="opacity:1" fill="#242424" d="M 81.5,445.5 C 88.6619,445.613 88.9952,446.613 82.5,448.5C 83.4363,449.974 84.7697,450.974 86.5,451.5C 87.7472,453.006 87.7472,454.506 86.5,456C 84.4213,456.808 82.4213,456.641 80.5,455.5C 81.9091,455.346 83.5758,455.179 85.5,455C 85.9574,454.586 86.2907,454.086 86.5,453.5C 84.9991,452.248 83.3325,451.248 81.5,450.5C 80.3336,448.833 80.3336,447.166 81.5,445.5 Z"/></g>
<g><path style="opacity:1" fill="#2d2d2d" d="M 170.5,445.5 C 178.377,446.381 178.377,447.381 170.5,448.5C 172.95,449.711 174.95,451.378 176.5,453.5C 176.392,454.442 176.059,455.275 175.5,456C 173.421,456.808 171.421,456.641 169.5,455.5C 170.887,455.193 172.554,455.193 174.5,455.5C 174.594,452.459 173.094,450.793 170,450.5C 169.36,448.735 169.527,447.068 170.5,445.5 Z"/></g>
<g><path style="opacity:1" fill="#272727" d="M 274.5,456.5 C 274.187,452.958 274.521,449.625 275.5,446.5C 277.936,444.983 280.102,445.316 282,447.5C 287.096,444.232 289.596,445.732 289.5,452C 289.167,453.5 288.833,455 288.5,456.5C 287.516,453.572 287.183,450.572 287.5,447.5C 285.856,447.286 284.356,447.62 283,448.5C 281.65,458.868 280.816,458.535 280.5,447.5C 278.856,447.286 277.356,447.62 276,448.5C 275.817,451.365 275.317,454.031 274.5,456.5 Z"/></g>
<g><path style="opacity:1" fill="#2f2f2f" d="M 303.5,445.5 C 305.924,445.192 308.257,445.526 310.5,446.5C 308.694,449.472 306.694,452.305 304.5,455C 306.5,455.333 308.5,455.667 310.5,456C 307.773,456.818 305.106,456.652 302.5,455.5C 304.412,453.343 306.079,451.009 307.5,448.5C 305.668,447.943 304.335,446.943 303.5,445.5 Z"/></g>
<g><path style="opacity:1" fill="#e9e9e9" d="M 74.5,455.5 C 71.306,455.824 70.306,454.658 71.5,452C 72.7932,451.51 74.1266,451.343 75.5,451.5C 75.5674,452.959 75.2341,454.292 74.5,455.5 Z"/></g>
<g><path style="opacity:1" fill="#e9e9e9" d="M 107.5,455.5 C 104.306,455.824 103.306,454.658 104.5,452C 105.793,451.51 107.127,451.343 108.5,451.5C 108.567,452.959 108.234,454.292 107.5,455.5 Z"/></g>
<g><path style="opacity:1" fill="#1f1f1f" d="M 216.5,447.5 C 216.665,450.518 216.498,453.518 216,456.5C 213.766,456.626 211.432,456.293 209,455.5C 207.923,452.738 208.756,451.072 211.5,450.5C 212.833,450.5 214.167,450.5 215.5,450.5C 215.263,449.209 215.596,448.209 216.5,447.5 Z"/></g>
<g><path style="opacity:1" fill="#e2e2e2" d="M 210.5,451.5 C 211.833,451.5 213.167,451.5 214.5,451.5C 214.114,455.738 212.448,456.404 209.5,453.5C 209.863,452.817 210.196,452.15 210.5,451.5 Z"/></g>
<g><path style="opacity:1" fill="#e9e9e9" d="M 297.5,455.5 C 294.306,455.824 293.306,454.658 294.5,452C 295.793,451.51 297.127,451.343 298.5,451.5C 298.567,452.959 298.234,454.292 297.5,455.5 Z"/></g>
<g><path style="opacity:1" fill="#323232" d="M 133.5,445.5 C 138.578,444.745 140.911,446.912 140.5,452C 140.167,453.5 139.833,455 139.5,456.5C 137.328,456.324 134.995,456.157 132.5,456C 131.167,454.333 131.167,452.667 132.5,451C 134.473,450.505 136.473,450.338 138.5,450.5C 138.5,449.5 138.5,448.5 138.5,447.5C 136.473,447.662 134.473,447.495 132.5,447C 133.056,446.617 133.389,446.117 133.5,445.5 Z"/></g>
<g><path style="opacity:1" fill="#e9e9e9" d="M 133.5,451.5 C 135.288,451.215 136.955,451.548 138.5,452.5C 137.579,454.756 135.912,455.756 133.5,455.5C 133.5,454.167 133.5,452.833 133.5,451.5 Z"/></g>
<g><path style="opacity:1" fill="#323232" d="M 180.5,445.5 C 185.578,444.745 187.911,446.912 187.5,452C 187.167,453.5 186.833,455 186.5,456.5C 184.328,456.324 181.995,456.157 179.5,456C 178.167,454.333 178.167,452.667 179.5,451C 181.473,450.505 183.473,450.338 185.5,450.5C 185.5,449.5 185.5,448.5 185.5,447.5C 183.473,447.662 181.473,447.495 179.5,447C 180.056,446.617 180.389,446.117 180.5,445.5 Z"/></g>
<g><path style="opacity:1" fill="#e9e9e9" d="M 180.5,451.5 C 182.288,451.215 183.955,451.548 185.5,452.5C 184.579,454.756 182.912,455.756 180.5,455.5C 180.5,454.167 180.5,452.833 180.5,451.5 Z"/></g>
<g><path style="opacity:1" fill="#252525" d="M 235.5,455.5 C 234.054,456.613 232.387,456.78 230.5,456C 229.521,451.483 231.521,449.65 236.5,450.5C 236.5,449.5 236.5,448.5 236.5,447.5C 234.712,447.785 233.045,447.452 231.5,446.5C 233.949,445.09 236.116,445.424 238,447.5C 238.821,450.554 238.655,453.554 237.5,456.5C 236.817,456.137 236.15,455.804 235.5,455.5 Z"/></g>
<g><path style="opacity:1" fill="#e6e6e6" d="M 235.5,455.5 C 234.167,455.5 232.833,455.5 231.5,455.5C 231.384,452.09 233.05,450.756 236.5,451.5C 236.567,452.959 236.234,454.292 235.5,455.5 Z"/></g>
<g><path style="opacity:1" fill="#323232" d="M 249.5,445.5 C 254.578,444.745 256.911,446.912 256.5,452C 256.167,453.5 255.833,455 255.5,456.5C 253.328,456.324 250.995,456.157 248.5,456C 247.167,454.333 247.167,452.667 248.5,451C 250.473,450.505 252.473,450.338 254.5,450.5C 254.5,449.5 254.5,448.5 254.5,447.5C 252.473,447.662 250.473,447.495 248.5,447C 249.056,446.617 249.389,446.117 249.5,445.5 Z"/></g>
<g><path style="opacity:1" fill="#e9e9e9" d="M 249.5,451.5 C 251.288,451.215 252.955,451.548 254.5,452.5C 253.579,454.756 251.912,455.756 249.5,455.5C 249.5,454.167 249.5,452.833 249.5,451.5 Z"/></g>
<g><path style="opacity:1" fill="#252525" d="M 330.5,455.5 C 329.054,456.613 327.387,456.78 325.5,456C 324.521,451.483 326.521,449.65 331.5,450.5C 331.5,449.5 331.5,448.5 331.5,447.5C 329.712,447.785 328.045,447.452 326.5,446.5C 328.949,445.09 331.116,445.424 333,447.5C 333.821,450.554 333.655,453.554 332.5,456.5C 331.817,456.137 331.15,455.804 330.5,455.5 Z"/></g>
<g><path style="opacity:1" fill="#e6e6e6" d="M 330.5,455.5 C 329.167,455.5 327.833,455.5 326.5,455.5C 326.384,452.09 328.05,450.756 331.5,451.5C 331.567,452.959 331.234,454.292 330.5,455.5 Z"/></g>
<g><path style="opacity:1" fill="#252525" d="M 401.5,455.5 C 400.054,456.613 398.387,456.78 396.5,456C 395.521,451.483 397.521,449.65 402.5,450.5C 402.5,449.5 402.5,448.5 402.5,447.5C 400.712,447.785 399.045,447.452 397.5,446.5C 399.949,445.09 402.116,445.424 404,447.5C 404.821,450.554 404.655,453.554 403.5,456.5C 402.817,456.137 402.15,455.804 401.5,455.5 Z"/></g>
<g><path style="opacity:1" fill="#e6e6e6" d="M 401.5,455.5 C 400.167,455.5 398.833,455.5 397.5,455.5C 397.384,452.09 399.05,450.756 402.5,451.5C 402.567,452.959 402.234,454.292 401.5,455.5 Z"/></g>
<g><path style="opacity:1" fill="#323232" d="M 431.5,445.5 C 436.578,444.745 438.911,446.912 438.5,452C 438.167,453.5 437.833,455 437.5,456.5C 435.328,456.324 432.995,456.157 430.5,456C 429.167,454.333 429.167,452.667 430.5,451C 432.473,450.505 434.473,450.338 436.5,450.5C 436.5,449.5 436.5,448.5 436.5,447.5C 434.473,447.662 432.473,447.495 430.5,447C 431.056,446.617 431.389,446.117 431.5,445.5 Z"/></g>
<g><path style="opacity:1" fill="#e9e9e9" d="M 431.5,451.5 C 433.288,451.215 434.955,451.548 436.5,452.5C 435.579,454.756 433.912,455.756 431.5,455.5C 431.5,454.167 431.5,452.833 431.5,451.5 Z"/></g>
<g><path style="opacity:1" fill="#323232" d="M 449.5,445.5 C 454.578,444.745 456.911,446.912 456.5,452C 456.167,453.5 455.833,455 455.5,456.5C 453.328,456.324 450.995,456.157 448.5,456C 447.167,454.333 447.167,452.667 448.5,451C 450.473,450.505 452.473,450.338 454.5,450.5C 454.5,449.5 454.5,448.5 454.5,447.5C 452.473,447.662 450.473,447.495 448.5,447C 449.056,446.617 449.389,446.117 449.5,445.5 Z"/></g>
<g><path style="opacity:1" fill="#e9e9e9" d="M 449.5,451.5 C 451.288,451.215 452.955,451.548 454.5,452.5C 453.579,454.756 451.912,455.756 449.5,455.5C 449.5,454.167 449.5,452.833 449.5,451.5 Z"/></g>
<g><path style="opacity:1" fill="#323232" d="M 524.5,445.5 C 529.578,444.745 531.911,446.912 531.5,452C 531.167,453.5 530.833,455 530.5,456.5C 528.328,456.324 525.995,456.157 523.5,456C 522.167,454.333 522.167,452.667 523.5,451C 525.473,450.505 527.473,450.338 529.5,450.5C 529.5,449.5 529.5,448.5 529.5,447.5C 527.473,447.662 525.473,447.495 523.5,447C 524.056,446.617 524.389,446.117 524.5,445.5 Z"/></g>
<g><path style="opacity:1" fill="#e9e9e9" d="M 524.5,451.5 C 526.288,451.215 527.955,451.548 529.5,452.5C 528.579,454.756 526.912,455.756 524.5,455.5C 524.5,454.167 524.5,452.833 524.5,451.5 Z"/></g>
<g><path style="opacity:1" fill="#191919" d="M 263.5,449.5 C 263.5,449.833 263.5,450.167 263.5,450.5C 262.883,452.229 261.883,453.729 260.5,455C 262.5,455.333 264.5,455.667 266.5,456C 256.882,457.535 255.882,455.369 263.5,449.5 Z"/></g>
<g><path style="opacity:1" fill="#2e2e2e" d="M 320.5,441.5 C 321.809,443.571 322.475,446.071 322.5,449C 322.167,451.5 321.833,454 321.5,456.5C 319.328,456.324 316.995,456.157 314.5,456C 311.282,451.409 312.115,447.909 317,445.5C 317.873,445.735 318.707,446.069 319.5,446.5C 320.452,444.955 320.785,443.288 320.5,441.5 Z"/></g>
<g><path style="opacity:1" fill="#f1f1f1" d="M 315.5,447.5 C 320.068,447.083 321.568,449.083 320,453.5C 318.604,455.527 316.938,455.86 315,454.5C 314.297,452.071 314.463,449.738 315.5,447.5 Z"/></g>
<g><path style="opacity:1" fill="#121212" d="M 151.5,453.5 C 152.949,455.164 154.949,455.998 157.5,456C 154.773,456.818 152.106,456.652 149.5,455.5C 149.855,454.478 150.522,453.811 151.5,453.5 Z"/></g>
<g><path style="opacity:1" fill="#121212" d="M 460.5,453.5 C 461.949,455.164 463.949,455.998 466.5,456C 463.773,456.818 461.106,456.652 458.5,455.5C 458.855,454.478 459.522,453.811 460.5,453.5 Z"/></g>
<g><path style="opacity:1" fill="#3a3a3a" d="M 386.5,445.5 C 389.187,445.336 391.854,445.503 394.5,446C 392.954,447.44 392.121,449.273 392,451.5C 390.491,452.09 388.991,452.756 387.5,453.5C 389.341,454.23 391.175,454.897 393,455.5C 393.865,460.67 391.699,462.503 386.5,461C 385.484,460.481 384.818,459.647 384.5,458.5C 385.103,454.111 385.77,449.778 386.5,445.5 Z"/></g>
<g><path style="opacity:1" fill="#f6f6f6" d="M 386.5,456.5 C 388.5,456.5 390.5,456.5 392.5,456.5C 392.5,457.5 392.5,458.5 392.5,459.5C 390.5,459.5 388.5,459.5 386.5,459.5C 386.5,458.5 386.5,457.5 386.5,456.5 Z"/></g>
<g><path style="opacity:1" fill="#dedede" d="M 387.5,446.5 C 391.161,446.35 392.161,447.85 390.5,451C 386.707,451.487 385.707,449.987 387.5,446.5 Z"/></g>
</svg>
