<?xml version="1.0" encoding="UTF-8"?>
<!DOCTYPE svg PUBLIC "-//W3C//DTD SVG 1.1//EN" "http://www.w3.org/Graphics/SVG/1.1/DTD/svg11.dtd">
<svg xmlns="http://www.w3.org/2000/svg" version="1.1" width="1000px" height="500px" style="shape-rendering:geometricPrecision; text-rendering:geometricPrecision; image-rendering:optimizeQuality; fill-rule:evenodd; clip-rule:evenodd" xmlns:xlink="http://www.w3.org/1999/xlink">
<g><path style="opacity:1" fill="#fefefe" d="M -0.5,-0.5 C 332.833,-0.5 666.167,-0.5 999.5,-0.5C 999.5,166.167 999.5,332.833 999.5,499.5C 666.167,499.5 332.833,499.5 -0.5,499.5C -0.5,332.833 -0.5,166.167 -0.5,-0.5 Z"/></g>
<g><path style="opacity:1" fill="#111111" d="M 413.5,44.5 C 414.572,46.9358 413.905,49.1025 411.5,51C 404.709,54.2985 398.042,57.7985 391.5,61.5C 390.884,58.876 391.884,56.7093 394.5,55C 401.217,51.9795 407.551,48.4795 413.5,44.5 Z"/></g>
<g><path style="opacity:1" fill="#121212" d="M 411.5,56.5 C 414.872,57.5697 414.872,59.4031 411.5,62C 404.991,65.7549 398.324,69.2549 391.5,72.5C 390.884,69.876 391.884,67.7093 394.5,66C 400.552,63.3126 406.219,60.1459 411.5,56.5 Z"/></g>
<g><path style="opacity:1" fill="#101010" d="M 644.5,78.5 C 644.187,81.2469 644.52,83.9135 645.5,86.5C 646.107,86.3764 646.44,86.0431 646.5,85.5C 652.273,83.7274 653.106,81.0607 649,77.5C 647.404,70.6811 649.904,66.3477 656.5,64.5C 658.374,64.3898 659.874,65.0564 661,66.5C 661.851,70.0417 661.351,73.3751 659.5,76.5C 662.04,79.039 662.874,82.039 662,85.5C 661.586,85.9574 661.086,86.2907 660.5,86.5C 658.851,85.3523 657.351,84.019 656,82.5C 651.589,87.7673 646.089,91.1006 639.5,92.5C 641.085,88.9892 641.585,85.3225 641,81.5C 639.951,80.4829 638.784,80.3162 637.5,81C 636.789,82.2547 635.956,83.4214 635,84.5C 633.699,79.4381 635.366,75.7715 640,73.5C 642.743,74.0749 644.243,75.7415 644.5,78.5 Z"/></g>
<g><path style="opacity:1" fill="#121212" d="M 483.5,68.5 C 484.572,70.9358 483.905,73.1025 481.5,75C 474.709,78.2985 468.042,81.7985 461.5,85.5C 460.417,84.635 460.251,83.635 461,82.5C 462.167,81.3333 463.333,80.1667 464.5,79C 471.217,75.9795 477.551,72.4795 483.5,68.5 Z"/></g>
<g><path style="opacity:1" fill="#ececec" d="M 652.5,69.5 C 656.252,69.5007 657.252,71.1674 655.5,74.5C 653.244,73.5791 652.244,71.9124 652.5,69.5 Z"/></g>
<g><path style="opacity:1" fill="#121212" d="M 880.5,73.5 C 883.872,74.5697 883.872,76.4031 880.5,79C 873.991,82.7549 867.324,86.2549 860.5,89.5C 859.884,86.876 860.884,84.7093 863.5,83C 869.552,80.3126 875.219,77.1459 880.5,73.5 Z"/></g>
<g><path style="opacity:1" fill="#8b8b8b" d="M 644.5,78.5 C 645.167,80.8333 645.833,83.1667 646.5,85.5C 646.44,86.0431 646.107,86.3764 645.5,86.5C 644.52,83.9135 644.187,81.2469 644.5,78.5 Z"/></g>
<g><path style="opacity:1" fill="#0b0b0b" d="M 404.5,81.5 C 406.969,84.1438 409.302,86.9772 411.5,90C 409.106,91.9522 407.606,94.4522 407,97.5C 407.166,113.34 405,128.84 400.5,144C 401.656,147.958 402.656,151.958 403.5,156C 403.066,160.535 401.066,164.202 397.5,167C 390.174,167.5 382.841,167.666 375.5,167.5C 375.5,164.5 375.5,161.5 375.5,158.5C 384.203,157.822 390.536,153.489 394.5,145.5C 387.161,131.129 377.661,118.462 366,107.5C 364.607,108.615 363.107,109.115 361.5,109C 357.241,105.642 354.074,101.475 352,96.5C 351.383,92.6772 352.217,89.1772 354.5,86C 355.5,85.3333 356.5,85.3333 357.5,86C 373.793,101.77 387.293,119.603 398,139.5C 402.538,123.627 403.704,107.46 401.5,91C 401.806,87.5846 402.806,84.4179 404.5,81.5 Z"/></g>
<g><path style="opacity:1" fill="#141414" d="M 518.5,86.5 C 529.57,88.3118 532.404,94.3118 527,104.5C 518.363,111.213 513.196,109.213 511.5,98.5C 511.8,93.2234 514.133,89.2234 518.5,86.5 Z"/></g>
<g><path style="opacity:1" fill="#131313" d="M 695.5,86.5 C 702.112,86.2795 705.778,89.4461 706.5,96C 706.161,102.855 702.661,107.021 696,108.5C 690.287,107.439 687.787,103.939 688.5,98C 688.586,92.7575 690.919,88.9242 695.5,86.5 Z"/></g>
<g><path style="opacity:1" fill="#0b0b0b" d="M 296.5,88.5 C 297.822,88.33 298.989,88.6634 300,89.5C 301.123,92.2487 302.623,94.7487 304.5,97C 301.112,99.2756 299.446,102.442 299.5,106.5C 300.768,114.541 302.268,122.541 304,130.5C 305.246,140.419 304.246,150.085 301,159.5C 295.792,167.114 288.626,169.614 279.5,167C 274.049,163.876 268.883,160.376 264,156.5C 258.922,161.241 253.089,164.741 246.5,167C 238.224,168.868 230.89,167.035 224.5,161.5C 223.952,167.875 220.618,170.041 214.5,168C 209.423,165.42 204.756,162.253 200.5,158.5C 197.646,161.188 194.646,163.688 191.5,166C 187.605,167.266 183.605,167.766 179.5,167.5C 178.825,178.682 174.492,188.182 166.5,196C 160.279,199.356 153.612,200.356 146.5,199C 144.22,198.767 142.22,197.934 140.5,196.5C 157.937,195.619 169.937,187.119 176.5,171C 174.713,167.71 172.713,164.543 170.5,161.5C 171.838,158.824 173.171,156.158 174.5,153.5C 175.981,154.48 177.315,155.647 178.5,157C 185.576,158.356 192.243,157.356 198.5,154C 202.203,150.633 205.536,146.966 208.5,143C 209.729,142.219 211.062,141.719 212.5,141.5C 218.329,146.491 224.329,151.324 230.5,156C 236.749,157.536 243.083,157.87 249.5,157C 252.621,156.274 255.287,154.774 257.5,152.5C 254.263,150.965 251.097,149.298 248,147.5C 248.86,141.955 252.027,138.122 257.5,136C 262.921,135.161 268.254,135.494 273.5,137C 278.458,138.938 280.291,142.438 279,147.5C 276.766,149.7 274.266,151.533 271.5,153C 279.777,158.174 288.443,158.841 297.5,155C 300.167,153 301.5,150.333 301.5,147C 299.603,134.453 297.437,121.953 295,109.5C 293.999,102.33 294.499,95.33 296.5,88.5 Z"/></g>
<g><path style="opacity:1" fill="#121212" d="M 743.5,88.5 C 744.572,90.9358 743.905,93.1025 741.5,95C 734.709,98.2985 728.042,101.798 721.5,105.5C 720.417,104.635 720.251,103.635 721,102.5C 722.167,101.333 723.333,100.167 724.5,99C 731.217,95.9795 737.551,92.4795 743.5,88.5 Z"/></g>
<g><path style="opacity:1" fill="#121212" d="M 205.5,89.5 C 215.022,90.8855 218.189,96.2188 215,105.5C 206.122,114.803 200.622,113.303 198.5,101C 198.586,95.7575 200.919,91.9242 205.5,89.5 Z"/></g>
<g><path style="opacity:1" fill="#131313" d="M 819.5,90.5 C 820.376,90.3691 821.043,90.7025 821.5,91.5C 820.627,93.4134 819.627,95.2467 818.5,97C 811.676,100.245 805.009,103.745 798.5,107.5C 797.422,105.525 797.755,103.692 799.5,102C 806.393,98.3924 813.059,94.5591 819.5,90.5 Z"/></g>
<g><path style="opacity:1" fill="#f3f3f3" d="M 515.5,92.5 C 521.51,91.5606 525.01,93.8939 526,99.5C 517.571,103.567 514.071,101.234 515.5,92.5 Z"/></g>
<g><path style="opacity:1" fill="#eeeeee" d="M 692.5,92.5 C 697.194,91.7002 700.694,93.3669 703,97.5C 703.667,98.1667 703.667,98.8333 703,99.5C 697.799,102.888 693.633,102.055 690.5,97C 691.044,95.415 691.711,93.915 692.5,92.5 Z"/></g>
<g><path style="opacity:1" fill="#0c0c0c" d="M 475.5,94.5 C 477.905,110.036 480.405,125.703 483,141.5C 484.191,147.129 486.358,152.296 489.5,157C 503.009,158.775 515.676,156.275 527.5,149.5C 519.18,144.17 510.18,142.503 500.5,144.5C 503.562,134.137 510.229,130.971 520.5,135C 533.169,142.417 546.836,145.584 561.5,144.5C 561.534,147.199 560.867,149.699 559.5,152C 550.5,152.333 541.5,152.667 532.5,153C 522.948,156.891 513.615,161.225 504.5,166C 499.238,167.439 493.904,167.772 488.5,167C 485.244,165.413 483.077,162.913 482,159.5C 479.244,147.965 477.244,136.299 476,124.5C 473.883,133.173 471.55,141.84 469,150.5C 466.442,159.723 460.942,166.556 452.5,171C 445.611,173.305 438.611,175.139 431.5,176.5C 430.167,175.833 430.167,175.167 431.5,174.5C 440.651,170.427 449.318,165.594 457.5,160C 460.716,157.063 463.049,153.563 464.5,149.5C 459.614,137.947 451.614,129.281 440.5,123.5C 438.653,124.186 436.986,125.186 435.5,126.5C 424.393,124.235 419.893,117.568 422,106.5C 422.779,105.272 423.779,104.272 425,103.5C 444.177,111.342 458.177,124.676 467,143.5C 471.586,129.226 473.586,114.559 473,99.5C 473.847,97.8068 474.68,96.1401 475.5,94.5 Z"/></g>
<g><path style="opacity:1" fill="#0f0f0f" d="M 845.5,93.5 C 847.736,113.721 850.236,134.054 853,154.5C 853.833,155.333 854.667,156.167 855.5,157C 867.08,159.358 877.58,157.191 887,150.5C 887.558,147.946 886.725,145.946 884.5,144.5C 881.711,149.894 877.378,152.061 871.5,151C 869.667,150.5 868.5,149.333 868,147.5C 866.693,138.422 869.193,130.588 875.5,124C 878.62,123.641 881.12,124.808 883,127.5C 887.032,133.062 889.532,139.229 890.5,146C 890.207,155.596 885.54,161.93 876.5,165C 868.09,168.14 859.757,168.14 851.5,165C 849.437,162.489 847.937,159.656 847,156.5C 845.536,139.291 843.703,122.125 841.5,105C 841.291,100.594 842.624,96.7602 845.5,93.5 Z"/></g>
<g><path style="opacity:1" fill="#f5f5f5" d="M 202.5,95.5 C 208.203,94.7299 211.37,97.0632 212,102.5C 206.849,105.901 203.016,104.901 200.5,99.5C 200.752,97.9271 201.418,96.5938 202.5,95.5 Z"/></g>
<g><path style="opacity:1" fill="#121212" d="M 577.5,93.5 C 580.682,111.765 583.015,130.432 584.5,149.5C 583.802,155.658 582.469,161.658 580.5,167.5C 580.502,161.956 580.336,156.289 580,150.5C 578.077,136.511 576.243,122.511 574.5,108.5C 574.865,103.34 575.865,98.3402 577.5,93.5 Z"/></g>
<g><path style="opacity:1" fill="#121212" d="M 271.5,98.5 C 272.572,100.936 271.905,103.103 269.5,105C 262.709,108.298 256.042,111.798 249.5,115.5C 248.417,114.635 248.251,113.635 249,112.5C 250.167,111.333 251.333,110.167 252.5,109C 259.217,105.98 265.551,102.48 271.5,98.5 Z"/></g>
<g><path style="opacity:1" fill="#0d0d0d" d="M 880.5,102.5 C 888.127,104.876 889.127,108.709 883.5,114C 880.633,113.819 878.133,112.652 876,110.5C 874.216,112.367 872.216,114.034 870,115.5C 866.471,114.301 864.804,111.968 865,108.5C 866.574,107.016 867.907,105.349 869,103.5C 871.257,105.046 873.424,106.712 875.5,108.5C 877.164,106.509 878.831,104.509 880.5,102.5 Z"/></g>
<g><path style="opacity:1" fill="#0f0f0f" d="M 665.5,111.5 C 666.931,111.881 667.764,112.881 668,114.5C 669.685,126.633 672.019,138.633 675,150.5C 675.69,153.196 677.19,155.363 679.5,157C 684.833,157.667 690.167,157.667 695.5,157C 698.835,156.335 700.668,154.502 701,151.5C 699.62,148.572 698.12,145.738 696.5,143C 697.611,139.945 699.111,137.112 701,134.5C 701.667,135.167 702.333,135.833 703,136.5C 704.527,142.415 704.861,148.415 704,154.5C 703.289,161.545 699.455,165.711 692.5,167C 687.833,167.667 683.167,167.667 678.5,167C 676.376,165.878 674.543,164.378 673,162.5C 671.769,159.039 670.269,155.706 668.5,152.5C 662.196,163.151 652.862,167.651 640.5,166C 635.433,164.63 633.267,161.463 634,156.5C 634.725,154.051 635.725,151.717 637,149.5C 637.793,152.535 639.626,154.701 642.5,156C 649.355,157.035 656.022,156.368 662.5,154C 663.333,153.167 664.167,152.333 665,151.5C 666.555,146.618 666.888,141.618 666,136.5C 664.989,131.458 663.823,126.458 662.5,121.5C 663.104,118.024 664.104,114.691 665.5,111.5 Z"/></g>
<g><path style="opacity:1" fill="#0e0e0e" d="M 739.5,122.5 C 742.877,122.69 745.544,124.19 747.5,127C 744.432,135.079 740.432,135.579 735.5,128.5C 736.844,126.471 738.177,124.471 739.5,122.5 Z"/></g>
<g><path style="opacity:1" fill="#0c0c0c" d="M 810.5,130.5 C 821.665,130.579 828.331,136.079 830.5,147C 830.624,149.59 829.958,151.923 828.5,154C 819.676,153.471 811.343,155.137 803.5,159C 801.951,160.214 800.785,161.714 800,163.5C 799.856,167.504 800.189,171.504 801,175.5C 803.554,186.657 806.054,197.823 808.5,209C 808.369,211.253 807.869,213.419 807,215.5C 802.314,199.923 798.814,184.09 796.5,168C 797.048,162.69 798.215,157.524 800,152.5C 804.221,147.921 809.388,144.921 815.5,143.5C 814.33,141.745 812.663,140.745 810.5,140.5C 801.731,146.058 800.231,144.058 806,134.5C 807.397,132.93 808.897,131.596 810.5,130.5 Z"/></g>
<g><path style="opacity:1" fill="#0c0c0c" d="M 131.5,134.5 C 134.785,134.269 137.285,135.603 139,138.5C 146.012,158.111 143.345,176.444 131,193.5C 124.119,201.558 115.619,203.725 105.5,200C 102.79,198.985 100.457,197.485 98.5,195.5C 112.916,198.557 124.416,193.89 133,181.5C 138.139,174.921 139.972,167.587 138.5,159.5C 132.124,164.283 126.958,163.283 123,156.5C 122.775,148.01 125.609,140.677 131.5,134.5 Z"/></g>
<g><path style="opacity:1" fill="#e9e9e9" d="M 873.5,134.5 C 875.609,135.391 877.609,136.558 879.5,138C 878.003,140.207 876.003,140.874 873.5,140C 872.248,138.172 872.248,136.339 873.5,134.5 Z"/></g>
<g><path style="opacity:1" fill="#131313" d="M 740.5,142.5 C 742.686,143.823 744.186,145.823 745,148.5C 749.811,166.076 745.644,181.243 732.5,194C 723.237,198.967 714.237,198.634 705.5,193C 720.798,193.6 732.631,187.433 741,174.5C 742.552,172.232 743.385,169.732 743.5,167C 742.077,161.149 740.077,155.482 737.5,150C 738.651,147.535 739.651,145.035 740.5,142.5 Z"/></g>
<g><path style="opacity:1" fill="#f0f0f0" d="M 129.5,146.5 C 136.129,148.34 136.129,149.84 129.5,151C 128.272,149.51 128.272,148.01 129.5,146.5 Z"/></g>
<g><path style="opacity:1" fill="#ececec" d="M 210.5,147.5 C 212.911,147.137 214.411,148.137 215,150.5C 215.704,152.278 216.204,154.112 216.5,156C 216.612,157.662 215.946,158.829 214.5,159.5C 211.567,158.07 209.067,156.07 207,153.5C 206.651,150.669 207.817,148.669 210.5,147.5 Z"/></g>
<g><path style="opacity:1" fill="#d6d6d6" d="M 396.5,150.5 C 399.85,156.68 397.85,159.18 390.5,158C 393.094,155.914 395.094,153.414 396.5,150.5 Z"/></g>
<g><path style="opacity:1" fill="#0f0f0f" d="M 526.5,175.5 C 535.118,178.089 535.785,182.089 528.5,187.5C 521.299,184.567 520.632,180.567 526.5,175.5 Z"/></g>
<g><path style="opacity:1" fill="#0d0d0d" d="M 699.5,175.5 C 707.704,177.947 708.537,181.947 702,187.5C 699.667,185.833 697.333,184.167 695,182.5C 693.691,184.976 691.858,186.976 689.5,188.5C 687.578,187.289 685.745,185.956 684,184.5C 684.172,181.649 685.339,179.149 687.5,177C 690.146,177.92 692.646,179.42 695,181.5C 696.332,179.34 697.832,177.34 699.5,175.5 Z"/></g>
<g><path style="opacity:1" fill="#121212" d="M 304.5,178.5 C 306.811,179.961 306.811,181.794 304.5,184C 297.676,187.245 291.009,190.745 284.5,194.5C 283.152,192.389 283.485,190.555 285.5,189C 292.217,185.98 298.551,182.48 304.5,178.5 Z"/></g>
<g><path style="opacity:1" fill="#0e0e0e" d="M 576.5,183.5 C 583.26,182.488 585.26,185.154 582.5,191.5C 580.512,191.173 578.512,190.84 576.5,190.5C 574.681,190.342 573.348,191.009 572.5,192.5C 576.28,196.402 580.78,197.402 586,195.5C 587.479,196.873 587.312,198.373 585.5,200C 579.262,202.637 572.929,204.637 566.5,206C 567.79,203.708 569.457,201.708 571.5,200C 568.793,198.136 567.959,195.636 569,192.5C 571.335,189.335 573.835,186.335 576.5,183.5 Z"/></g>
<g><path style="opacity:1" fill="#868686" d="M 863.5,196.5 C 862.833,196.5 862.5,196.833 862.5,197.5C 860.704,196.207 859.037,194.707 857.5,193C 858.167,192.333 858.833,192.333 859.5,193C 861.093,193.949 862.426,195.115 863.5,196.5 Z"/></g>
<g><path style="opacity:1" fill="#767676" d="M 220.5,197.5 C 220.5,197.167 220.5,196.833 220.5,196.5C 221.562,194.243 223.228,193.077 225.5,193C 223.963,194.707 222.296,196.207 220.5,197.5 Z"/></g>
<g><path style="opacity:1" fill="#101010" d="M 513.5,246.5 C 513.334,250.514 513.501,254.514 514,258.5C 514.791,257.255 515.291,255.922 515.5,254.5C 516.506,250.142 517.673,245.809 519,241.5C 521.125,240.149 522.292,240.815 522.5,243.5C 520.77,254.01 518.437,264.343 515.5,274.5C 512.675,274.838 510.508,273.838 509,271.5C 504.833,262.5 500.667,253.5 496.5,244.5C 496.846,243.304 497.346,243.304 498,244.5C 501.512,250.86 505.012,257.194 508.5,263.5C 508.783,264.289 509.283,264.956 510,265.5C 510.814,260.98 510.647,256.646 509.5,252.5C 508.794,230.196 500.794,211.03 485.5,195C 486.167,194.333 486.833,194.333 487.5,195C 503.181,208.528 511.848,225.695 513.5,246.5 Z"/></g>
<g><path style="opacity:1" fill="#111111" d="M 775.5,245.5 C 775.334,249.846 775.501,254.179 776,258.5C 777.039,257.756 777.539,256.756 777.5,255.5C 778.354,250.769 779.52,246.102 781,241.5C 783.395,240.202 784.562,241.035 784.5,244C 782.869,254.355 780.536,264.522 777.5,274.5C 775.712,274.785 774.045,274.452 772.5,273.5C 767.115,263.743 762.615,253.743 759,243.5C 763.098,250.031 766.931,256.698 770.5,263.5C 770.783,264.289 771.283,264.956 772,265.5C 772.815,260.648 772.648,255.981 771.5,251.5C 770.843,228.359 762.176,208.859 745.5,193C 754.908,198.08 762.074,205.58 767,215.5C 771.972,224.914 774.806,234.914 775.5,245.5 Z"/></g>
<g><path style="opacity:1" fill="#121212" d="M 220.5,196.5 C 220.5,196.833 220.5,197.167 220.5,197.5C 204.037,217.064 196.87,239.73 199,265.5C 202.833,258.5 206.667,251.5 210.5,244.5C 211.002,243.479 211.668,243.312 212.5,244C 208.39,253.654 203.89,263.154 199,272.5C 197.267,274.602 195.267,274.935 193,273.5C 189.561,263.081 187.395,252.414 186.5,241.5C 187.822,241.33 188.989,241.663 190,242.5C 191.333,247.167 192.667,251.833 194,256.5C 193.874,237.211 199.541,219.878 211,204.5C 213.766,201.223 216.933,198.557 220.5,196.5 Z"/></g>
<g><path style="opacity:1" fill="#101010" d="M 863.5,196.5 C 880.995,212.51 889.495,232.51 889,256.5C 890.644,251.923 891.978,247.256 893,242.5C 894.011,241.663 895.178,241.33 896.5,241.5C 896.488,253.506 893.488,264.506 887.5,274.5C 885.971,274.471 884.804,273.804 884,272.5C 878.991,263.113 874.991,253.446 872,243.5C 876,250.833 880,258.167 884,265.5C 886.13,239.731 878.964,217.064 862.5,197.5C 862.5,196.833 862.833,196.5 863.5,196.5 Z"/></g>
<g><path style="opacity:1" fill="#111111" d="M 585.5,205.5 C 586.552,205.351 587.552,205.517 588.5,206C 587.5,207.667 586.5,209.333 585.5,211C 578.991,214.755 572.324,218.255 565.5,221.5C 564.334,219.635 564.667,217.968 566.5,216.5C 573.06,213.059 579.393,209.392 585.5,205.5 Z"/></g>
<g><path style="opacity:1" fill="#121212" d="M 173.5,207.5 C 175.811,208.961 175.811,210.794 173.5,213C 166.676,216.245 160.009,219.745 153.5,223.5C 152.152,221.389 152.485,219.555 154.5,218C 161.217,214.98 167.551,211.48 173.5,207.5 Z"/></g>
<g><path style="opacity:1" fill="#131313" d="M 174.5,219.5 C 175.572,221.936 174.905,224.103 172.5,226C 165.676,229.245 159.009,232.745 152.5,236.5C 151.892,234.316 152.559,232.316 154.5,230.5C 161.229,226.805 167.895,223.139 174.5,219.5 Z"/></g>
<g><path style="opacity:1" fill="#7c7c7c" d="M 775.5,245.5 C 776.167,248.833 776.833,252.167 777.5,255.5C 777.539,256.756 777.039,257.756 776,258.5C 775.501,254.179 775.334,249.846 775.5,245.5 Z"/></g>
<g><path style="opacity:1" fill="#929292" d="M 513.5,246.5 C 514.167,249.167 514.833,251.833 515.5,254.5C 515.291,255.922 514.791,257.255 514,258.5C 513.501,254.514 513.334,250.514 513.5,246.5 Z"/></g>
<g><path style="opacity:1" fill="#7a7a7a" d="M 771.5,251.5 C 772.648,255.981 772.815,260.648 772,265.5C 771.283,264.956 770.783,264.289 770.5,263.5C 771.483,259.702 771.817,255.702 771.5,251.5 Z"/></g>
<g><path style="opacity:1" fill="#676767" d="M 509.5,252.5 C 510.647,256.646 510.814,260.98 510,265.5C 509.283,264.956 508.783,264.289 508.5,263.5C 509.482,260.038 509.815,256.371 509.5,252.5 Z"/></g>
<g><path style="opacity:1" fill="#161616" d="M 119.5,286.5 C 122.532,286.178 124.199,287.511 124.5,290.5C 124.353,295.28 122.519,296.28 119,293.5C 118.444,291.115 118.61,288.782 119.5,286.5 Z"/></g>
<g><path style="opacity:1" fill="#101010" d="M 234.5,286.5 C 235.822,286.33 236.989,286.663 238,287.5C 238.667,289.833 238.667,292.167 238,294.5C 236.667,295.833 235.333,295.833 234,294.5C 233.278,291.739 233.445,289.073 234.5,286.5 Z"/></g>
<g><path style="opacity:1" fill="#131313" d="M 601.5,286.5 C 604.532,286.178 606.199,287.511 606.5,290.5C 606.353,295.28 604.519,296.28 601,293.5C 600.444,291.115 600.61,288.782 601.5,286.5 Z"/></g>
<g><path style="opacity:1" fill="#141414" d="M 537.5,286.5 C 541.461,287.884 542.461,290.551 540.5,294.5C 537.187,296.254 535.52,295.254 535.5,291.5C 535.437,289.486 536.103,287.819 537.5,286.5 Z"/></g>
<g><path style="opacity:1" fill="#141414" d="M 623.5,286.5 C 627.461,287.884 628.461,290.551 626.5,294.5C 623.187,296.254 621.52,295.254 621.5,291.5C 621.437,289.486 622.103,287.819 623.5,286.5 Z"/></g>
<g><path style="opacity:1" fill="#151515" d="M 812.5,286.5 C 815.734,286.237 817.068,287.737 816.5,291C 816.947,293.599 815.947,295.099 813.5,295.5C 809.837,293.019 809.504,290.019 812.5,286.5 Z"/></g>
<g><path style="opacity:1" fill="#151515" d="M 905.5,286.5 C 908.734,286.237 910.068,287.737 909.5,291C 909.947,293.599 908.947,295.099 906.5,295.5C 902.837,293.019 902.504,290.019 905.5,286.5 Z"/></g>
<g><path style="opacity:1" fill="#191919" d="M 634.5,304.5 C 633.357,307.976 633.19,311.642 634,315.5C 634.513,314.473 635.013,313.473 635.5,312.5C 636.526,309.628 638.192,307.128 640.5,305C 642.464,304.376 644.131,304.876 645.5,306.5C 646.467,314.11 646.8,321.777 646.5,329.5C 644.61,329.703 643.11,329.037 642,327.5C 641.796,320.771 641.63,314.104 641.5,307.5C 636.493,313.508 633.827,320.508 633.5,328.5C 632.178,328.67 631.011,328.337 630,327.5C 629.185,315.132 629.518,302.799 631,290.5C 631.7,288.968 632.866,287.968 634.5,287.5C 635.473,293.15 635.473,298.816 634.5,304.5 Z"/></g>
<g><path style="opacity:1" fill="#0c0c0c" d="M 481.5,289.5 C 482.833,289.5 484.167,289.5 485.5,289.5C 485.119,302.845 484.452,316.178 483.5,329.5C 482.833,329.833 482.167,330.167 481.5,330.5C 480.281,316.827 480.281,303.161 481.5,289.5 Z"/></g>
<g><path style="opacity:1" fill="#090909" d="M 611.5,289.5 C 612.833,289.5 614.167,289.5 615.5,289.5C 615.086,302.843 614.419,316.176 613.5,329.5C 612.833,329.833 612.167,330.167 611.5,330.5C 610.281,316.827 610.281,303.161 611.5,289.5 Z"/></g>
<g><path style="opacity:1" fill="#0f0f0f" d="M 824.5,301.5 C 823.809,310.734 823.142,320.068 822.5,329.5C 821.811,330.774 820.977,330.774 820,329.5C 819.309,316.151 819.475,302.817 820.5,289.5C 821.833,289.5 823.167,289.5 824.5,289.5C 824.5,293.5 824.5,297.5 824.5,301.5 Z"/></g>
<g><path style="opacity:1" fill="#1c1c1c" d="M 914.5,289.5 C 915.833,289.5 917.167,289.5 918.5,289.5C 918,302.836 917.333,316.17 916.5,329.5C 915.28,330.711 914.113,330.711 913,329.5C 912.029,316.087 912.529,302.754 914.5,289.5 Z"/></g>
<g><path style="opacity:1" fill="#111111" d="M 420.5,313.5 C 419.793,319.066 419.126,324.732 418.5,330.5C 417.167,330.5 416.5,329.833 416.5,328.5C 416.5,322.833 416.5,317.167 416.5,311.5C 415.209,311.263 414.209,311.596 413.5,312.5C 412.522,312.189 411.855,311.522 411.5,310.5C 412.85,309.05 414.516,308.383 416.5,308.5C 415.066,300.874 417.399,294.708 423.5,290C 428.395,288.884 431.061,290.884 431.5,296C 431.25,298.422 430.416,300.589 429,302.5C 427.768,299.7 427.101,296.7 427,293.5C 423.084,292.39 421.084,294.057 421,298.5C 420.503,301.146 420.336,303.813 420.5,306.5C 423.983,305.916 426.983,306.749 429.5,309C 426.607,310.149 423.607,310.649 420.5,310.5C 420.5,311.5 420.5,312.5 420.5,313.5 Z"/></g>
<g><path style="opacity:1" fill="#151515" d="M 436.5,292.5 C 437.873,292.343 439.207,292.51 440.5,293C 442.743,295.488 444.743,298.154 446.5,301C 445.167,301.667 443.833,301.667 442.5,301C 440.112,298.371 438.112,295.538 436.5,292.5 Z"/></g>
<g><path style="opacity:1" fill="#0e0e0e" d="M 754.5,289.5 C 761.109,290.258 763.276,293.925 761,300.5C 760.692,301.308 760.192,301.975 759.5,302.5C 758.752,299.503 758.085,296.503 757.5,293.5C 756.277,292.386 754.944,292.219 753.5,293C 751.752,297.294 751.085,301.794 751.5,306.5C 754.681,306.002 757.347,306.835 759.5,309C 756.487,309.502 753.487,310.002 750.5,310.5C 750.5,317.167 750.5,323.833 750.5,330.5C 749.178,330.67 748.011,330.337 747,329.5C 746.83,323.472 746.33,317.472 745.5,311.5C 744.137,312.879 743.137,312.713 742.5,311C 743.098,309.699 744.098,308.865 745.5,308.5C 745.682,300.656 748.682,294.322 754.5,289.5 Z"/></g>
<g><path style="opacity:1" fill="#0e0e0e" d="M 789.5,292.5 C 793.728,293.466 796.728,296.133 798.5,300.5C 797.635,301.583 796.635,301.749 795.5,301C 792.619,298.721 790.619,295.888 789.5,292.5 Z"/></g>
<g><path style="opacity:1" fill="#111111" d="M 883.5,300.5 C 882.532,302.607 882.198,304.941 882.5,307.5C 883.791,307.737 884.791,307.404 885.5,306.5C 888.022,306.128 890.022,306.961 891.5,309C 888.607,310.149 885.607,310.649 882.5,310.5C 882.5,317.167 882.5,323.833 882.5,330.5C 880.62,330.771 879.287,330.104 878.5,328.5C 878.5,322.833 878.5,317.167 878.5,311.5C 877.209,311.263 876.209,311.596 875.5,312.5C 874.295,310.59 874.962,309.257 877.5,308.5C 877.4,301.623 879.733,295.79 884.5,291C 887.835,288.709 890.668,289.209 893,292.5C 893.364,289.751 894.697,287.751 897,286.5C 897.772,286.645 898.439,286.978 899,287.5C 899.667,289.833 899.667,292.167 899,294.5C 897.333,295.833 895.667,295.833 894,294.5C 891.439,305.073 889.772,304.74 889,293.5C 887.951,292.483 886.784,292.316 885.5,293C 883.887,295.228 883.22,297.728 883.5,300.5 Z"/></g>
<g><path style="opacity:1" fill="#0e0e0e" d="M 119.5,303.5 C 120.833,303.5 122.167,303.5 123.5,303.5C 123.24,316.742 122.24,329.909 120.5,343C 116.046,348.172 112.546,347.672 110,341.5C 109.299,338.072 109.632,334.738 111,331.5C 112.011,330.663 113.178,330.33 114.5,330.5C 113.537,334.796 113.371,339.129 114,343.5C 115.558,344.345 116.558,343.679 117,341.5C 117.944,328.823 118.778,316.156 119.5,303.5 Z"/></g>
<g><path style="opacity:1" fill="#131313" d="M 133.5,303.5 C 138.742,302.271 142.575,303.937 145,308.5C 144.836,315.476 144.669,322.476 144.5,329.5C 143.167,329.5 141.833,329.5 140.5,329.5C 140.762,328.022 140.429,326.689 139.5,325.5C 135.953,331.047 131.786,331.714 127,327.5C 126.365,325.365 126.699,323.365 128,321.5C 130.958,317.855 134.625,315.188 139,313.5C 140.297,309.825 139.297,307.158 136,305.5C 132.403,307.361 130.903,310.361 131.5,314.5C 130.5,314.5 129.5,314.5 128.5,314.5C 128.277,309.948 129.944,306.281 133.5,303.5 Z"/></g>
<g><path style="opacity:1" fill="#131313" d="M 216.5,303.5 C 219.187,303.336 221.854,303.503 224.5,304C 225.701,304.903 226.535,306.069 227,307.5C 226.563,314.859 226.729,322.192 227.5,329.5C 224.14,330.21 222.307,328.876 222,325.5C 220.5,327 219,328.5 217.5,330C 209.607,331.023 207.44,327.857 211,320.5C 214.092,317.578 217.592,315.245 221.5,313.5C 222.952,310.718 222.619,308.218 220.5,306C 215.385,306.317 213.385,309.15 214.5,314.5C 213.167,314.5 211.833,314.5 210.5,314.5C 210.844,309.848 212.844,306.182 216.5,303.5 Z"/></g>
<g><path style="opacity:1" fill="#131313" d="M 233.5,303.5 C 234.833,303.5 236.167,303.5 237.5,303.5C 238.068,316.61 237.235,329.61 235,342.5C 232.876,346.255 229.876,347.255 226,345.5C 224.543,341.259 224.209,336.926 225,332.5C 225.71,331.027 226.876,330.36 228.5,330.5C 227.751,334.819 227.585,339.152 228,343.5C 228.414,343.957 228.914,344.291 229.5,344.5C 230.485,342.228 231.319,339.895 232,337.5C 232.282,326.146 232.782,314.813 233.5,303.5 Z"/></g>
<g><path style="opacity:1" fill="#161616" d="M 397.5,303.5 C 403.302,302.006 407.136,304.006 409,309.5C 409.001,313.85 408.501,318.183 407.5,322.5C 407.753,324.858 408.086,327.192 408.5,329.5C 405.14,330.21 403.307,328.876 403,325.5C 400.543,330.186 396.877,331.519 392,329.5C 389.777,325.612 390.277,322.112 393.5,319C 396.166,316.665 399.166,314.831 402.5,313.5C 403.952,310.718 403.619,308.218 401.5,306C 398.702,305.439 396.869,306.606 396,309.5C 395.506,311.134 395.34,312.801 395.5,314.5C 393.365,314.853 392.032,314.02 391.5,312C 392.927,308.743 394.927,305.91 397.5,303.5 Z"/></g>
<g><path style="opacity:1" fill="#0e0e0e" d="M 535.5,303.5 C 536.833,303.5 538.167,303.5 539.5,303.5C 538.815,311.816 538.482,320.149 538.5,328.5C 537.178,328.67 536.011,328.337 535,327.5C 534.2,319.421 534.367,311.421 535.5,303.5 Z"/></g>
<g><path style="opacity:1" fill="#131313" d="M 583.5,303.5 C 588.742,302.271 592.575,303.937 595,308.5C 594.836,315.476 594.669,322.476 594.5,329.5C 593.167,329.5 591.833,329.5 590.5,329.5C 590.762,328.022 590.429,326.689 589.5,325.5C 585.953,331.047 581.786,331.714 577,327.5C 576.365,325.365 576.699,323.365 578,321.5C 580.958,317.855 584.625,315.188 589,313.5C 590.297,309.825 589.297,307.158 586,305.5C 582.403,307.361 580.903,310.361 581.5,314.5C 580.5,314.5 579.5,314.5 578.5,314.5C 578.277,309.948 579.944,306.281 583.5,303.5 Z"/></g>
<g><path style="opacity:1" fill="#0e0e0e" d="M 601.5,303.5 C 602.833,303.5 604.167,303.5 605.5,303.5C 605.079,316.204 604.245,328.87 603,341.5C 600.643,346.366 597.31,347.366 593,344.5C 591.595,340.928 591.262,337.261 592,333.5C 592.849,330.479 594.349,329.979 596.5,332C 595.041,336.269 595.208,340.435 597,344.5C 598.044,343.377 598.71,342.044 599,340.5C 599.687,328.138 600.52,315.805 601.5,303.5 Z"/></g>
<g><path style="opacity:1" fill="#0e0e0e" d="M 621.5,303.5 C 622.833,303.5 624.167,303.5 625.5,303.5C 624.815,311.816 624.482,320.149 624.5,328.5C 623.178,328.67 622.011,328.337 621,327.5C 620.2,319.421 620.367,311.421 621.5,303.5 Z"/></g>
<g><path style="opacity:1" fill="#161616" d="M 766.5,303.5 C 772.302,302.006 776.136,304.006 778,309.5C 778.001,313.85 777.501,318.183 776.5,322.5C 776.753,324.858 777.086,327.192 777.5,329.5C 774.14,330.21 772.307,328.876 772,325.5C 769.543,330.186 765.877,331.519 761,329.5C 758.777,325.612 759.277,322.112 762.5,319C 765.166,316.665 768.166,314.831 771.5,313.5C 772.952,310.718 772.619,308.218 770.5,306C 767.702,305.439 765.869,306.606 765,309.5C 764.506,311.134 764.34,312.801 764.5,314.5C 763.167,314.5 761.833,314.5 760.5,314.5C 760.687,312.436 761.187,310.436 762,308.5C 763.707,306.963 765.207,305.296 766.5,303.5 Z"/></g>
<g><path style="opacity:1" fill="#161616" d="M 810.5,303.5 C 811.833,303.5 813.167,303.5 814.5,303.5C 814.666,311.507 814.5,319.507 814,327.5C 812.286,328.925 810.953,328.592 810,326.5C 809.233,318.785 809.4,311.118 810.5,303.5 Z"/></g>
<g><path style="opacity:1" fill="#7b7b7b" d="M 883.5,300.5 C 883.025,303.082 883.692,305.082 885.5,306.5C 884.791,307.404 883.791,307.737 882.5,307.5C 882.198,304.941 882.532,302.607 883.5,300.5 Z"/></g>
<g><path style="opacity:1" fill="#161616" d="M 893.5,303.5 C 894.833,303.5 896.167,303.5 897.5,303.5C 897.666,311.507 897.5,319.507 897,327.5C 895.286,328.925 893.953,328.592 893,326.5C 892.233,318.785 892.4,311.118 893.5,303.5 Z"/></g>
<g><path style="opacity:1" fill="#161616" d="M 903.5,303.5 C 904.833,303.5 906.167,303.5 907.5,303.5C 907.666,311.507 907.5,319.507 907,327.5C 905.286,328.925 903.953,328.592 903,326.5C 902.233,318.785 902.4,311.118 903.5,303.5 Z"/></g>
<g><path style="opacity:1" fill="#0a0a0a" d="M 271.5,326.5 C 271.663,324.143 271.497,321.81 271,319.5C 270.59,320.901 270.09,322.234 269.5,323.5C 268.604,326.069 266.938,328.069 264.5,329.5C 262.517,328.018 260.684,326.351 259,324.5C 258.333,318.167 258.333,311.833 259,305.5C 260.356,304.62 261.856,304.286 263.5,304.5C 262.669,311.131 262.336,317.798 262.5,324.5C 263.822,324.67 264.989,324.337 266,323.5C 268.798,317.773 270.798,311.773 272,305.5C 273.011,304.663 274.178,304.33 275.5,304.5C 275.831,312.86 275.498,321.193 274.5,329.5C 273.145,328.812 272.145,327.812 271.5,326.5 Z"/></g>
<g><path style="opacity:1" fill="#181818" d="M 457.5,304.5 C 459.199,304.34 460.866,304.506 462.5,305C 461.19,311.444 461.19,317.944 462.5,324.5C 464.197,323.636 465.363,322.303 466,320.5C 468.014,315.293 469.514,309.96 470.5,304.5C 471.833,304.5 473.167,304.5 474.5,304.5C 474.5,312.833 474.5,321.167 474.5,329.5C 472.61,329.703 471.11,329.037 470,327.5C 469.667,325.5 469.333,323.5 469,321.5C 467.381,328.981 463.714,330.314 458,325.5C 456.171,318.559 456.004,311.559 457.5,304.5 Z"/></g>
<g><path style="opacity:1" fill="#171717" d="M 158.5,303.5 C 160.39,303.297 161.89,303.963 163,305.5C 163.667,307.833 163.667,310.167 163,312.5C 162.282,313.451 161.449,313.617 160.5,313C 159.762,306.931 158.262,306.431 156,311.5C 155.667,317.167 155.333,322.833 155,328.5C 153.644,329.38 152.144,329.714 150.5,329.5C 150.302,321.466 150.635,313.466 151.5,305.5C 152.5,305.5 153.5,305.5 154.5,305.5C 154.343,306.873 154.51,308.207 155,309.5C 155.926,307.308 157.093,305.308 158.5,303.5 Z"/></g>
<g><path style="opacity:1" fill="#111111" d="M 181.5,305.5 C 181.335,308.518 181.502,311.518 182,314.5C 182.513,313.473 183.013,312.473 183.5,311.5C 184.446,309.11 185.779,306.944 187.5,305C 188.833,304.333 190.167,304.333 191.5,305C 192.3,309.08 192.8,313.247 193,317.5C 193.989,312.688 196.156,308.521 199.5,305C 201.567,304.464 203.401,304.964 205,306.5C 204.786,313.572 204.786,320.572 205,327.5C 203.667,328.833 202.333,328.833 201,327.5C 200.899,321.116 200.732,314.782 200.5,308.5C 196.083,314.407 193.417,321.074 192.5,328.5C 191.167,328.5 189.833,328.5 188.5,328.5C 188.666,321.492 188.5,314.492 188,307.5C 183.818,313.87 181.318,320.87 180.5,328.5C 179.5,328.5 178.5,328.5 177.5,328.5C 177.334,320.826 177.5,313.159 178,305.5C 179.292,304.209 180.458,304.209 181.5,305.5 Z"/></g>
<g><path style="opacity:1" fill="#181818" d="M 251.5,303.5 C 255.976,303.822 257.476,306.156 256,310.5C 255.632,311.91 254.799,312.91 253.5,313.5C 251.869,311.941 251.036,309.941 251,307.5C 250.333,308.167 249.667,308.833 249,309.5C 247.749,315.725 247.083,322.058 247,328.5C 245.667,329.833 244.333,329.833 243,328.5C 242.403,320.815 242.57,313.148 243.5,305.5C 245.39,305.297 246.89,305.963 248,307.5C 249.032,305.973 250.199,304.64 251.5,303.5 Z"/></g>
<g><path style="opacity:1" fill="#181818" d="M 290.5,303.5 C 294.976,303.822 296.476,306.156 295,310.5C 294.632,311.91 293.799,312.91 292.5,313.5C 290.869,311.941 290.036,309.941 290,307.5C 289.333,308.167 288.667,308.833 288,309.5C 286.749,315.725 286.083,322.058 286,328.5C 284.667,329.833 283.333,329.833 282,328.5C 281.403,320.815 281.57,313.148 282.5,305.5C 284.39,305.297 285.89,305.963 287,307.5C 288.032,305.973 289.199,304.64 290.5,303.5 Z"/></g>
<g><path style="opacity:1" fill="#161616" d="M 359.5,304.5 C 360.833,304.5 362.167,304.5 363.5,304.5C 363.336,307.187 363.503,309.854 364,312.5C 370.807,301.211 374.473,302.211 375,315.5C 376.181,311.637 378.014,308.137 380.5,305C 382.92,304.313 385.087,304.813 387,306.5C 386.585,313.202 386.752,319.869 387.5,326.5C 386.332,328.217 384.665,328.884 382.5,328.5C 382.83,321.8 382.497,315.134 381.5,308.5C 377.463,314.611 374.796,321.278 373.5,328.5C 372.167,328.5 370.833,328.5 369.5,328.5C 370.112,321.465 370.112,314.465 369.5,307.5C 365.336,313.486 362.836,320.152 362,327.5C 360.989,328.337 359.822,328.67 358.5,328.5C 358.302,320.466 358.635,312.466 359.5,304.5 Z"/></g>
<g><path style="opacity:1" fill="#161616" d="M 502.5,304.5 C 503.5,304.5 504.5,304.5 505.5,304.5C 505.335,307.518 505.502,310.518 506,313.5C 507.211,310.241 509.044,307.408 511.5,305C 512.944,304.219 514.277,304.386 515.5,305.5C 516.262,309.111 516.762,312.778 517,316.5C 518.265,311.618 520.765,307.618 524.5,304.5C 525.938,304.719 527.271,305.219 528.5,306C 528.529,312.99 528.863,319.99 529.5,327C 528.333,330.167 526.833,330.333 525,327.5C 524.667,321.167 524.333,314.833 524,308.5C 522.171,310.156 520.837,312.156 520,314.5C 518.53,319.243 516.864,323.909 515,328.5C 514,328.167 513,327.833 512,327.5C 512.12,320.839 512.12,314.173 512,307.5C 507.423,313.729 504.923,320.729 504.5,328.5C 503.167,328.5 501.833,328.5 500.5,328.5C 500.062,320.35 500.729,312.35 502.5,304.5 Z"/></g>
<g><path style="opacity:1" fill="#6b6b6b" d="M 547.5,304.5 C 546.065,307.028 545.065,309.695 544.5,312.5C 544.5,309.833 544.5,307.167 544.5,304.5C 545.5,304.5 546.5,304.5 547.5,304.5 Z"/></g>
<g><path style="opacity:1" fill="#090909" d="M 547.5,304.5 C 547.833,304.5 548.167,304.5 548.5,304.5C 548.334,308.514 548.501,312.514 549,316.5C 549.791,315.255 550.291,313.922 550.5,312.5C 551.17,309.662 552.504,307.162 554.5,305C 556.579,304.192 558.579,304.359 560.5,305.5C 561.467,313.11 561.8,320.777 561.5,328.5C 560.178,328.67 559.011,328.337 558,327.5C 557.831,320.809 557.331,314.142 556.5,307.5C 554.803,308.364 553.637,309.697 553,311.5C 550.779,316.993 549.279,322.66 548.5,328.5C 546.833,328.5 545.167,328.5 543.5,328.5C 544.194,323.195 544.528,317.862 544.5,312.5C 545.065,309.695 546.065,307.028 547.5,304.5 Z"/></g>
<g><path style="opacity:1" fill="#636363" d="M 634.5,304.5 C 634.194,307.385 634.527,310.052 635.5,312.5C 635.013,313.473 634.513,314.473 634,315.5C 633.19,311.642 633.357,307.976 634.5,304.5 Z"/></g>
<g><path style="opacity:1" fill="#6c6c6c" d="M 824.5,301.5 C 825.139,311.227 824.472,320.56 822.5,329.5C 823.142,320.068 823.809,310.734 824.5,301.5 Z"/></g>
<g><path style="opacity:1" fill="#969696" d="M 181.5,305.5 C 182.167,307.5 182.833,309.5 183.5,311.5C 183.013,312.473 182.513,313.473 182,314.5C 181.502,311.518 181.335,308.518 181.5,305.5 Z"/></g>
<g><path style="opacity:1" fill="#787878" d="M 548.5,304.5 C 549.167,307.167 549.833,309.833 550.5,312.5C 550.291,313.922 549.791,315.255 549,316.5C 548.501,312.514 548.334,308.514 548.5,304.5 Z"/></g>
<g><path style="opacity:1" fill="#e4e4e4" d="M 138.5,316.5 C 140.344,317.204 140.844,318.537 140,320.5C 138.285,322.759 136.452,324.926 134.5,327C 130,329.167 128.833,328 131,323.5C 133.396,320.933 135.896,318.6 138.5,316.5 Z"/></g>
<g><path style="opacity:1" fill="#ededed" d="M 219.5,317.5 C 220.5,317.5 221.5,317.5 222.5,317.5C 221.239,323.093 217.906,326.759 212.5,328.5C 213.066,323.699 215.4,320.032 219.5,317.5 Z"/></g>
<g><path style="opacity:1" fill="#ececec" d="M 401.5,317.5 C 403.344,318.204 403.844,319.537 403,321.5C 401.078,325.597 397.912,327.93 393.5,328.5C 394.574,323.748 397.24,320.081 401.5,317.5 Z"/></g>
<g><path style="opacity:1" fill="#e4e4e4" d="M 588.5,316.5 C 590.344,317.204 590.844,318.537 590,320.5C 588.285,322.759 586.452,324.926 584.5,327C 580,329.167 578.833,328 581,323.5C 583.396,320.933 585.896,318.6 588.5,316.5 Z"/></g>
<g><path style="opacity:1" fill="#ececec" d="M 770.5,317.5 C 772.344,318.204 772.844,319.537 772,321.5C 770.078,325.597 766.912,327.93 762.5,328.5C 763.574,323.748 766.24,320.081 770.5,317.5 Z"/></g>
<g><path style="opacity:1" fill="#535353" d="M 413.5,312.5 C 414.209,311.596 415.209,311.263 416.5,311.5C 416.5,317.167 416.5,322.833 416.5,328.5C 416.144,322.923 415.144,317.59 413.5,312.5 Z"/></g>
<g><path style="opacity:1" fill="#8f8f8f" d="M 875.5,312.5 C 876.209,311.596 877.209,311.263 878.5,311.5C 878.5,317.167 878.5,322.833 878.5,328.5C 878.144,322.923 877.144,317.59 875.5,312.5 Z"/></g>
<g><path style="opacity:1" fill="#9a9a9a" d="M 271.5,326.5 C 270.833,325.5 270.167,324.5 269.5,323.5C 270.09,322.234 270.59,320.901 271,319.5C 271.497,321.81 271.663,324.143 271.5,326.5 Z"/></g>
<g><path style="opacity:1" fill="#505050" d="M 420.5,313.5 C 421.117,319.598 420.45,325.265 418.5,330.5C 419.126,324.732 419.793,319.066 420.5,313.5 Z"/></g>
</svg>
