<?xml version="1.0" encoding="UTF-8"?>
<!DOCTYPE svg PUBLIC "-//W3C//DTD SVG 1.1//EN" "http://www.w3.org/Graphics/SVG/1.1/DTD/svg11.dtd">
<svg xmlns="http://www.w3.org/2000/svg" version="1.1" width="1000px" height="500px" style="shape-rendering:geometricPrecision; text-rendering:geometricPrecision; image-rendering:optimizeQuality; fill-rule:evenodd; clip-rule:evenodd" xmlns:xlink="http://www.w3.org/1999/xlink">
<g><path style="opacity:1" fill="#fefefe" d="M -0.5,-0.5 C 332.833,-0.5 666.167,-0.5 999.5,-0.5C 999.5,166.167 999.5,332.833 999.5,499.5C 666.167,499.5 332.833,499.5 -0.5,499.5C -0.5,332.833 -0.5,166.167 -0.5,-0.5 Z"/></g>
<g><path style="opacity:1" fill="#111111" d="M 603.5,33.5 C 605.811,34.961 605.811,36.7944 603.5,39C 596.709,42.2985 590.042,45.7985 583.5,49.5C 582.422,47.5253 582.755,45.692 584.5,44C 591.217,40.9795 597.551,37.4795 603.5,33.5 Z"/></g>
<g><path style="opacity:1" fill="#101010" d="M 595.5,49.5 C 601.949,50.2581 603.116,53.2581 599,58.5C 595.94,55.6832 593.107,55.8499 590.5,59C 594.727,63.3065 599.727,64.6398 605.5,63C 604.743,64.5122 603.743,65.8455 602.5,67C 596.921,68.9707 591.421,71.1374 586,73.5C 584.743,73.1501 584.409,72.4835 585,71.5C 586.167,69.6667 587.667,68.1667 589.5,67C 586.793,65.1363 585.959,62.6363 587,59.5C 588.978,55.3619 591.811,52.0286 595.5,49.5 Z"/></g>
<g><path style="opacity:1" fill="#121212" d="M 359.5,56.5 C 365.839,57.0016 369.506,60.5016 370.5,67C 369.333,73.5 365.5,77.3333 359,78.5C 353.953,76.9258 351.787,73.4258 352.5,68C 352.43,62.6289 354.764,58.7955 359.5,56.5 Z"/></g>
<g><path style="opacity:1" fill="#f4f4f4" d="M 356.5,62.5 C 362.172,61.883 365.339,64.2163 366,69.5C 362.621,71.923 359.121,72.0897 355.5,70C 354.083,67.2565 354.416,64.7565 356.5,62.5 Z"/></g>
<g><path style="opacity:1" fill="#0e0e0e" d="M 642.5,81.5 C 645.269,83.6471 647.603,86.3138 649.5,89.5C 648.139,91.0284 646.972,92.6951 646,94.5C 645.773,111.525 643.273,128.192 638.5,144.5C 643.418,152.906 642.418,160.406 635.5,167C 628.174,167.5 620.841,167.666 613.5,167.5C 613.5,164.5 613.5,161.5 613.5,158.5C 623.79,158.361 629.957,153.361 632,143.5C 624.911,129.911 615.744,117.911 604.5,107.5C 602.481,109.465 600.481,109.631 598.5,108C 595.281,104.448 592.448,100.615 590,96.5C 589.585,91.9794 590.918,87.9794 594,84.5C 611.451,100.273 625.451,118.607 636,139.5C 637,136.5 638,133.5 639,130.5C 640.166,115.528 640.833,100.528 641,85.5C 641.791,84.255 642.291,82.9217 642.5,81.5 Z"/></g>
<g><path style="opacity:1" fill="#0d0d0d" d="M 363.5,87.5 C 365.856,90.3654 367.856,93.532 369.5,97C 366.271,99.5663 364.938,102.9 365.5,107C 367.166,117.331 368.833,127.665 370.5,138C 369.895,146.476 368.061,154.643 365,162.5C 363.269,164.617 361.102,166.117 358.5,167C 348.772,167.891 339.106,167.557 329.5,166C 323.808,163.025 322.142,158.525 324.5,152.5C 317.975,151.435 311.642,152.268 305.5,155C 299.009,158.078 292.675,161.412 286.5,165C 280.321,167.168 273.988,167.834 267.5,167C 265.288,164.957 263.288,162.791 261.5,160.5C 254.229,167.906 246.062,169.239 237,164.5C 235.414,161.659 233.58,158.993 231.5,156.5C 228.758,163.424 223.758,166.258 216.5,165C 214.308,163.641 212.641,161.808 211.5,159.5C 208.466,164.184 204.133,166.518 198.5,166.5C 197.7,194.263 183.367,206.763 155.5,204C 144.871,199.244 140.705,191.078 143,179.5C 144.722,174.388 147.222,169.721 150.5,165.5C 150.833,165.833 151.167,166.167 151.5,166.5C 146.656,172.966 145.489,179.966 148,187.5C 150.365,190.869 153.532,193.036 157.5,194C 169.593,196.07 180.76,193.904 191,187.5C 195.795,178.2 195.629,169.033 190.5,160C 191.444,157.278 192.777,154.778 194.5,152.5C 197.647,158.252 201.98,159.085 207.5,155C 210.378,152.291 213.044,149.458 215.5,146.5C 216.192,149.145 217.192,151.645 218.5,154C 225.234,155.549 229.734,153.049 232,146.5C 233.886,150.44 236.386,153.94 239.5,157C 249.995,159.95 258.328,157.117 264.5,148.5C 265.36,151.593 266.694,154.427 268.5,157C 282.142,158.896 294.808,156.229 306.5,149C 297.745,143.772 288.412,142.272 278.5,144.5C 280.98,135.923 286.647,132.423 295.5,134C 303.434,137.2 311.434,140.2 319.5,143C 326.856,143.169 334.189,143.669 341.5,144.5C 340.833,146.5 340.167,148.5 339.5,150.5C 335.893,151.489 332.226,151.823 328.5,151.5C 328.626,154.595 330.293,156.428 333.5,157C 341.833,157.667 350.167,157.667 358.5,157C 366.151,154.092 368.651,148.592 366,140.5C 362.796,124.949 360.796,109.283 360,93.5C 360.926,91.3083 362.093,89.3083 363.5,87.5 Z"/></g>
<g><path style="opacity:1" fill="#101010" d="M 498.5,91.5 C 500.527,91.3379 502.527,91.5045 504.5,92C 506.97,96.253 506.97,100.586 504.5,105C 505.477,106.497 506.477,107.997 507.5,109.5C 507.32,110.554 506.987,111.554 506.5,112.5C 504.219,113.185 501.886,113.351 499.5,113C 495.512,118.707 490.179,121.04 483.5,120C 488.53,116.816 493.196,113.149 497.5,109C 493.788,106.398 492.622,102.898 494,98.5C 495.511,96.1384 497.011,93.8051 498.5,91.5 Z"/></g>
<g><path style="opacity:1" fill="#0d0d0d" d="M 768.5,93.5 C 769.812,95.7432 770.478,98.4098 770.5,101.5C 771.456,114.851 772.623,128.185 774,141.5C 774.364,146.322 775.364,150.988 777,155.5C 777.5,156 778,156.5 778.5,157C 785.167,157.667 791.833,157.667 798.5,157C 805.359,154.992 812.026,152.492 818.5,149.5C 810.18,144.17 801.18,142.503 791.5,144.5C 794.562,134.137 801.229,130.971 811.5,135C 824.169,142.417 837.836,145.584 852.5,144.5C 852.534,147.199 851.867,149.699 850.5,152C 841.5,152.333 832.5,152.667 823.5,153C 813.088,158.205 802.421,162.872 791.5,167C 785.574,168.11 779.908,167.444 774.5,165C 772.438,162.932 771.272,160.432 771,157.5C 769.342,139.094 767.176,120.761 764.5,102.5C 765.03,99.1101 766.363,96.1101 768.5,93.5 Z"/></g>
<g><path style="opacity:1" fill="#131313" d="M 386.5,93.5 C 387.222,93.9175 387.722,94.5842 388,95.5C 389.086,113.037 390.586,130.537 392.5,148C 392.397,152.545 391.897,157.045 391,161.5C 390.767,163.78 389.934,165.78 388.5,167.5C 387.836,147.528 385.836,127.528 382.5,107.5C 383.232,102.64 384.566,97.9729 386.5,93.5 Z"/></g>
<g><path style="opacity:1" fill="#121212" d="M 666.5,93.5 C 668.593,111.509 670.593,129.676 672.5,148C 672.613,154.83 671.28,161.33 668.5,167.5C 668.523,161.29 668.356,154.957 668,148.5C 666.167,135.007 664.334,121.507 662.5,108C 662.722,102.837 664.056,98.0032 666.5,93.5 Z"/></g>
<g><path style="opacity:1" fill="#141414" d="M 256.5,95.5 C 267.57,97.3118 270.404,103.312 265,113.5C 256.363,120.213 251.196,118.213 249.5,107.5C 249.8,102.223 252.133,98.2234 256.5,95.5 Z"/></g>
<g><path style="opacity:1" fill="#121212" d="M 307.5,96.5 C 310.872,97.5697 310.872,99.4031 307.5,102C 300.991,105.755 294.324,109.255 287.5,112.5C 286.884,109.876 287.884,107.709 290.5,106C 296.552,103.313 302.219,100.146 307.5,96.5 Z"/></g>
<g><path style="opacity:1" fill="#121212" d="M 822.5,95.5 C 823.572,97.9358 822.905,100.103 820.5,102C 813.709,105.298 807.042,108.798 800.5,112.5C 799.417,111.635 799.251,110.635 800,109.5C 801.167,108.333 802.333,107.167 803.5,106C 810.217,102.98 816.551,99.4795 822.5,95.5 Z"/></g>
<g><path style="opacity:1" fill="#e1e1e1" d="M 497.5,97.5 C 501.225,97.7796 502.392,99.7796 501,103.5C 498.735,102.084 497.569,100.084 497.5,97.5 Z"/></g>
<g><path style="opacity:1" fill="#141414" d="M 432.5,99.5 C 433.376,99.3691 434.043,99.7025 434.5,100.5C 433.752,102.332 432.752,103.999 431.5,105.5C 424.833,109.167 418.167,112.833 411.5,116.5C 410.152,114.389 410.485,112.555 412.5,111C 419.393,107.392 426.059,103.559 432.5,99.5 Z"/></g>
<g><path style="opacity:1" fill="#f3f3f3" d="M 253.5,101.5 C 259.51,100.561 263.01,102.894 264,108.5C 255.571,112.567 252.071,110.234 253.5,101.5 Z"/></g>
<g><path style="opacity:1" fill="#121212" d="M 185.5,104.5 C 188.872,105.57 188.872,107.403 185.5,110C 178.991,113.755 172.324,117.255 165.5,120.5C 164.884,117.876 165.884,115.709 168.5,114C 174.552,111.313 180.219,108.146 185.5,104.5 Z"/></g>
<g><path style="opacity:1" fill="#121212" d="M 736.5,106.5 C 739.872,107.57 739.872,109.403 736.5,112C 729.991,115.755 723.324,119.255 716.5,122.5C 715.884,119.876 716.884,117.709 719.5,116C 725.552,113.313 731.219,110.146 736.5,106.5 Z"/></g>
<g><path style="opacity:1" fill="#0e0e0e" d="M 209.5,112.5 C 218.009,114.625 218.843,118.625 212,124.5C 209.357,123.024 207.19,121.024 205.5,118.5C 206.844,116.471 208.177,114.471 209.5,112.5 Z"/></g>
<g><path style="opacity:1" fill="#111111" d="M 216.5,125.5 C 225.139,126.941 226.473,130.775 220.5,137C 219.833,137.667 219.167,137.667 218.5,137C 216.957,135.122 215.124,133.622 213,132.5C 211.39,134.731 209.557,136.731 207.5,138.5C 200.406,135.729 199.74,131.896 205.5,127C 207.844,127.768 210.177,128.935 212.5,130.5C 214.611,129.395 215.945,127.729 216.5,125.5 Z"/></g>
<g><path style="opacity:1" fill="#0d0d0d" d="M 569.5,133.5 C 576.171,133.326 580.005,136.659 581,143.5C 583.547,149.763 582.381,155.263 577.5,160C 571.835,159.759 566.668,157.926 562,154.5C 557.865,158.965 553.365,163.132 548.5,167C 545.5,167.667 542.5,167.667 539.5,167C 537.16,165.16 535.16,162.993 533.5,160.5C 527.675,166.22 520.675,168.553 512.5,167.5C 511.76,180.149 506.427,190.316 496.5,198C 490.92,199.517 485.253,199.851 479.5,199C 477.22,198.767 475.22,197.934 473.5,196.5C 490.937,195.619 502.937,187.119 509.5,171C 507.713,167.71 505.713,164.543 503.5,161.5C 504.838,158.824 506.171,156.158 507.5,153.5C 508.981,154.48 510.315,155.647 511.5,157C 521.84,159.883 530.006,157.049 536,148.5C 537.784,157.13 542.951,159.964 551.5,157C 553.96,155.542 556.127,153.709 558,151.5C 561.095,144.963 564.929,138.963 569.5,133.5 Z"/></g>
<g><path style="opacity:1" fill="#0b0b0b" d="M 426.5,134.5 C 429.325,134.081 431.491,135.081 433,137.5C 437.783,145.53 439.45,154.197 438,163.5C 435.785,178.103 429.285,190.27 418.5,200C 410.072,202.607 402.072,201.607 394.5,197C 393.289,196.107 393.289,195.274 394.5,194.5C 401.735,197.443 408.735,196.943 415.5,193C 427.843,185.139 434.01,173.973 434,159.5C 433.667,159.167 433.333,158.833 433,158.5C 430.398,162.212 426.898,163.378 422.5,162C 417.335,157.888 416.169,152.721 419,146.5C 420.76,141.967 423.26,137.967 426.5,134.5 Z"/></g>
<g><path style="opacity:1" fill="#0d0d0d" d="M 735.5,135.5 C 743.281,136.091 745.615,140.091 742.5,147.5C 742.167,148.5 741.5,149.167 740.5,149.5C 735.264,143.956 730.43,144.289 726,150.5C 725.333,151.833 725.333,153.167 726,154.5C 734.301,161.256 743.301,162.256 753,157.5C 752.921,159.846 752.088,162.013 750.5,164C 740.475,168.452 730.642,173.286 721,178.5C 720.333,177.167 720.333,175.833 721,174.5C 724.586,172.291 728.086,169.957 731.5,167.5C 727.503,166.338 724.003,164.338 721,161.5C 719.121,158.2 719.121,154.866 721,151.5C 724.307,144.697 729.14,139.364 735.5,135.5 Z"/></g>
<g><path style="opacity:1" fill="#e4e4e4" d="M 567.5,141.5 C 572.167,141.5 574.5,143.833 574.5,148.5C 570.928,148.315 567.928,146.981 565.5,144.5C 566.193,143.482 566.859,142.482 567.5,141.5 Z"/></g>
<g><path style="opacity:1" fill="#f0f0f0" d="M 424.5,146.5 C 431.129,148.34 431.129,149.84 424.5,151C 423.272,149.51 423.272,148.01 424.5,146.5 Z"/></g>
<g><path style="opacity:1" fill="#d9d9d9" d="M 634.5,151.5 C 636.28,152.99 636.946,154.99 636.5,157.5C 633.859,158.263 631.192,158.43 628.5,158C 630.706,155.963 632.706,153.797 634.5,151.5 Z"/></g>
<g><path style="opacity:1" fill="#0e0e0e" d="M 263.5,175.5 C 271.704,177.947 272.537,181.947 266,187.5C 263.942,185.932 261.775,184.598 259.5,183.5C 257.522,184.976 255.689,186.643 254,188.5C 251.845,187.421 249.845,186.087 248,184.5C 248.658,181.531 250.158,178.865 252.5,176.5C 254.937,177.803 257.104,179.47 259,181.5C 260.752,179.649 262.252,177.649 263.5,175.5 Z"/></g>
<g><path style="opacity:1" fill="#111111" d="M 310.5,175.5 C 320.051,177.614 320.885,181.614 313,187.5C 310.54,186.042 308.373,184.209 306.5,182C 308.058,179.948 309.392,177.781 310.5,175.5 Z"/></g>
<g><path style="opacity:1" fill="#0e0e0e" d="M 535.5,175.5 C 543.379,177.628 544.379,181.462 538.5,187C 535.854,186.08 533.354,184.58 531,182.5C 529.691,184.976 527.858,186.976 525.5,188.5C 523.578,187.289 521.745,185.956 520,184.5C 520.172,181.649 521.339,179.149 523.5,177C 526.146,177.92 528.646,179.42 531,181.5C 532.332,179.34 533.832,177.34 535.5,175.5 Z"/></g>
<g><path style="opacity:1" fill="#0f0f0f" d="M 817.5,175.5 C 826.118,178.089 826.785,182.089 819.5,187.5C 812.299,184.567 811.632,180.567 817.5,175.5 Z"/></g>
<g><path style="opacity:1" fill="#131313" d="M 577.5,178.5 C 580.872,179.57 580.872,181.403 577.5,184C 570.991,187.755 564.324,191.255 557.5,194.5C 556.417,193.635 556.251,192.635 557,191.5C 558.167,190.333 559.333,189.167 560.5,188C 566.552,185.313 572.219,182.146 577.5,178.5 Z"/></g>
<g><path style="opacity:1" fill="#5d5d5d" d="M 613.5,197.5 C 612.833,197.5 612.5,197.833 612.5,198.5C 604.727,191.218 605.061,190.885 613.5,197.5 Z"/></g>
<g><path style="opacity:1" fill="#101010" d="M 812.5,195.5 C 812.897,194.475 813.563,194.308 814.5,195C 833.45,211.829 842.284,232.995 841,258.5C 842.514,252.777 844.18,247.11 846,241.5C 847,240.167 848,240.167 849,241.5C 848.32,252.723 845.82,263.556 841.5,274C 839.888,274.72 838.388,274.554 837,273.5C 831.953,264.074 827.453,254.407 823.5,244.5C 823.846,243.304 824.346,243.304 825,244.5C 828.667,251.167 832.333,257.833 836,264.5C 838.002,242.17 832.668,221.836 820,203.5C 818,200.334 815.5,197.668 812.5,195.5 Z"/></g>
<g><path style="opacity:1" fill="#111111" d="M 179.5,249.5 C 178.349,254.65 178.183,259.984 179,265.5C 179.717,264.956 180.217,264.289 180.5,263.5C 183.566,257.036 186.899,250.702 190.5,244.5C 191.167,243.167 191.833,243.167 192.5,244.5C 188.106,254.289 183.439,263.955 178.5,273.5C 176.647,274.76 174.814,274.76 173,273.5C 172.478,268.6 171.145,263.934 169,259.5C 167.839,253.536 167.006,247.536 166.5,241.5C 167.822,241.33 168.989,241.663 170,242.5C 171.327,246.809 172.494,251.142 173.5,255.5C 173.461,256.756 173.961,257.756 175,258.5C 175.499,253.845 175.666,249.179 175.5,244.5C 177.298,223.734 186.298,206.901 202.5,194C 203.167,193.333 203.833,193.333 204.5,194C 188.985,209.202 180.652,227.702 179.5,249.5 Z"/></g>
<g><path style="opacity:1" fill="#0f0f0f" d="M 613.5,197.5 C 626.991,209.815 634.657,225.148 636.5,243.5C 636.334,248.511 636.501,253.511 637,258.5C 637.717,257.956 638.217,257.289 638.5,256.5C 639.115,250.685 640.949,245.352 644,240.5C 645.064,241.944 645.564,243.611 645.5,245.5C 643.845,254.963 641.678,264.296 639,273.5C 637.612,274.554 636.112,274.72 634.5,274C 628.457,264.756 623.957,254.923 621,244.5C 625.02,250.539 628.52,256.872 631.5,263.5C 631.783,264.289 632.283,264.956 633,265.5C 633.818,259.651 633.652,253.985 632.5,248.5C 631.334,229.519 624.667,212.852 612.5,198.5C 612.5,197.833 612.833,197.5 613.5,197.5 Z"/></g>
<g><path style="opacity:1" fill="#6a6a6a" d="M 430.5,207.5 C 429.833,207.5 429.5,207.833 429.5,208.5C 428.038,207.542 426.705,206.376 425.5,205C 427.459,205.097 429.125,205.93 430.5,207.5 Z"/></g>
<g><path style="opacity:1" fill="#0b0b0b" d="M 429.5,208.5 C 429.5,207.833 429.833,207.5 430.5,207.5C 447.264,219.656 459.764,235.323 468,254.5C 476.168,274.342 479.835,295.009 479,316.5C 481.865,307.57 484.532,298.57 487,289.5C 489,286.833 491,286.833 493,289.5C 492.447,296.832 491.447,304.165 490,311.5C 487.201,322.229 484.201,332.896 481,343.5C 476.82,347.792 473.487,347.126 471,341.5C 462.952,325.406 455.452,309.072 448.5,292.5C 449.167,291.167 449.833,291.167 450.5,292.5C 457.333,304.833 464.167,317.167 471,329.5C 474.448,288.268 463.781,251.268 439,218.5C 435.601,215.271 432.435,211.938 429.5,208.5 Z"/></g>
<g><path style="opacity:1" fill="#4d4d4d" d="M 636.5,243.5 C 637.167,247.833 637.833,252.167 638.5,256.5C 638.217,257.289 637.717,257.956 637,258.5C 636.501,253.511 636.334,248.511 636.5,243.5 Z"/></g>
<g><path style="opacity:1" fill="#5e5e5e" d="M 175.5,244.5 C 175.666,249.179 175.499,253.845 175,258.5C 173.961,257.756 173.461,256.756 173.5,255.5C 174.167,251.833 174.833,248.167 175.5,244.5 Z"/></g>
<g><path style="opacity:1" fill="#a3a3a3" d="M 632.5,248.5 C 633.652,253.985 633.818,259.651 633,265.5C 632.283,264.956 631.783,264.289 631.5,263.5C 632.487,258.695 632.821,253.695 632.5,248.5 Z"/></g>
<g><path style="opacity:1" fill="#919191" d="M 179.5,249.5 C 179.181,254.363 179.514,259.03 180.5,263.5C 180.217,264.289 179.717,264.956 179,265.5C 178.183,259.984 178.349,254.65 179.5,249.5 Z"/></g>
<g><path style="opacity:1" fill="#141414" d="M 668.5,286.5 C 672.461,287.884 673.461,290.551 671.5,294.5C 668.187,296.254 666.52,295.254 666.5,291.5C 666.437,289.486 667.103,287.819 668.5,286.5 Z"/></g>
<g><path style="opacity:1" fill="#181818" d="M 826.5,294.5 C 826.5,293.167 826.5,291.833 826.5,290.5C 828.792,285.131 830.792,285.298 832.5,291C 832.098,295.032 830.098,296.199 826.5,294.5 Z"/></g>
<g><path style="opacity:1" fill="#181818" d="M 838.5,286.5 C 842.461,287.884 843.461,290.551 841.5,294.5C 838.187,296.254 836.52,295.254 836.5,291.5C 836.437,289.486 837.103,287.819 838.5,286.5 Z"/></g>
<g><path style="opacity:1" fill="#191919" d="M 303.5,287.5 C 304.787,288.871 305.453,290.705 305.5,293C 304.578,299.821 304.412,306.654 305,313.5C 306.439,310.397 308.273,307.564 310.5,305C 312.701,304.175 314.534,304.675 316,306.5C 316.5,314.159 316.666,321.826 316.5,329.5C 314.61,329.703 313.11,329.037 312,327.5C 311.796,320.771 311.63,314.104 311.5,307.5C 306.822,314.02 303.989,321.354 303,329.5C 301.667,328.833 300.667,327.833 300,326.5C 299.264,314.95 299.764,303.45 301.5,292C 301.759,290.213 302.425,288.713 303.5,287.5 Z"/></g>
<g><path style="opacity:1" fill="#0f0f0f" d="M 180.5,301.5 C 179.809,310.734 179.142,320.068 178.5,329.5C 177.811,330.774 176.977,330.774 176,329.5C 175.309,316.151 175.475,302.817 176.5,289.5C 177.833,289.5 179.167,289.5 180.5,289.5C 180.5,293.5 180.5,297.5 180.5,301.5 Z"/></g>
<g><path style="opacity:1" fill="#090909" d="M 676.5,289.5 C 677.833,289.5 679.167,289.5 680.5,289.5C 680.086,302.843 679.419,316.176 678.5,329.5C 677.833,329.833 677.167,330.167 676.5,330.5C 675.281,316.827 675.281,303.161 676.5,289.5 Z"/></g>
<g><path style="opacity:1" fill="#090909" d="M 846.5,289.5 C 847.833,289.5 849.167,289.5 850.5,289.5C 850.086,302.843 849.419,316.176 848.5,329.5C 847.833,329.833 847.167,330.167 846.5,330.5C 845.281,316.827 845.281,303.161 846.5,289.5 Z"/></g>
<g><path style="opacity:1" fill="#131313" d="M 119.5,289.5 C 127.769,290.931 129.603,295.264 125,302.5C 123.768,299.7 123.101,296.7 123,293.5C 121.506,292.253 120.006,292.253 118.5,293.5C 116.815,297.661 116.148,301.994 116.5,306.5C 118.857,306.337 121.19,306.503 123.5,307C 123.957,307.414 124.291,307.914 124.5,308.5C 121.562,309.489 118.562,310.156 115.5,310.5C 115.5,317.167 115.5,323.833 115.5,330.5C 113.876,330.64 112.71,329.973 112,328.5C 111.667,322.833 111.333,317.167 111,311.5C 109.989,312.337 108.822,312.67 107.5,312.5C 107.45,310.41 108.45,309.077 110.5,308.5C 110.654,300.652 113.654,294.319 119.5,289.5 Z"/></g>
<g><path style="opacity:1" fill="#111111" d="M 824.5,291.5 C 825.369,293.717 825.702,296.05 825.5,298.5C 825.688,300.103 825.188,301.437 824,302.5C 822.768,299.7 822.101,296.7 822,293.5C 820.506,292.253 819.006,292.253 817.5,293.5C 815.815,297.661 815.148,301.994 815.5,306.5C 817.857,306.337 820.19,306.503 822.5,307C 823.056,307.383 823.389,307.883 823.5,308.5C 821.5,309.167 819.5,309.833 817.5,310.5C 816.5,310.5 815.5,310.5 814.5,310.5C 814.5,317.167 814.5,323.833 814.5,330.5C 812.876,330.64 811.71,329.973 811,328.5C 810.667,322.833 810.333,317.167 810,311.5C 808.989,312.337 807.822,312.67 806.5,312.5C 806.45,310.41 807.45,309.077 809.5,308.5C 809.847,302.626 811.68,297.293 815,292.5C 818.008,289.106 821.174,288.773 824.5,291.5 Z"/></g>
<g><path style="opacity:1" fill="#0e0e0e" d="M 132.5,292.5 C 136.728,293.466 139.728,296.133 141.5,300.5C 140.635,301.583 139.635,301.749 138.5,301C 135.619,298.721 133.619,295.888 132.5,292.5 Z"/></g>
<g><path style="opacity:1" fill="#0e0e0e" d="M 258.5,292.5 C 262.728,293.466 265.728,296.133 267.5,300.5C 266.635,301.583 265.635,301.749 264.5,301C 261.619,298.721 259.619,295.888 258.5,292.5 Z"/></g>
<g><path style="opacity:1" fill="#101010" d="M 607.5,300.5 C 606.532,302.607 606.198,304.941 606.5,307.5C 607.791,307.737 608.791,307.404 609.5,306.5C 612.022,306.128 614.022,306.961 615.5,309C 612.607,310.149 609.607,310.649 606.5,310.5C 606.5,317.167 606.5,323.833 606.5,330.5C 604.62,330.771 603.287,330.104 602.5,328.5C 602.5,322.833 602.5,317.167 602.5,311.5C 601.209,311.263 600.209,311.596 599.5,312.5C 598.295,310.59 598.962,309.257 601.5,308.5C 601.4,301.623 603.733,295.79 608.5,291C 611.835,288.709 614.668,289.209 617,292.5C 617.85,296.052 617.35,299.385 615.5,302.5C 614.914,302.291 614.414,301.957 614,301.5C 613.667,298.833 613.333,296.167 613,293.5C 610.546,291.987 608.879,292.654 608,295.5C 607.506,297.134 607.34,298.801 607.5,300.5 Z"/></g>
<g><path style="opacity:1" fill="#131313" d="M 645.5,292.5 C 649.656,293.645 652.656,296.311 654.5,300.5C 653.277,301.614 651.944,301.781 650.5,301C 648.18,298.522 646.514,295.689 645.5,292.5 Z"/></g>
<g><path style="opacity:1" fill="#7d7d7d" d="M 826.5,290.5 C 826.5,291.833 826.5,293.167 826.5,294.5C 826.768,296.099 826.434,297.432 825.5,298.5C 825.702,296.05 825.369,293.717 824.5,291.5C 825.167,291.167 825.833,290.833 826.5,290.5 Z"/></g>
<g><path style="opacity:1" fill="#131313" d="M 93.5,303.5 C 96.1873,303.336 98.854,303.503 101.5,304C 102.701,304.903 103.535,306.069 104,307.5C 103.563,314.859 103.729,322.192 104.5,329.5C 101.14,330.21 99.3071,328.876 99,325.5C 97.5,327 96,328.5 94.5,330C 86.6067,331.023 84.44,327.857 88,320.5C 91.0919,317.578 94.5919,315.245 98.5,313.5C 99.952,310.718 99.6187,308.218 97.5,306C 92.3846,306.317 90.3846,309.15 91.5,314.5C 90.1667,314.5 88.8333,314.5 87.5,314.5C 87.844,309.848 89.844,306.182 93.5,303.5 Z"/></g>
<g><path style="opacity:1" fill="#161616" d="M 235.5,303.5 C 241.302,302.006 245.136,304.006 247,309.5C 247.001,313.85 246.501,318.183 245.5,322.5C 245.753,324.858 246.086,327.192 246.5,329.5C 243.14,330.21 241.307,328.876 241,325.5C 238.543,330.186 234.877,331.519 230,329.5C 227.777,325.612 228.277,322.112 231.5,319C 234.166,316.665 237.166,314.831 240.5,313.5C 241.952,310.718 241.619,308.218 239.5,306C 236.702,305.439 234.869,306.606 234,309.5C 233.506,311.134 233.34,312.801 233.5,314.5C 231.365,314.853 230.032,314.02 229.5,312C 230.927,308.743 232.927,305.91 235.5,303.5 Z"/></g>
<g><path style="opacity:1" fill="#111111" d="M 284.5,303.5 C 288.954,302.617 292.454,303.95 295,307.5C 294.964,314.819 294.797,322.152 294.5,329.5C 291.612,329.78 290.112,328.447 290,325.5C 286.188,331.003 281.855,331.67 277,327.5C 277.991,320.324 282.158,315.658 289.5,313.5C 290.797,310.812 290.464,308.312 288.5,306C 287.167,305.333 285.833,305.333 284.5,306C 282.503,308.492 281.503,311.325 281.5,314.5C 280.5,314.5 279.5,314.5 278.5,314.5C 278.677,309.811 280.677,306.144 284.5,303.5 Z"/></g>
<g><path style="opacity:1" fill="#7b7b7b" d="M 607.5,300.5 C 607.025,303.082 607.692,305.082 609.5,306.5C 608.791,307.404 607.791,307.737 606.5,307.5C 606.198,304.941 606.532,302.607 607.5,300.5 Z"/></g>
<g><path style="opacity:1" fill="#131313" d="M 622.5,303.5 C 625.187,303.336 627.854,303.503 630.5,304C 631.701,304.903 632.535,306.069 633,307.5C 632.563,314.859 632.729,322.192 633.5,329.5C 630.14,330.21 628.307,328.876 628,325.5C 626.5,327 625,328.5 623.5,330C 615.607,331.023 613.44,327.857 617,320.5C 620.092,317.578 623.592,315.245 627.5,313.5C 628.952,310.718 628.619,308.218 626.5,306C 621.385,306.317 619.385,309.15 620.5,314.5C 619.167,314.5 617.833,314.5 616.5,314.5C 616.844,309.848 618.844,306.182 622.5,303.5 Z"/></g>
<g><path style="opacity:1" fill="#0e0e0e" d="M 666.5,303.5 C 667.833,303.5 669.167,303.5 670.5,303.5C 669.815,311.816 669.482,320.149 669.5,328.5C 668.178,328.67 667.011,328.337 666,327.5C 665.2,319.421 665.367,311.421 666.5,303.5 Z"/></g>
<g><path style="opacity:1" fill="#030303" d="M 825.5,326.5 C 825.5,320.833 825.5,315.167 825.5,309.5C 824.599,305.759 825.932,303.759 829.5,303.5C 829.5,311.833 829.5,320.167 829.5,328.5C 827.62,328.771 826.287,328.104 825.5,326.5 Z"/></g>
<g><path style="opacity:1" fill="#030303" d="M 836.5,303.5 C 837.5,303.5 838.5,303.5 839.5,303.5C 839.5,311.833 839.5,320.167 839.5,328.5C 838.178,328.67 837.011,328.337 836,327.5C 835.2,319.421 835.367,311.421 836.5,303.5 Z"/></g>
<g><path style="opacity:1" fill="#0e0e0e" d="M 153.5,304.5 C 154.833,304.5 156.167,304.5 157.5,304.5C 156.788,311.143 156.454,317.809 156.5,324.5C 157.822,324.67 158.989,324.337 160,323.5C 163.06,317.821 165.226,311.821 166.5,305.5C 167.689,304.571 169.022,304.238 170.5,304.5C 169.25,311.835 169.25,319.168 170.5,326.5C 169.714,329.975 168.214,330.308 166,327.5C 165.667,324.833 165.333,322.167 165,319.5C 163.96,329.218 159.96,330.885 153,324.5C 152.208,317.753 152.374,311.086 153.5,304.5 Z"/></g>
<g><path style="opacity:1" fill="#111111" d="M 58.5,305.5 C 58.3354,308.518 58.502,311.518 59,314.5C 59.5133,313.473 60.0133,312.473 60.5,311.5C 61.446,309.11 62.7794,306.944 64.5,305C 65.8333,304.333 67.1667,304.333 68.5,305C 69.3002,309.08 69.8002,313.247 70,317.5C 70.9888,312.688 73.1555,308.521 76.5,305C 78.5672,304.464 80.4006,304.964 82,306.5C 81.7857,313.572 81.7857,320.572 82,327.5C 80.6667,328.833 79.3333,328.833 78,327.5C 77.8986,321.116 77.7319,314.782 77.5,308.5C 73.0832,314.407 70.4165,321.074 69.5,328.5C 68.1667,328.5 66.8333,328.5 65.5,328.5C 65.6663,321.492 65.4996,314.492 65,307.5C 60.8185,313.87 58.3185,320.87 57.5,328.5C 56.5,328.5 55.5,328.5 54.5,328.5C 54.3336,320.826 54.5003,313.159 55,305.5C 56.2917,304.209 57.4583,304.209 58.5,305.5 Z"/></g>
<g><path style="opacity:1" fill="#141414" d="M 201.5,308.5 C 200.371,310.628 200.204,312.961 201,315.5C 201.513,314.473 202.013,313.473 202.5,312.5C 203.507,307.986 206.174,305.486 210.5,305C 211.944,306.126 212.61,307.626 212.5,309.5C 211.732,312.154 211.566,314.821 212,317.5C 213.514,312.971 215.681,308.805 218.5,305C 220.567,304.464 222.401,304.964 224,306.5C 224.667,313.833 224.667,321.167 224,328.5C 221.91,329.791 220.576,329.124 220,326.5C 219.845,320.439 219.678,314.439 219.5,308.5C 215.18,314.478 212.514,321.144 211.5,328.5C 210.167,328.5 208.833,328.5 207.5,328.5C 209.316,300.838 206.816,300.505 200,327.5C 198.989,328.337 197.822,328.67 196.5,328.5C 196.302,320.466 196.635,312.466 197.5,304.5C 198.833,304.5 200.167,304.5 201.5,304.5C 201.5,305.833 201.5,307.167 201.5,308.5 Z"/></g>
<g><path style="opacity:1" fill="#6c6c6c" d="M 180.5,301.5 C 181.139,311.227 180.472,320.56 178.5,329.5C 179.142,320.068 179.809,310.734 180.5,301.5 Z"/></g>
<g><path style="opacity:1" fill="#969696" d="M 58.5,305.5 C 59.1667,307.5 59.8333,309.5 60.5,311.5C 60.0133,312.473 59.5133,313.473 59,314.5C 58.502,311.518 58.3354,308.518 58.5,305.5 Z"/></g>
<g><path style="opacity:1" fill="#6f6f6f" d="M 201.5,308.5 C 201.232,310.099 201.566,311.432 202.5,312.5C 202.013,313.473 201.513,314.473 201,315.5C 200.204,312.961 200.371,310.628 201.5,308.5 Z"/></g>
<g><path style="opacity:1" fill="#aeaeae" d="M 823.5,308.5 C 824.167,308.833 824.833,309.167 825.5,309.5C 825.5,315.167 825.5,320.833 825.5,326.5C 824.512,321.36 824.179,316.026 824.5,310.5C 822.167,310.5 819.833,310.5 817.5,310.5C 819.5,309.833 821.5,309.167 823.5,308.5 Z"/></g>
<g><path style="opacity:1" fill="#ededed" d="M 96.5,317.5 C 97.5,317.5 98.5,317.5 99.5,317.5C 98.2389,323.093 94.9055,326.759 89.5,328.5C 90.0664,323.699 92.3998,320.032 96.5,317.5 Z"/></g>
<g><path style="opacity:1" fill="#ececec" d="M 239.5,317.5 C 241.344,318.204 241.844,319.537 241,321.5C 239.078,325.597 235.912,327.93 231.5,328.5C 232.574,323.748 235.24,320.081 239.5,317.5 Z"/></g>
<g><path style="opacity:1" fill="#ebebeb" d="M 289.5,316.5 C 290.124,316.917 290.457,317.584 290.5,318.5C 288.784,323.549 285.451,326.883 280.5,328.5C 280.372,326.345 280.872,324.345 282,322.5C 284.478,320.361 286.978,318.361 289.5,316.5 Z"/></g>
<g><path style="opacity:1" fill="#ededed" d="M 625.5,317.5 C 626.5,317.5 627.5,317.5 628.5,317.5C 627.239,323.093 623.906,326.759 618.5,328.5C 619.066,323.699 621.4,320.032 625.5,317.5 Z"/></g>
<g><path style="opacity:1" fill="#8f8f8f" d="M 599.5,312.5 C 600.209,311.596 601.209,311.263 602.5,311.5C 602.5,317.167 602.5,322.833 602.5,328.5C 602.144,322.923 601.144,317.59 599.5,312.5 Z"/></g>
<g><path style="opacity:1" fill="#141414" d="M 529.5,356.5 C 530.822,356.33 531.989,356.663 533,357.5C 533.667,359.833 533.667,362.167 533,364.5C 529.958,365.986 528.125,364.986 527.5,361.5C 528.187,359.823 528.854,358.156 529.5,356.5 Z"/></g>
<g><path style="opacity:1" fill="#191919" d="M 585.5,357.5 C 586.787,358.871 587.453,360.705 587.5,363C 586.578,369.821 586.412,376.654 587,383.5C 588.439,380.397 590.273,377.564 592.5,375C 594.701,374.175 596.534,374.675 598,376.5C 598.5,384.159 598.666,391.826 598.5,399.5C 596.61,399.703 595.11,399.037 594,397.5C 593.796,390.771 593.63,384.104 593.5,377.5C 588.822,384.02 585.989,391.354 585,399.5C 583.667,398.833 582.667,397.833 582,396.5C 581.264,384.95 581.764,373.45 583.5,362C 583.759,360.213 584.425,358.713 585.5,357.5 Z"/></g>
<g><path style="opacity:1" fill="#0e0e0e" d="M 506.5,362.5 C 510.728,363.466 513.728,366.133 515.5,370.5C 514.635,371.583 513.635,371.749 512.5,371C 509.619,368.721 507.619,365.888 506.5,362.5 Z"/></g>
<g><path style="opacity:1" fill="#131313" d="M 359.5,373.5 C 364.742,372.271 368.575,373.937 371,378.5C 370.836,385.476 370.669,392.476 370.5,399.5C 369.167,399.5 367.833,399.5 366.5,399.5C 366.762,398.022 366.429,396.689 365.5,395.5C 361.953,401.047 357.786,401.714 353,397.5C 352.365,395.365 352.699,393.365 354,391.5C 356.958,387.855 360.625,385.188 365,383.5C 366.297,379.825 365.297,377.158 362,375.5C 358.403,377.361 356.903,380.361 357.5,384.5C 356.5,384.5 355.5,384.5 354.5,384.5C 354.277,379.948 355.944,376.281 359.5,373.5 Z"/></g>
<g><path style="opacity:1" fill="#161616" d="M 483.5,373.5 C 489.302,372.006 493.136,374.006 495,379.5C 495.001,383.85 494.501,388.183 493.5,392.5C 493.753,394.858 494.086,397.192 494.5,399.5C 491.14,400.21 489.307,398.876 489,395.5C 486.543,400.186 482.877,401.519 478,399.5C 475.777,395.612 476.277,392.112 479.5,389C 482.166,386.665 485.166,384.831 488.5,383.5C 489.952,380.718 489.619,378.218 487.5,376C 484.702,375.439 482.869,376.606 482,379.5C 481.506,381.134 481.34,382.801 481.5,384.5C 479.365,384.853 478.032,384.02 477.5,382C 478.927,378.743 480.927,375.91 483.5,373.5 Z"/></g>
<g><path style="opacity:1" fill="#171717" d="M 527.5,373.5 C 528.833,373.5 530.167,373.5 531.5,373.5C 531.5,381.833 531.5,390.167 531.5,398.5C 529.61,398.703 528.11,398.037 527,396.5C 526.309,388.805 526.475,381.139 527.5,373.5 Z"/></g>
<g><path style="opacity:1" fill="#111111" d="M 566.5,373.5 C 570.954,372.617 574.454,373.95 577,377.5C 576.964,384.819 576.797,392.152 576.5,399.5C 573.612,399.78 572.112,398.447 572,395.5C 568.188,401.003 563.855,401.67 559,397.5C 559.991,390.324 564.158,385.658 571.5,383.5C 572.797,380.812 572.464,378.312 570.5,376C 569.167,375.333 567.833,375.333 566.5,376C 564.503,378.492 563.503,381.325 563.5,384.5C 562.5,384.5 561.5,384.5 560.5,384.5C 560.677,379.811 562.677,376.144 566.5,373.5 Z"/></g>
<g><path style="opacity:1" fill="#151515" d="M 320.5,373.5 C 321.497,373.47 322.164,373.97 322.5,375C 323.925,379.868 325.425,384.701 327,389.5C 329.185,383.741 332.018,378.408 335.5,373.5C 337.792,378.997 339.626,384.664 341,390.5C 344.514,384.797 348.014,379.131 351.5,373.5C 352.614,374.723 352.781,376.056 352,377.5C 348.245,384.009 344.745,390.676 341.5,397.5C 340.311,398.429 338.978,398.762 337.5,398.5C 336.765,392.758 335.598,387.091 334,381.5C 331.243,386.682 328.743,392.015 326.5,397.5C 325.675,398.386 324.675,398.719 323.5,398.5C 322.264,390.658 320.264,382.991 317.5,375.5C 318.602,374.824 319.602,374.158 320.5,373.5 Z"/></g>
<g><path style="opacity:1" fill="#141414" d="M 391.5,373.5 C 394.095,378.774 396.262,384.441 398,390.5C 400.921,385.659 403.588,380.659 406,375.5C 407.183,374.269 408.349,374.269 409.5,375.5C 405.412,382.676 401.578,390.009 398,397.5C 396.286,398.925 394.953,398.592 394,396.5C 393.133,391.363 391.799,386.363 390,381.5C 387.667,386.833 385.333,392.167 383,397.5C 382,398.833 381,398.833 380,397.5C 378.317,389.768 376.483,382.101 374.5,374.5C 376.167,374.5 377.833,374.5 379.5,374.5C 380.505,379.522 381.672,384.522 383,389.5C 385.934,384.181 388.767,378.848 391.5,373.5 Z"/></g>
<g><path style="opacity:1" fill="#0e0e0e" d="M 411.5,374.5 C 412.833,374.5 414.167,374.5 415.5,374.5C 414.788,381.143 414.454,387.809 414.5,394.5C 415.822,394.67 416.989,394.337 418,393.5C 421.06,387.821 423.226,381.821 424.5,375.5C 425.689,374.571 427.022,374.238 428.5,374.5C 427.25,381.835 427.25,389.168 428.5,396.5C 427.714,399.975 426.214,400.308 424,397.5C 423.667,394.833 423.333,392.167 423,389.5C 421.96,399.218 417.96,400.885 411,394.5C 410.208,387.753 410.374,381.086 411.5,374.5 Z"/></g>
<g><path style="opacity:1" fill="#131313" d="M 534.5,374.5 C 536.167,374.5 537.833,374.5 539.5,374.5C 541.27,380.044 543.603,385.377 546.5,390.5C 549.752,385.666 552.752,380.666 555.5,375.5C 556.833,374.167 558.167,374.167 559.5,375.5C 550.803,388.891 543.136,402.891 536.5,417.5C 535.28,417.113 534.613,416.28 534.5,415C 537.5,408.667 540.5,402.333 543.5,396C 539.791,389.088 536.791,381.922 534.5,374.5 Z"/></g>
<g><path style="opacity:1" fill="#141414" d="M 449.5,378.5 C 448.371,380.628 448.204,382.961 449,385.5C 449.513,384.473 450.013,383.473 450.5,382.5C 451.507,377.986 454.174,375.486 458.5,375C 459.944,376.126 460.61,377.626 460.5,379.5C 459.732,382.154 459.566,384.821 460,387.5C 461.514,382.971 463.681,378.805 466.5,375C 468.567,374.464 470.401,374.964 472,376.5C 472.667,383.833 472.667,391.167 472,398.5C 469.91,399.791 468.576,399.124 468,396.5C 467.845,390.439 467.678,384.439 467.5,378.5C 463.18,384.478 460.514,391.144 459.5,398.5C 458.167,398.5 456.833,398.5 455.5,398.5C 457.316,370.838 454.816,370.505 448,397.5C 446.989,398.337 445.822,398.67 444.5,398.5C 444.302,390.466 444.635,382.466 445.5,374.5C 446.833,374.5 448.167,374.5 449.5,374.5C 449.5,375.833 449.5,377.167 449.5,378.5 Z"/></g>
<g><path style="opacity:1" fill="#6f6f6f" d="M 449.5,378.5 C 449.232,380.099 449.566,381.432 450.5,382.5C 450.013,383.473 449.513,384.473 449,385.5C 448.204,382.961 448.371,380.628 449.5,378.5 Z"/></g>
<g><path style="opacity:1" fill="#e4e4e4" d="M 364.5,386.5 C 366.344,387.204 366.844,388.537 366,390.5C 364.285,392.759 362.452,394.926 360.5,397C 356,399.167 354.833,398 357,393.5C 359.396,390.933 361.896,388.6 364.5,386.5 Z"/></g>
<g><path style="opacity:1" fill="#ececec" d="M 487.5,387.5 C 489.344,388.204 489.844,389.537 489,391.5C 487.078,395.597 483.912,397.93 479.5,398.5C 480.574,393.748 483.24,390.081 487.5,387.5 Z"/></g>
<g><path style="opacity:1" fill="#ebebeb" d="M 571.5,386.5 C 572.124,386.917 572.457,387.584 572.5,388.5C 570.784,393.549 567.451,396.883 562.5,398.5C 562.372,396.345 562.872,394.345 564,392.5C 566.478,390.361 568.978,388.361 571.5,386.5 Z"/></g>
</svg>
