<?xml version="1.0" encoding="UTF-8"?>
<!DOCTYPE svg PUBLIC "-//W3C//DTD SVG 1.1//EN" "http://www.w3.org/Graphics/SVG/1.1/DTD/svg11.dtd">
<svg xmlns="http://www.w3.org/2000/svg" version="1.1" width="1000px" height="500px" style="shape-rendering:geometricPrecision; text-rendering:geometricPrecision; image-rendering:optimizeQuality; fill-rule:evenodd; clip-rule:evenodd" xmlns:xlink="http://www.w3.org/1999/xlink">
<g><path style="opacity:1" fill="#fefefe" d="M -0.5,-0.5 C 332.833,-0.5 666.167,-0.5 999.5,-0.5C 999.5,166.167 999.5,332.833 999.5,499.5C 666.167,499.5 332.833,499.5 -0.5,499.5C -0.5,332.833 -0.5,166.167 -0.5,-0.5 Z"/></g>
<g><path style="opacity:1" fill="#141414" d="M 307.5,65.5 C 308.497,65.4701 309.164,65.9701 309.5,67C 308.711,68.6255 307.711,70.1255 306.5,71.5C 299.833,75.1667 293.167,78.8333 286.5,82.5C 285.422,80.5253 285.755,78.692 287.5,77C 294.393,73.3924 301.059,69.5591 307.5,65.5 Z"/></g>
<g><path style="opacity:1" fill="#131313" d="M 307.5,76.5 C 308.376,76.3691 309.043,76.7025 309.5,77.5C 308.627,79.4134 307.627,81.2467 306.5,83C 299.676,86.2451 293.009,89.7451 286.5,93.5C 285.422,91.5253 285.755,89.692 287.5,88C 294.393,84.3924 301.059,80.5591 307.5,76.5 Z"/></g>
<g><path style="opacity:1" fill="#0c0c0c" d="M 483.5,78.5 C 486.044,78.1043 488.211,78.771 490,80.5C 490.813,84.6645 490.313,88.6645 488.5,92.5C 493.625,95.0272 493.792,97.6939 489,100.5C 487.527,100.097 486.194,99.4303 485,98.5C 482.5,101 480,103.5 477.5,106C 474.634,107.457 471.634,107.79 468.5,107C 472.951,104.217 477.117,101.05 481,97.5C 480.169,94.8232 479.002,92.1566 477.5,89.5C 478.734,85.3626 480.734,81.6959 483.5,78.5 Z"/></g>
<g><path style="opacity:1" fill="#d7d7d7" d="M 481.5,84.5 C 484.833,84.5 486.5,86.1667 486.5,89.5C 483.736,89.0012 482.069,87.3345 481.5,84.5 Z"/></g>
<g><path style="opacity:1" fill="#141414" d="M 652.5,84.5 C 653.376,84.3691 654.043,84.7025 654.5,85.5C 653.752,87.3325 652.752,88.9991 651.5,90.5C 644.833,94.1667 638.167,97.8333 631.5,101.5C 630.152,99.3886 630.485,97.5553 632.5,96C 639.393,92.3924 646.059,88.5591 652.5,84.5 Z"/></g>
<g><path style="opacity:1" fill="#121212" d="M 342.5,86.5 C 348.839,87.0016 352.506,90.5016 353.5,97C 352.333,103.5 348.5,107.333 342,108.5C 336.953,106.926 334.787,103.426 335.5,98C 335.43,92.6289 337.764,88.7955 342.5,86.5 Z"/></g>
<g><path style="opacity:1" fill="#141414" d="M 550.5,86.5 C 561.57,88.3118 564.404,94.3118 559,104.5C 550.363,111.213 545.196,109.213 543.5,98.5C 543.8,93.2234 546.133,89.2234 550.5,86.5 Z"/></g>
<g><path style="opacity:1" fill="#131313" d="M 389.5,88.5 C 390.376,88.3691 391.043,88.7025 391.5,89.5C 390.627,91.4134 389.627,93.2467 388.5,95C 381.676,98.2451 375.009,101.745 368.5,105.5C 367.422,103.525 367.755,101.692 369.5,100C 376.393,96.3924 383.059,92.5591 389.5,88.5 Z"/></g>
<g><path style="opacity:1" fill="#f4f4f4" d="M 339.5,92.5 C 345.172,91.883 348.339,94.2163 349,99.5C 345.621,101.923 342.121,102.09 338.5,100C 337.083,97.2565 337.416,94.7565 339.5,92.5 Z"/></g>
<g><path style="opacity:1" fill="#f3f3f3" d="M 547.5,92.5 C 553.51,91.5606 557.01,93.8939 558,99.5C 549.571,103.567 546.071,101.234 547.5,92.5 Z"/></g>
<g><path style="opacity:1" fill="#121212" d="M 262.5,93.5 C 265.682,111.765 268.015,130.432 269.5,149.5C 268.802,155.658 267.469,161.658 265.5,167.5C 265.502,161.956 265.336,156.289 265,150.5C 263.077,136.511 261.243,122.511 259.5,108.5C 259.865,103.34 260.865,98.3402 262.5,93.5 Z"/></g>
<g><path style="opacity:1" fill="#141414" d="M 595.5,104.5 C 596.376,104.369 597.043,104.702 597.5,105.5C 596.752,107.332 595.752,108.999 594.5,110.5C 587.833,114.167 581.167,117.833 574.5,121.5C 573.152,119.389 573.485,117.555 575.5,116C 582.393,112.392 589.059,108.559 595.5,104.5 Z"/></g>
<g><path style="opacity:1" fill="#0e0e0e" d="M 312.5,111.5 C 313.117,111.611 313.617,111.944 314,112.5C 315.641,126.039 318.308,139.372 322,152.5C 322.465,153.931 323.299,155.097 324.5,156C 331.474,157.961 338.474,157.961 345.5,156C 346.804,155.196 347.471,154.029 347.5,152.5C 346.283,149.238 344.949,146.072 343.5,143C 344.327,139.512 345.827,136.346 348,133.5C 352.667,142.833 352.667,152.167 348,161.5C 345.658,164.754 342.491,166.588 338.5,167C 332.294,168.245 326.461,167.412 321,164.5C 318.616,160.675 316.616,156.675 315,152.5C 308.458,163.019 298.958,167.519 286.5,166C 280.943,164.496 279.11,160.996 281,155.5C 281.473,153.221 282.473,151.221 284,149.5C 284.394,152.893 286.227,155.06 289.5,156C 297.133,157.366 304.3,156.199 311,152.5C 312.872,149.795 313.705,146.795 313.5,143.5C 312.115,136.024 310.782,128.524 309.5,121C 309.806,117.585 310.806,114.418 312.5,111.5 Z"/></g>
<g><path style="opacity:1" fill="#0e0e0e" d="M 648.5,116.5 C 656.956,119.201 657.623,123.201 650.5,128.5C 647.891,127.557 645.891,125.89 644.5,123.5C 645.861,121.15 647.194,118.816 648.5,116.5 Z"/></g>
<g><path style="opacity:1" fill="#0f0f0f" d="M 385.5,122.5 C 395.002,124.317 395.836,127.983 388,133.5C 385.627,132.576 383.794,131.076 382.5,129C 383.391,126.721 384.391,124.554 385.5,122.5 Z"/></g>
<g><path style="opacity:1" fill="#0d0d0d" d="M 491.5,127.5 C 499.127,129.876 500.127,133.709 494.5,139C 491.633,138.819 489.133,137.652 487,135.5C 485.216,137.367 483.216,139.034 481,140.5C 479.343,139.516 477.677,138.516 476,137.5C 475.93,133.965 477.263,130.965 480,128.5C 482.257,130.046 484.424,131.712 486.5,133.5C 488.164,131.509 489.831,129.509 491.5,127.5 Z"/></g>
<g><path style="opacity:1" fill="#0c0c0c" d="M 636.5,169.5 C 637.404,168.791 637.737,167.791 637.5,166.5C 635.167,166.5 632.833,166.5 630.5,166.5C 626.088,165.93 622.922,163.597 621,159.5C 615.877,166.476 609.044,169.142 600.5,167.5C 600.284,180.435 594.951,190.601 584.5,198C 578.92,199.517 573.253,199.851 567.5,199C 565.221,198.527 563.221,197.527 561.5,196C 579.066,195.559 591.066,187.226 597.5,171C 595.556,167.778 593.889,164.445 592.5,161C 592.993,158.181 594.16,155.681 596,153.5C 597.167,154.667 598.333,155.833 599.5,157C 609.794,159.877 617.961,157.044 624,148.5C 624.228,153.401 626.728,156.567 631.5,158C 634.833,158.667 638.167,158.667 641.5,158C 649.366,146.132 659.699,137.132 672.5,131C 684.281,129.448 689.448,134.614 688,146.5C 682.691,155.459 674.857,160.959 664.5,163C 656.6,164.988 648.6,166.488 640.5,167.5C 638.837,170.656 637.67,173.989 637,177.5C 635.187,174.922 635.02,172.255 636.5,169.5 Z"/></g>
<g><path style="opacity:1" fill="#0a0a0a" d="M 555.5,134.5 C 557.614,135.36 558.78,137.027 559,139.5C 563.506,160.99 555.006,170.156 533.5,167C 530.667,165.5 528.5,163.333 527,160.5C 524.766,162.7 522.266,164.533 519.5,166C 501.674,172.129 483.34,174.463 464.5,173C 449.083,170.598 442.583,161.765 445,146.5C 450.039,133.565 451.206,133.565 448.5,146.5C 448.242,151.484 450.242,155.317 454.5,158C 462.975,162.328 471.975,164.162 481.5,163.5C 494.096,163.391 506.43,161.558 518.5,158C 521.927,156.569 524.76,154.402 527,151.5C 528.152,153.649 529.652,155.482 531.5,157C 537.833,157.667 544.167,157.667 550.5,157C 553.249,156.636 555.249,155.303 556.5,153C 554.97,149.439 553.303,145.939 551.5,142.5C 552.86,139.78 554.193,137.114 555.5,134.5 Z"/></g>
<g><path style="opacity:1" fill="#f7f7f7" d="M 665.5,141.5 C 669.514,141.334 673.514,141.501 677.5,142C 679.081,142.707 680.581,143.54 682,144.5C 682.781,145.944 682.614,147.277 681.5,148.5C 670.635,154.905 658.968,157.571 646.5,156.5C 651.592,149.804 657.925,144.804 665.5,141.5 Z"/></g>
<g><path style="opacity:1" fill="#0f0f0f" d="M 387.5,142.5 C 392.184,148.042 394.184,154.542 393.5,162C 393.002,175.33 387.668,186.33 377.5,195C 368.485,198.786 359.818,198.12 351.5,193C 366.728,193.969 378.561,188.136 387,175.5C 388.943,173.01 390.109,170.177 390.5,167C 388.634,161.438 386.634,155.938 384.5,150.5C 384.948,147.609 385.948,144.942 387.5,142.5 Z"/></g>
<g><path style="opacity:1" fill="#848484" d="M 630.5,166.5 C 632.833,166.5 635.167,166.5 637.5,166.5C 637.737,167.791 637.404,168.791 636.5,169.5C 634.844,167.94 632.844,166.94 630.5,166.5 Z"/></g>
<g><path style="opacity:1" fill="#0f0f0f" d="M 345.5,175.5 C 348.658,176.313 351.324,177.98 353.5,180.5C 352.041,182.583 350.708,184.75 349.5,187C 346.531,186.342 343.865,184.842 341.5,182.5C 339.823,184.54 338.156,186.54 336.5,188.5C 329.084,185.409 328.584,181.409 335,176.5C 337.01,177.848 339.01,179.182 341,180.5C 343.378,179.623 344.878,177.956 345.5,175.5 Z"/></g>
<g><path style="opacity:1" fill="#101010" d="M 548.5,175.5 C 556.866,177.644 557.7,181.644 551,187.5C 548.691,186.025 546.524,184.358 544.5,182.5C 545.861,180.15 547.194,177.816 548.5,175.5 Z"/></g>
<g><path style="opacity:1" fill="#0b0b0b" d="M 490.5,222.5 C 490.168,232.522 490.501,242.522 491.5,252.5C 492.107,252.376 492.44,252.043 492.5,251.5C 493.479,249.855 494.812,248.521 496.5,247.5C 497.5,247.833 498.167,248.5 498.5,249.5C 495.153,254.342 491.32,258.675 487,262.5C 482.396,258.656 478.73,253.989 476,248.5C 475.598,247.128 475.098,245.795 474.5,244.5C 474.833,244.167 475.167,243.833 475.5,243.5C 478.161,245.494 480.494,247.827 482.5,250.5C 482.783,251.289 483.283,251.956 484,252.5C 484.5,242.839 484.666,233.172 484.5,223.5C 484.333,211.829 484.5,200.162 485,188.5C 485.151,185.881 485.985,183.547 487.5,181.5C 488.086,181.709 488.586,182.043 489,182.5C 490.357,195.792 490.857,209.125 490.5,222.5 Z"/></g>
<g><path style="opacity:1" fill="#626262" d="M 683.5,185.5 C 682.833,185.5 682.5,185.833 682.5,186.5C 674.727,179.218 675.061,178.885 683.5,185.5 Z"/></g>
<g><path style="opacity:1" fill="#101010" d="M 252.5,235.5 C 251.348,240.985 251.182,246.651 252,252.5C 252.717,251.956 253.217,251.289 253.5,250.5C 256.988,244.194 260.488,237.86 264,231.5C 260.814,241.885 256.481,251.885 251,261.5C 248.978,262.991 247.312,262.658 246,260.5C 244.74,254.72 243.073,249.053 241,243.5C 239.95,238.552 239.45,233.552 239.5,228.5C 240.5,228.5 241.5,228.5 242.5,228.5C 243.993,233.803 245.493,239.136 247,244.5C 246.565,220.447 255.065,200.281 272.5,184C 273.167,183.333 273.833,183.333 274.5,184C 261.053,198.496 253.719,215.662 252.5,235.5 Z"/></g>
<g><path style="opacity:1" fill="#0f0f0f" d="M 683.5,185.5 C 697.278,198.058 704.945,213.725 706.5,232.5C 706.334,237.179 706.501,241.845 707,246.5C 707.791,245.255 708.291,243.922 708.5,242.5C 709.506,238.142 710.673,233.809 712,229.5C 714.645,228.292 715.812,229.292 715.5,232.5C 713.782,242.374 711.282,252.04 708,261.5C 706.951,262.517 705.784,262.684 704.5,262C 698.108,252.06 693.275,241.56 690,230.5C 694.354,237.207 698.187,244.207 701.5,251.5C 701.783,252.289 702.283,252.956 703,253.5C 703.816,248.316 703.65,243.316 702.5,238.5C 701.909,218.71 695.242,201.377 682.5,186.5C 682.5,185.833 682.833,185.5 683.5,185.5 Z"/></g>
<g><path style="opacity:1" fill="#828282" d="M 706.5,232.5 C 707.167,235.833 707.833,239.167 708.5,242.5C 708.291,243.922 707.791,245.255 707,246.5C 706.501,241.845 706.334,237.179 706.5,232.5 Z"/></g>
<g><path style="opacity:1" fill="#a9a9a9" d="M 490.5,222.5 C 491.167,232.167 491.833,241.833 492.5,251.5C 492.44,252.043 492.107,252.376 491.5,252.5C 490.501,242.522 490.168,232.522 490.5,222.5 Z"/></g>
<g><path style="opacity:1" fill="#acacac" d="M 484.5,223.5 C 484.666,233.172 484.5,242.839 484,252.5C 483.283,251.956 482.783,251.289 482.5,250.5C 483.167,241.5 483.833,232.5 484.5,223.5 Z"/></g>
<g><path style="opacity:1" fill="#b5b5b5" d="M 252.5,235.5 C 252.179,240.695 252.513,245.695 253.5,250.5C 253.217,251.289 252.717,251.956 252,252.5C 251.182,246.651 251.348,240.985 252.5,235.5 Z"/></g>
<g><path style="opacity:1" fill="#757575" d="M 702.5,238.5 C 703.65,243.316 703.816,248.316 703,253.5C 702.283,252.956 701.783,252.289 701.5,251.5C 702.485,247.366 702.818,243.032 702.5,238.5 Z"/></g>
<g><path style="opacity:1" fill="#141414" d="M 329.5,273.5 C 330.822,273.33 331.989,273.663 333,274.5C 333.667,276.833 333.667,279.167 333,281.5C 329.958,282.986 328.125,281.986 327.5,278.5C 328.187,276.823 328.854,275.156 329.5,273.5 Z"/></g>
<g><path style="opacity:1" fill="#141414" d="M 514.5,273.5 C 515.822,273.33 516.989,273.663 518,274.5C 518.667,276.833 518.667,279.167 518,281.5C 514.958,282.986 513.125,281.986 512.5,278.5C 513.187,276.823 513.854,275.156 514.5,273.5 Z"/></g>
<g><path style="opacity:1" fill="#141414" d="M 712.5,281.5 C 712.5,280.5 712.5,279.5 712.5,278.5C 714.154,272.161 716.154,271.994 718.5,278C 718.098,282.032 716.098,283.199 712.5,281.5 Z"/></g>
<g><path style="opacity:1" fill="#141414" d="M 724.5,273.5 C 728.461,274.884 729.461,277.551 727.5,281.5C 724.187,283.254 722.52,282.254 722.5,278.5C 722.437,276.486 723.103,274.819 724.5,273.5 Z"/></g>
<g><path style="opacity:1" fill="#121212" d="M 341.5,288.5 C 340.353,292.646 340.186,296.98 341,301.5C 342.039,300.756 342.539,299.756 342.5,298.5C 343.928,294.551 346.595,292.384 350.5,292C 351.333,292.833 352.167,293.667 353,294.5C 352.883,301.814 352.717,309.147 352.5,316.5C 351.178,316.67 350.011,316.337 349,315.5C 348.667,308.5 348.333,301.5 348,294.5C 343.396,300.717 340.729,307.717 340,315.5C 338.853,316.458 337.853,316.125 337,314.5C 336.179,301.799 336.512,289.132 338,276.5C 339,275.833 340,275.167 341,274.5C 341.499,279.155 341.666,283.821 341.5,288.5 Z"/></g>
<g><path style="opacity:1" fill="#090909" d="M 246.5,276.5 C 247.833,276.5 249.167,276.5 250.5,276.5C 250.086,289.843 249.419,303.176 248.5,316.5C 247.833,316.833 247.167,317.167 246.5,317.5C 245.281,303.827 245.281,290.161 246.5,276.5 Z"/></g>
<g><path style="opacity:1" fill="#1c1c1c" d="M 523.5,276.5 C 524.833,276.5 526.167,276.5 527.5,276.5C 527,289.836 526.333,303.17 525.5,316.5C 524.28,317.711 523.113,317.711 522,316.5C 521.029,303.087 521.529,289.754 523.5,276.5 Z"/></g>
<g><path style="opacity:1" fill="#090909" d="M 732.5,276.5 C 733.833,276.5 735.167,276.5 736.5,276.5C 736.086,289.843 735.419,303.176 734.5,316.5C 733.833,316.833 733.167,317.167 732.5,317.5C 731.281,303.827 731.281,290.161 732.5,276.5 Z"/></g>
<g><path style="opacity:1" fill="#131313" d="M 456.5,276.5 C 464.769,277.931 466.603,282.264 462,289.5C 460.768,286.7 460.101,283.7 460,280.5C 458.506,279.253 457.006,279.253 455.5,280.5C 453.815,284.661 453.148,288.994 453.5,293.5C 455.857,293.337 458.19,293.503 460.5,294C 460.957,294.414 461.291,294.914 461.5,295.5C 458.562,296.489 455.562,297.156 452.5,297.5C 452.5,304.167 452.5,310.833 452.5,317.5C 450.876,317.64 449.71,316.973 449,315.5C 448.667,309.833 448.333,304.167 448,298.5C 446.989,299.337 445.822,299.67 444.5,299.5C 444.45,297.41 445.45,296.077 447.5,295.5C 447.654,287.652 450.654,281.319 456.5,276.5 Z"/></g>
<g><path style="opacity:1" fill="#111111" d="M 710.5,278.5 C 711.369,280.717 711.702,283.05 711.5,285.5C 711.688,287.103 711.188,288.437 710,289.5C 708.768,286.7 708.101,283.7 708,280.5C 706.506,279.253 705.006,279.253 703.5,280.5C 701.815,284.661 701.148,288.994 701.5,293.5C 703.857,293.337 706.19,293.503 708.5,294C 708.957,294.414 709.291,294.914 709.5,295.5C 706.562,296.489 703.562,297.156 700.5,297.5C 700.5,304.167 700.5,310.833 700.5,317.5C 698.876,317.64 697.71,316.973 697,315.5C 696.667,309.833 696.333,304.167 696,298.5C 694.989,299.337 693.822,299.67 692.5,299.5C 692.45,297.41 693.45,296.077 695.5,295.5C 695.847,289.626 697.68,284.293 701,279.5C 704.008,276.106 707.174,275.773 710.5,278.5 Z"/></g>
<g><path style="opacity:1" fill="#0e0e0e" d="M 189.5,276.5 C 196.109,277.258 198.276,280.925 196,287.5C 195.692,288.308 195.192,288.975 194.5,289.5C 193.752,286.503 193.085,283.503 192.5,280.5C 191.277,279.386 189.944,279.219 188.5,280C 186.752,284.294 186.085,288.794 186.5,293.5C 189.681,293.002 192.347,293.835 194.5,296C 191.487,296.502 188.487,297.002 185.5,297.5C 185.5,304.167 185.5,310.833 185.5,317.5C 184.178,317.67 183.011,317.337 182,316.5C 181.83,310.472 181.33,304.472 180.5,298.5C 179.137,299.879 178.137,299.713 177.5,298C 178.098,296.699 179.098,295.865 180.5,295.5C 180.682,287.656 183.682,281.322 189.5,276.5 Z"/></g>
<g><path style="opacity:1" fill="#131313" d="M 202.5,279.5 C 206.656,280.645 209.656,283.311 211.5,287.5C 210.277,288.614 208.944,288.781 207.5,288C 205.18,285.522 203.514,282.689 202.5,279.5 Z"/></g>
<g><path style="opacity:1" fill="#0e0e0e" d="M 491.5,279.5 C 495.728,280.466 498.728,283.133 500.5,287.5C 499.635,288.583 498.635,288.749 497.5,288C 494.619,285.721 492.619,282.888 491.5,279.5 Z"/></g>
<g><path style="opacity:1" fill="#888888" d="M 710.5,278.5 C 711.167,278.5 711.833,278.5 712.5,278.5C 712.5,279.5 712.5,280.5 712.5,281.5C 712.768,283.099 712.434,284.432 711.5,285.5C 711.702,283.05 711.369,280.717 710.5,278.5 Z"/></g>
<g><path style="opacity:1" fill="#131313" d="M 162.5,290.5 C 167.742,289.271 171.575,290.937 174,295.5C 173.836,302.476 173.669,309.476 173.5,316.5C 172.167,316.5 170.833,316.5 169.5,316.5C 169.762,315.022 169.429,313.689 168.5,312.5C 164.953,318.047 160.786,318.714 156,314.5C 155.365,312.365 155.699,310.365 157,308.5C 159.958,304.855 163.625,302.188 168,300.5C 169.297,296.825 168.297,294.158 165,292.5C 161.403,294.361 159.903,297.361 160.5,301.5C 159.5,301.5 158.5,301.5 157.5,301.5C 157.277,296.948 158.944,293.281 162.5,290.5 Z"/></g>
<g><path style="opacity:1" fill="#171717" d="M 327.5,290.5 C 328.833,290.5 330.167,290.5 331.5,290.5C 331.5,298.833 331.5,307.167 331.5,315.5C 329.61,315.703 328.11,315.037 327,313.5C 326.309,305.805 326.475,298.139 327.5,290.5 Z"/></g>
<g><path style="opacity:1" fill="#161616" d="M 468.5,290.5 C 474.302,289.006 478.136,291.006 480,296.5C 480.001,300.85 479.501,305.183 478.5,309.5C 478.753,311.858 479.086,314.192 479.5,316.5C 476.14,317.21 474.307,315.876 474,312.5C 471.543,317.186 467.877,318.519 463,316.5C 460.777,312.612 461.277,309.112 464.5,306C 467.166,303.665 470.166,301.831 473.5,300.5C 474.952,297.718 474.619,295.218 472.5,293C 469.702,292.439 467.869,293.606 467,296.5C 466.506,298.134 466.34,299.801 466.5,301.5C 464.365,301.853 463.032,301.02 462.5,299C 463.927,295.743 465.927,292.91 468.5,290.5 Z"/></g>
<g><path style="opacity:1" fill="#171717" d="M 512.5,290.5 C 513.833,290.5 515.167,290.5 516.5,290.5C 516.5,298.833 516.5,307.167 516.5,315.5C 514.61,315.703 513.11,315.037 512,313.5C 511.309,305.805 511.475,298.139 512.5,290.5 Z"/></g>
<g><path style="opacity:1" fill="#0e0e0e" d="M 712.5,290.5 C 713.833,290.5 715.167,290.5 716.5,290.5C 715.815,298.816 715.482,307.149 715.5,315.5C 714.178,315.67 713.011,315.337 712,314.5C 711.2,306.421 711.367,298.421 712.5,290.5 Z"/></g>
<g><path style="opacity:1" fill="#0e0e0e" d="M 722.5,290.5 C 723.833,290.5 725.167,290.5 726.5,290.5C 725.815,298.816 725.482,307.149 725.5,315.5C 724.178,315.67 723.011,315.337 722,314.5C 721.2,306.421 721.367,298.421 722.5,290.5 Z"/></g>
<g><path style="opacity:1" fill="#161616" d="M 235.5,314.5 C 235.664,311.813 235.497,309.146 235,306.5C 234.487,307.527 233.987,308.527 233.5,309.5C 231.674,317.18 228.174,318.18 223,312.5C 221.201,305.572 221.034,298.572 222.5,291.5C 224.288,291.215 225.955,291.548 227.5,292.5C 226.206,298.808 226.206,305.141 227.5,311.5C 229.718,310.076 231.218,308.076 232,305.5C 233.797,300.977 234.964,296.31 235.5,291.5C 236.833,291.5 238.167,291.5 239.5,291.5C 239.831,299.86 239.498,308.193 238.5,316.5C 237.261,316.058 236.261,315.391 235.5,314.5 Z"/></g>
<g><path style="opacity:1" fill="#161616" d="M 268.5,314.5 C 268.664,311.813 268.497,309.146 268,306.5C 267.487,307.527 266.987,308.527 266.5,309.5C 264.674,317.18 261.174,318.18 256,312.5C 254.201,305.572 254.034,298.572 255.5,291.5C 257.288,291.215 258.955,291.548 260.5,292.5C 259.206,298.808 259.206,305.141 260.5,311.5C 262.718,310.076 264.218,308.076 265,305.5C 266.797,300.977 267.964,296.31 268.5,291.5C 269.833,291.5 271.167,291.5 272.5,291.5C 272.831,299.86 272.498,308.193 271.5,316.5C 270.261,316.058 269.261,315.391 268.5,314.5 Z"/></g>
<g><path style="opacity:1" fill="#151515" d="M 125.5,291.5 C 126.5,291.5 127.5,291.5 128.5,291.5C 128.335,294.518 128.502,297.518 129,300.5C 130.211,297.241 132.044,294.408 134.5,292C 135.944,291.219 137.277,291.386 138.5,292.5C 139.262,296.111 139.762,299.778 140,303.5C 141.265,298.618 143.765,294.618 147.5,291.5C 148.938,291.719 150.271,292.219 151.5,293C 151.529,299.99 151.863,306.99 152.5,314C 151.333,317.167 149.833,317.333 148,314.5C 147.667,308.167 147.333,301.833 147,295.5C 145.171,297.156 143.837,299.156 143,301.5C 141.53,306.243 139.864,310.909 138,315.5C 137,315.167 136,314.833 135,314.5C 135.305,307.85 135.305,301.183 135,294.5C 130.423,300.729 127.923,307.729 127.5,315.5C 126.167,315.5 124.833,315.5 123.5,315.5C 123.062,307.35 123.729,299.35 125.5,291.5 Z"/></g>
<g><path style="opacity:1" fill="#6b6b6b" d="M 281.5,291.5 C 280.065,294.028 279.065,296.695 278.5,299.5C 278.5,296.833 278.5,294.167 278.5,291.5C 279.5,291.5 280.5,291.5 281.5,291.5 Z"/></g>
<g><path style="opacity:1" fill="#090909" d="M 281.5,291.5 C 281.833,291.5 282.167,291.5 282.5,291.5C 282.334,295.514 282.501,299.514 283,303.5C 283.791,302.255 284.291,300.922 284.5,299.5C 285.17,296.662 286.504,294.162 288.5,292C 290.579,291.192 292.579,291.359 294.5,292.5C 295.467,300.11 295.8,307.777 295.5,315.5C 294.178,315.67 293.011,315.337 292,314.5C 291.831,307.809 291.331,301.142 290.5,294.5C 288.803,295.364 287.637,296.697 287,298.5C 284.779,303.993 283.279,309.66 282.5,315.5C 280.833,315.5 279.167,315.5 277.5,315.5C 278.194,310.195 278.528,304.862 278.5,299.5C 279.065,296.695 280.065,294.028 281.5,291.5 Z"/></g>
<g><path style="opacity:1" fill="#6e6e6e" d="M 306.5,285.5 C 306.194,288.385 306.527,291.052 307.5,293.5C 307.217,294.289 306.717,294.956 306,295.5C 305.192,291.973 305.359,288.64 306.5,285.5 Z"/></g>
<g><path style="opacity:1" fill="#101010" d="M 306.5,285.5 C 305.359,288.64 305.192,291.973 306,295.5C 306.717,294.956 307.217,294.289 307.5,293.5C 315.881,290.029 320.881,292.862 322.5,302C 321.733,311.445 316.733,315.778 307.5,315C 306.269,313.817 306.269,312.651 307.5,311.5C 310.173,313.912 312.673,313.579 315,310.5C 318.42,305.634 318.253,300.967 314.5,296.5C 311.386,294.938 308.553,295.271 306,297.5C 305.5,303.825 305.334,310.158 305.5,316.5C 304.178,316.67 303.011,316.337 302,315.5C 301.339,302.486 301.506,289.486 302.5,276.5C 303.833,276.5 305.167,276.5 306.5,276.5C 306.5,279.5 306.5,282.5 306.5,285.5 Z"/></g>
<g><path style="opacity:1" fill="#8d8d8d" d="M 341.5,288.5 C 341.187,292.042 341.521,295.375 342.5,298.5C 342.539,299.756 342.039,300.756 341,301.5C 340.186,296.98 340.353,292.646 341.5,288.5 Z"/></g>
<g><path style="opacity:1" fill="#787878" d="M 282.5,291.5 C 283.167,294.167 283.833,296.833 284.5,299.5C 284.291,300.922 283.791,302.255 283,303.5C 282.501,299.514 282.334,295.514 282.5,291.5 Z"/></g>
<g><path style="opacity:1" fill="#e4e4e4" d="M 167.5,303.5 C 169.344,304.204 169.844,305.537 169,307.5C 167.285,309.759 165.452,311.926 163.5,314C 159,316.167 157.833,315 160,310.5C 162.396,307.933 164.896,305.6 167.5,303.5 Z"/></g>
<g><path style="opacity:1" fill="#ececec" d="M 472.5,304.5 C 474.344,305.204 474.844,306.537 474,308.5C 472.078,312.597 468.912,314.93 464.5,315.5C 465.574,310.748 468.24,307.081 472.5,304.5 Z"/></g>
<g><path style="opacity:1" fill="#6e6e6e" d="M 235.5,314.5 C 234.833,312.833 234.167,311.167 233.5,309.5C 233.987,308.527 234.487,307.527 235,306.5C 235.497,309.146 235.664,311.813 235.5,314.5 Z"/></g>
<g><path style="opacity:1" fill="#6e6e6e" d="M 268.5,314.5 C 267.833,312.833 267.167,311.167 266.5,309.5C 266.987,308.527 267.487,307.527 268,306.5C 268.497,309.146 268.664,311.813 268.5,314.5 Z"/></g>
<g><path style="opacity:1" fill="#444444" d="M 111.5,441.5 C 112.809,443.571 113.475,446.071 113.5,449C 113.167,451.5 112.833,454 112.5,456.5C 111.506,451.544 111.173,446.544 111.5,441.5 Z"/></g>
<g><path style="opacity:1" fill="#1f1f1f" d="M 423.5,455.5 C 422.504,455.414 421.671,455.748 421,456.5C 420.171,451.467 420.338,446.467 421.5,441.5C 422.298,443.078 422.798,444.744 423,446.5C 425.267,445.065 427.267,445.398 429,447.5C 429.667,449.833 429.667,452.167 429,454.5C 427.322,456.553 425.489,456.887 423.5,455.5 Z"/></g>
<g><path style="opacity:1" fill="#1b1b1b" d="M 83.5,443.5 C 82.5151,447.634 82.1818,451.968 82.5,456.5C 81.9987,453.105 80.9987,449.772 79.5,446.5C 80.8155,445.193 81.8155,443.693 82.5,442C 83.8333,441.333 85.1667,441.333 86.5,442C 85.2625,442.232 84.2625,442.732 83.5,443.5 Z"/></g>
<g><path style="opacity:1" fill="#272727" d="M 51.5,445.5 C 55.7736,445.807 60.1069,445.974 64.5,446C 66.6912,449.23 67.0245,452.73 65.5,456.5C 64.5159,453.572 64.1826,450.572 64.5,447.5C 62.8561,447.286 61.3561,447.62 60,448.5C 58.6498,458.868 57.8165,458.535 57.5,447.5C 55.8561,447.286 54.3561,447.62 53,448.5C 52.6667,451.167 52.3333,453.833 52,456.5C 51.5014,452.848 51.3347,449.182 51.5,445.5 Z"/></g>
<g><path style="opacity:1" fill="#131313" d="M 106.5,446.5 C 107.479,449.625 107.813,452.958 107.5,456.5C 105.101,456.563 102.601,456.23 100,455.5C 99.3333,452.167 99.3333,448.833 100,445.5C 100.333,448.5 100.667,451.5 101,454.5C 102.938,455.86 104.604,455.527 106,453.5C 106.497,451.19 106.663,448.857 106.5,446.5 Z"/></g>
<g><path style="opacity:1" fill="#717171" d="M 106.5,446.5 C 106.56,445.957 106.893,445.624 107.5,445.5C 108.808,449.315 108.808,452.981 107.5,456.5C 107.813,452.958 107.479,449.625 106.5,446.5 Z"/></g>
<g><path style="opacity:1" fill="#262626" d="M 122.5,455.5 C 120.965,456.788 119.299,456.788 117.5,455.5C 116.243,452.177 116.243,448.844 117.5,445.5C 118.321,448.447 118.821,451.447 119,454.5C 120.011,455.337 121.178,455.67 122.5,455.5 Z"/></g>
<g><path style="opacity:1" fill="#6a6a6a" d="M 125.5,446.5 C 124.833,448.833 124.167,451.167 123.5,453.5C 123.187,450.753 123.52,448.086 124.5,445.5C 125.107,445.624 125.44,445.957 125.5,446.5 Z"/></g>
<g><path style="opacity:1" fill="#060606" d="M 125.5,446.5 C 125.665,449.85 125.498,453.183 125,456.5C 124.329,455.748 123.496,455.414 122.5,455.5C 122.833,454.833 123.167,454.167 123.5,453.5C 124.167,451.167 124.833,448.833 125.5,446.5 Z"/></g>
<g><path style="opacity:1" fill="#787878" d="M 130.5,446.5 C 129.521,449.625 129.187,452.958 129.5,456.5C 128.192,452.981 128.192,449.315 129.5,445.5C 130.107,445.624 130.44,445.957 130.5,446.5 Z"/></g>
<g><path style="opacity:1" fill="#181818" d="M 129.5,456.5 C 129.187,452.958 129.521,449.625 130.5,446.5C 135.783,444.085 138.116,445.752 137.5,451.5C 137.333,453.167 137.167,454.833 137,456.5C 136.667,453.833 136.333,451.167 136,448.5C 134.612,447.446 133.112,447.28 131.5,448C 130.872,450.939 130.205,453.772 129.5,456.5 Z"/></g>
<g><path style="opacity:1" fill="#484848" d="M 153.5,445.5 C 154.787,446.871 155.453,448.705 155.5,451C 155.167,452.833 154.833,454.667 154.5,456.5C 153.511,452.893 153.177,449.226 153.5,445.5 Z"/></g>
<g><path style="opacity:1" fill="#262626" d="M 268.5,445.5 C 269.222,445.918 269.722,446.584 270,447.5C 271.241,445.579 272.741,445.246 274.5,446.5C 273.372,447.262 272.205,447.929 271,448.5C 270.818,451.226 270.318,453.893 269.5,456.5C 268.511,452.893 268.177,449.226 268.5,445.5 Z"/></g>
<g><path style="opacity:1" fill="#2e2e2e" d="M 283.5,445.5 C 284.787,446.871 285.453,448.705 285.5,451C 285.167,452.833 284.833,454.667 284.5,456.5C 283.511,452.893 283.177,449.226 283.5,445.5 Z"/></g>
<g><path style="opacity:1" fill="#3b3b3b" d="M 385.5,445.5 C 388.068,445.573 390.734,445.906 393.5,446.5C 394.833,449.833 394.833,453.167 393.5,456.5C 392.516,453.572 392.183,450.572 392.5,447.5C 390.856,447.286 389.356,447.62 388,448.5C 387.818,451.226 387.318,453.893 386.5,456.5C 385.511,452.893 385.177,449.226 385.5,445.5 Z"/></g>
<g><path style="opacity:1" fill="#363636" d="M 432.5,445.5 C 433.805,447.397 434.471,449.731 434.5,452.5C 434.333,454.833 434.167,457.167 434,459.5C 432.847,461.497 431.347,461.83 429.5,460.5C 430.325,459.614 431.325,459.281 432.5,459.5C 432.5,454.833 432.5,450.167 432.5,445.5 Z"/></g>
<g><path style="opacity:1" fill="#626262" d="M 83.5,443.5 C 83.7214,444.735 84.3881,445.735 85.5,446.5C 84.0013,449.772 83.0013,453.105 82.5,456.5C 82.1818,451.968 82.5151,447.634 83.5,443.5 Z"/></g>
<g><path style="opacity:1" fill="#292929" d="M 223.5,443.5 C 224.66,444.611 225.993,445.611 227.5,446.5C 226.675,447.386 225.675,447.719 224.5,447.5C 224.337,449.857 224.503,452.19 225,454.5C 225.75,455.126 226.584,455.626 227.5,456C 225.888,456.72 224.388,456.554 223,455.5C 222.744,452.443 222.244,449.443 221.5,446.5C 222.612,445.735 223.279,444.735 223.5,443.5 Z"/></g>
<g><path style="opacity:1" fill="#292929" d="M 277.5,443.5 C 278.66,444.611 279.993,445.611 281.5,446.5C 280.675,447.386 279.675,447.719 278.5,447.5C 278.337,449.857 278.503,452.19 279,454.5C 279.75,455.126 280.584,455.626 281.5,456C 279.888,456.72 278.388,456.554 277,455.5C 276.744,452.443 276.244,449.443 275.5,446.5C 276.612,445.735 277.279,444.735 277.5,443.5 Z"/></g>
<g><path style="opacity:1" fill="#ebebeb" d="M 423.5,455.5 C 422.612,452.946 422.279,450.279 422.5,447.5C 428.704,447.314 430.037,449.814 426.5,455C 425.552,455.483 424.552,455.649 423.5,455.5 Z"/></g>
<g><path style="opacity:1" fill="#202020" d="M 74.5,455.5 C 70.0143,457.177 68.681,455.677 70.5,451C 72.1341,450.506 73.8008,450.34 75.5,450.5C 75.5,449.5 75.5,448.5 75.5,447.5C 73.8008,447.66 72.1341,447.494 70.5,447C 72.8091,444.949 74.9757,445.116 77,447.5C 77.6667,450.5 77.6667,453.5 77,456.5C 76.3292,455.748 75.4959,455.414 74.5,455.5 Z"/></g>
<g><path style="opacity:1" fill="#2b2b2b" d="M 310.5,445.5 C 312.081,446.579 313.747,446.579 315.5,445.5C 317.029,445.529 318.196,446.196 319,447.5C 319.821,450.554 319.655,453.554 318.5,456.5C 317.516,453.572 317.183,450.572 317.5,447.5C 315.833,447.5 314.167,447.5 312.5,447.5C 312.817,450.572 312.484,453.572 311.5,456.5C 310.511,452.893 310.177,449.226 310.5,445.5 Z"/></g>
<g><path style="opacity:1" fill="#2b2b2b" d="M 351.5,445.5 C 353.081,446.579 354.747,446.579 356.5,445.5C 358.029,445.529 359.196,446.196 360,447.5C 360.821,450.554 360.655,453.554 359.5,456.5C 358.516,453.572 358.183,450.572 358.5,447.5C 356.833,447.5 355.167,447.5 353.5,447.5C 353.817,450.572 353.484,453.572 352.5,456.5C 351.511,452.893 351.177,449.226 351.5,445.5 Z"/></g>
<g><path style="opacity:1" fill="#202020" d="M 379.5,455.5 C 375.014,457.177 373.681,455.677 375.5,451C 377.134,450.506 378.801,450.34 380.5,450.5C 380.5,449.5 380.5,448.5 380.5,447.5C 378.801,447.66 377.134,447.494 375.5,447C 377.809,444.949 379.976,445.116 382,447.5C 382.667,450.5 382.667,453.5 382,456.5C 381.329,455.748 380.496,455.414 379.5,455.5 Z"/></g>
<g><path style="opacity:1" fill="#2a2a2a" d="M 158.5,441.5 C 160.117,442.589 160.95,444.256 161,446.5C 163.267,445.065 165.267,445.398 167,447.5C 167.821,450.554 167.655,453.554 166.5,456.5C 165.516,453.572 165.183,450.572 165.5,447.5C 163.833,447.5 162.167,447.5 160.5,447.5C 160.817,450.572 160.484,453.572 159.5,456.5C 158.506,451.544 158.173,446.544 158.5,441.5 Z"/></g>
<g><path style="opacity:1" fill="#212121" d="M 183.5,441.5 C 184.65,446.316 184.816,451.316 184,456.5C 182.026,456.374 179.859,456.208 177.5,456C 175.522,453.503 175.022,450.669 176,447.5C 177.865,445.327 180.031,444.993 182.5,446.5C 183.452,444.955 183.785,443.288 183.5,441.5 Z"/></g>
<g><path style="opacity:1" fill="#eaeaea" d="M 177.5,447.5 C 183.704,447.314 185.037,449.814 181.5,455C 180.216,455.684 179.049,455.517 178,454.5C 177.503,452.19 177.337,449.857 177.5,447.5 Z"/></g>
<g><path style="opacity:1" fill="#212121" d="M 242.5,441.5 C 243.65,446.316 243.816,451.316 243,456.5C 241.026,456.374 238.859,456.208 236.5,456C 234.522,453.503 234.022,450.669 235,447.5C 236.865,445.327 239.031,444.993 241.5,446.5C 242.452,444.955 242.785,443.288 242.5,441.5 Z"/></g>
<g><path style="opacity:1" fill="#eaeaea" d="M 236.5,447.5 C 242.704,447.314 244.037,449.814 240.5,455C 239.216,455.684 238.049,455.517 237,454.5C 236.503,452.19 236.337,449.857 236.5,447.5 Z"/></g>
<g><path style="opacity:1" fill="#353535" d="M 288.5,441.5 C 290.237,444.008 291.07,447.008 291,450.5C 292.667,448.833 294.333,447.167 296,445.5C 295.973,447.417 295.139,449.084 293.5,450.5C 294.253,452.753 295.586,454.587 297.5,456C 294.899,455.599 292.899,454.099 291.5,451.5C 290.833,453.167 290.167,454.833 289.5,456.5C 288.506,451.544 288.173,446.544 288.5,441.5 Z"/></g>
<g><path style="opacity:1" fill="#212121" d="M 335.5,441.5 C 336.65,446.316 336.816,451.316 336,456.5C 334.026,456.374 331.859,456.208 329.5,456C 327.522,453.503 327.022,450.669 328,447.5C 329.865,445.327 332.031,444.993 334.5,446.5C 335.452,444.955 335.785,443.288 335.5,441.5 Z"/></g>
<g><path style="opacity:1" fill="#eaeaea" d="M 329.5,447.5 C 335.704,447.314 337.037,449.814 333.5,455C 332.216,455.684 331.049,455.517 330,454.5C 329.503,452.19 329.337,449.857 329.5,447.5 Z"/></g>
<g><path style="opacity:1" fill="#222222" d="M 439.5,445.5 C 444.339,444.677 446.673,446.677 446.5,451.5C 444.167,451.5 441.833,451.5 439.5,451.5C 439.33,452.822 439.663,453.989 440.5,455C 442.167,455.333 443.833,455.667 445.5,456C 437.281,456.505 435.281,453.005 439.5,445.5 Z"/></g>
<g><path style="opacity:1" fill="#d7d7d7" d="M 439.5,447.5 C 441.167,447.5 442.833,447.5 444.5,447.5C 444.5,448.5 444.5,449.5 444.5,450.5C 442.833,450.5 441.167,450.5 439.5,450.5C 439.5,449.5 439.5,448.5 439.5,447.5 Z"/></g>
<g><path style="opacity:1" fill="#353535" d="M 448.5,441.5 C 450.237,444.008 451.07,447.008 451,450.5C 452.667,448.833 454.333,447.167 456,445.5C 455.973,447.417 455.139,449.084 453.5,450.5C 454.253,452.753 455.586,454.587 457.5,456C 454.899,455.599 452.899,454.099 451.5,451.5C 450.833,453.167 450.167,454.833 449.5,456.5C 448.506,451.544 448.173,446.544 448.5,441.5 Z"/></g>
<g><path style="opacity:1" fill="#e9e9e9" d="M 74.5,455.5 C 71.306,455.824 70.306,454.658 71.5,452C 72.7932,451.51 74.1266,451.343 75.5,451.5C 75.5674,452.959 75.2341,454.292 74.5,455.5 Z"/></g>
<g><path style="opacity:1" fill="#e9e9e9" d="M 379.5,455.5 C 376.306,455.824 375.306,454.658 376.5,452C 377.793,451.51 379.127,451.343 380.5,451.5C 380.567,452.959 380.234,454.292 379.5,455.5 Z"/></g>
<g><path style="opacity:1" fill="#323232" d="M 189.5,445.5 C 194.578,444.745 196.911,446.912 196.5,452C 196.167,453.5 195.833,455 195.5,456.5C 193.328,456.324 190.995,456.157 188.5,456C 187.167,454.333 187.167,452.667 188.5,451C 190.473,450.505 192.473,450.338 194.5,450.5C 194.5,449.5 194.5,448.5 194.5,447.5C 192.473,447.662 190.473,447.495 188.5,447C 189.056,446.617 189.389,446.117 189.5,445.5 Z"/></g>
<g><path style="opacity:1" fill="#e9e9e9" d="M 189.5,451.5 C 191.288,451.215 192.955,451.548 194.5,452.5C 193.579,454.756 191.912,455.756 189.5,455.5C 189.5,454.167 189.5,452.833 189.5,451.5 Z"/></g>
<g><path style="opacity:1" fill="#252525" d="M 216.5,455.5 C 215.054,456.613 213.387,456.78 211.5,456C 210.521,451.483 212.521,449.65 217.5,450.5C 217.5,449.5 217.5,448.5 217.5,447.5C 215.712,447.785 214.045,447.452 212.5,446.5C 214.949,445.09 217.116,445.424 219,447.5C 219.821,450.554 219.655,453.554 218.5,456.5C 217.817,456.137 217.15,455.804 216.5,455.5 Z"/></g>
<g><path style="opacity:1" fill="#e6e6e6" d="M 216.5,455.5 C 215.167,455.5 213.833,455.5 212.5,455.5C 212.384,452.09 214.05,450.756 217.5,451.5C 217.567,452.959 217.234,454.292 216.5,455.5 Z"/></g>
<g><path style="opacity:1" fill="#252525" d="M 262.5,455.5 C 261.054,456.613 259.387,456.78 257.5,456C 256.521,451.483 258.521,449.65 263.5,450.5C 263.5,449.5 263.5,448.5 263.5,447.5C 261.712,447.785 260.045,447.452 258.5,446.5C 260.949,445.09 263.116,445.424 265,447.5C 265.821,450.554 265.655,453.554 264.5,456.5C 263.817,456.137 263.15,455.804 262.5,455.5 Z"/></g>
<g><path style="opacity:1" fill="#e6e6e6" d="M 262.5,455.5 C 261.167,455.5 259.833,455.5 258.5,455.5C 258.384,452.09 260.05,450.756 263.5,451.5C 263.567,452.959 263.234,454.292 262.5,455.5 Z"/></g>
<g><path style="opacity:1" fill="#252525" d="M 304.5,455.5 C 303.054,456.613 301.387,456.78 299.5,456C 298.521,451.483 300.521,449.65 305.5,450.5C 305.5,449.5 305.5,448.5 305.5,447.5C 303.712,447.785 302.045,447.452 300.5,446.5C 302.949,445.09 305.116,445.424 307,447.5C 307.821,450.554 307.655,453.554 306.5,456.5C 305.817,456.137 305.15,455.804 304.5,455.5 Z"/></g>
<g><path style="opacity:1" fill="#e6e6e6" d="M 304.5,455.5 C 303.167,455.5 301.833,455.5 300.5,455.5C 300.384,452.09 302.05,450.756 305.5,451.5C 305.567,452.959 305.234,454.292 304.5,455.5 Z"/></g>
<g><path style="opacity:1" fill="#303030" d="M 342.5,445.5 C 346.833,445.167 348.833,447.167 348.5,451.5C 339.43,452.062 339.43,453.395 348.5,455.5C 343.363,457.869 340.363,456.369 339.5,451C 339.863,448.808 340.863,446.974 342.5,445.5 Z"/></g>
<g><path style="opacity:1" fill="#dfdfdf" d="M 342.5,447.5 C 343.833,447.5 345.167,447.5 346.5,447.5C 346.5,448.5 346.5,449.5 346.5,450.5C 344.712,450.785 343.045,450.452 341.5,449.5C 341.863,448.817 342.196,448.15 342.5,447.5 Z"/></g>
<g><path style="opacity:1" fill="#1f1f1f" d="M 199.5,445.5 C 201.711,445.898 204.044,446.064 206.5,446C 209.167,449.333 209.167,452.667 206.5,456C 204.559,456.743 202.726,456.576 201,455.5C 200.667,457.5 200.333,459.5 200,461.5C 199.501,456.177 199.334,450.844 199.5,445.5 Z"/></g>
<g><path style="opacity:1" fill="#e9e9e9" d="M 201.5,447.5 C 203.167,447.5 204.833,447.5 206.5,447.5C 206.663,449.857 206.497,452.19 206,454.5C 204.062,455.86 202.396,455.527 201,453.5C 200.322,451.402 200.489,449.402 201.5,447.5 Z"/></g>
<g><path style="opacity:1" fill="#2e2e2e" d="M 410.5,445.5 C 416.501,445.457 418.668,448.457 417,454.5C 413.706,457.311 410.706,456.978 408,453.5C 407.018,450.225 407.851,447.559 410.5,445.5 Z"/></g>
<g><path style="opacity:1" fill="#f1f1f1" d="M 410.5,447.5 C 412.167,447.5 413.833,447.5 415.5,447.5C 415.663,449.857 415.497,452.19 415,454.5C 413.062,455.86 411.396,455.527 410,453.5C 409.322,451.402 409.489,449.402 410.5,447.5 Z"/></g>
<g><path style="opacity:1" fill="#212121" d="M 141.5,441.5 C 142.163,443.042 142.83,444.709 143.5,446.5C 149.968,445.154 152.135,447.82 150,454.5C 149.5,455 149,455.5 148.5,456C 146.141,456.208 143.974,456.374 142,456.5C 141.501,451.511 141.334,446.511 141.5,441.5 Z"/></g>
<g><path style="opacity:1" fill="#eaeaea" d="M 143.5,447.5 C 145.167,447.5 146.833,447.5 148.5,447.5C 148.663,449.857 148.497,452.19 148,454.5C 146.062,455.86 144.396,455.527 143,453.5C 142.322,451.402 142.489,449.402 143.5,447.5 Z"/></g>
<g><path style="opacity:1" fill="#343434" d="M 365.5,445.5 C 367.924,445.192 370.257,445.526 372.5,446.5C 371.829,450.505 369.495,452.838 365.5,453.5C 367.078,454.298 368.744,454.798 370.5,455C 373.513,459.04 372.346,461.207 367,461.5C 364.624,461.457 363.124,460.291 362.5,458C 364.17,455.057 364.504,452.057 363.5,449C 363.862,447.566 364.528,446.399 365.5,445.5 Z"/></g>
<g><path style="opacity:1" fill="#f8f8f8" d="M 364.5,456.5 C 366.5,456.5 368.5,456.5 370.5,456.5C 370.5,457.5 370.5,458.5 370.5,459.5C 368.5,459.5 366.5,459.5 364.5,459.5C 364.5,458.5 364.5,457.5 364.5,456.5 Z"/></g>
<g><path style="opacity:1" fill="#e6e6e6" d="M 364.5,447.5 C 366.167,447.5 367.833,447.5 369.5,447.5C 369.65,451.161 368.15,452.161 365,450.5C 364.517,449.552 364.351,448.552 364.5,447.5 Z"/></g>
</svg>
