<?xml version="1.0" encoding="UTF-8"?>
<!DOCTYPE svg PUBLIC "-//W3C//DTD SVG 1.1//EN" "http://www.w3.org/Graphics/SVG/1.1/DTD/svg11.dtd">
<svg xmlns="http://www.w3.org/2000/svg" version="1.1" width="1000px" height="500px" style="shape-rendering:geometricPrecision; text-rendering:geometricPrecision; image-rendering:optimizeQuality; fill-rule:evenodd; clip-rule:evenodd" xmlns:xlink="http://www.w3.org/1999/xlink">
<g><path style="opacity:1" fill="#fefefe" d="M -0.5,-0.5 C 332.833,-0.5 666.167,-0.5 999.5,-0.5C 999.5,166.167 999.5,332.833 999.5,499.5C 666.167,499.5 332.833,499.5 -0.5,499.5C -0.5,332.833 -0.5,166.167 -0.5,-0.5 Z"/></g>
<g><path style="opacity:1" fill="#121212" d="M 553.5,64.5 C 556.695,63.9607 559.195,64.9607 561,67.5C 561.602,70.6622 561.102,73.6622 559.5,76.5C 561.518,79.6348 561.851,82.9681 560.5,86.5C 558.999,85.2485 557.332,84.2485 555.5,83.5C 551.572,86.9233 547.239,89.7567 542.5,92C 541.056,92.7805 539.723,92.6139 538.5,91.5C 540.844,88.4986 541.677,85.1653 541,81.5C 537.916,80.041 535.916,81.041 535,84.5C 533.902,80.4948 534.735,76.9948 537.5,74C 540.308,73.0799 542.475,73.9133 544,76.5C 544.333,79.8333 544.667,83.1667 545,86.5C 547.589,84.7888 550.089,82.9555 552.5,81C 545.864,75.271 546.197,69.771 553.5,64.5 Z"/></g>
<g><path style="opacity:1" fill="#dbdbdb" d="M 551.5,69.5 C 555.909,68.899 557.242,70.5657 555.5,74.5C 553.389,73.3954 552.055,71.7288 551.5,69.5 Z"/></g>
<g><path style="opacity:1" fill="#141414" d="M 477.5,72.5 C 478.376,72.3691 479.043,72.7025 479.5,73.5C 478.752,75.3325 477.752,76.9991 476.5,78.5C 469.833,82.1667 463.167,85.8333 456.5,89.5C 455.152,87.3886 455.485,85.5553 457.5,84C 464.393,80.3924 471.059,76.5591 477.5,72.5 Z"/></g>
<g><path style="opacity:1" fill="#121212" d="M 595.5,86.5 C 601.839,87.0016 605.506,90.5016 606.5,97C 605.333,103.5 601.5,107.333 595,108.5C 589.953,106.926 587.787,103.426 588.5,98C 588.43,92.6289 590.764,88.7955 595.5,86.5 Z"/></g>
<g><path style="opacity:1" fill="#121212" d="M 370.5,88.5 C 378.003,87.8526 380.503,91.186 378,98.5C 375.958,100.51 376.291,102.176 379,103.5C 379.851,106.053 379.518,108.386 378,110.5C 376.144,108.594 373.977,107.76 371.5,108C 367.59,113.162 362.59,115.662 356.5,115.5C 358.195,112.33 358.695,108.996 358,105.5C 355.546,103.987 353.879,104.654 353,107.5C 351.973,103.82 352.806,100.653 355.5,98C 357.289,97.4795 358.956,97.8129 360.5,99C 362.128,102.603 362.962,106.437 363,110.5C 365.48,109.018 367.647,107.185 369.5,105C 365.967,102.328 364.8,98.8278 366,94.5C 367.332,92.34 368.832,90.34 370.5,88.5 Z"/></g>
<g><path style="opacity:1" fill="#141414" d="M 642.5,88.5 C 643.376,88.3691 644.043,88.7025 644.5,89.5C 643.752,91.3325 642.752,92.9991 641.5,94.5C 634.833,98.1667 628.167,101.833 621.5,105.5C 620.152,103.389 620.485,101.555 622.5,100C 629.393,96.3924 636.059,92.5591 642.5,88.5 Z"/></g>
<g><path style="opacity:1" fill="#f4f4f4" d="M 592.5,92.5 C 598.172,91.883 601.339,94.2163 602,99.5C 598.621,101.923 595.121,102.09 591.5,100C 590.083,97.2565 590.416,94.7565 592.5,92.5 Z"/></g>
<g><path style="opacity:1" fill="#d6d6d6" d="M 369.5,93.5 C 373.526,93.2566 374.859,94.9232 373.5,98.5C 371.039,97.7086 369.706,96.0419 369.5,93.5 Z"/></g>
<g><path style="opacity:1" fill="#0d0d0d" d="M 440.5,93.5 C 441.812,95.7432 442.478,98.4098 442.5,101.5C 443.456,114.851 444.623,128.185 446,141.5C 446.364,146.322 447.364,150.988 449,155.5C 449.5,156 450,156.5 450.5,157C 460.633,158.629 470.3,157.296 479.5,153C 483.217,150.321 483.384,147.488 480,144.5C 477.182,150.108 472.682,152.275 466.5,151C 462.954,147.548 461.787,143.382 463,138.5C 468.82,118.855 475.82,118.522 484,137.5C 488.416,154.494 481.916,164.327 464.5,167C 458.245,168.127 452.245,167.46 446.5,165C 445.789,163.745 444.956,162.579 444,161.5C 441.59,141.82 439.09,122.154 436.5,102.5C 437.03,99.1101 438.363,96.1101 440.5,93.5 Z"/></g>
<g><path style="opacity:1" fill="#0e0e0e" d="M 415.5,102.5 C 422.26,101.488 424.26,104.154 421.5,110.5C 419.512,110.173 417.512,109.84 415.5,109.5C 413.681,109.342 412.348,110.009 411.5,111.5C 415.322,115.405 419.822,116.405 425,114.5C 426.479,115.873 426.312,117.373 424.5,119C 418.262,121.637 411.929,123.637 405.5,125C 406.79,122.708 408.457,120.708 410.5,119C 407.793,117.136 406.959,114.636 408,111.5C 410.335,108.335 412.835,105.335 415.5,102.5 Z"/></g>
<g><path style="opacity:1" fill="#101010" d="M 475.5,102.5 C 483.72,104.989 484.553,108.989 478,114.5C 475.976,112.984 473.809,111.651 471.5,110.5C 469.655,112.231 467.822,113.898 466,115.5C 463.501,114.917 461.501,113.584 460,111.5C 460.658,108.531 462.158,105.865 464.5,103.5C 466.524,105.358 468.691,107.025 471,108.5C 473.102,106.905 474.602,104.905 475.5,102.5 Z"/></g>
<g><path style="opacity:1" fill="#0e0e0e" d="M 565.5,111.5 C 566.117,111.611 566.617,111.944 567,112.5C 568.641,126.039 571.308,139.372 575,152.5C 575.465,153.931 576.299,155.097 577.5,156C 584.474,157.961 591.474,157.961 598.5,156C 599.804,155.196 600.471,154.029 600.5,152.5C 599.283,149.238 597.949,146.072 596.5,143C 597.327,139.512 598.827,136.346 601,133.5C 605.667,142.833 605.667,152.167 601,161.5C 598.658,164.754 595.491,166.588 591.5,167C 585.294,168.245 579.461,167.412 574,164.5C 571.616,160.675 569.616,156.675 568,152.5C 561.458,163.019 551.958,167.519 539.5,166C 533.943,164.496 532.11,160.996 534,155.5C 534.473,153.221 535.473,151.221 537,149.5C 537.394,152.893 539.227,155.06 542.5,156C 550.133,157.366 557.3,156.199 564,152.5C 565.872,149.795 566.705,146.795 566.5,143.5C 565.115,136.024 563.782,128.524 562.5,121C 562.806,117.585 563.806,114.418 565.5,111.5 Z"/></g>
<g><path style="opacity:1" fill="#0f0f0f" d="M 638.5,122.5 C 648.002,124.317 648.836,127.983 641,133.5C 638.627,132.576 636.794,131.076 635.5,129C 636.391,126.721 637.391,124.554 638.5,122.5 Z"/></g>
<g><path style="opacity:1" fill="#0b0b0b" d="M 417.5,134.5 C 419.614,135.36 420.78,137.027 421,139.5C 424.644,163.513 414.477,172.68 390.5,167C 387.625,165.698 384.625,164.865 381.5,164.5C 381.79,168.936 381.29,173.27 380,177.5C 377.034,180.265 374.367,179.932 372,176.5C 369.403,171.781 367.57,166.781 366.5,161.5C 362.087,162.465 358.254,164.465 355,167.5C 354.333,171.5 354.333,175.5 355,179.5C 357.251,190.426 359.085,201.426 360.5,212.5C 360.378,215.698 359.545,218.698 358,221.5C 355.254,206.178 353.088,190.678 351.5,175C 351.09,168.135 352.923,161.968 357,156.5C 361.677,153.152 366.344,149.819 371,146.5C 373.822,148.653 376.656,150.819 379.5,153C 382.674,154.725 386.007,156.058 389.5,157C 398.244,157.91 406.911,157.576 415.5,156C 417.18,155.653 418.18,154.653 418.5,153C 416.97,149.439 415.303,145.939 413.5,142.5C 414.86,139.78 416.193,137.114 417.5,134.5 Z"/></g>
<g><path style="opacity:1" fill="#e9e9e9" d="M 468.5,135.5 C 472.029,134.889 473.862,136.223 474,139.5C 469.085,141.679 467.251,140.346 468.5,135.5 Z"/></g>
<g><path style="opacity:1" fill="#0f0f0f" d="M 640.5,142.5 C 645.184,148.042 647.184,154.542 646.5,162C 646.002,175.33 640.668,186.33 630.5,195C 621.485,198.786 612.818,198.12 604.5,193C 623.667,193.488 636.667,184.821 643.5,167C 641.634,161.438 639.634,155.938 637.5,150.5C 637.948,147.609 638.948,144.942 640.5,142.5 Z"/></g>
<g><path style="opacity:1" fill="#0f0f0f" d="M 598.5,175.5 C 601.658,176.313 604.324,177.98 606.5,180.5C 605.041,182.583 603.708,184.75 602.5,187C 599.531,186.342 596.865,184.842 594.5,182.5C 592.823,184.54 591.156,186.54 589.5,188.5C 582.084,185.409 581.584,181.409 588,176.5C 590.01,177.848 592.01,179.182 594,180.5C 596.378,179.623 597.878,177.956 598.5,175.5 Z"/></g>
<g><path style="opacity:1" fill="#111111" d="M 421.5,182.5 C 422.552,182.351 423.552,182.517 424.5,183C 423.5,184.667 422.5,186.333 421.5,188C 414.991,191.755 408.324,195.255 401.5,198.5C 400.334,196.635 400.667,194.968 402.5,193.5C 409.06,190.059 415.393,186.392 421.5,182.5 Z"/></g>
<g><path style="opacity:1" fill="#101010" d="M 336.5,183.5 C 337.239,183.369 337.906,183.536 338.5,184C 319.821,203.698 311.654,227.198 314,254.5C 317.667,247.833 321.333,241.167 325,234.5C 325.654,233.304 326.154,233.304 326.5,234.5C 322.88,243.74 318.714,252.74 314,261.5C 312.276,264.73 310.276,265.064 308,262.5C 304.242,252.138 302.075,241.471 301.5,230.5C 303.124,230.36 304.29,231.027 305,232.5C 306.333,237.167 307.667,241.833 309,246.5C 308.611,221.116 317.778,200.116 336.5,183.5 Z"/></g>
<g><path style="opacity:1" fill="#111111" d="M 659.5,183.5 C 659.897,182.475 660.563,182.308 661.5,183C 681.016,199.503 690.516,220.67 690,246.5C 691.333,241.833 692.667,237.167 694,232.5C 694.71,231.027 695.876,230.36 697.5,230.5C 696.927,241.465 694.76,252.131 691,262.5C 689.847,264.497 688.347,264.83 686.5,263.5C 681.032,254.23 676.365,244.564 672.5,234.5C 672.846,233.304 673.346,233.304 674,234.5C 677.667,241.167 681.333,247.833 685,254.5C 686.266,239.697 684.266,225.364 679,211.5C 674.614,200.628 668.114,191.294 659.5,183.5 Z"/></g>
<g><path style="opacity:1" fill="#111111" d="M 257.5,277.5 C 258.5,277.5 259.5,277.5 260.5,277.5C 259.584,286.16 259.084,294.827 259,303.5C 262.349,299.984 265.849,296.651 269.5,293.5C 270.521,294.002 270.688,294.668 270,295.5C 267.537,298.965 264.704,302.131 261.5,305C 265.466,313.421 271.299,315.255 279,310.5C 278.296,317.292 274.463,319.792 267.5,318C 264.547,314.592 261.713,311.092 259,307.5C 258.827,311.541 258.327,315.541 257.5,319.5C 256.522,319.023 255.689,318.357 255,317.5C 254.267,305.985 254.434,294.485 255.5,283C 255.698,280.879 256.364,279.046 257.5,277.5 Z"/></g>
<g><path style="opacity:1" fill="#191919" d="M 285.5,293.5 C 284.357,296.976 284.19,300.642 285,304.5C 285.513,303.473 286.013,302.473 286.5,301.5C 287.526,298.628 289.192,296.128 291.5,294C 293.464,293.376 295.131,293.876 296.5,295.5C 297.467,303.11 297.8,310.777 297.5,318.5C 295.61,318.703 294.11,318.037 293,316.5C 292.796,309.771 292.63,303.104 292.5,296.5C 287.493,302.508 284.827,309.508 284.5,317.5C 283.178,317.67 282.011,317.337 281,316.5C 280.185,304.132 280.518,291.799 282,279.5C 282.7,277.968 283.866,276.968 285.5,276.5C 286.473,282.15 286.473,287.816 285.5,293.5 Z"/></g>
<g><path style="opacity:1" fill="#101010" d="M 741.5,277.5 C 742.833,277.5 744.167,277.5 745.5,277.5C 743.989,290.778 743.156,304.111 743,317.5C 742,318.833 741,318.833 740,317.5C 739.667,315.167 739.333,312.833 739,310.5C 734.157,319.673 728.157,320.673 721,313.5C 719.052,306.135 720.885,299.968 726.5,295C 730.749,292.987 734.916,293.154 739,295.5C 739.266,289.398 740.099,283.398 741.5,277.5 Z"/></g>
<g><path style="opacity:1" fill="#161616" d="M 777.5,282.5 C 778.601,281.402 779.934,281.235 781.5,282C 784.07,284.067 786.07,286.567 787.5,289.5C 786.277,290.614 784.944,290.781 783.5,290C 781.636,287.312 779.636,284.812 777.5,282.5 Z"/></g>
<g><path style="opacity:1" fill="#111111" d="M 689.5,282.5 C 690.5,282.5 691.5,282.5 692.5,282.5C 692.5,285.833 692.5,289.167 692.5,292.5C 694.833,292.5 697.167,292.5 699.5,292.5C 699.5,293.5 699.5,294.5 699.5,295.5C 696.794,295.575 694.127,295.908 691.5,296.5C 690.608,303.791 690.274,311.124 690.5,318.5C 689.178,318.67 688.011,318.337 687,317.5C 686.5,310.842 686.334,304.175 686.5,297.5C 684.335,297.884 682.668,297.217 681.5,295.5C 683.023,293.717 685.023,293.051 687.5,293.5C 687.751,289.751 688.417,286.085 689.5,282.5 Z"/></g>
<g><path style="opacity:1" fill="#111111" d="M 358.5,292.5 C 362.954,291.617 366.454,292.95 369,296.5C 368.964,303.819 368.797,311.152 368.5,318.5C 365.612,318.78 364.112,317.447 364,314.5C 360.188,320.003 355.855,320.67 351,316.5C 351.991,309.324 356.158,304.658 363.5,302.5C 364.797,299.812 364.464,297.312 362.5,295C 361.167,294.333 359.833,294.333 358.5,295C 356.503,297.492 355.503,300.325 355.5,303.5C 354.5,303.5 353.5,303.5 352.5,303.5C 352.677,298.811 354.677,295.144 358.5,292.5 Z"/></g>
<g><path style="opacity:1" fill="#131313" d="M 704.5,292.5 C 709.742,291.271 713.575,292.937 716,297.5C 715.836,304.476 715.669,311.476 715.5,318.5C 714.167,318.5 712.833,318.5 711.5,318.5C 711.762,317.022 711.429,315.689 710.5,314.5C 706.953,320.047 702.786,320.714 698,316.5C 697.365,314.365 697.699,312.365 699,310.5C 701.958,306.855 705.625,304.188 710,302.5C 711.297,298.825 710.297,296.158 707,294.5C 703.403,296.361 701.903,299.361 702.5,303.5C 701.5,303.5 700.5,303.5 699.5,303.5C 699.277,298.948 700.944,295.281 704.5,292.5 Z"/></g>
<g><path style="opacity:1" fill="#111111" d="M 755.5,292.5 C 759.954,291.617 763.454,292.95 766,296.5C 765.964,303.819 765.797,311.152 765.5,318.5C 762.612,318.78 761.112,317.447 761,314.5C 757.188,320.003 752.855,320.67 748,316.5C 748.991,309.324 753.158,304.658 760.5,302.5C 761.797,299.812 761.464,297.312 759.5,295C 758.167,294.333 756.833,294.333 755.5,295C 753.503,297.492 752.503,300.325 752.5,303.5C 751.5,303.5 750.5,303.5 749.5,303.5C 749.677,298.811 751.677,295.144 755.5,292.5 Z"/></g>
<g><path style="opacity:1" fill="#161616" d="M 649.5,316.5 C 649.664,313.813 649.497,311.146 649,308.5C 648.487,309.527 647.987,310.527 647.5,311.5C 645.674,319.18 642.174,320.18 637,314.5C 635.201,307.572 635.034,300.572 636.5,293.5C 638.288,293.215 639.955,293.548 641.5,294.5C 640.206,300.808 640.206,307.141 641.5,313.5C 643.718,312.076 645.218,310.076 646,307.5C 647.797,302.977 648.964,298.31 649.5,293.5C 650.833,293.5 652.167,293.5 653.5,293.5C 653.831,301.86 653.498,310.193 652.5,318.5C 651.261,318.058 650.261,317.391 649.5,316.5 Z"/></g>
<g><path style="opacity:1" fill="#121212" d="M 310.5,293.5 C 317.706,293.707 321.706,297.373 322.5,304.5C 321.473,317.091 315.306,320.758 304,315.5C 299.493,306.183 301.66,298.85 310.5,293.5 Z"/></g>
<g><path style="opacity:1" fill="#181818" d="M 329.5,277.5 C 330.5,277.5 331.5,277.5 332.5,277.5C 332.425,283.869 332.258,290.202 332,296.5C 336.87,292.464 341.537,292.797 346,297.5C 350.72,310.393 346.22,317.06 332.5,317.5C 332.276,313.485 333.443,312.819 336,315.5C 340.545,313.594 342.712,310.094 342.5,305C 341.924,297.493 338.424,295.66 332,299.5C 331.667,305.5 331.333,311.5 331,317.5C 330,318.833 329,318.833 328,317.5C 327.333,305.167 327.333,292.833 328,280.5C 328.513,279.473 329.013,278.473 329.5,277.5 Z"/></g>
<g><path style="opacity:1" fill="#181818" d="M 383.5,292.5 C 387.976,292.822 389.476,295.156 388,299.5C 387.632,300.91 386.799,301.91 385.5,302.5C 383.869,300.941 383.036,298.941 383,296.5C 382.333,297.167 381.667,297.833 381,298.5C 379.749,304.725 379.083,311.058 379,317.5C 377.667,318.833 376.333,318.833 375,317.5C 374.403,309.815 374.57,302.148 375.5,294.5C 377.39,294.297 378.89,294.963 380,296.5C 381.032,294.973 382.199,293.64 383.5,292.5 Z"/></g>
<g><path style="opacity:1" fill="#161616" d="M 603.5,293.5 C 604.833,293.5 606.167,293.5 607.5,293.5C 607.336,296.187 607.503,298.854 608,301.5C 614.807,290.211 618.473,291.211 619,304.5C 620.181,300.637 622.014,297.137 624.5,294C 626.92,293.313 629.087,293.813 631,295.5C 630.585,302.202 630.752,308.869 631.5,315.5C 630.332,317.217 628.665,317.884 626.5,317.5C 626.83,310.8 626.497,304.134 625.5,297.5C 621.463,303.611 618.796,310.278 617.5,317.5C 616.167,317.5 614.833,317.5 613.5,317.5C 614.112,310.465 614.112,303.465 613.5,296.5C 609.336,302.486 606.836,309.152 606,316.5C 604.989,317.337 603.822,317.67 602.5,317.5C 602.302,309.466 602.635,301.466 603.5,293.5 Z"/></g>
<g><path style="opacity:1" fill="#6e6e6e" d="M 664.5,287.5 C 664.194,290.385 664.527,293.052 665.5,295.5C 665.217,296.289 664.717,296.956 664,297.5C 663.192,293.973 663.359,290.64 664.5,287.5 Z"/></g>
<g><path style="opacity:1" fill="#101010" d="M 664.5,287.5 C 663.359,290.64 663.192,293.973 664,297.5C 664.717,296.956 665.217,296.289 665.5,295.5C 673.881,292.029 678.881,294.862 680.5,304C 679.733,313.445 674.733,317.778 665.5,317C 664.269,315.817 664.269,314.651 665.5,313.5C 668.173,315.912 670.673,315.579 673,312.5C 676.42,307.634 676.253,302.967 672.5,298.5C 669.386,296.938 666.553,297.271 664,299.5C 663.5,305.825 663.334,312.158 663.5,318.5C 662.178,318.67 661.011,318.337 660,317.5C 659.339,304.486 659.506,291.486 660.5,278.5C 661.833,278.5 663.167,278.5 664.5,278.5C 664.5,281.5 664.5,284.5 664.5,287.5 Z"/></g>
<g><path style="opacity:1" fill="#f3f3f3" d="M 727.5,296.5 C 731.306,296.02 734.639,297.02 737.5,299.5C 738.904,298.001 739.57,298.334 739.5,300.5C 738.779,306.982 735.446,311.316 729.5,313.5C 725.589,312.372 723.589,309.706 723.5,305.5C 723.686,301.923 725.02,298.923 727.5,296.5 Z"/></g>
<g><path style="opacity:1" fill="#f1f1f1" d="M 310.5,297.5 C 315.681,297.85 318.348,300.683 318.5,306C 318.721,311.03 316.554,314.53 312,316.5C 306.906,313.659 305.239,309.326 307,303.5C 307.926,301.308 309.093,299.308 310.5,297.5 Z"/></g>
<g><path style="opacity:1" fill="#636363" d="M 285.5,293.5 C 285.194,296.385 285.527,299.052 286.5,301.5C 286.013,302.473 285.513,303.473 285,304.5C 284.19,300.642 284.357,296.976 285.5,293.5 Z"/></g>
<g><path style="opacity:1" fill="#ebebeb" d="M 363.5,305.5 C 364.124,305.917 364.457,306.584 364.5,307.5C 362.784,312.549 359.451,315.883 354.5,317.5C 354.372,315.345 354.872,313.345 356,311.5C 358.478,309.361 360.978,307.361 363.5,305.5 Z"/></g>
<g><path style="opacity:1" fill="#e4e4e4" d="M 709.5,305.5 C 711.344,306.204 711.844,307.537 711,309.5C 709.285,311.759 707.452,313.926 705.5,316C 701,318.167 699.833,317 702,312.5C 704.396,309.933 706.896,307.6 709.5,305.5 Z"/></g>
<g><path style="opacity:1" fill="#ebebeb" d="M 760.5,305.5 C 761.124,305.917 761.457,306.584 761.5,307.5C 759.784,312.549 756.451,315.883 751.5,317.5C 751.372,315.345 751.872,313.345 753,311.5C 755.478,309.361 757.978,307.361 760.5,305.5 Z"/></g>
<g><path style="opacity:1" fill="#6e6e6e" d="M 649.5,316.5 C 648.833,314.833 648.167,313.167 647.5,311.5C 647.987,310.527 648.487,309.527 649,308.5C 649.497,311.146 649.664,313.813 649.5,316.5 Z"/></g>
</svg>
