<?xml version="1.0" encoding="UTF-8"?>
<!DOCTYPE svg PUBLIC "-//W3C//DTD SVG 1.1//EN" "http://www.w3.org/Graphics/SVG/1.1/DTD/svg11.dtd">
<svg xmlns="http://www.w3.org/2000/svg" version="1.1" width="1000px" height="500px" style="shape-rendering:geometricPrecision; text-rendering:geometricPrecision; image-rendering:optimizeQuality; fill-rule:evenodd; clip-rule:evenodd" xmlns:xlink="http://www.w3.org/1999/xlink">
<g><path style="opacity:1" fill="#fefefe" d="M -0.5,-0.5 C 332.833,-0.5 666.167,-0.5 999.5,-0.5C 999.5,166.167 999.5,332.833 999.5,499.5C 666.167,499.5 332.833,499.5 -0.5,499.5C -0.5,332.833 -0.5,166.167 -0.5,-0.5 Z"/></g>
<g><path style="opacity:1" fill="#0f0f0f" d="M 414.5,63.5 C 417.044,63.1043 419.211,63.771 421,65.5C 421.681,69.2022 421.515,72.8689 420.5,76.5C 421.065,78.4048 422.065,80.0715 423.5,81.5C 422.948,83.3334 422.115,85.0001 421,86.5C 419.806,85.5697 418.473,84.9031 417,84.5C 413.789,87.3734 410.289,89.8734 406.5,92C 404.167,92.6667 401.833,92.6667 399.5,92C 403.951,89.2171 408.117,86.0504 412,82.5C 411.256,79.7104 410.423,76.8771 409.5,74C 409.97,69.8952 411.636,66.3952 414.5,63.5 Z"/></g>
<g><path style="opacity:1" fill="#f1f1f1" d="M 413.5,69.5 C 416.719,70.0211 417.719,71.6878 416.5,74.5C 414.244,73.5791 413.244,71.9124 413.5,69.5 Z"/></g>
<g><path style="opacity:1" fill="#131313" d="M 457.5,86.5 C 464.112,86.2795 467.778,89.4461 468.5,96C 468.161,102.855 464.661,107.021 458,108.5C 452.287,107.439 449.787,103.939 450.5,98C 450.586,92.7575 452.919,88.9242 457.5,86.5 Z"/></g>
<g><path style="opacity:1" fill="#121212" d="M 503.5,89.5 C 506.872,90.5697 506.872,92.4031 503.5,95C 496.991,98.7549 490.324,102.255 483.5,105.5C 482.884,102.876 483.884,100.709 486.5,99C 492.552,96.3126 498.219,93.1459 503.5,89.5 Z"/></g>
<g><path style="opacity:1" fill="#eeeeee" d="M 454.5,92.5 C 459.194,91.7002 462.694,93.3669 465,97.5C 465.667,98.1667 465.667,98.8333 465,99.5C 459.799,102.888 455.633,102.055 452.5,97C 453.044,95.415 453.711,93.915 454.5,92.5 Z"/></g>
<g><path style="opacity:1" fill="#0f0f0f" d="M 563.5,93.5 C 564.777,94.6936 565.444,96.3603 565.5,98.5C 566.5,117.682 568.667,136.682 572,155.5C 572.5,156 573,156.5 573.5,157C 580.249,157.877 586.916,157.544 593.5,156C 594.804,155.196 595.471,154.029 595.5,152.5C 594.283,149.238 592.949,146.072 591.5,143C 592.327,139.512 593.827,136.346 596,133.5C 600.667,142.833 600.667,152.167 596,161.5C 594.457,163.378 592.624,164.878 590.5,166C 584.903,167.456 579.237,167.789 573.5,167C 570.667,165.5 568.5,163.333 567,160.5C 564.478,142.05 562.311,123.55 560.5,105C 560.114,100.762 561.114,96.9291 563.5,93.5 Z"/></g>
<g><path style="opacity:1" fill="#121212" d="M 600.5,96.5 C 603.872,97.5697 603.872,99.4031 600.5,102C 593.991,105.755 587.324,109.255 580.5,112.5C 579.884,109.876 580.884,107.709 583.5,106C 589.552,103.313 595.219,100.146 600.5,96.5 Z"/></g>
<g><path style="opacity:1" fill="#0f0f0f" d="M 427.5,111.5 C 428.931,111.881 429.764,112.881 430,114.5C 431.685,126.633 434.019,138.633 437,150.5C 437.69,153.196 439.19,155.363 441.5,157C 446.833,157.667 452.167,157.667 457.5,157C 460.835,156.335 462.668,154.502 463,151.5C 461.62,148.572 460.12,145.738 458.5,143C 459.611,139.945 461.111,137.112 463,134.5C 463.667,135.167 464.333,135.833 465,136.5C 466.527,142.415 466.861,148.415 466,154.5C 465.289,161.545 461.455,165.711 454.5,167C 449.833,167.667 445.167,167.667 440.5,167C 438.376,165.878 436.543,164.378 435,162.5C 433.769,159.039 432.269,155.706 430.5,152.5C 424.196,163.151 414.862,167.651 402.5,166C 397.433,164.63 395.267,161.463 396,156.5C 396.725,154.051 397.725,151.717 399,149.5C 399.793,152.535 401.626,154.701 404.5,156C 411.355,157.035 418.022,156.368 424.5,154C 425.333,153.167 426.167,152.333 427,151.5C 428.555,146.618 428.888,141.618 428,136.5C 426.989,131.458 425.823,126.458 424.5,121.5C 425.104,118.024 426.104,114.691 427.5,111.5 Z"/></g>
<g><path style="opacity:1" fill="#0f0f0f" d="M 502.5,121.5 C 505.401,122.792 507.734,124.792 509.5,127.5C 506.409,134.916 502.409,135.416 497.5,129C 499.301,126.557 500.968,124.057 502.5,121.5 Z"/></g>
<g><path style="opacity:1" fill="#111111" d="M 503.5,142.5 C 507.793,147.976 509.793,154.31 509.5,161.5C 509.261,176.488 502.927,187.988 490.5,196C 482.311,198.646 474.644,197.646 467.5,193C 474.863,193.313 481.863,191.98 488.5,189C 496.762,183.415 502.762,176.082 506.5,167C 504.431,161.531 502.098,156.198 499.5,151C 500.711,148.08 502.044,145.247 503.5,142.5 Z"/></g>
<g><path style="opacity:1" fill="#0d0d0d" d="M 461.5,175.5 C 469.704,177.947 470.537,181.947 464,187.5C 461.667,185.833 459.333,184.167 457,182.5C 455.691,184.976 453.858,186.976 451.5,188.5C 449.578,187.289 447.745,185.956 446,184.5C 446.172,181.649 447.339,179.149 449.5,177C 452.146,177.92 454.646,179.42 457,181.5C 458.332,179.34 459.832,177.34 461.5,175.5 Z"/></g>
<g><path style="opacity:1" fill="#0f0f0f" d="M 593.5,175.5 C 596.658,176.313 599.324,177.98 601.5,180.5C 600.041,182.583 598.708,184.75 597.5,187C 594.531,186.342 591.865,184.842 589.5,182.5C 587.823,184.54 586.156,186.54 584.5,188.5C 577.084,185.409 576.584,181.409 583,176.5C 585.01,177.848 587.01,179.182 589,180.5C 591.378,179.623 592.878,177.956 593.5,175.5 Z"/></g>
<g><path style="opacity:1" fill="#7c7c7c" d="M 409.5,188.5 C 409.5,188.167 409.5,187.833 409.5,187.5C 410.562,185.243 412.228,184.077 414.5,184C 412.963,185.707 411.296,187.207 409.5,188.5 Z"/></g>
<g><path style="opacity:1" fill="#101010" d="M 609.5,185.5 C 609.897,184.475 610.563,184.308 611.5,185C 630.335,201.483 639.502,222.316 639,247.5C 640.333,242.833 641.667,238.167 643,233.5C 643.71,232.027 644.876,231.36 646.5,231.5C 645.925,242.471 643.758,253.138 640,263.5C 638.847,265.497 637.347,265.83 635.5,264.5C 630.032,255.23 625.365,245.564 621.5,235.5C 621.846,234.304 622.346,234.304 623,235.5C 626.667,242.167 630.333,248.833 634,255.5C 636.136,231.253 629.803,209.586 615,190.5C 613.296,188.627 611.463,186.96 609.5,185.5 Z"/></g>
<g><path style="opacity:1" fill="#0f0f0f" d="M 409.5,187.5 C 409.5,187.833 409.5,188.167 409.5,188.5C 396.48,202.864 389.48,219.864 388.5,239.5C 387.349,244.65 387.183,249.984 388,255.5C 388.717,254.956 389.217,254.289 389.5,253.5C 393.069,246.698 396.902,240.031 401,233.5C 398.954,240.281 396.287,246.948 393,253.5C 391.213,257.577 389.046,261.41 386.5,265C 384.633,265.711 383.133,265.211 382,263.5C 379.202,254.308 377.035,244.975 375.5,235.5C 375.188,232.292 376.355,231.292 379,232.5C 380.48,237.102 381.646,241.769 382.5,246.5C 382.461,247.756 382.961,248.756 384,249.5C 384.499,244.511 384.666,239.511 384.5,234.5C 385.774,219.953 390.94,206.953 400,195.5C 402.766,192.223 405.933,189.557 409.5,187.5 Z"/></g>
<g><path style="opacity:1" fill="#505050" d="M 384.5,234.5 C 384.666,239.511 384.499,244.511 384,249.5C 382.961,248.756 382.461,247.756 382.5,246.5C 383.167,242.5 383.833,238.5 384.5,234.5 Z"/></g>
<g><path style="opacity:1" fill="#a3a3a3" d="M 388.5,239.5 C 388.181,244.363 388.514,249.03 389.5,253.5C 389.217,254.289 388.717,254.956 388,255.5C 387.183,249.984 387.349,244.65 388.5,239.5 Z"/></g>
<g><path style="opacity:1" fill="#151515" d="M 675.5,276.5 C 678.734,276.237 680.068,277.737 679.5,281C 679.947,283.599 678.947,285.099 676.5,285.5C 672.837,283.019 672.504,280.019 675.5,276.5 Z"/></g>
<g><path style="opacity:1" fill="#151515" d="M 423.5,278.5 C 424.5,278.5 425.5,278.5 426.5,278.5C 426.154,291.847 425.487,305.18 424.5,318.5C 423.833,318.833 423.167,319.167 422.5,319.5C 420.985,317.453 420.151,315.119 420,312.5C 414.417,321.421 408.417,321.754 402,313.5C 400.213,303.391 404.213,297.057 414,294.5C 416.379,294.482 418.546,295.149 420.5,296.5C 421.028,290.358 422.028,284.358 423.5,278.5 Z"/></g>
<g><path style="opacity:1" fill="#0b0b0b" d="M 542.5,277.5 C 543.787,278.871 544.453,280.705 544.5,283C 543.563,290.154 543.396,297.32 544,304.5C 545.265,299.933 547.931,296.6 552,294.5C 553.261,294.759 554.261,295.426 555,296.5C 555.5,304.159 555.666,311.826 555.5,319.5C 554.178,319.67 553.011,319.337 552,318.5C 552.317,291.667 548.983,292.001 542,319.5C 541.586,319.043 541.086,318.709 540.5,318.5C 539.334,308.183 539.168,297.849 540,287.5C 540.05,283.843 540.883,280.51 542.5,277.5 Z"/></g>
<g><path style="opacity:1" fill="#111111" d="M 702.5,278.5 C 703.833,278.5 705.167,278.5 706.5,278.5C 704.589,290.799 704.256,303.132 705.5,315.5C 705.384,317.552 704.384,318.885 702.5,319.5C 700.929,317.118 700.096,314.451 700,311.5C 695.871,320.088 690.205,321.422 683,315.5C 679.445,306.791 681.612,299.958 689.5,295C 693.372,294.109 697.038,294.609 700.5,296.5C 701.299,290.499 701.966,284.499 702.5,278.5 Z"/></g>
<g><path style="opacity:1" fill="#0e0e0e" d="M 606.5,290.5 C 605.532,292.607 605.198,294.941 605.5,297.5C 606.791,297.737 607.791,297.404 608.5,296.5C 611.313,296.025 613.313,297.025 614.5,299.5C 611.941,299.198 609.607,299.532 607.5,300.5C 605.541,306.75 604.874,313.416 605.5,320.5C 603.62,320.771 602.287,320.104 601.5,318.5C 601.5,312.833 601.5,307.167 601.5,301.5C 600.209,301.263 599.209,301.596 598.5,302.5C 596.862,301.086 595.528,301.42 594.5,303.5C 593.012,301.851 592.012,299.851 591.5,297.5C 589.578,299.003 588.412,301.003 588,303.5C 587.501,308.823 587.334,314.156 587.5,319.5C 586.167,319.5 584.833,319.5 583.5,319.5C 583.2,311.777 583.533,304.11 584.5,296.5C 585.002,295.479 585.668,295.312 586.5,296C 587.191,297.067 587.691,298.234 588,299.5C 592.044,291.297 595.044,291.63 597,300.5C 598.085,299.707 599.252,299.04 600.5,298.5C 601.225,294.468 602.058,290.468 603,286.5C 605.038,281.768 608.538,279.601 613.5,280C 617.158,283.805 617.492,287.972 614.5,292.5C 613.914,292.291 613.414,291.957 613,291.5C 612.667,288.833 612.333,286.167 612,283.5C 609.546,281.987 607.879,282.654 607,285.5C 606.506,287.134 606.34,288.801 606.5,290.5 Z"/></g>
<g><path style="opacity:1" fill="#131313" d="M 739.5,282.5 C 743.656,283.645 746.656,286.311 748.5,290.5C 747.277,291.614 745.944,291.781 744.5,291C 742.18,288.522 740.514,285.689 739.5,282.5 Z"/></g>
<g><path style="opacity:1" fill="#131313" d="M 386.5,293.5 C 389.187,293.336 391.854,293.503 394.5,294C 395.701,294.903 396.535,296.069 397,297.5C 396.563,304.859 396.729,312.192 397.5,319.5C 394.14,320.21 392.307,318.876 392,315.5C 390.5,317 389,318.5 387.5,320C 379.607,321.023 377.44,317.857 381,310.5C 384.092,307.578 387.592,305.245 391.5,303.5C 392.952,300.718 392.619,298.218 390.5,296C 385.385,296.317 383.385,299.15 384.5,304.5C 383.167,304.5 381.833,304.5 380.5,304.5C 380.844,299.848 382.844,296.182 386.5,293.5 Z"/></g>
<g><path style="opacity:1" fill="#161616" d="M 436.5,293.5 C 442.302,292.006 446.136,294.006 448,299.5C 448.001,303.85 447.501,308.183 446.5,312.5C 446.753,314.858 447.086,317.192 447.5,319.5C 444.14,320.21 442.307,318.876 442,315.5C 439.543,320.186 435.877,321.519 431,319.5C 428.777,315.612 429.277,312.112 432.5,309C 435.166,306.665 438.166,304.831 441.5,303.5C 442.952,300.718 442.619,298.218 440.5,296C 437.702,295.439 435.869,296.606 435,299.5C 434.506,301.134 434.34,302.801 434.5,304.5C 432.365,304.853 431.032,304.02 430.5,302C 431.927,298.743 433.927,295.91 436.5,293.5 Z"/></g>
<g><path style="opacity:1" fill="#161616" d="M 566.5,293.5 C 572.302,292.006 576.136,294.006 578,299.5C 578.001,303.85 577.501,308.183 576.5,312.5C 576.753,314.858 577.086,317.192 577.5,319.5C 574.14,320.21 572.307,318.876 572,315.5C 569.543,320.186 565.877,321.519 561,319.5C 558.777,315.612 559.277,312.112 562.5,309C 565.166,306.665 568.166,304.831 571.5,303.5C 572.952,300.718 572.619,298.218 570.5,296C 567.702,295.439 565.869,296.606 565,299.5C 564.506,301.134 564.34,302.801 564.5,304.5C 562.365,304.853 561.032,304.02 560.5,302C 561.927,298.743 563.927,295.91 566.5,293.5 Z"/></g>
<g><path style="opacity:1" fill="#7b7b7b" d="M 606.5,290.5 C 606.025,293.082 606.692,295.082 608.5,296.5C 607.791,297.404 606.791,297.737 605.5,297.5C 605.198,294.941 605.532,292.607 606.5,290.5 Z"/></g>
<g><path style="opacity:1" fill="#161616" d="M 673.5,293.5 C 674.833,293.5 676.167,293.5 677.5,293.5C 677.666,301.507 677.5,309.507 677,317.5C 675.286,318.925 673.953,318.592 673,316.5C 672.233,308.785 672.4,301.118 673.5,293.5 Z"/></g>
<g><path style="opacity:1" fill="#131313" d="M 716.5,293.5 C 719.187,293.336 721.854,293.503 724.5,294C 725.701,294.903 726.535,296.069 727,297.5C 726.563,304.859 726.729,312.192 727.5,319.5C 724.14,320.21 722.307,318.876 722,315.5C 720.5,317 719,318.5 717.5,320C 709.607,321.023 707.44,317.857 711,310.5C 714.092,307.578 717.592,305.245 721.5,303.5C 722.952,300.718 722.619,298.218 720.5,296C 715.385,296.317 713.385,299.15 714.5,304.5C 713.167,304.5 711.833,304.5 710.5,304.5C 710.844,299.848 712.844,296.182 716.5,293.5 Z"/></g>
<g><path style="opacity:1" fill="#0e0e0e" d="M 335.5,294.5 C 336.833,294.5 338.167,294.5 339.5,294.5C 338.788,301.143 338.454,307.809 338.5,314.5C 339.822,314.67 340.989,314.337 342,313.5C 345.06,307.821 347.226,301.821 348.5,295.5C 349.689,294.571 351.022,294.238 352.5,294.5C 351.25,301.835 351.25,309.168 352.5,316.5C 351.714,319.975 350.214,320.308 348,317.5C 347.667,314.833 347.333,312.167 347,309.5C 345.96,319.218 341.96,320.885 335,314.5C 334.208,307.753 334.374,301.086 335.5,294.5 Z"/></g>
<g><path style="opacity:1" fill="#101010" d="M 360.5,294.5 C 362.25,297.355 363.083,300.689 363,304.5C 363.936,300.793 365.769,297.626 368.5,295C 371.025,294.104 373.192,294.604 375,296.5C 375.057,303.824 374.891,311.157 374.5,318.5C 373.178,318.67 372.011,318.337 371,317.5C 370.667,310.5 370.333,303.5 370,296.5C 368.615,297.551 367.615,298.884 367,300.5C 365.064,306.141 363.231,311.808 361.5,317.5C 360.311,318.429 358.978,318.762 357.5,318.5C 357.387,310.203 358.387,302.203 360.5,294.5 Z"/></g>
<g><path style="opacity:1" fill="#0a0a0a" d="M 628.5,316.5 C 628.663,314.143 628.497,311.81 628,309.5C 627.59,310.901 627.09,312.234 626.5,313.5C 625.604,316.069 623.938,318.069 621.5,319.5C 618.734,317.741 616.734,315.407 615.5,312.5C 615.5,308.167 615.5,303.833 615.5,299.5C 614.833,295.5 616.5,293.833 620.5,294.5C 619.669,301.131 619.336,307.798 619.5,314.5C 620.822,314.67 621.989,314.337 623,313.5C 625.798,307.773 627.798,301.773 629,295.5C 630.011,294.663 631.178,294.33 632.5,294.5C 632.831,302.86 632.498,311.193 631.5,319.5C 630.145,318.812 629.145,317.812 628.5,316.5 Z"/></g>
<g><path style="opacity:1" fill="#141414" d="M 652.5,294.5 C 654.25,297.355 655.083,300.689 655,304.5C 655.973,301.221 657.473,298.221 659.5,295.5C 665.489,293.31 668.155,295.477 667.5,302C 666.752,307.477 666.419,312.977 666.5,318.5C 665.178,318.67 664.011,318.337 663,317.5C 662.831,310.809 662.331,304.142 661.5,297.5C 657.279,303.817 654.613,310.817 653.5,318.5C 651.833,318.5 650.167,318.5 648.5,318.5C 648.833,314.5 649.167,310.5 649.5,306.5C 649.977,302.38 650.977,298.38 652.5,294.5 Z"/></g>
<g><path style="opacity:1" fill="#141414" d="M 306.5,298.5 C 305.371,300.628 305.204,302.961 306,305.5C 306.513,304.473 307.013,303.473 307.5,302.5C 308.507,297.986 311.174,295.486 315.5,295C 316.944,296.126 317.61,297.626 317.5,299.5C 316.732,302.154 316.566,304.821 317,307.5C 318.514,302.971 320.681,298.805 323.5,295C 325.567,294.464 327.401,294.964 329,296.5C 329.667,303.833 329.667,311.167 329,318.5C 326.91,319.791 325.576,319.124 325,316.5C 324.845,310.439 324.678,304.439 324.5,298.5C 320.18,304.478 317.514,311.144 316.5,318.5C 315.167,318.5 313.833,318.5 312.5,318.5C 314.316,290.838 311.816,290.505 305,317.5C 303.989,318.337 302.822,318.67 301.5,318.5C 301.302,310.466 301.635,302.466 302.5,294.5C 303.833,294.5 305.167,294.5 306.5,294.5C 306.5,295.833 306.5,297.167 306.5,298.5 Z"/></g>
<g><path style="opacity:1" fill="#909090" d="M 652.5,294.5 C 650.977,298.38 649.977,302.38 649.5,306.5C 649.5,302.5 649.5,298.5 649.5,294.5C 650.5,294.5 651.5,294.5 652.5,294.5 Z"/></g>
<g><path style="opacity:1" fill="#f5f5f5" d="M 408.5,297.5 C 420.345,296.866 423.178,301.532 417,311.5C 412.752,315.842 409.085,315.508 406,310.5C 404.842,305.693 405.676,301.36 408.5,297.5 Z"/></g>
<g><path style="opacity:1" fill="#f8f8f8" d="M 688.5,297.5 C 692.306,297.02 695.639,298.02 698.5,300.5C 699.904,299.001 700.57,299.334 700.5,301.5C 700.137,308.188 696.804,312.521 690.5,314.5C 688.617,314.124 687.117,313.124 686,311.5C 684.806,306.369 685.639,301.702 688.5,297.5 Z"/></g>
<g><path style="opacity:1" fill="#6f6f6f" d="M 306.5,298.5 C 306.232,300.099 306.566,301.432 307.5,302.5C 307.013,303.473 306.513,304.473 306,305.5C 305.204,302.961 305.371,300.628 306.5,298.5 Z"/></g>
<g><path style="opacity:1" fill="#9c9c9c" d="M 607.5,300.5 C 609.607,299.532 611.941,299.198 614.5,299.5C 614.833,299.5 615.167,299.5 615.5,299.5C 615.5,303.833 615.5,308.167 615.5,312.5C 614.517,308.702 614.183,304.702 614.5,300.5C 612.167,300.5 609.833,300.5 607.5,300.5 Z"/></g>
<g><path style="opacity:1" fill="#ededed" d="M 389.5,307.5 C 390.5,307.5 391.5,307.5 392.5,307.5C 391.239,313.093 387.906,316.759 382.5,318.5C 383.066,313.699 385.4,310.032 389.5,307.5 Z"/></g>
<g><path style="opacity:1" fill="#ececec" d="M 440.5,307.5 C 442.344,308.204 442.844,309.537 442,311.5C 440.078,315.597 436.912,317.93 432.5,318.5C 433.574,313.748 436.24,310.081 440.5,307.5 Z"/></g>
<g><path style="opacity:1" fill="#ececec" d="M 570.5,307.5 C 572.344,308.204 572.844,309.537 572,311.5C 570.078,315.597 566.912,317.93 562.5,318.5C 563.574,313.748 566.24,310.081 570.5,307.5 Z"/></g>
<g><path style="opacity:1" fill="#ededed" d="M 719.5,307.5 C 720.5,307.5 721.5,307.5 722.5,307.5C 721.239,313.093 717.906,316.759 712.5,318.5C 713.066,313.699 715.4,310.032 719.5,307.5 Z"/></g>
<g><path style="opacity:1" fill="#8f8f8f" d="M 598.5,302.5 C 599.209,301.596 600.209,301.263 601.5,301.5C 601.5,307.167 601.5,312.833 601.5,318.5C 601.144,312.923 600.144,307.59 598.5,302.5 Z"/></g>
<g><path style="opacity:1" fill="#9a9a9a" d="M 628.5,316.5 C 627.833,315.5 627.167,314.5 626.5,313.5C 627.09,312.234 627.59,310.901 628,309.5C 628.497,311.81 628.663,314.143 628.5,316.5 Z"/></g>
</svg>
