<?xml version="1.0" encoding="UTF-8"?>
<!DOCTYPE svg PUBLIC "-//W3C//DTD SVG 1.1//EN" "http://www.w3.org/Graphics/SVG/1.1/DTD/svg11.dtd">
<svg xmlns="http://www.w3.org/2000/svg" version="1.1" width="1000px" height="500px" style="shape-rendering:geometricPrecision; text-rendering:geometricPrecision; image-rendering:optimizeQuality; fill-rule:evenodd; clip-rule:evenodd" xmlns:xlink="http://www.w3.org/1999/xlink">
<g><path style="opacity:1" fill="#fefefe" d="M -0.5,-0.5 C 332.833,-0.5 666.167,-0.5 999.5,-0.5C 999.5,166.167 999.5,332.833 999.5,499.5C 666.167,499.5 332.833,499.5 -0.5,499.5C -0.5,332.833 -0.5,166.167 -0.5,-0.5 Z"/></g>
<g><path style="opacity:1" fill="#101010" d="M 319.5,78.5 C 319.187,81.2469 319.52,83.9135 320.5,86.5C 321.107,86.3764 321.44,86.0431 321.5,85.5C 327.273,83.7274 328.106,81.0607 324,77.5C 322.404,70.6811 324.904,66.3477 331.5,64.5C 333.374,64.3898 334.874,65.0564 336,66.5C 336.851,70.0417 336.351,73.3751 334.5,76.5C 337.04,79.039 337.874,82.039 337,85.5C 336.586,85.9574 336.086,86.2907 335.5,86.5C 333.851,85.3523 332.351,84.019 331,82.5C 326.589,87.7673 321.089,91.1006 314.5,92.5C 316.085,88.9892 316.585,85.3225 316,81.5C 314.951,80.4829 313.784,80.3162 312.5,81C 311.789,82.2547 310.956,83.4214 310,84.5C 308.699,79.4381 310.366,75.7715 315,73.5C 317.743,74.0749 319.243,75.7415 319.5,78.5 Z"/></g>
<g><path style="opacity:1" fill="#ececec" d="M 327.5,69.5 C 331.252,69.5007 332.252,71.1674 330.5,74.5C 328.244,73.5791 327.244,71.9124 327.5,69.5 Z"/></g>
<g><path style="opacity:1" fill="#0d0d0d" d="M 643.5,71.5 C 646.044,71.1043 648.211,71.771 650,73.5C 650.671,77.6357 650.171,81.6357 648.5,85.5C 650.031,86.6131 651.031,88.1131 651.5,90C 650.326,94.0015 648.16,94.5015 645,91.5C 642.5,94 640,96.5 637.5,99C 634.634,100.457 631.634,100.79 628.5,100C 633.39,97.0458 637.723,93.3792 641.5,89C 636.834,84.9944 636.334,80.4944 640,75.5C 641.376,74.2949 642.542,72.9616 643.5,71.5 Z"/></g>
<g><path style="opacity:1" fill="#dbdbdb" d="M 641.5,77.5 C 645.225,77.7796 646.392,79.7796 645,83.5C 642.735,82.0842 641.569,80.0842 641.5,77.5 Z"/></g>
<g><path style="opacity:1" fill="#8b8b8b" d="M 319.5,78.5 C 320.167,80.8333 320.833,83.1667 321.5,85.5C 321.44,86.0431 321.107,86.3764 320.5,86.5C 319.52,83.9135 319.187,81.2469 319.5,78.5 Z"/></g>
<g><path style="opacity:1" fill="#121212" d="M 370.5,86.5 C 380.022,87.8855 383.189,93.2188 380,102.5C 371.122,111.803 365.622,110.303 363.5,98C 363.586,92.7575 365.919,88.9242 370.5,86.5 Z"/></g>
<g><path style="opacity:1" fill="#121212" d="M 418.5,88.5 C 419.572,90.9358 418.905,93.1025 416.5,95C 409.709,98.2985 403.042,101.798 396.5,105.5C 395.417,104.635 395.251,103.635 396,102.5C 397.167,101.333 398.333,100.167 399.5,99C 406.217,95.9795 412.551,92.4795 418.5,88.5 Z"/></g>
<g><path style="opacity:1" fill="#f5f5f5" d="M 367.5,92.5 C 373.203,91.7299 376.37,94.0632 377,99.5C 371.849,102.901 368.016,101.901 365.5,96.5C 365.752,94.9271 366.418,93.5938 367.5,92.5 Z"/></g>
<g><path style="opacity:1" fill="#141414" d="M 525.5,107.5 C 526.376,107.369 527.043,107.702 527.5,108.5C 526.752,110.332 525.752,111.999 524.5,113.5C 517.833,117.167 511.167,120.833 504.5,124.5C 503.152,122.389 503.485,120.555 505.5,119C 512.393,115.392 519.059,111.559 525.5,107.5 Z"/></g>
<g><path style="opacity:1" fill="#0e0e0e" d="M 340.5,111.5 C 341.693,111.97 342.36,112.97 342.5,114.5C 344.108,123.149 345.608,131.816 347,140.5C 348.149,145.942 349.983,151.109 352.5,156C 359.474,157.961 366.474,157.961 373.5,156C 374.804,155.196 375.471,154.029 375.5,152.5C 374.167,149.167 372.833,145.833 371.5,142.5C 372.137,139.893 373.304,137.56 375,135.5C 375.667,134.167 376.333,134.167 377,135.5C 380.289,143.807 380.289,152.14 377,160.5C 370.515,167.047 362.681,169.213 353.5,167C 351.376,165.878 349.543,164.378 348,162.5C 346.519,159.044 344.852,155.711 343,152.5C 336.852,162.896 327.685,167.396 315.5,166C 309.641,164.781 307.474,161.281 309,155.5C 309.815,153.377 310.815,151.377 312,149.5C 313.991,155.165 317.991,157.499 324,156.5C 330.007,156.834 335.34,155.168 340,151.5C 340.977,148.759 341.477,145.925 341.5,143C 340.645,135.581 339.312,128.248 337.5,121C 338.074,117.688 339.074,114.522 340.5,111.5 Z"/></g>
<g><path style="opacity:1" fill="#0e0e0e" d="M 647.5,116.5 C 655.72,118.989 656.553,122.989 650,128.5C 647.361,127.432 645.195,125.766 643.5,123.5C 644.889,121.132 646.222,118.799 647.5,116.5 Z"/></g>
<g><path style="opacity:1" fill="#0b0b0b" d="M 414.5,122.5 C 422.827,124.327 423.66,127.993 417,133.5C 414.274,132.768 412.107,131.268 410.5,129C 411.713,126.738 413.046,124.571 414.5,122.5 Z"/></g>
<g><path style="opacity:1" fill="#0a0a0a" d="M 555.5,128.5 C 557.984,130.12 559.484,132.453 560,135.5C 562.715,150.782 556.548,160.282 541.5,164C 525.551,169.257 509.218,171.257 492.5,170C 471.734,165.037 467.568,153.87 480,136.5C 474.632,147.938 478.132,155.438 490.5,159C 512.659,162.085 533.992,159.085 554.5,150C 555.899,148.938 556.899,147.605 557.5,146C 553.129,140.571 552.462,134.737 555.5,128.5 Z"/></g>
<g><path style="opacity:1" fill="#0b0b0b" d="M 673.5,130.5 C 684.3,130.469 688.8,135.802 687,146.5C 684.075,152.907 679.242,157.407 672.5,160C 661.874,163.995 650.874,166.495 639.5,167.5C 635.269,179.276 634.269,178.943 636.5,166.5C 629.148,168.241 623.648,165.908 620,159.5C 614.787,166.184 607.954,168.851 599.5,167.5C 599.265,179.469 594.598,189.302 585.5,197C 579.388,199.414 573.054,200.081 566.5,199C 564.221,198.527 562.221,197.527 560.5,196C 578.066,195.559 590.066,187.226 596.5,171C 594.556,167.778 592.889,164.445 591.5,161C 591.993,158.181 593.16,155.681 595,153.5C 596.167,154.667 597.333,155.833 598.5,157C 608.884,159.971 617.051,157.138 623,148.5C 624.399,155.801 628.899,159.135 636.5,158.5C 638.167,158.167 639.833,157.833 641.5,157.5C 647.69,147.81 655.69,139.977 665.5,134C 668.158,132.522 670.825,131.355 673.5,130.5 Z"/></g>
<g><path style="opacity:1" fill="#f6f6f6" d="M 665.5,141.5 C 670.267,141.191 674.934,141.691 679.5,143C 682.73,144.724 683.064,146.724 680.5,149C 669.507,154.779 657.841,157.446 645.5,157C 650.568,149.648 657.235,144.481 665.5,141.5 Z"/></g>
<g><path style="opacity:1" fill="#0f0f0f" d="M 415.5,142.5 C 416.376,142.369 417.043,142.702 417.5,143.5C 425.227,161.993 422.227,178.493 408.5,193C 399.122,198.875 389.789,198.875 380.5,193C 397.75,193.416 410.25,185.916 418,170.5C 418.667,168.167 418.667,165.833 418,163.5C 415.678,159.365 413.845,155.032 412.5,150.5C 413.51,147.817 414.51,145.151 415.5,142.5 Z"/></g>
<g><path style="opacity:1" fill="#777777" d="M 683.5,170.5 C 683.5,170.833 683.5,171.167 683.5,171.5C 681.704,170.207 680.037,168.707 678.5,167C 680.772,167.077 682.438,168.243 683.5,170.5 Z"/></g>
<g><path style="opacity:1" fill="#131313" d="M 274.5,223.5 C 273.349,228.65 273.183,233.984 274,239.5C 274.717,238.956 275.217,238.289 275.5,237.5C 278.563,230.371 282.397,223.704 287,217.5C 283.385,227.743 278.885,237.743 273.5,247.5C 271.647,248.76 269.814,248.76 268,247.5C 267.478,242.6 266.145,237.934 264,233.5C 262.671,227.536 262.004,221.536 262,215.5C 263.147,214.542 264.147,214.875 265,216.5C 266.178,220.88 267.512,225.213 269,229.5C 268.967,204.409 278.467,183.909 297.5,168C 298.167,167.333 298.833,167.333 299.5,168C 283.985,183.202 275.652,201.702 274.5,223.5 Z"/></g>
<g><path style="opacity:1" fill="#111111" d="M 683.5,170.5 C 692.341,176.86 698.841,185.193 703,195.5C 707.374,206.741 709.707,218.408 710,230.5C 711.344,225.819 712.677,221.153 714,216.5C 714.853,214.875 715.853,214.542 717,215.5C 717.332,220.19 716.998,224.857 716,229.5C 714.021,235.416 712.354,241.416 711,247.5C 708.733,248.935 706.733,248.602 705,246.5C 700.11,237.154 695.61,227.654 691.5,218C 692.332,217.312 692.998,217.479 693.5,218.5C 696.845,224.527 700.179,230.527 703.5,236.5C 703.987,237.473 704.487,238.473 705,239.5C 705.818,233.651 705.652,227.985 704.5,222.5C 703.53,202.902 696.53,185.902 683.5,171.5C 683.5,171.167 683.5,170.833 683.5,170.5 Z"/></g>
<g><path style="opacity:1" fill="#0d0d0d" d="M 374.5,175.5 C 377.34,176.423 379.674,178.09 381.5,180.5C 380.365,182.799 379.032,184.966 377.5,187C 374.854,186.08 372.354,184.58 370,182.5C 368.39,184.731 366.557,186.731 364.5,188.5C 357.406,185.729 356.74,181.896 362.5,177C 363.167,176.333 363.833,176.333 364.5,177C 366.017,178.685 367.684,180.185 369.5,181.5C 371.19,179.481 372.856,177.481 374.5,175.5 Z"/></g>
<g><path style="opacity:1" fill="#0f0f0f" d="M 514.5,178.5 C 517.166,179.842 519.499,181.675 521.5,184C 518.432,192.079 514.432,192.579 509.5,185.5C 510.931,182.961 512.597,180.628 514.5,178.5 Z"/></g>
<g><path style="opacity:1" fill="#111111" d="M 593.5,207.5 C 594.552,207.351 595.552,207.517 596.5,208C 595.5,209.667 594.5,211.333 593.5,213C 586.991,216.755 580.324,220.255 573.5,223.5C 572.334,221.635 572.667,219.968 574.5,218.5C 581.06,215.059 587.393,211.392 593.5,207.5 Z"/></g>
<g><path style="opacity:1" fill="#8f8f8f" d="M 274.5,223.5 C 274.181,228.363 274.514,233.03 275.5,237.5C 275.217,238.289 274.717,238.956 274,239.5C 273.183,233.984 273.349,228.65 274.5,223.5 Z"/></g>
<g><path style="opacity:1" fill="#acacac" d="M 704.5,222.5 C 705.652,227.985 705.818,233.651 705,239.5C 704.487,238.473 703.987,237.473 703.5,236.5C 704.486,232.03 704.819,227.363 704.5,222.5 Z"/></g>
<g><path style="opacity:1" fill="#101010" d="M 789.5,260.5 C 790.822,260.33 791.989,260.663 793,261.5C 793.667,263.833 793.667,266.167 793,268.5C 791.667,269.833 790.333,269.833 789,268.5C 788.278,265.739 788.445,263.073 789.5,260.5 Z"/></g>
<g><path style="opacity:1" fill="#141414" d="M 162.5,260.5 C 163.822,260.33 164.989,260.663 166,261.5C 166.667,263.833 166.667,266.167 166,268.5C 162.958,269.986 161.125,268.986 160.5,265.5C 161.187,263.823 161.854,262.156 162.5,260.5 Z"/></g>
<g><path style="opacity:1" fill="#141414" d="M 307.5,260.5 C 311.461,261.884 312.461,264.551 310.5,268.5C 307.187,270.254 305.52,269.254 305.5,265.5C 305.437,263.486 306.103,261.819 307.5,260.5 Z"/></g>
<g><path style="opacity:1" fill="#151515" d="M 428.5,260.5 C 431.734,260.237 433.068,261.737 432.5,265C 432.947,267.599 431.947,269.099 429.5,269.5C 425.837,267.019 425.504,264.019 428.5,260.5 Z"/></g>
<g><path style="opacity:1" fill="#141414" d="M 578.5,260.5 C 582.461,261.884 583.461,264.551 581.5,268.5C 578.187,270.254 576.52,269.254 576.5,265.5C 576.437,263.486 577.103,261.819 578.5,260.5 Z"/></g>
<g><path style="opacity:1" fill="#151515" d="M 714.5,260.5 C 717.734,260.237 719.068,261.737 718.5,265C 718.947,267.599 717.947,269.099 715.5,269.5C 711.837,267.019 711.504,264.019 714.5,260.5 Z"/></g>
<g><path style="opacity:1" fill="#191919" d="M 362.5,278.5 C 361.357,281.976 361.19,285.642 362,289.5C 362.513,288.473 363.013,287.473 363.5,286.5C 364.526,283.628 366.192,281.128 368.5,279C 370.464,278.376 372.131,278.876 373.5,280.5C 374.467,288.11 374.8,295.777 374.5,303.5C 372.61,303.703 371.11,303.037 370,301.5C 369.796,294.771 369.63,288.104 369.5,281.5C 364.493,287.508 361.827,294.508 361.5,302.5C 360.178,302.67 359.011,302.337 358,301.5C 357.185,289.132 357.518,276.799 359,264.5C 359.7,262.968 360.866,261.968 362.5,261.5C 363.473,267.15 363.473,272.816 362.5,278.5 Z"/></g>
<g><path style="opacity:1" fill="#121212" d="M 408.5,275.5 C 407.353,279.646 407.186,283.98 408,288.5C 409.039,287.756 409.539,286.756 409.5,285.5C 410.928,281.551 413.595,279.384 417.5,279C 418.333,279.833 419.167,280.667 420,281.5C 419.883,288.814 419.717,296.147 419.5,303.5C 418.178,303.67 417.011,303.337 416,302.5C 415.667,295.5 415.333,288.5 415,281.5C 410.396,287.717 407.729,294.717 407,302.5C 405.853,303.458 404.853,303.125 404,301.5C 403.179,288.799 403.512,276.132 405,263.5C 406,262.833 407,262.167 408,261.5C 408.499,266.155 408.666,270.821 408.5,275.5 Z"/></g>
<g><path style="opacity:1" fill="#151515" d="M 682.5,262.5 C 683.5,262.5 684.5,262.5 685.5,262.5C 685.154,275.847 684.487,289.18 683.5,302.5C 682.833,302.833 682.167,303.167 681.5,303.5C 679.985,301.453 679.151,299.119 679,296.5C 673.417,305.421 667.417,305.754 661,297.5C 659.213,287.391 663.213,281.057 673,278.5C 675.379,278.482 677.546,279.149 679.5,280.5C 680.028,274.358 681.028,268.358 682.5,262.5 Z"/></g>
<g><path style="opacity:1" fill="#121212" d="M 694.5,275.5 C 693.353,279.646 693.186,283.98 694,288.5C 695.039,287.756 695.539,286.756 695.5,285.5C 696.928,281.551 699.595,279.384 703.5,279C 704.333,279.833 705.167,280.667 706,281.5C 705.883,288.814 705.717,296.147 705.5,303.5C 704.178,303.67 703.011,303.337 702,302.5C 701.667,295.5 701.333,288.5 701,281.5C 696.396,287.717 693.729,294.717 693,302.5C 691.853,303.458 690.853,303.125 690,301.5C 689.179,288.799 689.512,276.132 691,263.5C 692,262.833 693,262.167 694,261.5C 694.499,266.155 694.666,270.821 694.5,275.5 Z"/></g>
<g><path style="opacity:1" fill="#0b0b0b" d="M 800.5,261.5 C 801.787,262.871 802.453,264.705 802.5,267C 801.563,274.154 801.396,281.32 802,288.5C 803.265,283.933 805.931,280.6 810,278.5C 811.261,278.759 812.261,279.426 813,280.5C 813.5,288.159 813.666,295.826 813.5,303.5C 812.178,303.67 811.011,303.337 810,302.5C 810.317,275.667 806.983,276.001 800,303.5C 799.586,303.043 799.086,302.709 798.5,302.5C 797.334,292.183 797.168,281.849 798,271.5C 798.05,267.843 798.883,264.51 800.5,261.5 Z"/></g>
<g><path style="opacity:1" fill="#0f0f0f" d="M 223.5,275.5 C 222.809,284.734 222.142,294.068 221.5,303.5C 220.811,304.774 219.977,304.774 219,303.5C 218.309,290.151 218.475,276.817 219.5,263.5C 220.833,263.5 222.167,263.5 223.5,263.5C 223.5,267.5 223.5,271.5 223.5,275.5 Z"/></g>
<g><path style="opacity:1" fill="#0f0f0f" d="M 319.5,275.5 C 318.809,284.734 318.142,294.068 317.5,303.5C 316.811,304.774 315.977,304.774 315,303.5C 314.309,290.151 314.475,276.817 315.5,263.5C 316.833,263.5 318.167,263.5 319.5,263.5C 319.5,267.5 319.5,271.5 319.5,275.5 Z"/></g>
<g><path style="opacity:1" fill="#0f0f0f" d="M 590.5,275.5 C 589.809,284.734 589.142,294.068 588.5,303.5C 587.811,304.774 586.977,304.774 586,303.5C 585.309,290.151 585.475,276.817 586.5,263.5C 587.833,263.5 589.167,263.5 590.5,263.5C 590.5,267.5 590.5,271.5 590.5,275.5 Z"/></g>
<g><path style="opacity:1" fill="#0c0c0c" d="M 843.5,263.5 C 844.833,263.5 846.167,263.5 847.5,263.5C 847.119,276.845 846.452,290.178 845.5,303.5C 844.833,303.833 844.167,304.167 843.5,304.5C 842.281,290.827 842.281,277.161 843.5,263.5 Z"/></g>
<g><path style="opacity:1" fill="#111111" d="M 555.5,287.5 C 554.793,293.066 554.126,298.732 553.5,304.5C 552.167,304.5 551.5,303.833 551.5,302.5C 551.5,296.833 551.5,291.167 551.5,285.5C 550.209,285.263 549.209,285.596 548.5,286.5C 547.522,286.189 546.855,285.522 546.5,284.5C 547.85,283.05 549.516,282.383 551.5,282.5C 550.066,274.874 552.399,268.708 558.5,264C 562.166,262.729 564.666,263.896 566,267.5C 565.893,264.443 567.06,262.109 569.5,260.5C 572.568,262.494 573.235,265.161 571.5,268.5C 569.994,269.747 568.494,269.747 567,268.5C 564.252,279.126 562.585,278.793 562,267.5C 558.084,266.39 556.084,268.057 556,272.5C 555.503,275.146 555.336,277.813 555.5,280.5C 558.983,279.916 561.983,280.749 564.5,283C 561.607,284.149 558.607,284.649 555.5,284.5C 555.5,285.5 555.5,286.5 555.5,287.5 Z"/></g>
<g><path style="opacity:1" fill="#101010" d="M 246.5,274.5 C 245.532,276.607 245.198,278.941 245.5,281.5C 246.791,281.737 247.791,281.404 248.5,280.5C 251.022,280.128 253.022,280.961 254.5,283C 251.607,284.149 248.607,284.649 245.5,284.5C 245.5,291.167 245.5,297.833 245.5,304.5C 243.62,304.771 242.287,304.104 241.5,302.5C 241.5,296.833 241.5,291.167 241.5,285.5C 240.209,285.263 239.209,285.596 238.5,286.5C 237.295,284.59 237.962,283.257 240.5,282.5C 240.4,275.623 242.733,269.79 247.5,265C 250.835,262.709 253.668,263.209 256,266.5C 256.85,270.052 256.35,273.385 254.5,276.5C 253.914,276.291 253.414,275.957 253,275.5C 252.667,272.833 252.333,270.167 252,267.5C 249.546,265.987 247.879,266.654 247,269.5C 246.506,271.134 246.34,272.801 246.5,274.5 Z"/></g>
<g><path style="opacity:1" fill="#131313" d="M 284.5,266.5 C 288.656,267.645 291.656,270.311 293.5,274.5C 292.277,275.614 290.944,275.781 289.5,275C 287.18,272.522 285.514,269.689 284.5,266.5 Z"/></g>
<g><path style="opacity:1" fill="#131313" d="M 143.5,277.5 C 146.187,277.336 148.854,277.503 151.5,278C 152.701,278.903 153.535,280.069 154,281.5C 153.563,288.859 153.729,296.192 154.5,303.5C 151.14,304.21 149.307,302.876 149,299.5C 147.5,301 146,302.5 144.5,304C 136.607,305.023 134.44,301.857 138,294.5C 141.092,291.578 144.592,289.245 148.5,287.5C 149.952,284.718 149.619,282.218 147.5,280C 142.385,280.317 140.385,283.15 141.5,288.5C 140.167,288.5 138.833,288.5 137.5,288.5C 137.844,283.848 139.844,280.182 143.5,277.5 Z"/></g>
<g><path style="opacity:1" fill="#171717" d="M 160.5,277.5 C 161.833,277.5 163.167,277.5 164.5,277.5C 164.5,285.833 164.5,294.167 164.5,302.5C 162.61,302.703 161.11,302.037 160,300.5C 159.309,292.805 159.475,285.139 160.5,277.5 Z"/></g>
<g><path style="opacity:1" fill="#7b7b7b" d="M 246.5,274.5 C 246.025,277.082 246.692,279.082 248.5,280.5C 247.791,281.404 246.791,281.737 245.5,281.5C 245.198,278.941 245.532,276.607 246.5,274.5 Z"/></g>
<g><path style="opacity:1" fill="#131313" d="M 261.5,277.5 C 264.187,277.336 266.854,277.503 269.5,278C 270.701,278.903 271.535,280.069 272,281.5C 271.563,288.859 271.729,296.192 272.5,303.5C 269.14,304.21 267.307,302.876 267,299.5C 265.5,301 264,302.5 262.5,304C 254.607,305.023 252.44,301.857 256,294.5C 259.092,291.578 262.592,289.245 266.5,287.5C 267.952,284.718 267.619,282.218 265.5,280C 260.385,280.317 258.385,283.15 259.5,288.5C 258.167,288.5 256.833,288.5 255.5,288.5C 255.844,283.848 257.844,280.182 261.5,277.5 Z"/></g>
<g><path style="opacity:1" fill="#0e0e0e" d="M 305.5,277.5 C 306.833,277.5 308.167,277.5 309.5,277.5C 308.815,285.816 308.482,294.149 308.5,302.5C 307.178,302.67 306.011,302.337 305,301.5C 304.2,293.421 304.367,285.421 305.5,277.5 Z"/></g>
<g><path style="opacity:1" fill="#161616" d="M 426.5,277.5 C 427.833,277.5 429.167,277.5 430.5,277.5C 430.666,285.507 430.5,293.507 430,301.5C 428.286,302.925 426.953,302.592 426,300.5C 425.233,292.785 425.4,285.118 426.5,277.5 Z"/></g>
<g><path style="opacity:1" fill="#0e0e0e" d="M 566.5,277.5 C 567.833,277.5 569.167,277.5 570.5,277.5C 569.815,285.816 569.482,294.149 569.5,302.5C 568.178,302.67 567.011,302.337 566,301.5C 565.2,293.421 565.367,285.421 566.5,277.5 Z"/></g>
<g><path style="opacity:1" fill="#0e0e0e" d="M 576.5,277.5 C 577.833,277.5 579.167,277.5 580.5,277.5C 579.815,285.816 579.482,294.149 579.5,302.5C 578.178,302.67 577.011,302.337 576,301.5C 575.2,293.421 575.367,285.421 576.5,277.5 Z"/></g>
<g><path style="opacity:1" fill="#131313" d="M 645.5,277.5 C 648.187,277.336 650.854,277.503 653.5,278C 654.701,278.903 655.535,280.069 656,281.5C 655.563,288.859 655.729,296.192 656.5,303.5C 653.14,304.21 651.307,302.876 651,299.5C 649.5,301 648,302.5 646.5,304C 638.607,305.023 636.44,301.857 640,294.5C 643.092,291.578 646.592,289.245 650.5,287.5C 651.952,284.718 651.619,282.218 649.5,280C 644.385,280.317 642.385,283.15 643.5,288.5C 642.167,288.5 640.833,288.5 639.5,288.5C 639.844,283.848 641.844,280.182 645.5,277.5 Z"/></g>
<g><path style="opacity:1" fill="#161616" d="M 712.5,277.5 C 713.833,277.5 715.167,277.5 716.5,277.5C 716.666,285.507 716.5,293.507 716,301.5C 714.286,302.925 712.953,302.592 712,300.5C 711.233,292.785 711.4,285.118 712.5,277.5 Z"/></g>
<g><path style="opacity:1" fill="#131313" d="M 771.5,277.5 C 774.187,277.336 776.854,277.503 779.5,278C 780.701,278.903 781.535,280.069 782,281.5C 781.563,288.859 781.729,296.192 782.5,303.5C 779.14,304.21 777.307,302.876 777,299.5C 775.5,301 774,302.5 772.5,304C 764.607,305.023 762.44,301.857 766,294.5C 769.092,291.578 772.592,289.245 776.5,287.5C 777.952,284.718 777.619,282.218 775.5,280C 770.385,280.317 768.385,283.15 769.5,288.5C 768.167,288.5 766.833,288.5 765.5,288.5C 765.844,283.848 767.844,280.182 771.5,277.5 Z"/></g>
<g><path style="opacity:1" fill="#131313" d="M 788.5,277.5 C 789.833,277.5 791.167,277.5 792.5,277.5C 793.068,290.61 792.235,303.61 790,316.5C 787.876,320.255 784.876,321.255 781,319.5C 779.543,315.259 779.209,310.926 780,306.5C 780.71,305.027 781.876,304.36 783.5,304.5C 782.751,308.819 782.585,313.152 783,317.5C 783.414,317.957 783.914,318.291 784.5,318.5C 785.485,316.228 786.319,313.895 787,311.5C 787.282,300.146 787.782,288.813 788.5,277.5 Z"/></g>
<g><path style="opacity:1" fill="#101010" d="M 117.5,278.5 C 119.25,281.355 120.083,284.689 120,288.5C 120.936,284.793 122.769,281.626 125.5,279C 128.025,278.104 130.192,278.604 132,280.5C 132.057,287.824 131.891,295.157 131.5,302.5C 130.178,302.67 129.011,302.337 128,301.5C 127.667,294.5 127.333,287.5 127,280.5C 125.615,281.551 124.615,282.884 124,284.5C 122.064,290.141 120.231,295.808 118.5,301.5C 117.311,302.429 115.978,302.762 114.5,302.5C 114.387,294.203 115.387,286.203 117.5,278.5 Z"/></g>
<g><path style="opacity:1" fill="#0a0a0a" d="M 208.5,300.5 C 208.663,298.143 208.497,295.81 208,293.5C 207.59,294.901 207.09,296.234 206.5,297.5C 205.604,300.069 203.938,302.069 201.5,303.5C 199.517,302.018 197.684,300.351 196,298.5C 195.333,292.167 195.333,285.833 196,279.5C 197.356,278.62 198.856,278.286 200.5,278.5C 199.669,285.131 199.336,291.798 199.5,298.5C 200.822,298.67 201.989,298.337 203,297.5C 205.798,291.773 207.798,285.773 209,279.5C 210.011,278.663 211.178,278.33 212.5,278.5C 212.831,286.86 212.498,295.193 211.5,303.5C 210.145,302.812 209.145,301.812 208.5,300.5 Z"/></g>
<g><path style="opacity:1" fill="#0e0e0e" d="M 337.5,278.5 C 343.868,278.17 350.202,278.504 356.5,279.5C 350.344,284.824 344.677,290.657 339.5,297C 344.5,297.333 349.5,297.667 354.5,298C 354.957,298.414 355.291,298.914 355.5,299.5C 354.5,300.167 353.5,300.833 352.5,301.5C 346.279,302.185 340.112,302.852 334,303.5C 332.733,302.09 332.733,300.424 334,298.5C 339.167,293.333 344.333,288.167 349.5,283C 345.5,282.667 341.5,282.333 337.5,282C 336.316,280.855 336.316,279.688 337.5,278.5 Z"/></g>
<g><path style="opacity:1" fill="#181818" d="M 819.5,278.5 C 821.199,278.34 822.866,278.506 824.5,279C 823.19,285.444 823.19,291.944 824.5,298.5C 826.197,297.636 827.363,296.303 828,294.5C 830.014,289.293 831.514,283.96 832.5,278.5C 833.833,278.5 835.167,278.5 836.5,278.5C 836.5,286.833 836.5,295.167 836.5,303.5C 834.61,303.703 833.11,303.037 832,301.5C 831.667,299.5 831.333,297.5 831,295.5C 829.381,302.981 825.714,304.314 820,299.5C 818.171,292.559 818.004,285.559 819.5,278.5 Z"/></g>
<g><path style="opacity:1" fill="#191919" d="M 175.5,301.5 C 175.5,300.5 175.5,299.5 175.5,298.5C 177.003,299.682 178.67,300.182 180.5,300C 186.141,294.856 186.808,289.189 182.5,283C 179.073,281.834 176.407,282.668 174.5,285.5C 173.511,290.975 173.178,296.642 173.5,302.5C 172.791,303.404 171.791,303.737 170.5,303.5C 169.139,290.492 169.306,277.492 171,264.5C 172.11,262.963 173.61,262.297 175.5,262.5C 175.065,268.842 174.898,275.175 175,281.5C 180.983,277.096 185.983,278.096 190,284.5C 192.43,297.152 187.597,302.819 175.5,301.5 Z"/></g>
<g><path style="opacity:1" fill="#121212" d="M 387.5,278.5 C 394.706,278.707 398.706,282.373 399.5,289.5C 398.473,302.091 392.306,305.758 381,300.5C 376.493,291.183 378.66,283.85 387.5,278.5 Z"/></g>
<g><path style="opacity:1" fill="#181818" d="M 444.5,277.5 C 448.976,277.822 450.476,280.156 449,284.5C 448.632,285.91 447.799,286.91 446.5,287.5C 444.869,285.941 444.036,283.941 444,281.5C 443.333,282.167 442.667,282.833 442,283.5C 440.749,289.725 440.083,296.058 440,302.5C 438.667,303.833 437.333,303.833 436,302.5C 435.403,294.815 435.57,287.148 436.5,279.5C 438.39,279.297 439.89,279.963 441,281.5C 442.032,279.973 443.199,278.64 444.5,277.5 Z"/></g>
<g><path style="opacity:1" fill="#141414" d="M 611.5,282.5 C 610.371,284.628 610.204,286.961 611,289.5C 611.513,288.473 612.013,287.473 612.5,286.5C 613.507,281.986 616.174,279.486 620.5,279C 621.944,280.126 622.61,281.626 622.5,283.5C 621.732,286.154 621.566,288.821 622,291.5C 623.514,286.971 625.681,282.805 628.5,279C 630.567,278.464 632.401,278.964 634,280.5C 634.667,287.833 634.667,295.167 634,302.5C 631.91,303.791 630.576,303.124 630,300.5C 629.845,294.439 629.678,288.439 629.5,282.5C 625.18,288.478 622.514,295.144 621.5,302.5C 620.167,302.5 618.833,302.5 617.5,302.5C 619.316,274.838 616.816,274.505 610,301.5C 608.989,302.337 607.822,302.67 606.5,302.5C 606.302,294.466 606.635,286.466 607.5,278.5C 608.833,278.5 610.167,278.5 611.5,278.5C 611.5,279.833 611.5,281.167 611.5,282.5 Z"/></g>
<g><path style="opacity:1" fill="#141414" d="M 737.5,282.5 C 736.371,284.628 736.204,286.961 737,289.5C 737.513,288.473 738.013,287.473 738.5,286.5C 739.507,281.986 742.174,279.486 746.5,279C 747.944,280.126 748.61,281.626 748.5,283.5C 747.732,286.154 747.566,288.821 748,291.5C 749.514,286.971 751.681,282.805 754.5,279C 756.567,278.464 758.401,278.964 760,280.5C 760.667,287.833 760.667,295.167 760,302.5C 757.91,303.791 756.576,303.124 756,300.5C 755.845,294.439 755.678,288.439 755.5,282.5C 751.18,288.478 748.514,295.144 747.5,302.5C 746.167,302.5 744.833,302.5 743.5,302.5C 745.316,274.838 742.816,274.505 736,301.5C 734.989,302.337 733.822,302.67 732.5,302.5C 732.302,294.466 732.635,286.466 733.5,278.5C 734.833,278.5 736.167,278.5 737.5,278.5C 737.5,279.833 737.5,281.167 737.5,282.5 Z"/></g>
<g><path style="opacity:1" fill="#f5f5f5" d="M 667.5,281.5 C 679.345,280.866 682.178,285.532 676,295.5C 671.752,299.842 668.085,299.508 665,294.5C 663.842,289.693 664.676,285.36 667.5,281.5 Z"/></g>
<g><path style="opacity:1" fill="#fbfbfb" d="M 175.5,298.5 C 174.515,294.366 174.182,290.032 174.5,285.5C 176.407,282.668 179.073,281.834 182.5,283C 186.808,289.189 186.141,294.856 180.5,300C 178.67,300.182 177.003,299.682 175.5,298.5 Z"/></g>
<g><path style="opacity:1" fill="#f1f1f1" d="M 387.5,282.5 C 392.681,282.85 395.348,285.683 395.5,291C 395.721,296.03 393.554,299.53 389,301.5C 383.906,298.659 382.239,294.326 384,288.5C 384.926,286.308 386.093,284.308 387.5,282.5 Z"/></g>
<g><path style="opacity:1" fill="#8d8d8d" d="M 408.5,275.5 C 408.187,279.042 408.521,282.375 409.5,285.5C 409.539,286.756 409.039,287.756 408,288.5C 407.186,283.98 407.353,279.646 408.5,275.5 Z"/></g>
<g><path style="opacity:1" fill="#8d8d8d" d="M 694.5,275.5 C 694.187,279.042 694.521,282.375 695.5,285.5C 695.539,286.756 695.039,287.756 694,288.5C 693.186,283.98 693.353,279.646 694.5,275.5 Z"/></g>
<g><path style="opacity:1" fill="#636363" d="M 362.5,278.5 C 362.194,281.385 362.527,284.052 363.5,286.5C 363.013,287.473 362.513,288.473 362,289.5C 361.19,285.642 361.357,281.976 362.5,278.5 Z"/></g>
<g><path style="opacity:1" fill="#6c6c6c" d="M 223.5,275.5 C 224.139,285.227 223.472,294.56 221.5,303.5C 222.142,294.068 222.809,284.734 223.5,275.5 Z"/></g>
<g><path style="opacity:1" fill="#6c6c6c" d="M 319.5,275.5 C 320.139,285.227 319.472,294.56 317.5,303.5C 318.142,294.068 318.809,284.734 319.5,275.5 Z"/></g>
<g><path style="opacity:1" fill="#6c6c6c" d="M 590.5,275.5 C 591.139,285.227 590.472,294.56 588.5,303.5C 589.142,294.068 589.809,284.734 590.5,275.5 Z"/></g>
<g><path style="opacity:1" fill="#6f6f6f" d="M 611.5,282.5 C 611.232,284.099 611.566,285.432 612.5,286.5C 612.013,287.473 611.513,288.473 611,289.5C 610.204,286.961 610.371,284.628 611.5,282.5 Z"/></g>
<g><path style="opacity:1" fill="#6f6f6f" d="M 737.5,282.5 C 737.232,284.099 737.566,285.432 738.5,286.5C 738.013,287.473 737.513,288.473 737,289.5C 736.204,286.961 736.371,284.628 737.5,282.5 Z"/></g>
<g><path style="opacity:1" fill="#ededed" d="M 146.5,291.5 C 147.5,291.5 148.5,291.5 149.5,291.5C 148.239,297.093 144.906,300.759 139.5,302.5C 140.066,297.699 142.4,294.032 146.5,291.5 Z"/></g>
<g><path style="opacity:1" fill="#ededed" d="M 264.5,291.5 C 265.5,291.5 266.5,291.5 267.5,291.5C 266.239,297.093 262.906,300.759 257.5,302.5C 258.066,297.699 260.4,294.032 264.5,291.5 Z"/></g>
<g><path style="opacity:1" fill="#ededed" d="M 648.5,291.5 C 649.5,291.5 650.5,291.5 651.5,291.5C 650.239,297.093 646.906,300.759 641.5,302.5C 642.066,297.699 644.4,294.032 648.5,291.5 Z"/></g>
<g><path style="opacity:1" fill="#ededed" d="M 774.5,291.5 C 775.5,291.5 776.5,291.5 777.5,291.5C 776.239,297.093 772.906,300.759 767.5,302.5C 768.066,297.699 770.4,294.032 774.5,291.5 Z"/></g>
<g><path style="opacity:1" fill="#8f8f8f" d="M 238.5,286.5 C 239.209,285.596 240.209,285.263 241.5,285.5C 241.5,291.167 241.5,296.833 241.5,302.5C 241.144,296.923 240.144,291.59 238.5,286.5 Z"/></g>
<g><path style="opacity:1" fill="#535353" d="M 548.5,286.5 C 549.209,285.596 550.209,285.263 551.5,285.5C 551.5,291.167 551.5,296.833 551.5,302.5C 551.144,296.923 550.144,291.59 548.5,286.5 Z"/></g>
<g><path style="opacity:1" fill="#848484" d="M 174.5,285.5 C 174.182,290.032 174.515,294.366 175.5,298.5C 175.5,299.5 175.5,300.5 175.5,301.5C 174.833,301.833 174.167,302.167 173.5,302.5C 173.178,296.642 173.511,290.975 174.5,285.5 Z"/></g>
<g><path style="opacity:1" fill="#9a9a9a" d="M 208.5,300.5 C 207.833,299.5 207.167,298.5 206.5,297.5C 207.09,296.234 207.59,294.901 208,293.5C 208.497,295.81 208.663,298.143 208.5,300.5 Z"/></g>
<g><path style="opacity:1" fill="#505050" d="M 555.5,287.5 C 556.117,293.598 555.45,299.265 553.5,304.5C 554.126,298.732 554.793,293.066 555.5,287.5 Z"/></g>
<g><path style="opacity:1" fill="#2e2e2e" d="M 82.5,441.5 C 81.5041,441.414 80.6708,441.748 80,442.5C 79.1711,437.467 79.3377,432.467 80.5,427.5C 81.2978,429.078 81.7978,430.744 82,432.5C 86.1608,430.966 88.6608,432.466 89.5,437C 89.197,442.119 86.8637,443.619 82.5,441.5 Z"/></g>
<g><path style="opacity:1" fill="#4b4b4b" d="M 135.5,427.5 C 136.922,427.75 137.922,428.583 138.5,430C 136.511,430.519 135.511,429.686 135.5,427.5 Z"/></g>
<g><path style="opacity:1" fill="#202020" d="M 193.5,427.5 C 194.163,429.042 194.83,430.709 195.5,432.5C 197.969,430.993 200.135,431.327 202,433.5C 202.821,436.554 202.655,439.554 201.5,442.5C 200.516,439.572 200.183,436.572 200.5,433.5C 198.533,433.261 196.699,433.594 195,434.5C 194.667,437.167 194.333,439.833 194,442.5C 193.501,437.511 193.334,432.511 193.5,427.5 Z"/></g>
<g><path style="opacity:1" fill="#2c2c2c" d="M 258.5,427.5 C 259.809,429.571 260.475,432.071 260.5,435C 260.167,437.5 259.833,440 259.5,442.5C 258.506,437.544 258.173,432.544 258.5,427.5 Z"/></g>
<g><path style="opacity:1" fill="#353535" d="M 274.5,427.5 C 276.117,428.589 276.95,430.256 277,432.5C 278.796,431.233 280.629,431.233 282.5,432.5C 283.833,435.833 283.833,439.167 282.5,442.5C 281.516,439.572 281.183,436.572 281.5,433.5C 279.856,433.286 278.356,433.62 277,434.5C 276.818,437.226 276.318,439.893 275.5,442.5C 274.506,437.544 274.173,432.544 274.5,427.5 Z"/></g>
<g><path style="opacity:1" fill="#737373" d="M 321.5,427.5 C 321.181,432.363 321.514,437.03 322.5,441.5C 322.44,442.043 322.107,442.376 321.5,442.5C 320.186,437.348 320.186,432.348 321.5,427.5 Z"/></g>
<g><path style="opacity:1" fill="#444444" d="M 345.5,427.5 C 346.809,429.571 347.475,432.071 347.5,435C 347.167,437.5 346.833,440 346.5,442.5C 345.506,437.544 345.173,432.544 345.5,427.5 Z"/></g>
<g><path style="opacity:1" fill="#505050" d="M 205.5,427.5 C 207.337,427.639 207.67,428.306 206.5,429.5C 205.702,429.043 205.369,428.376 205.5,427.5 Z"/></g>
<g><path style="opacity:1" fill="#1f1f1f" d="M 116.5,427.5 C 121.539,427.451 121.705,428.118 117,429.5C 116.833,429.833 116.667,430.167 116.5,430.5C 120.335,431.996 120.335,432.996 116.5,433.5C 116.665,436.518 116.498,439.518 116,442.5C 115.963,438.911 115.13,435.578 113.5,432.5C 114.994,431.095 115.994,429.429 116.5,427.5 Z"/></g>
<g><path style="opacity:1" fill="#1f1f1f" d="M 357.5,427.5 C 362.539,427.451 362.705,428.118 358,429.5C 357.833,429.833 357.667,430.167 357.5,430.5C 361.335,431.996 361.335,432.996 357.5,433.5C 357.665,436.518 357.498,439.518 357,442.5C 356.963,438.911 356.13,435.578 354.5,432.5C 355.994,431.095 356.994,429.429 357.5,427.5 Z"/></g>
<g><path style="opacity:1" fill="#3a3a3a" d="M 158.5,431.5 C 161.247,431.187 163.914,431.52 166.5,432.5C 164.694,435.472 162.694,438.305 160.5,441C 162.5,441.333 164.5,441.667 166.5,442C 163.773,442.818 161.106,442.652 158.5,441.5C 159.921,438.991 161.588,436.657 163.5,434.5C 161.345,433.999 159.678,432.999 158.5,431.5 Z"/></g>
<g><path style="opacity:1" fill="#242424" d="M 51.5,431.5 C 53.0806,432.579 54.7473,432.579 56.5,431.5C 58.0293,431.529 59.196,432.196 60,433.5C 60.8214,436.554 60.6548,439.554 59.5,442.5C 58.5159,439.572 58.1826,436.572 58.5,433.5C 56.5328,433.261 54.6995,433.594 53,434.5C 52.6667,437.167 52.3333,439.833 52,442.5C 51.5014,438.848 51.3347,435.182 51.5,431.5 Z"/></g>
<g><path style="opacity:1" fill="#2e2e2e" d="M 74.5,431.5 C 75.7868,432.871 76.4535,434.705 76.5,437C 76.1667,438.833 75.8333,440.667 75.5,442.5C 74.5108,438.893 74.1774,435.226 74.5,431.5 Z"/></g>
<g><path style="opacity:1" fill="#5f5f5f" d="M 93.5,432.5 C 92.5269,434.948 92.1936,437.615 92.5,440.5C 91.1968,437.645 91.1968,434.645 92.5,431.5C 93.1067,431.624 93.44,431.957 93.5,432.5 Z"/></g>
<g><path style="opacity:1" fill="#424242" d="M 168.5,427.5 C 169.999,428.678 170.999,430.345 171.5,432.5C 173.969,430.993 176.135,431.327 178,433.5C 178.821,436.554 178.655,439.554 177.5,442.5C 176.516,439.572 176.183,436.572 176.5,433.5C 174.533,433.261 172.699,433.594 171,434.5C 170.818,437.226 170.318,439.893 169.5,442.5C 168.506,437.544 168.173,432.544 168.5,427.5 Z"/></g>
<g><path style="opacity:1" fill="#484848" d="M 205.5,431.5 C 206.787,432.871 207.453,434.705 207.5,437C 207.167,438.833 206.833,440.667 206.5,442.5C 205.511,438.893 205.177,435.226 205.5,431.5 Z"/></g>
<g><path style="opacity:1" fill="#3c3c3c" d="M 210.5,431.5 C 212.585,432.35 214.585,432.684 216.5,432.5C 215.372,433.262 214.205,433.929 213,434.5C 212.818,437.226 212.318,439.893 211.5,442.5C 210.511,438.893 210.177,435.226 210.5,431.5 Z"/></g>
<g><path style="opacity:1" fill="#292929" d="M 292.5,431.5 C 294.081,432.579 295.747,432.579 297.5,431.5C 299.029,431.529 300.196,432.196 301,433.5C 301.821,436.554 301.655,439.554 300.5,442.5C 299.516,439.572 299.183,436.572 299.5,433.5C 297.833,433.5 296.167,433.5 294.5,433.5C 294.817,436.572 294.484,439.572 293.5,442.5C 292.511,438.893 292.177,435.226 292.5,431.5 Z"/></g>
<g><path style="opacity:1" fill="#2e2e2e" d="M 315.5,431.5 C 316.787,432.871 317.453,434.705 317.5,437C 317.167,438.833 316.833,440.667 316.5,442.5C 315.511,438.893 315.177,435.226 315.5,431.5 Z"/></g>
<g><path style="opacity:1" fill="#262626" d="M 333.5,431.5 C 334.319,434.305 334.819,437.305 335,440.5C 336.938,441.86 338.604,441.527 340,439.5C 340.182,436.774 340.682,434.107 341.5,431.5C 342.833,435.167 342.833,438.833 341.5,442.5C 339.071,442.579 336.571,442.245 334,441.5C 333.502,438.183 333.335,434.85 333.5,431.5 Z"/></g>
<g><path style="opacity:1" fill="#292929" d="M 399.5,431.5 C 401.837,433.965 403.337,436.965 404,440.5C 405.147,437.382 406.48,434.382 408,431.5C 407.308,436.254 405.975,440.921 404,445.5C 402.759,447.421 401.259,447.754 399.5,446.5C 401.391,445.689 402.724,444.356 403.5,442.5C 401.762,438.951 400.429,435.284 399.5,431.5 Z"/></g>
<g><path style="opacity:1" fill="#777777" d="M 423.5,432.5 C 422.521,435.625 422.187,438.958 422.5,442.5C 421.192,438.981 421.192,435.315 422.5,431.5C 423.107,431.624 423.44,431.957 423.5,432.5 Z"/></g>
<g><path style="opacity:1" fill="#171717" d="M 422.5,442.5 C 422.187,438.958 422.521,435.625 423.5,432.5C 425.67,431.232 427.837,431.232 430,432.5C 430.667,435.833 430.667,439.167 430,442.5C 429.502,439.518 429.335,436.518 429.5,433.5C 427.533,433.261 425.699,433.594 424,434.5C 423.817,437.365 423.317,440.031 422.5,442.5 Z"/></g>
<g><path style="opacity:1" fill="#efefef" d="M 82.5,441.5 C 81.4634,439.262 81.2967,436.929 82,434.5C 87.3447,433.056 88.8447,435.056 86.5,440.5C 85.3112,441.429 83.9778,441.762 82.5,441.5 Z"/></g>
<g><path style="opacity:1" fill="#202020" d="M 268.5,441.5 C 264.014,443.177 262.681,441.677 264.5,437C 266.134,436.506 267.801,436.34 269.5,436.5C 269.5,435.5 269.5,434.5 269.5,433.5C 267.801,433.66 266.134,433.494 264.5,433C 266.333,431.212 268.333,431.046 270.5,432.5C 271.657,435.784 271.824,439.118 271,442.5C 270.329,441.748 269.496,441.414 268.5,441.5 Z"/></g>
<g><path style="opacity:1" fill="#202020" d="M 309.5,441.5 C 305.014,443.177 303.681,441.677 305.5,437C 307.134,436.506 308.801,436.34 310.5,436.5C 310.5,435.5 310.5,434.5 310.5,433.5C 308.801,433.66 307.134,433.494 305.5,433C 307.333,431.212 309.333,431.046 311.5,432.5C 312.657,435.784 312.824,439.118 312,442.5C 311.329,441.748 310.496,441.414 309.5,441.5 Z"/></g>
<g><path style="opacity:1" fill="#202020" d="M 415.5,441.5 C 411.014,443.177 409.681,441.677 411.5,437C 413.134,436.506 414.801,436.34 416.5,436.5C 416.5,435.5 416.5,434.5 416.5,433.5C 414.801,433.66 413.134,433.494 411.5,433C 413.333,431.212 415.333,431.046 417.5,432.5C 418.657,435.784 418.824,439.118 418,442.5C 417.329,441.748 416.496,441.414 415.5,441.5 Z"/></g>
<g><path style="opacity:1" fill="#252525" d="M 183.5,431.5 C 190.571,432.272 192.237,435.772 188.5,442C 182.143,443.481 179.643,440.981 181,434.5C 182.045,433.627 182.878,432.627 183.5,431.5 Z"/></g>
<g><path style="opacity:1" fill="#efefef" d="M 183.5,433.5 C 185.144,433.286 186.644,433.62 188,434.5C 188.758,436.769 188.591,438.936 187.5,441C 185.888,441.72 184.388,441.554 183,440.5C 182.297,438.071 182.463,435.738 183.5,433.5 Z"/></g>
<g><path style="opacity:1" fill="#333333" d="M 434.5,442.5 C 434.319,439.447 434.152,436.447 434,433.5C 436.497,431.522 439.331,431.022 442.5,432C 441.751,433.734 441.251,435.567 441,437.5C 433.577,439.597 433.744,440.764 441.5,441C 442.799,446.689 440.466,448.689 434.5,447C 431.894,445.35 431.894,443.85 434.5,442.5 Z"/></g>
<g><path style="opacity:1" fill="#e8e8e8" d="M 436.5,432.5 C 437.5,432.5 438.5,432.5 439.5,432.5C 439.5,434.167 439.5,435.833 439.5,437.5C 435.716,437.475 434.716,435.808 436.5,432.5 Z"/></g>
<g><path style="opacity:1" fill="#2c2c2c" d="M 225.5,431.5 C 227.467,431.261 229.301,431.594 231,432.5C 231.667,435.833 231.667,439.167 231,442.5C 228.766,442.626 226.432,442.293 224,441.5C 223.333,440.167 223.333,438.833 224,437.5C 225.78,436.406 227.614,435.406 229.5,434.5C 227.922,433.702 226.256,433.202 224.5,433C 225.056,432.617 225.389,432.117 225.5,431.5 Z"/></g>
<g><path style="opacity:1" fill="#e3e3e3" d="M 225.5,437.5 C 226.833,437.5 228.167,437.5 229.5,437.5C 229.114,441.738 227.448,442.404 224.5,439.5C 224.863,438.817 225.196,438.15 225.5,437.5 Z"/></g>
<g><path style="opacity:1" fill="#eaeaea" d="M 268.5,441.5 C 265.306,441.824 264.306,440.658 265.5,438C 266.793,437.51 268.127,437.343 269.5,437.5C 269.567,438.959 269.234,440.292 268.5,441.5 Z"/></g>
<g><path style="opacity:1" fill="#eaeaea" d="M 309.5,441.5 C 306.306,441.824 305.306,440.658 306.5,438C 307.793,437.51 309.127,437.343 310.5,437.5C 310.567,438.959 310.234,440.292 309.5,441.5 Z"/></g>
<g><path style="opacity:1" fill="#242424" d="M 321.5,427.5 C 322.163,429.042 322.83,430.709 323.5,432.5C 327.989,430.475 330.322,431.975 330.5,437C 329.965,442.275 327.298,443.775 322.5,441.5C 321.514,437.03 321.181,432.363 321.5,427.5 Z"/></g>
<g><path style="opacity:1" fill="#f1f1f1" d="M 323.5,433.5 C 325.144,433.286 326.644,433.62 328,434.5C 328.758,436.769 328.591,438.936 327.5,441C 322.632,440.711 321.299,438.211 323.5,433.5 Z"/></g>
<g><path style="opacity:1" fill="#eaeaea" d="M 415.5,441.5 C 412.306,441.824 411.306,440.658 412.5,438C 413.793,437.51 415.127,437.343 416.5,437.5C 416.567,438.959 416.234,440.292 415.5,441.5 Z"/></g>
<g><path style="opacity:1" fill="#252525" d="M 68.5,441.5 C 67.0536,442.613 65.3869,442.78 63.5,442C 62.5214,437.483 64.5214,435.65 69.5,436.5C 69.5,435.5 69.5,434.5 69.5,433.5C 67.712,433.785 66.0453,433.452 64.5,432.5C 66.9492,431.09 69.1159,431.424 71,433.5C 71.8214,436.554 71.6548,439.554 70.5,442.5C 69.8165,442.137 69.1499,441.804 68.5,441.5 Z"/></g>
<g><path style="opacity:1" fill="#e7e7e7" d="M 68.5,441.5 C 67.1667,441.5 65.8333,441.5 64.5,441.5C 64.3838,438.09 66.0504,436.756 69.5,437.5C 69.5674,438.959 69.2341,440.292 68.5,441.5 Z"/></g>
<g><path style="opacity:1" fill="#252525" d="M 126.5,441.5 C 125.054,442.613 123.387,442.78 121.5,442C 120.521,437.483 122.521,435.65 127.5,436.5C 127.5,435.5 127.5,434.5 127.5,433.5C 125.712,433.785 124.045,433.452 122.5,432.5C 124.949,431.09 127.116,431.424 129,433.5C 129.821,436.554 129.655,439.554 128.5,442.5C 127.817,442.137 127.15,441.804 126.5,441.5 Z"/></g>
<g><path style="opacity:1" fill="#e7e7e7" d="M 126.5,441.5 C 125.167,441.5 123.833,441.5 122.5,441.5C 122.384,438.09 124.05,436.756 127.5,437.5C 127.567,438.959 127.234,440.292 126.5,441.5 Z"/></g>
<g><path style="opacity:1" fill="#252525" d="M 252.5,441.5 C 251.054,442.613 249.387,442.78 247.5,442C 246.521,437.483 248.521,435.65 253.5,436.5C 253.5,435.5 253.5,434.5 253.5,433.5C 251.712,433.785 250.045,433.452 248.5,432.5C 250.949,431.09 253.116,431.424 255,433.5C 255.821,436.554 255.655,439.554 254.5,442.5C 253.817,442.137 253.15,441.804 252.5,441.5 Z"/></g>
<g><path style="opacity:1" fill="#e7e7e7" d="M 252.5,441.5 C 251.167,441.5 249.833,441.5 248.5,441.5C 248.384,438.09 250.05,436.756 253.5,437.5C 253.567,438.959 253.234,440.292 252.5,441.5 Z"/></g>
<g><path style="opacity:1" fill="#252525" d="M 367.5,441.5 C 366.054,442.613 364.387,442.78 362.5,442C 361.521,437.483 363.521,435.65 368.5,436.5C 368.5,435.5 368.5,434.5 368.5,433.5C 366.712,433.785 365.045,433.452 363.5,432.5C 365.949,431.09 368.116,431.424 370,433.5C 370.821,436.554 370.655,439.554 369.5,442.5C 368.817,442.137 368.15,441.804 367.5,441.5 Z"/></g>
<g><path style="opacity:1" fill="#e7e7e7" d="M 367.5,441.5 C 366.167,441.5 364.833,441.5 363.5,441.5C 363.384,438.09 365.05,436.756 368.5,437.5C 368.567,438.959 368.234,440.292 367.5,441.5 Z"/></g>
<g><path style="opacity:1" fill="#2d2d2d" d="M 242.5,427.5 C 243.809,429.571 244.475,432.071 244.5,435C 244.167,437.5 243.833,440 243.5,442.5C 241.328,442.324 238.995,442.157 236.5,442C 233.282,437.409 234.115,433.909 239,431.5C 239.873,431.735 240.707,432.069 241.5,432.5C 242.452,430.955 242.785,429.288 242.5,427.5 Z"/></g>
<g><path style="opacity:1" fill="#f1f1f1" d="M 237.5,433.5 C 242.068,433.083 243.568,435.083 242,439.5C 240.604,441.527 238.938,441.86 237,440.5C 236.297,438.071 236.463,435.738 237.5,433.5 Z"/></g>
<g><path style="opacity:1" fill="#101010" d="M 92.5,440.5 C 92.1936,437.615 92.5269,434.948 93.5,432.5C 93.3359,435.187 93.5026,437.854 94,440.5C 95.9376,441.86 97.6043,441.527 99,439.5C 99.3333,436.833 99.6667,434.167 100,431.5C 100.667,435.167 100.667,438.833 100,442.5C 98.0257,442.374 95.859,442.208 93.5,442C 92.944,441.617 92.6107,441.117 92.5,440.5 Z"/></g>
<g><path style="opacity:1" fill="#f0f0f0" d="M 434.5,442.5 C 436.924,442.192 439.257,442.526 441.5,443.5C 441.291,444.086 440.957,444.586 440.5,445C 438.527,445.495 436.527,445.662 434.5,445.5C 434.5,444.5 434.5,443.5 434.5,442.5 Z"/></g>
<g><path style="opacity:1" fill="#303030" d="M 116.5,455.5 C 118.237,458.008 119.07,461.008 119,464.5C 120.046,462.91 121.213,461.41 122.5,460C 123.167,459.333 123.833,459.333 124.5,460C 120.566,463.123 120.566,466.29 124.5,469.5C 124.167,469.833 123.833,470.167 123.5,470.5C 122.5,468.833 121.167,467.5 119.5,466.5C 118.833,467.833 118.167,469.167 117.5,470.5C 116.506,465.544 116.173,460.544 116.5,455.5 Z"/></g>
<g><path style="opacity:1" fill="#2c2c2c" d="M 154.5,455.5 C 155.809,457.571 156.475,460.071 156.5,463C 156.167,465.5 155.833,468 155.5,470.5C 154.506,465.544 154.173,460.544 154.5,455.5 Z"/></g>
<g><path style="opacity:1" fill="#505050" d="M 138.5,455.5 C 140.337,455.639 140.67,456.306 139.5,457.5C 138.702,457.043 138.369,456.376 138.5,455.5 Z"/></g>
<g><path style="opacity:1" fill="#242424" d="M 51.5,459.5 C 53.0806,460.579 54.7473,460.579 56.5,459.5C 58.0293,459.529 59.196,460.196 60,461.5C 60.8214,464.554 60.6548,467.554 59.5,470.5C 58.5159,467.572 58.1826,464.572 58.5,461.5C 56.5328,461.261 54.6995,461.594 53,462.5C 52.6667,465.167 52.3333,467.833 52,470.5C 51.5014,466.848 51.3347,463.182 51.5,459.5 Z"/></g>
<g><path style="opacity:1" fill="#262626" d="M 93.5,459.5 C 95.7111,459.898 98.0444,460.064 100.5,460C 103.167,463.333 103.167,466.667 100.5,470C 98.5594,470.743 96.7261,470.576 95,469.5C 94.6667,471.5 94.3333,473.5 94,475.5C 93.5006,470.177 93.334,464.844 93.5,459.5 Z"/></g>
<g><path style="opacity:1" fill="#2e2e2e" d="M 135.5,473.5 C 136.5,473.5 137.5,473.5 138.5,473.5C 138.173,468.786 138.507,464.12 139.5,459.5C 140.662,464.131 140.828,468.798 140,473.5C 138.196,475.981 136.696,475.981 135.5,473.5 Z"/></g>
<g><path style="opacity:1" fill="#282828" d="M 83.5,461.5 C 82.8333,473.5 82.1667,473.5 81.5,461.5C 79.8561,461.286 78.3561,461.62 77,462.5C 76.8184,465.226 76.3184,467.893 75.5,470.5C 74.1667,466.833 74.1667,463.167 75.5,459.5C 78.3458,458.877 81.0124,459.544 83.5,461.5 Z"/></g>
<g><path style="opacity:1" fill="#303030" d="M 83.5,461.5 C 85.54,458.866 87.7067,458.866 90,461.5C 90.8214,464.554 90.6548,467.554 89.5,470.5C 88.5159,467.572 88.1826,464.572 88.5,461.5C 86.8333,461.5 85.1667,461.5 83.5,461.5 Z"/></g>
<g><path style="opacity:1" fill="#e9e9e9" d="M 95.5,461.5 C 97.1667,461.5 98.8333,461.5 100.5,461.5C 100.663,463.857 100.497,466.19 100,468.5C 98.0624,469.86 96.3957,469.527 95,467.5C 94.3224,465.402 94.4891,463.402 95.5,461.5 Z"/></g>
<g><path style="opacity:1" fill="#202020" d="M 110.5,469.5 C 106.014,471.177 104.681,469.677 106.5,465C 108.134,464.506 109.801,464.34 111.5,464.5C 111.5,463.5 111.5,462.5 111.5,461.5C 109.801,461.66 108.134,461.494 106.5,461C 108.333,459.212 110.333,459.046 112.5,460.5C 113.657,463.784 113.824,467.118 113,470.5C 112.329,469.748 111.496,469.414 110.5,469.5 Z"/></g>
<g><path style="opacity:1" fill="#222222" d="M 145.5,459.5 C 149.833,459.167 151.833,461.167 151.5,465.5C 149.076,465.192 146.743,465.526 144.5,466.5C 144.977,467.478 145.643,468.311 146.5,469C 148.424,469.179 150.091,469.346 151.5,469.5C 146.602,471.692 143.602,470.192 142.5,465C 142.863,462.808 143.863,460.974 145.5,459.5 Z"/></g>
<g><path style="opacity:1" fill="#fcfcfc" d="M 149.5,462.5 C 148.167,463.833 146.833,463.833 145.5,462.5C 146.833,461.167 148.167,461.167 149.5,462.5 Z"/></g>
<g><path style="opacity:1" fill="#202020" d="M 164.5,469.5 C 160.014,471.177 158.681,469.677 160.5,465C 162.134,464.506 163.801,464.34 165.5,464.5C 165.5,463.5 165.5,462.5 165.5,461.5C 163.801,461.66 162.134,461.494 160.5,461C 162.333,459.212 164.333,459.046 166.5,460.5C 167.657,463.784 167.824,467.118 167,470.5C 166.329,469.748 165.496,469.414 164.5,469.5 Z"/></g>
<g><path style="opacity:1" fill="#292929" d="M 135.5,473.5 C 134.25,473.423 133.417,472.756 133,471.5C 130.555,466.134 131.055,461.134 134.5,456.5C 134.833,456.667 135.167,456.833 135.5,457C 132.927,462.466 132.927,467.966 135.5,473.5 Z"/></g>
<g><path style="opacity:1" fill="#909090" d="M 145.5,462.5 C 146.833,463.833 148.167,463.833 149.5,462.5C 150.043,462.56 150.376,462.893 150.5,463.5C 148.5,464.833 146.5,464.833 144.5,463.5C 144.624,462.893 144.957,462.56 145.5,462.5 Z"/></g>
<g><path style="opacity:1" fill="#242424" d="M 171.5,459.5 C 178.662,459.613 178.995,460.613 172.5,462.5C 173.436,463.974 174.77,464.974 176.5,465.5C 177.747,467.006 177.747,468.506 176.5,470C 174.421,470.808 172.421,470.641 170.5,469.5C 171.909,469.346 173.576,469.179 175.5,469C 175.957,468.586 176.291,468.086 176.5,467.5C 174.999,466.248 173.332,465.248 171.5,464.5C 170.334,462.833 170.334,461.166 171.5,459.5 Z"/></g>
<g><path style="opacity:1" fill="#eaeaea" d="M 110.5,469.5 C 107.306,469.824 106.306,468.658 107.5,466C 108.793,465.51 110.127,465.343 111.5,465.5C 111.567,466.959 111.234,468.292 110.5,469.5 Z"/></g>
<g><path style="opacity:1" fill="#eaeaea" d="M 164.5,469.5 C 161.306,469.824 160.306,468.658 161.5,466C 162.793,465.51 164.127,465.343 165.5,465.5C 165.567,466.959 165.234,468.292 164.5,469.5 Z"/></g>
<g><path style="opacity:1" fill="#252525" d="M 68.5,469.5 C 67.0536,470.613 65.3869,470.78 63.5,470C 62.5214,465.483 64.5214,463.65 69.5,464.5C 69.5,463.5 69.5,462.5 69.5,461.5C 67.712,461.785 66.0453,461.452 64.5,460.5C 66.9492,459.09 69.1159,459.424 71,461.5C 71.8214,464.554 71.6548,467.554 70.5,470.5C 69.8165,470.137 69.1499,469.804 68.5,469.5 Z"/></g>
<g><path style="opacity:1" fill="#e7e7e7" d="M 68.5,469.5 C 67.1667,469.5 65.8333,469.5 64.5,469.5C 64.3838,466.09 66.0504,464.756 69.5,465.5C 69.5674,466.959 69.2341,468.292 68.5,469.5 Z"/></g>
<g><path style="opacity:1" fill="#3c3c3c" d="M 179.5,457.5 C 180.189,456.226 181.023,456.226 182,457.5C 183.534,461.711 183.867,466.044 183,470.5C 182.576,472.615 181.409,473.448 179.5,473C 180.998,470.583 181.665,467.917 181.5,465C 181.7,462.134 181.033,459.634 179.5,457.5 Z"/></g>
</svg>
