<?xml version="1.0" encoding="UTF-8"?>
<!DOCTYPE svg PUBLIC "-//W3C//DTD SVG 1.1//EN" "http://www.w3.org/Graphics/SVG/1.1/DTD/svg11.dtd">
<svg xmlns="http://www.w3.org/2000/svg" version="1.1" width="1000px" height="500px" style="shape-rendering:geometricPrecision; text-rendering:geometricPrecision; image-rendering:optimizeQuality; fill-rule:evenodd; clip-rule:evenodd" xmlns:xlink="http://www.w3.org/1999/xlink">
<g><path style="opacity:1" fill="#fefefe" d="M -0.5,-0.5 C 332.833,-0.5 666.167,-0.5 999.5,-0.5C 999.5,166.167 999.5,332.833 999.5,499.5C 666.167,499.5 332.833,499.5 -0.5,499.5C -0.5,332.833 -0.5,166.167 -0.5,-0.5 Z"/></g>
<g><path style="opacity:1" fill="#0c0c0c" d="M 576.5,71.5 C 579.044,71.1043 581.211,71.771 583,73.5C 583.813,77.6645 583.313,81.6645 581.5,85.5C 586.625,88.0272 586.792,90.6939 582,93.5C 580.527,93.0969 579.194,92.4303 578,91.5C 575.5,94 573,96.5 570.5,99C 567.634,100.457 564.634,100.79 561.5,100C 565.951,97.2171 570.117,94.0504 574,90.5C 573.169,87.8232 572.002,85.1566 570.5,82.5C 571.734,78.3626 573.734,74.6959 576.5,71.5 Z"/></g>
<g><path style="opacity:1" fill="#101010" d="M 415.5,78.5 C 417.527,78.3379 419.527,78.5045 421.5,79C 423.97,83.253 423.97,87.5863 421.5,92C 422.477,93.497 423.477,94.997 424.5,96.5C 424.32,97.5539 423.987,98.5539 423.5,99.5C 421.219,100.185 418.886,100.351 416.5,100C 412.512,105.707 407.179,108.04 400.5,107C 405.53,103.816 410.196,100.149 414.5,96C 410.788,93.3981 409.622,89.8981 411,85.5C 412.511,83.1384 414.011,80.8051 415.5,78.5 Z"/></g>
<g><path style="opacity:1" fill="#d7d7d7" d="M 574.5,77.5 C 577.833,77.5 579.5,79.1667 579.5,82.5C 576.736,82.0012 575.069,80.3345 574.5,77.5 Z"/></g>
<g><path style="opacity:1" fill="#e1e1e1" d="M 414.5,84.5 C 418.225,84.7796 419.392,86.7796 418,90.5C 415.735,89.0842 414.569,87.0842 414.5,84.5 Z"/></g>
<g><path style="opacity:1" fill="#121212" d="M 483.5,86.5 C 493.022,87.8855 496.189,93.2188 493,102.5C 484.122,111.803 478.622,110.303 476.5,98C 476.586,92.7575 478.919,88.9242 483.5,86.5 Z"/></g>
<g><path style="opacity:1" fill="#f5f5f5" d="M 480.5,92.5 C 486.203,91.7299 489.37,94.0632 490,99.5C 484.849,102.901 481.016,101.901 478.5,96.5C 478.752,94.9271 479.418,93.5938 480.5,92.5 Z"/></g>
<g><path style="opacity:1" fill="#0e0e0e" d="M 580.5,116.5 C 588.72,118.989 589.553,122.989 583,128.5C 580.361,127.432 578.195,125.766 576.5,123.5C 577.889,121.132 579.222,118.799 580.5,116.5 Z"/></g>
<g><path style="opacity:1" fill="#0f0f0f" d="M 423.5,127.5 C 431.72,129.989 432.553,133.989 426,139.5C 423.766,138.299 421.599,136.965 419.5,135.5C 417.443,137.269 415.61,139.269 414,141.5C 411.815,140.072 409.815,138.405 408,136.5C 409.637,128.624 413.304,127.624 419,133.5C 421.102,131.905 422.602,129.905 423.5,127.5 Z"/></g>
<g><path style="opacity:1" fill="#0b0b0b" d="M 606.5,130.5 C 617.3,130.469 621.8,135.802 620,146.5C 617.075,152.907 612.242,157.407 605.5,160C 594.874,163.995 583.874,166.495 572.5,167.5C 568.269,179.276 567.269,178.943 569.5,166.5C 562.148,168.241 556.648,165.908 553,159.5C 548.069,165.814 541.569,168.648 533.5,168C 532.239,178.191 528.239,187.191 521.5,195C 514.778,199.25 507.445,200.583 499.5,199C 497.221,198.527 495.221,197.527 493.5,196C 511.321,195.819 523.321,187.486 529.5,171C 528.111,167.555 526.444,164.222 524.5,161C 525.53,158.44 526.697,155.94 528,153.5C 529.214,155.049 530.714,156.215 532.5,157C 542.579,159.921 550.412,157.087 556,148.5C 557.399,155.801 561.899,159.135 569.5,158.5C 571.167,158.167 572.833,157.833 574.5,157.5C 580.69,147.81 588.69,139.977 598.5,134C 601.158,132.522 603.825,131.355 606.5,130.5 Z"/></g>
<g><path style="opacity:1" fill="#0a0a0a" d="M 488.5,134.5 C 490.41,135.975 491.576,137.975 492,140.5C 495.145,161.355 486.311,170.189 465.5,167C 463.024,165.691 461.024,163.858 459.5,161.5C 446.58,169.055 432.58,172.888 417.5,173C 402.583,176.542 389.75,173.042 379,162.5C 374.947,153.148 376.114,144.481 382.5,136.5C 382.833,137 383.167,137.5 383.5,138C 378.051,149.292 381.385,156.959 393.5,161C 413.847,165.146 433.847,163.812 453.5,157C 455.976,155.691 457.976,153.858 459.5,151.5C 460.711,153.422 462.044,155.255 463.5,157C 471.246,157.896 478.913,157.563 486.5,156C 487.804,155.196 488.471,154.029 488.5,152.5C 487.167,149.167 485.833,145.833 484.5,142.5C 485.418,139.594 486.751,136.928 488.5,134.5 Z"/></g>
<g><path style="opacity:1" fill="#f6f6f6" d="M 598.5,141.5 C 603.267,141.191 607.934,141.691 612.5,143C 615.73,144.724 616.064,146.724 613.5,149C 602.507,154.779 590.841,157.446 578.5,157C 583.568,149.648 590.235,144.481 598.5,141.5 Z"/></g>
<g><path style="opacity:1" fill="#7c7c7c" d="M 370.5,171.5 C 370.5,171.167 370.5,170.833 370.5,170.5C 371.562,168.243 373.228,167.077 375.5,167C 373.963,168.707 372.296,170.207 370.5,171.5 Z"/></g>
<g><path style="opacity:1" fill="#111111" d="M 660.5,219.5 C 660.334,223.846 660.501,228.179 661,232.5C 661.513,231.473 662.013,230.473 662.5,229.5C 663.372,224.757 664.538,220.091 666,215.5C 668.395,214.202 669.562,215.035 669.5,218C 667.951,227.645 665.785,237.145 663,246.5C 661.507,248.56 659.674,248.893 657.5,247.5C 652.132,237.774 647.632,227.774 644,217.5C 648.098,224.031 651.931,230.698 655.5,237.5C 655.783,238.289 656.283,238.956 657,239.5C 657.815,234.648 657.648,229.981 656.5,225.5C 655.843,202.359 647.176,182.859 630.5,167C 644.324,175.707 653.491,188.207 658,204.5C 659.574,209.384 660.407,214.384 660.5,219.5 Z"/></g>
<g><path style="opacity:1" fill="#0f0f0f" d="M 370.5,170.5 C 370.5,170.833 370.5,171.167 370.5,171.5C 353.786,190.988 346.619,213.654 349,239.5C 352.833,232.5 356.667,225.5 360.5,218.5C 361.002,217.479 361.668,217.312 362.5,218C 357.795,227.91 352.961,237.744 348,247.5C 345.978,248.991 344.312,248.658 343,246.5C 340.045,237.682 337.879,228.682 336.5,219.5C 336.833,217.833 337.167,216.167 337.5,214.5C 338.478,214.977 339.311,215.643 340,216.5C 341.022,221.256 342.356,225.923 344,230.5C 343.874,211.213 349.54,193.88 361,178.5C 363.766,175.223 366.933,172.557 370.5,170.5 Z"/></g>
<g><path style="opacity:1" fill="#0f0f0f" d="M 481.5,175.5 C 490.118,178.089 490.785,182.089 483.5,187.5C 476.299,184.567 475.632,180.567 481.5,175.5 Z"/></g>
<g><path style="opacity:1" fill="#131313" d="M 526.5,207.5 C 529.872,208.57 529.872,210.403 526.5,213C 519.991,216.755 513.324,220.255 506.5,223.5C 505.417,222.635 505.251,221.635 506,220.5C 507.167,219.333 508.333,218.167 509.5,217C 515.552,214.313 521.219,211.146 526.5,207.5 Z"/></g>
<g><path style="opacity:1" fill="#828282" d="M 660.5,219.5 C 661.167,222.833 661.833,226.167 662.5,229.5C 662.013,230.473 661.513,231.473 661,232.5C 660.501,228.179 660.334,223.846 660.5,219.5 Z"/></g>
<g><path style="opacity:1" fill="#6b6b6b" d="M 656.5,225.5 C 657.648,229.981 657.815,234.648 657,239.5C 656.283,238.956 655.783,238.289 655.5,237.5C 656.483,233.702 656.817,229.702 656.5,225.5 Z"/></g>
<g><path style="opacity:1" fill="#101010" d="M 789.5,260.5 C 790.822,260.33 791.989,260.663 793,261.5C 793.667,263.833 793.667,266.167 793,268.5C 791.667,269.833 790.333,269.833 789,268.5C 788.278,265.739 788.445,263.073 789.5,260.5 Z"/></g>
<g><path style="opacity:1" fill="#141414" d="M 162.5,260.5 C 163.822,260.33 164.989,260.663 166,261.5C 166.667,263.833 166.667,266.167 166,268.5C 162.958,269.986 161.125,268.986 160.5,265.5C 161.187,263.823 161.854,262.156 162.5,260.5 Z"/></g>
<g><path style="opacity:1" fill="#141414" d="M 307.5,260.5 C 311.461,261.884 312.461,264.551 310.5,268.5C 307.187,270.254 305.52,269.254 305.5,265.5C 305.437,263.486 306.103,261.819 307.5,260.5 Z"/></g>
<g><path style="opacity:1" fill="#141414" d="M 578.5,260.5 C 582.461,261.884 583.461,264.551 581.5,268.5C 578.187,270.254 576.52,269.254 576.5,265.5C 576.437,263.486 577.103,261.819 578.5,260.5 Z"/></g>
<g><path style="opacity:1" fill="#151515" d="M 714.5,260.5 C 717.734,260.237 719.068,261.737 718.5,265C 718.947,267.599 717.947,269.099 715.5,269.5C 711.837,267.019 711.504,264.019 714.5,260.5 Z"/></g>
<g><path style="opacity:1" fill="#111111" d="M 411.5,262.5 C 412.833,262.5 414.167,262.5 415.5,262.5C 413.589,274.799 413.256,287.132 414.5,299.5C 414.384,301.552 413.384,302.885 411.5,303.5C 409.929,301.118 409.096,298.451 409,295.5C 404.871,304.088 399.205,305.422 392,299.5C 388.445,290.791 390.612,283.958 398.5,279C 402.372,278.109 406.038,278.609 409.5,280.5C 410.299,274.499 410.966,268.499 411.5,262.5 Z"/></g>
<g><path style="opacity:1" fill="#151515" d="M 682.5,262.5 C 683.5,262.5 684.5,262.5 685.5,262.5C 685.154,275.847 684.487,289.18 683.5,302.5C 682.833,302.833 682.167,303.167 681.5,303.5C 679.985,301.453 679.151,299.119 679,296.5C 673.417,305.421 667.417,305.754 661,297.5C 659.213,287.391 663.213,281.057 673,278.5C 675.379,278.482 677.546,279.149 679.5,280.5C 680.028,274.358 681.028,268.358 682.5,262.5 Z"/></g>
<g><path style="opacity:1" fill="#121212" d="M 694.5,275.5 C 693.353,279.646 693.186,283.98 694,288.5C 695.039,287.756 695.539,286.756 695.5,285.5C 696.928,281.551 699.595,279.384 703.5,279C 704.333,279.833 705.167,280.667 706,281.5C 705.883,288.814 705.717,296.147 705.5,303.5C 704.178,303.67 703.011,303.337 702,302.5C 701.667,295.5 701.333,288.5 701,281.5C 696.396,287.717 693.729,294.717 693,302.5C 691.853,303.458 690.853,303.125 690,301.5C 689.179,288.799 689.512,276.132 691,263.5C 692,262.833 693,262.167 694,261.5C 694.499,266.155 694.666,270.821 694.5,275.5 Z"/></g>
<g><path style="opacity:1" fill="#0b0b0b" d="M 800.5,261.5 C 801.787,262.871 802.453,264.705 802.5,267C 801.563,274.154 801.396,281.32 802,288.5C 803.265,283.933 805.931,280.6 810,278.5C 811.261,278.759 812.261,279.426 813,280.5C 813.5,288.159 813.666,295.826 813.5,303.5C 812.178,303.67 811.011,303.337 810,302.5C 810.317,275.667 806.983,276.001 800,303.5C 799.586,303.043 799.086,302.709 798.5,302.5C 797.334,292.183 797.168,281.849 798,271.5C 798.05,267.843 798.883,264.51 800.5,261.5 Z"/></g>
<g><path style="opacity:1" fill="#090909" d="M 219.5,263.5 C 220.833,263.5 222.167,263.5 223.5,263.5C 223.086,276.843 222.419,290.176 221.5,303.5C 220.833,303.833 220.167,304.167 219.5,304.5C 218.281,290.827 218.281,277.161 219.5,263.5 Z"/></g>
<g><path style="opacity:1" fill="#090909" d="M 315.5,263.5 C 316.833,263.5 318.167,263.5 319.5,263.5C 319.086,276.843 318.419,290.176 317.5,303.5C 316.833,303.833 316.167,304.167 315.5,304.5C 314.281,290.827 314.281,277.161 315.5,263.5 Z"/></g>
<g><path style="opacity:1" fill="#0f0f0f" d="M 590.5,275.5 C 589.809,284.734 589.142,294.068 588.5,303.5C 587.811,304.774 586.977,304.774 586,303.5C 585.309,290.151 585.475,276.817 586.5,263.5C 587.833,263.5 589.167,263.5 590.5,263.5C 590.5,267.5 590.5,271.5 590.5,275.5 Z"/></g>
<g><path style="opacity:1" fill="#0c0c0c" d="M 843.5,263.5 C 844.833,263.5 846.167,263.5 847.5,263.5C 847.119,276.845 846.452,290.178 845.5,303.5C 844.833,303.833 844.167,304.167 843.5,304.5C 842.281,290.827 842.281,277.161 843.5,263.5 Z"/></g>
<g><path style="opacity:1" fill="#111111" d="M 555.5,287.5 C 554.793,293.066 554.126,298.732 553.5,304.5C 552.167,304.5 551.5,303.833 551.5,302.5C 551.5,296.833 551.5,291.167 551.5,285.5C 550.209,285.263 549.209,285.596 548.5,286.5C 547.522,286.189 546.855,285.522 546.5,284.5C 547.85,283.05 549.516,282.383 551.5,282.5C 550.066,274.874 552.399,268.708 558.5,264C 562.166,262.729 564.666,263.896 566,267.5C 565.893,264.443 567.06,262.109 569.5,260.5C 572.568,262.494 573.235,265.161 571.5,268.5C 569.994,269.747 568.494,269.747 567,268.5C 564.252,279.126 562.585,278.793 562,267.5C 558.084,266.39 556.084,268.057 556,272.5C 555.503,275.146 555.336,277.813 555.5,280.5C 558.983,279.916 561.983,280.749 564.5,283C 561.607,284.149 558.607,284.649 555.5,284.5C 555.5,285.5 555.5,286.5 555.5,287.5 Z"/></g>
<g><path style="opacity:1" fill="#101010" d="M 246.5,274.5 C 245.532,276.607 245.198,278.941 245.5,281.5C 246.791,281.737 247.791,281.404 248.5,280.5C 251.022,280.128 253.022,280.961 254.5,283C 251.607,284.149 248.607,284.649 245.5,284.5C 245.5,291.167 245.5,297.833 245.5,304.5C 243.62,304.771 242.287,304.104 241.5,302.5C 241.5,296.833 241.5,291.167 241.5,285.5C 240.209,285.263 239.209,285.596 238.5,286.5C 237.295,284.59 237.962,283.257 240.5,282.5C 240.4,275.623 242.733,269.79 247.5,265C 250.835,262.709 253.668,263.209 256,266.5C 256.85,270.052 256.35,273.385 254.5,276.5C 253.914,276.291 253.414,275.957 253,275.5C 252.667,272.833 252.333,270.167 252,267.5C 249.546,265.987 247.879,266.654 247,269.5C 246.506,271.134 246.34,272.801 246.5,274.5 Z"/></g>
<g><path style="opacity:1" fill="#131313" d="M 284.5,266.5 C 288.656,267.645 291.656,270.311 293.5,274.5C 292.277,275.614 290.944,275.781 289.5,275C 287.18,272.522 285.514,269.689 284.5,266.5 Z"/></g>
<g><path style="opacity:1" fill="#131313" d="M 143.5,277.5 C 146.187,277.336 148.854,277.503 151.5,278C 152.701,278.903 153.535,280.069 154,281.5C 153.563,288.859 153.729,296.192 154.5,303.5C 151.14,304.21 149.307,302.876 149,299.5C 147.5,301 146,302.5 144.5,304C 136.607,305.023 134.44,301.857 138,294.5C 141.092,291.578 144.592,289.245 148.5,287.5C 149.952,284.718 149.619,282.218 147.5,280C 142.385,280.317 140.385,283.15 141.5,288.5C 140.167,288.5 138.833,288.5 137.5,288.5C 137.844,283.848 139.844,280.182 143.5,277.5 Z"/></g>
<g><path style="opacity:1" fill="#171717" d="M 160.5,277.5 C 161.833,277.5 163.167,277.5 164.5,277.5C 164.5,285.833 164.5,294.167 164.5,302.5C 162.61,302.703 161.11,302.037 160,300.5C 159.309,292.805 159.475,285.139 160.5,277.5 Z"/></g>
<g><path style="opacity:1" fill="#7b7b7b" d="M 246.5,274.5 C 246.025,277.082 246.692,279.082 248.5,280.5C 247.791,281.404 246.791,281.737 245.5,281.5C 245.198,278.941 245.532,276.607 246.5,274.5 Z"/></g>
<g><path style="opacity:1" fill="#111111" d="M 261.5,277.5 C 265.954,276.617 269.454,277.95 272,281.5C 271.964,288.819 271.797,296.152 271.5,303.5C 268.612,303.78 267.112,302.447 267,299.5C 263.188,305.003 258.855,305.67 254,301.5C 254.991,294.324 259.158,289.658 266.5,287.5C 267.797,284.812 267.464,282.312 265.5,280C 264.167,279.333 262.833,279.333 261.5,280C 259.503,282.492 258.503,285.325 258.5,288.5C 257.5,288.5 256.5,288.5 255.5,288.5C 255.677,283.811 257.677,280.144 261.5,277.5 Z"/></g>
<g><path style="opacity:1" fill="#0e0e0e" d="M 305.5,277.5 C 306.833,277.5 308.167,277.5 309.5,277.5C 308.815,285.816 308.482,294.149 308.5,302.5C 307.178,302.67 306.011,302.337 305,301.5C 304.2,293.421 304.367,285.421 305.5,277.5 Z"/></g>
<g><path style="opacity:1" fill="#131313" d="M 458.5,277.5 C 463.742,276.271 467.575,277.937 470,282.5C 469.836,289.476 469.669,296.476 469.5,303.5C 468.167,303.5 466.833,303.5 465.5,303.5C 465.762,302.022 465.429,300.689 464.5,299.5C 460.953,305.047 456.786,305.714 452,301.5C 451.365,299.365 451.699,297.365 453,295.5C 455.958,291.855 459.625,289.188 464,287.5C 465.297,283.825 464.297,281.158 461,279.5C 457.403,281.361 455.903,284.361 456.5,288.5C 455.5,288.5 454.5,288.5 453.5,288.5C 453.277,283.948 454.944,280.281 458.5,277.5 Z"/></g>
<g><path style="opacity:1" fill="#0e0e0e" d="M 566.5,277.5 C 567.833,277.5 569.167,277.5 570.5,277.5C 569.815,285.816 569.482,294.149 569.5,302.5C 568.178,302.67 567.011,302.337 566,301.5C 565.2,293.421 565.367,285.421 566.5,277.5 Z"/></g>
<g><path style="opacity:1" fill="#0e0e0e" d="M 576.5,277.5 C 577.833,277.5 579.167,277.5 580.5,277.5C 579.815,285.816 579.482,294.149 579.5,302.5C 578.178,302.67 577.011,302.337 576,301.5C 575.2,293.421 575.367,285.421 576.5,277.5 Z"/></g>
<g><path style="opacity:1" fill="#131313" d="M 645.5,277.5 C 648.187,277.336 650.854,277.503 653.5,278C 654.701,278.903 655.535,280.069 656,281.5C 655.563,288.859 655.729,296.192 656.5,303.5C 653.14,304.21 651.307,302.876 651,299.5C 649.5,301 648,302.5 646.5,304C 638.607,305.023 636.44,301.857 640,294.5C 643.092,291.578 646.592,289.245 650.5,287.5C 651.952,284.718 651.619,282.218 649.5,280C 644.385,280.317 642.385,283.15 643.5,288.5C 642.167,288.5 640.833,288.5 639.5,288.5C 639.844,283.848 641.844,280.182 645.5,277.5 Z"/></g>
<g><path style="opacity:1" fill="#161616" d="M 712.5,277.5 C 713.833,277.5 715.167,277.5 716.5,277.5C 716.666,285.507 716.5,293.507 716,301.5C 714.286,302.925 712.953,302.592 712,300.5C 711.233,292.785 711.4,285.118 712.5,277.5 Z"/></g>
<g><path style="opacity:1" fill="#131313" d="M 771.5,277.5 C 774.187,277.336 776.854,277.503 779.5,278C 780.701,278.903 781.535,280.069 782,281.5C 781.563,288.859 781.729,296.192 782.5,303.5C 779.14,304.21 777.307,302.876 777,299.5C 775.5,301 774,302.5 772.5,304C 764.607,305.023 762.44,301.857 766,294.5C 769.092,291.578 772.592,289.245 776.5,287.5C 777.952,284.718 777.619,282.218 775.5,280C 770.385,280.317 768.385,283.15 769.5,288.5C 768.167,288.5 766.833,288.5 765.5,288.5C 765.844,283.848 767.844,280.182 771.5,277.5 Z"/></g>
<g><path style="opacity:1" fill="#131313" d="M 788.5,277.5 C 789.833,277.5 791.167,277.5 792.5,277.5C 793.068,290.61 792.235,303.61 790,316.5C 787.876,320.255 784.876,321.255 781,319.5C 779.543,315.259 779.209,310.926 780,306.5C 780.71,305.027 781.876,304.36 783.5,304.5C 782.751,308.819 782.585,313.152 783,317.5C 783.414,317.957 783.914,318.291 784.5,318.5C 785.485,316.228 786.319,313.895 787,311.5C 787.282,300.146 787.782,288.813 788.5,277.5 Z"/></g>
<g><path style="opacity:1" fill="#101010" d="M 117.5,278.5 C 119.25,281.355 120.083,284.689 120,288.5C 120.936,284.793 122.769,281.626 125.5,279C 128.025,278.104 130.192,278.604 132,280.5C 132.057,287.824 131.891,295.157 131.5,302.5C 130.178,302.67 129.011,302.337 128,301.5C 127.667,294.5 127.333,287.5 127,280.5C 125.615,281.551 124.615,282.884 124,284.5C 122.064,290.141 120.231,295.808 118.5,301.5C 117.311,302.429 115.978,302.762 114.5,302.5C 114.387,294.203 115.387,286.203 117.5,278.5 Z"/></g>
<g><path style="opacity:1" fill="#0a0a0a" d="M 208.5,300.5 C 208.663,298.143 208.497,295.81 208,293.5C 207.59,294.901 207.09,296.234 206.5,297.5C 205.604,300.069 203.938,302.069 201.5,303.5C 199.517,302.018 197.684,300.351 196,298.5C 195.333,292.167 195.333,285.833 196,279.5C 197.356,278.62 198.856,278.286 200.5,278.5C 199.669,285.131 199.336,291.798 199.5,298.5C 200.822,298.67 201.989,298.337 203,297.5C 205.798,291.773 207.798,285.773 209,279.5C 210.011,278.663 211.178,278.33 212.5,278.5C 212.831,286.86 212.498,295.193 211.5,303.5C 210.145,302.812 209.145,301.812 208.5,300.5 Z"/></g>
<g><path style="opacity:1" fill="#0e0e0e" d="M 369.5,278.5 C 370.833,278.5 372.167,278.5 373.5,278.5C 372.788,285.143 372.454,291.809 372.5,298.5C 373.822,298.67 374.989,298.337 376,297.5C 379.06,291.821 381.226,285.821 382.5,279.5C 383.689,278.571 385.022,278.238 386.5,278.5C 385.25,285.835 385.25,293.168 386.5,300.5C 385.714,303.975 384.214,304.308 382,301.5C 381.667,298.833 381.333,296.167 381,293.5C 379.96,303.218 375.96,304.885 369,298.5C 368.208,291.753 368.374,285.086 369.5,278.5 Z"/></g>
<g><path style="opacity:1" fill="#181818" d="M 819.5,278.5 C 821.199,278.34 822.866,278.506 824.5,279C 823.19,285.444 823.19,291.944 824.5,298.5C 826.197,297.636 827.363,296.303 828,294.5C 830.014,289.293 831.514,283.96 832.5,278.5C 833.833,278.5 835.167,278.5 836.5,278.5C 836.5,286.833 836.5,295.167 836.5,303.5C 834.61,303.703 833.11,303.037 832,301.5C 831.667,299.5 831.333,297.5 831,295.5C 829.381,302.981 825.714,304.314 820,299.5C 818.171,292.559 818.004,285.559 819.5,278.5 Z"/></g>
<g><path style="opacity:1" fill="#191919" d="M 175.5,301.5 C 175.5,300.5 175.5,299.5 175.5,298.5C 177.003,299.682 178.67,300.182 180.5,300C 186.141,294.856 186.808,289.189 182.5,283C 179.073,281.834 176.407,282.668 174.5,285.5C 173.511,290.975 173.178,296.642 173.5,302.5C 172.791,303.404 171.791,303.737 170.5,303.5C 169.139,290.492 169.306,277.492 171,264.5C 172.11,262.963 173.61,262.297 175.5,262.5C 175.065,268.842 174.898,275.175 175,281.5C 180.983,277.096 185.983,278.096 190,284.5C 192.43,297.152 187.597,302.819 175.5,301.5 Z"/></g>
<g><path style="opacity:1" fill="#111111" d="M 339.5,279.5 C 339.335,282.518 339.502,285.518 340,288.5C 340.513,287.473 341.013,286.473 341.5,285.5C 342.446,283.11 343.779,280.944 345.5,279C 346.833,278.333 348.167,278.333 349.5,279C 350.3,283.08 350.8,287.247 351,291.5C 351.989,286.688 354.156,282.521 357.5,279C 359.567,278.464 361.401,278.964 363,280.5C 362.786,287.572 362.786,294.572 363,301.5C 361.667,302.833 360.333,302.833 359,301.5C 358.899,295.116 358.732,288.782 358.5,282.5C 354.083,288.407 351.417,295.074 350.5,302.5C 349.167,302.5 347.833,302.5 346.5,302.5C 346.666,295.492 346.5,288.492 346,281.5C 341.818,287.87 339.318,294.87 338.5,302.5C 337.5,302.5 336.5,302.5 335.5,302.5C 335.334,294.826 335.5,287.159 336,279.5C 337.292,278.209 338.458,278.209 339.5,279.5 Z"/></g>
<g><path style="opacity:1" fill="#161616" d="M 420.5,278.5 C 421.833,278.5 423.167,278.5 424.5,278.5C 424.336,281.187 424.503,283.854 425,286.5C 431.807,275.211 435.473,276.211 436,289.5C 437.181,285.637 439.014,282.137 441.5,279C 443.92,278.313 446.087,278.813 448,280.5C 447.585,287.202 447.752,293.869 448.5,300.5C 447.332,302.217 445.665,302.884 443.5,302.5C 443.83,295.8 443.497,289.134 442.5,282.5C 438.463,288.611 435.796,295.278 434.5,302.5C 433.167,302.5 431.833,302.5 430.5,302.5C 431.112,295.465 431.112,288.465 430.5,281.5C 426.336,287.486 423.836,294.152 423,301.5C 421.989,302.337 420.822,302.67 419.5,302.5C 419.302,294.466 419.635,286.466 420.5,278.5 Z"/></g>
<g><path style="opacity:1" fill="#171717" d="M 483.5,277.5 C 485.39,277.297 486.89,277.963 488,279.5C 488.667,281.833 488.667,284.167 488,286.5C 487.282,287.451 486.449,287.617 485.5,287C 484.762,280.931 483.262,280.431 481,285.5C 480.667,291.167 480.333,296.833 480,302.5C 478.644,303.38 477.144,303.714 475.5,303.5C 475.302,295.466 475.635,287.466 476.5,279.5C 477.5,279.5 478.5,279.5 479.5,279.5C 479.343,280.873 479.51,282.207 480,283.5C 480.926,281.308 482.093,279.308 483.5,277.5 Z"/></g>
<g><path style="opacity:1" fill="#141414" d="M 611.5,282.5 C 610.371,284.628 610.204,286.961 611,289.5C 611.513,288.473 612.013,287.473 612.5,286.5C 613.507,281.986 616.174,279.486 620.5,279C 621.944,280.126 622.61,281.626 622.5,283.5C 621.732,286.154 621.566,288.821 622,291.5C 623.514,286.971 625.681,282.805 628.5,279C 630.567,278.464 632.401,278.964 634,280.5C 634.667,287.833 634.667,295.167 634,302.5C 631.91,303.791 630.576,303.124 630,300.5C 629.845,294.439 629.678,288.439 629.5,282.5C 625.18,288.478 622.514,295.144 621.5,302.5C 620.167,302.5 618.833,302.5 617.5,302.5C 619.316,274.838 616.816,274.505 610,301.5C 608.989,302.337 607.822,302.67 606.5,302.5C 606.302,294.466 606.635,286.466 607.5,278.5C 608.833,278.5 610.167,278.5 611.5,278.5C 611.5,279.833 611.5,281.167 611.5,282.5 Z"/></g>
<g><path style="opacity:1" fill="#141414" d="M 737.5,282.5 C 736.371,284.628 736.204,286.961 737,289.5C 737.513,288.473 738.013,287.473 738.5,286.5C 739.507,281.986 742.174,279.486 746.5,279C 747.944,280.126 748.61,281.626 748.5,283.5C 747.732,286.154 747.566,288.821 748,291.5C 749.514,286.971 751.681,282.805 754.5,279C 756.567,278.464 758.401,278.964 760,280.5C 760.667,287.833 760.667,295.167 760,302.5C 757.91,303.791 756.576,303.124 756,300.5C 755.845,294.439 755.678,288.439 755.5,282.5C 751.18,288.478 748.514,295.144 747.5,302.5C 746.167,302.5 744.833,302.5 743.5,302.5C 745.316,274.838 742.816,274.505 736,301.5C 734.989,302.337 733.822,302.67 732.5,302.5C 732.302,294.466 732.635,286.466 733.5,278.5C 734.833,278.5 736.167,278.5 737.5,278.5C 737.5,279.833 737.5,281.167 737.5,282.5 Z"/></g>
<g><path style="opacity:1" fill="#f8f8f8" d="M 397.5,281.5 C 401.306,281.02 404.639,282.02 407.5,284.5C 408.904,283.001 409.57,283.334 409.5,285.5C 409.137,292.188 405.804,296.521 399.5,298.5C 397.617,298.124 396.117,297.124 395,295.5C 393.806,290.369 394.639,285.702 397.5,281.5 Z"/></g>
<g><path style="opacity:1" fill="#f5f5f5" d="M 667.5,281.5 C 679.345,280.866 682.178,285.532 676,295.5C 671.752,299.842 668.085,299.508 665,294.5C 663.842,289.693 664.676,285.36 667.5,281.5 Z"/></g>
<g><path style="opacity:1" fill="#fbfbfb" d="M 175.5,298.5 C 174.515,294.366 174.182,290.032 174.5,285.5C 176.407,282.668 179.073,281.834 182.5,283C 186.808,289.189 186.141,294.856 180.5,300C 178.67,300.182 177.003,299.682 175.5,298.5 Z"/></g>
<g><path style="opacity:1" fill="#8d8d8d" d="M 694.5,275.5 C 694.187,279.042 694.521,282.375 695.5,285.5C 695.539,286.756 695.039,287.756 694,288.5C 693.186,283.98 693.353,279.646 694.5,275.5 Z"/></g>
<g><path style="opacity:1" fill="#6c6c6c" d="M 590.5,275.5 C 591.139,285.227 590.472,294.56 588.5,303.5C 589.142,294.068 589.809,284.734 590.5,275.5 Z"/></g>
<g><path style="opacity:1" fill="#969696" d="M 339.5,279.5 C 340.167,281.5 340.833,283.5 341.5,285.5C 341.013,286.473 340.513,287.473 340,288.5C 339.502,285.518 339.335,282.518 339.5,279.5 Z"/></g>
<g><path style="opacity:1" fill="#6f6f6f" d="M 611.5,282.5 C 611.232,284.099 611.566,285.432 612.5,286.5C 612.013,287.473 611.513,288.473 611,289.5C 610.204,286.961 610.371,284.628 611.5,282.5 Z"/></g>
<g><path style="opacity:1" fill="#6f6f6f" d="M 737.5,282.5 C 737.232,284.099 737.566,285.432 738.5,286.5C 738.013,287.473 737.513,288.473 737,289.5C 736.204,286.961 736.371,284.628 737.5,282.5 Z"/></g>
<g><path style="opacity:1" fill="#ededed" d="M 146.5,291.5 C 147.5,291.5 148.5,291.5 149.5,291.5C 148.239,297.093 144.906,300.759 139.5,302.5C 140.066,297.699 142.4,294.032 146.5,291.5 Z"/></g>
<g><path style="opacity:1" fill="#ebebeb" d="M 266.5,290.5 C 267.124,290.917 267.457,291.584 267.5,292.5C 265.784,297.549 262.451,300.883 257.5,302.5C 257.372,300.345 257.872,298.345 259,296.5C 261.478,294.361 263.978,292.361 266.5,290.5 Z"/></g>
<g><path style="opacity:1" fill="#e4e4e4" d="M 463.5,290.5 C 465.344,291.204 465.844,292.537 465,294.5C 463.285,296.759 461.452,298.926 459.5,301C 455,303.167 453.833,302 456,297.5C 458.396,294.933 460.896,292.6 463.5,290.5 Z"/></g>
<g><path style="opacity:1" fill="#ededed" d="M 648.5,291.5 C 649.5,291.5 650.5,291.5 651.5,291.5C 650.239,297.093 646.906,300.759 641.5,302.5C 642.066,297.699 644.4,294.032 648.5,291.5 Z"/></g>
<g><path style="opacity:1" fill="#ededed" d="M 774.5,291.5 C 775.5,291.5 776.5,291.5 777.5,291.5C 776.239,297.093 772.906,300.759 767.5,302.5C 768.066,297.699 770.4,294.032 774.5,291.5 Z"/></g>
<g><path style="opacity:1" fill="#8f8f8f" d="M 238.5,286.5 C 239.209,285.596 240.209,285.263 241.5,285.5C 241.5,291.167 241.5,296.833 241.5,302.5C 241.144,296.923 240.144,291.59 238.5,286.5 Z"/></g>
<g><path style="opacity:1" fill="#535353" d="M 548.5,286.5 C 549.209,285.596 550.209,285.263 551.5,285.5C 551.5,291.167 551.5,296.833 551.5,302.5C 551.144,296.923 550.144,291.59 548.5,286.5 Z"/></g>
<g><path style="opacity:1" fill="#848484" d="M 174.5,285.5 C 174.182,290.032 174.515,294.366 175.5,298.5C 175.5,299.5 175.5,300.5 175.5,301.5C 174.833,301.833 174.167,302.167 173.5,302.5C 173.178,296.642 173.511,290.975 174.5,285.5 Z"/></g>
<g><path style="opacity:1" fill="#9a9a9a" d="M 208.5,300.5 C 207.833,299.5 207.167,298.5 206.5,297.5C 207.09,296.234 207.59,294.901 208,293.5C 208.497,295.81 208.663,298.143 208.5,300.5 Z"/></g>
<g><path style="opacity:1" fill="#505050" d="M 555.5,287.5 C 556.117,293.598 555.45,299.265 553.5,304.5C 554.126,298.732 554.793,293.066 555.5,287.5 Z"/></g>
<g><path style="opacity:1" fill="#2e2e2e" d="M 82.5,441.5 C 81.5041,441.414 80.6708,441.748 80,442.5C 79.1711,437.467 79.3377,432.467 80.5,427.5C 81.2978,429.078 81.7978,430.744 82,432.5C 86.1608,430.966 88.6608,432.466 89.5,437C 89.197,442.119 86.8637,443.619 82.5,441.5 Z"/></g>
<g><path style="opacity:1" fill="#4b4b4b" d="M 135.5,427.5 C 136.922,427.75 137.922,428.583 138.5,430C 136.511,430.519 135.511,429.686 135.5,427.5 Z"/></g>
<g><path style="opacity:1" fill="#2d2d2d" d="M 196.5,441.5 C 192.136,443.619 189.803,442.119 189.5,437C 190.339,432.466 192.839,430.966 197,432.5C 197.202,430.744 197.702,429.078 198.5,427.5C 199.833,432.5 199.833,437.5 198.5,442.5C 197.817,442.137 197.15,441.804 196.5,441.5 Z"/></g>
<g><path style="opacity:1" fill="#444444" d="M 280.5,427.5 C 281.809,429.571 282.475,432.071 282.5,435C 282.167,437.5 281.833,440 281.5,442.5C 280.506,437.544 280.173,432.544 280.5,427.5 Z"/></g>
<g><path style="opacity:1" fill="#353535" d="M 296.5,427.5 C 298.117,428.589 298.95,430.256 299,432.5C 300.796,431.233 302.629,431.233 304.5,432.5C 305.833,435.833 305.833,439.167 304.5,442.5C 303.516,439.572 303.183,436.572 303.5,433.5C 301.856,433.286 300.356,433.62 299,434.5C 298.818,437.226 298.318,439.893 297.5,442.5C 296.506,437.544 296.173,432.544 296.5,427.5 Z"/></g>
<g><path style="opacity:1" fill="#2e2e2e" d="M 345.5,441.5 C 344.504,441.414 343.671,441.748 343,442.5C 342.171,437.467 342.338,432.467 343.5,427.5C 344.298,429.078 344.798,430.744 345,432.5C 349.161,430.966 351.661,432.466 352.5,437C 352.197,442.119 349.864,443.619 345.5,441.5 Z"/></g>
<g><path style="opacity:1" fill="#4b4b4b" d="M 398.5,427.5 C 399.922,427.75 400.922,428.583 401.5,430C 399.511,430.519 398.511,429.686 398.5,427.5 Z"/></g>
<g><path style="opacity:1" fill="#1f1f1f" d="M 116.5,427.5 C 121.539,427.451 121.705,428.118 117,429.5C 116.833,429.833 116.667,430.167 116.5,430.5C 120.335,431.996 120.335,432.996 116.5,433.5C 116.665,436.518 116.498,439.518 116,442.5C 115.963,438.911 115.13,435.578 113.5,432.5C 114.994,431.095 115.994,429.429 116.5,427.5 Z"/></g>
<g><path style="opacity:1" fill="#1f1f1f" d="M 379.5,427.5 C 384.539,427.451 384.705,428.118 380,429.5C 379.833,429.833 379.667,430.167 379.5,430.5C 383.335,431.996 383.335,432.996 379.5,433.5C 379.665,436.518 379.498,439.518 379,442.5C 378.963,438.911 378.13,435.578 376.5,432.5C 377.994,431.095 378.994,429.429 379.5,427.5 Z"/></g>
<g><path style="opacity:1" fill="#242424" d="M 51.5,431.5 C 53.0806,432.579 54.7473,432.579 56.5,431.5C 58.0293,431.529 59.196,432.196 60,433.5C 60.8214,436.554 60.6548,439.554 59.5,442.5C 58.5159,439.572 58.1826,436.572 58.5,433.5C 56.5328,433.261 54.6995,433.594 53,434.5C 52.6667,437.167 52.3333,439.833 52,442.5C 51.5014,438.848 51.3347,435.182 51.5,431.5 Z"/></g>
<g><path style="opacity:1" fill="#2e2e2e" d="M 74.5,431.5 C 75.7868,432.871 76.4535,434.705 76.5,437C 76.1667,438.833 75.8333,440.667 75.5,442.5C 74.5108,438.893 74.1774,435.226 74.5,431.5 Z"/></g>
<g><path style="opacity:1" fill="#5f5f5f" d="M 93.5,432.5 C 92.5269,434.948 92.1936,437.615 92.5,440.5C 91.1968,437.645 91.1968,434.645 92.5,431.5C 93.1067,431.624 93.44,431.957 93.5,432.5 Z"/></g>
<g><path style="opacity:1" fill="#2f2f2f" d="M 159.5,431.5 C 164.07,431.958 168.737,432.124 173.5,432C 174.622,435.409 174.789,438.909 174,442.5C 173.667,439.833 173.333,437.167 173,434.5C 171.644,433.62 170.144,433.286 168.5,433.5C 167.833,445.5 167.167,445.5 166.5,433.5C 164.833,433.5 163.167,433.5 161.5,433.5C 161.817,436.572 161.484,439.572 160.5,442.5C 159.511,438.893 159.177,435.226 159.5,431.5 Z"/></g>
<g><path style="opacity:1" fill="#262626" d="M 178.5,431.5 C 179.319,434.305 179.819,437.305 180,440.5C 181.938,441.86 183.604,441.527 185,439.5C 185.182,436.774 185.682,434.107 186.5,431.5C 187.833,435.167 187.833,438.833 186.5,442.5C 184.071,442.579 181.571,442.245 179,441.5C 178.502,438.183 178.335,434.85 178.5,431.5 Z"/></g>
<g><path style="opacity:1" fill="#272727" d="M 232.5,431.5 C 233.222,431.918 233.722,432.584 234,433.5C 235.241,431.579 236.741,431.246 238.5,432.5C 237.372,433.262 236.205,433.929 235,434.5C 234.818,437.226 234.318,439.893 233.5,442.5C 232.511,438.893 232.177,435.226 232.5,431.5 Z"/></g>
<g><path style="opacity:1" fill="#242424" d="M 314.5,431.5 C 316.081,432.579 317.747,432.579 319.5,431.5C 321.029,431.529 322.196,432.196 323,433.5C 323.821,436.554 323.655,439.554 322.5,442.5C 321.516,439.572 321.183,436.572 321.5,433.5C 319.533,433.261 317.699,433.594 316,434.5C 315.667,437.167 315.333,439.833 315,442.5C 314.501,438.848 314.335,435.182 314.5,431.5 Z"/></g>
<g><path style="opacity:1" fill="#2e2e2e" d="M 337.5,431.5 C 338.787,432.871 339.453,434.705 339.5,437C 339.167,438.833 338.833,440.667 338.5,442.5C 337.511,438.893 337.177,435.226 337.5,431.5 Z"/></g>
<g><path style="opacity:1" fill="#5f5f5f" d="M 356.5,432.5 C 355.527,434.948 355.194,437.615 355.5,440.5C 354.197,437.645 354.197,434.645 355.5,431.5C 356.107,431.624 356.44,431.957 356.5,432.5 Z"/></g>
<g><path style="opacity:1" fill="#3d3d3d" d="M 443.5,431.5 C 446.068,431.573 448.734,431.906 451.5,432.5C 452.833,435.833 452.833,439.167 451.5,442.5C 450.516,439.572 450.183,436.572 450.5,433.5C 448.856,433.286 447.356,433.62 446,434.5C 445.818,437.226 445.318,439.893 444.5,442.5C 443.511,438.893 443.177,435.226 443.5,431.5 Z"/></g>
<g><path style="opacity:1" fill="#efefef" d="M 82.5,441.5 C 81.4634,439.262 81.2967,436.929 82,434.5C 87.3447,433.056 88.8447,435.056 86.5,440.5C 85.3112,441.429 83.9778,441.762 82.5,441.5 Z"/></g>
<g><path style="opacity:1" fill="#f1f1f1" d="M 196.5,441.5 C 191.738,440.908 190.404,438.408 192.5,434C 194.112,433.28 195.612,433.446 197,434.5C 197.703,436.929 197.537,439.262 196.5,441.5 Z"/></g>
<g><path style="opacity:1" fill="#282828" d="M 211.5,433.5 C 210.833,445.5 210.167,445.5 209.5,433.5C 207.856,433.286 206.356,433.62 205,434.5C 204.818,437.226 204.318,439.893 203.5,442.5C 202.167,438.833 202.167,435.167 203.5,431.5C 206.346,430.877 209.012,431.544 211.5,433.5 Z"/></g>
<g><path style="opacity:1" fill="#303030" d="M 211.5,433.5 C 213.54,430.866 215.707,430.866 218,433.5C 218.821,436.554 218.655,439.554 217.5,442.5C 216.516,439.572 216.183,436.572 216.5,433.5C 214.833,433.5 213.167,433.5 211.5,433.5 Z"/></g>
<g><path style="opacity:1" fill="#efefef" d="M 345.5,441.5 C 344.463,439.262 344.297,436.929 345,434.5C 350.345,433.056 351.845,435.056 349.5,440.5C 348.311,441.429 346.978,441.762 345.5,441.5 Z"/></g>
<g><path style="opacity:1" fill="#212121" d="M 264.5,427.5 C 265.65,432.316 265.816,437.316 265,442.5C 263.026,442.374 260.859,442.208 258.5,442C 256.522,439.503 256.022,436.669 257,433.5C 258.865,431.327 261.031,430.993 263.5,432.5C 264.452,430.955 264.785,429.288 264.5,427.5 Z"/></g>
<g><path style="opacity:1" fill="#eaeaea" d="M 258.5,433.5 C 264.704,433.314 266.037,435.814 262.5,441C 261.216,441.684 260.049,441.517 259,440.5C 258.503,438.19 258.337,435.857 258.5,433.5 Z"/></g>
<g><path style="opacity:1" fill="#333333" d="M 456.5,442.5 C 456.123,439.475 455.956,436.475 456,433.5C 458.497,431.522 461.331,431.022 464.5,432C 463.751,433.734 463.251,435.567 463,437.5C 455.758,438.982 455.925,440.316 463.5,441.5C 464.527,446.95 462.193,448.784 456.5,447C 454.019,445.196 454.019,443.696 456.5,442.5 Z"/></g>
<g><path style="opacity:1" fill="#eaeaea" d="M 458.5,432.5 C 461.084,433.048 462.084,434.715 461.5,437.5C 460.167,437.5 458.833,437.5 457.5,437.5C 457.366,435.708 457.699,434.042 458.5,432.5 Z"/></g>
<g><path style="opacity:1" fill="#2c2c2c" d="M 421.5,431.5 C 423.453,434.141 424.953,437.141 426,440.5C 426.875,437.372 428.042,434.372 429.5,431.5C 429.193,436.613 427.693,441.613 425,446.5C 423.506,447.747 422.006,447.747 420.5,446.5C 423.068,446.048 424.401,444.548 424.5,442C 423.194,438.583 422.194,435.083 421.5,431.5 Z"/></g>
<g><path style="opacity:1" fill="#2c2c2c" d="M 247.5,431.5 C 249.467,431.261 251.301,431.594 253,432.5C 253.667,435.833 253.667,439.167 253,442.5C 250.766,442.626 248.432,442.293 246,441.5C 245.333,440.167 245.333,438.833 246,437.5C 247.78,436.406 249.614,435.406 251.5,434.5C 249.922,433.702 248.256,433.202 246.5,433C 247.056,432.617 247.389,432.117 247.5,431.5 Z"/></g>
<g><path style="opacity:1" fill="#e3e3e3" d="M 247.5,437.5 C 248.833,437.5 250.167,437.5 251.5,437.5C 251.114,441.738 249.448,442.404 246.5,439.5C 246.863,438.817 247.196,438.15 247.5,437.5 Z"/></g>
<g><path style="opacity:1" fill="#252525" d="M 68.5,441.5 C 67.0536,442.613 65.3869,442.78 63.5,442C 62.5214,437.483 64.5214,435.65 69.5,436.5C 69.5,435.5 69.5,434.5 69.5,433.5C 67.712,433.785 66.0453,433.452 64.5,432.5C 66.9492,431.09 69.1159,431.424 71,433.5C 71.8214,436.554 71.6548,439.554 70.5,442.5C 69.8165,442.137 69.1499,441.804 68.5,441.5 Z"/></g>
<g><path style="opacity:1" fill="#e7e7e7" d="M 68.5,441.5 C 67.1667,441.5 65.8333,441.5 64.5,441.5C 64.3838,438.09 66.0504,436.756 69.5,437.5C 69.5674,438.959 69.2341,440.292 68.5,441.5 Z"/></g>
<g><path style="opacity:1" fill="#252525" d="M 126.5,441.5 C 125.054,442.613 123.387,442.78 121.5,442C 120.521,437.483 122.521,435.65 127.5,436.5C 127.5,435.5 127.5,434.5 127.5,433.5C 125.712,433.785 124.045,433.452 122.5,432.5C 124.949,431.09 127.116,431.424 129,433.5C 129.821,436.554 129.655,439.554 128.5,442.5C 127.817,442.137 127.15,441.804 126.5,441.5 Z"/></g>
<g><path style="opacity:1" fill="#e7e7e7" d="M 126.5,441.5 C 125.167,441.5 123.833,441.5 122.5,441.5C 122.384,438.09 124.05,436.756 127.5,437.5C 127.567,438.959 127.234,440.292 126.5,441.5 Z"/></g>
<g><path style="opacity:1" fill="#252525" d="M 226.5,441.5 C 225.054,442.613 223.387,442.78 221.5,442C 220.521,437.483 222.521,435.65 227.5,436.5C 227.5,435.5 227.5,434.5 227.5,433.5C 225.712,433.785 224.045,433.452 222.5,432.5C 224.949,431.09 227.116,431.424 229,433.5C 229.821,436.554 229.655,439.554 228.5,442.5C 227.817,442.137 227.15,441.804 226.5,441.5 Z"/></g>
<g><path style="opacity:1" fill="#e7e7e7" d="M 226.5,441.5 C 225.167,441.5 223.833,441.5 222.5,441.5C 222.384,438.09 224.05,436.756 227.5,437.5C 227.567,438.959 227.234,440.292 226.5,441.5 Z"/></g>
<g><path style="opacity:1" fill="#2f2f2f" d="M 270.5,431.5 C 275.578,430.745 277.911,432.912 277.5,438C 277.167,439.5 276.833,441 276.5,442.5C 274.328,442.324 271.995,442.157 269.5,442C 268.167,440.333 268.167,438.667 269.5,437C 271.473,436.505 273.473,436.338 275.5,436.5C 275.5,435.5 275.5,434.5 275.5,433.5C 273.473,433.662 271.473,433.495 269.5,433C 270.056,432.617 270.389,432.117 270.5,431.5 Z"/></g>
<g><path style="opacity:1" fill="#eaeaea" d="M 270.5,437.5 C 272.288,437.215 273.955,437.548 275.5,438.5C 274.579,440.756 272.912,441.756 270.5,441.5C 270.5,440.167 270.5,438.833 270.5,437.5 Z"/></g>
<g><path style="opacity:1" fill="#252525" d="M 290.5,441.5 C 289.054,442.613 287.387,442.78 285.5,442C 284.521,437.483 286.521,435.65 291.5,436.5C 291.5,435.5 291.5,434.5 291.5,433.5C 289.712,433.785 288.045,433.452 286.5,432.5C 288.949,431.09 291.116,431.424 293,433.5C 293.821,436.554 293.655,439.554 292.5,442.5C 291.817,442.137 291.15,441.804 290.5,441.5 Z"/></g>
<g><path style="opacity:1" fill="#e7e7e7" d="M 290.5,441.5 C 289.167,441.5 287.833,441.5 286.5,441.5C 286.384,438.09 288.05,436.756 291.5,437.5C 291.567,438.959 291.234,440.292 290.5,441.5 Z"/></g>
<g><path style="opacity:1" fill="#252525" d="M 331.5,441.5 C 330.054,442.613 328.387,442.78 326.5,442C 325.521,437.483 327.521,435.65 332.5,436.5C 332.5,435.5 332.5,434.5 332.5,433.5C 330.712,433.785 329.045,433.452 327.5,432.5C 329.949,431.09 332.116,431.424 334,433.5C 334.821,436.554 334.655,439.554 333.5,442.5C 332.817,442.137 332.15,441.804 331.5,441.5 Z"/></g>
<g><path style="opacity:1" fill="#e7e7e7" d="M 331.5,441.5 C 330.167,441.5 328.833,441.5 327.5,441.5C 327.384,438.09 329.05,436.756 332.5,437.5C 332.567,438.959 332.234,440.292 331.5,441.5 Z"/></g>
<g><path style="opacity:1" fill="#252525" d="M 389.5,441.5 C 388.054,442.613 386.387,442.78 384.5,442C 383.521,437.483 385.521,435.65 390.5,436.5C 390.5,435.5 390.5,434.5 390.5,433.5C 388.712,433.785 387.045,433.452 385.5,432.5C 387.949,431.09 390.116,431.424 392,433.5C 392.821,436.554 392.655,439.554 391.5,442.5C 390.817,442.137 390.15,441.804 389.5,441.5 Z"/></g>
<g><path style="opacity:1" fill="#e7e7e7" d="M 389.5,441.5 C 388.167,441.5 386.833,441.5 385.5,441.5C 385.384,438.09 387.05,436.756 390.5,437.5C 390.567,438.959 390.234,440.292 389.5,441.5 Z"/></g>
<g><path style="opacity:1" fill="#252525" d="M 437.5,441.5 C 436.054,442.613 434.387,442.78 432.5,442C 431.521,437.483 433.521,435.65 438.5,436.5C 438.5,435.5 438.5,434.5 438.5,433.5C 436.712,433.785 435.045,433.452 433.5,432.5C 435.949,431.09 438.116,431.424 440,433.5C 440.821,436.554 440.655,439.554 439.5,442.5C 438.817,442.137 438.15,441.804 437.5,441.5 Z"/></g>
<g><path style="opacity:1" fill="#e7e7e7" d="M 437.5,441.5 C 436.167,441.5 434.833,441.5 433.5,441.5C 433.384,438.09 435.05,436.756 438.5,437.5C 438.567,438.959 438.234,440.292 437.5,441.5 Z"/></g>
<g><path style="opacity:1" fill="#101010" d="M 92.5,440.5 C 92.1936,437.615 92.5269,434.948 93.5,432.5C 93.3359,435.187 93.5026,437.854 94,440.5C 95.9376,441.86 97.6043,441.527 99,439.5C 99.3333,436.833 99.6667,434.167 100,431.5C 100.667,435.167 100.667,438.833 100,442.5C 98.0257,442.374 95.859,442.208 93.5,442C 92.944,441.617 92.6107,441.117 92.5,440.5 Z"/></g>
<g><path style="opacity:1" fill="#101010" d="M 355.5,440.5 C 355.194,437.615 355.527,434.948 356.5,432.5C 356.336,435.187 356.503,437.854 357,440.5C 358.938,441.86 360.604,441.527 362,439.5C 362.333,436.833 362.667,434.167 363,431.5C 363.667,435.167 363.667,438.833 363,442.5C 361.026,442.374 358.859,442.208 356.5,442C 355.944,441.617 355.611,441.117 355.5,440.5 Z"/></g>
<g><path style="opacity:1" fill="#f9f9f9" d="M 456.5,442.5 C 458.5,442.5 460.5,442.5 462.5,442.5C 462.5,443.5 462.5,444.5 462.5,445.5C 460.5,445.5 458.5,445.5 456.5,445.5C 456.5,444.5 456.5,443.5 456.5,442.5 Z"/></g>
<g><path style="opacity:1" fill="#2d2d2d" d="M 69.5,469.5 C 65.1363,471.619 62.803,470.119 62.5,465C 63.3392,460.466 65.8392,458.966 70,460.5C 70.2022,458.744 70.7022,457.078 71.5,455.5C 72.8333,460.5 72.8333,465.5 71.5,470.5C 70.8165,470.137 70.1499,469.804 69.5,469.5 Z"/></g>
<g><path style="opacity:1" fill="#303030" d="M 86.5,455.5 C 88.2371,458.008 89.0704,461.008 89,464.5C 90.0458,462.91 91.2125,461.41 92.5,460C 93.1667,459.333 93.8333,459.333 94.5,460C 90.5664,463.123 90.5664,466.29 94.5,469.5C 94.1667,469.833 93.8333,470.167 93.5,470.5C 92.5,468.833 91.1667,467.5 89.5,466.5C 88.8333,467.833 88.1667,469.167 87.5,470.5C 86.5059,465.544 86.1725,460.544 86.5,455.5 Z"/></g>
<g><path style="opacity:1" fill="#1b1b1b" d="M 231.5,455.5 C 231.183,458.572 231.516,461.572 232.5,464.5C 233.107,464.376 233.44,464.043 233.5,463.5C 234.562,461.243 236.228,460.077 238.5,460C 236.981,461.351 235.648,462.851 234.5,464.5C 239.661,471.838 239.161,472.171 233,465.5C 232.798,467.256 232.298,468.922 231.5,470.5C 230.186,465.348 230.186,460.348 231.5,455.5 Z"/></g>
<g><path style="opacity:1" fill="#6a6a6a" d="M 231.5,455.5 C 232.167,458.167 232.833,460.833 233.5,463.5C 233.44,464.043 233.107,464.376 232.5,464.5C 231.516,461.572 231.183,458.572 231.5,455.5 Z"/></g>
<g><path style="opacity:1" fill="#444444" d="M 262.5,455.5 C 263.809,457.571 264.475,460.071 264.5,463C 264.167,465.5 263.833,468 263.5,470.5C 262.506,465.544 262.173,460.544 262.5,455.5 Z"/></g>
<g><path style="opacity:1" fill="#2f2f2f" d="M 202.5,455.5 C 203.773,456.077 203.773,456.743 202.5,457.5C 201.537,457.03 201.537,456.363 202.5,455.5 Z"/></g>
<g><path style="opacity:1" fill="#060606" d="M 195.5,468.5 C 195.736,465.391 195.403,462.391 194.5,459.5C 195.222,459.082 195.722,458.416 196,457.5C 196.333,461.167 196.667,464.833 197,468.5C 200.36,470.051 200.193,470.551 196.5,470C 195.944,469.617 195.611,469.117 195.5,468.5 Z"/></g>
<g><path style="opacity:1" fill="#141414" d="M 51.5,458.5 C 52.1667,461.833 52.8333,465.167 53.5,468.5C 54.2625,469.268 55.2625,469.768 56.5,470C 54.8876,470.72 53.3876,470.554 52,469.5C 51.7435,466.443 51.2435,463.443 50.5,460.5C 50.8627,459.817 51.1961,459.15 51.5,458.5 Z"/></g>
<g><path style="opacity:1" fill="#616161" d="M 51.5,458.5 C 51.56,457.957 51.8933,457.624 52.5,457.5C 53.5,458.5 54.5,459.5 55.5,460.5C 53.777,462.868 53.1103,465.534 53.5,468.5C 52.8333,465.167 52.1667,461.833 51.5,458.5 Z"/></g>
<g><path style="opacity:1" fill="#292929" d="M 102.5,459.5 C 104.081,460.579 105.747,460.579 107.5,459.5C 109.029,459.529 110.196,460.196 111,461.5C 111.821,464.554 111.655,467.554 110.5,470.5C 109.516,467.572 109.183,464.572 109.5,461.5C 107.833,461.5 106.167,461.5 104.5,461.5C 104.817,464.572 104.484,467.572 103.5,470.5C 102.511,466.893 102.177,463.226 102.5,459.5 Z"/></g>
<g><path style="opacity:1" fill="#777777" d="M 127.5,460.5 C 126.521,463.625 126.187,466.958 126.5,470.5C 125.192,466.981 125.192,463.315 126.5,459.5C 127.107,459.624 127.44,459.957 127.5,460.5 Z"/></g>
<g><path style="opacity:1" fill="#323232" d="M 147.5,469.5 C 146.835,471.369 146.169,473.369 145.5,475.5C 144.167,470.167 144.167,464.833 145.5,459.5C 147.343,459.755 149.343,459.922 151.5,460C 155.092,462.971 155.425,466.304 152.5,470C 150.613,470.78 148.946,470.613 147.5,469.5 Z"/></g>
<g><path style="opacity:1" fill="#222222" d="M 185.5,456.5 C 186.043,456.56 186.376,456.893 186.5,457.5C 185.149,459.454 184.482,461.621 184.5,464C 187.177,476.476 186.511,476.643 182.5,464.5C 182.948,461.609 183.948,458.942 185.5,456.5 Z"/></g>
<g><path style="opacity:1" fill="#4f4f4f" d="M 201.5,459.5 C 202.787,460.871 203.453,462.705 203.5,465C 203.167,466.833 202.833,468.667 202.5,470.5C 201.511,466.893 201.177,463.226 201.5,459.5 Z"/></g>
<g><path style="opacity:1" fill="#181818" d="M 246.5,459.5 C 247.65,464.316 247.816,469.316 247,474.5C 245.817,475.731 244.651,475.731 243.5,474.5C 244.325,473.614 245.325,473.281 246.5,473.5C 246.5,468.833 246.5,464.167 246.5,459.5 Z"/></g>
<g><path style="opacity:1" fill="#f1f1f1" d="M 69.5,469.5 C 64.7376,468.908 63.4043,466.408 65.5,462C 67.1124,461.28 68.6124,461.446 70,462.5C 70.7033,464.929 70.5366,467.262 69.5,469.5 Z"/></g>
<g><path style="opacity:1" fill="#ededed" d="M 147.5,469.5 C 146.463,467.262 146.297,464.929 147,462.5C 152.345,461.056 153.845,463.056 151.5,468.5C 150.311,469.429 148.978,469.762 147.5,469.5 Z"/></g>
<g><path style="opacity:1" fill="#909090" d="M 194.5,459.5 C 195.403,462.391 195.736,465.391 195.5,468.5C 194.746,465.977 194.08,463.311 193.5,460.5C 193.624,459.893 193.957,459.56 194.5,459.5 Z"/></g>
<g><path style="opacity:1" fill="#202020" d="M 80.5,469.5 C 76.0143,471.177 74.681,469.677 76.5,465C 78.1341,464.506 79.8008,464.34 81.5,464.5C 81.5,463.5 81.5,462.5 81.5,461.5C 79.8008,461.66 78.1341,461.494 76.5,461C 78.3326,459.212 80.3326,459.046 82.5,460.5C 83.657,463.784 83.8236,467.118 83,470.5C 82.3292,469.748 81.4959,469.414 80.5,469.5 Z"/></g>
<g><path style="opacity:1" fill="#202020" d="M 119.5,469.5 C 115.014,471.177 113.681,469.677 115.5,465C 117.134,464.506 118.801,464.34 120.5,464.5C 120.5,463.5 120.5,462.5 120.5,461.5C 118.801,461.66 117.134,461.494 115.5,461C 117.333,459.212 119.333,459.046 121.5,460.5C 122.657,463.784 122.824,467.118 122,470.5C 121.329,469.748 120.496,469.414 119.5,469.5 Z"/></g>
<g><path style="opacity:1" fill="#353535" d="M 167.5,455.5 C 169.237,458.008 170.07,461.008 170,464.5C 171.667,462.833 173.333,461.167 175,459.5C 174.973,461.417 174.139,463.084 172.5,464.5C 173.253,466.753 174.586,468.587 176.5,470C 173.899,469.599 171.899,468.099 170.5,465.5C 169.833,467.167 169.167,468.833 168.5,470.5C 167.506,465.544 167.173,460.544 167.5,455.5 Z"/></g>
<g><path style="opacity:1" fill="#202020" d="M 272.5,469.5 C 268.014,471.177 266.681,469.677 268.5,465C 270.134,464.506 271.801,464.34 273.5,464.5C 273.5,463.5 273.5,462.5 273.5,461.5C 271.801,461.66 270.134,461.494 268.5,461C 270.333,459.212 272.333,459.046 274.5,460.5C 275.657,463.784 275.824,467.118 275,470.5C 274.329,469.748 273.496,469.414 272.5,469.5 Z"/></g>
<g><path style="opacity:1" fill="#212121" d="M 214.5,455.5 C 215.65,460.316 215.816,465.316 215,470.5C 213.026,470.374 210.859,470.208 208.5,470C 206.522,467.503 206.022,464.669 207,461.5C 208.865,459.327 211.031,458.993 213.5,460.5C 214.452,458.955 214.785,457.288 214.5,455.5 Z"/></g>
<g><path style="opacity:1" fill="#eaeaea" d="M 208.5,461.5 C 214.704,461.314 216.037,463.814 212.5,469C 211.216,469.684 210.049,469.517 209,468.5C 208.503,466.19 208.337,463.857 208.5,461.5 Z"/></g>
<g><path style="opacity:1" fill="#272727" d="M 126.5,470.5 C 126.187,466.958 126.521,463.625 127.5,460.5C 129.936,458.983 132.102,459.316 134,461.5C 139.096,458.232 141.596,459.732 141.5,466C 141.167,467.5 140.833,469 140.5,470.5C 139.516,467.572 139.183,464.572 139.5,461.5C 137.856,461.286 136.356,461.62 135,462.5C 133.65,472.868 132.816,472.535 132.5,461.5C 130.856,461.286 129.356,461.62 128,462.5C 127.817,465.365 127.317,468.031 126.5,470.5 Z"/></g>
<g><path style="opacity:1" fill="#2a2a2a" d="M 279.5,459.5 C 287.398,459.886 287.398,460.886 279.5,462.5C 281.95,463.711 283.95,465.378 285.5,467.5C 285.392,468.442 285.059,469.275 284.5,470C 282.421,470.808 280.421,470.641 278.5,469.5C 279.887,469.193 281.554,469.193 283.5,469.5C 283.594,466.459 282.094,464.793 279,464.5C 278.36,462.735 278.527,461.068 279.5,459.5 Z"/></g>
<g><path style="opacity:1" fill="#eaeaea" d="M 80.5,469.5 C 77.306,469.824 76.306,468.658 77.5,466C 78.7932,465.51 80.1266,465.343 81.5,465.5C 81.5674,466.959 81.2341,468.292 80.5,469.5 Z"/></g>
<g><path style="opacity:1" fill="#eaeaea" d="M 119.5,469.5 C 116.306,469.824 115.306,468.658 116.5,466C 117.793,465.51 119.127,465.343 120.5,465.5C 120.567,466.959 120.234,468.292 119.5,469.5 Z"/></g>
<g><path style="opacity:1" fill="#2c2c2c" d="M 158.5,459.5 C 160.467,459.261 162.301,459.594 164,460.5C 164.667,463.833 164.667,467.167 164,470.5C 161.766,470.626 159.432,470.293 157,469.5C 156.333,468.167 156.333,466.833 157,465.5C 158.78,464.406 160.614,463.406 162.5,462.5C 160.922,461.702 159.256,461.202 157.5,461C 158.056,460.617 158.389,460.117 158.5,459.5 Z"/></g>
<g><path style="opacity:1" fill="#e3e3e3" d="M 158.5,465.5 C 159.833,465.5 161.167,465.5 162.5,465.5C 162.114,469.738 160.448,470.404 157.5,467.5C 157.863,466.817 158.196,466.15 158.5,465.5 Z"/></g>
<g><path style="opacity:1" fill="#eaeaea" d="M 272.5,469.5 C 269.306,469.824 268.306,468.658 269.5,466C 270.793,465.51 272.127,465.343 273.5,465.5C 273.567,466.959 273.234,468.292 272.5,469.5 Z"/></g>
<g><path style="opacity:1" fill="#252525" d="M 224.5,469.5 C 223.054,470.613 221.387,470.78 219.5,470C 218.521,465.483 220.521,463.65 225.5,464.5C 225.5,463.5 225.5,462.5 225.5,461.5C 223.712,461.785 222.045,461.452 220.5,460.5C 222.949,459.09 225.116,459.424 227,461.5C 227.821,464.554 227.655,467.554 226.5,470.5C 225.817,470.137 225.15,469.804 224.5,469.5 Z"/></g>
<g><path style="opacity:1" fill="#e7e7e7" d="M 224.5,469.5 C 223.167,469.5 221.833,469.5 220.5,469.5C 220.384,466.09 222.05,464.756 225.5,465.5C 225.567,466.959 225.234,468.292 224.5,469.5 Z"/></g>
<g><path style="opacity:1" fill="#303030" d="M 253.5,459.5 C 257.833,459.167 259.833,461.167 259.5,465.5C 250.43,466.062 250.43,467.395 259.5,469.5C 254.363,471.869 251.363,470.369 250.5,465C 250.863,462.808 251.863,460.974 253.5,459.5 Z"/></g>
<g><path style="opacity:1" fill="#dedede" d="M 253.5,461.5 C 254.833,461.5 256.167,461.5 257.5,461.5C 257.5,462.5 257.5,463.5 257.5,464.5C 255.712,464.785 254.045,464.452 252.5,463.5C 252.863,462.817 253.196,462.15 253.5,461.5 Z"/></g>
<g><path style="opacity:1" fill="#3c3c3c" d="M 287.5,457.5 C 288.189,456.226 289.023,456.226 290,457.5C 291.534,461.711 291.867,466.044 291,470.5C 290.576,472.615 289.409,473.448 287.5,473C 288.998,470.583 289.665,467.917 289.5,465C 289.7,462.134 289.033,459.634 287.5,457.5 Z"/></g>
</svg>
