<?xml version="1.0" encoding="UTF-8"?>
<!DOCTYPE svg PUBLIC "-//W3C//DTD SVG 1.1//EN" "http://www.w3.org/Graphics/SVG/1.1/DTD/svg11.dtd">
<svg xmlns="http://www.w3.org/2000/svg" version="1.1" width="1000px" height="500px" style="shape-rendering:geometricPrecision; text-rendering:geometricPrecision; image-rendering:optimizeQuality; fill-rule:evenodd; clip-rule:evenodd" xmlns:xlink="http://www.w3.org/1999/xlink">
<g><path style="opacity:1" fill="#fefefe" d="M -0.5,-0.5 C 332.833,-0.5 666.167,-0.5 999.5,-0.5C 999.5,166.167 999.5,332.833 999.5,499.5C 666.167,499.5 332.833,499.5 -0.5,499.5C -0.5,332.833 -0.5,166.167 -0.5,-0.5 Z"/></g>
<g><path style="opacity:1" fill="#202020" d="M 344.5,82.5 C 345.822,82.33 346.989,82.6634 348,83.5C 347.773,85.5741 347.939,87.5741 348.5,89.5C 346.076,91.4742 343.409,92.6409 340.5,93C 343.933,90.4488 345.267,86.9488 344.5,82.5 Z"/></g>
<g><path style="opacity:1" fill="#202020" d="M 388.5,92.5 C 393.654,93.2678 394.654,95.7678 391.5,100C 386.917,100.934 385.417,99.1004 387,94.5C 387.717,93.9558 388.217,93.2891 388.5,92.5 Z"/></g>
<g><path style="opacity:1" fill="#292929" d="M 408.5,89.5 C 409.774,90.1894 409.774,91.0228 408.5,92C 406.167,93.1667 403.833,94.3333 401.5,95.5C 401.167,95.1667 400.833,94.8333 400.5,94.5C 403.231,92.8084 405.898,91.1417 408.5,89.5 Z"/></g>
<g><path style="opacity:1" fill="#dddddd" d="M 388.5,94.5 C 393.663,96.424 393.663,97.5906 388.5,98C 387.316,96.8545 387.316,95.6879 388.5,94.5 Z"/></g>
<g><path style="opacity:1" fill="#1d1d1d" d="M 427.5,97.5 C 429.153,106.629 429.653,115.963 429,125.5C 428.405,118.627 427.572,111.794 426.5,105C 426.555,102.413 426.889,99.913 427.5,97.5 Z"/></g>
<g><path style="opacity:1" fill="#1b1b1b" d="M 344.5,100.5 C 346.28,101.755 348.113,101.755 350,100.5C 353.058,101.324 353.224,102.658 350.5,104.5C 348.214,103.58 345.881,103.58 343.5,104.5C 343.433,103.041 343.766,101.708 344.5,100.5 Z"/></g>
<g><path style="opacity:1" fill="#292929" d="M 368.5,98.5 C 369.774,99.1894 369.774,100.023 368.5,101C 366.167,102.167 363.833,103.333 361.5,104.5C 361.167,104.167 360.833,103.833 360.5,103.5C 363.231,101.808 365.898,100.142 368.5,98.5 Z"/></g>
<g><path style="opacity:1" fill="#121212" d="M 406.5,102.5 C 409.861,103.203 410.194,104.537 407.5,106.5C 405.358,105.563 405.024,104.23 406.5,102.5 Z"/></g>
<g><path style="opacity:1" fill="#171717" d="M 418.5,95.5 C 419.88,95.9623 420.547,96.9623 420.5,98.5C 420.059,100.145 419.726,101.811 419.5,103.5C 421.776,110.133 421.942,116.8 420,123.5C 416.743,126.428 412.909,127.262 408.5,126C 407.271,125.219 405.938,124.719 404.5,124.5C 400.958,126.091 397.291,126.591 393.5,126C 392.874,125.25 392.374,124.416 392,123.5C 391.097,124.701 389.931,125.535 388.5,126C 384.5,126.667 380.5,126.667 376.5,126C 374.845,124.556 374.178,122.722 374.5,120.5C 372.473,120.338 370.473,120.505 368.5,121C 364.148,123.677 359.482,125.511 354.5,126.5C 351.107,126.11 349.274,124.11 349,120.5C 346.519,122.314 343.685,122.98 340.5,122.5C 341.18,118.298 343.347,114.964 347,112.5C 347.219,111.062 347.719,109.729 348.5,108.5C 349.608,112.816 350.608,117.149 351.5,121.5C 357.228,123.105 362.561,122.272 367.5,119C 363.916,117.927 360.25,117.26 356.5,117C 357.729,114.551 359.729,113.384 362.5,113.5C 368.546,116.181 374.879,117.847 381.5,118.5C 380.286,120.069 378.619,120.902 376.5,121C 376.833,121.333 377.167,121.667 377.5,122C 381.5,122.667 385.5,122.667 389.5,122C 390.646,121.355 391.646,120.522 392.5,119.5C 394.781,122.228 397.781,123.228 401.5,122.5C 401.627,117.573 403.794,113.906 408,111.5C 410.528,112.197 411.694,113.864 411.5,116.5C 411.563,118.481 410.896,120.148 409.5,121.5C 412.506,122.748 415.506,122.748 418.5,121.5C 418.702,112.773 418.702,104.106 418.5,95.5 Z"/></g>
<g><path style="opacity:1" fill="#191919" d="M 392.5,110.5 C 395.78,111.732 396.114,113.399 393.5,115.5C 392.522,115.023 391.689,114.357 391,113.5C 389.921,115.394 388.587,115.727 387,114.5C 386.786,111.686 387.953,111.02 390.5,112.5C 391.522,112.145 392.189,111.478 392.5,110.5 Z"/></g>
<g><path style="opacity:1" fill="#eaeaea" d="M 346.5,114.5 C 348.176,115.183 348.843,116.517 348.5,118.5C 346.801,118.66 345.134,118.494 343.5,118C 344.71,116.961 345.71,115.794 346.5,114.5 Z"/></g>
<g><path style="opacity:1" fill="#f0f0f0" d="M 405.5,115.5 C 410.218,116.319 410.552,117.986 406.5,120.5C 403.14,119.209 402.806,117.543 405.5,115.5 Z"/></g>
<g><path style="opacity:1" fill="#101010" d="M 432.5,116.5 C 436.577,116.735 440.577,117.402 444.5,118.5C 444.833,119 445.167,119.5 445.5,120C 444.711,121.626 443.711,123.126 442.5,124.5C 443,125.5 443.5,126.5 444,127.5C 482.5,175.167 521,222.833 559.5,270.5C 558.835,272.101 558.501,273.601 558.5,275C 521.833,307 485.167,339 448.5,371C 446.649,372.684 444.982,374.517 443.5,376.5C 445.086,378.173 445.753,380.173 445.5,382.5C 441.131,382.467 436.798,382.8 432.5,383.5C 432.626,379.077 433.293,374.744 434.5,370.5C 435,370.167 435.5,369.833 436,369.5C 437.626,370.289 439.126,371.289 440.5,372.5C 476.944,341.559 512.944,310.059 548.5,278C 513.814,287.837 479.147,298.004 444.5,308.5C 444.993,310.806 445.326,313.139 445.5,315.5C 441.042,315.07 436.876,313.736 433,311.5C 434.009,307.182 436.343,303.515 440,300.5C 442.026,301.52 443.359,303.187 444,305.5C 478.745,294.474 513.579,283.641 548.5,273C 513.559,266.508 478.559,260.342 443.5,254.5C 443.99,256.948 443.157,258.615 441,259.5C 438.006,256.672 435.173,253.672 432.5,250.5C 435.961,247.931 439.628,245.597 443.5,243.5C 444.72,243.887 445.387,244.72 445.5,246C 444.852,247.44 444.519,248.94 444.5,250.5C 479.122,256.881 513.789,262.715 548.5,268C 513.167,244.333 477.833,220.667 442.5,197C 440.78,197.71 439.113,198.877 437.5,200.5C 434.313,196.774 432.813,192.441 433,187.5C 437.079,186.371 441.245,186.204 445.5,187C 446.367,189.316 445.701,191.316 443.5,193C 477.68,216.232 512.013,238.899 546.5,261C 510.659,216.331 474.659,171.831 438.5,127.5C 436.677,128.747 434.677,129.414 432.5,129.5C 432.5,125.167 432.5,120.833 432.5,116.5 Z"/></g>
<g><path style="opacity:1" fill="#282828" d="M 401.5,146.5 C 403.842,146.775 403.842,147.608 401.5,149C 399.254,150.039 397.087,151.206 395,152.5C 394.383,151.551 394.549,150.718 395.5,150C 397.727,149.059 399.727,147.892 401.5,146.5 Z"/></g>
<g><path style="opacity:1" fill="#1b1b1b" d="M 399.5,152.5 C 400.5,152.5 401.5,152.5 402.5,152.5C 402.5,153.5 402.5,154.5 402.5,155.5C 397.55,156.138 397.883,156.971 403.5,158C 400.975,159.616 398.309,160.616 395.5,161C 395.715,157.947 397.048,155.113 399.5,152.5 Z"/></g>
<g><path style="opacity:1" fill="#191919" d="M 417.5,165.5 C 419.252,165.418 420.252,166.251 420.5,168C 419.206,177.475 418.039,186.975 417,196.5C 414.196,198.344 411.03,199.011 407.5,198.5C 407.5,197.167 407.5,195.833 407.5,194.5C 411.075,194.548 413.409,192.881 414.5,189.5C 410.888,181.723 405.388,175.723 398,171.5C 397.333,170.167 397.333,168.833 398,167.5C 398.718,166.549 399.551,166.383 400.5,167C 406.428,172.924 411.594,179.424 416,186.5C 417.384,179.589 417.884,172.589 417.5,165.5 Z"/></g>
<g><path style="opacity:1" fill="#101010" d="M 361.5,166.5 C 362.5,166.5 363.5,166.5 364.5,166.5C 364.292,168.92 364.626,171.253 365.5,173.5C 362.636,174.207 360.136,175.541 358,177.5C 357.5,177.333 357,177.167 356.5,177C 361.239,174.933 362.906,171.433 361.5,166.5 Z"/></g>
<g><path style="opacity:1" fill="#878787" d="M 361.5,168.5 C 363.337,168.639 363.67,169.306 362.5,170.5C 361.702,170.043 361.369,169.376 361.5,168.5 Z"/></g>
<g><path style="opacity:1" fill="#1d1d1d" d="M 427.5,169.5 C 429.153,178.629 429.653,187.963 429,197.5C 428.405,190.627 427.572,183.794 426.5,177C 426.555,174.413 426.889,171.913 427.5,169.5 Z"/></g>
<g><path style="opacity:1" fill="#252525" d="M 378.5,175.5 C 382.095,176.905 382.262,178.572 379,180.5C 375.98,179.178 375.813,177.511 378.5,175.5 Z"/></g>
<g><path style="opacity:1" fill="#181818" d="M 391.5,167.5 C 392.88,167.962 393.547,168.962 393.5,170.5C 393.059,172.145 392.726,173.811 392.5,175.5C 394.776,182.133 394.942,188.8 393,195.5C 392.167,196.333 391.333,197.167 390.5,198C 386.638,198.645 382.804,198.479 379,197.5C 372.324,199.894 365.49,201.56 358.5,202.5C 350.652,203.373 346.818,200.04 347,192.5C 347.419,191.328 348.085,190.328 349,189.5C 347.518,193.391 348.684,196.225 352.5,198C 359.743,198.981 366.743,198.147 373.5,195.5C 373.448,190.404 375.448,186.404 379.5,183.5C 383.754,186.345 384.421,189.845 381.5,194C 384.894,194.752 388.227,194.585 391.5,193.5C 391.702,184.773 391.702,176.106 391.5,167.5 Z"/></g>
<g><path style="opacity:1" fill="#e0e0e0" d="M 377.5,187.5 C 379.635,187.147 380.968,187.98 381.5,190C 380.381,191.876 378.714,192.709 376.5,192.5C 376.366,190.708 376.699,189.042 377.5,187.5 Z"/></g>
<g><path style="opacity:1" fill="#a8a8a8" d="M 414.5,192.5 C 415.376,192.369 416.043,192.702 416.5,193.5C 414.192,194.873 413.525,194.54 414.5,192.5 Z"/></g>
<g><path style="opacity:1" fill="#282828" d="M 394.5,202.5 C 395.774,203.189 395.774,204.023 394.5,205C 391.475,206.688 388.475,208.021 385.5,209C 388.402,206.583 391.402,204.416 394.5,202.5 Z"/></g>
<g><path style="opacity:1" fill="#202020" d="M 332.5,219.5 C 333.822,219.33 334.989,219.663 336,220.5C 335.773,222.574 335.939,224.574 336.5,226.5C 334.076,228.474 331.409,229.641 328.5,230C 331.933,227.449 333.267,223.949 332.5,219.5 Z"/></g>
<g><path style="opacity:1" fill="#181818" d="M 719.5,218.5 C 720.376,218.369 721.043,218.702 721.5,219.5C 720.687,220.814 719.687,221.981 718.5,223C 714.255,225.039 710.088,227.206 706,229.5C 705.289,227.633 705.789,226.133 707.5,225C 711.722,223.059 715.722,220.892 719.5,218.5 Z"/></g>
<g><path style="opacity:1" fill="#292929" d="M 395.5,221.5 C 396.774,222.189 396.774,223.023 395.5,224C 393.167,225.167 390.833,226.333 388.5,227.5C 388.167,227.167 387.833,226.833 387.5,226.5C 390.231,224.808 392.898,223.142 395.5,221.5 Z"/></g>
<g><path style="opacity:1" fill="#151515" d="M 720.5,227.5 C 721.777,228.694 722.444,230.36 722.5,232.5C 723.25,239.087 720.584,241.754 714.5,240.5C 712.877,244.058 710.21,245.224 706.5,244C 703.878,240.465 703.878,236.965 706.5,233.5C 707.466,235.396 707.799,237.396 707.5,239.5C 708.822,239.67 709.989,239.337 711,238.5C 712,235.833 713,233.167 714,230.5C 715.117,231.949 715.784,233.616 716,235.5C 716.718,236.451 717.551,236.617 718.5,236C 719.991,233.379 720.658,230.545 720.5,227.5 Z"/></g>
<g><path style="opacity:1" fill="#161616" d="M 368.5,232.5 C 373.668,233.339 374.668,235.839 371.5,240C 366.917,240.934 365.417,239.1 367,234.5C 367.717,233.956 368.217,233.289 368.5,232.5 Z"/></g>
<g><path style="opacity:1" fill="#1d1d1d" d="M 427.5,231.5 C 429.153,240.629 429.653,249.963 429,259.5C 428.405,252.627 427.572,245.794 426.5,239C 426.555,236.413 426.889,233.913 427.5,231.5 Z"/></g>
<g><path style="opacity:1" fill="#dcdcdc" d="M 368.5,234.5 C 373.663,236.424 373.663,237.591 368.5,238C 367.316,236.855 367.316,235.688 368.5,234.5 Z"/></g>
<g><path style="opacity:1" fill="#121212" d="M 670.5,231.5 C 677.555,231.25 680.055,234.583 678,241.5C 675.947,245.292 672.781,246.458 668.5,245C 665.409,239.799 666.075,235.299 670.5,231.5 Z"/></g>
<g><path style="opacity:1" fill="#e6e6e6" d="M 669.5,234.5 C 674.102,234.428 676.102,236.428 675.5,240.5C 669.487,242.454 667.487,240.454 669.5,234.5 Z"/></g>
<g><path style="opacity:1" fill="#121212" d="M 331.5,237.5 C 332.458,237.953 333.292,238.619 334,239.5C 335.612,236.921 337.112,236.921 338.5,239.5C 336.409,240.449 334.242,241.449 332,242.5C 330.212,240.977 330.045,239.31 331.5,237.5 Z"/></g>
<g><path style="opacity:1" fill="#242424" d="M 351.5,235.5 C 352.774,236.189 352.774,237.023 351.5,238C 348.942,239.626 346.275,240.626 343.5,241C 346.059,238.897 348.726,237.064 351.5,235.5 Z"/></g>
<g><path style="opacity:1" fill="#191919" d="M 400.5,251.5 C 400.062,250.494 399.396,250.494 398.5,251.5C 395.668,248.822 392.501,246.488 389,244.5C 386.955,241.281 387.455,238.448 390.5,236C 397.002,231.576 404.002,228.576 411.5,227C 410.833,228 410.167,229 409.5,230C 402.072,232.212 395.405,235.712 389.5,240.5C 396.898,245.056 403.898,250.223 410.5,256C 416.501,258.098 419.501,256.098 419.5,250C 418.997,244.813 418.33,239.647 417.5,234.5C 417.436,232.611 417.936,230.944 419,229.5C 420.576,231.976 420.743,234.642 419.5,237.5C 421.776,244.133 421.942,250.8 420,257.5C 417.441,260.349 414.274,261.183 410.5,260C 407.588,256.581 404.254,253.748 400.5,251.5 Z"/></g>
<g><path style="opacity:1" fill="#818181" d="M 400.5,251.5 C 400.768,253.099 400.434,254.432 399.5,255.5C 399.5,254.833 399.167,254.5 398.5,254.5C 398.5,253.5 398.5,252.5 398.5,251.5C 399.396,250.494 400.062,250.494 400.5,251.5 Z"/></g>
<g><path style="opacity:1" fill="#111111" d="M 333.5,245.5 C 339.405,248.187 340.905,252.52 338,258.5C 330.317,262.496 327.65,260.163 330,251.5C 330.926,249.308 332.093,247.308 333.5,245.5 Z"/></g>
<g><path style="opacity:1" fill="#ebebeb" d="M 331.5,251.5 C 335.029,250.889 336.862,252.223 337,255.5C 332.093,257.68 330.26,256.346 331.5,251.5 Z"/></g>
<g><path style="opacity:1" fill="#171717" d="M 398.5,254.5 C 399.167,254.5 399.5,254.833 399.5,255.5C 398.47,258.192 396.47,259.692 393.5,260C 390.167,260.667 386.833,260.667 383.5,260C 382.382,258.926 381.382,257.76 380.5,256.5C 378.25,259.949 375.584,260.282 372.5,257.5C 368.876,261.301 365.376,261.301 362,257.5C 360.005,259.747 357.505,260.747 354.5,260.5C 353.846,267.52 350.179,271.854 343.5,273.5C 341.701,273.423 340.034,272.923 338.5,272C 345.397,271.768 350.063,268.434 352.5,262C 351.833,260.667 351.167,259.333 350.5,258C 350.613,256.72 351.28,255.887 352.5,255.5C 356.539,257.283 360.039,256.616 363,253.5C 366.805,257.601 370.472,257.268 374,252.5C 376.061,256.438 378.227,256.438 380.5,252.5C 381.382,253.76 382.382,254.926 383.5,256C 387.833,256.667 392.167,256.667 396.5,256C 397.416,255.722 398.082,255.222 398.5,254.5 Z"/></g>
<g><path style="opacity:1" fill="#121212" d="M 714.5,262.5 C 720.75,264.418 721.083,267.085 715.5,270.5C 710.535,268.401 710.202,265.734 714.5,262.5 Z"/></g>
<g><path style="opacity:1" fill="#0d0d0d" d="M 753.5,234.5 C 756.068,235.574 757.735,237.574 758.5,240.5C 756.36,242.14 755.36,244.307 755.5,247C 758.159,257.354 758.992,267.854 758,278.5C 756.243,287.639 750.743,291.139 741.5,289C 738.457,286.407 736.29,283.24 735,279.5C 731.156,290.679 724.989,292.346 716.5,284.5C 714.549,286.622 712.215,288.122 709.5,289C 695.171,289.5 680.837,289.667 666.5,289.5C 666.435,291.696 665.768,293.696 664.5,295.5C 663.24,293.647 663.24,291.814 664.5,290C 659.223,290.281 655.39,288.114 653,283.5C 651.52,286.663 649.02,288.496 645.5,289C 640.126,290.392 635.459,289.225 631.5,285.5C 617.747,292.848 603.08,295.348 587.5,293C 577.25,291.01 573.083,284.843 575,274.5C 579.158,266.501 579.991,266.668 577.5,275C 577.542,276.967 578.042,278.801 579,280.5C 582.137,282.986 585.637,284.819 589.5,286C 602.827,287.571 615.827,286.238 628.5,282C 630,281.167 631.167,280 632,278.5C 632.956,279.579 633.789,280.745 634.5,282C 639.167,282.667 643.833,282.667 648.5,282C 650.96,280.542 653.127,278.709 655,276.5C 657.103,282.469 661.27,284.636 667.5,283C 672.978,275.186 679.978,269.186 688.5,265C 695.089,262.789 699.089,264.956 700.5,271.5C 699.933,277.234 696.933,281.068 691.5,283C 698.528,283.498 705.528,283.165 712.5,282C 714.96,280.542 717.127,278.709 719,276.5C 719.45,278.519 720.283,280.352 721.5,282C 724.5,282.667 727.5,282.667 730.5,282C 732.049,280.786 733.215,279.286 734,277.5C 734.595,266.95 734.095,256.45 732.5,246C 732.667,243.167 732.833,240.333 733,237.5C 733.414,237.043 733.914,236.709 734.5,236.5C 735.579,250.945 737.412,265.279 740,279.5C 740.374,280.416 740.874,281.25 741.5,282C 747.076,283.472 751.909,282.305 756,278.5C 755.325,265.941 753.825,253.441 751.5,241C 751.482,238.59 752.149,236.423 753.5,234.5 Z"/></g>
<g><path style="opacity:1" fill="#f1f1f1" d="M 684.5,271.5 C 689.05,270.884 693.05,272.051 696.5,275C 689.025,280.286 680.692,282.62 671.5,282C 672.453,280.045 673.787,278.378 675.5,277C 678.564,275.141 681.564,273.308 684.5,271.5 Z"/></g>
<g><path style="opacity:1" fill="#101010" d="M 380.5,291.5 C 381.5,291.5 382.5,291.5 383.5,291.5C 383.292,293.92 383.626,296.253 384.5,298.5C 381.636,299.207 379.136,300.541 377,302.5C 376.5,302.333 376,302.167 375.5,302C 380.239,299.933 381.906,296.433 380.5,291.5 Z"/></g>
<g><path style="opacity:1" fill="#878787" d="M 380.5,293.5 C 382.337,293.639 382.67,294.306 381.5,295.5C 380.702,295.043 380.369,294.376 380.5,293.5 Z"/></g>
<g><path style="opacity:1" fill="#1d1d1d" d="M 427.5,291.5 C 429.153,300.629 429.653,309.963 429,319.5C 428.405,312.627 427.572,305.794 426.5,299C 426.555,296.413 426.889,293.913 427.5,291.5 Z"/></g>
<g><path style="opacity:1" fill="#0f0f0f" d="M 599.5,299.5 C 605.678,300.896 606.178,303.562 601,307.5C 599.229,306.696 597.729,305.529 596.5,304C 597.386,302.385 598.386,300.885 599.5,299.5 Z"/></g>
<g><path style="opacity:1" fill="#171717" d="M 758.5,297.5 C 759.376,297.369 760.043,297.702 760.5,298.5C 759.687,299.814 758.687,300.981 757.5,302C 753,304.5 748.5,307 744,309.5C 743.289,307.633 743.789,306.133 745.5,305C 750.223,302.978 754.557,300.478 758.5,297.5 Z"/></g>
<g><path style="opacity:1" fill="#171717" d="M 418.5,289.5 C 419.88,289.962 420.547,290.962 420.5,292.5C 420.059,294.145 419.726,295.811 419.5,297.5C 421.776,304.133 421.942,310.8 420,317.5C 416.333,321.5 412.667,321.5 409,317.5C 404.436,321.843 400.436,321.509 397,316.5C 396.286,309.308 395.452,302.141 394.5,295C 394.862,293.775 395.362,292.609 396,291.5C 397.299,299.452 398.299,307.452 399,315.5C 403.163,317.274 406.83,316.607 410,313.5C 412.231,316.518 415.064,317.185 418.5,315.5C 419.559,308.465 419.225,301.465 417.5,294.5C 417.592,292.742 417.925,291.076 418.5,289.5 Z"/></g>
<g><path style="opacity:1" fill="#282828" d="M 411.5,296.5 C 413.842,296.775 413.842,297.608 411.5,299C 408.942,300.626 406.275,301.626 403.5,302C 406.07,299.913 408.737,298.08 411.5,296.5 Z"/></g>
<g><path style="opacity:1" fill="#181818" d="M 381.5,308.5 C 386.197,308.007 387.363,309.674 385,313.5C 382.486,310.823 380.653,311.323 379.5,315C 379.833,315.5 380.167,316 380.5,316.5C 383.503,317.085 386.503,317.752 389.5,318.5C 385.732,321.404 381.732,323.071 377.5,323.5C 378.833,322.5 380.167,321.5 381.5,320.5C 378.932,320.048 377.599,318.548 377.5,316C 377.927,312.977 379.261,310.477 381.5,308.5 Z"/></g>
<g><path style="opacity:1" fill="#181818" d="M 607.5,315.5 C 608.799,317.153 608.466,318.653 606.5,320C 602.167,322.167 597.833,324.333 593.5,326.5C 592.718,324.671 593.384,323.171 595.5,322C 599.722,320.059 603.722,317.892 607.5,315.5 Z"/></g>
<g><path style="opacity:1" fill="#1d1d1d" d="M 409.5,323.5 C 412.709,324.297 413.209,325.963 411,328.5C 409.437,325.956 407.937,325.956 406.5,328.5C 402.793,327.687 402.627,326.354 406,324.5C 407.922,326.105 409.089,325.772 409.5,323.5 Z"/></g>
<g><path style="opacity:1" fill="#202020" d="M 389.5,347.5 C 394.654,348.268 395.654,350.768 392.5,355C 387.917,355.934 386.417,354.1 388,349.5C 388.717,348.956 389.217,348.289 389.5,347.5 Z"/></g>
<g><path style="opacity:1" fill="#1d1d1d" d="M 299.5,347.5 C 301.252,347.418 302.252,348.251 302.5,350C 301.804,352.118 301.637,354.284 302,356.5C 300.129,355.332 298.629,355.832 297.5,358C 296.5,358.667 295.5,358.667 294.5,358C 298.112,356.92 299.112,354.753 297.5,351.5C 297.752,349.927 298.418,348.594 299.5,347.5 Z"/></g>
<g><path style="opacity:1" fill="#dddddd" d="M 389.5,349.5 C 394.663,351.424 394.663,352.591 389.5,353C 388.316,351.855 388.316,350.688 389.5,349.5 Z"/></g>
<g><path style="opacity:1" fill="#191919" d="M 356.5,354.5 C 357.5,354.5 358.5,354.5 359.5,354.5C 359.5,357.167 359.5,359.833 359.5,362.5C 356.865,363.683 354.198,364.516 351.5,365C 355.236,363.784 356.236,361.451 354.5,358C 354.978,356.697 355.645,355.531 356.5,354.5 Z"/></g>
<g><path style="opacity:1" fill="#181818" d="M 302.5,358.5 C 303.754,360.357 303.754,362.357 302.5,364.5C 299.827,365.759 297.161,366.592 294.5,367C 293.424,365.274 293.257,363.441 294,361.5C 294.249,362.624 294.749,363.624 295.5,364.5C 296.852,363.482 297.852,362.149 298.5,360.5C 301.147,363.18 302.48,362.513 302.5,358.5 Z"/></g>
<g><path style="opacity:1" fill="#272727" d="M 393.5,362.5 C 397.905,362.7 398.405,364.033 395,366.5C 392.256,365.939 391.756,364.606 393.5,362.5 Z"/></g>
<g><path style="opacity:1" fill="#1e1e1e" d="M 371.5,363.5 C 372.5,363.5 373.5,363.5 374.5,363.5C 374.426,367.541 373.093,368.208 370.5,365.5C 370.863,364.817 371.196,364.15 371.5,363.5 Z"/></g>
<g><path style="opacity:1" fill="#202020" d="M 283.5,364.5 C 288.654,365.268 289.654,367.768 286.5,372C 281.917,372.934 280.417,371.1 282,366.5C 282.717,365.956 283.217,365.289 283.5,364.5 Z"/></g>
<g><path style="opacity:1" fill="#1d1d1d" d="M 318.5,363.5 C 320.153,372.629 320.653,381.963 320,391.5C 319.405,384.627 318.572,377.794 317.5,371C 317.555,368.413 317.889,365.913 318.5,363.5 Z"/></g>
<g><path style="opacity:1" fill="#dddddd" d="M 283.5,366.5 C 288.663,368.424 288.663,369.591 283.5,370C 282.316,368.855 282.316,367.688 283.5,366.5 Z"/></g>
<g><path style="opacity:1" fill="#292929" d="M 417.5,364.5 C 418.774,365.189 418.774,366.023 417.5,367C 415.167,368.167 412.833,369.333 410.5,370.5C 410.167,370.167 409.833,369.833 409.5,369.5C 412.231,367.808 414.898,366.142 417.5,364.5 Z"/></g>
<g><path style="opacity:1" fill="#131313" d="M 395.5,370.5 C 396.896,376.309 398.563,382.143 400.5,388C 405.824,389.02 410.824,388.187 415.5,385.5C 412.442,383.859 409.108,383.026 405.5,383C 406.907,380.748 408.907,379.582 411.5,379.5C 414.92,380.374 418.253,381.541 421.5,383C 424.146,383.497 426.813,383.664 429.5,383.5C 429.5,384.5 429.5,385.5 429.5,386.5C 425.486,386.334 421.486,386.501 417.5,387C 412.368,390.713 406.701,392.38 400.5,392C 398.513,390.681 397.346,388.848 397,386.5C 394.013,391.152 389.846,392.652 384.5,391C 383.253,389.506 383.253,388.006 384.5,386.5C 388.564,389.297 392.398,388.964 396,385.5C 396.319,381.761 395.819,378.094 394.5,374.5C 394.846,373.151 395.179,371.817 395.5,370.5 Z"/></g>
<g><path style="opacity:1" fill="#181818" d="M 263.5,374.5 C 267.095,375.905 267.262,377.572 264,379.5C 262.212,377.977 262.045,376.31 263.5,374.5 Z"/></g>
<g><path style="opacity:1" fill="#202020" d="M 298.5,377.5 C 299.995,377.415 300.995,378.081 301.5,379.5C 300.68,381.111 299.346,381.778 297.5,381.5C 297.433,380.041 297.766,378.708 298.5,377.5 Z"/></g>
<g><path style="opacity:1" fill="#161616" d="M 372.5,371.5 C 375.292,371.452 377.125,372.785 378,375.5C 379.151,379.829 378.318,383.662 375.5,387C 366.286,391.388 356.619,393.055 346.5,392C 341.311,389.087 340.144,384.92 343,379.5C 341.425,383.437 342.591,386.271 346.5,388C 357.101,389.791 367.101,388.124 376.5,383C 377.731,381.817 377.731,380.651 376.5,379.5C 371.242,382.987 369.075,381.653 370,375.5C 370.662,374.016 371.496,372.683 372.5,371.5 Z"/></g>
<g><path style="opacity:1" fill="#dcdcdc" d="M 371.5,375.5 C 372.675,375.281 373.675,375.614 374.5,376.5C 372.948,377.798 371.948,377.465 371.5,375.5 Z"/></g>
<g><path style="opacity:1" fill="#151515" d="M 308.5,361.5 C 310.121,361.787 311.121,362.787 311.5,364.5C 311.624,373.212 311.124,381.879 310,390.5C 306.304,393.425 302.971,393.092 300,389.5C 297.695,391.93 294.862,392.93 291.5,392.5C 290.824,396.187 289.324,399.52 287,402.5C 283.205,405.803 279.038,406.303 274.5,404C 282.58,404.078 287.58,400.244 289.5,392.5C 284.786,392.799 283.12,390.799 284.5,386.5C 288.369,380.923 290.702,381.589 291.5,388.5C 295.287,389.186 298.454,388.186 301,385.5C 303.528,389.085 306.528,389.418 310,386.5C 309.459,378.197 308.959,369.864 308.5,361.5 Z"/></g>
<g><path style="opacity:1" fill="#e2e2e2" d="M 286.5,386.5 C 287.675,386.281 288.675,386.614 289.5,387.5C 287.948,388.798 286.948,388.465 286.5,386.5 Z"/></g>
<g><path style="opacity:1" fill="#1c1c1c" d="M 270.5,378.5 C 274.519,383.644 275.352,389.311 273,395.5C 269.255,400.155 264.422,401.655 258.5,400C 254.59,397.104 253.757,393.604 256,389.5C 257.556,396.172 261.722,398.339 268.5,396C 272.292,393.947 273.458,390.781 272,386.5C 269.884,384.004 269.384,381.337 270.5,378.5 Z"/></g>
<g><path style="opacity:1" fill="#282828" d="M 268.5,404.5 C 269.774,405.189 269.774,406.023 268.5,407C 265.475,408.688 262.475,410.021 259.5,411C 262.402,408.583 265.402,406.416 268.5,404.5 Z"/></g>
</svg>
