<?xml version="1.0" encoding="UTF-8"?>
<!DOCTYPE svg PUBLIC "-//W3C//DTD SVG 1.1//EN" "http://www.w3.org/Graphics/SVG/1.1/DTD/svg11.dtd">
<svg xmlns="http://www.w3.org/2000/svg" version="1.1" width="1000px" height="500px" style="shape-rendering:geometricPrecision; text-rendering:geometricPrecision; image-rendering:optimizeQuality; fill-rule:evenodd; clip-rule:evenodd" xmlns:xlink="http://www.w3.org/1999/xlink">
<g><path style="opacity:1" fill="#fefefe" d="M -0.5,-0.5 C 332.833,-0.5 666.167,-0.5 999.5,-0.5C 999.5,166.167 999.5,332.833 999.5,499.5C 666.167,499.5 332.833,499.5 -0.5,499.5C -0.5,332.833 -0.5,166.167 -0.5,-0.5 Z"/></g>
<g><path style="opacity:1" fill="#181818" d="M 706.5,173.5 C 708.807,174.405 708.807,175.738 706.5,177.5C 702.626,179.868 698.626,182.034 694.5,184C 691.029,184.687 690.695,183.687 693.5,181C 698.223,178.978 702.557,176.478 706.5,173.5 Z"/></g>
<g><path style="opacity:1" fill="#181818" d="M 700.5,185.5 C 704.138,184.737 705.638,186.07 705,189.5C 702.527,190.12 700.027,190.786 697.5,191.5C 700.193,194.476 703.36,195.143 707,193.5C 707.667,194.5 707.667,195.5 707,196.5C 702.81,198.064 698.644,199.731 694.5,201.5C 693.718,199.671 694.384,198.171 696.5,197C 694.675,195.534 694.175,193.701 695,191.5C 696.36,188.977 698.193,186.977 700.5,185.5 Z"/></g>
<g><path style="opacity:1" fill="#101010" d="M 733.5,207.5 C 738.114,210.16 738.948,213.493 736,217.5C 735.532,228.806 734.032,239.973 731.5,251C 732.406,255.147 732.573,259.314 732,263.5C 731.5,265.333 730.333,266.5 728.5,267C 723.511,267.499 718.511,267.666 713.5,267.5C 713.338,265.473 713.505,263.473 714,261.5C 720.178,260.989 724.345,257.822 726.5,252C 721.837,241.851 715.337,233.017 707,225.5C 705.951,226.517 704.784,226.684 703.5,226C 697.237,221.739 696.07,216.573 700,210.5C 711.88,221.053 721.547,233.386 729,247.5C 730.466,243.971 731.466,240.305 732,236.5C 732.217,226.787 732.717,217.12 733.5,207.5 Z"/></g>
<g><path style="opacity:1" fill="#141414" d="M 633.5,210.5 C 639.78,211.254 641.113,214.421 637.5,220C 641.719,224.466 640.719,226.133 634.5,225C 632.833,226.667 631.167,228.333 629.5,230C 627.5,230.667 625.5,230.667 623.5,230C 626.783,228.439 629.617,226.273 632,223.5C 631.421,221.658 630.921,219.658 630.5,217.5C 631.025,214.971 632.025,212.638 633.5,210.5 Z"/></g>
<g><path style="opacity:1" fill="#242424" d="M 465.5,206.5 C 466.774,207.189 466.774,208.023 465.5,209C 462.942,210.626 460.275,211.626 457.5,212C 460.059,209.897 462.726,208.064 465.5,206.5 Z"/></g>
<g><path style="opacity:1" fill="#bbbbbb" d="M 633.5,214.5 C 636.275,214.834 636.941,216.167 635.5,218.5C 633.889,217.68 633.222,216.346 633.5,214.5 Z"/></g>
<g><path style="opacity:1" fill="#1a1a1a" d="M 461.5,213.5 C 462.5,213.5 463.5,213.5 464.5,213.5C 464.5,214.5 464.5,215.5 464.5,216.5C 459.55,217.138 459.883,217.971 465.5,219C 463.532,220.544 461.365,221.711 459,222.5C 459.522,220.951 459.355,219.451 458.5,218C 459.315,216.357 460.315,214.857 461.5,213.5 Z"/></g>
<g><path style="opacity:1" fill="#1c1c1c" d="M 749.5,216.5 C 750.8,218.223 751.467,220.39 751.5,223C 752.555,233.661 753.555,244.328 754.5,255C 754.255,259.306 753.422,263.473 752,267.5C 750.799,253.955 749.299,240.455 747.5,227C 747.481,223.348 748.148,219.848 749.5,216.5 Z"/></g>
<g><path style="opacity:1" fill="#282828" d="M 333.5,225.5 C 335.842,225.775 335.842,226.608 333.5,228C 330.942,229.626 328.275,230.626 325.5,231C 328.07,228.913 330.737,227.08 333.5,225.5 Z"/></g>
<g><path style="opacity:1" fill="#191919" d="M 481.5,239.5 C 480.833,237.5 480.167,235.5 479.5,233.5C 479.125,230.603 479.625,227.937 481,225.5C 481.465,226.931 482.299,228.097 483.5,229C 483,229.5 482.5,230 482,230.5C 481.502,233.482 481.335,236.482 481.5,239.5 Z"/></g>
<g><path style="opacity:1" fill="#141414" d="M 662.5,227.5 C 668.271,228.819 668.938,231.485 664.5,235.5C 662.483,234.826 660.817,233.659 659.5,232C 660.386,230.385 661.386,228.885 662.5,227.5 Z"/></g>
<g><path style="opacity:1" fill="#161616" d="M 479.5,241.5 C 480.338,241.842 480.672,242.508 480.5,243.5C 479.278,247.165 479.278,250.831 480.5,254.5C 480.281,255.938 479.781,257.271 479,258.5C 475.943,259.451 472.777,259.784 469.5,259.5C 469.5,258.167 469.5,256.833 469.5,255.5C 473.002,255.833 475.336,254.333 476.5,251C 473.742,245.907 470.575,241.073 467,236.5C 461.526,236.134 459.693,233.134 461.5,227.5C 468.183,233.206 473.683,239.873 478,247.5C 478.813,245.564 479.313,243.564 479.5,241.5 Z"/></g>
<g><path style="opacity:1" fill="#202020" d="M 302.5,229.5 C 307.654,230.268 308.654,232.768 305.5,237C 300.917,237.934 299.417,236.1 301,231.5C 301.717,230.956 302.217,230.289 302.5,229.5 Z"/></g>
<g><path style="opacity:1" fill="#dddddd" d="M 302.5,231.5 C 307.663,233.424 307.663,234.591 302.5,235C 301.316,233.855 301.316,232.688 302.5,231.5 Z"/></g>
<g><path style="opacity:1" fill="#1d1d1d" d="M 364.5,256.5 C 363.833,254.5 363.167,252.5 362.5,250.5C 361.513,244.195 361.347,237.862 362,231.5C 363.968,239.715 364.801,248.049 364.5,256.5 Z"/></g>
<g><path style="opacity:1" fill="#1b1b1b" d="M 254.5,233.5 C 256.28,234.755 258.113,234.755 260,233.5C 263.058,234.324 263.224,235.658 260.5,237.5C 258.214,236.58 255.881,236.58 253.5,237.5C 253.433,236.041 253.766,234.708 254.5,233.5 Z"/></g>
<g><path style="opacity:1" fill="#6a6a6a" d="M 479.5,233.5 C 480.167,235.5 480.833,237.5 481.5,239.5C 481.768,241.099 481.434,242.432 480.5,243.5C 480.672,242.508 480.338,241.842 479.5,241.5C 479.5,238.833 479.5,236.167 479.5,233.5 Z"/></g>
<g><path style="opacity:1" fill="#2d2d2d" d="M 489.5,230.5 C 492.22,239.97 492.72,249.637 491,259.5C 489.246,249.836 488.746,240.169 489.5,230.5 Z"/></g>
<g><path style="opacity:1" fill="#1a1a1a" d="M 421.5,232.5 C 423.842,232.775 423.842,233.608 421.5,235C 419.336,235.914 417.336,237.081 415.5,238.5C 415.167,238.167 414.833,237.833 414.5,237.5C 417.077,236.057 419.41,234.39 421.5,232.5 Z"/></g>
<g><path style="opacity:1" fill="#1e1e1e" d="M 442.5,233.5 C 444.198,230.876 446.031,230.876 448,233.5C 448.833,238 447,239.833 442.5,239C 441.193,237.057 441.193,235.223 442.5,233.5 Z"/></g>
<g><path style="opacity:1" fill="#dddddd" d="M 442.5,233.5 C 445.5,233.167 446.833,234.5 446.5,237.5C 443.5,237.833 442.167,236.5 442.5,233.5 Z"/></g>
<g><path style="opacity:1" fill="#252525" d="M 332.5,238.5 C 335.173,238.684 335.84,239.851 334.5,242C 330.447,242.468 329.78,241.302 332.5,238.5 Z"/></g>
<g><path style="opacity:1" fill="#292929" d="M 282.5,235.5 C 283.774,236.189 283.774,237.023 282.5,238C 280.167,239.167 277.833,240.333 275.5,241.5C 275.167,241.167 274.833,240.833 274.5,240.5C 277.231,238.808 279.898,237.142 282.5,235.5 Z"/></g>
<g><path style="opacity:1" fill="#111111" d="M 685.5,212.5 C 687.943,213.499 689.609,215.332 690.5,218C 688.814,220.208 687.814,222.708 687.5,225.5C 688.964,232.818 690.297,240.151 691.5,247.5C 691.033,267.137 681.7,272.803 663.5,264.5C 649.822,272.339 635.155,275.506 619.5,274C 610.473,272.648 606.306,267.481 607,258.5C 608.247,255.671 609.747,253.005 611.5,250.5C 611.833,250.833 612.167,251.167 612.5,251.5C 607.663,257.981 608.996,262.815 616.5,266C 630.454,269.109 643.787,267.443 656.5,261C 655.39,258.263 655.223,255.429 656,252.5C 657.57,247.331 660.57,243.331 665,240.5C 667.943,242.355 669.943,245.021 671,248.5C 671.465,252.611 670.965,256.611 669.5,260.5C 674.511,260.666 679.511,260.499 684.5,260C 688.328,256.736 689.495,252.569 688,247.5C 686.54,238.322 685.04,229.156 683.5,220C 683.739,217.365 684.406,214.865 685.5,212.5 Z"/></g>
<g><path style="opacity:1" fill="#030303" d="M 503.5,241.5 C 504.5,241.5 505.5,241.5 506.5,241.5C 506.5,243.5 506.5,245.5 506.5,247.5C 534.167,247.5 561.833,247.5 589.5,247.5C 589.5,248.833 589.5,250.167 589.5,251.5C 561.833,251.5 534.167,251.5 506.5,251.5C 506.5,253.5 506.5,255.5 506.5,257.5C 501.726,256.07 497.726,253.403 494.5,249.5C 497.52,246.811 500.52,244.144 503.5,241.5 Z"/></g>
<g><path style="opacity:1" fill="#efefef" d="M 663.5,247.5 C 670.179,251.074 670.012,254.407 663,257.5C 661.04,256.708 659.54,255.375 658.5,253.5C 659.843,251.163 661.51,249.163 663.5,247.5 Z"/></g>
<g><path style="opacity:1" fill="#151515" d="M 352.5,228.5 C 356.128,230.29 356.461,232.623 353.5,235.5C 355.747,242.841 355.914,250.174 354,257.5C 349.391,259.51 344.558,260.01 339.5,259C 337.845,257.556 337.178,255.722 337.5,253.5C 335.473,253.338 333.473,253.505 331.5,254C 327.148,256.677 322.482,258.511 317.5,259.5C 315.311,259.406 313.311,258.739 311.5,257.5C 310.719,258.737 309.719,259.737 308.5,260.5C 306.167,259.167 303.833,257.833 301.5,256.5C 296.984,260.825 292.984,260.492 289.5,255.5C 287.25,258.949 284.584,259.282 281.5,256.5C 277.876,260.301 274.376,260.301 271,256.5C 265.295,261.337 261.295,260.337 259,253.5C 256.519,255.314 253.685,255.98 250.5,255.5C 251.18,251.298 253.347,247.964 257,245.5C 257.219,244.062 257.719,242.729 258.5,241.5C 259.655,245.427 260.488,249.427 261,253.5C 264.905,256.305 268.572,255.971 272,252.5C 275.805,256.601 279.472,256.268 283,251.5C 285.061,255.438 287.227,255.438 289.5,251.5C 291.829,255.252 295.163,256.418 299.5,255C 301.385,252.778 303.551,250.944 306,249.5C 313.428,256.56 321.595,257.393 330.5,252C 326.916,250.927 323.25,250.26 319.5,250C 320.729,247.551 322.729,246.384 325.5,246.5C 331.546,249.181 337.879,250.847 344.5,251.5C 343.286,253.069 341.619,253.902 339.5,254C 339.833,254.333 340.167,254.667 340.5,255C 344.5,255.667 348.5,255.667 352.5,255C 353.98,253.701 354.646,252.034 354.5,250C 353.715,244.292 352.715,238.625 351.5,233C 351.605,231.408 351.939,229.908 352.5,228.5 Z"/></g>
<g><path style="opacity:1" fill="#eaeaea" d="M 256.5,247.5 C 258.176,248.183 258.843,249.517 258.5,251.5C 256.801,251.66 255.134,251.494 253.5,251C 254.71,249.961 255.71,248.794 256.5,247.5 Z"/></g>
<g><path style="opacity:1" fill="#161616" d="M 402.5,230.5 C 403.802,238.575 405.135,246.742 406.5,255C 408.833,255.667 411.167,255.667 413.5,255C 415.996,253.446 418.163,251.613 420,249.5C 422.489,251.319 424.989,253.152 427.5,255C 431.909,256.262 435.743,255.428 439,252.5C 442.999,256.769 446.332,256.103 449,250.5C 453.078,254.76 454.911,254.093 454.5,248.5C 455.647,250.765 455.814,253.098 455,255.5C 452.88,258.08 450.713,258.08 448.5,255.5C 446.747,257.261 444.747,258.594 442.5,259.5C 440.617,259.124 439.117,258.124 438,256.5C 434.13,260.059 429.963,260.392 425.5,257.5C 424.719,258.737 423.719,259.737 422.5,260.5C 420.191,259.349 418.024,258.016 416,256.5C 412.931,259.096 409.431,259.929 405.5,259C 402.366,249.702 401.366,240.202 402.5,230.5 Z"/></g>
<g><path style="opacity:1" fill="#dfdfdf" d="M 305.5,251.5 C 307.377,252.659 307.877,254.326 307,256.5C 305.926,255.382 304.76,254.382 303.5,253.5C 304.243,252.818 304.909,252.151 305.5,251.5 Z"/></g>
<g><path style="opacity:1" fill="#161616" d="M 388.5,247.5 C 389.833,247.5 391.167,247.5 392.5,247.5C 392.66,249.199 392.494,250.866 392,252.5C 389.426,249.741 387.26,250.074 385.5,253.5C 385.977,254.478 386.643,255.311 387.5,256C 390.766,256.334 393.766,256.501 396.5,256.5C 392.643,259.762 388.31,261.928 383.5,263C 384.685,261.647 386.019,260.48 387.5,259.5C 384.003,258.827 382.837,256.827 384,253.5C 385.332,251.34 386.832,249.34 388.5,247.5 Z"/></g>
<g><path style="opacity:1" fill="#f7f7f7" d="M 419.5,251.5 C 421.476,252.427 421.809,253.76 420.5,255.5C 418.358,254.563 418.024,253.23 419.5,251.5 Z"/></g>
<g><path style="opacity:1" fill="#cdcdcd" d="M 476.5,253.5 C 478.337,253.639 478.67,254.306 477.5,255.5C 476.702,255.043 476.369,254.376 476.5,253.5 Z"/></g>
<g><path style="opacity:1" fill="#7c7c7c" d="M 362.5,250.5 C 363.167,252.5 363.833,254.5 364.5,256.5C 364.539,257.756 364.039,258.756 363,259.5C 362.502,256.518 362.335,253.518 362.5,250.5 Z"/></g>
<g><path style="opacity:1" fill="#e2e2e2" d="M 727.5,256.5 C 729.176,257.183 729.843,258.517 729.5,260.5C 728.127,260.657 726.793,260.49 725.5,260C 726.305,258.887 726.972,257.721 727.5,256.5 Z"/></g>
<g><path style="opacity:1" fill="#232323" d="M 257.5,265.5 C 259.842,265.775 259.842,266.608 257.5,268C 255.254,269.039 253.087,270.206 251,271.5C 250.383,270.551 250.549,269.718 251.5,269C 253.727,268.059 255.727,266.892 257.5,265.5 Z"/></g>
<g><path style="opacity:1" fill="#232323" d="M 391.5,265.5 C 393.842,265.775 393.842,266.608 391.5,268C 389.254,269.039 387.087,270.206 385,271.5C 384.383,270.551 384.549,269.718 385.5,269C 387.727,268.059 389.727,266.892 391.5,265.5 Z"/></g>
<g><path style="opacity:1" fill="#191919" d="M 691.5,274.5 C 692.522,275.892 692.189,277.225 690.5,278.5C 686.326,281.088 681.993,283.421 677.5,285.5C 676.269,284.349 676.269,283.183 677.5,282C 682.387,279.726 687.054,277.226 691.5,274.5 Z"/></g>
</svg>
