<?xml version="1.0" encoding="UTF-8"?>
<!DOCTYPE svg PUBLIC "-//W3C//DTD SVG 1.1//EN" "http://www.w3.org/Graphics/SVG/1.1/DTD/svg11.dtd">
<svg xmlns="http://www.w3.org/2000/svg" version="1.1" width="1000px" height="500px" style="shape-rendering:geometricPrecision; text-rendering:geometricPrecision; image-rendering:optimizeQuality; fill-rule:evenodd; clip-rule:evenodd" xmlns:xlink="http://www.w3.org/1999/xlink">
<g><path style="opacity:1" fill="#fefefe" d="M -0.5,-0.5 C 332.833,-0.5 666.167,-0.5 999.5,-0.5C 999.5,166.167 999.5,332.833 999.5,499.5C 666.167,499.5 332.833,499.5 -0.5,499.5C -0.5,332.833 -0.5,166.167 -0.5,-0.5 Z"/></g>
<g><path style="opacity:1" fill="#121212" d="M 620.5,195.5 C 622.144,195.286 623.644,195.62 625,196.5C 625.684,199.38 625.517,202.213 624.5,205C 626.828,207.099 626.994,209.265 625,211.5C 624,210.833 623,210.167 622,209.5C 619.315,213.927 615.482,215.76 610.5,215C 613.423,212.955 616.257,210.788 619,208.5C 618.537,206.474 617.704,204.474 616.5,202.5C 617.576,200.014 618.909,197.681 620.5,195.5 Z"/></g>
<g><path style="opacity:1" fill="#151515" d="M 731.5,198.5 C 732.799,200.153 732.466,201.653 730.5,203C 726.167,205.167 721.833,207.333 717.5,209.5C 717.167,209.167 716.833,208.833 716.5,208.5C 721.013,204.412 726.013,201.079 731.5,198.5 Z"/></g>
<g><path style="opacity:1" fill="#dfdfdf" d="M 619.5,199.5 C 622.076,199.722 622.91,201.055 622,203.5C 620.519,202.529 619.685,201.196 619.5,199.5 Z"/></g>
<g><path style="opacity:1" fill="#0f0f0f" d="M 682.5,218.5 C 689.825,217.992 692.658,221.326 691,228.5C 688.839,232.124 685.672,233.291 681.5,232C 678.729,227.318 679.062,222.818 682.5,218.5 Z"/></g>
<g><path style="opacity:1" fill="#131313" d="M 787.5,216.5 C 790.08,231.595 791.247,246.928 791,262.5C 790.784,264.384 790.117,266.051 789,267.5C 788.937,265.04 789.104,262.54 789.5,260C 787.706,248.731 786.373,237.397 785.5,226C 785.331,222.599 785.998,219.432 787.5,216.5 Z"/></g>
<g><path style="opacity:1" fill="#2f2f2f" d="M 368.5,215.5 C 369.239,215.369 369.906,215.536 370.5,216C 367.767,218.784 364.601,220.951 361,222.5C 360.383,221.551 360.549,220.718 361.5,220C 364.239,218.974 366.572,217.474 368.5,215.5 Z"/></g>
<g><path style="opacity:1" fill="#151515" d="M 369.5,221.5 C 370.622,223.288 370.789,225.288 370,227.5C 367.528,228.2 365.195,229.2 363,230.5C 360.681,229.591 360.014,227.925 361,225.5C 361.71,226.973 362.876,227.64 364.5,227.5C 364.312,225.897 364.812,224.563 366,223.5C 368.351,226.043 369.517,225.377 369.5,221.5 Z"/></g>
<g><path style="opacity:1" fill="#e0e0e0" d="M 682.5,221.5 C 685.683,221.929 688.016,223.596 689.5,226.5C 685.8,229.525 682.8,229.025 680.5,225C 680.978,223.697 681.645,222.531 682.5,221.5 Z"/></g>
<g><path style="opacity:1" fill="#191919" d="M 653.5,223.5 C 654.239,223.369 654.906,223.536 655.5,224C 654.743,225.512 653.743,226.846 652.5,228C 648,230.5 643.5,233 639,235.5C 638.289,233.633 638.789,232.133 640.5,231C 645.223,228.978 649.557,226.478 653.5,223.5 Z"/></g>
<g><path style="opacity:1" fill="#1b1b1b" d="M 273.5,226.5 C 275.379,226.393 275.712,226.893 274.5,228C 264.44,233.713 264.107,233.213 273.5,226.5 Z"/></g>
<g><path style="opacity:1" fill="#202020" d="M 398.5,227.5 C 399.822,227.33 400.989,227.663 402,228.5C 401.773,230.574 401.939,232.574 402.5,234.5C 400.076,236.474 397.409,237.641 394.5,238C 397.933,235.449 399.267,231.949 398.5,227.5 Z"/></g>
<g><path style="opacity:1" fill="#111111" d="M 624.5,226.5 C 630.386,227.47 631.386,229.97 627.5,234C 625.583,233.973 623.916,233.139 622.5,231.5C 620.833,232.5 619.5,233.833 618.5,235.5C 614.187,233.887 613.52,231.387 616.5,228C 618.678,227.835 620.511,228.668 622,230.5C 623.095,229.307 623.928,227.973 624.5,226.5 Z"/></g>
<g><path style="opacity:1" fill="#161616" d="M 477.5,229.5 C 482.668,230.339 483.668,232.839 480.5,237C 475.917,237.934 474.417,236.1 476,231.5C 476.717,230.956 477.217,230.289 477.5,229.5 Z"/></g>
<g><path style="opacity:1" fill="#1a1a1a" d="M 384.5,226.5 C 386.842,226.775 386.842,227.608 384.5,229C 382.336,229.914 380.336,231.081 378.5,232.5C 378.167,232.167 377.833,231.833 377.5,231.5C 380.077,230.057 382.41,228.39 384.5,226.5 Z"/></g>
<g><path style="opacity:1" fill="#1d1d1d" d="M 303.5,256.5 C 302.833,254.5 302.167,252.5 301.5,250.5C 300.513,244.195 300.347,237.862 301,231.5C 302.968,239.715 303.801,248.049 303.5,256.5 Z"/></g>
<g><path style="opacity:1" fill="#2e2e2e" d="M 425.5,230.5 C 427.255,237.081 428.255,243.914 428.5,251C 428.557,253.96 428.057,256.793 427,259.5C 426.386,251.643 425.553,243.81 424.5,236C 424.696,234.122 425.029,232.288 425.5,230.5 Z"/></g>
<g><path style="opacity:1" fill="#dcdcdc" d="M 477.5,231.5 C 482.663,233.424 482.663,234.591 477.5,235C 476.316,233.855 476.316,232.688 477.5,231.5 Z"/></g>
<g><path style="opacity:1" fill="#1a1a1a" d="M 505.5,231.5 C 507.842,231.775 507.842,232.608 505.5,234C 503.336,234.914 501.336,236.081 499.5,237.5C 499.167,237.167 498.833,236.833 498.5,236.5C 501.077,235.057 503.41,233.39 505.5,231.5 Z"/></g>
<g><path style="opacity:1" fill="#1f1f1f" d="M 338.5,238.5 C 341.709,239.297 342.209,240.963 340,243.5C 337.527,242.26 337.027,240.593 338.5,238.5 Z"/></g>
<g><path style="opacity:1" fill="#181818" d="M 365.5,238.5 C 367.912,238.694 368.912,240.027 368.5,242.5C 365.014,242.705 364.014,241.371 365.5,238.5 Z"/></g>
<g><path style="opacity:1" fill="#121212" d="M 382.5,237.5 C 387.694,237.942 387.694,238.942 382.5,240.5C 383.714,242.069 385.381,242.902 387.5,243C 385.541,243.931 383.541,244.764 381.5,245.5C 381.702,244.194 381.368,242.694 380.5,241C 380.978,239.697 381.645,238.531 382.5,237.5 Z"/></g>
<g><path style="opacity:1" fill="#0c0c0c" d="M 620.5,240.5 C 625.938,241.638 629.438,244.972 631,250.5C 633.081,262.408 628.248,267.908 616.5,267C 614.03,264.934 612.696,262.267 612.5,259C 614.498,252.495 617.164,246.329 620.5,240.5 Z"/></g>
<g><path style="opacity:1" fill="#040404" d="M 530.5,241.5 C 531.496,241.414 532.329,241.748 533,242.5C 533.494,244.134 533.66,245.801 533.5,247.5C 554.167,247.5 574.833,247.5 595.5,247.5C 595.5,248.833 595.5,250.167 595.5,251.5C 574.833,251.5 554.167,251.5 533.5,251.5C 533.949,253.977 533.283,255.977 531.5,257.5C 527.762,255.303 524.429,252.636 521.5,249.5C 524.344,246.591 527.344,243.924 530.5,241.5 Z"/></g>
<g><path style="opacity:1" fill="#191919" d="M 291.5,228.5 C 295.128,230.29 295.461,232.623 292.5,235.5C 294.3,242.071 294.8,248.738 294,255.5C 290.049,260.818 286.049,260.818 282,255.5C 279.633,258.932 276.966,259.265 274,256.5C 270.735,259.924 267.235,260.257 263.5,257.5C 260.375,259.351 257.042,259.851 253.5,259C 251.727,253.694 250.56,248.194 250,242.5C 249.078,238.309 249.412,234.309 251,230.5C 251.81,238.766 252.976,246.933 254.5,255C 258.389,256.14 261.722,255.307 264.5,252.5C 268.394,256.533 272.061,256.199 275.5,251.5C 276.386,252.325 276.719,253.325 276.5,254.5C 279.238,255.035 281.072,254.035 282,251.5C 284.903,255.964 288.57,256.631 293,253.5C 293.099,246.584 292.265,239.75 290.5,233C 290.605,231.408 290.939,229.908 291.5,228.5 Z"/></g>
<g><path style="opacity:1" fill="#181818" d="M 275.5,231.5 C 276.754,233.357 276.754,235.357 275.5,237.5C 272.827,238.759 270.161,239.592 267.5,240C 266.424,238.274 266.257,236.441 267,234.5C 267.249,235.624 267.749,236.624 268.5,237.5C 269.852,236.482 270.852,235.149 271.5,233.5C 274.147,236.18 275.48,235.513 275.5,231.5 Z"/></g>
<g><path style="opacity:1" fill="#1e1e1e" d="M 337.5,244.5 C 339.756,245.438 342.09,245.438 344.5,244.5C 344.688,246.103 344.188,247.437 343,248.5C 340.91,247.848 338.743,247.681 336.5,248C 336.167,247.667 335.833,247.333 335.5,247C 336.381,246.292 337.047,245.458 337.5,244.5 Z"/></g>
<g><path style="opacity:1" fill="#141414" d="M 459.5,276.5 C 463.833,277.167 468.167,277.833 472.5,278.5C 466.962,280.291 461.296,280.791 455.5,280C 448.026,276.88 445.526,271.38 448,263.5C 449.886,259.56 452.386,256.06 455.5,253C 451.71,251.181 451.71,249.181 455.5,247C 459.067,245.925 462.067,246.758 464.5,249.5C 460.789,253.868 462.122,255.868 468.5,255.5C 470.167,255.333 471.833,255.167 473.5,255C 476.011,253.152 478.511,251.319 481,249.5C 483.489,251.319 485.989,253.152 488.5,255C 494.304,256.224 499.638,255.224 504.5,252C 501.289,250.847 497.956,250.18 494.5,250C 495.288,247.215 497.121,246.049 500,246.5C 503.628,247.228 507.128,248.394 510.5,250C 513.146,250.497 515.813,250.664 518.5,250.5C 518.5,251.5 518.5,252.5 518.5,253.5C 514.486,253.334 510.486,253.501 506.5,254C 502.023,256.824 497.19,258.657 492,259.5C 489.855,259.604 488.021,258.937 486.5,257.5C 482.987,260.073 479.654,259.739 476.5,256.5C 469.95,260.931 463.95,260.265 458.5,254.5C 450.176,258.14 447.676,264.14 451,272.5C 453.397,274.782 456.231,276.116 459.5,276.5 Z"/></g>
<g><path style="opacity:1" fill="#151515" d="M 416.5,228.5 C 417.812,229.145 418.812,230.145 419.5,231.5C 418.104,232.852 417.437,234.519 417.5,236.5C 419.779,243.157 419.946,249.823 418,256.5C 414.206,260.156 410.039,260.49 405.5,257.5C 404.672,258.415 403.672,259.081 402.5,259.5C 399.827,258.241 397.161,257.408 394.5,257C 392.367,258.899 389.867,260.065 387,260.5C 385.819,264.363 383.986,267.863 381.5,271C 377.833,273 374.167,273 370.5,271C 378.595,271.059 383.595,267.226 385.5,259.5C 380.786,259.799 379.12,257.799 380.5,253.5C 384.168,247.938 386.501,248.605 387.5,255.5C 389.527,255.662 391.527,255.495 393.5,255C 395.977,253.357 398.31,251.524 400.5,249.5C 404.768,254.469 410.101,256.302 416.5,255C 417.015,246.135 417.015,237.301 416.5,228.5 Z"/></g>
<g><path style="opacity:1" fill="#161616" d="M 240.5,228.5 C 242.121,228.787 243.121,229.787 243.5,231.5C 243.182,239.449 243.016,247.449 243,255.5C 242.5,257.333 241.333,258.5 239.5,259C 236.106,259.752 232.773,259.585 229.5,258.5C 227.103,266.335 224.77,266.169 222.5,258C 220.633,257.289 219.133,257.789 218,259.5C 219.052,266.428 219.386,273.428 219,280.5C 216.855,272.953 216.189,265.287 217,257.5C 219.004,254.91 221.504,252.91 224.5,251.5C 229.15,255.313 234.484,256.48 240.5,255C 241,254.5 241.5,254 242,253.5C 241.459,245.197 240.959,236.864 240.5,228.5 Z"/></g>
<g><path style="opacity:1" fill="#ececec" d="M 618.5,250.5 C 621.016,250.755 623.35,251.589 625.5,253C 627.329,254.113 628.163,255.613 628,257.5C 624.547,260.769 620.714,261.269 616.5,259C 615.186,255.767 615.853,252.933 618.5,250.5 Z"/></g>
<g><path style="opacity:1" fill="#cfcfcf" d="M 399.5,251.5 C 402.119,252.403 402.786,254.069 401.5,256.5C 398.807,255.468 398.14,253.802 399.5,251.5 Z"/></g>
<g><path style="opacity:1" fill="#cecece" d="M 479.5,251.5 C 482.423,252.163 483.09,253.83 481.5,256.5C 478.807,255.468 478.14,253.802 479.5,251.5 Z"/></g>
<g><path style="opacity:1" fill="#1a1a1a" d="M 367.5,246.5 C 369.427,249.137 369.927,252.137 369,255.5C 366.487,259.212 362.987,260.378 358.5,259C 357.892,258.13 357.059,257.63 356,257.5C 347.548,261.274 338.715,262.441 329.5,261C 323.069,257.936 321.902,253.436 326,247.5C 326.21,248.803 326.043,250.136 325.5,251.5C 325.637,253.107 326.304,254.441 327.5,255.5C 331.309,257.05 335.309,257.716 339.5,257.5C 345.574,258.204 351.074,256.87 356,253.5C 359.183,255.523 362.683,256.023 366.5,255C 366.602,252.181 366.935,249.348 367.5,246.5 Z"/></g>
<g><path style="opacity:1" fill="#111111" d="M 756.5,206.5 C 757.497,206.47 758.164,206.97 758.5,208C 758.025,209.763 757.358,211.43 756.5,213C 742.855,216.988 730.521,223.321 719.5,232C 719.759,233.261 720.426,234.261 721.5,235C 734.73,240.777 746.397,248.777 756.5,259C 760.711,260.534 765.044,260.867 769.5,260C 772.685,258.296 774.019,255.63 773.5,252C 771.962,241.309 770.295,230.643 768.5,220C 769.45,211.285 771.784,210.618 775.5,218C 773.814,220.208 772.814,222.708 772.5,225.5C 773.964,232.818 775.297,240.151 776.5,247.5C 776.217,251.196 775.717,254.863 775,258.5C 772.315,266.415 766.815,269.249 758.5,267C 751.722,261.856 745.222,256.356 739,250.5C 739.798,260.43 735.298,265.93 725.5,267C 720.5,267.667 715.5,267.667 710.5,267C 707.272,265.437 705.105,262.937 704,259.5C 700.384,267.39 695.551,268.39 689.5,262.5C 683.295,269.128 677.129,269.128 671,262.5C 667.376,266.325 662.876,268.325 657.5,268.5C 656.41,276.18 653.077,282.68 647.5,288C 641.852,291.228 636.185,291.228 630.5,288C 642.566,287.25 650.566,281.25 654.5,270C 653.551,267.694 652.551,265.361 651.5,263C 652.196,261.107 653.03,259.274 654,257.5C 654.833,258.333 655.667,259.167 656.5,260C 663.524,261.922 669.191,260.088 673.5,254.5C 674.017,258.687 676.351,260.687 680.5,260.5C 685.747,260.213 689.747,257.879 692.5,253.5C 693.266,258.15 695.932,259.65 700.5,258C 701.787,256.59 702.954,255.09 704,253.5C 705.487,255.985 707.321,258.152 709.5,260C 716.5,260.667 723.5,260.667 730.5,260C 736.424,258.364 737.924,254.864 735,249.5C 729.493,246.08 724.159,242.414 719,238.5C 716.3,232.733 717.467,227.9 722.5,224C 733.487,217.341 744.821,211.507 756.5,206.5 Z"/></g>
<g><path style="opacity:1" fill="#f4f4f4" d="M 382.5,253.5 C 384.983,253.73 385.483,254.397 384,255.5C 382.97,255.164 382.47,254.497 382.5,253.5 Z"/></g>
<g><path style="opacity:1" fill="#7c7c7c" d="M 301.5,250.5 C 302.167,252.5 302.833,254.5 303.5,256.5C 303.539,257.756 303.039,258.756 302,259.5C 301.502,256.518 301.335,253.518 301.5,250.5 Z"/></g>
<g><path style="opacity:1" fill="#2b2b2b" d="M 504.5,262.5 C 508.089,263.372 508.423,265.039 505.5,267.5C 503.296,266.218 502.962,264.551 504.5,262.5 Z"/></g>
<g><path style="opacity:1" fill="#2c2c2c" d="M 242.5,264.5 C 244.337,264.639 244.67,265.306 243.5,266.5C 233.348,271.53 233.015,270.863 242.5,264.5 Z"/></g>
<g><path style="opacity:1" fill="#2c2c2c" d="M 343.5,269.5 C 345.337,269.639 345.67,270.306 344.5,271.5C 334.348,276.53 334.015,275.863 343.5,269.5 Z"/></g>
<g><path style="opacity:1" fill="#a9a9a9" d="M 459.5,276.5 C 464.544,276.173 469.544,276.506 474.5,277.5C 474.043,278.298 473.376,278.631 472.5,278.5C 468.167,277.833 463.833,277.167 459.5,276.5 Z"/></g>
<g><path style="opacity:1" fill="#232323" d="M 222.5,282.5 C 224.842,282.775 224.842,283.608 222.5,285C 220.254,286.039 218.087,287.206 216,288.5C 215.383,287.551 215.549,286.718 216.5,286C 218.727,285.059 220.727,283.892 222.5,282.5 Z"/></g>
<g><path style="opacity:1" fill="#282828" d="M 463.5,282.5 C 464.774,283.189 464.774,284.023 463.5,285C 460.475,286.688 457.475,288.021 454.5,289C 457.402,286.583 460.402,284.416 463.5,282.5 Z"/></g>
</svg>
