<?xml version="1.0" encoding="UTF-8"?>
<!DOCTYPE svg PUBLIC "-//W3C//DTD SVG 1.1//EN" "http://www.w3.org/Graphics/SVG/1.1/DTD/svg11.dtd">
<svg xmlns="http://www.w3.org/2000/svg" version="1.1" width="1000px" height="500px" style="shape-rendering:geometricPrecision; text-rendering:geometricPrecision; image-rendering:optimizeQuality; fill-rule:evenodd; clip-rule:evenodd" xmlns:xlink="http://www.w3.org/1999/xlink">
<g><path style="opacity:1" fill="#fefefe" d="M -0.5,-0.5 C 332.833,-0.5 666.167,-0.5 999.5,-0.5C 999.5,166.167 999.5,332.833 999.5,499.5C 666.167,499.5 332.833,499.5 -0.5,499.5C -0.5,332.833 -0.5,166.167 -0.5,-0.5 Z"/></g>
<g><path style="opacity:1" fill="#242424" d="M 531.5,186.5 C 532.774,187.189 532.774,188.023 531.5,189C 528.942,190.626 526.275,191.626 523.5,192C 526.059,189.897 528.726,188.064 531.5,186.5 Z"/></g>
<g><path style="opacity:1" fill="#161616" d="M 515.5,190.5 C 520.668,191.339 521.668,193.839 518.5,198C 513.917,198.934 512.417,197.1 514,192.5C 514.717,191.956 515.217,191.289 515.5,190.5 Z"/></g>
<g><path style="opacity:1" fill="#dcdcdc" d="M 515.5,192.5 C 520.663,194.424 520.663,195.591 515.5,196C 514.316,194.855 514.316,193.688 515.5,192.5 Z"/></g>
<g><path style="opacity:1" fill="#202020" d="M 531.5,192.5 C 533.852,193.952 534.185,195.952 532.5,198.5C 529.582,199.87 526.582,200.87 523.5,201.5C 523.338,199.473 523.505,197.473 524,195.5C 524.249,196.624 524.749,197.624 525.5,198.5C 526.852,197.482 527.852,196.149 528.5,194.5C 530.714,196.924 531.714,196.257 531.5,192.5 Z"/></g>
<g><path style="opacity:1" fill="#1d1d1d" d="M 550.5,223.5 C 549.833,221.5 549.167,219.5 548.5,217.5C 547.513,211.195 547.347,204.862 548,198.5C 549.968,206.715 550.801,215.049 550.5,223.5 Z"/></g>
<g><path style="opacity:1" fill="#161616" d="M 484.5,200.5 C 488.541,200.502 489.208,201.835 486.5,204.5C 484.889,203.68 484.222,202.346 484.5,200.5 Z"/></g>
<g><path style="opacity:1" fill="#202020" d="M 480.5,200.5 C 483.838,201.193 484.338,202.86 482,205.5C 479.676,204.225 479.176,202.558 480.5,200.5 Z"/></g>
<g><path style="opacity:1" fill="#282828" d="M 499.5,202.5 C 501.842,202.775 501.842,203.608 499.5,205C 496.942,206.626 494.275,207.626 491.5,208C 494.07,205.913 496.737,204.08 499.5,202.5 Z"/></g>
<g><path style="opacity:1" fill="#262626" d="M 516.5,205.5 C 519.838,206.193 520.338,207.86 518,210.5C 515.491,209.347 514.991,207.68 516.5,205.5 Z"/></g>
<g><path style="opacity:1" fill="#141414" d="M 672.5,211.5 C 678.78,212.254 680.113,215.421 676.5,221C 680.719,225.466 679.719,227.133 673.5,226C 671.833,227.667 670.167,229.333 668.5,231C 666.5,231.667 664.5,231.667 662.5,231C 665.783,229.439 668.617,227.273 671,224.5C 670.421,222.658 669.921,220.658 669.5,218.5C 670.025,215.971 671.025,213.638 672.5,211.5 Z"/></g>
<g><path style="opacity:1" fill="#0f0f0f" d="M 561.5,212.5 C 563.167,212.5 564.833,212.5 566.5,212.5C 565.667,214.752 565.667,216.919 566.5,219C 593.894,227.131 621.227,235.464 648.5,244C 649.747,245.494 649.747,246.994 648.5,248.5C 622.167,258.333 595.833,268.167 569.5,278C 565.931,278.839 564.931,280.839 566.5,284C 566.333,285.5 565.5,286.333 564,286.5C 561.226,285.464 558.393,284.631 555.5,284C 554.484,283.481 553.818,282.647 553.5,281.5C 554.916,277.664 557.083,274.331 560,271.5C 561.667,272.833 563.333,274.167 565,275.5C 590.728,266.315 616.228,256.648 641.5,246.5C 615.585,238.188 589.585,230.188 563.5,222.5C 563.826,225.757 562.493,227.257 559.5,227C 557.36,223.879 555.36,220.713 553.5,217.5C 553.833,216.833 554.167,216.167 554.5,215.5C 557.016,214.67 559.35,213.67 561.5,212.5 Z"/></g>
<g><path style="opacity:1" fill="#121212" d="M 699.5,212.5 C 700.167,214.5 700.833,216.5 701.5,218.5C 701.876,230.982 703.376,243.315 706,255.5C 713.522,258.078 719.856,256.411 725,250.5C 727.288,255.997 731.455,257.83 737.5,256C 740.685,254.296 742.019,251.63 741.5,248C 739.962,237.309 738.295,226.643 736.5,216C 736.532,213.105 737.532,210.605 739.5,208.5C 740.892,209.605 742.059,210.939 743,212.5C 742.255,215.383 741.421,218.383 740.5,221.5C 741.964,228.818 743.297,236.151 744.5,243.5C 744.217,247.196 743.717,250.863 743,254.5C 740.269,262.589 734.769,265.256 726.5,262.5C 725.52,261.019 724.353,259.685 723,258.5C 718.377,263.021 712.877,264.521 706.5,263C 705.069,262.535 703.903,261.701 703,260.5C 700.79,247.068 698.956,233.568 697.5,220C 697.41,217.256 698.077,214.756 699.5,212.5 Z"/></g>
<g><path style="opacity:1" fill="#131313" d="M 755.5,212.5 C 758.08,227.595 759.247,242.928 759,258.5C 758.784,260.384 758.117,262.051 757,263.5C 756.937,261.04 757.104,258.54 757.5,256C 755.706,244.731 754.373,233.397 753.5,222C 753.331,218.599 753.998,215.432 755.5,212.5 Z"/></g>
<g><path style="opacity:1" fill="#bbbbbb" d="M 672.5,215.5 C 675.275,215.834 675.941,217.167 674.5,219.5C 672.889,218.68 672.222,217.346 672.5,215.5 Z"/></g>
<g><path style="opacity:1" fill="#6b6b6b" d="M 699.5,212.5 C 699.56,211.957 699.893,211.624 700.5,211.5C 701.474,213.743 701.808,216.076 701.5,218.5C 700.833,216.5 700.167,214.5 699.5,212.5 Z"/></g>
<g><path style="opacity:1" fill="#141414" d="M 538.5,195.5 C 542.128,197.29 542.461,199.623 539.5,202.5C 540.749,206.914 541.416,211.414 541.5,216C 542.701,221.789 540.535,225.289 535,226.5C 532.849,226.357 531.182,225.357 530,223.5C 526.254,227.393 522.588,227.393 519,223.5C 515.254,227.393 511.588,227.393 508,223.5C 504.583,226.986 500.917,227.32 497,224.5C 491.065,228.247 487.065,226.914 485,220.5C 482.085,223.134 479.252,223.134 476.5,220.5C 479.557,216.618 482.39,212.618 485,208.5C 486.156,213.122 486.99,217.789 487.5,222.5C 491.721,223.192 495.387,222.192 498.5,219.5C 499.386,220.325 499.719,221.325 499.5,222.5C 503.287,223.186 506.454,222.186 509,219.5C 512.622,223.415 516.288,223.415 520,219.5C 520.758,221.91 522.425,222.91 525,222.5C 527.667,222.833 529.667,221.833 531,219.5C 532.666,222.379 535.166,223.212 538.5,222C 539.98,220.701 540.646,219.034 540.5,217C 539.715,211.292 538.715,205.625 537.5,200C 537.605,198.408 537.939,196.908 538.5,195.5 Z"/></g>
<g><path style="opacity:1" fill="#e3e3e3" d="M 482.5,214.5 C 484.176,215.183 484.843,216.517 484.5,218.5C 482.801,218.66 481.134,218.494 479.5,218C 480.71,216.961 481.71,215.794 482.5,214.5 Z"/></g>
<g><path style="opacity:1" fill="#292929" d="M 530.5,210.5 C 533.709,211.297 534.209,212.963 532,215.5C 530.119,213.175 528.452,213.175 527,215.5C 524.659,214.993 524.159,213.826 525.5,212C 526.549,211.508 527.549,211.674 528.5,212.5C 529.522,212.145 530.189,211.478 530.5,210.5 Z"/></g>
<g><path style="opacity:1" fill="#2b2b2b" d="M 519.5,210.5 C 522.709,211.297 523.209,212.963 521,215.5C 518.667,215.167 516.333,214.833 514,214.5C 513.93,211.532 515.264,210.866 518,212.5C 519.03,212.164 519.53,211.497 519.5,210.5 Z"/></g>
<g><path style="opacity:1" fill="#121212" d="M 506.5,211.5 C 509.861,212.203 510.194,213.537 507.5,215.5C 505.358,214.563 505.024,213.23 506.5,211.5 Z"/></g>
<g><path style="opacity:1" fill="#1d1d1d" d="M 728.5,220.5 C 729.399,221.994 729.065,223.494 727.5,225C 722.674,227.246 718.008,229.746 713.5,232.5C 713.167,232.167 712.833,231.833 712.5,231.5C 713.305,229.528 714.639,228.028 716.5,227C 720.722,225.059 724.722,222.892 728.5,220.5 Z"/></g>
<g><path style="opacity:1" fill="#7c7c7c" d="M 548.5,217.5 C 549.167,219.5 549.833,221.5 550.5,223.5C 550.539,224.756 550.039,225.756 549,226.5C 548.502,223.518 548.335,220.518 548.5,217.5 Z"/></g>
<g><path style="opacity:1" fill="#1d1d1d" d="M 498.5,229.5 C 502.276,230.665 502.443,232.332 499,234.5C 497.598,232.027 496.098,232.027 494.5,234.5C 492.512,233.711 492.179,232.545 493.5,231C 494.549,230.508 495.549,230.674 496.5,231.5C 497.522,231.145 498.189,230.478 498.5,229.5 Z"/></g>
<g><path style="opacity:1" fill="#2c2c2c" d="M 483.5,232.5 C 485.337,232.639 485.67,233.306 484.5,234.5C 474.348,239.53 474.015,238.863 483.5,232.5 Z"/></g>
<g><path style="opacity:1" fill="#232323" d="M 509.5,234.5 C 511.842,234.775 511.842,235.608 509.5,237C 507.254,238.039 505.087,239.206 503,240.5C 502.383,239.551 502.549,238.718 503.5,238C 505.727,237.059 507.727,235.892 509.5,234.5 Z"/></g>
<g><path style="opacity:1" fill="#101010" d="M 676.5,241.5 C 682.715,242.17 684.048,245.17 680.5,250.5C 677.297,247.878 674.13,247.878 671,250.5C 669.55,254.724 671.05,257.224 675.5,258C 680.229,258.996 684.729,258.496 689,256.5C 689.265,258.163 688.765,259.663 687.5,261C 681.061,264.303 674.561,267.469 668,270.5C 666.743,270.15 666.409,269.483 667,268.5C 669.414,266.709 671.914,265.043 674.5,263.5C 666.023,261.158 664.189,256.158 669,248.5C 671.396,245.933 673.896,243.6 676.5,241.5 Z"/></g>
<g><path style="opacity:1" fill="#1b1b1b" d="M 382.5,247.5 C 384.379,247.393 384.712,247.893 383.5,249C 373.44,254.713 373.107,254.213 382.5,247.5 Z"/></g>
<g><path style="opacity:1" fill="#181818" d="M 384.5,252.5 C 385.754,254.357 385.754,256.357 384.5,258.5C 381.827,259.759 379.161,260.592 376.5,261C 375.424,259.274 375.257,257.441 376,255.5C 376.249,256.624 376.749,257.624 377.5,258.5C 378.852,257.482 379.852,256.149 380.5,254.5C 383.147,257.18 384.48,256.513 384.5,252.5 Z"/></g>
<g><path style="opacity:1" fill="#292929" d="M 412.5,251.5 C 413.774,252.189 413.774,253.023 412.5,254C 410.167,255.167 407.833,256.333 405.5,257.5C 405.167,257.167 404.833,256.833 404.5,256.5C 407.231,254.808 409.898,253.142 412.5,251.5 Z"/></g>
<g><path style="opacity:1" fill="#242424" d="M 313.5,258.5 C 314.774,259.189 314.774,260.023 313.5,261C 310.942,262.626 308.275,263.626 305.5,264C 308.059,261.897 310.726,260.064 313.5,258.5 Z"/></g>
<g><path style="opacity:1" fill="#202020" d="M 430.5,260.5 C 431.822,260.33 432.989,260.663 434,261.5C 433.773,263.574 433.939,265.574 434.5,267.5C 432.076,269.474 429.409,270.641 426.5,271C 429.933,268.449 431.267,264.949 430.5,260.5 Z"/></g>
<g><path style="opacity:1" fill="#181818" d="M 411.5,262.5 C 413.912,262.694 414.912,264.027 414.5,266.5C 411.014,266.705 410.014,265.371 411.5,262.5 Z"/></g>
<g><path style="opacity:1" fill="#1a1a1a" d="M 330.5,261.5 C 331.812,262.145 332.812,263.145 333.5,264.5C 332.104,265.852 331.437,267.519 331.5,269.5C 333.324,275.384 333.824,281.384 333,287.5C 331.287,292.038 328.12,293.538 323.5,292C 322.299,291.097 321.465,289.931 321,288.5C 318.633,291.932 315.966,292.265 313,289.5C 309.735,292.924 306.235,293.257 302.5,290.5C 298.564,293.051 294.731,293.051 291,290.5C 288.79,281.57 288.29,272.57 289.5,263.5C 290.009,271.855 291.342,280.021 293.5,288C 297.389,289.14 300.722,288.307 303.5,285.5C 307.226,289.6 310.726,289.267 314,284.5C 316.128,288.376 318.461,288.376 321,284.5C 323.325,288.51 326.659,289.51 331,287.5C 331.606,280.103 331.106,272.77 329.5,265.5C 329.623,264.075 329.957,262.742 330.5,261.5 Z"/></g>
<g><path style="opacity:1" fill="#2e2e2e" d="M 339.5,263.5 C 341.255,270.081 342.255,276.914 342.5,284C 342.557,286.96 342.057,289.793 341,292.5C 340.386,284.643 339.553,276.81 338.5,269C 338.696,267.122 339.029,265.288 339.5,263.5 Z"/></g>
<g><path style="opacity:1" fill="#2e2e2e" d="M 457.5,263.5 C 459.255,270.081 460.255,276.914 460.5,284C 460.557,286.96 460.057,289.793 459,292.5C 458.386,284.643 457.553,276.81 456.5,269C 456.696,267.122 457.029,265.288 457.5,263.5 Z"/></g>
<g><path style="opacity:1" fill="#1e1e1e" d="M 508.5,263.5 C 510.198,260.876 512.031,260.876 514,263.5C 514.833,268 513,269.833 508.5,269C 507.193,267.057 507.193,265.223 508.5,263.5 Z"/></g>
<g><path style="opacity:1" fill="#dddddd" d="M 508.5,263.5 C 511.5,263.167 512.833,264.5 512.5,267.5C 509.5,267.833 508.167,266.5 508.5,263.5 Z"/></g>
<g><path style="opacity:1" fill="#202020" d="M 313.5,264.5 C 315.852,265.952 316.185,267.952 314.5,270.5C 311.582,271.87 308.582,272.87 305.5,273.5C 305.338,271.473 305.505,269.473 306,267.5C 306.249,268.624 306.749,269.624 307.5,270.5C 308.852,269.482 309.852,268.149 310.5,266.5C 312.714,268.924 313.714,268.257 313.5,264.5 Z"/></g>
<g><path style="opacity:1" fill="#1a1a1a" d="M 537.5,264.5 C 539.842,264.775 539.842,265.608 537.5,267C 535.336,267.914 533.336,269.081 531.5,270.5C 531.167,270.167 530.833,269.833 530.5,269.5C 533.077,268.057 535.41,266.39 537.5,264.5 Z"/></g>
<g><path style="opacity:1" fill="#141414" d="M 716.5,269.5 C 717.857,270.685 719.357,271.685 721,272.5C 722.667,271.5 724.333,270.5 726,269.5C 730.264,271.804 730.264,274.471 726,277.5C 722.69,273.164 720.023,273.497 718,278.5C 716.028,277.695 714.528,276.361 713.5,274.5C 714.763,272.971 715.763,271.305 716.5,269.5 Z"/></g>
<g><path style="opacity:1" fill="#161616" d="M 448.5,261.5 C 449.812,262.145 450.812,263.145 451.5,264.5C 450.104,265.852 449.437,267.519 449.5,269.5C 451.324,275.384 451.824,281.384 451,287.5C 447.657,292.963 443.157,293.963 437.5,290.5C 436.672,291.415 435.672,292.081 434.5,292.5C 432.128,291.897 429.961,290.897 428,289.5C 425.024,292.264 421.524,293.097 417.5,292C 416.624,290.414 415.624,288.914 414.5,287.5C 410.63,291.379 406.13,292.379 401,290.5C 400.48,288.711 400.813,287.044 402,285.5C 405.315,289.105 408.982,289.439 413,286.5C 413.54,282.649 413.374,278.815 412.5,275C 412.454,273.272 412.954,271.772 414,270.5C 414.491,276.639 415.991,282.472 418.5,288C 420.833,288.667 423.167,288.667 425.5,288C 427.977,286.357 430.31,284.524 432.5,282.5C 436.768,287.469 442.101,289.302 448.5,288C 449.015,279.135 449.015,270.301 448.5,261.5 Z"/></g>
<g><path style="opacity:1" fill="#141414" d="M 491.5,309.5 C 495.833,310.167 500.167,310.833 504.5,311.5C 498.962,313.291 493.296,313.791 487.5,313C 480.026,309.88 477.526,304.38 480,296.5C 481.886,292.56 484.386,289.06 487.5,286C 483.71,284.181 483.71,282.181 487.5,280C 491.067,278.925 494.067,279.758 496.5,282.5C 492.789,286.868 494.122,288.868 500.5,288.5C 502.167,288.333 503.833,288.167 505.5,288C 508.011,286.152 510.511,284.319 513,282.5C 515.489,284.319 517.989,286.152 520.5,288C 526.343,289.324 531.676,288.324 536.5,285C 533.23,284.005 529.897,283.172 526.5,282.5C 527.412,280.257 529.078,279.257 531.5,279.5C 537.663,281.776 543.996,283.442 550.5,284.5C 550.291,285.086 549.957,285.586 549.5,286C 545.833,286.333 542.167,286.667 538.5,287C 533.069,290.924 527.069,292.591 520.5,292C 519.975,291.308 519.308,290.808 518.5,290.5C 514.987,293.073 511.654,292.739 508.5,289.5C 501.95,293.931 495.95,293.265 490.5,287.5C 481.154,291.89 479.154,298.39 484.5,307C 486.65,308.411 488.984,309.245 491.5,309.5 Z"/></g>
<g><path style="opacity:1" fill="#151515" d="M 279.5,261.5 C 283.128,263.29 283.461,265.623 280.5,268.5C 282.3,275.071 282.8,281.738 282,288.5C 281.5,290.333 280.333,291.5 278.5,292C 275.106,292.752 271.773,292.585 268.5,291.5C 267.915,293.865 266.748,295.865 265,297.5C 263.331,295.132 261.664,292.799 260,290.5C 258.739,290.759 257.739,291.426 257,292.5C 257.442,299.49 257.776,306.49 258,313.5C 256.895,307.704 256.062,301.87 255.5,296C 254.868,290.092 257.368,286.259 263,284.5C 267.842,288.284 273.342,289.451 279.5,288C 280,287.5 280.5,287 281,286.5C 281.099,279.584 280.265,272.75 278.5,266C 278.605,264.408 278.939,262.908 279.5,261.5 Z"/></g>
<g><path style="opacity:1" fill="#cfcfcf" d="M 431.5,284.5 C 434.119,285.403 434.786,287.069 433.5,289.5C 430.807,288.468 430.14,286.802 431.5,284.5 Z"/></g>
<g><path style="opacity:1" fill="#cecece" d="M 511.5,284.5 C 514.423,285.163 515.09,286.83 513.5,289.5C 510.807,288.468 510.14,286.802 511.5,284.5 Z"/></g>
<g><path style="opacity:1" fill="#161616" d="M 371.5,295.5 C 371.523,293.4 370.856,291.567 369.5,290C 369.63,288.941 370.13,288.108 371,287.5C 389.06,290.158 390.727,286.491 376,276.5C 375.333,275.167 375.333,273.833 376,272.5C 382.798,267.006 390.298,263.672 398.5,262.5C 398.023,263.478 397.357,264.311 396.5,265C 389.756,266.968 383.423,269.801 377.5,273.5C 380.57,275.464 383.403,277.798 386,280.5C 388.789,285.661 387.623,289.494 382.5,292C 379.183,292.498 375.85,292.665 372.5,292.5C 372.737,293.791 372.404,294.791 371.5,295.5 Z"/></g>
<g><path style="opacity:1" fill="#171717" d="M 536.5,295.5 C 540.474,297.581 540.141,298.914 535.5,299.5C 535.433,298.041 535.766,296.708 536.5,295.5 Z"/></g>
<g><path style="opacity:1" fill="#232323" d="M 281.5,297.5 C 283.842,297.775 283.842,298.608 281.5,300C 279.254,301.039 277.087,302.206 275,303.5C 274.383,302.551 274.549,301.718 275.5,301C 277.727,300.059 279.727,298.892 281.5,297.5 Z"/></g>
<g><path style="opacity:1" fill="#1d1d1d" d="M 371.5,295.5 C 370.005,303.742 365.338,306.576 357.5,304C 363.644,303.435 368.311,300.602 371.5,295.5 Z"/></g>
<g><path style="opacity:1" fill="#a9a9a9" d="M 491.5,309.5 C 496.544,309.173 501.544,309.506 506.5,310.5C 506.043,311.298 505.376,311.631 504.5,311.5C 500.167,310.833 495.833,310.167 491.5,309.5 Z"/></g>
<g><path style="opacity:1" fill="#282828" d="M 370.5,307.5 C 371.774,308.189 371.774,309.023 370.5,310C 367.475,311.688 364.475,313.021 361.5,314C 364.402,311.583 367.402,309.416 370.5,307.5 Z"/></g>
<g><path style="opacity:1" fill="#1e1e1e" d="M 262.5,313.5 C 263.774,314.189 263.774,315.023 262.5,316C 259.623,317.946 256.623,319.279 253.5,320C 256.567,317.812 259.567,315.645 262.5,313.5 Z"/></g>
<g><path style="opacity:1" fill="#282828" d="M 495.5,315.5 C 496.774,316.189 496.774,317.023 495.5,318C 492.475,319.688 489.475,321.021 486.5,322C 489.402,319.583 492.402,317.416 495.5,315.5 Z"/></g>
</svg>
