<?xml version="1.0" encoding="UTF-8"?>
<!DOCTYPE svg PUBLIC "-//W3C//DTD SVG 1.1//EN" "http://www.w3.org/Graphics/SVG/1.1/DTD/svg11.dtd">
<svg xmlns="http://www.w3.org/2000/svg" version="1.1" width="1000px" height="500px" style="shape-rendering:geometricPrecision; text-rendering:geometricPrecision; image-rendering:optimizeQuality; fill-rule:evenodd; clip-rule:evenodd" xmlns:xlink="http://www.w3.org/1999/xlink">
<g><path style="opacity:1" fill="#fefefe" d="M -0.5,-0.5 C 332.833,-0.5 666.167,-0.5 999.5,-0.5C 999.5,166.167 999.5,332.833 999.5,499.5C 666.167,499.5 332.833,499.5 -0.5,499.5C -0.5,332.833 -0.5,166.167 -0.5,-0.5 Z"/></g>
<g><path style="opacity:1" fill="#1e1e1e" d="M 474.5,107.5 C 476.198,104.876 478.031,104.876 480,107.5C 480.833,112 479,113.833 474.5,113C 473.193,111.057 473.193,109.223 474.5,107.5 Z"/></g>
<g><path style="opacity:1" fill="#dddddd" d="M 474.5,107.5 C 477.5,107.167 478.833,108.5 478.5,111.5C 475.5,111.833 474.167,110.5 474.5,107.5 Z"/></g>
<g><path style="opacity:1" fill="#202020" d="M 494.5,113.5 C 495.822,113.33 496.989,113.663 498,114.5C 497.773,116.574 497.939,118.574 498.5,120.5C 496.076,122.474 493.409,123.641 490.5,124C 493.933,121.449 495.267,117.949 494.5,113.5 Z"/></g>
<g><path style="opacity:1" fill="#181818" d="M 612.5,112.5 C 613.995,112.415 614.995,113.081 615.5,114.5C 614.632,121.909 613.298,129.242 611.5,136.5C 613.498,144.826 610.165,147.826 601.5,145.5C 601.5,144.167 601.5,142.833 601.5,141.5C 605.155,141.528 607.822,139.861 609.5,136.5C 606.241,131.073 602.408,126.073 598,121.5C 597,122.833 596,122.833 595,121.5C 591.427,112.45 593.094,111.45 600,118.5C 603.695,123.362 607.195,128.362 610.5,133.5C 612.284,126.636 612.951,119.636 612.5,112.5 Z"/></g>
<g><path style="opacity:1" fill="#161616" d="M 575.5,117.5 C 580.668,118.339 581.668,120.839 578.5,125C 573.917,125.934 572.417,124.1 574,119.5C 574.717,118.956 575.217,118.289 575.5,117.5 Z"/></g>
<g><path style="opacity:1" fill="#2e2e2e" d="M 521.5,116.5 C 523.255,123.081 524.255,129.914 524.5,137C 524.557,139.96 524.057,142.793 523,145.5C 522.386,137.643 521.553,129.81 520.5,122C 520.696,120.122 521.029,118.288 521.5,116.5 Z"/></g>
<g><path style="opacity:1" fill="#1d1d1d" d="M 624.5,142.5 C 623.833,140.5 623.167,138.5 622.5,136.5C 621.513,130.195 621.347,123.862 622,117.5C 623.968,125.715 624.801,134.049 624.5,142.5 Z"/></g>
<g><path style="opacity:1" fill="#dcdcdc" d="M 575.5,119.5 C 580.663,121.424 580.663,122.591 575.5,123C 574.316,121.855 574.316,120.688 575.5,119.5 Z"/></g>
<g><path style="opacity:1" fill="#282828" d="M 463.5,120.5 C 465.842,120.775 465.842,121.608 463.5,123C 460.942,124.626 458.275,125.626 455.5,126C 458.07,123.913 460.737,122.08 463.5,120.5 Z"/></g>
<g><path style="opacity:1" fill="#1f1f1f" d="M 478.5,121.5 C 479.995,121.415 480.995,122.081 481.5,123.5C 480.68,125.111 479.346,125.778 477.5,125.5C 477.433,124.041 477.766,122.708 478.5,121.5 Z"/></g>
<g><path style="opacity:1" fill="#131313" d="M 512.5,114.5 C 513.812,115.145 514.812,116.145 515.5,117.5C 514.104,118.852 513.437,120.519 513.5,122.5C 515.324,128.384 515.824,134.384 515,140.5C 511.657,145.963 507.157,146.963 501.5,143.5C 500.672,144.415 499.672,145.081 498.5,145.5C 496.128,144.897 493.961,143.897 492,142.5C 487.154,146.163 481.987,146.497 476.5,143.5C 473.284,144.795 469.951,145.462 466.5,145.5C 465.48,155.06 460.48,158.893 451.5,157C 461.514,155.754 465.848,150.254 464.5,140.5C 467.421,141.407 470.421,141.74 473.5,141.5C 473.101,136.296 475.268,132.629 480,130.5C 480.772,130.645 481.439,130.978 482,131.5C 482.741,134.562 482.575,137.562 481.5,140.5C 484.106,141.652 486.773,141.818 489.5,141C 491.977,139.357 494.31,137.524 496.5,135.5C 500.768,140.469 506.101,142.302 512.5,141C 513.015,132.135 513.015,123.301 512.5,114.5 Z"/></g>
<g><path style="opacity:1" fill="#e5e5e5" d="M 476.5,134.5 C 477.873,134.343 479.207,134.51 480.5,135C 481.451,135.718 481.617,136.551 481,137.5C 476.652,140.558 475.152,139.558 476.5,134.5 Z"/></g>
<g><path style="opacity:1" fill="#101010" d="M 626.5,135.5 C 630.877,135.577 635.21,136.077 639.5,137C 639.957,137.414 640.291,137.914 640.5,138.5C 638.861,139.916 638.027,141.583 638,143.5C 670.361,176.195 703.028,208.528 736,240.5C 736.667,242.167 736.667,243.833 736,245.5C 703.196,268.812 670.696,292.478 638.5,316.5C 640.439,318.122 640.772,319.956 639.5,322C 635.514,322.499 631.514,322.666 627.5,322.5C 627.163,317.685 628.163,313.185 630.5,309C 631,308.833 631.5,308.667 632,308.5C 633.326,309.799 634.66,311.132 636,312.5C 667.921,289.789 699.755,266.956 731.5,244C 700.604,234.035 669.771,223.868 639,213.5C 637.124,214.619 636.291,216.286 636.5,218.5C 635.178,218.67 634.011,218.337 633,217.5C 631.034,214.399 629.2,211.232 627.5,208C 631.116,204.627 635.449,203.127 640.5,203.5C 639.667,205.752 639.667,207.919 640.5,210C 669.537,219.569 698.537,228.903 727.5,238C 696.626,206.959 665.626,176.126 634.5,145.5C 632.929,147.415 630.929,148.415 628.5,148.5C 627.575,144.21 626.909,139.876 626.5,135.5 Z"/></g>
<g><path style="opacity:1" fill="#161616" d="M 442.5,128.5 C 446.961,128.79 449.795,131.123 451,135.5C 452.954,140.978 451.121,144.145 445.5,145C 442.854,145.497 440.187,145.664 437.5,145.5C 437.5,144.167 437.5,142.833 437.5,141.5C 442.203,141.88 446.536,140.88 450.5,138.5C 448.781,135.781 446.447,133.781 443.5,132.5C 442.571,131.311 442.238,129.978 442.5,128.5 Z"/></g>
<g><path style="opacity:1" fill="#161616" d="M 586.5,134.5 C 589.44,138.129 588.773,141.129 584.5,143.5C 582.945,143.278 581.611,142.611 580.5,141.5C 577.788,145.681 574.454,146.348 570.5,143.5C 566.312,145.669 561.978,146.002 557.5,144.5C 555.174,152.492 552.84,152.492 550.5,144.5C 546.981,143.503 545.315,145.003 545.5,149C 546.827,154.786 547.327,160.62 547,166.5C 545.895,160.704 545.062,154.87 544.5,149C 543.868,143.092 546.368,139.259 552,137.5C 556.842,141.284 562.342,142.451 568.5,141C 569.646,140.355 570.646,139.522 571.5,138.5C 575.156,142.642 578.49,142.309 581.5,137.5C 582.85,138.95 584.516,139.617 586.5,139.5C 586.5,137.833 586.5,136.167 586.5,134.5 Z"/></g>
<g><path style="opacity:1" fill="#cfcfcf" d="M 495.5,137.5 C 498.119,138.403 498.786,140.069 497.5,142.5C 494.807,141.468 494.14,139.802 495.5,137.5 Z"/></g>
<g><path style="opacity:1" fill="#848484" d="M 609.5,139.5 C 610.376,139.369 611.043,139.702 611.5,140.5C 609.192,141.873 608.525,141.54 609.5,139.5 Z"/></g>
<g><path style="opacity:1" fill="#7c7c7c" d="M 622.5,136.5 C 623.167,138.5 623.833,140.5 624.5,142.5C 624.539,143.756 624.039,144.756 623,145.5C 622.502,142.518 622.335,139.518 622.5,136.5 Z"/></g>
<g><path style="opacity:1" fill="#282828" d="M 608.5,148.5 C 609.774,149.189 609.774,150.023 608.5,151C 605.475,152.688 602.475,154.021 599.5,155C 602.402,152.583 605.402,150.416 608.5,148.5 Z"/></g>
<g><path style="opacity:1" fill="#2c2c2c" d="M 445.5,151.5 C 447.337,151.639 447.67,152.306 446.5,153.5C 436.348,158.53 436.015,157.863 445.5,151.5 Z"/></g>
<g><path style="opacity:1" fill="#1e1e1e" d="M 551.5,167.5 C 552.774,168.189 552.774,169.023 551.5,170C 548.623,171.946 545.623,173.279 542.5,174C 545.567,171.812 548.567,169.645 551.5,167.5 Z"/></g>
<g><path style="opacity:1" fill="#222222" d="M 483.5,175.5 C 488.942,175.886 490.275,178.386 487.5,183C 485.866,183.494 484.199,183.66 482.5,183.5C 482.351,182.448 482.517,181.448 483,180.5C 484.356,181.38 485.856,181.714 487.5,181.5C 487.278,178.315 485.778,177.315 483,178.5C 482.53,177.423 482.697,176.423 483.5,175.5 Z"/></g>
<g><path style="opacity:1" fill="#282828" d="M 515.5,177.5 C 516.774,178.189 516.774,179.023 515.5,180C 513.167,181.167 510.833,182.333 508.5,183.5C 508.167,183.167 507.833,182.833 507.5,182.5C 510.231,180.808 512.898,179.142 515.5,177.5 Z"/></g>
<g><path style="opacity:1" fill="#141414" d="M 750.5,183.5 C 756.78,184.254 758.113,187.421 754.5,193C 758.719,197.466 757.719,199.133 751.5,198C 749.833,199.667 748.167,201.333 746.5,203C 744.5,203.667 742.5,203.667 740.5,203C 743.783,201.439 746.617,199.273 749,196.5C 748.421,194.658 747.921,192.658 747.5,190.5C 748.025,187.971 749.025,185.638 750.5,183.5 Z"/></g>
<g><path style="opacity:1" fill="#161616" d="M 583.5,187.5 C 588.668,188.339 589.668,190.839 586.5,195C 581.917,195.934 580.417,194.1 582,189.5C 582.717,188.956 583.217,188.289 583.5,187.5 Z"/></g>
<g><path style="opacity:1" fill="#bbbbbb" d="M 750.5,187.5 C 753.275,187.834 753.941,189.167 752.5,191.5C 750.889,190.68 750.222,189.346 750.5,187.5 Z"/></g>
<g><path style="opacity:1" fill="#161616" d="M 442.5,189.5 C 447.668,190.339 448.668,192.839 445.5,197C 440.917,197.934 439.417,196.1 441,191.5C 441.717,190.956 442.217,190.289 442.5,189.5 Z"/></g>
<g><path style="opacity:1" fill="#1f1f1f" d="M 515.5,183.5 C 518.041,185.44 518.041,187.607 515.5,190C 513.094,190.306 510.927,191.139 509,192.5C 507.115,192.138 506.281,190.971 506.5,189C 506.833,188.167 507.167,187.333 507.5,186.5C 509.335,190.265 510.835,189.932 512,185.5C 512.71,186.973 513.876,187.64 515.5,187.5C 515.5,186.167 515.5,184.833 515.5,183.5 Z"/></g>
<g><path style="opacity:1" fill="#2e2e2e" d="M 531.5,188.5 C 533.255,195.081 534.255,201.914 534.5,209C 534.557,211.96 534.057,214.793 533,217.5C 532.386,209.643 531.553,201.81 530.5,194C 530.696,192.122 531.029,190.288 531.5,188.5 Z"/></g>
<g><path style="opacity:1" fill="#dcdcdc" d="M 583.5,189.5 C 588.663,191.424 588.663,192.591 583.5,193C 582.316,191.855 582.316,190.688 583.5,189.5 Z"/></g>
<g><path style="opacity:1" fill="#dcdcdc" d="M 442.5,191.5 C 447.663,193.424 447.663,194.591 442.5,195C 441.316,193.855 441.316,192.688 442.5,191.5 Z"/></g>
<g><path style="opacity:1" fill="#1a1a1a" d="M 611.5,189.5 C 613.842,189.775 613.842,190.608 611.5,192C 609.336,192.914 607.336,194.081 605.5,195.5C 605.167,195.167 604.833,194.833 604.5,194.5C 607.077,193.057 609.41,191.39 611.5,189.5 Z"/></g>
<g><path style="opacity:1" fill="#1d1d1d" d="M 863.5,196.5 C 864.399,197.994 864.065,199.494 862.5,201C 857.674,203.246 853.008,205.746 848.5,208.5C 848.167,208.167 847.833,207.833 847.5,207.5C 848.305,205.528 849.639,204.028 851.5,203C 855.722,201.059 859.722,198.892 863.5,196.5 Z"/></g>
<g><path style="opacity:1" fill="#101010" d="M 827.5,200.5 C 834.276,199.776 837.11,202.776 836,209.5C 833.389,214.723 829.723,215.723 825,212.5C 823.773,207.938 824.607,203.938 827.5,200.5 Z"/></g>
<g><path style="opacity:1" fill="#141414" d="M 565.5,234.5 C 569.833,235.167 574.167,235.833 578.5,236.5C 572.962,238.291 567.296,238.791 561.5,238C 554.026,234.88 551.526,229.38 554,221.5C 555.886,217.56 558.386,214.06 561.5,211C 557.71,209.181 557.71,207.181 561.5,205C 565.067,203.925 568.067,204.758 570.5,207.5C 566.789,211.868 568.122,213.868 574.5,213.5C 576.167,213.333 577.833,213.167 579.5,213C 582.011,211.152 584.511,209.319 587,207.5C 589.489,209.319 591.989,211.152 594.5,213C 600.304,214.224 605.638,213.224 610.5,210C 607.289,208.847 603.956,208.18 600.5,208C 601.288,205.215 603.121,204.049 606,204.5C 609.628,205.228 613.128,206.394 616.5,208C 619.146,208.497 621.813,208.664 624.5,208.5C 624.5,209.5 624.5,210.5 624.5,211.5C 620.486,211.334 616.486,211.501 612.5,212C 608.023,214.824 603.19,216.657 598,217.5C 595.855,217.604 594.021,216.937 592.5,215.5C 588.987,218.073 585.654,217.739 582.5,214.5C 575.95,218.931 569.95,218.265 564.5,212.5C 556.176,216.14 553.676,222.14 557,230.5C 559.397,232.782 562.231,234.116 565.5,234.5 Z"/></g>
<g><path style="opacity:1" fill="#e8e8e8" d="M 827.5,203.5 C 831.791,203.93 833.458,206.097 832.5,210C 826.244,210.934 824.577,208.767 827.5,203.5 Z"/></g>
<g><path style="opacity:1" fill="#171717" d="M 501.5,183.5 C 502.5,183.5 503.5,183.5 504.5,183.5C 504.719,184.675 504.386,185.675 503.5,186.5C 496.325,188.887 489.658,192.22 483.5,196.5C 482.479,197.002 482.312,197.668 483,198.5C 490.944,202.219 498.111,207.052 504.5,213C 508.389,214.14 511.722,213.307 514.5,210.5C 516.441,213.334 519.107,214.168 522.5,213C 523.643,205.51 523.309,198.01 521.5,190.5C 521.901,185.746 523.234,185.413 525.5,189.5C 524.104,190.852 523.437,192.519 523.5,194.5C 525.324,200.384 525.824,206.384 525,212.5C 523.336,217.038 520.169,218.538 515.5,217C 514.874,216.25 514.374,215.416 514,214.5C 511.347,217.194 508.18,218.027 504.5,217C 501.02,214.354 497.686,211.521 494.5,208.5C 494.044,213.456 491.377,216.289 486.5,217C 481.431,218.495 477.264,217.328 474,213.5C 471.633,216.932 468.966,217.265 466,214.5C 462.735,217.924 459.235,218.257 455.5,215.5C 451.603,218.482 448.103,218.148 445,214.5C 442.695,216.93 439.862,217.93 436.5,217.5C 436.118,227.741 431.118,231.575 421.5,229C 428.32,228.597 432.987,225.264 435.5,219C 434.833,217.667 434.167,216.333 433.5,215C 433.613,213.72 434.28,212.887 435.5,212.5C 439.539,214.283 443.039,213.616 446,210.5C 446.576,212.852 448.076,213.852 450.5,213.5C 453.037,213.565 455.037,212.565 456.5,210.5C 460.394,214.533 464.061,214.199 467.5,209.5C 468.386,210.325 468.719,211.325 468.5,212.5C 471.238,213.035 473.072,212.035 474,209.5C 474.956,210.579 475.789,211.745 476.5,213C 481.589,213.826 486.589,213.492 491.5,212C 492.747,210.542 492.747,209.042 491.5,207.5C 488.244,205.289 485.078,202.955 482,200.5C 480.824,196.74 481.99,193.907 485.5,192C 491.053,189.392 496.387,186.559 501.5,183.5 Z"/></g>
<g><path style="opacity:1" fill="#191919" d="M 514.5,201.5 C 517.78,202.732 518.114,204.399 515.5,206.5C 514.522,206.023 513.689,205.357 513,204.5C 511.921,206.394 510.587,206.727 509,205.5C 508.786,202.686 509.953,202.02 512.5,203.5C 513.522,203.145 514.189,202.478 514.5,201.5 Z"/></g>
<g><path style="opacity:1" fill="#cecece" d="M 585.5,209.5 C 588.423,210.163 589.09,211.83 587.5,214.5C 584.807,213.468 584.14,211.802 585.5,209.5 Z"/></g>
<g><path style="opacity:1" fill="#131313" d="M 896.5,209.5 C 899.08,224.595 900.247,239.928 900,255.5C 899.784,257.384 899.117,259.051 898,260.5C 897.937,258.04 898.104,255.54 898.5,253C 896.706,241.731 895.373,230.397 894.5,219C 894.331,215.599 894.998,212.432 896.5,209.5 Z"/></g>
<g><path style="opacity:1" fill="#151515" d="M 792.5,211.5 C 793.799,213.153 793.466,214.653 791.5,216C 787.167,218.167 782.833,220.333 778.5,222.5C 778.167,222.167 777.833,221.833 777.5,221.5C 782.013,217.412 787.013,214.079 792.5,211.5 Z"/></g>
<g><path style="opacity:1" fill="#111111" d="M 757.5,213.5 C 762.435,214.549 763.435,217.049 760.5,221C 758.322,221.165 756.489,220.332 755,218.5C 752.311,223.453 749.478,223.62 746.5,219C 748.443,213.844 751.109,213.344 754.5,217.5C 755.524,216.148 756.524,214.815 757.5,213.5 Z"/></g>
<g><path style="opacity:1" fill="#131313" d="M 859.5,217.5 C 861.755,218.087 863.421,219.42 864.5,221.5C 862.481,226.565 860.148,226.731 857.5,222C 858.414,220.594 859.08,219.094 859.5,217.5 Z"/></g>
<g><path style="opacity:1" fill="#262626" d="M 445.5,220.5 C 448.709,221.297 449.209,222.963 447,225.5C 445.075,223.027 443.242,223.027 441.5,225.5C 439.512,224.711 439.179,223.545 440.5,222C 441.549,221.508 442.549,221.674 443.5,222.5C 444.522,222.145 445.189,221.478 445.5,220.5 Z"/></g>
<g><path style="opacity:1" fill="#2b2b2b" d="M 610.5,220.5 C 614.089,221.372 614.423,223.039 611.5,225.5C 609.296,224.218 608.962,222.551 610.5,220.5 Z"/></g>
<g><path style="opacity:1" fill="#2c2c2c" d="M 465.5,223.5 C 467.337,223.639 467.67,224.306 466.5,225.5C 456.348,230.53 456.015,229.863 465.5,223.5 Z"/></g>
<g><path style="opacity:1" fill="#101010" d="M 879.5,205.5 C 881.943,206.499 883.609,208.332 884.5,211C 882.814,213.208 881.814,215.708 881.5,218.5C 882.964,225.818 884.297,233.151 885.5,240.5C 886.863,256.311 879.863,262.811 864.5,260C 861.667,258.833 858.833,257.667 856,256.5C 849.8,259.847 843.3,260.847 836.5,259.5C 835.52,258.019 834.353,256.685 833,255.5C 831.048,257.894 828.548,259.394 825.5,260C 819.833,260.667 814.167,260.667 808.5,260C 802.833,258.625 801.166,255.292 803.5,250C 798.637,249.191 793.97,249.858 789.5,252C 784.147,254.701 778.814,257.368 773.5,260C 769.833,260.667 766.167,260.667 762.5,260C 759.876,257.259 757.876,254.092 756.5,250.5C 752.773,254.565 748.44,255.399 743.5,253C 742.426,252.261 741.759,251.261 741.5,250C 743.902,244.097 747.902,239.597 753.5,236.5C 754.081,233.625 755.081,230.958 756.5,228.5C 757.962,236.846 759.962,245.013 762.5,253C 767.167,253.667 771.833,253.667 776.5,253C 781.604,251.613 786.604,249.946 791.5,248C 785.552,244.338 779.218,243.171 772.5,244.5C 771.417,243.635 771.251,242.635 772,241.5C 773.909,238.586 776.575,236.919 780,236.5C 785.974,238.269 791.808,240.436 797.5,243C 803.101,244.217 808.768,244.717 814.5,244.5C 814.579,245.93 814.246,247.264 813.5,248.5C 811.167,249.167 808.833,249.833 806.5,250.5C 806.977,251.478 807.643,252.311 808.5,253C 815.167,253.667 821.833,253.667 828.5,253C 830.96,251.542 833.127,249.709 835,247.5C 835.833,249.167 836.667,250.833 837.5,252.5C 841.122,253.659 844.789,253.825 848.5,253C 850.282,247.599 852.782,242.432 856,237.5C 863.118,231.082 866.952,232.749 867.5,242.5C 867.618,246.321 866.285,249.487 863.5,252C 868.319,253.606 873.319,253.939 878.5,253C 881.685,251.296 883.019,248.63 882.5,245C 880.962,234.309 879.295,223.643 877.5,213C 877.739,210.365 878.406,207.865 879.5,205.5 Z"/></g>
<g><path style="opacity:1" fill="#111111" d="M 834.5,232.5 C 839.245,233.696 840.245,236.196 837.5,240C 836.5,240.667 835.5,240.667 834.5,240C 833.646,238.978 832.646,238.145 831.5,237.5C 829.095,242.543 826.428,242.71 823.5,238C 825.443,232.844 828.109,232.344 831.5,236.5C 832.524,235.148 833.524,233.815 834.5,232.5 Z"/></g>
<g><path style="opacity:1" fill="#a9a9a9" d="M 565.5,234.5 C 570.544,234.173 575.544,234.506 580.5,235.5C 580.043,236.298 579.376,236.631 578.5,236.5C 574.167,235.833 569.833,235.167 565.5,234.5 Z"/></g>
<g><path style="opacity:1" fill="#1e1e1e" d="M 434.5,232.5 C 435.774,233.189 435.774,234.023 434.5,235C 431.623,236.946 428.623,238.279 425.5,239C 428.567,236.812 431.567,234.645 434.5,232.5 Z"/></g>
<g><path style="opacity:1" fill="#e2e2e2" d="M 753.5,239.5 C 756.247,240.973 757.081,243.306 756,246.5C 745.711,247.634 744.878,245.301 753.5,239.5 Z"/></g>
<g><path style="opacity:1" fill="#ededed" d="M 858.5,240.5 C 863.764,240.417 865.431,242.75 863.5,247.5C 859.356,250.629 856.023,249.963 853.5,245.5C 854.882,243.451 856.548,241.785 858.5,240.5 Z"/></g>
<g><path style="opacity:1" fill="#282828" d="M 569.5,240.5 C 570.774,241.189 570.774,242.023 569.5,243C 566.475,244.688 563.475,246.021 560.5,247C 563.402,244.583 566.402,242.416 569.5,240.5 Z"/></g>
<g><path style="opacity:1" fill="#282828" d="M 219.5,250.5 C 221.842,250.775 221.842,251.608 219.5,253C 216.942,254.626 214.275,255.626 211.5,256C 214.07,253.913 216.737,252.08 219.5,250.5 Z"/></g>
<g><path style="opacity:1" fill="#242424" d="M 367.5,252.5 C 368.774,253.189 368.774,254.023 367.5,255C 364.942,256.626 362.275,257.626 359.5,258C 362.059,255.897 364.726,254.064 367.5,252.5 Z"/></g>
<g><path style="opacity:1" fill="#202020" d="M 579.5,258.5 C 584.654,259.268 585.654,261.768 582.5,266C 577.917,266.934 576.417,265.1 578,260.5C 578.717,259.956 579.217,259.289 579.5,258.5 Z"/></g>
<g><path style="opacity:1" fill="#292929" d="M 300.5,255.5 C 301.774,256.189 301.774,257.023 300.5,258C 298.167,259.167 295.833,260.333 293.5,261.5C 293.167,261.167 292.833,260.833 292.5,260.5C 295.231,258.808 297.898,257.142 300.5,255.5 Z"/></g>
<g><path style="opacity:1" fill="#282828" d="M 325.5,258.5 C 327.842,258.775 327.842,259.608 325.5,261C 322.942,262.626 320.275,263.626 317.5,264C 320.07,261.913 322.737,260.08 325.5,258.5 Z"/></g>
<g><path style="opacity:1" fill="#242424" d="M 475.5,256.5 C 476.774,257.189 476.774,258.023 475.5,259C 472.942,260.626 470.275,261.626 467.5,262C 470.059,259.897 472.726,258.064 475.5,256.5 Z"/></g>
<g><path style="opacity:1" fill="#282828" d="M 272.5,259.5 C 274.842,259.775 274.842,260.608 272.5,262C 269.942,263.626 267.275,264.626 264.5,265C 267.07,262.913 269.737,261.08 272.5,259.5 Z"/></g>
<g><path style="opacity:1" fill="#222222" d="M 204.5,261.5 C 209.942,261.886 211.275,264.386 208.5,269C 206.866,269.494 205.199,269.66 203.5,269.5C 203.351,268.448 203.517,267.448 204,266.5C 205.356,267.38 206.856,267.714 208.5,267.5C 208.278,264.315 206.778,263.315 204,264.5C 203.53,263.423 203.697,262.423 204.5,261.5 Z"/></g>
<g><path style="opacity:1" fill="#292929" d="M 235.5,257.5 C 236.774,258.189 236.774,259.023 235.5,260C 233.167,261.167 230.833,262.333 228.5,263.5C 228.167,263.167 227.833,262.833 227.5,262.5C 230.231,260.808 232.898,259.142 235.5,257.5 Z"/></g>
<g><path style="opacity:1" fill="#2e2e2e" d="M 378.5,260.5 C 380.255,267.081 381.255,273.914 381.5,281C 381.557,283.96 381.057,286.793 380,289.5C 379.386,281.643 378.553,273.81 377.5,266C 377.696,264.122 378.029,262.288 378.5,260.5 Z"/></g>
<g><path style="opacity:1" fill="#1d1d1d" d="M 624.5,286.5 C 623.833,284.5 623.167,282.5 622.5,280.5C 621.513,274.195 621.347,267.862 622,261.5C 623.968,269.715 624.801,278.049 624.5,286.5 Z"/></g>
<g><path style="opacity:1" fill="#1d1d1d" d="M 528.5,260.5 C 530.153,269.629 530.653,278.963 530,288.5C 529.405,281.627 528.572,274.794 527.5,268C 527.555,265.413 527.889,262.913 528.5,260.5 Z"/></g>
<g><path style="opacity:1" fill="#2d2d2d" d="M 351.5,260.5 C 354.22,269.97 354.72,279.637 353,289.5C 351.246,279.836 350.746,270.169 351.5,260.5 Z"/></g>
<g><path style="opacity:1" fill="#171717" d="M 365.5,264.5 C 368.861,265.203 369.194,266.537 366.5,268.5C 364.358,267.563 364.024,266.23 365.5,264.5 Z"/></g>
<g><path style="opacity:1" fill="#1d1d1d" d="M 501.5,257.5 C 502.5,257.5 503.5,257.5 504.5,257.5C 504.292,259.92 504.626,262.253 505.5,264.5C 502.636,265.207 500.136,266.541 498,268.5C 497.5,268.333 497,268.167 496.5,268C 500.236,266.784 501.236,264.451 499.5,261C 499.978,259.697 500.645,258.531 501.5,257.5 Z"/></g>
<g><path style="opacity:1" fill="#767676" d="M 278.5,261.5 C 278.56,260.957 278.893,260.624 279.5,260.5C 280.487,263.768 280.82,267.102 280.5,270.5C 279.833,267.5 279.167,264.5 278.5,261.5 Z"/></g>
<g><path style="opacity:1" fill="#161616" d="M 297.5,268.5 C 299.912,268.694 300.912,270.027 300.5,272.5C 297.014,272.705 296.014,271.371 297.5,268.5 Z"/></g>
<g><path style="opacity:1" fill="#171717" d="M 570.5,288.5 C 570.44,287.957 570.107,287.624 569.5,287.5C 568.52,290.086 568.187,292.753 568.5,295.5C 567.299,302.024 563.299,305.357 556.5,305.5C 551.692,305.024 549.358,302.357 549.5,297.5C 549.515,295.366 550.015,293.366 551,291.5C 551.496,293.035 551.33,294.535 550.5,296C 550.777,297.892 551.777,299.225 553.5,300C 558.436,301.123 562.936,300.29 567,297.5C 566.695,285.176 566.695,272.842 567,260.5C 567.838,268.569 569.004,276.569 570.5,284.5C 573.577,285.799 576.577,285.632 579.5,284C 575.553,279.827 576.72,277.327 583,276.5C 589.075,277.39 589.908,279.89 585.5,284C 589.026,285.337 592.692,285.837 596.5,285.5C 596.101,280.296 598.268,276.629 603,274.5C 603.772,274.645 604.439,274.978 605,275.5C 605.741,278.562 605.575,281.562 604.5,284.5C 607.941,286.006 611.108,285.673 614,283.5C 614.099,276.584 613.265,269.75 611.5,263C 611.626,257.995 612.96,257.495 615.5,261.5C 614.389,262.611 613.722,263.945 613.5,265.5C 614.749,269.914 615.416,274.414 615.5,279C 616.757,285.694 614.091,289.194 607.5,289.5C 604.68,289.422 602.013,288.755 599.5,287.5C 593.354,290.641 587.688,289.974 582.5,285.5C 579.002,288.937 575.002,289.937 570.5,288.5 Z"/></g>
<g><path style="opacity:1" fill="#1f1f1f" d="M 601.5,265.5 C 602.995,265.415 603.995,266.081 604.5,267.5C 603.68,269.111 602.346,269.778 600.5,269.5C 600.433,268.041 600.766,266.708 601.5,265.5 Z"/></g>
<g><path style="opacity:1" fill="#dddddd" d="M 579.5,260.5 C 584.663,262.424 584.663,263.591 579.5,264C 578.316,262.855 578.316,261.688 579.5,260.5 Z"/></g>
<g><path style="opacity:1" fill="#181818" d="M 278.5,261.5 C 279.167,264.5 279.833,267.5 280.5,270.5C 280.485,275.588 281.485,280.421 283.5,285C 288.492,285.96 293.159,285.126 297.5,282.5C 294.442,280.859 291.108,280.026 287.5,280C 288.907,277.748 290.907,276.582 293.5,276.5C 296.92,277.374 300.253,278.541 303.5,280C 306.146,280.497 308.813,280.664 311.5,280.5C 311.5,281.5 311.5,282.5 311.5,283.5C 307.486,283.334 303.486,283.501 299.5,284C 295.272,286.532 290.772,288.365 286,289.5C 284.774,289.355 283.607,289.022 282.5,288.5C 282.485,300.017 276.819,305.517 265.5,305C 260.594,300.148 260.26,294.981 264.5,289.5C 264.833,289.667 265.167,289.833 265.5,290C 261.588,299.098 264.588,302.432 274.5,300C 276.329,299.727 277.829,298.893 279,297.5C 279.5,285.492 279.333,273.492 278.5,261.5 Z"/></g>
<g><path style="opacity:1" fill="#e5e5e5" d="M 599.5,278.5 C 600.873,278.343 602.207,278.51 603.5,279C 604.451,279.718 604.617,280.551 604,281.5C 599.652,284.558 598.152,283.558 599.5,278.5 Z"/></g>
<g><path style="opacity:1" fill="#181818" d="M 216.5,259.5 C 217.996,267.564 219.496,275.898 221,284.5C 223.041,285.423 225.208,285.756 227.5,285.5C 225.494,278.516 227.994,273.85 235,271.5C 236.901,272.536 238.735,273.702 240.5,275C 236.315,273.964 232.648,274.964 229.5,278C 230.275,280.768 232.108,281.934 235,281.5C 237.501,281.416 239.834,280.75 242,279.5C 243.257,279.85 243.591,280.517 243,281.5C 236.299,285.613 229.132,288.113 221.5,289C 219.951,287.786 218.785,286.286 218,284.5C 215.49,289.801 211.824,290.801 207,287.5C 201.065,291.247 197.065,289.914 195,283.5C 192.085,286.134 189.252,286.134 186.5,283.5C 187,282.5 187.5,281.5 188,280.5C 191.126,278.05 193.459,275.05 195,271.5C 196.156,276.122 196.99,280.789 197.5,285.5C 201.721,286.192 205.387,285.192 208.5,282.5C 209.386,283.325 209.719,284.325 209.5,285.5C 212.365,285.945 214.865,285.278 217,283.5C 217.357,275.495 217.19,267.495 216.5,259.5 Z"/></g>
<g><path style="opacity:1" fill="#e3e3e3" d="M 192.5,277.5 C 194.176,278.183 194.843,279.517 194.5,281.5C 192.801,281.66 191.134,281.494 189.5,281C 190.71,279.961 191.71,278.794 192.5,277.5 Z"/></g>
<g><path style="opacity:1" fill="#0d0d0d" d="M 321.5,272.5 C 329.115,274.039 331.949,278.706 330,286.5C 326.199,288.926 322.032,289.926 317.5,289.5C 317.5,288.167 317.5,286.833 317.5,285.5C 320.187,285.664 322.854,285.497 325.5,285C 329.889,284.224 330.555,282.224 327.5,279C 323.708,278.311 321.708,276.144 321.5,272.5 Z"/></g>
<g><path style="opacity:1" fill="#131313" d="M 364.5,272.5 C 370.823,274.464 373.656,278.798 373,285.5C 369.265,289.096 364.765,290.429 359.5,289.5C 359.5,288.167 359.5,286.833 359.5,285.5C 363.546,285.85 367.38,285.183 371,283.5C 370.721,279.059 368.221,276.726 363.5,276.5C 363.433,275.041 363.766,273.708 364.5,272.5 Z"/></g>
<g><path style="opacity:1" fill="#161616" d="M 518.5,258.5 C 520.121,258.787 521.121,259.787 521.5,261.5C 521.182,269.449 521.016,277.449 521,285.5C 517.596,289.984 513.43,290.651 508.5,287.5C 507.719,288.737 506.719,289.737 505.5,290.5C 503.167,289.167 500.833,287.833 498.5,286.5C 497.3,287.531 495.966,288.365 494.5,289C 486.5,289.333 478.5,289.667 470.5,290C 469.118,294.705 468.451,294.539 468.5,289.5C 465.675,289.919 463.509,288.919 462,286.5C 458.61,290.032 454.943,290.366 451,287.5C 448.791,278.578 448.291,269.578 449.5,260.5C 450.359,268.859 451.359,277.192 452.5,285.5C 456.721,286.192 460.387,285.192 463.5,282.5C 465.503,285.505 468.17,286.172 471.5,284.5C 475.408,278.712 480.742,275.878 487.5,276C 489.19,279.525 488.524,282.525 485.5,285C 489.167,285.667 492.833,285.667 496.5,285C 498.385,282.778 500.551,280.944 503,279.5C 505.489,281.319 507.989,283.152 510.5,285C 513.167,285.667 515.833,285.667 518.5,285C 519.98,283.701 520.646,282.034 520.5,280C 519.142,272.894 518.475,265.727 518.5,258.5 Z"/></g>
<g><path style="opacity:1" fill="#dfdfdf" d="M 502.5,281.5 C 504.377,282.659 504.877,284.326 504,286.5C 502.926,285.382 501.76,284.382 500.5,283.5C 501.243,282.818 501.909,282.151 502.5,281.5 Z"/></g>
<g><path style="opacity:1" fill="#e9e9e9" d="M 479.5,279.5 C 488.671,280.555 488.671,282.388 479.5,285C 477.167,285.667 474.833,285.667 472.5,285C 474.54,282.664 476.873,280.831 479.5,279.5 Z"/></g>
<g><path style="opacity:1" fill="#1f1f1f" d="M 474.5,268.5 C 477.78,269.732 478.114,271.399 475.5,273.5C 473.296,272.218 472.962,270.551 474.5,268.5 Z"/></g>
<g><path style="opacity:1" fill="#7c7c7c" d="M 622.5,280.5 C 623.167,282.5 623.833,284.5 624.5,286.5C 624.539,287.756 624.039,288.756 623,289.5C 622.502,286.518 622.335,283.518 622.5,280.5 Z"/></g>
<g><path style="opacity:1" fill="#8f8f8f" d="M 570.5,288.5 C 569.833,290.833 569.167,293.167 568.5,295.5C 568.187,292.753 568.52,290.086 569.5,287.5C 570.107,287.624 570.44,287.957 570.5,288.5 Z"/></g>
<g><path style="opacity:1" fill="#1d1d1d" d="M 208.5,292.5 C 212.276,293.665 212.443,295.332 209,297.5C 207.598,295.027 206.098,295.027 204.5,297.5C 202.512,296.711 202.179,295.545 203.5,294C 204.549,293.508 205.549,293.674 206.5,294.5C 207.522,294.145 208.189,293.478 208.5,292.5 Z"/></g>
<g><path style="opacity:1" fill="#232323" d="M 440.5,279.5 C 442.548,281.456 443.548,283.956 443.5,287C 443.139,293.062 440.473,297.729 435.5,301C 432.697,301.755 430.03,301.422 427.5,300C 433.087,299.456 437.587,296.956 441,292.5C 441.747,289.147 441.247,285.98 439.5,283C 439.989,281.862 440.322,280.695 440.5,279.5 Z"/></g>
<g><path style="opacity:1" fill="#161616" d="M 407.5,270.5 C 414.131,271.317 414.131,272.484 407.5,274C 403.281,277.754 404.115,279.92 410,280.5C 413.24,279.189 416.407,278.022 419.5,277C 414.573,281.048 409.74,285.215 405,289.5C 401.181,299.034 404.348,304.867 414.5,307C 419.535,307.418 424.535,307.418 429.5,307C 423.485,310.035 417.152,311.035 410.5,310C 402.77,307.041 399.937,301.541 402,293.5C 403.002,289.836 404.836,286.669 407.5,284C 404.797,283.135 403.464,281.301 403.5,278.5C 404.293,275.58 405.626,272.914 407.5,270.5 Z"/></g>
<g><path style="opacity:1" fill="#1e1e1e" d="M 196.5,294.5 C 197.774,295.189 197.774,296.023 196.5,297C 193.623,298.946 190.623,300.279 187.5,301C 190.567,298.812 193.567,296.645 196.5,294.5 Z"/></g>
<g><path style="opacity:1" fill="#232323" d="M 601.5,295.5 C 603.842,295.775 603.842,296.608 601.5,298C 599.254,299.039 597.087,300.206 595,301.5C 594.383,300.551 594.549,299.718 595.5,299C 597.727,298.059 599.727,296.892 601.5,295.5 Z"/></g>
<g><path style="opacity:1" fill="#222222" d="M 377.5,296.5 C 382.611,297.162 382.611,298.328 377.5,300C 378.949,301.117 380.616,301.784 382.5,302C 380.167,303.167 377.833,304.333 375.5,305.5C 374.396,304.369 374.729,303.535 376.5,303C 375.144,300.586 375.478,298.419 377.5,296.5 Z"/></g>
<g><path style="opacity:1" fill="#2c2c2c" d="M 380.5,304.5 C 382.337,304.639 382.67,305.306 381.5,306.5C 371.348,311.53 371.015,310.863 380.5,304.5 Z"/></g>
<g><path style="opacity:1" fill="#1e1e1e" d="M 438.5,304.5 C 439.774,305.189 439.774,306.023 438.5,307C 435.623,308.946 432.623,310.279 429.5,311C 432.567,308.812 435.567,306.645 438.5,304.5 Z"/></g>
<g><path style="opacity:1" fill="#2c2c2c" d="M 561.5,307.5 C 563.337,307.639 563.67,308.306 562.5,309.5C 552.348,314.53 552.015,313.863 561.5,307.5 Z"/></g>
<g><path style="opacity:1" fill="#282828" d="M 413.5,313.5 C 414.774,314.189 414.774,315.023 413.5,316C 410.475,317.688 407.475,319.021 404.5,320C 407.402,317.583 410.402,315.416 413.5,313.5 Z"/></g>
<g><path style="opacity:1" fill="#242424" d="M 436.5,332.5 C 437.774,333.189 437.774,334.023 436.5,335C 433.942,336.626 431.275,337.626 428.5,338C 431.059,335.897 433.726,334.064 436.5,332.5 Z"/></g>
<g><path style="opacity:1" fill="#282828" d="M 494.5,333.5 C 496.842,333.775 496.842,334.608 494.5,336C 491.942,337.626 489.275,338.626 486.5,339C 489.07,336.913 491.737,335.08 494.5,333.5 Z"/></g>
<g><path style="opacity:1" fill="#181818" d="M 328.5,336.5 C 345.573,335.878 345.739,337.212 329,340.5C 328.51,339.207 328.343,337.873 328.5,336.5 Z"/></g>
<g><path style="opacity:1" fill="#242424" d="M 246.5,337.5 C 247.774,338.189 247.774,339.023 246.5,340C 243.942,341.626 241.275,342.626 238.5,343C 241.059,340.897 243.726,339.064 246.5,337.5 Z"/></g>
<g><path style="opacity:1" fill="#222222" d="M 374.5,340.5 C 379.942,340.886 381.275,343.386 378.5,348C 376.866,348.494 375.199,348.66 373.5,348.5C 373.351,347.448 373.517,346.448 374,345.5C 375.356,346.38 376.856,346.714 378.5,346.5C 378.278,343.315 376.778,342.315 374,343.5C 373.53,342.423 373.697,341.423 374.5,340.5 Z"/></g>
<g><path style="opacity:1" fill="#282828" d="M 623.5,339.5 C 625.842,339.775 625.842,340.608 623.5,342C 620.942,343.626 618.275,344.626 615.5,345C 618.07,342.913 620.737,341.08 623.5,339.5 Z"/></g>
<g><path style="opacity:1" fill="#202020" d="M 436.5,338.5 C 438.852,339.952 439.185,341.952 437.5,344.5C 434.582,345.87 431.582,346.87 428.5,347.5C 428.338,345.473 428.505,343.473 429,341.5C 429.249,342.624 429.749,343.624 430.5,344.5C 431.852,343.482 432.852,342.149 433.5,340.5C 435.714,342.924 436.714,342.257 436.5,338.5 Z"/></g>
<g><path style="opacity:1" fill="#232323" d="M 191.5,343.5 C 193.252,343.418 194.252,344.251 194.5,346C 193.804,348.118 193.637,350.284 194,352.5C 193.586,352.043 193.086,351.709 192.5,351.5C 190.5,352.833 188.5,354.167 186.5,355.5C 185.548,354.467 185.548,353.3 186.5,352C 185.616,350.902 184.616,350.402 183.5,350.5C 183.919,349.328 184.585,348.328 185.5,347.5C 186.935,348.824 187.935,350.49 188.5,352.5C 190.773,351.309 191.107,349.642 189.5,347.5C 189.752,345.927 190.418,344.594 191.5,343.5 Z"/></g>
<g><path style="opacity:1" fill="#1e1e1e" d="M 609.5,344.5 C 611.091,352.286 612.258,360.286 613,368.5C 615.737,369.61 618.571,369.777 621.5,369C 622.354,367.119 622.021,365.286 620.5,363.5C 621.351,360.388 622.517,360.054 624,362.5C 625.115,370.718 621.615,374.218 613.5,373C 612.333,372.5 611.5,371.667 611,370.5C 609.495,361.816 608.995,353.149 609.5,344.5 Z"/></g>
<g><path style="opacity:1" fill="#1d1d1d" d="M 549.5,345.5 C 550.833,345.5 552.167,345.5 553.5,345.5C 552.605,348.224 552.272,350.891 552.5,353.5C 551.914,353.291 551.414,352.957 551,352.5C 549.144,354.406 546.977,355.24 544.5,355C 545.731,353.817 545.731,352.651 544.5,351.5C 542.634,352.563 542.134,351.896 543,349.5C 543.718,348.549 544.551,348.383 545.5,349C 546.227,350.399 546.727,351.899 547,353.5C 547.925,352.953 548.758,352.287 549.5,351.5C 548.181,349.468 548.181,347.468 549.5,345.5 Z"/></g>
<g><path style="opacity:1" fill="#1e1e1e" d="M 471.5,345.5 C 473.198,342.876 475.031,342.876 477,345.5C 477.833,350 476,351.833 471.5,351C 470.193,349.057 470.193,347.223 471.5,345.5 Z"/></g>
<g><path style="opacity:1" fill="#dddddd" d="M 471.5,345.5 C 474.5,345.167 475.833,346.5 475.5,349.5C 472.5,349.833 471.167,348.5 471.5,345.5 Z"/></g>
<g><path style="opacity:1" fill="#1a1a1a" d="M 243.5,349.5 C 247.541,349.502 248.208,350.835 245.5,353.5C 243.889,352.68 243.222,351.346 243.5,349.5 Z"/></g>
<g><path style="opacity:1" fill="#292929" d="M 447.5,345.5 C 448.774,346.189 448.774,347.023 447.5,348C 445.167,349.167 442.833,350.333 440.5,351.5C 440.167,351.167 439.833,350.833 439.5,350.5C 442.231,348.808 444.898,347.142 447.5,345.5 Z"/></g>
<g><path style="opacity:1" fill="#1a1a1a" d="M 509.5,346.5 C 511.842,346.775 511.842,347.608 509.5,349C 507.336,349.914 505.336,351.081 503.5,352.5C 503.167,352.167 502.833,351.833 502.5,351.5C 505.077,350.057 507.41,348.39 509.5,346.5 Z"/></g>
<g><path style="opacity:1" fill="#767676" d="M 385.5,345.5 C 385.56,344.957 385.893,344.624 386.5,344.5C 387.487,347.768 387.82,351.102 387.5,354.5C 386.833,351.5 386.167,348.5 385.5,345.5 Z"/></g>
<g><path style="opacity:1" fill="#141414" d="M 314.5,352.5 C 317.861,353.203 318.194,354.537 315.5,356.5C 313.358,355.563 313.024,354.23 314.5,352.5 Z"/></g>
<g><path style="opacity:1" fill="#0d0d0d" d="M 620.5,352.5 C 623.861,353.203 624.194,354.537 621.5,356.5C 619.3,355.675 618.966,354.342 620.5,352.5 Z"/></g>
<g><path style="opacity:1" fill="#222222" d="M 213.5,354.5 C 218.942,354.886 220.275,357.386 217.5,362C 215.866,362.494 214.199,362.66 212.5,362.5C 212.351,361.448 212.517,360.448 213,359.5C 214.356,360.38 215.856,360.714 217.5,360.5C 217.278,357.315 215.778,356.315 213,357.5C 212.53,356.423 212.697,355.423 213.5,354.5 Z"/></g>
<g><path style="opacity:1" fill="#1a1a1a" d="M 246.5,354.5 C 250.541,354.502 251.208,355.835 248.5,358.5C 246.889,357.68 246.222,356.346 246.5,354.5 Z"/></g>
<g><path style="opacity:1" fill="#232323" d="M 242.5,354.5 C 245.78,355.732 246.114,357.399 243.5,359.5C 241.296,358.218 240.962,356.551 242.5,354.5 Z"/></g>
<g><path style="opacity:1" fill="#181818" d="M 385.5,345.5 C 386.167,348.5 386.833,351.5 387.5,354.5C 387.485,359.588 388.485,364.421 390.5,369C 394.18,370.027 397.347,369.194 400,366.5C 401.666,369.379 404.166,370.212 407.5,369C 410.911,364.402 415.244,361.235 420.5,359.5C 426.397,361.265 427.064,364.432 422.5,369C 425.833,369.667 429.167,369.667 432.5,369C 433.646,368.355 434.646,367.522 435.5,366.5C 437.795,369.39 440.795,370.223 444.5,369C 445.354,367.119 445.021,365.286 443.5,363.5C 443.833,362.5 444.5,361.833 445.5,361.5C 448.584,370.241 445.584,374.075 436.5,373C 435.874,372.25 435.374,371.416 435,370.5C 434.097,371.701 432.931,372.535 431.5,373C 423.147,373.168 414.813,373.668 406.5,374.5C 404.718,378.338 404.385,378.171 405.5,374C 402.724,373.934 400.558,372.768 399,370.5C 396.293,373.408 393.127,374.075 389.5,372.5C 389.485,384.017 383.819,389.517 372.5,389C 367.594,384.148 367.26,378.981 371.5,373.5C 371.833,373.667 372.167,373.833 372.5,374C 368.588,383.098 371.588,386.432 381.5,384C 383.329,383.727 384.829,382.893 386,381.5C 386.5,369.492 386.333,357.492 385.5,345.5 Z"/></g>
<g><path style="opacity:1" fill="#181818" d="M 279.5,358.5 C 283.643,359.383 285.976,362.05 286.5,366.5C 285.827,372.017 282.827,374.184 277.5,373C 276.106,372.044 275.439,370.711 275.5,369C 276.151,365.212 277.484,361.712 279.5,358.5 Z"/></g>
<g><path style="opacity:1" fill="#191919" d="M 435.5,357.5 C 438.78,358.732 439.114,360.399 436.5,362.5C 435.522,362.023 434.689,361.357 434,360.5C 432.921,362.394 431.587,362.727 430,361.5C 429.786,358.686 430.953,358.02 433.5,359.5C 434.522,359.145 435.189,358.478 435.5,357.5 Z"/></g>
<g><path style="opacity:1" fill="#141414" d="M 299.5,376.5 C 299.523,374.4 298.856,372.567 297.5,371C 297.63,369.941 298.13,369.108 299,368.5C 304.56,370.215 309.727,369.381 314.5,366C 311.289,364.847 307.956,364.18 304.5,364C 306.541,360.638 309.541,359.638 313.5,361C 318.099,363.867 323.099,365.034 328.5,364.5C 328.5,365.5 328.5,366.5 328.5,367.5C 321.238,366.49 314.571,367.99 308.5,372C 305.937,373.079 303.271,373.579 300.5,373.5C 300.737,374.791 300.404,375.791 299.5,376.5 Z"/></g>
<g><path style="opacity:1" fill="#1c1c1c" d="M 507.5,360.5 C 509.911,360.137 511.411,361.137 512,363.5C 514.068,372.29 511.901,379.79 505.5,386C 502.002,387.967 498.668,387.633 495.5,385C 505.446,384.884 510.446,380.051 510.5,370.5C 506.041,371.877 504.207,370.211 505,365.5C 506.094,363.922 506.928,362.255 507.5,360.5 Z"/></g>
<g><path style="opacity:1" fill="#ededed" d="M 415.5,363.5 C 417.527,363.338 419.527,363.505 421.5,364C 422.833,365 422.833,366 421.5,367C 417.682,368.944 413.682,369.611 409.5,369C 411.396,366.932 413.396,365.099 415.5,363.5 Z"/></g>
<g><path style="opacity:1" fill="#eaeaea" d="M 278.5,364.5 C 281.278,364.022 283.278,365.022 284.5,367.5C 282.809,369.256 280.809,369.756 278.5,369C 277.272,367.51 277.272,366.01 278.5,364.5 Z"/></g>
<g><path style="opacity:1" fill="#1d1d1d" d="M 334.5,344.5 C 336.289,352.257 337.456,360.257 338,368.5C 340.737,369.61 343.571,369.777 346.5,369C 346.964,366.595 347.131,364.095 347,361.5C 348.016,360.366 348.683,360.699 349,362.5C 350.833,371.333 347.333,374.833 338.5,373C 337.299,372.097 336.465,370.931 336,369.5C 334.734,361.109 334.234,352.776 334.5,344.5 Z"/></g>
<g><path style="opacity:1" fill="#151515" d="M 491.5,342.5 C 495.128,344.29 495.461,346.623 492.5,349.5C 494.3,356.071 494.8,362.738 494,369.5C 493.5,371.333 492.333,372.5 490.5,373C 487.106,373.752 483.773,373.585 480.5,372.5C 479.915,374.865 478.748,376.865 477,378.5C 475.331,376.132 473.664,373.799 472,371.5C 470.739,371.759 469.739,372.426 469,373.5C 469.442,380.49 469.776,387.49 470,394.5C 468.895,388.704 468.062,382.87 467.5,377C 466.868,371.092 469.368,367.259 475,365.5C 479.842,369.284 485.342,370.451 491.5,369C 492,368.5 492.5,368 493,367.5C 493.099,360.584 492.265,353.75 490.5,347C 490.605,345.408 490.939,343.908 491.5,342.5 Z"/></g>
<g><path style="opacity:1" fill="#c6c6c6" d="M 507.5,365.5 C 510.001,365.511 510.168,366.178 508,367.5C 507.536,366.906 507.369,366.239 507.5,365.5 Z"/></g>
<g><path style="opacity:1" fill="#181818" d="M 594.5,359.5 C 601.107,357.749 603.607,360.082 602,366.5C 596.768,371.081 590.601,373.414 583.5,373.5C 583.167,377.5 582.833,377.5 582.5,373.5C 579.675,373.919 577.509,372.919 576,370.5C 572.476,374.074 568.642,374.407 564.5,371.5C 555.876,375.255 546.876,376.422 537.5,375C 535.714,374.215 534.214,373.049 533,371.5C 532.333,368.5 532.333,365.5 533,362.5C 533.654,361.304 534.154,361.304 534.5,362.5C 532.895,365.58 533.562,368.08 536.5,370C 543.057,371.586 549.724,371.92 556.5,371C 559.539,370.647 562.205,369.48 564.5,367.5C 569.103,370.321 573.436,369.988 577.5,366.5C 579.503,369.505 582.17,370.172 585.5,368.5C 588.215,365.118 591.215,362.118 594.5,359.5 Z"/></g>
<g><path style="opacity:1" fill="#ededed" d="M 592.5,363.5 C 602.554,363.766 602.887,365.599 593.5,369C 591.167,369.667 588.833,369.667 586.5,369C 588.396,366.932 590.396,365.099 592.5,363.5 Z"/></g>
<g><path style="opacity:1" fill="#171717" d="M 191.5,361.5 C 196.197,361.007 197.363,362.674 195,366.5C 190.69,363.432 189.19,364.432 190.5,369.5C 193.443,370.244 196.443,370.744 199.5,371C 195.748,373.293 191.914,375.46 188,377.5C 188.152,375.924 188.985,374.591 190.5,373.5C 188.625,372.46 187.292,370.96 186.5,369C 187.589,366.084 189.256,363.584 191.5,361.5 Z"/></g>
<g><path style="opacity:1" fill="#2a2a2a" d="M 344.5,376.5 C 348.089,377.372 348.423,379.039 345.5,381.5C 343.296,380.218 342.962,378.551 344.5,376.5 Z"/></g>
<g><path style="opacity:1" fill="#181818" d="M 444.5,376.5 C 448.127,377.47 448.461,379.137 445.5,381.5C 444.522,381.023 443.689,380.357 443,379.5C 441.921,381.394 440.587,381.727 439,380.5C 438.786,377.686 439.953,377.02 442.5,378.5C 443.522,378.145 444.189,377.478 444.5,376.5 Z"/></g>
<g><path style="opacity:1" fill="#151515" d="M 545.5,379.5 C 548.861,380.203 549.194,381.537 546.5,383.5C 544.358,382.563 544.024,381.23 545.5,379.5 Z"/></g>
<g><path style="opacity:1" fill="#1d1d1d" d="M 299.5,376.5 C 298.005,384.742 293.338,387.576 285.5,385C 291.644,384.435 296.311,381.602 299.5,376.5 Z"/></g>
<g><path style="opacity:1" fill="#151515" d="M 252.5,362.5 C 255.072,365.141 255.072,367.974 252.5,371C 250.536,371.624 248.869,371.124 247.5,369.5C 245.747,371.261 243.747,372.594 241.5,373.5C 239.617,373.124 238.117,372.124 237,370.5C 236.097,371.701 234.931,372.535 233.5,373C 230.167,373.333 226.833,373.667 223.5,374C 222.663,375.011 222.33,376.178 222.5,377.5C 227.712,376.492 229.878,378.492 229,383.5C 223.357,388.204 216.857,390.037 209.5,389C 203.924,384.305 203.091,378.805 207,372.5C 204.209,382.71 208.042,386.876 218.5,385C 222.175,384.443 225.508,383.11 228.5,381C 218.453,380.849 217.12,377.516 224.5,371C 228.046,369.826 231.713,369.16 235.5,369C 237.138,365.943 238.471,365.943 239.5,369C 243.684,370.165 246.517,368.665 248,364.5C 252.264,368.869 253.764,368.202 252.5,362.5 Z"/></g>
<g><path style="opacity:1" fill="#2c2c2c" d="M 318.5,378.5 C 320.337,378.639 320.67,379.306 319.5,380.5C 309.348,385.53 309.015,384.863 318.5,378.5 Z"/></g>
<g><path style="opacity:1" fill="#282828" d="M 283.5,378.5 C 284.774,379.189 284.774,380.023 283.5,381C 280.475,382.688 277.475,384.021 274.5,385C 277.402,382.583 280.402,380.416 283.5,378.5 Z"/></g>
<g><path style="opacity:1" fill="#282828" d="M 586.5,381.5 C 587.774,382.189 587.774,383.023 586.5,384C 583.475,385.688 580.475,387.021 577.5,388C 580.402,385.583 583.402,383.416 586.5,381.5 Z"/></g>
<g><path style="opacity:1" fill="#2c2c2c" d="M 407.5,383.5 C 409.337,383.639 409.67,384.306 408.5,385.5C 398.348,390.53 398.015,389.863 407.5,383.5 Z"/></g>
<g><path style="opacity:1" fill="#232323" d="M 348.5,386.5 C 350.842,386.775 350.842,387.608 348.5,389C 346.254,390.039 344.087,391.206 342,392.5C 341.383,391.551 341.549,390.718 342.5,390C 344.727,389.059 346.727,387.892 348.5,386.5 Z"/></g>
<g><path style="opacity:1" fill="#282828" d="M 298.5,388.5 C 299.774,389.189 299.774,390.023 298.5,391C 295.475,392.688 292.475,394.021 289.5,395C 292.402,392.583 295.402,390.416 298.5,388.5 Z"/></g>
<g><path style="opacity:1" fill="#1b1b1b" d="M 211.5,392.5 C 213.017,392.511 214.184,393.177 215,394.5C 216.612,391.921 218.112,391.921 219.5,394.5C 217.409,395.449 215.242,396.449 213,397.5C 210.527,396.26 210.027,394.593 211.5,392.5 Z"/></g>
</svg>
