<?xml version="1.0" encoding="UTF-8"?>
<!DOCTYPE svg PUBLIC "-//W3C//DTD SVG 1.1//EN" "http://www.w3.org/Graphics/SVG/1.1/DTD/svg11.dtd">
<svg xmlns="http://www.w3.org/2000/svg" version="1.1" width="1000px" height="500px" style="shape-rendering:geometricPrecision; text-rendering:geometricPrecision; image-rendering:optimizeQuality; fill-rule:evenodd; clip-rule:evenodd" xmlns:xlink="http://www.w3.org/1999/xlink">
<g><path style="opacity:1" fill="#fefefe" d="M -0.5,-0.5 C 332.833,-0.5 666.167,-0.5 999.5,-0.5C 999.5,166.167 999.5,332.833 999.5,499.5C 666.167,499.5 332.833,499.5 -0.5,499.5C -0.5,332.833 -0.5,166.167 -0.5,-0.5 Z"/></g>
<g><path style="opacity:1" fill="#171717" d="M 591.5,186.5 C 593.39,186.297 594.89,186.963 596,188.5C 596.562,190.866 596.396,193.199 595.5,195.5C 595.722,197.055 596.389,198.389 597.5,199.5C 597.081,200.672 596.415,201.672 595.5,202.5C 594.232,201.572 592.899,201.405 591.5,202C 589.315,204.588 586.648,206.421 583.5,207.5C 582.068,207.267 581.568,206.6 582,205.5C 584.333,203.833 586.667,202.167 589,200.5C 589.112,198.243 588.612,196.076 587.5,194C 587.927,190.977 589.261,188.477 591.5,186.5 Z"/></g>
<g><path style="opacity:1" fill="#0f0f0f" d="M 750.5,188.5 C 757.825,187.992 760.658,191.326 759,198.5C 756.839,202.124 753.672,203.291 749.5,202C 746.729,197.318 747.062,192.818 750.5,188.5 Z"/></g>
<g><path style="opacity:1" fill="#d9d9d9" d="M 590.5,191.5 C 591.995,191.415 592.995,192.081 593.5,193.5C 591.604,194.639 590.604,193.973 590.5,191.5 Z"/></g>
<g><path style="opacity:1" fill="#e0e0e0" d="M 750.5,191.5 C 753.683,191.929 756.016,193.596 757.5,196.5C 753.8,199.525 750.8,199.025 748.5,195C 748.978,193.697 749.645,192.531 750.5,191.5 Z"/></g>
<g><path style="opacity:1" fill="#121212" d="M 692.5,199.5 C 694.144,199.286 695.644,199.62 697,200.5C 697.684,203.38 697.517,206.213 696.5,209C 698.828,211.099 698.994,213.265 697,215.5C 696,214.833 695,214.167 694,213.5C 691.315,217.927 687.482,219.76 682.5,219C 685.423,216.955 688.257,214.788 691,212.5C 690.537,210.474 689.704,208.474 688.5,206.5C 689.576,204.014 690.909,201.681 692.5,199.5 Z"/></g>
<g><path style="opacity:1" fill="#dfdfdf" d="M 691.5,203.5 C 694.076,203.722 694.91,205.055 694,207.5C 692.519,206.529 691.685,205.196 691.5,203.5 Z"/></g>
<g><path style="opacity:1" fill="#161616" d="M 596.5,205.5 C 598.934,209.154 599.1,213.154 597,217.5C 594.925,219.648 592.592,219.982 590,218.5C 588.029,222.186 585.195,223.186 581.5,221.5C 580.022,218.024 580.188,214.691 582,211.5C 582.333,213.167 582.667,214.833 583,216.5C 583.561,217.022 584.228,217.355 585,217.5C 587.153,214.903 588.653,211.903 589.5,208.5C 589.976,211.119 591.309,213.119 593.5,214.5C 595.264,211.785 596.264,208.785 596.5,205.5 Z"/></g>
<g><path style="opacity:1" fill="#151515" d="M 759.5,213.5 C 761.358,214.595 763.025,215.929 764.5,217.5C 763.333,219.167 762.167,220.833 761,222.5C 759.028,221.695 757.528,220.361 756.5,218.5C 757.763,216.971 758.763,215.305 759.5,213.5 Z"/></g>
<g><path style="opacity:1" fill="#282828" d="M 391.5,212.5 C 393.842,212.775 393.842,213.608 391.5,215C 389.254,216.039 387.087,217.206 385,218.5C 384.383,217.551 384.549,216.718 385.5,216C 387.727,215.059 389.727,213.892 391.5,212.5 Z"/></g>
<g><path style="opacity:1" fill="#181818" d="M 563.5,216.5 C 570.276,215.776 573.11,218.776 572,225.5C 569.928,230.143 566.428,231.643 561.5,230C 558.397,224.886 559.064,220.386 563.5,216.5 Z"/></g>
<g><path style="opacity:1" fill="#121212" d="M 719.5,215.5 C 725.29,216.872 725.957,219.539 721.5,223.5C 716.957,221.863 716.29,219.197 719.5,215.5 Z"/></g>
<g><path style="opacity:1" fill="#161616" d="M 624.5,216.5 C 626.547,228.643 628.213,240.976 629.5,253.5C 629.145,257.921 628.312,262.254 627,266.5C 625.369,252.863 623.869,239.196 622.5,225.5C 622.449,222.303 623.115,219.303 624.5,216.5 Z"/></g>
<g><path style="opacity:1" fill="#1c1c1c" d="M 800.5,217.5 C 801.376,217.369 802.043,217.702 802.5,218.5C 801.352,220.149 800.019,221.649 798.5,223C 794.255,225.039 790.088,227.206 786,229.5C 785.289,227.633 785.789,226.133 787.5,225C 792.223,222.978 796.557,220.478 800.5,217.5 Z"/></g>
<g><path style="opacity:1" fill="#ececec" d="M 563.5,219.5 C 567.837,219.969 569.504,222.135 568.5,226C 562.244,226.934 560.577,224.767 563.5,219.5 Z"/></g>
<g><path style="opacity:1" fill="#1b1b1b" d="M 389.5,218.5 C 390.5,218.5 391.5,218.5 392.5,218.5C 392.5,219.5 392.5,220.5 392.5,221.5C 387.55,222.138 387.883,222.971 393.5,224C 390.975,225.616 388.309,226.616 385.5,227C 385.715,223.947 387.048,221.113 389.5,218.5 Z"/></g>
<g><path style="opacity:1" fill="#161616" d="M 376.5,223.5 C 381.668,224.339 382.668,226.839 379.5,231C 374.917,231.934 373.417,230.1 375,225.5C 375.717,224.956 376.217,224.289 376.5,223.5 Z"/></g>
<g><path style="opacity:1" fill="#dcdcdc" d="M 376.5,225.5 C 381.663,227.424 381.663,228.591 376.5,229C 375.316,227.855 375.316,226.688 376.5,225.5 Z"/></g>
<g><path style="opacity:1" fill="#0f0f0f" d="M 761.5,228.5 C 762.117,228.611 762.617,228.944 763,229.5C 764.108,235.816 765.108,242.15 766,248.5C 766.824,252.656 768.324,256.489 770.5,260C 780.68,261.372 790.347,259.706 799.5,255C 796.167,253.667 792.833,252.333 789.5,251C 786.05,250.825 782.717,250.658 779.5,250.5C 781.057,246.272 784.057,243.939 788.5,243.5C 794.367,245.099 800.034,247.265 805.5,250C 811.172,250.803 816.839,251.637 822.5,252.5C 821.754,253.736 821.421,255.07 821.5,256.5C 815.491,256.334 809.491,256.501 803.5,257C 795.908,259.796 788.575,263.13 781.5,267C 772.2,269.852 766.2,266.686 763.5,257.5C 758.335,264.746 751.335,267.579 742.5,266C 738.849,262.885 738.515,259.385 741.5,255.5C 743.471,258.937 746.471,260.27 750.5,259.5C 757.906,260.737 761.906,257.737 762.5,250.5C 761.374,245.537 760.374,240.537 759.5,235.5C 759.886,233.068 760.553,230.734 761.5,228.5 Z"/></g>
<g><path style="opacity:1" fill="#191919" d="M 407.5,231.5 C 409.252,231.418 410.252,232.251 410.5,234C 409.206,243.475 408.039,252.975 407,262.5C 404.196,264.344 401.03,265.011 397.5,264.5C 397.5,263.167 397.5,261.833 397.5,260.5C 401.075,260.548 403.409,258.881 404.5,255.5C 400.888,247.723 395.388,241.723 388,237.5C 387.333,236.167 387.333,234.833 388,233.5C 388.718,232.549 389.551,232.383 390.5,233C 396.428,238.924 401.594,245.424 406,252.5C 407.384,245.589 407.884,238.589 407.5,231.5 Z"/></g>
<g><path style="opacity:1" fill="#292929" d="M 271.5,230.5 C 272.774,231.189 272.774,232.023 271.5,233C 269.167,234.167 266.833,235.333 264.5,236.5C 264.167,236.167 263.833,235.833 263.5,235.5C 266.231,233.808 268.898,232.142 271.5,230.5 Z"/></g>
<g><path style="opacity:1" fill="#171717" d="M 349.5,235.5 C 350.953,243.543 352.286,251.709 353.5,260C 356.634,260.79 359.634,260.457 362.5,259C 358.553,254.827 359.72,252.327 366,251.5C 372.075,252.39 372.908,254.89 368.5,259C 373.139,260.932 377.806,260.932 382.5,259C 383.896,254.874 383.23,254.541 380.5,258C 379.216,258.684 378.049,258.517 377,257.5C 375.719,253.381 376.719,250.047 380,247.5C 385.085,250.671 386.418,255.005 384,260.5C 377.837,265.777 371.67,265.777 365.5,260.5C 361.74,264.18 357.407,265.18 352.5,263.5C 351.808,262.975 351.308,262.308 351,261.5C 349.495,252.816 348.995,244.149 349.5,235.5 Z"/></g>
<g><path style="opacity:1" fill="#151515" d="M 527.5,236.5 C 533.642,237.832 534.142,240.499 529,244.5C 523.82,242.52 523.32,239.854 527.5,236.5 Z"/></g>
<g><path style="opacity:1" fill="#282828" d="M 367.5,237.5 C 369.842,237.775 369.842,238.608 367.5,240C 364.942,241.626 362.275,242.626 359.5,243C 362.07,240.913 364.737,239.08 367.5,237.5 Z"/></g>
<g><path style="opacity:1" fill="#1d1d1d" d="M 417.5,235.5 C 419.153,244.629 419.653,253.963 419,263.5C 418.405,256.627 417.572,249.794 416.5,243C 416.555,240.413 416.889,237.913 417.5,235.5 Z"/></g>
<g><path style="opacity:1" fill="#1d1d1d" d="M 192.5,238.5 C 194.756,239.438 197.09,239.438 199.5,238.5C 199.688,240.103 199.188,241.437 198,242.5C 195.91,241.848 193.743,241.681 191.5,242C 191.167,241.667 190.833,241.333 190.5,241C 191.381,240.292 192.047,239.458 192.5,238.5 Z"/></g>
<g><path style="opacity:1" fill="#1e1e1e" d="M 239.5,236.5 C 241.198,233.876 243.031,233.876 245,236.5C 245.833,241 244,242.833 239.5,242C 238.193,240.057 238.193,238.223 239.5,236.5 Z"/></g>
<g><path style="opacity:1" fill="#dddddd" d="M 239.5,236.5 C 242.5,236.167 243.833,237.5 243.5,240.5C 240.5,240.833 239.167,239.5 239.5,236.5 Z"/></g>
<g><path style="opacity:1" fill="#2d2d2d" d="M 299.5,235.5 C 302.22,244.97 302.72,254.637 301,264.5C 299.246,254.836 298.746,245.169 299.5,235.5 Z"/></g>
<g><path style="opacity:1" fill="#1f1f1f" d="M 378.5,239.5 C 381.838,240.193 382.338,241.86 380,244.5C 379.075,243.953 378.242,243.287 377.5,242.5C 378.127,241.583 378.461,240.583 378.5,239.5 Z"/></g>
<g><path style="opacity:1" fill="#282828" d="M 219.5,240.5 C 221.842,240.775 221.842,241.608 219.5,243C 216.942,244.626 214.275,245.626 211.5,246C 214.07,243.913 216.737,242.08 219.5,240.5 Z"/></g>
<g><path style="opacity:1" fill="#131313" d="M 589.5,240.5 C 595.531,242.265 596.031,244.932 591,248.5C 586.878,246.614 586.378,243.947 589.5,240.5 Z"/></g>
<g><path style="opacity:1" fill="#111111" d="M 539.5,242.5 C 542.908,245.637 545.075,249.637 546,254.5C 548.629,276.88 539.129,285.38 517.5,280C 511.353,273.06 510.853,265.56 516,257.5C 513.16,269.662 517.994,275.495 530.5,275C 535.738,274.297 540.238,272.13 544,268.5C 544.667,265.833 544.667,263.167 544,260.5C 542.021,256.045 540.188,251.545 538.5,247C 538.773,245.467 539.106,243.967 539.5,242.5 Z"/></g>
<g><path style="opacity:1" fill="#161616" d="M 269.5,243.5 C 272.861,244.203 273.194,245.537 270.5,247.5C 268.358,246.563 268.024,245.23 269.5,243.5 Z"/></g>
<g><path style="opacity:1" fill="#131313" d="M 429.5,246.5 C 431.167,246.5 432.833,246.5 434.5,246.5C 434.5,248.167 434.5,249.833 434.5,251.5C 456.831,250.042 479.164,248.708 501.5,247.5C 501.5,248.833 501.5,250.167 501.5,251.5C 479.155,252.596 456.822,253.929 434.5,255.5C 434.5,257.5 434.5,259.5 434.5,261.5C 432.692,261.509 431.025,261.009 429.5,260C 426.764,258.638 424.431,256.804 422.5,254.5C 424.856,251.814 427.189,249.147 429.5,246.5 Z"/></g>
<g><path style="opacity:1" fill="#202020" d="M 342.5,263.5 C 341.833,261.167 341.167,258.833 340.5,256.5C 339.772,249.297 338.772,242.13 337.5,235C 338.509,231.918 339.842,231.918 341.5,235C 340.878,236.569 340.544,238.236 340.5,240C 341.956,247.767 342.623,255.6 342.5,263.5 Z"/></g>
<g><path style="opacity:1" fill="#101010" d="M 721.5,229.5 C 723.722,229.178 725.556,229.845 727,231.5C 736.047,248.353 731.214,258.853 712.5,263C 700.781,266.945 688.781,268.278 676.5,267C 663.223,261.865 661.057,253.698 670,242.5C 668.172,246.214 667.505,250.214 668,254.5C 671.016,258.092 674.849,260.258 679.5,261C 696.165,262.279 711.831,258.945 726.5,251C 729.95,248.842 730.283,246.342 727.5,243.5C 723.481,249.492 719.314,249.825 715,244.5C 714.954,238.588 717.12,233.588 721.5,229.5 Z"/></g>
<g><path style="opacity:1" fill="#dadada" d="M 718.5,236.5 C 721.757,236.174 723.257,237.507 723,240.5C 719.331,242.009 717.831,240.676 718.5,236.5 Z"/></g>
<g><path style="opacity:1" fill="#111111" d="M 607.5,212.5 C 610.339,213.176 612.005,215.009 612.5,218C 611.001,220.398 610.334,223.065 610.5,226C 611.337,233.191 612.337,240.358 613.5,247.5C 613.393,253.101 612.226,258.435 610,263.5C 606.208,267.128 601.708,268.294 596.5,267C 594.981,265.649 593.648,264.149 592.5,262.5C 588.1,266.891 582.767,268.558 576.5,267.5C 575.114,276.779 570.781,284.279 563.5,290C 556.938,292.443 550.938,291.443 545.5,287C 560.474,288.506 570.141,282.006 574.5,267.5C 570.612,267.655 567.112,266.655 564,264.5C 563.371,258.093 565.704,253.093 571,249.5C 575.199,251.888 577.365,255.555 577.5,260.5C 584.421,261.957 589.921,259.957 594,254.5C 596.248,260.233 600.414,262.067 606.5,260C 607.931,259.535 609.097,258.701 610,257.5C 610.667,253.167 610.667,248.833 610,244.5C 607.411,233.905 606.578,223.239 607.5,212.5 Z"/></g>
<g><path style="opacity:1" fill="#8c8c8c" d="M 378.5,251.5 C 380.332,252.14 380.665,253.14 379.5,254.5C 378.614,253.675 378.281,252.675 378.5,251.5 Z"/></g>
<g><path style="opacity:1" fill="#161616" d="M 290.5,233.5 C 291.88,233.962 292.547,234.962 292.5,236.5C 292.059,238.145 291.726,239.811 291.5,241.5C 293.776,248.133 293.942,254.8 292,261.5C 291.167,262.333 290.333,263.167 289.5,264C 285.5,264.667 281.5,264.667 277.5,264C 275.845,262.556 275.178,260.722 275.5,258.5C 273.473,258.338 271.473,258.505 269.5,259C 265.053,261.805 260.22,263.638 255,264.5C 252.621,264.518 250.454,263.851 248.5,262.5C 247.672,263.415 246.672,264.081 245.5,264.5C 243.128,263.897 240.961,262.897 239,261.5C 234.589,265.749 230.589,265.416 227,260.5C 224.633,263.932 221.966,264.265 219,261.5C 215.735,264.924 212.235,265.257 208.5,262.5C 203.044,265.873 198.711,264.873 195.5,259.5C 193.253,260.374 190.92,260.708 188.5,260.5C 188.427,255.735 190.594,252.401 195,250.5C 195.219,249.062 195.719,247.729 196.5,246.5C 197.298,251.08 198.298,255.58 199.5,260C 203.389,261.14 206.722,260.307 209.5,257.5C 213.394,261.533 217.061,261.199 220.5,256.5C 221.386,257.325 221.719,258.325 221.5,259.5C 224.238,260.035 226.072,259.035 227,256.5C 229.053,260.292 232.219,261.458 236.5,260C 238.977,258.357 241.31,256.524 243.5,254.5C 250.825,261.517 258.825,262.351 267.5,257C 264.23,256.005 260.897,255.172 257.5,254.5C 258.412,252.257 260.078,251.257 262.5,251.5C 266.325,252.164 269.992,253.331 273.5,255C 276.146,255.497 278.813,255.664 281.5,255.5C 281.5,256.5 281.5,257.5 281.5,258.5C 280.022,258.238 278.689,258.571 277.5,259.5C 281.851,260.775 286.185,260.775 290.5,259.5C 290.702,250.773 290.702,242.106 290.5,233.5 Z"/></g>
<g><path style="opacity:1" fill="#eeeeee" d="M 194.5,252.5 C 197.212,255.807 196.212,256.973 191.5,256C 192.71,254.961 193.71,253.794 194.5,252.5 Z"/></g>
<g><path style="opacity:1" fill="#f1f1f1" d="M 567.5,256.5 C 570.278,256.022 572.278,257.022 573.5,259.5C 569.857,261.395 567.857,260.395 567.5,256.5 Z"/></g>
<g><path style="opacity:1" fill="#cfcfcf" d="M 242.5,256.5 C 245.119,257.403 245.786,259.069 244.5,261.5C 241.807,260.468 241.14,258.802 242.5,256.5 Z"/></g>
<g><path style="opacity:1" fill="#949494" d="M 340.5,256.5 C 341.167,258.833 341.833,261.167 342.5,263.5C 342.672,264.492 342.338,265.158 341.5,265.5C 341.5,264.833 341.167,264.5 340.5,264.5C 340.5,261.833 340.5,259.167 340.5,256.5 Z"/></g>
<g><path style="opacity:1" fill="#a8a8a8" d="M 404.5,258.5 C 405.376,258.369 406.043,258.702 406.5,259.5C 404.192,260.873 403.525,260.54 404.5,258.5 Z"/></g>
<g><path style="opacity:1" fill="#666666" d="M 324.5,263.5 C 323.833,262.833 323.167,262.167 322.5,261.5C 323.159,259.862 323.826,258.195 324.5,256.5C 325.002,255.479 325.668,255.312 326.5,256C 324.887,258.228 324.22,260.728 324.5,263.5 Z"/></g>
<g><path style="opacity:1" fill="#161616" d="M 322.5,261.5 C 323.167,262.167 323.833,262.833 324.5,263.5C 325.515,266.436 327.682,267.769 331,267.5C 334.415,267.194 337.582,266.194 340.5,264.5C 341.167,264.5 341.5,264.833 341.5,265.5C 337.8,270.676 332.8,272.509 326.5,271C 323.037,268.805 321.704,265.639 322.5,261.5 Z"/></g>
<g><path style="opacity:1" fill="#282828" d="M 196.5,269.5 C 197.774,270.189 197.774,271.023 196.5,272C 193.475,273.688 190.475,275.021 187.5,276C 190.402,273.583 193.402,271.416 196.5,269.5 Z"/></g>
<g><path style="opacity:1" fill="#2c2c2c" d="M 334.5,274.5 C 336.337,274.639 336.67,275.306 335.5,276.5C 325.348,281.53 325.015,280.863 334.5,274.5 Z"/></g>
<g><path style="opacity:1" fill="#191919" d="M 536.5,288.5 C 537.522,289.892 537.189,291.225 535.5,292.5C 531.326,295.088 526.993,297.421 522.5,299.5C 521.269,298.349 521.269,297.183 522.5,296C 527.387,293.726 532.054,291.226 536.5,288.5 Z"/></g>
</svg>
