<?xml version="1.0" encoding="UTF-8"?>
<!DOCTYPE svg PUBLIC "-//W3C//DTD SVG 1.1//EN" "http://www.w3.org/Graphics/SVG/1.1/DTD/svg11.dtd">
<svg xmlns="http://www.w3.org/2000/svg" version="1.1" width="1000px" height="500px" style="shape-rendering:geometricPrecision; text-rendering:geometricPrecision; image-rendering:optimizeQuality; fill-rule:evenodd; clip-rule:evenodd" xmlns:xlink="http://www.w3.org/1999/xlink">
<g><path style="opacity:1" fill="#fefefe" d="M -0.5,-0.5 C 332.833,-0.5 666.167,-0.5 999.5,-0.5C 999.5,166.167 999.5,332.833 999.5,499.5C 666.167,499.5 332.833,499.5 -0.5,499.5C -0.5,332.833 -0.5,166.167 -0.5,-0.5 Z"/></g>
<g><path style="opacity:1" fill="#131313" d="M 320.5,70.5 C 321.822,70.33 322.989,70.6634 324,71.5C 323.601,74.5304 323.768,77.5304 324.5,80.5C 324.167,82.8333 323.167,83.1667 321.5,81.5C 320.019,82.4803 318.685,83.647 317.5,85C 316.167,85.6667 314.833,85.6667 313.5,85C 315.976,83.6912 317.976,81.8579 319.5,79.5C 316.998,76.2905 317.331,73.2905 320.5,70.5 Z"/></g>
<g><path style="opacity:1" fill="#1a1a1a" d="M 387.5,73.5 C 389.549,73.7058 389.883,74.5391 388.5,76C 374.257,83.0133 373.924,82.18 387.5,73.5 Z"/></g>
<g><path style="opacity:1" fill="#a0a0a0" d="M 319.5,73.5 C 320.995,73.4148 321.995,74.0815 322.5,75.5C 320.604,76.6394 319.604,75.9728 319.5,73.5 Z"/></g>
<g><path style="opacity:1" fill="#181818" d="M 389.5,80.5 C 391.027,83.7956 390.693,86.9623 388.5,90C 385.079,90.8495 381.746,91.5162 378.5,92C 377.398,89.5991 377.231,87.0991 378,84.5C 378.112,87.4471 379.612,88.7804 382.5,88.5C 382.908,82.338 384.241,81.6714 386.5,86.5C 388.553,85.0606 389.553,83.0606 389.5,80.5 Z"/></g>
<g><path style="opacity:1" fill="#1c1c1c" d="M 349.5,79.5 C 350.776,80.3864 350.776,81.3864 349.5,82.5C 346.081,84.6265 342.581,86.6265 339,88.5C 338.493,87.0039 338.993,85.8373 340.5,85C 343.898,83.6429 346.898,81.8096 349.5,79.5 Z"/></g>
<g><path style="opacity:1" fill="#1c1c1c" d="M 349.5,87.5 C 351.996,90.4095 351.996,93.5761 349.5,97C 346.462,97.3359 343.628,98.1693 341,99.5C 338.526,99.0642 337.359,97.5642 337.5,95C 338.868,90.2336 339.534,90.4003 339.5,95.5C 342.888,95.1261 344.722,93.1261 345,89.5C 348.191,94.8344 349.691,94.1677 349.5,87.5 Z"/></g>
<g><path style="opacity:1" fill="#282828" d="M 428.5,90.5 C 430.269,99.4601 431.602,108.627 432.5,118C 432.421,121.741 431.587,125.241 430,128.5C 429.249,118.824 428.415,109.158 427.5,99.5C 427.544,96.4153 427.878,93.4153 428.5,90.5 Z"/></g>
<g><path style="opacity:1" fill="#191919" d="M 319.5,93.5 C 321.639,96.0409 323.806,96.0409 326,93.5C 330.334,95.0382 330.501,97.0382 326.5,99.5C 325.5,98.8333 324.5,98.1667 323.5,97.5C 317.797,100.464 316.464,99.1305 319.5,93.5 Z"/></g>
<g><path style="opacity:1" fill="#121212" d="M 386.5,101.5 C 390.161,101.35 391.161,102.85 389.5,106C 385.707,106.487 384.707,104.987 386.5,101.5 Z"/></g>
<g><path style="opacity:1" fill="#121212" d="M 416.5,86.5 C 417.652,87.8336 418.652,89.3336 419.5,91C 418.399,93.0353 417.732,95.2019 417.5,97.5C 420.837,106.825 421.004,116.159 418,125.5C 417.097,126.701 415.931,127.535 414.5,128C 403.5,128.333 392.5,128.667 381.5,129C 380.91,130.509 380.244,132.009 379.5,133.5C 378.355,132.224 378.355,130.891 379.5,129.5C 375.859,129.205 373.025,127.539 371,124.5C 365.674,129.454 360.007,129.787 354,125.5C 353.945,127.885 352.778,129.219 350.5,129.5C 347.441,128.221 344.608,126.554 342,124.5C 338.072,127.881 333.572,129.048 328.5,128C 327.076,125.899 325.742,123.733 324.5,121.5C 320.558,124.291 316.891,124.125 313.5,121C 314.89,116.111 317.89,112.611 322.5,110.5C 323.167,108.5 323.833,106.5 324.5,104.5C 326.095,110.065 327.261,115.732 328,121.5C 331.588,123.845 335.421,124.011 339.5,122C 341.758,119.233 344.425,117.066 347.5,115.5C 351.005,118.161 354.672,120.661 358.5,123C 364.378,124.653 369.212,123.153 373,118.5C 374.449,123.218 377.615,124.718 382.5,123C 386.908,116.304 392.908,111.804 400.5,109.5C 405.857,110.199 407.69,113.199 406,118.5C 404.5,120 403,121.5 401.5,123C 405.833,123.667 410.167,123.667 414.5,123C 417.683,121.982 419.016,119.815 418.5,116.5C 417.005,108.699 415.672,100.866 414.5,93C 414.482,90.5897 415.149,88.423 416.5,86.5 Z"/></g>
<g><path style="opacity:1" fill="#d9d9d9" d="M 322.5,112.5 C 324.28,113.99 324.946,115.99 324.5,118.5C 315.911,119.029 315.245,117.029 322.5,112.5 Z"/></g>
<g><path style="opacity:1" fill="#f3f3f3" d="M 393.5,115.5 C 396.187,115.336 398.854,115.503 401.5,116C 403.481,116.605 403.815,117.605 402.5,119C 396.81,121.924 390.81,123.257 384.5,123C 387.106,119.882 390.106,117.382 393.5,115.5 Z"/></g>
<g><path style="opacity:1" fill="#101010" d="M 465.5,116.5 C 469.874,117.344 474.207,118.344 478.5,119.5C 477.589,122.272 476.756,124.939 476,127.5C 504.695,168.696 533.195,210.029 561.5,251.5C 561.868,253.506 561.368,255.506 560,257.5C 531.589,295.989 503.422,334.656 475.5,373.5C 477.415,375.071 478.415,377.071 478.5,379.5C 474.207,380.656 469.874,381.656 465.5,382.5C 465.334,378.154 465.501,373.821 466,369.5C 466.414,369.043 466.914,368.709 467.5,368.5C 469.713,371.08 471.88,371.08 474,368.5C 500.307,332.027 526.807,295.693 553.5,259.5C 553.167,259.167 552.833,258.833 552.5,258.5C 528.29,269.292 503.957,279.792 479.5,290C 479.167,292.333 478.833,294.667 478.5,297C 474.618,296.6 470.785,295.767 467,294.5C 466.333,293.167 466.333,291.833 467,290.5C 468.626,288.083 470.126,285.583 471.5,283C 474.49,282.153 475.824,283.32 475.5,286.5C 502.415,276.025 529.082,264.859 555.5,253C 529.167,239.5 502.833,226 476.5,212.5C 475.376,213.914 474.376,215.414 473.5,217C 472.551,217.617 471.718,217.451 471,216.5C 468.467,212.797 467.134,208.797 467,204.5C 470.751,203.345 474.585,202.845 478.5,203C 478.833,205.333 479.167,207.667 479.5,210C 504.399,222.619 529.066,234.785 553.5,246.5C 526.504,206.695 499.004,167.362 471,128.5C 469.433,129.856 467.6,130.523 465.5,130.5C 465.5,125.833 465.5,121.167 465.5,116.5 Z"/></g>
<g><path style="opacity:1" fill="#dddddd" d="M 346.5,117.5 C 349.247,118.973 350.081,121.306 349,124.5C 344.647,123.079 343.813,120.746 346.5,117.5 Z"/></g>
<g><path style="opacity:1" fill="#121212" d="M 392.5,158.5 C 398.711,159.996 400.045,163.496 396.5,169C 389.923,170.591 387.756,168.091 390,161.5C 391.045,160.627 391.878,159.627 392.5,158.5 Z"/></g>
<g><path style="opacity:1" fill="#e7e7e7" d="M 391.5,161.5 C 394.833,161.5 396.5,163.167 396.5,166.5C 391.58,167.585 389.913,165.918 391.5,161.5 Z"/></g>
<g><path style="opacity:1" fill="#1b1b1b" d="M 345.5,174.5 C 347.849,174.458 349.182,175.625 349.5,178C 349.076,180.854 348.743,183.687 348.5,186.5C 345.946,185.473 343.946,186.306 342.5,189C 340.833,189.667 339.167,189.667 337.5,189C 340.009,187.579 342.343,185.912 344.5,184C 341.753,180.553 342.087,177.386 345.5,174.5 Z"/></g>
<g><path style="opacity:1" fill="#dcdcdc" d="M 344.5,177.5 C 346.085,178.002 346.585,179.002 346,180.5C 344.961,179.756 344.461,178.756 344.5,177.5 Z"/></g>
<g><path style="opacity:1" fill="#282828" d="M 359.5,179.5 C 361.269,188.46 362.602,197.627 363.5,207C 363.421,210.741 362.587,214.241 361,217.5C 360.249,207.824 359.415,198.158 358.5,188.5C 358.544,185.415 358.878,182.415 359.5,179.5 Z"/></g>
<g><path style="opacity:1" fill="#0f0f0f" d="M 406.5,180.5 C 407.167,182.167 407.833,183.833 408.5,185.5C 409.093,192.834 409.759,200.167 410.5,207.5C 410.493,210.592 409.993,213.592 409,216.5C 408.326,206.442 407.159,196.442 405.5,186.5C 405.672,184.452 406.005,182.452 406.5,180.5 Z"/></g>
<g><path style="opacity:1" fill="#656565" d="M 408.5,185.5 C 407.833,183.833 407.167,182.167 406.5,180.5C 406.783,179.711 407.283,179.044 408,178.5C 408.497,180.81 408.663,183.143 408.5,185.5 Z"/></g>
<g><path style="opacity:1" fill="#1b1b1b" d="M 382.5,183.5 C 383.645,184.793 383.311,185.959 381.5,187C 378.5,188.5 375.5,190 372.5,191.5C 372.167,191.167 371.833,190.833 371.5,190.5C 375.026,187.906 378.692,185.573 382.5,183.5 Z"/></g>
<g><path style="opacity:1" fill="#161616" d="M 619.5,187.5 C 627.944,188.711 630.444,193.378 627,201.5C 619.551,207.973 615.051,206.306 613.5,196.5C 613.944,192.402 615.944,189.402 619.5,187.5 Z"/></g>
<g><path style="opacity:1" fill="#f1f1f1" d="M 616.5,192.5 C 621.85,191.385 624.683,193.385 625,198.5C 622.599,199.602 620.099,199.769 617.5,199C 615.166,197.158 614.832,194.991 616.5,192.5 Z"/></g>
<g><path style="opacity:1" fill="#151515" d="M 660.5,201.5 C 662.981,202.696 662.981,204.196 660.5,206C 655.325,209.088 649.992,211.921 644.5,214.5C 643.246,212.741 643.579,211.241 645.5,210C 650.887,207.646 655.887,204.812 660.5,201.5 Z"/></g>
<g><path style="opacity:1" fill="#131313" d="M 394.5,176.5 C 396.701,176.858 398.035,178.192 398.5,180.5C 397.007,182.364 396.34,184.53 396.5,187C 398.256,194.415 398.756,201.915 398,209.5C 396.411,216.051 392.244,218.718 385.5,217.5C 384.464,224.072 381.464,229.572 376.5,234C 371.386,236.37 366.72,235.703 362.5,232C 373.655,233.364 380.655,228.531 383.5,217.5C 381.011,217.702 378.677,217.202 376.5,216C 375.591,212.245 376.425,208.745 379,205.5C 380.667,204.167 382.333,204.167 384,205.5C 385.202,207.677 385.702,210.011 385.5,212.5C 389.603,213.231 393.103,212.231 396,209.5C 395.776,200.31 394.943,191.144 393.5,182C 393.581,180.076 393.914,178.243 394.5,176.5 Z"/></g>
<g><path style="opacity:1" fill="#0f0f0f" d="M 704.5,207.5 C 707.017,209.347 708.683,211.847 709.5,215C 707.667,217.337 706.667,220.003 706.5,223C 707.577,231.715 708.91,240.382 710.5,249C 710.229,256.134 708.729,262.967 706,269.5C 695.187,276.737 687.354,274.404 682.5,262.5C 680.247,270.628 674.914,274.294 666.5,273.5C 665.659,282.68 661.993,290.513 655.5,297C 648.167,301.667 640.833,301.667 633.5,297C 648.4,296.891 658.4,289.891 663.5,276C 661.889,273.445 660.556,270.778 659.5,268C 659.615,266.105 660.282,264.438 661.5,263C 664,264.867 667,265.701 670.5,265.5C 675.928,266.037 679.428,263.704 681,258.5C 681.394,244.939 680.561,231.439 678.5,218C 678.109,214.866 679.109,212.366 681.5,210.5C 683.33,225.119 684.83,239.786 686,254.5C 686.377,264.214 691.21,267.714 700.5,265C 707.187,262.419 709.354,257.586 707,250.5C 704.963,239.039 703.13,227.539 701.5,216C 701.801,212.903 702.801,210.07 704.5,207.5 Z"/></g>
<g><path style="opacity:1" fill="#d0d0d0" d="M 379.5,208.5 C 381.384,208.712 382.717,209.712 383.5,211.5C 379.672,213.252 378.339,212.252 379.5,208.5 Z"/></g>
<g><path style="opacity:1" fill="#151515" d="M 662.5,212.5 C 665.04,217.294 664.873,222.294 662,227.5C 659.26,228.282 656.426,228.782 653.5,229C 647.883,235.351 644.216,234.351 642.5,226C 644.082,218.023 645.248,217.857 646,225.5C 647.938,226.86 649.604,226.527 651,224.5C 651.689,221.592 652.855,218.925 654.5,216.5C 655.298,218.078 655.798,219.744 656,221.5C 657.049,222.517 658.216,222.684 659.5,222C 660.815,218.919 661.815,215.753 662.5,212.5 Z"/></g>
<g><path style="opacity:1" fill="#151515" d="M 345.5,200.5 C 349.224,200.05 351.391,201.717 352,205.5C 354.024,217.436 350.524,227.27 341.5,235C 337.511,235.908 333.845,235.241 330.5,233C 340.263,233.24 346.763,228.74 350,219.5C 350.808,217.421 350.641,215.421 349.5,213.5C 347.287,216.08 345.12,216.08 343,213.5C 341.966,208.742 342.799,204.409 345.5,200.5 Z"/></g>
<g><path style="opacity:1" fill="#d4d4d4" d="M 345.5,206.5 C 347.465,206.948 347.798,207.948 346.5,209.5C 345.614,208.675 345.281,207.675 345.5,206.5 Z"/></g>
<g><path style="opacity:1" fill="#0d0d0d" d="M 622.5,221.5 C 629.704,222.985 630.371,225.985 624.5,230.5C 618.691,228.565 618.024,225.565 622.5,221.5 Z"/></g>
<g><path style="opacity:1" fill="#222222" d="M 392.5,235.5 C 394.49,235.993 394.49,237.16 392.5,239C 388.921,240.706 385.421,242.539 382,244.5C 381.493,243.004 381.993,241.837 383.5,241C 386.898,239.643 389.898,237.81 392.5,235.5 Z"/></g>
<g><path style="opacity:1" fill="#0d0d0d" d="M 623.5,237.5 C 626.785,237.269 629.285,238.603 631,241.5C 634.924,246.931 636.591,252.931 636,259.5C 635.152,262.698 633.652,265.531 631.5,268C 615.854,277.024 601.854,275.19 589.5,262.5C 578.854,267.968 572.188,276.468 569.5,288C 571.528,301.025 579.194,308.358 592.5,310C 603.167,310.333 613.833,310.667 624.5,311C 613.376,316.269 601.709,318.602 589.5,318C 571.2,314.261 563.7,303.094 567,284.5C 570.278,274.718 575.778,266.384 583.5,259.5C 581.664,258.081 579.664,256.914 577.5,256C 577.672,251.113 580.339,247.78 585.5,246C 591.816,244.574 596.983,246.407 601,251.5C 601.667,252.833 601.667,254.167 601,255.5C 599.075,256.88 597.241,258.38 595.5,260C 597.901,262.062 600.567,263.729 603.5,265C 612.816,266.372 621.816,265.372 630.5,262C 633.95,259.842 634.283,257.342 631.5,254.5C 627.93,260.846 623.43,261.846 618,257.5C 616.495,249.857 618.328,243.19 623.5,237.5 Z"/></g>
<g><path style="opacity:1" fill="#232323" d="M 411.5,242.5 C 415.113,242.78 417.113,244.78 417.5,248.5C 416.073,253.246 413.073,254.579 408.5,252.5C 406.744,248.248 407.744,244.914 411.5,242.5 Z"/></g>
<g><path style="opacity:1" fill="#e5e5e5" d="M 410.5,245.5 C 412.645,245.738 414.312,246.738 415.5,248.5C 413.977,250.283 411.977,250.949 409.5,250.5C 409.366,248.708 409.699,247.042 410.5,245.5 Z"/></g>
<g><path style="opacity:1" fill="#ededed" d="M 622.5,246.5 C 625.487,246.948 626.487,248.448 625.5,251C 621.707,251.487 620.707,249.987 622.5,246.5 Z"/></g>
<g><path style="opacity:1" fill="#1b1b1b" d="M 387.5,244.5 C 388.833,244.5 390.167,244.5 391.5,244.5C 391.5,245.833 391.5,247.167 391.5,248.5C 386.04,248.461 385.54,249.461 390,251.5C 390.873,251.265 391.707,250.931 392.5,250.5C 393.521,251.002 393.688,251.668 393,252.5C 389.896,254.484 386.729,255.484 383.5,255.5C 383.977,254.522 384.643,253.689 385.5,253C 384.643,252.311 383.977,251.478 383.5,250.5C 384.467,248.21 385.8,246.21 387.5,244.5 Z"/></g>
<g><path style="opacity:1" fill="#0e0e0e" d="M 412.5,260.5 C 414.257,261.292 415.591,262.625 416.5,264.5C 414.793,273.935 413.127,283.435 411.5,293C 414.078,303.92 409.745,308.086 398.5,305.5C 398.5,303.833 398.5,302.167 398.5,300.5C 404.656,300.513 407.49,297.513 407,291.5C 404.247,286.992 401.247,282.659 398,278.5C 394.333,275.833 390.667,273.167 387,270.5C 384.968,267.577 385.302,264.911 388,262.5C 396.859,270.685 404.192,280.019 410,290.5C 412.252,280.642 413.085,270.642 412.5,260.5 Z"/></g>
<g><path style="opacity:1" fill="#131313" d="M 338.5,263.5 C 339.822,263.33 340.989,263.663 342,264.5C 341.601,267.53 341.768,270.53 342.5,273.5C 342.167,275.833 341.167,276.167 339.5,274.5C 338.019,275.48 336.685,276.647 335.5,278C 334.167,278.667 332.833,278.667 331.5,278C 333.976,276.691 335.976,274.858 337.5,272.5C 334.998,269.29 335.331,266.29 338.5,263.5 Z"/></g>
<g><path style="opacity:1" fill="#a0a0a0" d="M 337.5,266.5 C 338.995,266.415 339.995,267.081 340.5,268.5C 338.604,269.639 337.604,268.973 337.5,266.5 Z"/></g>
<g><path style="opacity:1" fill="#161616" d="M 425.5,267.5 C 426.886,276.477 427.886,285.643 428.5,295C 428.528,298.59 428.028,302.09 427,305.5C 426.736,295.058 425.57,284.724 423.5,274.5C 423.442,271.922 424.109,269.589 425.5,267.5 Z"/></g>
<g><path style="opacity:1" fill="#1b1b1b" d="M 359.5,275.5 C 364.1,276.482 364.6,278.482 361,281.5C 357.155,280.177 356.655,278.177 359.5,275.5 Z"/></g>
<g><path style="opacity:1" fill="#181818" d="M 710.5,282.5 C 711.376,282.369 712.043,282.702 712.5,283.5C 711.872,285.258 710.872,286.758 709.5,288C 704.041,290.632 698.708,293.465 693.5,296.5C 692.246,294.741 692.579,293.241 694.5,292C 700.062,289.059 705.395,285.892 710.5,282.5 Z"/></g>
<g><path style="opacity:1" fill="#141414" d="M 377.5,263.5 C 378.652,264.834 379.652,266.334 380.5,268C 379.399,270.035 378.732,272.202 378.5,274.5C 381.228,282.741 381.728,291.074 380,299.5C 378.457,304.278 375.124,306.278 370,305.5C 366.813,305.606 363.813,304.939 361,303.5C 349.463,309.274 337.296,311.441 324.5,310C 316.801,305.838 315.635,300.338 321,293.5C 318.974,299.192 320.808,303.025 326.5,305C 335.438,306.234 344.105,305.234 352.5,302C 353.968,297.921 355.468,293.754 357,289.5C 360.479,284.05 363.479,284.383 366,290.5C 366.798,293.711 366.298,296.711 364.5,299.5C 368.917,300.87 373.25,300.703 377.5,299C 379.007,297.527 379.674,295.693 379.5,293.5C 378.005,285.699 376.672,277.866 375.5,270C 375.482,267.59 376.149,265.423 377.5,263.5 Z"/></g>
<g><path style="opacity:1" fill="#e3e3e3" d="M 360.5,290.5 C 362.257,291.292 363.591,292.625 364.5,294.5C 361.855,299.081 359.188,299.247 356.5,295C 357.357,292.981 358.691,291.481 360.5,290.5 Z"/></g>
<g><path style="opacity:1" fill="#cecece" d="M 408.5,297.5 C 410.048,297.821 410.715,298.821 410.5,300.5C 406.36,301.044 405.693,300.044 408.5,297.5 Z"/></g>
<g><path style="opacity:1" fill="#1c1c1c" d="M 380.5,311.5 C 382.656,311.872 382.656,312.872 380.5,314.5C 377.339,315.913 374.339,317.58 371.5,319.5C 371.167,319.167 370.833,318.833 370.5,318.5C 373.513,315.664 376.846,313.331 380.5,311.5 Z"/></g>
<g><path style="opacity:1" fill="#121212" d="M 599.5,323.5 C 601.688,324.536 601.688,326.036 599.5,328C 594.008,330.579 588.675,333.412 583.5,336.5C 582.246,334.741 582.579,333.241 584.5,332C 589.563,329.139 594.563,326.306 599.5,323.5 Z"/></g>
<g><path style="opacity:1" fill="#181818" d="M 388.5,333.5 C 390.124,333.36 391.29,334.027 392,335.5C 391.702,338.377 391.868,341.21 392.5,344C 392.167,344.5 391.833,345 391.5,345.5C 390.549,344.674 389.549,344.508 388.5,345C 386.898,347.111 384.898,348.611 382.5,349.5C 381.833,349.167 381.167,348.833 380.5,348.5C 383.257,347.247 385.591,345.413 387.5,343C 384.951,339.648 385.284,336.481 388.5,333.5 Z"/></g>
<g><path style="opacity:1" fill="#e7e7e7" d="M 387.5,338.5 C 388.077,337.227 388.743,337.227 389.5,338.5C 389.03,339.463 388.363,339.463 387.5,338.5 Z"/></g>
<g><path style="opacity:1" fill="#181818" d="M 392.5,348.5 C 394.027,351.796 393.693,354.962 391.5,358C 388.079,358.85 384.746,359.516 381.5,360C 380.398,357.599 380.231,355.099 381,352.5C 381.112,355.447 382.612,356.78 385.5,356.5C 385.908,350.338 387.241,349.671 389.5,354.5C 391.553,353.061 392.553,351.061 392.5,348.5 Z"/></g>
<g><path style="opacity:1" fill="#1b1b1b" d="M 340.5,347.5 C 342.849,347.458 344.182,348.625 344.5,351C 344.076,353.854 343.743,356.687 343.5,359.5C 340.946,358.473 338.946,359.306 337.5,362C 335.833,362.667 334.167,362.667 332.5,362C 335.009,360.579 337.343,358.912 339.5,357C 336.753,353.553 337.087,350.386 340.5,347.5 Z"/></g>
<g><path style="opacity:1" fill="#dcdcdc" d="M 339.5,350.5 C 341.085,351.002 341.585,352.002 341,353.5C 339.961,352.756 339.461,351.756 339.5,350.5 Z"/></g>
<g><path style="opacity:1" fill="#232323" d="M 368.5,355.5 C 372.113,355.78 374.113,357.78 374.5,361.5C 373.073,366.246 370.073,367.579 365.5,365.5C 363.744,361.248 364.744,357.914 368.5,355.5 Z"/></g>
<g><path style="opacity:1" fill="#161616" d="M 413.5,356.5 C 414.886,365.477 415.886,374.643 416.5,384C 416.528,387.59 416.028,391.09 415,394.5C 414.736,384.058 413.57,373.724 411.5,363.5C 411.442,360.922 412.109,358.589 413.5,356.5 Z"/></g>
<g><path style="opacity:1" fill="#e5e5e5" d="M 367.5,358.5 C 369.645,358.738 371.312,359.738 372.5,361.5C 370.977,363.283 368.977,363.949 366.5,363.5C 366.366,361.708 366.699,360.042 367.5,358.5 Z"/></g>
<g><path style="opacity:1" fill="#1a1a1a" d="M 340.5,370.5 C 345.506,372.293 345.673,374.293 341,376.5C 339.72,376.387 338.887,375.72 338.5,374.5C 339.18,373.14 339.847,371.807 340.5,370.5 Z"/></g>
<g><path style="opacity:1" fill="#181818" d="M 386.5,374.5 C 391.889,375.179 392.555,377.179 388.5,380.5C 385.513,379.205 384.846,377.205 386.5,374.5 Z"/></g>
<g><path style="opacity:1" fill="#111111" d="M 400.5,353.5 C 402.701,353.858 404.035,355.192 404.5,357.5C 403.063,359.021 402.396,360.855 402.5,363C 404.24,371.096 404.74,379.263 404,387.5C 402.535,393.653 398.702,395.82 392.5,394C 391.333,392.833 390.167,391.667 389,390.5C 385.96,393.966 382.126,395.3 377.5,394.5C 376.464,401.072 373.464,406.572 368.5,411C 363.386,413.37 358.72,412.703 354.5,409C 365.655,410.364 372.655,405.531 375.5,394.5C 373.011,394.702 370.677,394.202 368.5,393C 367.591,389.245 368.425,385.745 371,382.5C 372.667,381.167 374.333,381.167 376,382.5C 377.202,384.677 377.702,387.011 377.5,389.5C 383.07,390.584 387.57,388.917 391,384.5C 393.241,389.942 396.908,390.942 402,387.5C 402.875,386.127 403.375,384.627 403.5,383C 401.108,373.193 400.108,363.36 400.5,353.5 Z"/></g>
<g><path style="opacity:1" fill="#d0d0d0" d="M 371.5,385.5 C 373.384,385.712 374.717,386.712 375.5,388.5C 371.672,390.252 370.339,389.252 371.5,385.5 Z"/></g>
<g><path style="opacity:1" fill="#121212" d="M 349.5,375.5 C 351.746,377.649 353.246,380.316 354,383.5C 356.757,401.25 349.591,407.917 332.5,403.5C 328.77,398.083 328.603,392.417 332,386.5C 329.329,396.497 333.162,400.997 343.5,400C 347.062,399.261 350.228,397.761 353,395.5C 353.667,393.5 353.667,391.5 353,389.5C 351.638,385.942 350.138,382.442 348.5,379C 348.989,377.862 349.322,376.695 349.5,375.5 Z"/></g>
</svg>
