<?xml version="1.0" encoding="UTF-8"?>
<!DOCTYPE svg PUBLIC "-//W3C//DTD SVG 1.1//EN" "http://www.w3.org/Graphics/SVG/1.1/DTD/svg11.dtd">
<svg xmlns="http://www.w3.org/2000/svg" version="1.1" width="1000px" height="500px" style="shape-rendering:geometricPrecision; text-rendering:geometricPrecision; image-rendering:optimizeQuality; fill-rule:evenodd; clip-rule:evenodd" xmlns:xlink="http://www.w3.org/1999/xlink">
<g><path style="opacity:1" fill="#fefefe" d="M -0.5,-0.5 C 332.833,-0.5 666.167,-0.5 999.5,-0.5C 999.5,166.167 999.5,332.833 999.5,499.5C 666.167,499.5 332.833,499.5 -0.5,499.5C -0.5,332.833 -0.5,166.167 -0.5,-0.5 Z"/></g>
<g><path style="opacity:1" fill="#282828" d="M 405.5,166.5 C 406.774,167.189 406.774,168.023 405.5,169C 403.167,170.167 400.833,171.333 398.5,172.5C 398.167,172.167 397.833,171.833 397.5,171.5C 400.231,169.808 402.898,168.142 405.5,166.5 Z"/></g>
<g><path style="opacity:1" fill="#282828" d="M 433.5,170.5 C 435.842,170.775 435.842,171.608 433.5,173C 430.942,174.626 428.275,175.626 425.5,176C 428.07,173.913 430.737,172.08 433.5,170.5 Z"/></g>
<g><path style="opacity:1" fill="#1f1f1f" d="M 405.5,172.5 C 408.041,174.44 408.041,176.607 405.5,179C 403.094,179.306 400.927,180.139 399,181.5C 397.115,181.138 396.281,179.971 396.5,178C 396.833,177.167 397.167,176.333 397.5,175.5C 399.335,179.265 400.835,178.932 402,174.5C 402.71,175.973 403.876,176.64 405.5,176.5C 405.5,175.167 405.5,173.833 405.5,172.5 Z"/></g>
<g><path style="opacity:1" fill="#222222" d="M 530.5,181.5 C 535.942,181.886 537.275,184.386 534.5,189C 532.866,189.494 531.199,189.66 529.5,189.5C 529.351,188.448 529.517,187.448 530,186.5C 531.356,187.38 532.856,187.714 534.5,187.5C 534.278,184.315 532.778,183.315 530,184.5C 529.53,183.423 529.697,182.423 530.5,181.5 Z"/></g>
<g><path style="opacity:1" fill="#282828" d="M 335.5,178.5 C 336.774,179.189 336.774,180.023 335.5,181C 333.167,182.167 330.833,183.333 328.5,184.5C 328.167,184.167 327.833,183.833 327.5,183.5C 330.231,181.808 332.898,180.142 335.5,178.5 Z"/></g>
<g><path style="opacity:1" fill="#141414" d="M 433.5,182.5 C 436.861,183.203 437.194,184.537 434.5,186.5C 432.358,185.563 432.024,184.23 433.5,182.5 Z"/></g>
<g><path style="opacity:1" fill="#1d1d1d" d="M 361.5,183.5 C 363.153,192.629 363.653,201.963 363,211.5C 362.405,204.627 361.572,197.794 360.5,191C 360.555,188.413 360.889,185.913 361.5,183.5 Z"/></g>
<g><path style="opacity:1" fill="#1d1d1d" d="M 479.5,183.5 C 481.153,192.629 481.653,201.963 481,211.5C 480.405,204.627 479.572,197.794 478.5,191C 478.555,188.413 478.889,185.913 479.5,183.5 Z"/></g>
<g><path style="opacity:1" fill="#242424" d="M 559.5,184.5 C 560.774,185.189 560.774,186.023 559.5,187C 556.942,188.626 554.275,189.626 551.5,190C 554.059,187.897 556.726,186.064 559.5,184.5 Z"/></g>
<g><path style="opacity:1" fill="#1d1d1d" d="M 452.5,180.5 C 453.5,180.5 454.5,180.5 455.5,180.5C 455.292,182.92 455.626,185.253 456.5,187.5C 453.636,188.207 451.136,189.541 449,191.5C 448.5,191.333 448,191.167 447.5,191C 451.236,189.784 452.236,187.451 450.5,184C 450.978,182.697 451.645,181.531 452.5,180.5 Z"/></g>
<g><path style="opacity:1" fill="#111111" d="M 583.5,198.5 C 588.694,198.416 589.694,200.416 586.5,204.5C 617.9,219.199 649.566,233.365 681.5,247C 683.14,249.776 682.473,251.776 679.5,253C 648.383,266.392 617.383,280.059 586.5,294C 588.35,295.845 588.683,297.845 587.5,300C 582.602,300.361 578.269,299.028 574.5,296C 576.22,292.05 578.554,288.55 581.5,285.5C 583.169,286.671 584.669,288.004 586,289.5C 616.256,276.287 646.423,262.954 676.5,249.5C 646.993,236.05 617.326,222.883 587.5,210C 584.51,209.153 583.176,210.32 583.5,213.5C 581.61,213.703 580.11,213.037 579,211.5C 577.62,208.572 576.12,205.738 574.5,203C 574.645,202.228 574.978,201.561 575.5,201C 578.379,200.454 581.046,199.621 583.5,198.5 Z"/></g>
<g><path style="opacity:1" fill="#151515" d="M 352.5,181.5 C 353.88,181.962 354.547,182.962 354.5,184.5C 354.059,186.145 353.726,187.811 353.5,189.5C 355.776,196.133 355.942,202.8 354,209.5C 349.694,213.675 345.694,213.342 342,208.5C 339.633,211.932 336.966,212.265 334,209.5C 330.582,213.367 327.249,213.367 324,209.5C 319.436,213.843 315.436,213.509 312,208.5C 311.286,201.308 310.452,194.141 309.5,187C 309.862,185.775 310.362,184.609 311,183.5C 312.168,191.706 313.335,199.872 314.5,208C 318.591,209.227 322.091,208.394 325,205.5C 328.805,209.601 332.472,209.268 336,204.5C 336.483,205.448 336.649,206.448 336.5,207.5C 338.827,207.753 340.827,207.086 342.5,205.5C 345.201,208.654 348.534,209.321 352.5,207.5C 352.702,198.773 352.702,190.106 352.5,181.5 Z"/></g>
<g><path style="opacity:1" fill="#1f1f1f" d="M 335.5,184.5 C 338.041,186.44 338.041,188.607 335.5,191C 333.094,191.306 330.927,192.139 329,193.5C 327.115,193.138 326.281,191.971 326.5,190C 326.833,189.167 327.167,188.333 327.5,187.5C 329.335,191.265 330.835,190.932 332,186.5C 332.71,187.973 333.876,188.64 335.5,188.5C 335.5,187.167 335.5,185.833 335.5,184.5 Z"/></g>
<g><path style="opacity:1" fill="#161616" d="M 469.5,181.5 C 471.121,181.787 472.121,182.787 472.5,184.5C 472.182,192.449 472.016,200.449 472,208.5C 468.596,212.984 464.43,213.651 459.5,210.5C 458.719,211.737 457.719,212.737 456.5,213.5C 454.167,212.167 451.833,210.833 449.5,209.5C 443.548,214.319 439.048,213.319 436,206.5C 432.837,211.364 428.503,212.698 423,210.5C 422.226,208.597 422.56,206.93 424,205.5C 424.758,207.91 426.425,208.91 429,208.5C 431.667,208.833 433.667,207.833 435,205.5C 435.591,201.709 435.091,198.042 433.5,194.5C 433.719,193.062 434.219,191.729 435,190.5C 436.097,196.213 437.597,201.879 439.5,207.5C 442.106,208.652 444.773,208.818 447.5,208C 449.385,205.778 451.551,203.944 454,202.5C 456.489,204.319 458.989,206.152 461.5,208C 464.167,208.667 466.833,208.667 469.5,208C 470.98,206.701 471.646,205.034 471.5,203C 470.142,195.894 469.475,188.727 469.5,181.5 Z"/></g>
<g><path style="opacity:1" fill="#141414" d="M 513.5,229.5 C 517.833,230.167 522.167,230.833 526.5,231.5C 520.963,233.291 515.296,233.791 509.5,233C 501.905,229.527 499.405,223.694 502,215.5C 503.738,211.759 506.238,208.592 509.5,206C 505.54,203.911 505.54,201.911 509.5,200C 513.175,198.703 515.842,199.703 517.5,203C 515.244,204.834 515.244,206.501 517.5,208C 520.833,208.667 524.167,208.667 527.5,208C 529.996,206.446 532.163,204.613 534,202.5C 541.019,209.32 548.852,210.32 557.5,205.5C 554.714,204.044 551.714,203.044 548.5,202.5C 549.412,200.257 551.078,199.257 553.5,199.5C 556.92,200.374 560.253,201.541 563.5,203C 566.5,203.333 569.5,203.667 572.5,204C 564.508,205.234 556.841,207.9 549.5,212C 545.958,212.851 542.625,212.351 539.5,210.5C 538.719,211.737 537.719,212.737 536.5,213.5C 534.191,212.349 532.024,211.016 530,209.5C 527.663,211.333 524.997,212.333 522,212.5C 517.9,211.326 514.066,209.826 510.5,208C 506.175,210.975 503.508,214.975 502.5,220C 503.826,225.823 507.492,228.99 513.5,229.5 Z"/></g>
<g><path style="opacity:1" fill="#171717" d="M 301.5,181.5 C 302.812,182.145 303.812,183.145 304.5,184.5C 303.104,185.852 302.437,187.519 302.5,189.5C 304.779,196.157 304.946,202.823 303,209.5C 302.167,210.333 301.333,211.167 300.5,212C 296.775,212.76 293.108,212.593 289.5,211.5C 286.8,219.509 284.8,219.176 283.5,210.5C 280.412,210.367 278.412,211.7 277.5,214.5C 278.393,219.522 279.393,224.522 280.5,229.5C 280.523,231.067 280.023,232.4 279,233.5C 278.112,227.673 277.279,221.84 276.5,216C 276.578,210.414 279.244,206.581 284.5,204.5C 289.823,208.454 295.656,209.454 302,207.5C 302.606,200.103 302.106,192.77 300.5,185.5C 300.623,184.075 300.957,182.742 301.5,181.5 Z"/></g>
<g><path style="opacity:1" fill="#dfdfdf" d="M 453.5,204.5 C 455.377,205.659 455.877,207.326 455,209.5C 453.926,208.382 452.76,207.382 451.5,206.5C 452.243,205.818 452.909,205.151 453.5,204.5 Z"/></g>
<g><path style="opacity:1" fill="#f7f7f7" d="M 533.5,204.5 C 535.476,205.427 535.809,206.76 534.5,208.5C 532.358,207.563 532.024,206.23 533.5,204.5 Z"/></g>
<g><path style="opacity:1" fill="#181818" d="M 418.5,181.5 C 420.49,181.993 420.49,183.16 418.5,185C 411.298,186.937 404.631,189.937 398.5,194C 405.964,196.11 409.464,200.943 409,208.5C 404.834,211.888 400.001,213.221 394.5,212.5C 393.48,222.06 388.48,225.893 379.5,224C 389.514,222.754 393.848,217.254 392.5,207.5C 397.167,208.833 401.833,208.833 406.5,207.5C 407.614,206.277 407.781,204.944 407,203.5C 404.344,201.004 401.344,199.004 398,197.5C 397.333,195.5 397.333,193.5 398,191.5C 404.494,187.291 411.328,183.957 418.5,181.5 Z"/></g>
<g><path style="opacity:1" fill="#0f0f0f" d="M 722.5,210.5 C 724.144,210.286 725.644,210.62 727,211.5C 727.777,214.429 727.61,217.263 726.5,220C 728.155,221.444 728.822,223.278 728.5,225.5C 726.856,225.714 725.356,225.38 724,224.5C 721.315,228.927 717.482,230.76 712.5,230C 715.423,227.955 718.257,225.788 721,223.5C 718.642,218.949 719.142,214.615 722.5,210.5 Z"/></g>
<g><path style="opacity:1" fill="#d4d4d4" d="M 721.5,214.5 C 724.076,214.722 724.91,216.055 724,218.5C 722.519,217.529 721.685,216.196 721.5,214.5 Z"/></g>
<g><path style="opacity:1" fill="#242424" d="M 558.5,215.5 C 562.276,216.665 562.443,218.332 559,220.5C 558.167,219.667 557.333,218.833 556.5,218C 557.381,217.292 558.047,216.458 558.5,215.5 Z"/></g>
<g><path style="opacity:1" fill="#131313" d="M 742.5,216.5 C 745.08,231.595 746.247,246.928 746,262.5C 745.784,264.384 745.117,266.051 744,267.5C 743.937,265.04 744.104,262.54 744.5,260C 742.706,248.731 741.373,237.397 740.5,226C 740.331,222.599 740.998,219.432 742.5,216.5 Z"/></g>
<g><path style="opacity:1" fill="#131313" d="M 805.5,216.5 C 808.08,231.595 809.247,246.928 809,262.5C 808.784,264.384 808.117,266.051 807,267.5C 806.937,265.04 807.104,262.54 807.5,260C 805.706,248.731 804.373,237.397 803.5,226C 803.331,222.599 803.998,219.432 805.5,216.5 Z"/></g>
<g><path style="opacity:1" fill="#1e1e1e" d="M 304.5,216.5 C 305.774,217.189 305.774,218.023 304.5,219C 301.623,220.946 298.623,222.279 295.5,223C 298.567,220.812 301.567,218.645 304.5,216.5 Z"/></g>
<g><path style="opacity:1" fill="#191919" d="M 772.5,222.5 C 773.239,222.369 773.906,222.536 774.5,223C 773.743,224.512 772.743,225.846 771.5,227C 767,229.5 762.5,232 758,234.5C 757.289,232.633 757.789,231.133 759.5,230C 764.223,227.978 768.557,225.478 772.5,222.5 Z"/></g>
<g><path style="opacity:1" fill="#aaaaaa" d="M 513.5,229.5 C 518.511,229.334 523.511,229.501 528.5,230C 527.956,230.717 527.289,231.217 526.5,231.5C 522.167,230.833 517.833,230.167 513.5,229.5 Z"/></g>
<g><path style="opacity:1" fill="#232323" d="M 390.5,228.5 C 392.842,228.775 392.842,229.608 390.5,231C 388.254,232.039 386.087,233.206 384,234.5C 383.383,233.551 383.549,232.718 384.5,232C 386.727,231.059 388.727,229.892 390.5,228.5 Z"/></g>
<g><path style="opacity:1" fill="#2c2c2c" d="M 282.5,234.5 C 284.337,234.639 284.67,235.306 283.5,236.5C 273.348,241.53 273.015,240.863 282.5,234.5 Z"/></g>
<g><path style="opacity:1" fill="#232323" d="M 515.5,236.5 C 517.842,236.775 517.842,237.608 515.5,239C 513.254,240.039 511.087,241.206 509,242.5C 508.383,241.551 508.549,240.718 509.5,240C 511.727,239.059 513.727,237.892 515.5,236.5 Z"/></g>
<g><path style="opacity:1" fill="#101010" d="M 724.5,244.5 C 728.382,245.211 730.882,247.544 732,251.5C 734.829,266.678 730.662,279.511 719.5,290C 712.893,292.591 706.893,291.591 701.5,287C 717.906,288.448 727.572,280.948 730.5,264.5C 730.167,263.5 729.833,262.5 729.5,261.5C 725.645,265.667 722.145,265.334 719,260.5C 718.343,254.305 720.176,248.971 724.5,244.5 Z"/></g>
<g><path style="opacity:1" fill="#131313" d="M 788.5,212.5 C 790.943,213.499 792.609,215.332 793.5,218C 791.814,220.208 790.814,222.708 790.5,225.5C 791.964,232.818 793.297,240.151 794.5,247.5C 794.217,251.196 793.717,254.863 793,258.5C 792.394,261.548 790.894,264.048 788.5,266C 784.605,267.266 780.605,267.766 776.5,267.5C 775.114,276.779 770.781,284.279 763.5,290C 756.938,292.443 750.938,291.443 745.5,287C 760.474,288.506 770.141,282.006 774.5,267.5C 770.612,267.655 767.112,266.655 764,264.5C 763.371,258.093 765.704,253.093 771,249.5C 775.199,251.888 777.365,255.555 777.5,260.5C 788.36,262.516 792.86,258.183 791,247.5C 789.54,238.322 788.04,229.156 786.5,220C 786.739,217.365 787.406,214.865 788.5,212.5 Z"/></g>
<g><path style="opacity:1" fill="#dadada" d="M 723.5,252.5 C 726.861,253.203 727.194,254.537 724.5,256.5C 722.358,255.563 722.024,254.23 723.5,252.5 Z"/></g>
<g><path style="opacity:1" fill="#f1f1f1" d="M 767.5,256.5 C 770.278,256.022 772.278,257.022 773.5,259.5C 769.857,261.395 767.857,260.395 767.5,256.5 Z"/></g>
<g><path style="opacity:1" fill="#242424" d="M 545.5,253.5 C 546.774,254.189 546.774,255.023 545.5,256C 542.942,257.626 540.275,258.626 537.5,259C 540.059,256.897 542.726,255.064 545.5,253.5 Z"/></g>
<g><path style="opacity:1" fill="#1a1a1a" d="M 541.5,260.5 C 542.5,260.5 543.5,260.5 544.5,260.5C 544.5,261.5 544.5,262.5 544.5,263.5C 539.55,264.138 539.883,264.971 545.5,266C 543.532,267.544 541.365,268.711 539,269.5C 539.522,267.951 539.355,266.451 538.5,265C 539.315,263.357 540.315,261.857 541.5,260.5 Z"/></g>
<g><path style="opacity:1" fill="#282828" d="M 413.5,272.5 C 415.842,272.775 415.842,273.608 413.5,275C 410.942,276.626 408.275,277.626 405.5,278C 408.07,275.913 410.737,274.08 413.5,272.5 Z"/></g>
<g><path style="opacity:1" fill="#191919" d="M 561.5,286.5 C 560.833,284.5 560.167,282.5 559.5,280.5C 559.125,277.603 559.625,274.937 561,272.5C 561.465,273.931 562.299,275.097 563.5,276C 563,276.5 562.5,277 562,277.5C 561.502,280.482 561.335,283.482 561.5,286.5 Z"/></g>
<g><path style="opacity:1" fill="#161616" d="M 559.5,288.5 C 560.338,288.842 560.672,289.508 560.5,290.5C 559.278,294.165 559.278,297.831 560.5,301.5C 560.281,302.938 559.781,304.271 559,305.5C 555.943,306.451 552.777,306.784 549.5,306.5C 549.5,305.167 549.5,303.833 549.5,302.5C 553.002,302.833 555.336,301.333 556.5,298C 553.742,292.907 550.575,288.073 547,283.5C 541.526,283.134 539.693,280.134 541.5,274.5C 548.183,280.206 553.683,286.873 558,294.5C 558.813,292.564 559.313,290.564 559.5,288.5 Z"/></g>
<g><path style="opacity:1" fill="#202020" d="M 382.5,276.5 C 387.654,277.268 388.654,279.768 385.5,284C 380.917,284.934 379.417,283.1 381,278.5C 381.717,277.956 382.217,277.289 382.5,276.5 Z"/></g>
<g><path style="opacity:1" fill="#dddddd" d="M 382.5,278.5 C 387.663,280.424 387.663,281.591 382.5,282C 381.316,280.855 381.316,279.688 382.5,278.5 Z"/></g>
<g><path style="opacity:1" fill="#1d1d1d" d="M 444.5,303.5 C 443.833,301.5 443.167,299.5 442.5,297.5C 441.513,291.195 441.347,284.862 442,278.5C 443.968,286.715 444.801,295.049 444.5,303.5 Z"/></g>
<g><path style="opacity:1" fill="#1b1b1b" d="M 334.5,280.5 C 336.28,281.755 338.113,281.755 340,280.5C 343.058,281.324 343.224,282.658 340.5,284.5C 338.214,283.58 335.881,283.58 333.5,284.5C 333.433,283.041 333.766,281.708 334.5,280.5 Z"/></g>
<g><path style="opacity:1" fill="#6a6a6a" d="M 559.5,280.5 C 560.167,282.5 560.833,284.5 561.5,286.5C 561.768,288.099 561.434,289.432 560.5,290.5C 560.672,289.508 560.338,288.842 559.5,288.5C 559.5,285.833 559.5,283.167 559.5,280.5 Z"/></g>
<g><path style="opacity:1" fill="#2d2d2d" d="M 569.5,277.5 C 572.22,286.97 572.72,296.637 571,306.5C 569.246,296.836 568.746,287.169 569.5,277.5 Z"/></g>
<g><path style="opacity:1" fill="#1a1a1a" d="M 501.5,280.5 C 503.842,280.775 503.842,281.608 501.5,283C 499.336,283.914 497.336,285.081 495.5,286.5C 495.167,286.167 494.833,285.833 494.5,285.5C 497.077,284.057 499.41,282.39 501.5,280.5 Z"/></g>
<g><path style="opacity:1" fill="#1e1e1e" d="M 522.5,281.5 C 524.198,278.876 526.031,278.876 528,281.5C 528.833,286 527,287.833 522.5,287C 521.193,285.057 521.193,283.223 522.5,281.5 Z"/></g>
<g><path style="opacity:1" fill="#dddddd" d="M 522.5,281.5 C 525.5,281.167 526.833,282.5 526.5,285.5C 523.5,285.833 522.167,284.5 522.5,281.5 Z"/></g>
<g><path style="opacity:1" fill="#252525" d="M 412.5,285.5 C 415.173,285.684 415.84,286.851 414.5,289C 410.447,289.468 409.78,288.302 412.5,285.5 Z"/></g>
<g><path style="opacity:1" fill="#292929" d="M 362.5,282.5 C 363.774,283.189 363.774,284.023 362.5,285C 360.167,286.167 357.833,287.333 355.5,288.5C 355.167,288.167 354.833,287.833 354.5,287.5C 357.231,285.808 359.898,284.142 362.5,282.5 Z"/></g>
<g><path style="opacity:1" fill="#151515" d="M 432.5,275.5 C 436.128,277.29 436.461,279.623 433.5,282.5C 435.747,289.841 435.914,297.174 434,304.5C 429.391,306.51 424.558,307.01 419.5,306C 417.845,304.556 417.178,302.722 417.5,300.5C 415.473,300.338 413.473,300.505 411.5,301C 407.148,303.677 402.482,305.511 397.5,306.5C 395.311,306.406 393.311,305.739 391.5,304.5C 390.719,305.737 389.719,306.737 388.5,307.5C 386.167,306.167 383.833,304.833 381.5,303.5C 376.984,307.825 372.984,307.492 369.5,302.5C 367.25,305.949 364.584,306.282 361.5,303.5C 357.876,307.301 354.376,307.301 351,303.5C 345.295,308.337 341.295,307.337 339,300.5C 336.519,302.314 333.685,302.98 330.5,302.5C 331.18,298.298 333.347,294.964 337,292.5C 337.219,291.062 337.719,289.729 338.5,288.5C 339.655,292.427 340.488,296.427 341,300.5C 344.905,303.305 348.572,302.971 352,299.5C 355.805,303.601 359.472,303.268 363,298.5C 365.061,302.438 367.227,302.438 369.5,298.5C 371.829,302.252 375.163,303.418 379.5,302C 381.385,299.778 383.551,297.944 386,296.5C 393.428,303.56 401.595,304.393 410.5,299C 406.916,297.927 403.25,297.26 399.5,297C 400.729,294.551 402.729,293.384 405.5,293.5C 411.546,296.181 417.879,297.847 424.5,298.5C 423.286,300.069 421.619,300.902 419.5,301C 419.833,301.333 420.167,301.667 420.5,302C 424.5,302.667 428.5,302.667 432.5,302C 433.98,300.701 434.646,299.034 434.5,297C 433.715,291.292 432.715,285.625 431.5,280C 431.605,278.408 431.939,276.908 432.5,275.5 Z"/></g>
<g><path style="opacity:1" fill="#eaeaea" d="M 336.5,294.5 C 338.176,295.183 338.843,296.517 338.5,298.5C 336.801,298.66 335.134,298.494 333.5,298C 334.71,296.961 335.71,295.794 336.5,294.5 Z"/></g>
<g><path style="opacity:1" fill="#161616" d="M 482.5,277.5 C 483.802,285.575 485.135,293.742 486.5,302C 488.833,302.667 491.167,302.667 493.5,302C 495.996,300.446 498.163,298.613 500,296.5C 502.489,298.319 504.989,300.152 507.5,302C 511.909,303.262 515.743,302.428 519,299.5C 522.999,303.769 526.332,303.103 529,297.5C 533.078,301.76 534.911,301.093 534.5,295.5C 535.647,297.765 535.814,300.098 535,302.5C 532.88,305.08 530.713,305.08 528.5,302.5C 526.747,304.261 524.747,305.594 522.5,306.5C 520.617,306.124 519.117,305.124 518,303.5C 514.13,307.059 509.963,307.392 505.5,304.5C 504.719,305.737 503.719,306.737 502.5,307.5C 500.191,306.349 498.024,305.016 496,303.5C 492.931,306.096 489.431,306.929 485.5,306C 482.366,296.702 481.366,287.202 482.5,277.5 Z"/></g>
<g><path style="opacity:1" fill="#dfdfdf" d="M 385.5,298.5 C 387.377,299.659 387.877,301.326 387,303.5C 385.926,302.382 384.76,301.382 383.5,300.5C 384.243,299.818 384.909,299.151 385.5,298.5 Z"/></g>
<g><path style="opacity:1" fill="#161616" d="M 468.5,294.5 C 469.833,294.5 471.167,294.5 472.5,294.5C 472.66,296.199 472.494,297.866 472,299.5C 469.426,296.741 467.26,297.074 465.5,300.5C 465.977,301.478 466.643,302.311 467.5,303C 470.766,303.334 473.766,303.501 476.5,303.5C 472.643,306.762 468.31,308.928 463.5,310C 464.685,308.647 466.019,307.48 467.5,306.5C 464.003,305.827 462.837,303.827 464,300.5C 465.332,298.34 466.832,296.34 468.5,294.5 Z"/></g>
<g><path style="opacity:1" fill="#f7f7f7" d="M 499.5,298.5 C 501.476,299.427 501.809,300.76 500.5,302.5C 498.358,301.563 498.024,300.23 499.5,298.5 Z"/></g>
<g><path style="opacity:1" fill="#cdcdcd" d="M 556.5,300.5 C 558.337,300.639 558.67,301.306 557.5,302.5C 556.702,302.043 556.369,301.376 556.5,300.5 Z"/></g>
<g><path style="opacity:1" fill="#7c7c7c" d="M 442.5,297.5 C 443.167,299.5 443.833,301.5 444.5,303.5C 444.539,304.756 444.039,305.756 443,306.5C 442.502,303.518 442.335,300.518 442.5,297.5 Z"/></g>
<g><path style="opacity:1" fill="#232323" d="M 337.5,312.5 C 339.842,312.775 339.842,313.608 337.5,315C 335.254,316.039 333.087,317.206 331,318.5C 330.383,317.551 330.549,316.718 331.5,316C 333.727,315.059 335.727,313.892 337.5,312.5 Z"/></g>
<g><path style="opacity:1" fill="#232323" d="M 471.5,312.5 C 473.842,312.775 473.842,313.608 471.5,315C 469.254,316.039 467.087,317.206 465,318.5C 464.383,317.551 464.549,316.718 465.5,316C 467.727,315.059 469.727,313.892 471.5,312.5 Z"/></g>
</svg>
