<?xml version="1.0" encoding="UTF-8"?>
<!DOCTYPE svg PUBLIC "-//W3C//DTD SVG 1.1//EN" "http://www.w3.org/Graphics/SVG/1.1/DTD/svg11.dtd">
<svg xmlns="http://www.w3.org/2000/svg" version="1.1" width="1000px" height="500px" style="shape-rendering:geometricPrecision; text-rendering:geometricPrecision; image-rendering:optimizeQuality; fill-rule:evenodd; clip-rule:evenodd" xmlns:xlink="http://www.w3.org/1999/xlink">
<g><path style="opacity:1" fill="#fefefe" d="M -0.5,-0.5 C 332.833,-0.5 666.167,-0.5 999.5,-0.5C 999.5,166.167 999.5,332.833 999.5,499.5C 666.167,499.5 332.833,499.5 -0.5,499.5C -0.5,332.833 -0.5,166.167 -0.5,-0.5 Z"/></g>
<g><path style="opacity:1" fill="#232323" d="M 73.5,170.5 C 75.3786,170.393 75.7119,170.893 74.5,172C 72.0829,173.626 69.5829,175.126 67,176.5C 66.3828,175.551 66.5494,174.718 67.5,174C 69.7274,173.059 71.7274,171.892 73.5,170.5 Z"/></g>
<g><path style="opacity:1" fill="#1b1b1b" d="M 392.5,174.5 C 394.379,174.393 394.712,174.893 393.5,176C 383.44,181.713 383.107,181.213 392.5,174.5 Z"/></g>
<g><path style="opacity:1" fill="#1b1b1b" d="M 70.5,176.5 C 71.5,176.5 72.5,176.5 73.5,176.5C 73.5,177.5 73.5,178.5 73.5,179.5C 72.1266,179.343 70.7932,179.51 69.5,180C 71.2852,181.163 73.2852,181.83 75.5,182C 72.9755,183.616 70.3088,184.616 67.5,185C 69.7996,183.887 70.1329,182.387 68.5,180.5C 68.7517,178.927 69.4183,177.594 70.5,176.5 Z"/></g>
<g><path style="opacity:1" fill="#222222" d="M 150.5,181.5 C 155.942,181.886 157.275,184.386 154.5,189C 152.866,189.494 151.199,189.66 149.5,189.5C 149.351,188.448 149.517,187.448 150,186.5C 151.356,187.38 152.856,187.714 154.5,187.5C 154.278,184.315 152.778,183.315 150,184.5C 149.53,183.423 149.697,182.423 150.5,181.5 Z"/></g>
<g><path style="opacity:1" fill="#282828" d="M 440.5,180.5 C 442.842,180.775 442.842,181.608 440.5,183C 437.942,184.626 435.275,185.626 432.5,186C 435.07,183.913 437.737,182.08 440.5,180.5 Z"/></g>
<g><path style="opacity:1" fill="#181818" d="M 394.5,179.5 C 395.754,181.357 395.754,183.357 394.5,185.5C 391.827,186.759 389.161,187.592 386.5,188C 385.424,186.274 385.257,184.441 386,182.5C 386.249,183.624 386.749,184.624 387.5,185.5C 388.852,184.482 389.852,183.149 390.5,181.5C 393.147,184.18 394.48,183.513 394.5,179.5 Z"/></g>
<g><path style="opacity:1" fill="#171717" d="M 907.5,186.5 C 909.39,186.297 910.89,186.963 912,188.5C 912.562,190.866 912.396,193.199 911.5,195.5C 911.722,197.055 912.389,198.389 913.5,199.5C 913.081,200.672 912.415,201.672 911.5,202.5C 910.232,201.572 908.899,201.405 907.5,202C 905.315,204.588 902.648,206.421 899.5,207.5C 898.068,207.267 897.568,206.6 898,205.5C 900.333,203.833 902.667,202.167 905,200.5C 905.112,198.243 904.612,196.076 903.5,194C 903.927,190.977 905.261,188.477 907.5,186.5 Z"/></g>
<g><path style="opacity:1" fill="#292929" d="M 166.5,183.5 C 167.774,184.189 167.774,185.023 166.5,186C 164.167,187.167 161.833,188.333 159.5,189.5C 159.167,189.167 158.833,188.833 158.5,188.5C 161.231,186.808 163.898,185.142 166.5,183.5 Z"/></g>
<g><path style="opacity:1" fill="#222222" d="M 652.5,187.5 C 657.942,187.886 659.275,190.386 656.5,195C 654.866,195.494 653.199,195.66 651.5,195.5C 651.351,194.448 651.517,193.448 652,192.5C 653.356,193.38 654.856,193.714 656.5,193.5C 656.278,190.315 654.778,189.315 652,190.5C 651.53,189.423 651.697,188.423 652.5,187.5 Z"/></g>
<g><path style="opacity:1" fill="#242424" d="M 548.5,185.5 C 549.774,186.189 549.774,187.023 548.5,188C 545.942,189.626 543.275,190.626 540.5,191C 543.059,188.897 545.726,187.064 548.5,185.5 Z"/></g>
<g><path style="opacity:1" fill="#101010" d="M 191.5,187.5 C 192.5,187.5 193.5,187.5 194.5,187.5C 194.292,189.92 194.626,192.253 195.5,194.5C 192.636,195.207 190.136,196.541 188,198.5C 187.5,198.333 187,198.167 186.5,198C 191.239,195.933 192.906,192.433 191.5,187.5 Z"/></g>
<g><path style="opacity:1" fill="#1a1a1a" d="M 250.5,185.5 C 252.842,185.775 252.842,186.608 250.5,188C 248.336,188.914 246.336,190.081 244.5,191.5C 244.167,191.167 243.833,190.833 243.5,190.5C 246.077,189.057 248.41,187.39 250.5,185.5 Z"/></g>
<g><path style="opacity:1" fill="#1d1d1d" d="M 73.5,214.5 C 72.8333,212.5 72.1667,210.5 71.5,208.5C 70.5133,202.195 70.3466,195.862 71,189.5C 72.9679,197.715 73.8012,206.049 73.5,214.5 Z"/></g>
<g><path style="opacity:1" fill="#878787" d="M 191.5,189.5 C 193.337,189.639 193.67,190.306 192.5,191.5C 191.702,191.043 191.369,190.376 191.5,189.5 Z"/></g>
<g><path style="opacity:1" fill="#242424" d="M 371.5,187.5 C 372.774,188.189 372.774,189.023 371.5,190C 368.942,191.626 366.275,192.626 363.5,193C 366.059,190.897 368.726,189.064 371.5,187.5 Z"/></g>
<g><path style="opacity:1" fill="#1d1d1d" d="M 403.5,214.5 C 402.833,212.5 402.167,210.5 401.5,208.5C 400.513,202.195 400.347,195.862 401,189.5C 402.968,197.715 403.801,206.049 403.5,214.5 Z"/></g>
<g><path style="opacity:1" fill="#2e2e2e" d="M 424.5,188.5 C 426.255,195.081 427.255,201.914 427.5,209C 427.557,211.96 427.057,214.793 426,217.5C 425.386,209.643 424.553,201.81 423.5,194C 423.696,192.122 424.029,190.288 424.5,188.5 Z"/></g>
<g><path style="opacity:1" fill="#1d1d1d" d="M 454.5,214.5 C 453.833,212.5 453.167,210.5 452.5,208.5C 451.513,202.195 451.347,195.862 452,189.5C 453.968,197.715 454.801,206.049 454.5,214.5 Z"/></g>
<g><path style="opacity:1" fill="#1a1a1a" d="M 337.5,187.5 C 339.842,187.775 339.842,188.608 337.5,190C 335.336,190.914 333.336,192.081 331.5,193.5C 331.167,193.167 330.833,192.833 330.5,192.5C 333.077,191.057 335.41,189.39 337.5,187.5 Z"/></g>
<g><path style="opacity:1" fill="#1d1d1d" d="M 601.5,188.5 C 603.153,197.629 603.653,206.963 603,216.5C 602.405,209.627 601.572,202.794 600.5,196C 600.555,193.413 600.889,190.913 601.5,188.5 Z"/></g>
<g><path style="opacity:1" fill="#1d1d1d" d="M 695.5,188.5 C 697.153,197.629 697.653,206.963 697,216.5C 696.405,209.627 695.572,202.794 694.5,196C 694.555,193.413 694.889,190.913 695.5,188.5 Z"/></g>
<g><path style="opacity:1" fill="#d9d9d9" d="M 906.5,191.5 C 907.995,191.415 908.995,192.081 909.5,193.5C 907.604,194.639 906.604,193.973 906.5,191.5 Z"/></g>
<g><path style="opacity:1" fill="#1e1e1e" d="M 57.5,189.5 C 59.1978,186.876 61.0312,186.876 63,189.5C 63.8333,194 62,195.833 57.5,195C 56.193,193.057 56.193,191.223 57.5,189.5 Z"/></g>
<g><path style="opacity:1" fill="#dddddd" d="M 57.5,189.5 C 60.5,189.167 61.8333,190.5 61.5,193.5C 58.5,193.833 57.1667,192.5 57.5,189.5 Z"/></g>
<g><path style="opacity:1" fill="#1b1b1b" d="M 116.5,191.5 C 118.28,192.755 120.113,192.755 122,191.5C 125.058,192.324 125.224,193.658 122.5,195.5C 120.214,194.58 117.881,194.58 115.5,195.5C 115.433,194.041 115.766,192.708 116.5,191.5 Z"/></g>
<g><path style="opacity:1" fill="#171717" d="M 438.5,192.5 C 441.861,193.203 442.194,194.537 439.5,196.5C 437.358,195.563 437.024,194.23 438.5,192.5 Z"/></g>
<g><path style="opacity:1" fill="#1e1e1e" d="M 202.5,191.5 C 204.198,188.876 206.031,188.876 208,191.5C 208.833,196 207,197.833 202.5,197C 201.193,195.057 201.193,193.223 202.5,191.5 Z"/></g>
<g><path style="opacity:1" fill="#dddddd" d="M 202.5,191.5 C 205.5,191.167 206.833,192.5 206.5,195.5C 203.5,195.833 202.167,194.5 202.5,191.5 Z"/></g>
<g><path style="opacity:1" fill="#1d1d1d" d="M 574.5,185.5 C 575.5,185.5 576.5,185.5 577.5,185.5C 577.292,187.92 577.626,190.253 578.5,192.5C 575.636,193.207 573.136,194.541 571,196.5C 570.5,196.333 570,196.167 569.5,196C 573.236,194.784 574.236,192.451 572.5,189C 572.978,187.697 573.645,186.531 574.5,185.5 Z"/></g>
<g><path style="opacity:1" fill="#767676" d="M 639.5,189.5 C 639.56,188.957 639.893,188.624 640.5,188.5C 641.487,191.768 641.82,195.102 641.5,198.5C 640.833,195.5 640.167,192.5 639.5,189.5 Z"/></g>
<g><path style="opacity:1" fill="#161616" d="M 165.5,196.5 C 168.861,197.203 169.194,198.537 166.5,200.5C 164.358,199.563 164.024,198.23 165.5,196.5 Z"/></g>
<g><path style="opacity:1" fill="#232323" d="M 393.5,195.5 C 396.78,196.732 397.114,198.399 394.5,200.5C 392.214,199.58 389.881,199.58 387.5,200.5C 387.238,197.079 388.572,196.079 391.5,197.5C 392.522,197.145 393.189,196.478 393.5,195.5 Z"/></g>
<g><path style="opacity:1" fill="#292929" d="M 135.5,193.5 C 136.774,194.189 136.774,195.023 135.5,196C 133.167,197.167 130.833,198.333 128.5,199.5C 128.167,199.167 127.833,198.833 127.5,198.5C 130.231,196.808 132.898,195.142 135.5,193.5 Z"/></g>
<g><path style="opacity:1" fill="#181818" d="M 152.5,196.5 C 156.474,198.581 156.141,199.914 151.5,200.5C 151.433,199.041 151.766,197.708 152.5,196.5 Z"/></g>
<g><path style="opacity:1" fill="#181818" d="M 160.5,196.5 C 162.912,196.694 163.912,198.027 163.5,200.5C 160.014,200.705 159.014,199.371 160.5,196.5 Z"/></g>
<g><path style="opacity:1" fill="#1f1f1f" d="M 249.5,197.5 C 252.709,198.297 253.209,199.963 251,202.5C 248.527,201.26 248.027,199.593 249.5,197.5 Z"/></g>
<g><path style="opacity:1" fill="#171717" d="M 639.5,189.5 C 640.167,192.5 640.833,195.5 641.5,198.5C 641.485,203.588 642.485,208.421 644.5,213C 647.303,213.755 649.97,213.422 652.5,212C 648.553,207.827 649.72,205.327 656,204.5C 662.075,205.39 662.908,207.89 658.5,212C 662.026,213.337 665.692,213.837 669.5,213.5C 669.054,210.99 669.72,208.99 671.5,207.5C 674.372,200.97 677.038,200.97 679.5,207.5C 679.113,209.274 678.447,210.941 677.5,212.5C 680.941,214.006 684.108,213.673 687,211.5C 686.977,204.993 686.477,198.493 685.5,192C 685.833,190.167 686.167,188.333 686.5,186.5C 687.415,187.328 688.081,188.328 688.5,189.5C 688.182,197.449 688.016,205.449 688,213.5C 686.471,216.516 683.971,217.849 680.5,217.5C 677.68,217.422 675.013,216.755 672.5,215.5C 666.354,218.641 660.688,217.974 655.5,213.5C 652.029,216.917 648.029,217.917 643.5,216.5C 643.485,228.017 637.819,233.517 626.5,233C 621.594,228.148 621.26,222.981 625.5,217.5C 625.833,217.667 626.167,217.833 626.5,218C 622.588,227.098 625.588,230.432 635.5,228C 637.329,227.727 638.829,226.893 640,225.5C 640.5,213.492 640.333,201.492 639.5,189.5 Z"/></g>
<g><path style="opacity:1" fill="#131313" d="M 674.5,193.5 C 677.861,194.203 678.194,195.537 675.5,197.5C 673.358,196.563 673.024,195.23 674.5,193.5 Z"/></g>
<g><path style="opacity:1" fill="#1c1c1c" d="M 141.5,202.5 C 143.912,202.694 144.912,204.027 144.5,206.5C 141.014,206.705 140.014,205.371 141.5,202.5 Z"/></g>
<g><path style="opacity:1" fill="#191919" d="M 155.5,201.5 C 159.127,202.47 159.461,204.137 156.5,206.5C 155.522,206.023 154.689,205.357 154,204.5C 152.921,206.394 151.587,206.727 150,205.5C 149.786,202.686 150.953,202.02 153.5,203.5C 154.522,203.145 155.189,202.478 155.5,201.5 Z"/></g>
<g><path style="opacity:1" fill="#181818" d="M 592.5,186.5 C 593.88,186.962 594.547,187.962 594.5,189.5C 594.059,191.145 593.726,192.811 593.5,194.5C 595.776,201.133 595.942,207.8 594,214.5C 590.206,218.156 586.039,218.49 581.5,215.5C 580.719,216.737 579.719,217.737 578.5,218.5C 576.191,217.349 574.024,216.016 572,214.5C 570.51,215.317 569.01,216.15 567.5,217C 559.479,217.168 551.479,217.668 543.5,218.5C 541.993,222.355 541.326,222.021 541.5,217.5C 538.722,217.978 536.722,216.978 535.5,214.5C 532.462,217.53 528.962,218.196 525,216.5C 523.352,209.443 522.185,202.277 521.5,195C 521.404,192.625 521.904,190.459 523,188.5C 523.81,196.766 524.976,204.933 526.5,213C 530.389,214.14 533.722,213.307 536.5,210.5C 538.441,213.334 541.107,214.168 544.5,213C 548.225,206.903 553.559,203.903 560.5,204C 563.129,207.199 562.796,210.199 559.5,213C 562.833,213.667 566.167,213.667 569.5,213C 571.996,211.446 574.163,209.613 576,207.5C 578.489,209.319 580.989,211.152 583.5,213C 586.562,213.741 589.562,213.575 592.5,212.5C 592.702,203.773 592.702,195.106 592.5,186.5 Z"/></g>
<g><path style="opacity:1" fill="#121212" d="M 547.5,197.5 C 551.029,198.03 551.362,199.363 548.5,201.5C 546.358,200.563 546.024,199.23 547.5,197.5 Z"/></g>
<g><path style="opacity:1" fill="#0f0f0f" d="M 842.5,204.5 C 844.144,204.286 845.644,204.62 847,205.5C 847.777,208.429 847.61,211.263 846.5,214C 848.155,215.444 848.822,217.278 848.5,219.5C 846.856,219.714 845.356,219.38 844,218.5C 841.315,222.927 837.482,224.76 832.5,224C 835.423,221.955 838.257,219.788 841,217.5C 838.642,212.949 839.142,208.615 842.5,204.5 Z"/></g>
<g><path style="opacity:1" fill="#e2e2e2" d="M 671.5,207.5 C 672.695,207.322 673.862,206.989 675,206.5C 678.418,208.605 678.085,210.271 674,211.5C 671.98,210.968 671.147,209.635 671.5,207.5 Z"/></g>
<g><path style="opacity:1" fill="#161616" d="M 912.5,205.5 C 914.934,209.154 915.1,213.154 913,217.5C 910.925,219.648 908.592,219.982 906,218.5C 904.029,222.186 901.195,223.186 897.5,221.5C 896.022,218.024 896.188,214.691 898,211.5C 898.333,213.167 898.667,214.833 899,216.5C 899.561,217.022 900.228,217.355 901,217.5C 903.153,214.903 904.653,211.903 905.5,208.5C 905.976,211.119 907.309,213.119 909.5,214.5C 911.264,211.785 912.264,208.785 912.5,205.5 Z"/></g>
<g><path style="opacity:1" fill="#171717" d="M 119.5,199.5 C 120.693,199.97 121.36,200.97 121.5,202.5C 121.953,205.889 122.62,209.223 123.5,212.5C 127.543,214.228 131.043,213.562 134,210.5C 134.576,212.852 136.076,213.852 138.5,213.5C 141.037,213.565 143.037,212.565 144.5,210.5C 148.043,214.423 151.71,214.423 155.5,210.5C 157.781,213.228 160.781,214.228 164.5,213.5C 163.382,210.372 163.549,207.372 165,204.5C 166.557,207.294 166.89,210.294 166,213.5C 163.839,217.124 160.672,218.291 156.5,217C 155.874,216.25 155.374,215.416 155,214.5C 151.088,218.347 147.421,218.347 144,214.5C 140.254,218.393 136.588,218.393 133,214.5C 127.295,219.337 123.295,218.337 121,211.5C 118.519,213.314 115.685,213.98 112.5,213.5C 113.18,209.298 115.347,205.964 119,203.5C 119.49,202.207 119.657,200.873 119.5,199.5 Z"/></g>
<g><path style="opacity:1" fill="#eaeaea" d="M 118.5,205.5 C 120.176,206.183 120.843,207.517 120.5,209.5C 118.801,209.66 117.134,209.494 115.5,209C 116.71,207.961 117.71,206.794 118.5,205.5 Z"/></g>
<g><path style="opacity:1" fill="#191919" d="M 293.5,199.5 C 295.102,203.921 296.102,208.588 296.5,213.5C 299.5,213.5 302.5,213.5 305.5,213.5C 304.382,210.372 304.549,207.372 306,204.5C 309.691,213.964 306.524,218.131 296.5,217C 295.671,215.184 294.837,213.351 294,211.5C 291.582,213.68 288.916,214.013 286,212.5C 286.647,208.808 288.647,205.808 292,203.5C 292.41,202.099 292.91,200.766 293.5,199.5 Z"/></g>
<g><path style="opacity:1" fill="#e3e3e3" d="M 291.5,205.5 C 293.176,206.183 293.843,207.517 293.5,209.5C 291.801,209.66 290.134,209.494 288.5,209C 289.71,207.961 290.71,206.794 291.5,205.5 Z"/></g>
<g><path style="opacity:1" fill="#eaeaea" d="M 552.5,207.5 C 554.527,207.338 556.527,207.505 558.5,208C 559.833,209 559.833,210 558.5,211C 554.682,212.944 550.682,213.611 546.5,213C 548.342,210.926 550.342,209.093 552.5,207.5 Z"/></g>
<g><path style="opacity:1" fill="#1a1a1a" d="M 100.5,203.5 C 101.376,203.369 102.043,203.702 102.5,204.5C 99.5027,207.162 98.1694,210.495 98.5,214.5C 100.199,214.34 101.866,214.506 103.5,215C 105.063,217.476 104.396,218.976 101.5,219.5C 97.0641,217.621 95.5641,214.288 97,209.5C 98.3937,207.612 99.5604,205.612 100.5,203.5 Z"/></g>
<g><path style="opacity:1" fill="#d4d4d4" d="M 841.5,208.5 C 844.076,208.722 844.91,210.055 844,212.5C 842.519,211.529 841.685,210.196 841.5,208.5 Z"/></g>
<g><path style="opacity:1" fill="#f7f7f7" d="M 575.5,209.5 C 577.476,210.427 577.809,211.76 576.5,213.5C 574.358,212.563 574.024,211.23 575.5,209.5 Z"/></g>
<g><path style="opacity:1" fill="#151515" d="M 196.5,220.5 C 196.523,218.4 195.856,216.567 194.5,215C 194.63,213.941 195.13,213.108 196,212.5C 199.962,214.196 203.462,213.53 206.5,210.5C 208.441,213.334 211.107,214.168 214.5,213C 216.996,211.446 219.163,209.613 221,207.5C 223.489,209.319 225.989,211.152 228.5,213C 232.909,214.262 236.743,213.428 240,210.5C 241.666,213.379 244.166,214.212 247.5,213C 250.968,208.173 255.468,205.006 261,203.5C 262.436,203.559 263.769,203.892 265,204.5C 266.221,209.97 264.054,213.47 258.5,215C 253.926,215.675 249.759,217.175 246,219.5C 243.516,218.114 241.183,216.447 239,214.5C 235.13,218.059 230.963,218.392 226.5,215.5C 225.719,216.737 224.719,217.737 223.5,218.5C 221.191,217.349 219.024,216.016 217,214.5C 214.253,216.959 211.086,217.792 207.5,217C 206.874,216.25 206.374,215.416 206,214.5C 203.695,216.93 200.862,217.93 197.5,217.5C 197.737,218.791 197.404,219.791 196.5,220.5 Z"/></g>
<g><path style="opacity:1" fill="#f7f7f7" d="M 220.5,209.5 C 222.476,210.427 222.809,211.76 221.5,213.5C 219.358,212.563 219.024,211.23 220.5,209.5 Z"/></g>
<g><path style="opacity:1" fill="#f1f1f1" d="M 255.5,207.5 C 265.839,208.071 265.839,209.905 255.5,213C 253.5,213.667 251.5,213.667 249.5,213C 251.396,210.932 253.396,209.099 255.5,207.5 Z"/></g>
<g><path style="opacity:1" fill="#141414" d="M 380.5,212.5 C 379.711,212.783 379.044,213.283 378.5,214C 381.039,214.796 383.372,214.629 385.5,213.5C 391.871,214.818 393.538,212.818 390.5,207.5C 390.919,206.328 391.585,205.328 392.5,204.5C 395.471,209.179 394.804,213.346 390.5,217C 381.406,216.876 372.572,217.709 364,219.5C 361.516,218.114 359.183,216.447 357,214.5C 353.867,217.867 350.534,218.201 347,215.5C 346.503,218.146 346.336,220.813 346.5,223.5C 345.833,220.833 345.167,218.167 344.5,215.5C 344.624,208.479 344.29,201.479 343.5,194.5C 343.412,192.288 343.912,190.288 345,188.5C 345.556,195.843 346.223,203.177 347,210.5C 347.374,211.416 347.874,212.25 348.5,213C 352.274,214.183 355.441,213.349 358,210.5C 359.666,213.379 362.166,214.212 365.5,213C 368.993,207.991 373.66,204.824 379.5,203.5C 382.5,203.167 383.833,204.5 383.5,207.5C 383.714,209.942 382.714,211.608 380.5,212.5 Z"/></g>
<g><path style="opacity:1" fill="#e9e9e9" d="M 373.5,207.5 C 383.526,208.002 383.859,209.835 374.5,213C 372.167,213.667 369.833,213.667 367.5,213C 369.396,210.932 371.396,209.099 373.5,207.5 Z"/></g>
<g><path style="opacity:1" fill="#131313" d="M 437.5,200.5 C 443.823,202.464 446.656,206.798 446,213.5C 442.265,217.096 437.765,218.429 432.5,217.5C 432.5,216.167 432.5,214.833 432.5,213.5C 436.546,213.85 440.38,213.183 444,211.5C 443.721,207.059 441.221,204.726 436.5,204.5C 436.433,203.041 436.766,201.708 437.5,200.5 Z"/></g>
<g><path style="opacity:1" fill="#656565" d="M 380.5,212.5 C 381.919,213.451 383.585,213.784 385.5,213.5C 383.372,214.629 381.039,214.796 378.5,214C 379.044,213.283 379.711,212.783 380.5,212.5 Z"/></g>
<g><path style="opacity:1" fill="#7c7c7c" d="M 71.5,208.5 C 72.1667,210.5 72.8333,212.5 73.5,214.5C 73.5386,215.756 73.0386,216.756 72,217.5C 71.502,214.518 71.3354,211.518 71.5,208.5 Z"/></g>
<g><path style="opacity:1" fill="#7c7c7c" d="M 401.5,208.5 C 402.167,210.5 402.833,212.5 403.5,214.5C 403.539,215.756 403.039,216.756 402,217.5C 401.502,214.518 401.335,211.518 401.5,208.5 Z"/></g>
<g><path style="opacity:1" fill="#7c7c7c" d="M 452.5,208.5 C 453.167,210.5 453.833,212.5 454.5,214.5C 454.539,215.756 454.039,216.756 453,217.5C 452.502,214.518 452.335,211.518 452.5,208.5 Z"/></g>
<g><path style="opacity:1" fill="#161616" d="M 940.5,216.5 C 942.547,228.643 944.213,240.976 945.5,253.5C 945.145,257.921 944.312,262.254 943,266.5C 941.369,252.863 939.869,239.196 938.5,225.5C 938.449,222.303 939.115,219.303 940.5,216.5 Z"/></g>
<g><path style="opacity:1" fill="#262626" d="M 133.5,220.5 C 136.709,221.297 137.209,222.963 135,225.5C 133.075,223.027 131.242,223.027 129.5,225.5C 127.512,224.711 127.179,223.545 128.5,222C 129.549,221.508 130.549,221.674 131.5,222.5C 132.522,222.145 133.189,221.478 133.5,220.5 Z"/></g>
<g><path style="opacity:1" fill="#1d1d1d" d="M 302.5,220.5 C 305.709,221.297 306.209,222.963 304,225.5C 301.527,224.26 301.027,222.593 302.5,220.5 Z"/></g>
<g><path style="opacity:1" fill="#181818" d="M 206.5,220.5 C 210.127,221.47 210.461,223.137 207.5,225.5C 206.522,225.023 205.689,224.357 205,223.5C 203.921,225.394 202.587,225.727 201,224.5C 200.786,221.686 201.953,221.02 204.5,222.5C 205.522,222.145 206.189,221.478 206.5,220.5 Z"/></g>
<g><path style="opacity:1" fill="#7c7c7c" d="M 344.5,215.5 C 345.167,218.167 345.833,220.833 346.5,223.5C 346.672,224.492 346.338,225.158 345.5,225.5C 345.167,225.5 344.833,225.5 344.5,225.5C 344.5,222.167 344.5,218.833 344.5,215.5 Z"/></g>
<g><path style="opacity:1" fill="#232323" d="M 513.5,207.5 C 515.548,209.456 516.548,211.956 516.5,215C 516.139,221.062 513.473,225.729 508.5,229C 505.697,229.755 503.03,229.422 500.5,228C 506.087,227.456 510.587,224.956 514,220.5C 514.747,217.147 514.247,213.98 512.5,211C 512.989,209.862 513.322,208.695 513.5,207.5 Z"/></g>
<g><path style="opacity:1" fill="#121212" d="M 879.5,216.5 C 886.555,216.25 889.055,219.583 887,226.5C 884.947,230.292 881.781,231.458 877.5,230C 874.409,224.799 875.075,220.299 879.5,216.5 Z"/></g>
<g><path style="opacity:1" fill="#e6e6e6" d="M 878.5,219.5 C 883.102,219.428 885.102,221.428 884.5,225.5C 878.487,227.454 876.487,225.454 878.5,219.5 Z"/></g>
<g><path style="opacity:1" fill="#1d1d1d" d="M 196.5,220.5 C 195.005,228.742 190.338,231.576 182.5,229C 188.644,228.435 193.311,225.602 196.5,220.5 Z"/></g>
<g><path style="opacity:1" fill="#191919" d="M 61.5,204.5 C 63.8881,205.219 65.3881,206.885 66,209.5C 67.0262,217.616 64.5262,224.449 58.5,230C 55.2945,230.89 52.2945,230.557 49.5,229C 59.0741,228.759 63.9075,223.926 64,214.5C 62.3333,215.833 60.6667,215.833 59,214.5C 58.0239,210.673 58.8572,207.34 61.5,204.5 Z"/></g>
<g><path style="opacity:1" fill="#c0c0c0" d="M 60.5,209.5 C 62.337,209.639 62.6704,210.306 61.5,211.5C 60.7025,211.043 60.3691,210.376 60.5,209.5 Z"/></g>
<g><path style="opacity:1" fill="#232323" d="M 119.5,223.5 C 121.842,223.775 121.842,224.608 119.5,226C 117.254,227.039 115.087,228.206 113,229.5C 112.383,228.551 112.549,227.718 113.5,227C 115.727,226.059 117.727,224.892 119.5,223.5 Z"/></g>
<g><path style="opacity:1" fill="#1e1e1e" d="M 224.5,222.5 C 225.774,223.189 225.774,224.023 224.5,225C 221.623,226.946 218.623,228.279 215.5,229C 218.567,226.812 221.567,224.645 224.5,222.5 Z"/></g>
<g><path style="opacity:1" fill="#1e1e1e" d="M 295.5,222.5 C 296.774,223.189 296.774,224.023 295.5,225C 292.623,226.946 289.623,228.279 286.5,229C 289.567,226.812 292.567,224.645 295.5,222.5 Z"/></g>
<g><path style="opacity:1" fill="#1f1f1f" d="M 344.5,225.5 C 344.833,225.5 345.167,225.5 345.5,225.5C 345.249,227.17 344.582,228.67 343.5,230C 339.106,233.259 334.439,233.925 329.5,232C 326.231,228.547 325.731,224.714 328,220.5C 328.045,223.334 328.879,225.834 330.5,228C 335.631,229.194 340.298,228.361 344.5,225.5 Z"/></g>
<g><path style="opacity:1" fill="#151515" d="M 481.5,198.5 C 483.308,198.491 484.975,198.991 486.5,200C 483.804,200.765 481.304,201.932 479,203.5C 478.167,206.818 479.501,208.485 483,208.5C 486.348,207.391 489.515,206.224 492.5,205C 488.025,208.804 483.525,212.637 479,216.5C 474.073,226.149 476.906,232.316 487.5,235C 492.535,235.418 497.535,235.418 502.5,235C 495.765,238.64 488.765,239.307 481.5,237C 475.892,234.182 473.725,229.682 475,223.5C 475.898,219.205 477.731,215.372 480.5,212C 475.663,208.958 475.163,205.124 479,200.5C 479.995,199.934 480.828,199.267 481.5,198.5 Z"/></g>
<g><path style="opacity:1" fill="#232323" d="M 674.5,223.5 C 676.842,223.775 676.842,224.608 674.5,226C 672.254,227.039 670.087,228.206 668,229.5C 667.383,228.551 667.549,227.718 668.5,227C 670.727,226.059 672.727,224.892 674.5,223.5 Z"/></g>
<g><path style="opacity:1" fill="#282828" d="M 146.5,224.5 C 147.774,225.189 147.774,226.023 146.5,227C 143.475,228.688 140.475,230.021 137.5,231C 140.402,228.583 143.402,226.416 146.5,224.5 Z"/></g>
<g><path style="opacity:1" fill="#1e1e1e" d="M 450.5,224.5 C 453.88,224.179 454.713,225.179 453,227.5C 451.358,226.154 450.691,226.487 451,228.5C 452.399,229.227 453.899,229.727 455.5,230C 452.975,231.616 450.309,232.616 447.5,233C 449.564,231.982 449.898,230.649 448.5,229C 449.044,227.415 449.711,225.915 450.5,224.5 Z"/></g>
<g><path style="opacity:1" fill="#181818" d="M 119.5,228.5 C 121.379,228.393 121.712,228.893 120.5,230C 110.44,235.713 110.107,235.213 119.5,228.5 Z"/></g>
<g><path style="opacity:1" fill="#2c2c2c" d="M 306.5,230.5 C 308.337,230.639 308.67,231.306 307.5,232.5C 297.348,237.53 297.015,236.863 306.5,230.5 Z"/></g>
<g><path style="opacity:1" fill="#232323" d="M 510.5,233.5 C 512.842,233.775 512.842,234.608 510.5,236C 508.254,237.039 506.087,238.206 504,239.5C 503.383,238.551 503.549,237.718 504.5,237C 506.727,236.059 508.727,234.892 510.5,233.5 Z"/></g>
<g><path style="opacity:1" fill="#282828" d="M 455.5,232.5 C 456.774,233.189 456.774,234.023 455.5,235C 452.475,236.688 449.475,238.021 446.5,239C 449.402,236.583 452.402,234.416 455.5,232.5 Z"/></g>
<g><path style="opacity:1" fill="#141414" d="M 842.5,236.5 C 849.381,237.264 850.215,239.931 845,244.5C 843.028,243.695 841.528,242.361 840.5,240.5C 841.63,239.378 842.297,238.044 842.5,236.5 Z"/></g>
<g><path style="opacity:1" fill="#282828" d="M 636.5,234.5 C 637.774,235.189 637.774,236.023 636.5,237C 633.475,238.688 630.475,240.021 627.5,241C 630.402,238.583 633.402,236.416 636.5,234.5 Z"/></g>
<g><path style="opacity:1" fill="#131313" d="M 905.5,240.5 C 911.531,242.265 912.031,244.932 907,248.5C 902.878,246.614 902.378,243.947 905.5,240.5 Z"/></g>
<g><path style="opacity:1" fill="#030303" d="M 709.5,241.5 C 710.496,241.414 711.329,241.748 712,242.5C 712.494,244.134 712.66,245.801 712.5,247.5C 742.833,247.5 773.167,247.5 803.5,247.5C 803.5,248.833 803.5,250.167 803.5,251.5C 773.167,251.5 742.833,251.5 712.5,251.5C 712.949,253.977 712.283,255.977 710.5,257.5C 706.762,255.303 703.429,252.636 700.5,249.5C 703.344,246.591 706.344,243.924 709.5,241.5 Z"/></g>
<g><path style="opacity:1" fill="#131313" d="M 855.5,242.5 C 856.376,242.369 857.043,242.702 857.5,243.5C 862.948,253.158 863.781,263.158 860,273.5C 852.797,282.176 843.964,284.342 833.5,280C 828.741,275.509 827.241,270.009 829,263.5C 833.64,252.77 834.473,253.103 831.5,264.5C 830.859,269.394 832.859,272.561 837.5,274C 859.576,276.956 865.41,268.789 855,249.5C 854.297,247.071 854.463,244.738 855.5,242.5 Z"/></g>
<g><path style="opacity:1" fill="#1e1e1e" d="M 486.5,241.5 C 487.774,242.189 487.774,243.023 486.5,244C 483.623,245.946 480.623,247.279 477.5,248C 480.567,245.812 483.567,243.645 486.5,241.5 Z"/></g>
<g><path style="opacity:1" fill="#121212" d="M 923.5,212.5 C 925.943,213.499 927.609,215.332 928.5,218C 926.814,220.208 925.814,222.708 925.5,225.5C 926.964,232.818 928.297,240.151 929.5,247.5C 929.296,253.062 928.129,258.395 926,263.5C 922.208,267.128 917.708,268.294 912.5,267C 910.981,265.649 909.648,264.149 908.5,262.5C 904.1,266.891 898.767,268.558 892.5,267.5C 891.114,276.779 886.781,284.279 879.5,290C 872.938,292.443 866.938,291.443 861.5,287C 876.474,288.506 886.141,282.006 890.5,267.5C 886.612,267.655 883.112,266.655 880,264.5C 879.371,258.093 881.704,253.093 887,249.5C 891.199,251.888 893.365,255.555 893.5,260.5C 900.421,261.957 905.921,259.957 910,254.5C 912.248,260.233 916.414,262.067 922.5,260C 925.685,258.296 927.019,255.63 926.5,252C 924.962,241.309 923.295,230.643 921.5,220C 921.739,217.365 922.406,214.865 923.5,212.5 Z"/></g>
<g><path style="opacity:1" fill="#f1f1f1" d="M 883.5,256.5 C 886.278,256.022 888.278,257.022 889.5,259.5C 885.857,261.395 883.857,260.395 883.5,256.5 Z"/></g>
<g><path style="opacity:1" fill="#232323" d="M 489.5,254.5 C 491.379,254.393 491.712,254.893 490.5,256C 488.083,257.626 485.583,259.126 483,260.5C 482.383,259.551 482.549,258.718 483.5,258C 485.727,257.059 487.727,255.892 489.5,254.5 Z"/></g>
<g><path style="opacity:1" fill="#1b1b1b" d="M 289.5,258.5 C 291.379,258.393 291.712,258.893 290.5,260C 280.44,265.713 280.107,265.213 289.5,258.5 Z"/></g>
<g><path style="opacity:1" fill="#242424" d="M 141.5,258.5 C 142.774,259.189 142.774,260.023 141.5,261C 138.942,262.626 136.275,263.626 133.5,264C 136.059,261.897 138.726,260.064 141.5,258.5 Z"/></g>
<g><path style="opacity:1" fill="#1b1b1b" d="M 486.5,260.5 C 487.5,260.5 488.5,260.5 489.5,260.5C 489.5,261.5 489.5,262.5 489.5,263.5C 488.127,263.343 486.793,263.51 485.5,264C 487.285,265.163 489.285,265.83 491.5,266C 488.975,267.616 486.309,268.616 483.5,269C 485.8,267.887 486.133,266.387 484.5,264.5C 484.752,262.927 485.418,261.594 486.5,260.5 Z"/></g>
<g><path style="opacity:1" fill="#181818" d="M 291.5,263.5 C 292.754,265.357 292.754,267.357 291.5,269.5C 288.827,270.759 286.161,271.592 283.5,272C 282.424,270.274 282.257,268.441 283,266.5C 283.249,267.624 283.749,268.624 284.5,269.5C 285.852,268.482 286.852,267.149 287.5,265.5C 290.147,268.18 291.48,267.513 291.5,263.5 Z"/></g>
<g><path style="opacity:1" fill="#282828" d="M 306.5,268.5 C 308.842,268.775 308.842,269.608 306.5,271C 303.942,272.626 301.275,273.626 298.5,274C 301.07,271.913 303.737,270.08 306.5,268.5 Z"/></g>
<g><path style="opacity:1" fill="#282828" d="M 433.5,269.5 C 435.842,269.775 435.842,270.608 433.5,272C 430.942,273.626 428.275,274.626 425.5,275C 428.07,272.913 430.737,271.08 433.5,269.5 Z"/></g>
<g><path style="opacity:1" fill="#282828" d="M 682.5,269.5 C 684.842,269.775 684.842,270.608 682.5,272C 679.942,273.626 677.275,274.626 674.5,275C 677.07,272.913 679.737,271.08 682.5,269.5 Z"/></g>
<g><path style="opacity:1" fill="#292929" d="M 185.5,267.5 C 186.774,268.189 186.774,269.023 185.5,270C 183.167,271.167 180.833,272.333 178.5,273.5C 178.167,273.167 177.833,272.833 177.5,272.5C 180.231,270.808 182.898,269.142 185.5,267.5 Z"/></g>
<g><path style="opacity:1" fill="#101010" d="M 320.5,269.5 C 321.5,269.5 322.5,269.5 323.5,269.5C 323.292,271.92 323.626,274.253 324.5,276.5C 321.636,277.207 319.136,278.541 317,280.5C 316.5,280.333 316,280.167 315.5,280C 320.239,277.933 321.906,274.433 320.5,269.5 Z"/></g>
<g><path style="opacity:1" fill="#202020" d="M 557.5,271.5 C 562.654,272.268 563.654,274.768 560.5,279C 555.917,279.934 554.417,278.1 556,273.5C 556.717,272.956 557.217,272.289 557.5,271.5 Z"/></g>
<g><path style="opacity:1" fill="#878787" d="M 320.5,271.5 C 322.337,271.639 322.67,272.306 321.5,273.5C 320.702,273.043 320.369,272.376 320.5,271.5 Z"/></g>
<g><path style="opacity:1" fill="#292929" d="M 280.5,269.5 C 281.774,270.189 281.774,271.023 280.5,272C 278.167,273.167 275.833,274.333 273.5,275.5C 273.167,275.167 272.833,274.833 272.5,274.5C 275.231,272.808 277.898,271.142 280.5,269.5 Z"/></g>
<g><path style="opacity:1" fill="#101010" d="M 374.5,271.5 C 375.5,271.5 376.5,271.5 377.5,271.5C 377.292,273.92 377.626,276.253 378.5,278.5C 375.636,279.207 373.136,280.541 371,282.5C 370.5,282.333 370,282.167 369.5,282C 374.239,279.933 375.906,276.433 374.5,271.5 Z"/></g>
<g><path style="opacity:1" fill="#222222" d="M 385.5,273.5 C 390.942,273.886 392.275,276.386 389.5,281C 387.866,281.494 386.199,281.66 384.5,281.5C 384.351,280.448 384.517,279.448 385,278.5C 386.356,279.38 387.856,279.714 389.5,279.5C 389.278,276.315 387.778,275.315 385,276.5C 384.53,275.423 384.697,274.423 385.5,273.5 Z"/></g>
<g><path style="opacity:1" fill="#202020" d="M 634.5,273.5 C 639.654,274.268 640.654,276.768 637.5,281C 632.917,281.934 631.417,280.1 633,275.5C 633.717,274.956 634.217,274.289 634.5,273.5 Z"/></g>
<g><path style="opacity:1" fill="#878787" d="M 374.5,273.5 C 376.337,273.639 376.67,274.306 375.5,275.5C 374.702,275.043 374.369,274.376 374.5,273.5 Z"/></g>
<g><path style="opacity:1" fill="#1d1d1d" d="M 489.5,298.5 C 488.833,296.5 488.167,294.5 487.5,292.5C 486.513,286.195 486.347,279.862 487,273.5C 488.968,281.715 489.801,290.049 489.5,298.5 Z"/></g>
<g><path style="opacity:1" fill="#dddddd" d="M 557.5,273.5 C 562.663,275.424 562.663,276.591 557.5,277C 556.316,275.855 556.316,274.688 557.5,273.5 Z"/></g>
<g><path style="opacity:1" fill="#1d1d1d" d="M 236.5,272.5 C 238.153,281.629 238.653,290.963 238,300.5C 237.405,293.627 236.572,286.794 235.5,280C 235.555,277.413 235.889,274.913 236.5,272.5 Z"/></g>
<g><path style="opacity:1" fill="#1b1b1b" d="M 262.5,275.5 C 264.28,276.755 266.113,276.755 268,275.5C 271.058,276.324 271.224,277.658 268.5,279.5C 266.214,278.58 263.881,278.58 261.5,279.5C 261.433,278.041 261.766,276.708 262.5,275.5 Z"/></g>
<g><path style="opacity:1" fill="#2d2d2d" d="M 347.5,272.5 C 350.22,281.97 350.72,291.637 349,301.5C 347.246,291.836 346.746,282.169 347.5,272.5 Z"/></g>
<g><path style="opacity:1" fill="#1e1e1e" d="M 473.5,273.5 C 475.198,270.876 477.031,270.876 479,273.5C 479.833,278 478,279.833 473.5,279C 472.193,277.057 472.193,275.223 473.5,273.5 Z"/></g>
<g><path style="opacity:1" fill="#dddddd" d="M 473.5,273.5 C 476.5,273.167 477.833,274.5 477.5,277.5C 474.5,277.833 473.167,276.5 473.5,273.5 Z"/></g>
<g><path style="opacity:1" fill="#dddddd" d="M 634.5,275.5 C 639.663,277.424 639.663,278.591 634.5,279C 633.316,277.855 633.316,276.688 634.5,275.5 Z"/></g>
<g><path style="opacity:1" fill="#292929" d="M 586.5,273.5 C 587.774,274.189 587.774,275.023 586.5,276C 584.167,277.167 581.833,278.333 579.5,279.5C 579.167,279.167 578.833,278.833 578.5,278.5C 581.231,276.808 583.898,275.142 586.5,273.5 Z"/></g>
<g><path style="opacity:1" fill="#1d1d1d" d="M 209.5,269.5 C 210.5,269.5 211.5,269.5 212.5,269.5C 212.292,271.92 212.626,274.253 213.5,276.5C 210.636,277.207 208.136,278.541 206,280.5C 205.5,280.333 205,280.167 204.5,280C 208.236,278.784 209.236,276.451 207.5,273C 207.978,271.697 208.645,270.531 209.5,269.5 Z"/></g>
<g><path style="opacity:1" fill="#282828" d="M 115.5,278.5 C 117.842,278.775 117.842,279.608 115.5,281C 112.942,282.626 110.275,283.626 107.5,284C 110.07,281.913 112.737,280.08 115.5,278.5 Z"/></g>
<g><path style="opacity:1" fill="#191919" d="M 303.5,281.5 C 304.287,279.896 305.62,279.229 307.5,279.5C 307.719,280.675 307.386,281.675 306.5,282.5C 305.583,281.873 304.583,281.539 303.5,281.5 Z"/></g>
<g><path style="opacity:1" fill="#1d1d1d" d="M 623.5,271.5 C 624.5,271.5 625.5,271.5 626.5,271.5C 626.292,273.92 626.626,276.253 627.5,278.5C 624.636,279.207 622.136,280.541 620,282.5C 619.5,282.333 619,282.167 618.5,282C 622.236,280.784 623.236,278.451 621.5,275C 621.978,273.697 622.645,272.531 623.5,271.5 Z"/></g>
<g><path style="opacity:1" fill="#1c1c1c" d="M 276.5,280.5 C 279.709,281.297 280.209,282.963 278,285.5C 275.527,284.26 275.027,282.593 276.5,280.5 Z"/></g>
<g><path style="opacity:1" fill="#0d0d0d" d="M 287.5,280.5 C 290.861,281.203 291.194,282.537 288.5,284.5C 286.3,283.675 285.966,282.342 287.5,280.5 Z"/></g>
<g><path style="opacity:1" fill="#202020" d="M 303.5,281.5 C 304.36,283.614 306.027,284.78 308.5,285C 306.351,286.164 304.185,287.33 302,288.5C 302.497,286.802 302.33,285.135 301.5,283.5C 301.855,282.478 302.522,281.811 303.5,281.5 Z"/></g>
<g><path style="opacity:1" fill="#181818" d="M 432.5,281.5 C 436.474,283.581 436.141,284.914 431.5,285.5C 431.433,284.041 431.766,282.708 432.5,281.5 Z"/></g>
<g><path style="opacity:1" fill="#181818" d="M 681.5,281.5 C 685.474,283.581 685.141,284.914 680.5,285.5C 680.433,284.041 680.766,282.708 681.5,281.5 Z"/></g>
<g><path style="opacity:1" fill="#1f1f1f" d="M 279.5,285.5 C 282.709,286.297 283.209,287.963 281,290.5C 279.343,287.84 277.676,287.84 276,290.5C 272.957,289.259 273.124,287.925 276.5,286.5C 278.225,288.092 279.225,287.758 279.5,285.5 Z"/></g>
<g><path style="opacity:1" fill="#9c9c9c" d="M 140.5,283.5 C 141.167,286.5 141.833,289.5 142.5,292.5C 142.217,293.289 141.717,293.956 141,294.5C 140.501,290.848 140.335,287.182 140.5,283.5 Z"/></g>
<g><path style="opacity:1" fill="#171717" d="M 226.5,270.5 C 228.121,270.787 229.121,271.787 229.5,273.5C 229.182,281.449 229.016,289.449 229,297.5C 225.596,301.984 221.43,302.651 216.5,299.5C 215.719,300.737 214.719,301.737 213.5,302.5C 211.167,301.167 208.833,299.833 206.5,298.5C 201.925,301.391 196.925,302.225 191.5,301C 189.845,299.556 189.178,297.722 189.5,295.5C 187.473,295.338 185.473,295.505 183.5,296C 179.983,297.924 176.316,299.591 172.5,301C 166.957,302.957 163.79,301.124 163,295.5C 161.595,287.84 161.428,280.173 162.5,272.5C 163.446,280.789 164.78,288.956 166.5,297C 171.943,298.03 176.943,297.03 181.5,294C 178.23,293.005 174.897,292.172 171.5,291.5C 172.412,289.257 174.078,288.257 176.5,288.5C 180.325,289.164 183.992,290.331 187.5,292C 190.146,292.497 192.813,292.664 195.5,292.5C 195.5,293.5 195.5,294.5 195.5,295.5C 194.022,295.238 192.689,295.571 191.5,296.5C 195.795,297.661 200.129,297.828 204.5,297C 206.385,294.778 208.551,292.944 211,291.5C 213.489,293.319 215.989,295.152 218.5,297C 221.167,297.667 223.833,297.667 226.5,297C 227.98,295.701 228.646,294.034 228.5,292C 227.142,284.894 226.475,277.727 226.5,270.5 Z"/></g>
<g><path style="opacity:1" fill="#161616" d="M 183.5,280.5 C 186.861,281.203 187.194,282.537 184.5,284.5C 182.358,283.563 182.024,282.23 183.5,280.5 Z"/></g>
<g><path style="opacity:1" fill="#181818" d="M 265.5,283.5 C 266.693,283.97 267.36,284.97 267.5,286.5C 267.953,289.889 268.62,293.223 269.5,296.5C 273.543,298.228 277.043,297.562 280,294.5C 282.921,298.012 286.088,298.345 289.5,295.5C 287.078,293.06 287.078,290.726 289.5,288.5C 293.119,294.923 291.452,299.256 284.5,301.5C 282.088,301.594 280.255,300.594 279,298.5C 273.295,303.337 269.295,302.337 267,295.5C 264.519,297.314 261.685,297.98 258.5,297.5C 259.18,293.298 261.347,289.964 265,287.5C 265.49,286.207 265.657,284.873 265.5,283.5 Z"/></g>
<g><path style="opacity:1" fill="#eaeaea" d="M 264.5,289.5 C 266.176,290.183 266.843,291.517 266.5,293.5C 264.801,293.66 263.134,293.494 261.5,293C 262.71,291.961 263.71,290.794 264.5,289.5 Z"/></g>
<g><path style="opacity:1" fill="#666666" d="M 97.5,295.5 C 96.8333,294.833 96.1667,294.167 95.5,293.5C 95.7622,291.394 96.7622,290.227 98.5,290C 97.5939,291.699 97.2606,293.533 97.5,295.5 Z"/></g>
<g><path style="opacity:1" fill="#1a1a1a" d="M 516.5,287.5 C 517.376,287.369 518.043,287.702 518.5,288.5C 515.503,291.162 514.169,294.495 514.5,298.5C 516.199,298.34 517.866,298.506 519.5,299C 521.063,301.476 520.396,302.976 517.5,303.5C 513.064,301.621 511.564,298.288 513,293.5C 514.394,291.612 515.56,289.612 516.5,287.5 Z"/></g>
<g><path style="opacity:1" fill="#181818" d="M 442.5,286.5 C 448.214,287.383 449.714,290.383 447,295.5C 442.07,298.945 436.57,300.945 430.5,301.5C 429.416,302.665 428.583,303.998 428,305.5C 427.316,304.216 427.483,303.049 428.5,302C 425.724,301.934 423.558,300.768 422,298.5C 418.13,302.059 413.963,302.392 409.5,299.5C 408.719,300.737 407.719,301.737 406.5,302.5C 404.167,301.167 401.833,299.833 399.5,298.5C 395.873,301.931 392.04,302.264 388,299.5C 385.79,301.111 383.29,301.778 380.5,301.5C 379.48,311.06 374.48,314.893 365.5,313C 375.514,311.754 379.848,306.254 378.5,296.5C 382.658,298.241 386.324,297.574 389.5,294.5C 390.386,295.325 390.719,296.325 390.5,297.5C 392.857,297.663 395.19,297.497 397.5,297C 399.385,294.778 401.551,292.944 404,291.5C 406.489,293.319 408.989,295.152 411.5,297C 415.829,298.151 419.662,297.318 423,294.5C 424.666,297.379 427.166,298.212 430.5,297C 434.101,292.889 438.101,289.389 442.5,286.5 Z"/></g>
<g><path style="opacity:1" fill="#ededed" d="M 438.5,291.5 C 448.839,292.071 448.839,293.905 438.5,297C 436.5,297.667 434.5,297.667 432.5,297C 434.396,294.932 436.396,293.099 438.5,291.5 Z"/></g>
<g><path style="opacity:1" fill="#141414" d="M 539.5,318.5 C 544.167,319.167 548.833,319.833 553.5,320.5C 547.629,322.323 541.629,322.823 535.5,322C 526.797,316.444 525.297,309.277 531,300.5C 532.833,298.667 534.667,296.833 536.5,295C 533.007,293.522 532.674,291.522 535.5,289C 538.303,288.245 540.97,288.578 543.5,290C 545.013,292.454 544.346,294.121 541.5,295C 545.483,297.436 549.816,298.102 554.5,297C 556.385,294.778 558.551,292.944 561,291.5C 567.978,298.317 575.811,299.317 584.5,294.5C 581.442,292.859 578.108,292.026 574.5,292C 575.907,289.748 577.907,288.582 580.5,288.5C 583.92,289.374 587.253,290.541 590.5,292C 593.146,292.497 595.813,292.664 598.5,292.5C 598.5,293.5 598.5,294.5 598.5,295.5C 594.486,295.334 590.486,295.501 586.5,296C 582.148,298.677 577.482,300.511 572.5,301.5C 570.311,301.406 568.311,300.739 566.5,299.5C 565.719,300.737 564.719,301.737 563.5,302.5C 561.167,301.167 558.833,299.833 556.5,298.5C 549.95,302.931 543.95,302.265 538.5,296.5C 528.469,301.867 527.136,308.7 534.5,317C 536.025,318.009 537.692,318.509 539.5,318.5 Z"/></g>
<g><path style="opacity:1" fill="#171717" d="M 691.5,286.5 C 697.214,287.383 698.714,290.383 696,295.5C 691.07,298.945 685.57,300.945 679.5,301.5C 678.416,302.665 677.583,303.998 677,305.5C 676.316,304.216 676.483,303.049 677.5,302C 674.724,301.934 672.558,300.768 671,298.5C 667.13,302.059 662.963,302.392 658.5,299.5C 657.719,300.737 656.719,301.737 655.5,302.5C 653.167,301.167 650.833,299.833 648.5,298.5C 644.55,302.339 640.717,302.339 637,298.5C 635.005,300.747 632.505,301.747 629.5,301.5C 628.48,311.06 623.48,314.893 614.5,313C 624.514,311.754 628.848,306.254 627.5,296.5C 631.539,298.283 635.039,297.616 638,294.5C 640.204,297.202 643.037,298.035 646.5,297C 648.385,294.778 650.551,292.944 653,291.5C 655.489,293.319 657.989,295.152 660.5,297C 664.829,298.151 668.662,297.318 672,294.5C 673.666,297.379 676.166,298.212 679.5,297C 683.101,292.889 687.101,289.389 691.5,286.5 Z"/></g>
<g><path style="opacity:1" fill="#ededed" d="M 687.5,291.5 C 697.839,292.071 697.839,293.905 687.5,297C 685.5,297.667 683.5,297.667 681.5,297C 683.396,294.932 685.396,293.099 687.5,291.5 Z"/></g>
<g><path style="opacity:1" fill="#141414" d="M 140.5,283.5 C 140.335,287.182 140.501,290.848 141,294.5C 141.717,293.956 142.217,293.289 142.5,292.5C 145.18,289.49 148.513,287.49 152.5,286.5C 157.494,289.265 157.827,292.765 153.5,297C 145.098,301.764 136.431,302.598 127.5,299.5C 118.862,303.188 109.862,304.355 100.5,303C 96.6099,301.055 94.9433,297.888 95.5,293.5C 96.1667,294.167 96.8333,294.833 97.5,295.5C 98.5736,296.885 99.9069,298.051 101.5,299C 107.833,299.667 114.167,299.667 120.5,299C 123.308,298.402 125.808,297.235 128,295.5C 131.667,298.167 135.333,298.167 139,295.5C 139.525,288.277 139.025,281.11 137.5,274C 138.093,269.555 139.093,269.555 140.5,274C 139.568,277.135 139.568,280.301 140.5,283.5 Z"/></g>
<g><path style="opacity:1" fill="#eeeeee" d="M 146.5,291.5 C 156.889,292.024 156.889,293.857 146.5,297C 144.5,297.667 142.5,297.667 140.5,297C 142.396,294.932 144.396,293.099 146.5,291.5 Z"/></g>
<g><path style="opacity:1" fill="#dfdfdf" d="M 210.5,293.5 C 212.377,294.659 212.877,296.326 212,298.5C 210.926,297.382 209.76,296.382 208.5,295.5C 209.243,294.818 209.909,294.151 210.5,293.5 Z"/></g>
<g><path style="opacity:1" fill="#dfdfdf" d="M 403.5,293.5 C 405.377,294.659 405.877,296.326 405,298.5C 403.926,297.382 402.76,296.382 401.5,295.5C 402.243,294.818 402.909,294.151 403.5,293.5 Z"/></g>
<g><path style="opacity:1" fill="#dfdfdf" d="M 560.5,293.5 C 562.377,294.659 562.877,296.326 562,298.5C 560.926,297.382 559.76,296.382 558.5,295.5C 559.243,294.818 559.909,294.151 560.5,293.5 Z"/></g>
<g><path style="opacity:1" fill="#dfdfdf" d="M 652.5,293.5 C 654.377,294.659 654.877,296.326 654,298.5C 652.926,297.382 651.76,296.382 650.5,295.5C 651.243,294.818 651.909,294.151 652.5,293.5 Z"/></g>
<g><path style="opacity:1" fill="#151515" d="M 338.5,270.5 C 339.88,270.962 340.547,271.962 340.5,273.5C 340.059,275.145 339.726,276.811 339.5,278.5C 341.776,285.133 341.942,291.8 340,298.5C 336.206,302.156 332.039,302.49 327.5,299.5C 326.719,300.737 325.719,301.737 324.5,302.5C 322.191,301.349 320.024,300.016 318,298.5C 315.259,300.784 312.092,301.784 308.5,301.5C 307.075,312.141 301.409,315.974 291.5,313C 299.106,312.884 304.439,309.384 307.5,302.5C 300.677,300.937 299.677,297.437 304.5,292C 307.777,292.138 309.111,293.971 308.5,297.5C 310.857,297.663 313.19,297.497 315.5,297C 317.996,295.446 320.163,293.613 322,291.5C 324.489,293.319 326.989,295.152 329.5,297C 332.562,297.741 335.562,297.575 338.5,296.5C 338.702,287.773 338.702,279.106 338.5,270.5 Z"/></g>
<g><path style="opacity:1" fill="#e3e3e3" d="M 303.5,295.5 C 304.675,295.281 305.675,295.614 306.5,296.5C 304.948,297.798 303.948,297.465 303.5,295.5 Z"/></g>
<g><path style="opacity:1" fill="#f7f7f7" d="M 321.5,293.5 C 323.476,294.427 323.809,295.76 322.5,297.5C 320.358,296.563 320.024,295.23 321.5,293.5 Z"/></g>
<g><path style="opacity:1" fill="#7c7c7c" d="M 487.5,292.5 C 488.167,294.5 488.833,296.5 489.5,298.5C 489.539,299.756 489.039,300.756 488,301.5C 487.502,298.518 487.335,295.518 487.5,292.5 Z"/></g>
<g><path style="opacity:1" fill="#1d1d1d" d="M 389.5,304.5 C 393.276,305.665 393.443,307.332 390,309.5C 388.598,307.027 387.098,307.027 385.5,309.5C 383.512,308.711 383.179,307.545 384.5,306C 385.549,305.508 386.549,305.674 387.5,306.5C 388.522,306.145 389.189,305.478 389.5,304.5 Z"/></g>
<g><path style="opacity:1" fill="#1d1d1d" d="M 584.5,304.5 C 587.709,305.297 588.209,306.963 586,309.5C 583.527,308.26 583.027,306.593 584.5,304.5 Z"/></g>
<g><path style="opacity:1" fill="#1d1d1d" d="M 637.5,304.5 C 640.709,305.297 641.209,306.963 639,309.5C 637.437,306.956 635.937,306.956 634.5,309.5C 630.793,308.687 630.627,307.354 634,305.5C 635.922,307.105 637.089,306.772 637.5,304.5 Z"/></g>
<g><path style="opacity:1" fill="#191919" d="M 108.5,307.5 C 112.541,307.502 113.208,308.835 110.5,311.5C 108.889,310.68 108.222,309.346 108.5,307.5 Z"/></g>
<g><path style="opacity:1" fill="#232323" d="M 265.5,307.5 C 267.842,307.775 267.842,308.608 265.5,310C 263.254,311.039 261.087,312.206 259,313.5C 258.383,312.551 258.549,311.718 259.5,311C 261.727,310.059 263.727,308.892 265.5,307.5 Z"/></g>
<g><path style="opacity:1" fill="#191919" d="M 477.5,288.5 C 479.888,289.219 481.388,290.885 482,293.5C 483.026,301.616 480.526,308.449 474.5,314C 471.294,314.89 468.294,314.557 465.5,313C 475.074,312.759 479.907,307.926 480,298.5C 478.333,299.833 476.667,299.833 475,298.5C 474.024,294.673 474.857,291.34 477.5,288.5 Z"/></g>
<g><path style="opacity:1" fill="#c0c0c0" d="M 476.5,293.5 C 478.337,293.639 478.67,294.306 477.5,295.5C 476.702,295.043 476.369,294.376 476.5,293.5 Z"/></g>
<g><path style="opacity:1" fill="#282828" d="M 407.5,306.5 C 408.774,307.189 408.774,308.023 407.5,309C 404.475,310.688 401.475,312.021 398.5,313C 401.402,310.583 404.402,308.416 407.5,306.5 Z"/></g>
<g><path style="opacity:1" fill="#282828" d="M 656.5,306.5 C 657.774,307.189 657.774,308.023 656.5,309C 653.475,310.688 650.475,312.021 647.5,313C 650.402,310.583 653.402,308.416 656.5,306.5 Z"/></g>
<g><path style="opacity:1" fill="#a7a7a7" d="M 539.5,318.5 C 544.844,318.334 550.177,318.501 555.5,319C 554.956,319.717 554.289,320.217 553.5,320.5C 548.833,319.833 544.167,319.167 539.5,318.5 Z"/></g>
<g><path style="opacity:1" fill="#232323" d="M 542.5,325.5 C 544.842,325.775 544.842,326.608 542.5,328C 540.254,329.039 538.087,330.206 536,331.5C 535.383,330.551 535.549,329.718 536.5,329C 538.727,328.059 540.727,326.892 542.5,325.5 Z"/></g>
<g><path style="opacity:1" fill="#181818" d="M 542.5,330.5 C 544.379,330.393 544.712,330.893 543.5,332C 533.44,337.713 533.107,337.213 542.5,330.5 Z"/></g>
</svg>
