<?xml version="1.0" encoding="UTF-8"?>
<!DOCTYPE svg PUBLIC "-//W3C//DTD SVG 1.1//EN" "http://www.w3.org/Graphics/SVG/1.1/DTD/svg11.dtd">
<svg xmlns="http://www.w3.org/2000/svg" version="1.1" width="1000px" height="500px" style="shape-rendering:geometricPrecision; text-rendering:geometricPrecision; image-rendering:optimizeQuality; fill-rule:evenodd; clip-rule:evenodd" xmlns:xlink="http://www.w3.org/1999/xlink">
<g><path style="opacity:1" fill="#fefefe" d="M -0.5,-0.5 C 332.833,-0.5 666.167,-0.5 999.5,-0.5C 999.5,166.167 999.5,332.833 999.5,499.5C 666.167,499.5 332.833,499.5 -0.5,499.5C -0.5,332.833 -0.5,166.167 -0.5,-0.5 Z"/></g>
<g><path style="opacity:1" fill="#161616" d="M 516.5,99.5 C 521.668,100.339 522.668,102.839 519.5,107C 514.917,107.934 513.417,106.1 515,101.5C 515.717,100.956 516.217,100.289 516.5,99.5 Z"/></g>
<g><path style="opacity:1" fill="#dcdcdc" d="M 516.5,101.5 C 521.663,103.424 521.663,104.591 516.5,105C 515.316,103.855 515.316,102.688 516.5,101.5 Z"/></g>
<g><path style="opacity:1" fill="#1b1b1b" d="M 546.5,102.5 C 548.379,102.393 548.712,102.893 547.5,104C 537.44,109.713 537.107,109.213 546.5,102.5 Z"/></g>
<g><path style="opacity:1" fill="#181818" d="M 548.5,107.5 C 549.754,109.357 549.754,111.357 548.5,113.5C 545.827,114.759 543.161,115.592 540.5,116C 539.424,114.274 539.257,112.441 540,110.5C 540.249,111.624 540.749,112.624 541.5,113.5C 542.852,112.482 543.852,111.149 544.5,109.5C 547.147,112.18 548.48,111.513 548.5,107.5 Z"/></g>
<g><path style="opacity:1" fill="#222222" d="M 615.5,111.5 C 620.942,111.886 622.275,114.386 619.5,119C 617.866,119.494 616.199,119.66 614.5,119.5C 614.351,118.448 614.517,117.448 615,116.5C 616.356,117.38 617.856,117.714 619.5,117.5C 619.278,114.315 617.778,113.315 615,114.5C 614.53,113.423 614.697,112.423 615.5,111.5 Z"/></g>
<g><path style="opacity:1" fill="#222222" d="M 474.5,113.5 C 479.942,113.886 481.275,116.386 478.5,121C 476.866,121.494 475.199,121.66 473.5,121.5C 473.351,120.448 473.517,119.448 474,118.5C 475.356,119.38 476.856,119.714 478.5,119.5C 478.278,116.315 476.778,115.315 474,116.5C 473.53,115.423 473.697,114.423 474.5,113.5 Z"/></g>
<g><path style="opacity:1" fill="#1d1d1d" d="M 564.5,112.5 C 566.153,121.629 566.653,130.963 566,140.5C 565.405,133.627 564.572,126.794 563.5,120C 563.555,117.413 563.889,114.913 564.5,112.5 Z"/></g>
<g><path style="opacity:1" fill="#242424" d="M 644.5,113.5 C 645.774,114.189 645.774,115.023 644.5,116C 641.942,117.626 639.275,118.626 636.5,119C 639.059,116.897 641.726,115.064 644.5,113.5 Z"/></g>
<g><path style="opacity:1" fill="#161616" d="M 526.5,132.5 C 526.062,131.494 525.396,131.494 524.5,132.5C 521.668,129.822 518.501,127.488 515,125.5C 512.955,122.281 513.455,119.448 516.5,117C 523.002,112.576 530.002,109.576 537.5,108C 536.833,109 536.167,110 535.5,111C 528.525,113.238 522.025,116.405 516,120.5C 515.333,121.167 515.333,121.833 516,122.5C 523.448,126.473 530.281,131.306 536.5,137C 540.591,138.227 544.091,137.394 547,134.5C 548.856,137.119 551.356,137.952 554.5,137C 555.98,135.701 556.646,134.034 556.5,132C 554.804,124.863 554.471,117.697 555.5,110.5C 556.415,111.328 557.081,112.328 557.5,113.5C 557.182,121.449 557.016,129.449 557,137.5C 553.74,142.285 550.073,142.619 546,138.5C 543.441,141.349 540.274,142.183 536.5,141C 533.588,137.581 530.254,134.748 526.5,132.5 Z"/></g>
<g><path style="opacity:1" fill="#272727" d="M 546.5,125.5 C 549.709,126.297 550.209,127.963 548,130.5C 545.394,130.484 542.894,129.984 540.5,129C 541.744,126.697 543.411,126.197 545.5,127.5C 546.298,127.043 546.631,126.376 546.5,125.5 Z"/></g>
<g><path style="opacity:1" fill="#101010" d="M 659.5,131.5 C 663.913,131.687 668.246,132.354 672.5,133.5C 672.415,135.929 671.415,137.929 669.5,139.5C 698.431,176.6 727.931,213.267 758,249.5C 758.938,252.88 758.271,255.88 756,258.5C 727.333,291.833 698.667,325.167 670,358.5C 670.937,360.674 671.771,363.007 672.5,365.5C 668.21,366.425 663.876,367.091 659.5,367.5C 659.5,363.167 659.5,358.833 659.5,354.5C 661.827,354.247 663.827,354.914 665.5,356.5C 667.817,354.684 669.984,352.684 672,350.5C 698.126,319.372 724.626,288.539 751.5,258C 725.157,266.743 698.991,276.243 673,286.5C 672.505,288.473 672.338,290.473 672.5,292.5C 667.449,292.873 663.116,291.373 659.5,288C 661.566,284.029 664.233,280.529 667.5,277.5C 668.604,279.389 669.937,281.055 671.5,282.5C 698.396,272.368 725.396,262.535 752.5,253C 725.098,240.459 697.431,228.792 669.5,218C 668.325,221.691 666.492,222.191 664,219.5C 662.027,216.251 660.694,212.917 660,209.5C 664.017,207.786 668.184,206.953 672.5,207C 673.131,209.355 673.131,211.522 672.5,213.5C 698.047,224.95 723.714,235.783 749.5,246C 721.659,211.331 693.659,176.831 665.5,142.5C 664.167,143.5 662.833,144.5 661.5,145.5C 660.914,145.291 660.414,144.957 660,144.5C 659.501,140.179 659.334,135.846 659.5,131.5 Z"/></g>
<g><path style="opacity:1" fill="#818181" d="M 526.5,132.5 C 526.768,134.099 526.434,135.432 525.5,136.5C 525.5,135.833 525.167,135.5 524.5,135.5C 524.5,134.5 524.5,133.5 524.5,132.5C 525.396,131.494 526.062,131.494 526.5,132.5 Z"/></g>
<g><path style="opacity:1" fill="#141414" d="M 597.5,158.5 C 602.167,159.167 606.833,159.833 611.5,160.5C 605.629,162.323 599.629,162.823 593.5,162C 584.797,156.444 583.297,149.277 589,140.5C 590.833,138.667 592.667,136.833 594.5,135C 591.968,134.388 591.135,132.888 592,130.5C 594.968,128.009 598.135,127.843 601.5,130C 603.013,132.454 602.346,134.121 599.5,135C 603.483,137.436 607.816,138.102 612.5,137C 614.996,135.446 617.163,133.613 619,131.5C 626.019,138.32 633.852,139.32 642.5,134.5C 639.714,133.044 636.714,132.044 633.5,131.5C 634.412,129.257 636.078,128.257 638.5,128.5C 641.92,129.374 645.253,130.541 648.5,132C 651.5,132.333 654.5,132.667 657.5,133C 649.508,134.234 641.841,136.9 634.5,141C 630.958,141.851 627.625,141.351 624.5,139.5C 623.719,140.737 622.719,141.737 621.5,142.5C 619.191,141.349 617.024,140.016 615,138.5C 608.273,142.972 602.106,142.305 596.5,136.5C 586.469,141.867 585.136,148.7 592.5,157C 594.025,158.009 595.692,158.509 597.5,158.5 Z"/></g>
<g><path style="opacity:1" fill="#131313" d="M 524.5,135.5 C 525.167,135.5 525.5,135.833 525.5,136.5C 522.946,140.255 519.279,141.922 514.5,141.5C 510.772,142.204 508.106,140.871 506.5,137.5C 504.25,140.949 501.584,141.282 498.5,138.5C 494.876,142.301 491.376,142.301 488,138.5C 484.254,142.393 480.588,142.393 477,138.5C 475.005,140.747 472.505,141.747 469.5,141.5C 468.48,151.06 463.48,154.893 454.5,153C 464.514,151.754 468.848,146.254 467.5,136.5C 471.539,138.283 475.039,137.616 478,134.5C 481.622,138.415 485.288,138.415 489,134.5C 492.805,138.601 496.472,138.268 500,133.5C 502.061,137.438 504.227,137.438 506.5,133.5C 507.382,134.76 508.382,135.926 509.5,137C 513.833,137.667 518.167,137.667 522.5,137C 523.416,136.722 524.082,136.222 524.5,135.5 Z"/></g>
<g><path style="opacity:1" fill="#f7f7f7" d="M 618.5,133.5 C 620.476,134.427 620.809,135.76 619.5,137.5C 617.358,136.563 617.024,135.23 618.5,133.5 Z"/></g>
<g><path style="opacity:1" fill="#1d1d1d" d="M 477.5,144.5 C 480.709,145.297 481.209,146.963 479,149.5C 477.437,146.956 475.937,146.956 474.5,149.5C 470.793,148.687 470.627,147.354 474,145.5C 475.922,147.105 477.089,146.772 477.5,144.5 Z"/></g>
<g><path style="opacity:1" fill="#242424" d="M 643.5,144.5 C 647.276,145.665 647.443,147.332 644,149.5C 643.167,148.667 642.333,147.833 641.5,147C 642.381,146.292 643.047,145.458 643.5,144.5 Z"/></g>
<g><path style="opacity:1" fill="#1e1e1e" d="M 499.5,146.5 C 500.774,147.189 500.774,148.023 499.5,149C 496.623,150.946 493.623,152.279 490.5,153C 493.567,150.812 496.567,148.645 499.5,146.5 Z"/></g>
<g><path style="opacity:1" fill="#a7a7a7" d="M 597.5,158.5 C 602.844,158.334 608.177,158.501 613.5,159C 612.956,159.717 612.289,160.217 611.5,160.5C 606.833,159.833 602.167,159.167 597.5,158.5 Z"/></g>
<g><path style="opacity:1" fill="#232323" d="M 465.5,157.5 C 467.842,157.775 467.842,158.608 465.5,160C 463.254,161.039 461.087,162.206 459,163.5C 458.383,162.551 458.549,161.718 459.5,161C 461.727,160.059 463.727,158.892 465.5,157.5 Z"/></g>
<g><path style="opacity:1" fill="#232323" d="M 600.5,165.5 C 602.842,165.775 602.842,166.608 600.5,168C 598.254,169.039 596.087,170.206 594,171.5C 593.383,170.551 593.549,169.718 594.5,169C 596.727,168.059 598.727,166.892 600.5,165.5 Z"/></g>
<g><path style="opacity:1" fill="#161616" d="M 643.5,172.5 C 648.668,173.339 649.668,175.839 646.5,180C 641.917,180.934 640.417,179.1 642,174.5C 642.717,173.956 643.217,173.289 643.5,172.5 Z"/></g>
<g><path style="opacity:1" fill="#dcdcdc" d="M 643.5,174.5 C 648.663,176.424 648.663,177.591 643.5,178C 642.316,176.855 642.316,175.688 643.5,174.5 Z"/></g>
<g><path style="opacity:1" fill="#202020" d="M 507.5,180.5 C 512.654,181.268 513.654,183.768 510.5,188C 505.917,188.934 504.417,187.1 506,182.5C 506.717,181.956 507.217,181.289 507.5,180.5 Z"/></g>
<g><path style="opacity:1" fill="#dddddd" d="M 507.5,182.5 C 512.663,184.424 512.663,185.591 507.5,186C 506.316,184.855 506.316,183.688 507.5,182.5 Z"/></g>
<g><path style="opacity:1" fill="#191919" d="M 646.5,200.5 C 645.833,198.5 645.167,196.5 644.5,194.5C 644.125,191.603 644.625,188.937 646,186.5C 646.465,187.931 647.299,189.097 648.5,190C 648,190.5 647.5,191 647,191.5C 646.502,194.482 646.335,197.482 646.5,200.5 Z"/></g>
<g><path style="opacity:1" fill="#151515" d="M 644.5,202.5 C 645.338,202.842 645.672,203.508 645.5,204.5C 644.953,209.523 644.286,214.523 643.5,219.5C 640.572,220.484 637.572,220.817 634.5,220.5C 634.5,219.167 634.5,217.833 634.5,216.5C 638.843,216.653 641.01,214.653 641,210.5C 637.36,203.195 632.027,197.528 625,193.5C 624.333,192.167 624.333,190.833 625,189.5C 625.718,188.549 626.551,188.383 627.5,189C 633.819,194.983 638.986,201.816 643,209.5C 643.662,207.187 644.162,204.854 644.5,202.5 Z"/></g>
<g><path style="opacity:1" fill="#222222" d="M 607.5,192.5 C 612.942,192.886 614.275,195.386 611.5,200C 609.866,200.494 608.199,200.66 606.5,200.5C 606.351,199.448 606.517,198.448 607,197.5C 608.356,198.38 609.856,198.714 611.5,198.5C 611.278,195.315 609.778,194.315 607,195.5C 606.53,194.423 606.697,193.423 607.5,192.5 Z"/></g>
<g><path style="opacity:1" fill="#141414" d="M 776.5,193.5 C 782.78,194.254 784.113,197.421 780.5,203C 784.719,207.466 783.719,209.133 777.5,208C 775.833,209.667 774.167,211.333 772.5,213C 770.5,213.667 768.5,213.667 766.5,213C 769.783,211.439 772.617,209.273 775,206.5C 774.421,204.658 773.921,202.658 773.5,200.5C 774.025,197.971 775.025,195.638 776.5,193.5 Z"/></g>
<g><path style="opacity:1" fill="#1d1d1d" d="M 554.5,191.5 C 556.153,200.629 556.653,209.963 556,219.5C 555.405,212.627 554.572,205.794 553.5,199C 553.555,196.413 553.889,193.913 554.5,191.5 Z"/></g>
<g><path style="opacity:1" fill="#6a6a6a" d="M 644.5,194.5 C 645.167,196.5 645.833,198.5 646.5,200.5C 646.768,202.099 646.434,203.432 645.5,204.5C 645.672,203.508 645.338,202.842 644.5,202.5C 644.5,199.833 644.5,197.167 644.5,194.5 Z"/></g>
<g><path style="opacity:1" fill="#2d2d2d" d="M 654.5,191.5 C 657.22,200.97 657.72,210.637 656,220.5C 654.246,210.836 653.746,201.169 654.5,191.5 Z"/></g>
<g><path style="opacity:1" fill="#121212" d="M 510.5,196.5 C 513.861,197.203 514.194,198.537 511.5,200.5C 509.358,199.563 509.024,198.23 510.5,196.5 Z"/></g>
<g><path style="opacity:1" fill="#1d1d1d" d="M 527.5,188.5 C 528.5,188.5 529.5,188.5 530.5,188.5C 530.292,190.92 530.626,193.253 531.5,195.5C 528.636,196.207 526.136,197.541 524,199.5C 523.5,199.333 523,199.167 522.5,199C 526.236,197.784 527.236,195.451 525.5,192C 525.978,190.697 526.645,189.531 527.5,188.5 Z"/></g>
<g><path style="opacity:1" fill="#181818" d="M 867.5,196.5 C 868.376,196.369 869.043,196.702 869.5,197.5C 868.687,198.814 867.687,199.981 866.5,201C 862.255,203.039 858.088,205.206 854,207.5C 853.289,205.633 853.789,204.133 855.5,203C 859.722,201.059 863.722,198.892 867.5,196.5 Z"/></g>
<g><path style="opacity:1" fill="#bbbbbb" d="M 776.5,197.5 C 779.275,197.834 779.941,199.167 778.5,201.5C 776.889,200.68 776.222,199.346 776.5,197.5 Z"/></g>
<g><path style="opacity:1" fill="#292929" d="M 496.5,195.5 C 497.774,196.189 497.774,197.023 496.5,198C 494.167,199.167 491.833,200.333 489.5,201.5C 489.167,201.167 488.833,200.833 488.5,200.5C 491.231,198.808 493.898,197.142 496.5,195.5 Z"/></g>
<g><path style="opacity:1" fill="#151515" d="M 868.5,205.5 C 869.777,206.694 870.444,208.36 870.5,210.5C 871.25,217.087 868.584,219.754 862.5,218.5C 860.877,222.058 858.21,223.224 854.5,222C 851.878,218.465 851.878,214.965 854.5,211.5C 855.466,213.396 855.799,215.396 855.5,217.5C 856.822,217.67 857.989,217.337 859,216.5C 860,213.833 861,211.167 862,208.5C 863.117,209.949 863.784,211.616 864,213.5C 864.718,214.451 865.551,214.617 866.5,214C 867.991,211.379 868.658,208.545 868.5,205.5 Z"/></g>
<g><path style="opacity:1" fill="#181818" d="M 815.5,206.5 C 816.376,206.369 817.043,206.702 817.5,207.5C 816.687,208.814 815.687,209.981 814.5,211C 810.255,213.039 806.088,215.206 802,217.5C 801.289,215.633 801.789,214.133 803.5,213C 807.722,211.059 811.722,208.892 815.5,206.5 Z"/></g>
<g><path style="opacity:1" fill="#161616" d="M 544.5,189.5 C 546.121,189.787 547.121,190.787 547.5,192.5C 547.182,200.449 547.016,208.449 547,216.5C 543.596,220.984 539.43,221.651 534.5,218.5C 533.719,219.737 532.719,220.737 531.5,221.5C 529.167,220.167 526.833,218.833 524.5,217.5C 519.43,221.131 514.097,221.464 508.5,218.5C 505.284,219.795 501.951,220.462 498.5,220.5C 498.118,230.741 493.118,234.575 483.5,232C 490.32,231.597 494.987,228.264 497.5,222C 496.833,220.667 496.167,219.333 495.5,218C 495.645,217.228 495.978,216.561 496.5,216C 499.413,216.29 502.413,216.457 505.5,216.5C 505.627,211.573 507.794,207.906 512,205.5C 514.528,206.197 515.694,207.864 515.5,210.5C 515.563,212.481 514.896,214.148 513.5,215.5C 516.446,216.655 519.446,216.821 522.5,216C 524.385,213.778 526.551,211.944 529,210.5C 531.489,212.319 533.989,214.152 536.5,216C 539.167,216.667 541.833,216.667 544.5,216C 545.98,214.701 546.646,213.034 546.5,211C 545.142,203.894 544.475,196.727 544.5,189.5 Z"/></g>
<g><path style="opacity:1" fill="#f0f0f0" d="M 509.5,209.5 C 514.218,210.319 514.552,211.986 510.5,214.5C 507.14,213.209 506.806,211.543 509.5,209.5 Z"/></g>
<g><path style="opacity:1" fill="#151515" d="M 618.5,209.5 C 619.725,210.152 620.392,211.319 620.5,213C 620.185,218.487 617.852,219.654 613.5,216.5C 611.747,218.261 609.747,219.594 607.5,220.5C 605.617,220.124 604.117,219.124 603,217.5C 598.925,220.603 594.425,221.27 589.5,219.5C 587.103,227.335 584.77,227.169 582.5,219C 579.647,218.341 577.98,219.508 577.5,222.5C 579.174,228.75 579.674,235.083 579,241.5C 576.855,233.953 576.189,226.287 577,218.5C 579.004,215.91 581.504,213.91 584.5,212.5C 589.496,216.346 595.162,217.512 601.5,216C 603.138,212.943 604.471,212.943 605.5,216C 609.684,217.165 612.517,215.665 614,211.5C 618.264,215.869 619.764,215.202 618.5,209.5 Z"/></g>
<g><path style="opacity:1" fill="#dfdfdf" d="M 528.5,212.5 C 530.377,213.659 530.877,215.326 530,217.5C 528.926,216.382 527.76,215.382 526.5,214.5C 527.243,213.818 527.909,213.151 528.5,212.5 Z"/></g>
<g><path style="opacity:1" fill="#0d0d0d" d="M 474.5,203.5 C 482.115,205.039 484.949,209.706 483,217.5C 479.199,219.926 475.032,220.926 470.5,220.5C 470.5,219.167 470.5,217.833 470.5,216.5C 473.187,216.664 475.854,216.497 478.5,216C 482.889,215.224 483.555,213.224 480.5,210C 476.708,209.311 474.708,207.144 474.5,203.5 Z"/></g>
<g><path style="opacity:1" fill="#8f8f8f" d="M 641.5,214.5 C 643.934,215.354 643.767,216.354 641,217.5C 640.53,216.423 640.697,215.423 641.5,214.5 Z"/></g>
<g><path style="opacity:1" fill="#151515" d="M 816.5,215.5 C 817.777,216.694 818.444,218.36 818.5,220.5C 819.25,227.087 816.584,229.754 810.5,228.5C 808.877,232.058 806.21,233.224 802.5,232C 799.878,228.465 799.878,224.965 802.5,221.5C 803.466,223.396 803.799,225.396 803.5,227.5C 804.822,227.67 805.989,227.337 807,226.5C 808,223.833 809,221.167 810,218.5C 811.117,219.949 811.784,221.616 812,223.5C 812.718,224.451 813.551,224.617 814.5,224C 815.991,221.379 816.658,218.545 816.5,215.5 Z"/></g>
<g><path style="opacity:1" fill="#131313" d="M 921.5,219.5 C 924.08,234.595 925.247,249.928 925,265.5C 924.784,267.384 924.117,269.051 923,270.5C 922.937,268.04 923.104,265.54 923.5,263C 921.706,251.731 920.373,240.397 919.5,229C 919.331,225.599 919.998,222.432 921.5,219.5 Z"/></g>
<g><path style="opacity:1" fill="#131313" d="M 783.5,223.5 C 789.446,224.516 790.446,227.016 786.5,231C 784.544,230.778 782.71,229.945 781,228.5C 779.647,229.685 778.48,231.019 777.5,232.5C 775.483,231.826 773.817,230.659 772.5,229C 773.726,227.365 775.059,225.865 776.5,224.5C 779.769,228.56 782.102,228.226 783.5,223.5 Z"/></g>
<g><path style="opacity:1" fill="#232323" d="M 639.5,223.5 C 641.842,223.775 641.842,224.608 639.5,226C 637.254,227.039 635.087,228.206 633,229.5C 632.383,228.551 632.549,227.718 633.5,227C 635.727,226.059 637.727,224.892 639.5,223.5 Z"/></g>
<g><path style="opacity:1" fill="#1e1e1e" d="M 479.5,224.5 C 480.774,225.189 480.774,226.023 479.5,227C 476.623,228.946 473.623,230.279 470.5,231C 473.567,228.812 476.567,226.645 479.5,224.5 Z"/></g>
<g><path style="opacity:1" fill="#101010" d="M 865.5,233.5 C 867.934,234.099 869.601,235.599 870.5,238C 868.462,242.402 866.129,242.569 863.5,238.5C 864.456,236.925 865.123,235.258 865.5,233.5 Z"/></g>
<g><path style="opacity:1" fill="#0f0f0f" d="M 904.5,215.5 C 906.943,216.499 908.609,218.332 909.5,221C 907.814,223.208 906.814,225.708 906.5,228.5C 907.964,235.818 909.297,243.151 910.5,250.5C 910.296,256.062 909.129,261.395 907,266.5C 905.681,268.487 903.848,269.654 901.5,270C 887.167,270.333 872.833,270.667 858.5,271C 857.475,273.071 856.642,275.238 856,277.5C 855.13,276.892 854.63,276.059 854.5,275C 855.148,273.56 855.481,272.06 855.5,270.5C 850.78,271.106 847.114,269.44 844.5,265.5C 837.341,271.755 829.841,272.088 822,266.5C 821.641,269.525 819.975,271.192 817,271.5C 812.553,269.943 808.553,267.61 805,264.5C 800.734,269.876 795.234,271.71 788.5,270C 785.854,267.13 783.854,263.964 782.5,260.5C 777.413,265.805 772.413,265.805 767.5,260.5C 769.716,254.285 773.716,249.619 779.5,246.5C 780.115,243.564 781.282,240.897 783,238.5C 783.333,239.5 783.667,240.5 784,241.5C 784.765,248.883 786.265,256.05 788.5,263C 792.167,263.667 795.833,263.667 799.5,263C 804.297,259.868 808.797,256.368 813,252.5C 817.263,256.76 822.097,260.26 827.5,263C 831.833,263.667 836.167,263.667 840.5,263C 842.976,261.691 844.976,259.858 846.5,257.5C 848.935,263.55 853.268,265.55 859.5,263.5C 864.462,255.704 871.128,249.871 879.5,246C 890.13,244.076 893.63,248.243 890,258.5C 888.127,260.709 885.96,262.542 883.5,264C 890.143,263.891 896.81,263.558 903.5,263C 906.685,261.296 908.019,258.63 907.5,255C 905.962,244.309 904.295,233.643 902.5,223C 902.739,220.365 903.406,217.865 904.5,215.5 Z"/></g>
<g><path style="opacity:1" fill="#232323" d="M 582.5,242.5 C 584.842,242.775 584.842,243.608 582.5,245C 580.254,246.039 578.087,247.206 576,248.5C 575.383,247.551 575.549,246.718 576.5,246C 578.727,245.059 580.727,243.892 582.5,242.5 Z"/></g>
<g><path style="opacity:1" fill="#e1e1e1" d="M 779.5,249.5 C 780.496,249.414 781.329,249.748 782,250.5C 782.949,257.79 780.115,259.457 773.5,255.5C 775.215,253.118 777.215,251.118 779.5,249.5 Z"/></g>
<g><path style="opacity:1" fill="#f0f0f0" d="M 876.5,252.5 C 880.007,252.307 883.34,252.973 886.5,254.5C 887.731,255.651 887.731,256.817 886.5,258C 879.286,262.143 871.619,263.643 863.5,262.5C 866.998,257.936 871.331,254.602 876.5,252.5 Z"/></g>
<g><path style="opacity:1" fill="#242424" d="M 507.5,254.5 C 508.774,255.189 508.774,256.023 507.5,257C 504.942,258.626 502.275,259.626 499.5,260C 502.059,257.897 504.726,256.064 507.5,254.5 Z"/></g>
<g><path style="opacity:1" fill="#ececec" d="M 811.5,256.5 C 813.124,256.36 814.29,257.027 815,258.5C 815.499,265.636 813.332,266.136 808.5,260C 809.71,258.961 810.71,257.794 811.5,256.5 Z"/></g>
<g><path style="opacity:1" fill="#202020" d="M 507.5,260.5 C 509.852,261.952 510.185,263.952 508.5,266.5C 505.582,267.87 502.582,268.87 499.5,269.5C 499.338,267.473 499.505,265.473 500,263.5C 500.249,264.624 500.749,265.624 501.5,266.5C 502.852,265.482 503.852,264.149 504.5,262.5C 506.714,264.924 507.714,264.257 507.5,260.5 Z"/></g>
<g><path style="opacity:1" fill="#282828" d="M 413.5,264.5 C 414.774,265.189 414.774,266.023 413.5,267C 411.167,268.167 408.833,269.333 406.5,270.5C 406.167,270.167 405.833,269.833 405.5,269.5C 408.231,267.808 410.898,266.142 413.5,264.5 Z"/></g>
<g><path style="opacity:1" fill="#222222" d="M 615.5,268.5 C 620.942,268.886 622.275,271.386 619.5,276C 617.866,276.494 616.199,276.66 614.5,276.5C 614.351,275.448 614.517,274.448 615,273.5C 616.356,274.38 617.856,274.714 619.5,274.5C 619.278,271.315 617.778,270.315 615,271.5C 614.53,270.423 614.697,269.423 615.5,268.5 Z"/></g>
<g><path style="opacity:1" fill="#242424" d="M 523.5,266.5 C 524.774,267.189 524.774,268.023 523.5,269C 520.942,270.626 518.275,271.626 515.5,272C 518.059,269.897 520.726,268.064 523.5,266.5 Z"/></g>
<g><path style="opacity:1" fill="#1d1d1d" d="M 439.5,269.5 C 441.153,278.629 441.653,287.963 441,297.5C 440.405,290.627 439.572,283.794 438.5,277C 438.555,274.413 438.889,271.913 439.5,269.5 Z"/></g>
<g><path style="opacity:1" fill="#1d1d1d" d="M 564.5,269.5 C 566.153,278.629 566.653,287.963 566,297.5C 565.405,290.627 564.572,283.794 563.5,277C 563.555,274.413 563.889,271.913 564.5,269.5 Z"/></g>
<g><path style="opacity:1" fill="#242424" d="M 644.5,270.5 C 645.774,271.189 645.774,272.023 644.5,273C 641.942,274.626 639.275,275.626 636.5,276C 639.059,273.897 641.726,272.064 644.5,270.5 Z"/></g>
<g><path style="opacity:1" fill="#020202" d="M 520.5,278.5 C 521.427,276.524 522.76,276.191 524.5,277.5C 523.311,278.429 521.978,278.762 520.5,278.5 Z"/></g>
<g><path style="opacity:1" fill="#1d1d1d" d="M 537.5,267.5 C 538.5,267.5 539.5,267.5 540.5,267.5C 540.292,269.92 540.626,272.253 541.5,274.5C 538.636,275.207 536.136,276.541 534,278.5C 533.5,278.333 533,278.167 532.5,278C 536.236,276.784 537.236,274.451 535.5,271C 535.978,269.697 536.645,268.531 537.5,267.5 Z"/></g>
<g><path style="opacity:1" fill="#232323" d="M 477.5,277.5 C 481.127,278.47 481.461,280.137 478.5,282.5C 476.296,281.218 475.962,279.551 477.5,277.5 Z"/></g>
<g><path style="opacity:1" fill="#151515" d="M 504.5,277.5 C 507.861,278.203 508.194,279.537 505.5,281.5C 503.358,280.563 503.024,279.23 504.5,277.5 Z"/></g>
<g><path style="opacity:1" fill="#141414" d="M 520.5,278.5 C 521.36,280.614 523.027,281.78 525.5,282C 523.35,283.59 521.017,284.257 518.5,284C 519.711,282.887 519.711,281.72 518.5,280.5C 518.855,279.478 519.522,278.811 520.5,278.5 Z"/></g>
<g><path style="opacity:1" fill="#1e1e1e" d="M 480.5,282.5 C 483.78,283.732 484.114,285.399 481.5,287.5C 479.296,286.218 478.962,284.551 480.5,282.5 Z"/></g>
<g><path style="opacity:1" fill="#171717" d="M 475.5,283.5 C 478.861,284.203 479.194,285.537 476.5,287.5C 474.358,286.563 474.024,285.23 475.5,283.5 Z"/></g>
<g><path style="opacity:1" fill="#151515" d="M 430.5,267.5 C 431.88,267.962 432.547,268.962 432.5,270.5C 432.059,272.145 431.726,273.811 431.5,275.5C 433.776,282.133 433.942,288.8 432,295.5C 427.694,299.675 423.694,299.342 420,294.5C 417.633,297.932 414.966,298.265 412,295.5C 408.582,299.367 405.249,299.367 402,295.5C 397.436,299.843 393.436,299.509 390,294.5C 389.286,287.308 388.452,280.141 387.5,273C 387.862,271.775 388.362,270.609 389,269.5C 390.168,277.706 391.335,285.872 392.5,294C 396.591,295.227 400.091,294.394 403,291.5C 406.805,295.601 410.472,295.268 414,290.5C 414.483,291.448 414.649,292.448 414.5,293.5C 416.827,293.753 418.827,293.086 420.5,291.5C 423.201,294.654 426.534,295.321 430.5,293.5C 430.702,284.773 430.702,276.106 430.5,267.5 Z"/></g>
<g><path style="opacity:1" fill="#1f1f1f" d="M 413.5,270.5 C 416.041,272.44 416.041,274.607 413.5,277C 411.094,277.306 408.927,278.139 407,279.5C 405.115,279.138 404.281,277.971 404.5,276C 404.833,275.167 405.167,274.333 405.5,273.5C 407.335,277.265 408.835,276.932 410,272.5C 410.71,273.973 411.876,274.64 413.5,274.5C 413.5,273.167 413.5,271.833 413.5,270.5 Z"/></g>
<g><path style="opacity:1" fill="#131313" d="M 505.5,286.5 C 509.782,295.42 506.782,299.253 496.5,298C 495.975,297.308 495.308,296.808 494.5,296.5C 485.876,300.255 476.876,301.422 467.5,300C 462.857,297.928 461.357,294.428 463,289.5C 463.739,292.573 465.572,294.74 468.5,296C 474.833,296.667 481.167,296.667 487.5,296C 490.196,295.235 492.696,294.068 495,292.5C 496.525,293.72 498.359,294.387 500.5,294.5C 502.167,294.333 503.833,294.167 505.5,294C 505.351,291.518 505.351,289.018 505.5,286.5 Z"/></g>
<g><path style="opacity:1" fill="#141414" d="M 597.5,315.5 C 602.167,316.167 606.833,316.833 611.5,317.5C 605.629,319.323 599.629,319.823 593.5,319C 584.797,313.444 583.297,306.277 589,297.5C 590.833,295.667 592.667,293.833 594.5,292C 591.968,291.388 591.135,289.888 592,287.5C 594.968,285.009 598.135,284.843 601.5,287C 603.013,289.454 602.346,291.121 599.5,292C 603.483,294.436 607.816,295.102 612.5,294C 614.996,292.446 617.163,290.613 619,288.5C 626.019,295.32 633.852,296.32 642.5,291.5C 639.714,290.044 636.714,289.044 633.5,288.5C 634.412,286.257 636.078,285.257 638.5,285.5C 641.92,286.374 645.253,287.541 648.5,289C 651.5,289.333 654.5,289.667 657.5,290C 649.508,291.234 641.841,293.9 634.5,298C 630.958,298.851 627.625,298.351 624.5,296.5C 623.719,297.737 622.719,298.737 621.5,299.5C 619.191,298.349 617.024,297.016 615,295.5C 608.273,299.972 602.106,299.305 596.5,293.5C 586.469,298.867 585.136,305.7 592.5,314C 594.025,315.009 595.692,315.509 597.5,315.5 Z"/></g>
<g><path style="opacity:1" fill="#171717" d="M 379.5,267.5 C 380.812,268.145 381.812,269.145 382.5,270.5C 381.104,271.852 380.437,273.519 380.5,275.5C 382.779,282.157 382.946,288.823 381,295.5C 380.167,296.333 379.333,297.167 378.5,298C 374.775,298.76 371.108,298.593 367.5,297.5C 364.8,305.509 362.8,305.176 361.5,296.5C 358.412,296.367 356.412,297.7 355.5,300.5C 356.393,305.522 357.393,310.522 358.5,315.5C 358.523,317.067 358.023,318.4 357,319.5C 356.112,313.673 355.279,307.84 354.5,302C 354.578,296.414 357.244,292.581 362.5,290.5C 367.823,294.454 373.656,295.454 380,293.5C 380.606,286.103 380.106,278.77 378.5,271.5C 378.623,270.075 378.957,268.742 379.5,267.5 Z"/></g>
<g><path style="opacity:1" fill="#f7f7f7" d="M 618.5,290.5 C 620.476,291.427 620.809,292.76 619.5,294.5C 617.358,293.563 617.024,292.23 618.5,290.5 Z"/></g>
<g><path style="opacity:1" fill="#161616" d="M 554.5,267.5 C 556.121,267.787 557.121,268.787 557.5,270.5C 557.624,279.212 557.124,287.879 556,296.5C 552.202,299.122 548.368,299.122 544.5,296.5C 543.719,297.737 542.719,298.737 541.5,299.5C 539.167,298.167 536.833,296.833 534.5,295.5C 531.972,297.874 528.972,298.874 525.5,298.5C 524.824,302.187 523.324,305.52 521,308.5C 517.205,311.803 513.038,312.303 508.5,310C 516.58,310.078 521.58,306.244 523.5,298.5C 518.786,298.799 517.12,296.799 518.5,292.5C 522.369,286.923 524.702,287.589 525.5,294.5C 527.857,294.663 530.19,294.497 532.5,294C 534.385,291.778 536.551,289.944 539,288.5C 541.489,290.319 543.989,292.152 546.5,294C 549.167,294.667 551.833,294.667 554.5,294C 555.98,292.701 556.646,291.034 556.5,289C 555.142,281.894 554.475,274.727 554.5,267.5 Z"/></g>
<g><path style="opacity:1" fill="#e2e2e2" d="M 520.5,292.5 C 521.675,292.281 522.675,292.614 523.5,293.5C 521.948,294.798 520.948,294.465 520.5,292.5 Z"/></g>
<g><path style="opacity:1" fill="#dfdfdf" d="M 538.5,290.5 C 540.377,291.659 540.877,293.326 540,295.5C 538.926,294.382 537.76,293.382 536.5,292.5C 537.243,291.818 537.909,291.151 538.5,290.5 Z"/></g>
<g><path style="opacity:1" fill="#242424" d="M 643.5,301.5 C 647.276,302.665 647.443,304.332 644,306.5C 643.167,305.667 642.333,304.833 641.5,304C 642.381,303.292 643.047,302.458 643.5,301.5 Z"/></g>
<g><path style="opacity:1" fill="#1e1e1e" d="M 382.5,302.5 C 383.774,303.189 383.774,304.023 382.5,305C 379.623,306.946 376.623,308.279 373.5,309C 376.567,306.812 379.567,304.645 382.5,302.5 Z"/></g>
<g><path style="opacity:1" fill="#1e1e1e" d="M 483.5,307.5 C 484.774,308.189 484.774,309.023 483.5,310C 480.623,311.946 477.623,313.279 474.5,314C 477.567,311.812 480.567,309.645 483.5,307.5 Z"/></g>
<g><path style="opacity:1" fill="#a7a7a7" d="M 597.5,315.5 C 602.844,315.334 608.177,315.501 613.5,316C 612.956,316.717 612.289,317.217 611.5,317.5C 606.833,316.833 602.167,316.167 597.5,315.5 Z"/></g>
<g><path style="opacity:1" fill="#2c2c2c" d="M 360.5,321.5 C 362.337,321.639 362.67,322.306 361.5,323.5C 351.348,328.53 351.015,327.863 360.5,321.5 Z"/></g>
<g><path style="opacity:1" fill="#232323" d="M 600.5,322.5 C 602.842,322.775 602.842,323.608 600.5,325C 598.254,326.039 596.087,327.206 594,328.5C 593.383,327.551 593.549,326.718 594.5,326C 596.727,325.059 598.727,323.892 600.5,322.5 Z"/></g>
<g><path style="opacity:1" fill="#1b1b1b" d="M 403.5,328.5 C 405.379,328.393 405.712,328.893 404.5,330C 394.44,335.713 394.107,335.213 403.5,328.5 Z"/></g>
<g><path style="opacity:1" fill="#181818" d="M 405.5,333.5 C 406.754,335.357 406.754,337.357 405.5,339.5C 402.827,340.759 400.161,341.592 397.5,342C 396.424,340.274 396.257,338.441 397,336.5C 397.249,337.624 397.749,338.624 398.5,339.5C 399.852,338.482 400.852,337.149 401.5,335.5C 404.147,338.18 405.48,337.513 405.5,333.5 Z"/></g>
<g><path style="opacity:1" fill="#1b1b1b" d="M 264.5,338.5 C 266.379,338.393 266.712,338.893 265.5,340C 255.44,345.713 255.107,345.213 264.5,338.5 Z"/></g>
<g><path style="opacity:1" fill="#1f1f1f" d="M 169.5,339.5 C 172.113,340.095 172.113,340.929 169.5,342C 165.821,342.835 162.155,343.668 158.5,344.5C 157.269,343.349 157.269,342.183 158.5,341C 162.356,340.823 166.023,340.323 169.5,339.5 Z"/></g>
<g><path style="opacity:1" fill="#1a1a1a" d="M 323.5,337.5 C 325.842,337.775 325.842,338.608 323.5,340C 321.336,340.914 319.336,342.081 317.5,343.5C 317.167,343.167 316.833,342.833 316.5,342.5C 319.077,341.057 321.41,339.39 323.5,337.5 Z"/></g>
<g><path style="opacity:1" fill="#1a1a1a" d="M 75.5,341.5 C 77.8418,341.775 77.8418,342.608 75.5,344C 73.3359,344.914 71.3359,346.081 69.5,347.5C 69.1667,347.167 68.8333,346.833 68.5,346.5C 71.0765,345.057 73.4099,343.39 75.5,341.5 Z"/></g>
<g><path style="opacity:1" fill="#202020" d="M 533.5,345.5 C 534.822,345.33 535.989,345.663 537,346.5C 536.773,348.574 536.939,350.574 537.5,352.5C 535.076,354.474 532.409,355.641 529.5,356C 532.933,353.449 534.267,349.949 533.5,345.5 Z"/></g>
<g><path style="opacity:1" fill="#181818" d="M 266.5,343.5 C 267.754,345.357 267.754,347.357 266.5,349.5C 263.827,350.759 261.161,351.592 258.5,352C 257.424,350.274 257.257,348.441 258,346.5C 258.249,347.624 258.749,348.624 259.5,349.5C 260.852,348.482 261.852,347.149 262.5,345.5C 265.147,348.18 266.48,347.513 266.5,343.5 Z"/></g>
<g><path style="opacity:1" fill="#161616" d="M 301.5,347.5 C 306.668,348.339 307.668,350.839 304.5,355C 299.917,355.934 298.417,354.1 300,349.5C 300.717,348.956 301.217,348.289 301.5,347.5 Z"/></g>
<g><path style="opacity:1" fill="#272727" d="M 387.5,347.5 C 391.905,347.7 392.405,349.033 389,351.5C 386.256,350.939 385.756,349.606 387.5,347.5 Z"/></g>
<g><path style="opacity:1" fill="#1e1e1e" d="M 203.5,346.5 C 205.198,343.876 207.031,343.876 209,346.5C 209.833,351 208,352.833 203.5,352C 202.193,350.057 202.193,348.223 203.5,346.5 Z"/></g>
<g><path style="opacity:1" fill="#dddddd" d="M 203.5,346.5 C 206.5,346.167 207.833,347.5 207.5,350.5C 204.5,350.833 203.167,349.5 203.5,346.5 Z"/></g>
<g><path style="opacity:1" fill="#151515" d="M 551.5,346.5 C 552.812,347.145 553.812,348.145 554.5,349.5C 553.104,350.852 552.437,352.519 552.5,354.5C 554.324,360.384 554.824,366.384 554,372.5C 550.657,377.963 546.157,378.963 540.5,375.5C 539.672,376.415 538.672,377.081 537.5,377.5C 535.128,376.897 532.961,375.897 531,374.5C 529.566,374.93 528.399,375.764 527.5,377C 519.147,377.168 510.813,377.668 502.5,378.5C 500.718,382.338 500.385,382.171 501.5,378C 498.724,377.934 496.558,376.768 495,374.5C 490.88,378.423 486.88,378.423 483,374.5C 482.167,367.499 481.333,360.499 480.5,353.5C 480.577,351.701 481.077,350.034 482,348.5C 482.955,356.736 484.121,364.902 485.5,373C 489.505,374.098 493.005,373.265 496,370.5C 497.666,373.379 500.166,374.212 503.5,373C 506.911,368.402 511.244,365.235 516.5,363.5C 522.397,365.265 523.064,368.432 518.5,373C 525.436,374.916 531.102,373.082 535.5,367.5C 539.768,372.469 545.101,374.302 551.5,373C 552.015,364.135 552.015,355.301 551.5,346.5 Z"/></g>
<g><path style="opacity:1" fill="#1a1a1a" d="M 507.5,345.5 C 509.842,345.775 509.842,346.608 507.5,348C 505.336,348.914 503.336,350.081 501.5,351.5C 501.167,351.167 500.833,350.833 500.5,350.5C 503.077,349.057 505.41,347.39 507.5,345.5 Z"/></g>
<g><path style="opacity:1" fill="#1d1d1d" d="M 163.5,348.5 C 165.355,356.472 166.689,364.806 167.5,373.5C 170.5,373.5 173.5,373.5 176.5,373.5C 175.382,370.372 175.549,367.372 177,364.5C 178.932,368.101 178.932,371.768 177,375.5C 173.264,378.089 169.598,378.089 166,375.5C 164.126,366.602 163.293,357.602 163.5,348.5 Z"/></g>
<g><path style="opacity:1" fill="#dcdcdc" d="M 301.5,349.5 C 306.663,351.424 306.663,352.591 301.5,353C 300.316,351.855 300.316,350.688 301.5,349.5 Z"/></g>
<g><path style="opacity:1" fill="#2e2e2e" d="M 560.5,348.5 C 562.255,355.081 563.255,361.914 563.5,369C 563.557,371.96 563.057,374.793 562,377.5C 561.386,369.643 560.553,361.81 559.5,354C 559.696,352.122 560.029,350.288 560.5,348.5 Z"/></g>
<g><path style="opacity:1" fill="#222222" d="M 20.5,347.5 C 21.4959,347.414 22.3292,347.748 23,348.5C 23.6667,351.167 23.6667,353.833 23,356.5C 22.586,356.043 22.086,355.709 21.5,355.5C 19.9991,356.752 18.3325,357.752 16.5,358.5C 15.7515,356.668 14.7515,355.001 13.5,353.5C 14.0347,351.899 15.0347,351.399 16.5,352C 17.2266,353.399 17.7266,354.899 18,356.5C 18.0287,353.394 18.862,350.394 20.5,347.5 Z"/></g>
<g><path style="opacity:1" fill="#1d1d1d" d="M 411.5,348.5 C 413.153,357.629 413.653,366.963 413,376.5C 412.405,369.627 411.572,362.794 410.5,356C 410.555,353.413 410.889,350.913 411.5,348.5 Z"/></g>
<g><path style="opacity:1" fill="#242424" d="M 276.5,349.5 C 277.774,350.189 277.774,351.023 276.5,352C 273.942,353.626 271.275,354.626 268.5,355C 271.059,352.897 273.726,351.064 276.5,349.5 Z"/></g>
<g><path style="opacity:1" fill="#1e1e1e" d="M 611.5,349.5 C 613.198,346.876 615.031,346.876 617,349.5C 617.833,354 616,355.833 611.5,355C 610.193,353.057 610.193,351.223 611.5,349.5 Z"/></g>
<g><path style="opacity:1" fill="#2d2d2d" d="M 654.5,348.5 C 657.22,357.97 657.72,367.637 656,377.5C 654.246,367.836 653.746,358.169 654.5,348.5 Z"/></g>
<g><path style="opacity:1" fill="#0f0f0f" d="M 73.5,353.5 C 77.0289,354.03 77.3622,355.363 74.5,357.5C 72.3576,356.563 72.0243,355.23 73.5,353.5 Z"/></g>
<g><path style="opacity:1" fill="#141414" d="M 401.5,346.5 C 403.121,346.787 404.121,347.787 404.5,349.5C 404.624,358.212 404.124,366.879 403,375.5C 397.25,379.106 393.25,377.773 391,371.5C 388.013,376.152 383.846,377.652 378.5,376C 377.253,374.506 377.253,373.006 378.5,371.5C 382.564,374.297 386.398,373.964 390,370.5C 390.319,366.761 389.819,363.094 388.5,359.5C 388.719,358.062 389.219,356.729 390,355.5C 391.013,361.244 392.346,366.911 394,372.5C 397.24,374.036 400.24,373.703 403,371.5C 402.459,363.197 401.959,354.864 401.5,346.5 Z"/></g>
<g><path style="opacity:1" fill="#161616" d="M 143.5,356.5 C 145.912,356.694 146.912,358.027 146.5,360.5C 143.014,360.705 142.014,359.371 143.5,356.5 Z"/></g>
<g><path style="opacity:1" fill="#1c1c1c" d="M 506.5,357.5 C 507.5,357.5 508.5,357.5 509.5,357.5C 509.426,361.541 508.093,362.208 505.5,359.5C 505.863,358.817 506.196,358.15 506.5,357.5 Z"/></g>
<g><path style="opacity:1" fill="#171717" d="M 601.5,383.5 C 600.833,380.167 600.167,376.833 599.5,373.5C 599.594,367.145 599.26,360.812 598.5,354.5C 598.412,352.288 598.912,350.288 600,348.5C 600.556,355.843 601.223,363.177 602,370.5C 602.374,371.416 602.874,372.25 603.5,373C 606.634,373.79 609.634,373.457 612.5,372C 607.499,369.923 607.499,367.589 612.5,365C 615.85,364.07 618.683,364.903 621,367.5C 621.163,369.387 620.329,370.887 618.5,372C 621.619,373.405 624.952,373.905 628.5,373.5C 628.627,368.573 630.794,364.906 635,362.5C 637.528,363.197 638.694,364.864 638.5,367.5C 638.563,369.481 637.896,371.148 636.5,372.5C 639.506,373.748 642.506,373.748 645.5,372.5C 646.559,365.465 646.225,358.465 644.5,351.5C 644.436,349.611 644.936,347.944 646,346.5C 647.576,348.976 647.743,351.642 646.5,354.5C 648.776,361.133 648.942,367.8 647,374.5C 643.743,377.428 639.909,378.262 635.5,377C 634.271,376.219 632.938,375.719 631.5,375.5C 625.458,378.685 619.958,378.018 615,373.5C 612.63,375.768 609.797,377.101 606.5,377.5C 604.626,377.61 603.126,376.944 602,375.5C 601.503,378.146 601.336,380.813 601.5,383.5 Z"/></g>
<g><path style="opacity:1" fill="#121212" d="M 633.5,353.5 C 636.861,354.203 637.194,355.537 634.5,357.5C 632.358,356.563 632.024,355.23 633.5,353.5 Z"/></g>
<g><path style="opacity:1" fill="#dddddd" d="M 611.5,349.5 C 614.5,349.167 615.833,350.5 615.5,353.5C 612.5,353.833 611.167,352.5 611.5,349.5 Z"/></g>
<g><path style="opacity:1" fill="#111111" d="M 437.5,363.5 C 438.722,358.746 441.389,357.579 445.5,360C 442.69,360.906 440.024,362.073 437.5,363.5 Z"/></g>
<g><path style="opacity:1" fill="#1d1d1d" d="M 71.5,358.5 C 73.0174,358.511 74.1841,359.177 75,360.5C 76.6117,357.921 78.1117,357.921 79.5,360.5C 77.4087,361.449 75.242,362.449 73,363.5C 70.5274,362.26 70.0274,360.593 71.5,358.5 Z"/></g>
<g><path style="opacity:1" fill="#272727" d="M 264.5,361.5 C 267.709,362.297 268.209,363.963 266,366.5C 263.394,366.484 260.894,365.984 258.5,365C 259.744,362.697 261.411,362.197 263.5,363.5C 264.298,363.043 264.631,362.376 264.5,361.5 Z"/></g>
<g><path style="opacity:1" fill="#1e1e1e" d="M 42.5,360.5 C 44.1978,357.876 46.0312,357.876 48,360.5C 48.8333,365 47,366.833 42.5,366C 41.193,364.057 41.193,362.223 42.5,360.5 Z"/></g>
<g><path style="opacity:1" fill="#dddddd" d="M 42.5,360.5 C 45.5,360.167 46.8333,361.5 46.5,364.5C 43.5,364.833 42.1667,363.5 42.5,360.5 Z"/></g>
<g><path style="opacity:1" fill="#6a6a6a" d="M 346.5,376.5 C 345.833,374.833 345.167,373.167 344.5,371.5C 345.32,369.86 346.153,368.193 347,366.5C 347.654,365.304 348.154,365.304 348.5,366.5C 346.816,369.612 346.15,372.946 346.5,376.5 Z"/></g>
<g><path style="opacity:1" fill="#f0f0f0" d="M 632.5,366.5 C 637.218,367.319 637.552,368.986 633.5,371.5C 630.14,370.209 629.806,368.543 632.5,366.5 Z"/></g>
<g><path style="opacity:1" fill="#161616" d="M 344.5,371.5 C 345.167,373.167 345.833,374.833 346.5,376.5C 348.305,379.403 350.971,380.736 354.5,380.5C 359.993,380.212 364.993,378.546 369.5,375.5C 357.672,373.9 356.339,369.067 365.5,361C 367.65,359.589 369.984,358.755 372.5,358.5C 372.66,360.199 372.494,361.866 372,363.5C 367.576,361.892 364.242,363.226 362,367.5C 361.251,368.635 361.417,369.635 362.5,370.5C 373.787,372.262 374.454,376.095 364.5,382C 359.363,384.247 354.03,384.914 348.5,384C 343.638,381.051 342.305,376.884 344.5,371.5 Z"/></g>
<g><path style="opacity:1" fill="#ededed" d="M 511.5,367.5 C 513.527,367.338 515.527,367.505 517.5,368C 518.833,369 518.833,370 517.5,371C 513.682,372.944 509.682,373.611 505.5,373C 507.396,370.932 509.396,369.099 511.5,367.5 Z"/></g>
<g><path style="opacity:1" fill="#181818" d="M 321.5,346.5 C 322.88,346.962 323.547,347.962 323.5,349.5C 323.059,351.145 322.726,352.811 322.5,354.5C 324.776,361.133 324.942,367.8 323,374.5C 322.167,375.333 321.333,376.167 320.5,377C 316.775,377.76 313.108,377.593 309.5,376.5C 307.103,384.335 304.77,384.169 302.5,376C 299.647,375.341 297.98,376.508 297.5,379.5C 299.174,385.75 299.674,392.083 299,398.5C 296.855,390.953 296.189,383.287 297,375.5C 299.004,372.91 301.504,370.91 304.5,369.5C 309.544,373.541 315.211,374.541 321.5,372.5C 321.702,363.773 321.702,355.106 321.5,346.5 Z"/></g>
<g><path style="opacity:1" fill="#cfcfcf" d="M 534.5,369.5 C 537.119,370.403 537.786,372.069 536.5,374.5C 533.807,373.468 533.14,371.802 534.5,369.5 Z"/></g>
<g><path style="opacity:1" fill="#181818" d="M 20.5,365.5 C 25.1965,365.007 26.3632,366.674 24,370.5C 21.4864,367.823 19.6531,368.323 18.5,372C 18.8333,372.5 19.1667,373 19.5,373.5C 22.5027,374.085 25.5027,374.752 28.5,375.5C 24.7324,378.404 20.7324,380.071 16.5,380.5C 17.8333,379.5 19.1667,378.5 20.5,377.5C 17.9323,377.048 16.599,375.548 16.5,373C 16.9274,369.977 18.2607,367.477 20.5,365.5 Z"/></g>
<g><path style="opacity:1" fill="#181818" d="M 108.5,362.5 C 114.218,363.921 116.384,367.588 115,373.5C 112.451,377.925 109.118,378.592 105,375.5C 104.333,373.833 104.333,372.167 105,370.5C 106.454,367.929 107.62,365.262 108.5,362.5 Z"/></g>
<g><path style="opacity:1" fill="#ebebeb" d="M 107.5,368.5 C 111.029,367.889 112.862,369.223 113,372.5C 108.085,374.679 106.251,373.346 107.5,368.5 Z"/></g>
<g><path style="opacity:1" fill="#161616" d="M 217.5,383.5 C 216.833,380.167 216.167,376.833 215.5,373.5C 215.594,367.145 215.26,360.812 214.5,354.5C 214.412,352.288 214.912,350.288 216,348.5C 216.556,355.843 217.223,363.177 218,370.5C 218.374,371.416 218.874,372.25 219.5,373C 223.389,374.14 226.722,373.307 229.5,370.5C 231.503,373.505 234.17,374.172 237.5,372.5C 241.408,366.712 246.742,363.878 253.5,364C 255.19,367.525 254.524,370.525 251.5,373C 255.167,373.667 258.833,373.667 262.5,373C 263.333,372.167 264.167,371.333 265,370.5C 267.453,373.485 270.453,374.152 274,372.5C 274.14,370.744 273.64,369.078 272.5,367.5C 272.919,366.328 273.585,365.328 274.5,364.5C 277.471,369.179 276.804,373.346 272.5,377C 269.044,378.123 266.21,377.29 264,374.5C 263.097,375.701 261.931,376.535 260.5,377C 252.5,377.333 244.5,377.667 236.5,378C 235.118,382.705 234.451,382.539 234.5,377.5C 231.675,377.919 229.509,376.919 228,374.5C 224.952,378.01 221.619,378.343 218,375.5C 217.503,378.146 217.336,380.813 217.5,383.5 Z"/></g>
<g><path style="opacity:1" fill="#e9e9e9" d="M 245.5,367.5 C 254.671,368.555 254.671,370.388 245.5,373C 243.167,373.667 240.833,373.667 238.5,373C 240.54,370.664 242.873,368.831 245.5,367.5 Z"/></g>
<g><path style="opacity:1" fill="#191919" d="M 136.5,364.5 C 141.134,364.48 145.467,365.646 149.5,368C 152.146,368.497 154.813,368.664 157.5,368.5C 157.5,369.5 157.5,370.5 157.5,371.5C 150.238,370.49 143.571,371.99 137.5,376C 135.26,376.977 132.927,377.477 130.5,377.5C 129.846,384.52 126.179,388.854 119.5,390.5C 117.701,390.423 116.034,389.923 114.5,389C 121.397,388.768 126.063,385.434 128.5,379C 127.833,377.667 127.167,376.333 126.5,375C 126.645,374.228 126.978,373.561 127.5,373C 133.077,374.134 138.41,373.301 143.5,370.5C 140.442,368.859 137.108,368.026 133.5,368C 134.71,366.961 135.71,365.794 136.5,364.5 Z"/></g>
<g><path style="opacity:1" fill="#757575" d="M 215.5,373.5 C 216.167,376.833 216.833,380.167 217.5,383.5C 217.672,384.492 217.338,385.158 216.5,385.5C 216.167,385.5 215.833,385.5 215.5,385.5C 215.5,381.5 215.5,377.5 215.5,373.5 Z"/></g>
<g><path style="opacity:1" fill="#757575" d="M 599.5,373.5 C 600.167,376.833 600.833,380.167 601.5,383.5C 601.672,384.492 601.338,385.158 600.5,385.5C 600.167,385.5 599.833,385.5 599.5,385.5C 599.5,381.5 599.5,377.5 599.5,373.5 Z"/></g>
<g><path style="opacity:1" fill="#161616" d="M 82.5,366.5 C 85.0877,369.416 84.7543,372.249 81.5,375C 79.5355,375.624 77.8689,375.124 76.5,373.5C 74.7475,375.261 72.7475,376.594 70.5,377.5C 68.8957,377.061 67.3957,376.394 66,375.5C 62.0775,377.15 57.9108,377.983 53.5,378C 52.8333,378.667 52.1667,379.333 51.5,380C 61.9218,383.517 61.9218,387.517 51.5,392C 37.4925,396.323 32.3258,391.489 36,377.5C 34.7302,387.546 39.2302,391.379 49.5,389C 52.3303,388.131 54.997,386.964 57.5,385.5C 57.2907,384.914 56.9574,384.414 56.5,384C 48.3642,383.594 47.3642,380.594 53.5,375C 57.0458,373.826 60.7125,373.16 64.5,373C 66.3466,369.876 68.0132,369.876 69.5,373C 73.4946,373.921 75.9946,372.421 77,368.5C 81.1043,372.741 82.9377,372.074 82.5,366.5 Z"/></g>
<g><path style="opacity:1" fill="#1d1d1d" d="M 173.5,380.5 C 176.709,381.297 177.209,382.963 175,385.5C 172.527,384.26 172.027,382.593 173.5,380.5 Z"/></g>
<g><path style="opacity:1" fill="#272727" d="M 273.5,380.5 C 276.709,381.297 277.209,382.963 275,385.5C 273.075,383.027 271.242,383.027 269.5,385.5C 267.512,384.711 267.179,383.545 268.5,382C 269.549,381.508 270.549,381.674 271.5,382.5C 272.522,382.145 273.189,381.478 273.5,380.5 Z"/></g>
<g><path style="opacity:1" fill="#181818" d="M 472.5,368.5 C 473.496,368.414 474.329,368.748 475,369.5C 477.344,377.964 474.844,384.464 467.5,389C 465.029,389.706 462.695,389.373 460.5,388C 472.355,386.101 476.355,379.601 472.5,368.5 Z"/></g>
<g><path style="opacity:1" fill="#131313" d="M 437.5,363.5 C 437.418,366.585 438.918,368.252 442,368.5C 445.239,367.714 448.239,366.381 451,364.5C 451.167,364.833 451.333,365.167 451.5,365.5C 447.464,368.943 443.297,372.276 439,375.5C 432.582,385.997 435.416,392.331 447.5,394.5C 451.167,395.167 454.833,395.833 458.5,396.5C 450.356,399.937 442.856,398.937 436,393.5C 433.257,385.811 434.424,378.811 439.5,372.5C 437.619,371.238 436.286,369.571 435.5,367.5C 435.668,365.829 436.335,364.496 437.5,363.5 Z"/></g>
<g><path style="opacity:1" fill="#232323" d="M 111.5,383.5 C 113.842,383.775 113.842,384.608 111.5,386C 109.254,387.039 107.087,388.206 105,389.5C 104.383,388.551 104.549,387.718 105.5,387C 107.727,386.059 109.727,384.892 111.5,383.5 Z"/></g>
<g><path style="opacity:1" fill="#282828" d="M 149.5,381.5 C 150.774,382.189 150.774,383.023 149.5,384C 146.475,385.688 143.475,387.021 140.5,388C 143.402,385.583 146.402,383.416 149.5,381.5 Z"/></g>
<g><path style="opacity:1" fill="#1f1f1f" d="M 215.5,385.5 C 215.833,385.5 216.167,385.5 216.5,385.5C 216.249,387.17 215.582,388.67 214.5,390C 210.106,393.259 205.439,393.925 200.5,392C 197.231,388.547 196.731,384.714 199,380.5C 199.045,383.334 199.879,385.834 201.5,388C 206.631,389.194 211.298,388.361 215.5,385.5 Z"/></g>
<g><path style="opacity:1" fill="#1f1f1f" d="M 599.5,385.5 C 599.833,385.5 600.167,385.5 600.5,385.5C 600.249,387.17 599.582,388.67 598.5,390C 594.106,393.259 589.439,393.925 584.5,392C 581.231,388.547 580.731,384.714 583,380.5C 583.045,383.334 583.879,385.834 585.5,388C 590.631,389.194 595.298,388.361 599.5,385.5 Z"/></g>
<g><path style="opacity:1" fill="#282828" d="M 388.5,382.5 C 389.774,383.189 389.774,384.023 388.5,385C 385.475,386.688 382.475,388.021 379.5,389C 382.402,386.583 385.402,384.416 388.5,382.5 Z"/></g>
<g><path style="opacity:1" fill="#2c2c2c" d="M 633.5,383.5 C 635.337,383.639 635.67,384.306 634.5,385.5C 624.348,390.53 624.015,389.863 633.5,383.5 Z"/></g>
<g><path style="opacity:1" fill="#1b1b1b" d="M 355.5,387.5 C 359.127,388.47 359.461,390.137 356.5,392.5C 355.522,392.023 354.689,391.357 354,390.5C 352.921,392.394 351.587,392.727 350,391.5C 349.786,388.686 350.953,388.02 353.5,389.5C 354.522,389.145 355.189,388.478 355.5,387.5 Z"/></g>
<g><path style="opacity:1" fill="#282828" d="M 238.5,386.5 C 239.774,387.189 239.774,388.023 238.5,389C 235.475,390.688 232.475,392.021 229.5,393C 232.402,390.583 235.402,388.416 238.5,386.5 Z"/></g>
<g><path style="opacity:1" fill="#2c2c2c" d="M 177.5,390.5 C 179.337,390.639 179.67,391.306 178.5,392.5C 168.348,397.53 168.015,396.863 177.5,390.5 Z"/></g>
<g><path style="opacity:1" fill="#6b6b6b" d="M 447.5,394.5 C 452.511,394.334 457.511,394.501 462.5,395C 461.255,395.791 459.922,396.291 458.5,396.5C 454.833,395.833 451.167,395.167 447.5,394.5 Z"/></g>
<g><path style="opacity:1" fill="#1e1e1e" d="M 127.5,392.5 C 128.774,393.189 128.774,394.023 127.5,395C 124.623,396.946 121.623,398.279 118.5,399C 121.567,396.812 124.567,394.645 127.5,392.5 Z"/></g>
<g><path style="opacity:1" fill="#2c2c2c" d="M 469.5,393.5 C 471.337,393.639 471.67,394.306 470.5,395.5C 460.348,400.53 460.015,399.863 469.5,393.5 Z"/></g>
<g><path style="opacity:1" fill="#1c1c1c" d="M 41.5,396.5 C 43.2799,397.755 45.1132,397.755 47,396.5C 50.0578,397.324 50.2244,398.658 47.5,400.5C 45.2143,399.58 42.8809,399.58 40.5,400.5C 40.4326,399.041 40.7659,397.708 41.5,396.5 Z"/></g>
<g><path style="opacity:1" fill="#1e1e1e" d="M 595.5,394.5 C 596.774,395.189 596.774,396.023 595.5,397C 592.623,398.946 589.623,400.279 586.5,401C 589.567,398.812 592.567,396.645 595.5,394.5 Z"/></g>
<g><path style="opacity:1" fill="#232323" d="M 444.5,402.5 C 446.842,402.775 446.842,403.608 444.5,405C 442.254,406.039 440.087,407.206 438,408.5C 437.383,407.551 437.549,406.718 438.5,406C 440.727,405.059 442.727,403.892 444.5,402.5 Z"/></g>
</svg>
