<?xml version="1.0" encoding="UTF-8"?>
<!DOCTYPE svg PUBLIC "-//W3C//DTD SVG 1.1//EN" "http://www.w3.org/Graphics/SVG/1.1/DTD/svg11.dtd">
<svg xmlns="http://www.w3.org/2000/svg" version="1.1" width="1000px" height="500px" style="shape-rendering:geometricPrecision; text-rendering:geometricPrecision; image-rendering:optimizeQuality; fill-rule:evenodd; clip-rule:evenodd" xmlns:xlink="http://www.w3.org/1999/xlink">
<g><path style="opacity:1" fill="#fefefe" d="M -0.5,-0.5 C 332.833,-0.5 666.167,-0.5 999.5,-0.5C 999.5,166.167 999.5,332.833 999.5,499.5C 666.167,499.5 332.833,499.5 -0.5,499.5C -0.5,332.833 -0.5,166.167 -0.5,-0.5 Z"/></g>
<g><path style="opacity:1" fill="#171717" d="M 736.5,173.5 C 737.799,175.153 737.466,176.653 735.5,178C 731.167,180.167 726.833,182.333 722.5,184.5C 722.167,184.167 721.833,183.833 721.5,183.5C 726.013,179.412 731.013,176.079 736.5,173.5 Z"/></g>
<g><path style="opacity:1" fill="#131313" d="M 729.5,185.5 C 731.167,185.5 732.833,185.5 734.5,185.5C 734.5,187.167 734.5,188.833 734.5,190.5C 732.076,190.192 729.743,190.526 727.5,191.5C 729.758,194.439 732.592,195.106 736,193.5C 737.257,193.85 737.591,194.517 737,195.5C 732.929,197.586 728.762,199.586 724.5,201.5C 723.718,199.671 724.384,198.171 726.5,197C 724.604,195.192 724.104,193.025 725,190.5C 726.707,188.963 728.207,187.296 729.5,185.5 Z"/></g>
<g><path style="opacity:1" fill="#0e0e0e" d="M 763.5,207.5 C 764.985,209.162 766.318,210.995 767.5,213C 766.287,214.63 765.454,216.464 765,218.5C 765.193,229.746 763.693,240.746 760.5,251.5C 763.792,257.302 763.125,262.469 758.5,267C 753.511,267.499 748.511,267.666 743.5,267.5C 743.5,265.167 743.5,262.833 743.5,260.5C 749.465,260.401 753.798,257.567 756.5,252C 751.326,242.492 744.993,233.825 737.5,226C 734.435,227.201 731.935,226.368 730,223.5C 726.225,219.649 725.725,215.482 728.5,211C 729.167,210.333 729.833,210.333 730.5,211C 742.138,221.465 751.472,233.632 758.5,247.5C 762.254,237.117 763.254,226.45 761.5,215.5C 761.385,212.591 762.051,209.925 763.5,207.5 Z"/></g>
<g><path style="opacity:1" fill="#232323" d="M 426.5,207.5 C 428.379,207.393 428.712,207.893 427.5,209C 425.083,210.626 422.583,212.126 420,213.5C 419.383,212.551 419.549,211.718 420.5,211C 422.727,210.059 424.727,208.892 426.5,207.5 Z"/></g>
<g><path style="opacity:1" fill="#121212" d="M 663.5,210.5 C 665.144,210.286 666.644,210.62 668,211.5C 668.684,214.38 668.517,217.213 667.5,220C 669.828,222.099 669.994,224.265 668,226.5C 667,225.833 666,225.167 665,224.5C 662.315,228.927 658.482,230.76 653.5,230C 656.423,227.955 659.257,225.788 662,223.5C 661.537,221.474 660.704,219.474 659.5,217.5C 660.576,215.014 661.909,212.681 663.5,210.5 Z"/></g>
<g><path style="opacity:1" fill="#101010" d="M 715.5,212.5 C 717.813,213.825 719.479,215.825 720.5,218.5C 718.114,220.411 717.114,222.911 717.5,226C 718.093,230.54 718.926,235.04 720,239.5C 720.895,247.308 720.228,254.975 718,262.5C 714.823,266.398 710.656,268.064 705.5,267.5C 701.39,267.462 697.39,266.796 693.5,265.5C 684.405,269.031 675.072,271.864 665.5,274C 657.624,275.138 649.957,274.471 642.5,272C 635.042,265.462 634.542,258.295 641,250.5C 639.746,253.98 639.413,257.647 640,261.5C 642.408,263.956 645.241,265.789 648.5,267C 661.843,269.037 674.51,267.037 686.5,261C 684.131,258.062 683.964,254.896 686,251.5C 687.586,246.934 690.252,243.267 694,240.5C 700.754,245.432 702.254,251.765 698.5,259.5C 704.251,260.904 709.918,260.737 715.5,259C 717.594,257.745 718.594,255.912 718.5,253.5C 716.616,242.861 714.949,232.194 713.5,221.5C 713.346,218.263 714.013,215.263 715.5,212.5 Z"/></g>
<g><path style="opacity:1" fill="#1b1b1b" d="M 423.5,213.5 C 424.5,213.5 425.5,213.5 426.5,213.5C 426.5,214.5 426.5,215.5 426.5,216.5C 425.127,216.343 423.793,216.51 422.5,217C 424.285,218.163 426.285,218.83 428.5,219C 425.975,220.616 423.309,221.616 420.5,222C 422.8,220.887 423.133,219.387 421.5,217.5C 421.752,215.927 422.418,214.594 423.5,213.5 Z"/></g>
<g><path style="opacity:1" fill="#dfdfdf" d="M 662.5,214.5 C 665.076,214.722 665.91,216.055 665,218.5C 663.519,217.529 662.685,216.196 662.5,214.5 Z"/></g>
<g><path style="opacity:1" fill="#131313" d="M 779.5,216.5 C 782.08,231.595 783.247,246.928 783,262.5C 782.784,264.384 782.117,266.051 781,267.5C 780.937,265.04 781.104,262.54 781.5,260C 779.706,248.731 778.373,237.397 777.5,226C 777.331,222.599 777.998,219.432 779.5,216.5 Z"/></g>
<g><path style="opacity:1" fill="#282828" d="M 248.5,216.5 C 249.645,217.793 249.311,218.959 247.5,220C 244.942,221.626 242.275,222.626 239.5,223C 242.567,220.812 245.567,218.645 248.5,216.5 Z"/></g>
<g><path style="opacity:1" fill="#202020" d="M 512.5,223.5 C 517.654,224.268 518.654,226.768 515.5,231C 510.917,231.934 509.417,230.1 511,225.5C 511.717,224.956 512.217,224.289 512.5,223.5 Z"/></g>
<g><path style="opacity:1" fill="#1a1a1a" d="M 247.5,221.5 C 249.842,221.775 249.842,222.608 247.5,224C 245.336,224.914 243.336,226.081 241.5,227.5C 241.167,227.167 240.833,226.833 240.5,226.5C 243.077,225.057 245.41,223.39 247.5,221.5 Z"/></g>
<g><path style="opacity:1" fill="#dddddd" d="M 512.5,225.5 C 517.663,227.424 517.663,228.591 512.5,229C 511.316,227.855 511.316,226.688 512.5,225.5 Z"/></g>
<g><path style="opacity:1" fill="#1a1a1a" d="M 442.5,226.5 C 443.995,226.415 444.995,227.081 445.5,228.5C 444.678,235.756 443.344,242.922 441.5,250C 443.705,258.626 440.372,261.792 431.5,259.5C 431.5,258.167 431.5,256.833 431.5,255.5C 436.325,255.512 438.491,253.179 438,248.5C 435.05,243.882 431.716,239.548 428,235.5C 426.413,236.727 425.079,236.394 424,234.5C 422.798,232.323 422.298,229.989 422.5,227.5C 424.39,227.297 425.89,227.963 427,229.5C 431.823,235.147 436.157,241.147 440,247.5C 441.117,246.051 441.784,244.384 442,242.5C 442.499,237.177 442.666,231.844 442.5,226.5 Z"/></g>
<g><path style="opacity:1" fill="#141414" d="M 691.5,227.5 C 698.625,228.614 699.292,231.281 693.5,235.5C 691.833,234.5 690.5,233.167 689.5,231.5C 690.63,230.378 691.297,229.044 691.5,227.5 Z"/></g>
<g><path style="opacity:1" fill="#292929" d="M 315.5,225.5 C 316.774,226.189 316.774,227.023 315.5,228C 313.167,229.167 310.833,230.333 308.5,231.5C 308.167,231.167 307.833,230.833 307.5,230.5C 310.231,228.808 312.898,227.142 315.5,225.5 Z"/></g>
<g><path style="opacity:1" fill="#292929" d="M 528.5,225.5 C 529.774,226.189 529.774,227.023 528.5,228C 526.167,229.167 523.833,230.333 521.5,231.5C 521.167,231.167 520.833,230.833 520.5,230.5C 523.231,228.808 525.898,227.142 528.5,225.5 Z"/></g>
<g><path style="opacity:1" fill="#181818" d="M 364.5,230.5 C 365.953,238.543 367.286,246.709 368.5,255C 370.833,255.667 373.167,255.667 375.5,255C 378.011,253.152 380.511,251.319 383,249.5C 385.112,250.608 386.946,252.108 388.5,254C 393.238,256.366 397.571,255.866 401.5,252.5C 405.156,256.642 408.49,256.309 411.5,251.5C 412.85,252.95 414.516,253.617 416.5,253.5C 416.34,251.801 416.506,250.134 417,248.5C 419.391,252.373 418.558,255.373 414.5,257.5C 412.945,257.278 411.611,256.611 410.5,255.5C 407.788,259.681 404.454,260.348 400.5,257.5C 396.432,260.089 392.432,260.089 388.5,257.5C 384.987,260.073 381.654,259.739 378.5,256.5C 374.177,260.378 370.011,260.378 366,256.5C 365.413,249.47 364.58,242.47 363.5,235.5C 363.728,233.793 364.062,232.126 364.5,230.5 Z"/></g>
<g><path style="opacity:1" fill="#161616" d="M 405.5,231.5 C 410.668,232.339 411.668,234.839 408.5,239C 403.917,239.934 402.417,238.1 404,233.5C 404.717,232.956 405.217,232.289 405.5,231.5 Z"/></g>
<g><path style="opacity:1" fill="#1d1d1d" d="M 454.5,256.5 C 453.833,254.5 453.167,252.5 452.5,250.5C 451.513,244.195 451.347,237.862 452,231.5C 453.968,239.715 454.801,248.049 454.5,256.5 Z"/></g>
<g><path style="opacity:1" fill="#292929" d="M 272.5,229.5 C 273.774,230.189 273.774,231.023 272.5,232C 270.167,233.167 267.833,234.333 265.5,235.5C 265.167,235.167 264.833,234.833 264.5,234.5C 267.231,232.808 269.898,231.142 272.5,229.5 Z"/></g>
<g><path style="opacity:1" fill="#222222" d="M 243.5,233.5 C 245.518,234.623 247.518,234.623 249.5,233.5C 250.5,233.833 251.167,234.5 251.5,235.5C 249.409,236.449 247.242,237.449 245,238.5C 242.527,237.26 242.027,235.593 243.5,233.5 Z"/></g>
<g><path style="opacity:1" fill="#dcdcdc" d="M 405.5,233.5 C 410.663,235.424 410.663,236.591 405.5,237C 404.316,235.855 404.316,234.688 405.5,233.5 Z"/></g>
<g><path style="opacity:1" fill="#1d1d1d" d="M 478.5,233.5 C 480.756,234.438 483.09,234.438 485.5,233.5C 485.688,235.103 485.188,236.437 484,237.5C 481.91,236.848 479.743,236.681 477.5,237C 477.167,236.667 476.833,236.333 476.5,236C 477.381,235.292 478.047,234.458 478.5,233.5 Z"/></g>
<g><path style="opacity:1" fill="#292929" d="M 384.5,232.5 C 385.774,233.189 385.774,234.023 384.5,235C 382.167,236.167 379.833,237.333 377.5,238.5C 377.167,238.167 376.833,237.833 376.5,237.5C 379.231,235.808 381.898,234.142 384.5,232.5 Z"/></g>
<g><path style="opacity:1" fill="#161616" d="M 527.5,238.5 C 530.861,239.203 531.194,240.537 528.5,242.5C 526.358,241.563 526.024,240.23 527.5,238.5 Z"/></g>
<g><path style="opacity:1" fill="#161616" d="M 312.5,238.5 C 314.912,238.694 315.912,240.027 315.5,242.5C 312.014,242.705 311.014,241.371 312.5,238.5 Z"/></g>
<g><path style="opacity:1" fill="#292929" d="M 497.5,235.5 C 498.774,236.189 498.774,237.023 497.5,238C 495.167,239.167 492.833,240.333 490.5,241.5C 490.167,241.167 489.833,240.833 489.5,240.5C 492.231,238.808 494.898,237.142 497.5,235.5 Z"/></g>
<g><path style="opacity:1" fill="#212121" d="M 514.5,238.5 C 516.87,238.983 517.537,240.149 516.5,242C 512.447,242.468 511.78,241.302 514.5,238.5 Z"/></g>
<g><path style="opacity:1" fill="#181818" d="M 522.5,238.5 C 524.912,238.694 525.912,240.027 525.5,242.5C 522.014,242.705 521.014,241.371 522.5,238.5 Z"/></g>
<g><path style="opacity:1" fill="#050505" d="M 540.5,241.5 C 541.5,241.5 542.5,241.5 543.5,241.5C 543.5,243.5 543.5,245.5 543.5,247.5C 569.833,247.5 596.167,247.5 622.5,247.5C 622.5,248.833 622.5,250.167 622.5,251.5C 596.167,251.5 569.833,251.5 543.5,251.5C 543.5,253.5 543.5,255.5 543.5,257.5C 538.726,256.07 534.726,253.403 531.5,249.5C 534.52,246.811 537.52,244.144 540.5,241.5 Z"/></g>
<g><path style="opacity:1" fill="#191919" d="M 481.5,241.5 C 483.282,245.65 484.615,250.15 485.5,255C 489.591,256.227 493.091,255.394 496,252.5C 496.576,254.852 498.076,255.852 500.5,255.5C 503.037,255.565 505.037,254.565 506.5,252.5C 510.043,256.423 513.71,256.423 517.5,252.5C 518.386,253.325 518.719,254.325 518.5,255.5C 521.167,255.5 523.833,255.5 526.5,255.5C 525.382,252.372 525.549,249.372 527,246.5C 530.558,257.609 526.891,261.276 516,257.5C 513.439,259.344 510.606,259.844 507.5,259C 506.874,258.25 506.374,257.416 506,256.5C 502.254,260.393 498.588,260.393 495,256.5C 489.672,260.973 485.172,260.306 481.5,254.5C 479.253,255.374 476.92,255.708 474.5,255.5C 474.427,250.735 476.594,247.401 481,245.5C 481.49,244.207 481.657,242.873 481.5,241.5 Z"/></g>
<g><path style="opacity:1" fill="#1c1c1c" d="M 503.5,244.5 C 505.912,244.694 506.912,246.027 506.5,248.5C 503.014,248.705 502.014,247.371 503.5,244.5 Z"/></g>
<g><path style="opacity:1" fill="#191919" d="M 517.5,243.5 C 521.095,244.905 521.262,246.572 518,248.5C 516.598,246.027 515.098,246.027 513.5,248.5C 511.512,247.711 511.179,246.545 512.5,245C 513.549,244.508 514.549,244.674 515.5,245.5C 516.522,245.145 517.189,244.478 517.5,243.5 Z"/></g>
<g><path style="opacity:1" fill="#131313" d="M 293.5,230.5 C 294.953,238.543 296.286,246.709 297.5,255C 302.824,256.02 307.824,255.187 312.5,252.5C 309.442,250.859 306.108,250.026 302.5,250C 303.907,247.748 305.907,246.582 308.5,246.5C 311.92,247.374 315.253,248.541 318.5,250C 321.146,250.497 323.813,250.664 326.5,250.5C 326.5,251.5 326.5,252.5 326.5,253.5C 322.486,253.334 318.486,253.501 314.5,254C 310.148,256.677 305.482,258.511 300.5,259.5C 297.994,259.665 296.161,258.665 295,256.5C 293.495,247.816 292.995,239.149 293.5,230.5 Z"/></g>
<g><path style="opacity:1" fill="#eeeeee" d="M 480.5,247.5 C 483.212,250.807 482.212,251.973 477.5,251C 478.71,249.961 479.71,248.794 480.5,247.5 Z"/></g>
<g><path style="opacity:1" fill="#efefef" d="M 692.5,247.5 C 699.109,250.659 699.109,253.993 692.5,257.5C 690.214,257.04 688.881,255.707 688.5,253.5C 689.432,251.235 690.765,249.235 692.5,247.5 Z"/></g>
<g><path style="opacity:1" fill="#181818" d="M 247.5,241.5 C 249.083,245.591 250.25,249.924 251,254.5C 254.962,256.196 258.462,255.53 261.5,252.5C 263.503,255.505 266.17,256.172 269.5,254.5C 273.147,248.179 278.48,245.346 285.5,246C 287.36,250.151 286.36,253.484 282.5,256C 277.655,257.869 272.655,259.035 267.5,259.5C 267.167,263.5 266.833,263.5 266.5,259.5C 263.675,259.919 261.509,258.919 260,256.5C 254.587,261.153 250.587,260.153 248,253.5C 245.847,255.444 243.347,255.944 240.5,255C 240.442,250.688 242.609,247.521 247,245.5C 247.49,244.207 247.657,242.873 247.5,241.5 Z"/></g>
<g><path style="opacity:1" fill="#ededed" d="M 276.5,249.5 C 286.554,249.766 286.887,251.599 277.5,255C 275.167,255.667 272.833,255.667 270.5,255C 272.396,252.932 274.396,251.099 276.5,249.5 Z"/></g>
<g><path style="opacity:1" fill="#ededed" d="M 246.5,247.5 C 247.434,248.568 247.768,249.901 247.5,251.5C 242.597,251.306 242.264,249.973 246.5,247.5 Z"/></g>
<g><path style="opacity:1" fill="#cecece" d="M 381.5,251.5 C 384.423,252.163 385.09,253.83 383.5,256.5C 380.807,255.468 380.14,253.802 381.5,251.5 Z"/></g>
<g><path style="opacity:1" fill="#171717" d="M 350.5,247.5 C 355.197,247.007 356.363,248.674 354,252.5C 349.69,249.432 348.19,250.432 349.5,255.5C 352.443,256.244 355.443,256.744 358.5,257C 354.748,259.293 350.914,261.46 347,263.5C 347.152,261.924 347.985,260.591 349.5,259.5C 347.625,258.46 346.292,256.96 345.5,255C 346.589,252.084 348.256,249.584 350.5,247.5 Z"/></g>
<g><path style="opacity:1" fill="#ededed" d="M 439.5,253.5 C 440.773,254.077 440.773,254.743 439.5,255.5C 438.537,255.03 438.537,254.363 439.5,253.5 Z"/></g>
<g><path style="opacity:1" fill="#dddddd" d="M 757.5,256.5 C 759.104,257.287 759.771,258.62 759.5,260.5C 757.801,260.66 756.134,260.494 754.5,260C 755.71,258.961 756.71,257.794 757.5,256.5 Z"/></g>
<g><path style="opacity:1" fill="#7c7c7c" d="M 452.5,250.5 C 453.167,252.5 453.833,254.5 454.5,256.5C 454.539,257.756 454.039,258.756 453,259.5C 452.502,256.518 452.335,253.518 452.5,250.5 Z"/></g>
<g><path style="opacity:1" fill="#262626" d="M 495.5,262.5 C 498.709,263.297 499.209,264.963 497,267.5C 495.075,265.027 493.242,265.027 491.5,267.5C 489.512,266.711 489.179,265.545 490.5,264C 491.549,263.508 492.549,263.674 493.5,264.5C 494.522,264.145 495.189,263.478 495.5,262.5 Z"/></g>
<g><path style="opacity:1" fill="#1e1e1e" d="M 482.5,264.5 C 483.774,265.189 483.774,266.023 482.5,267C 479.623,268.946 476.623,270.279 473.5,271C 476.567,268.812 479.567,266.645 482.5,264.5 Z"/></g>
<g><path style="opacity:1" fill="#282828" d="M 355.5,264.5 C 356.774,265.189 356.774,266.023 355.5,267C 352.475,268.688 349.475,270.021 346.5,271C 349.402,268.583 352.402,266.416 355.5,264.5 Z"/></g>
<g><path style="opacity:1" fill="#282828" d="M 508.5,266.5 C 509.774,267.189 509.774,268.023 508.5,269C 505.475,270.688 502.475,272.021 499.5,273C 502.402,270.583 505.402,268.416 508.5,266.5 Z"/></g>
<g><path style="opacity:1" fill="#171717" d="M 720.5,274.5 C 721.239,274.369 721.906,274.536 722.5,275C 721.743,276.512 720.743,277.846 719.5,279C 715.673,280.746 712.007,282.746 708.5,285C 707.365,285.749 706.365,285.583 705.5,284.5C 710.357,280.908 715.357,277.575 720.5,274.5 Z"/></g>
</svg>
