<?xml version="1.0" encoding="UTF-8"?>
<!DOCTYPE svg PUBLIC "-//W3C//DTD SVG 1.1//EN" "http://www.w3.org/Graphics/SVG/1.1/DTD/svg11.dtd">
<svg xmlns="http://www.w3.org/2000/svg" version="1.1" width="1000px" height="500px" style="shape-rendering:geometricPrecision; text-rendering:geometricPrecision; image-rendering:optimizeQuality; fill-rule:evenodd; clip-rule:evenodd" xmlns:xlink="http://www.w3.org/1999/xlink">
<g><path style="opacity:1" fill="#fefefe" d="M -0.5,-0.5 C 332.833,-0.5 666.167,-0.5 999.5,-0.5C 999.5,166.167 999.5,332.833 999.5,499.5C 666.167,499.5 332.833,499.5 -0.5,499.5C -0.5,332.833 -0.5,166.167 -0.5,-0.5 Z"/></g>
<g><path style="opacity:1" fill="#131313" d="M 246.5,61.5 C 247.572,63.9358 246.905,66.1025 244.5,68C 237.676,71.2451 231.009,74.7451 224.5,78.5C 223.422,76.5253 223.755,74.692 225.5,73C 232.666,69.3027 239.666,65.4693 246.5,61.5 Z"/></g>
<g><path style="opacity:1" fill="#0f0f0f" d="M 413.5,64.5 C 415.527,64.3379 417.527,64.5045 419.5,65C 421.931,68.9151 421.931,72.9151 419.5,77C 419.93,78.4341 420.764,79.6008 422,80.5C 422.946,82.9563 422.446,84.9563 420.5,86.5C 419.126,85.2887 417.626,84.2887 416,83.5C 411.844,86.3183 407.677,89.1517 403.5,92C 401.833,92.6667 400.167,92.6667 398.5,92C 400.783,88.8228 401.617,85.3228 401,81.5C 398.006,80.1102 396.006,81.1102 395,84.5C 394.159,80.8798 394.826,77.5464 397,74.5C 399.881,72.9717 402.214,73.6384 404,76.5C 402.88,87.5381 405.714,89.0381 412.5,81C 407.096,75.2791 407.429,69.7791 413.5,64.5 Z"/></g>
<g><path style="opacity:1" fill="#f0f0f0" d="M 412.5,69.5 C 416.252,69.5007 417.252,71.1674 415.5,74.5C 413.244,73.5791 412.244,71.9124 412.5,69.5 Z"/></g>
<g><path style="opacity:1" fill="#121212" d="M 246.5,72.5 C 247.572,74.9358 246.905,77.1025 244.5,79C 237.709,82.2985 231.042,85.7985 224.5,89.5C 223.417,88.635 223.251,87.635 224,86.5C 225.167,85.3333 226.333,84.1667 227.5,83C 234.217,79.9795 240.551,76.4795 246.5,72.5 Z"/></g>
<g><path style="opacity:1" fill="#111111" d="M 677.5,80.5 C 678.376,80.3691 679.043,80.7025 679.5,81.5C 678.747,83.7534 677.414,85.5867 675.5,87C 668.891,90.4729 662.224,93.6396 655.5,96.5C 655.393,94.0968 656.393,92.2635 658.5,91C 664.895,87.4721 671.229,83.9721 677.5,80.5 Z"/></g>
<g><path style="opacity:1" fill="#131313" d="M 792.5,80.5 C 793.376,80.3691 794.043,80.7025 794.5,81.5C 793.627,83.4134 792.627,85.2467 791.5,87C 784.676,90.2451 778.009,93.7451 771.5,97.5C 770.422,95.5253 770.755,93.692 772.5,92C 779.393,88.3924 786.059,84.5591 792.5,80.5 Z"/></g>
<g><path style="opacity:1" fill="#131313" d="M 325.5,86.5 C 326.376,86.3691 327.043,86.7025 327.5,87.5C 326.627,89.4134 325.627,91.2467 324.5,93C 317.676,96.2451 311.009,99.7451 304.5,103.5C 303.422,101.525 303.755,99.692 305.5,98C 312.393,94.3924 319.059,90.5591 325.5,86.5 Z"/></g>
<g><path style="opacity:1" fill="#121212" d="M 455.5,86.5 C 461.839,87.0016 465.506,90.5016 466.5,97C 465.333,103.5 461.5,107.333 455,108.5C 449.953,106.926 447.787,103.426 448.5,98C 448.43,92.6289 450.764,88.7955 455.5,86.5 Z"/></g>
<g><path style="opacity:1" fill="#131313" d="M 502.5,88.5 C 503.376,88.3691 504.043,88.7025 504.5,89.5C 503.627,91.4134 502.627,93.2467 501.5,95C 494.676,98.2451 488.009,101.745 481.5,105.5C 480.422,103.525 480.755,101.692 482.5,100C 489.393,96.3924 496.059,92.5591 502.5,88.5 Z"/></g>
<g><path style="opacity:1" fill="#f4f4f4" d="M 452.5,92.5 C 458.172,91.883 461.339,94.2163 462,99.5C 458.621,101.923 455.121,102.09 451.5,100C 450.083,97.2565 450.416,94.7565 452.5,92.5 Z"/></g>
<g><path style="opacity:1" fill="#131313" d="M 735.5,91.5 C 736.376,91.3691 737.043,91.7025 737.5,92.5C 736.627,94.4134 735.627,96.2467 734.5,98C 727.676,101.245 721.009,104.745 714.5,108.5C 713.422,106.525 713.755,104.692 715.5,103C 722.393,99.3924 729.059,95.5591 735.5,91.5 Z"/></g>
<g><path style="opacity:1" fill="#0e0e0e" d="M 208.5,93.5 C 209.725,94.1522 210.392,95.3189 210.5,97C 211.847,110.149 213.014,123.316 214,136.5C 214.552,142.993 215.718,149.326 217.5,155.5C 228.862,159.077 239.695,157.744 250,151.5C 250.839,148.86 250.339,146.527 248.5,144.5C 245.432,150.026 240.765,152.193 234.5,151C 233.299,150.097 232.465,148.931 232,147.5C 230.095,137.537 233.095,129.537 241,123.5C 253.186,132.071 256.519,143.404 251,157.5C 244.026,164.543 235.526,167.877 225.5,167.5C 217.814,168.315 212.98,164.982 211,157.5C 209.493,139.8 207.66,122.134 205.5,104.5C 205.667,102.5 205.833,100.5 206,98.5C 207.094,96.9221 207.928,95.2554 208.5,93.5 Z"/></g>
<g><path style="opacity:1" fill="#141414" d="M 677.5,94.5 C 680.907,95.1744 682.24,97.3411 681.5,101C 681.582,105.761 679.915,109.761 676.5,113C 673.901,113.769 671.401,113.602 669,112.5C 667.38,114.241 665.88,116.075 664.5,118C 657.651,119.823 654.318,117.156 654.5,110C 656.794,99.9446 658.294,100.111 659,110.5C 660.938,111.86 662.604,111.527 664,109.5C 665.653,105.882 667.153,102.215 668.5,98.5C 669.949,100.611 670.949,102.944 671.5,105.5C 674.695,106.512 676.529,105.179 677,101.5C 677.497,99.1902 677.663,96.8568 677.5,94.5 Z"/></g>
<g><path style="opacity:1" fill="#101010" d="M 243.5,102.5 C 246.663,103.321 249.33,104.988 251.5,107.5C 250.365,109.799 249.032,111.966 247.5,114C 246.5,114.667 245.5,114.667 244.5,114C 243.183,112.341 241.517,111.174 239.5,110.5C 238.099,112.626 236.266,114.293 234,115.5C 231.845,114.421 229.845,113.087 228,111.5C 227.333,110.833 227.333,110.167 228,109.5C 229.667,107.5 231.333,105.5 233,103.5C 234.896,105.53 237.063,107.197 239.5,108.5C 241.278,106.736 242.611,104.736 243.5,102.5 Z"/></g>
<g><path style="opacity:1" fill="#121212" d="M 283.5,105.5 C 286.872,106.57 286.872,108.403 283.5,111C 276.991,114.755 270.324,118.255 263.5,121.5C 262.884,118.876 263.884,116.709 266.5,115C 272.552,112.313 278.219,109.146 283.5,105.5 Z"/></g>
<g><path style="opacity:1" fill="#141414" d="M 610.5,107.5 C 611.376,107.369 612.043,107.702 612.5,108.5C 611.752,110.332 610.752,111.999 609.5,113.5C 602.833,117.167 596.167,120.833 589.5,124.5C 588.152,122.389 588.485,120.555 590.5,119C 597.393,115.392 604.059,111.559 610.5,107.5 Z"/></g>
<g><path style="opacity:1" fill="#0e0e0e" d="M 425.5,111.5 C 426.117,111.611 426.617,111.944 427,112.5C 428.641,126.039 431.308,139.372 435,152.5C 435.465,153.931 436.299,155.097 437.5,156C 444.474,157.961 451.474,157.961 458.5,156C 459.804,155.196 460.471,154.029 460.5,152.5C 459.283,149.238 457.949,146.072 456.5,143C 457.327,139.512 458.827,136.346 461,133.5C 465.667,142.833 465.667,152.167 461,161.5C 458.658,164.754 455.491,166.588 451.5,167C 445.294,168.245 439.461,167.412 434,164.5C 431.616,160.675 429.616,156.675 428,152.5C 421.458,163.019 411.958,167.519 399.5,166C 393.943,164.496 392.11,160.996 394,155.5C 394.473,153.221 395.473,151.221 397,149.5C 397.394,152.893 399.227,155.06 402.5,156C 410.133,157.366 417.3,156.199 424,152.5C 425.872,149.795 426.705,146.795 426.5,143.5C 425.115,136.024 423.782,128.524 422.5,121C 422.806,117.585 423.806,114.418 425.5,111.5 Z"/></g>
<g><path style="opacity:1" fill="#101010" d="M 789.5,112.5 C 792.658,113.313 795.324,114.98 797.5,117.5C 796.365,119.799 795.032,121.966 793.5,124C 790.933,123.304 788.433,122.138 786,120.5C 783.784,121.966 781.784,123.633 780,125.5C 773.118,122.246 772.784,118.246 779,113.5C 781.309,114.975 783.476,116.642 785.5,118.5C 787.252,116.754 788.585,114.754 789.5,112.5 Z"/></g>
<g><path style="opacity:1" fill="#0f0f0f" d="M 498.5,122.5 C 508.002,124.317 508.836,127.983 501,133.5C 498.627,132.576 496.794,131.076 495.5,129C 496.391,126.721 497.391,124.554 498.5,122.5 Z"/></g>
<g><path style="opacity:1" fill="#0c0c0c" d="M 319.5,122.5 C 326.877,122.354 332.877,125.188 337.5,131C 327.272,129.033 317.772,130.867 309,136.5C 309.422,141.288 311.922,144.788 316.5,147C 320.039,148.504 323.705,148.837 327.5,148C 333.291,145.791 338.958,143.291 344.5,140.5C 345.015,143.157 344.515,145.823 343,148.5C 329.359,155.07 315.526,161.237 301.5,167C 297.848,167.499 294.182,167.665 290.5,167.5C 289.825,178.682 285.492,188.182 277.5,196C 271.279,199.356 264.612,200.356 257.5,199C 255.22,198.767 253.22,197.934 251.5,196.5C 268.937,195.619 280.937,187.119 287.5,171C 285.713,167.71 283.713,164.543 281.5,161.5C 282.838,158.824 284.171,156.158 285.5,153.5C 292.35,158.343 299.683,158.843 307.5,155C 303.227,151.779 301.394,147.612 302,142.5C 305.21,133.462 311.043,126.795 319.5,122.5 Z"/></g>
<g><path style="opacity:1" fill="#0b0b0b" d="M 751.5,130.5 C 764.825,131.468 768.658,138.135 763,150.5C 760.408,153.762 757.241,156.262 753.5,158C 764.27,158.739 774.937,158.072 785.5,156C 786.804,155.196 787.471,154.029 787.5,152.5C 786.167,149.167 784.833,145.833 783.5,142.5C 784.361,139.473 785.861,136.806 788,134.5C 792.313,142.924 792.647,151.59 789,160.5C 786.635,163.869 783.468,166.036 779.5,167C 758.825,167.167 738.159,167.667 717.5,168.5C 716.431,171.539 715.265,174.539 714,177.5C 712.158,174.319 712.325,171.152 714.5,168C 706.974,168.988 701.474,166.154 698,159.5C 692.597,166.947 685.43,169.447 676.5,167C 674.288,164.957 672.288,162.791 670.5,160.5C 663.797,167.011 655.797,169.178 646.5,167C 643.667,165.5 641.5,163.333 640,160.5C 637.766,162.7 635.266,164.533 632.5,166C 612.245,173.326 591.578,174.993 570.5,171C 559.335,166.504 555.168,158.338 558,146.5C 563.039,133.565 564.206,133.565 561.5,146.5C 561.893,153.074 565.226,157.574 571.5,160C 591.631,164.939 611.631,164.273 631.5,158C 634.927,156.569 637.76,154.402 640,151.5C 641.152,153.649 642.652,155.482 644.5,157C 650.833,157.667 657.167,157.667 663.5,157C 667.618,155.045 670.952,152.212 673.5,148.5C 674.36,151.593 675.694,154.427 677.5,157C 687.45,159.686 695.283,156.853 701,148.5C 701.228,153.401 703.728,156.567 708.5,158C 711.833,158.667 715.167,158.667 718.5,158C 727.277,146.046 738.277,136.88 751.5,130.5 Z"/></g>
<g><path style="opacity:1" fill="#ebebeb" d="M 236.5,135.5 C 240.126,134.861 241.959,136.194 242,139.5C 237.579,141.224 235.745,139.89 236.5,135.5 Z"/></g>
<g><path style="opacity:1" fill="#f6f6f6" d="M 741.5,142.5 C 747.68,141.829 753.514,142.829 759,145.5C 759.684,146.784 759.517,147.951 758.5,149C 747.444,154.892 735.778,157.726 723.5,157.5C 728.301,151.029 734.301,146.029 741.5,142.5 Z"/></g>
<g><path style="opacity:1" fill="#0f0f0f" d="M 500.5,142.5 C 505.184,148.042 507.184,154.542 506.5,162C 506.002,175.33 500.668,186.33 490.5,195C 481.485,198.786 472.818,198.12 464.5,193C 479.728,193.969 491.561,188.136 500,175.5C 501.943,173.01 503.109,170.177 503.5,167C 501.634,161.438 499.634,155.938 497.5,150.5C 497.948,147.609 498.948,144.942 500.5,142.5 Z"/></g>
<g><path style="opacity:1" fill="#0f0f0f" d="M 458.5,175.5 C 461.658,176.313 464.324,177.98 466.5,180.5C 465.041,182.583 463.708,184.75 462.5,187C 459.531,186.342 456.865,184.842 454.5,182.5C 452.823,184.54 451.156,186.54 449.5,188.5C 442.084,185.409 441.584,181.409 448,176.5C 450.01,177.848 452.01,179.182 454,180.5C 456.378,179.623 457.878,177.956 458.5,175.5 Z"/></g>
<g><path style="opacity:1" fill="#0e0e0e" d="M 666.5,175.5 C 674.796,177.789 675.629,181.789 669,187.5C 666.691,186.025 664.524,184.358 662.5,182.5C 663.592,179.976 664.926,177.643 666.5,175.5 Z"/></g>
<g><path style="opacity:1" fill="#101010" d="M 592.5,181.5 C 601.793,183.42 602.793,187.42 595.5,193.5C 592.686,192.518 590.686,190.685 589.5,188C 590.391,185.721 591.391,183.554 592.5,181.5 Z"/></g>
<g><path style="opacity:1" fill="#131313" d="M 479.5,246.5 C 479.334,250.514 479.501,254.514 480,258.5C 480.791,257.255 481.291,255.922 481.5,254.5C 482.506,250.142 483.673,245.809 485,241.5C 487.645,240.292 488.812,241.292 488.5,244.5C 486.562,254.635 484.229,264.635 481.5,274.5C 478.675,274.838 476.508,273.838 475,271.5C 470.833,262.5 466.667,253.5 462.5,244.5C 462.846,243.304 463.346,243.304 464,244.5C 467.667,251.167 471.333,257.833 475,264.5C 477.716,237.646 469.883,214.479 451.5,195C 452.167,194.333 452.833,194.333 453.5,195C 469.181,208.528 477.848,225.695 479.5,246.5 Z"/></g>
<g><path style="opacity:1" fill="#0f0f0f" d="M 695.5,195.5 C 695.897,194.475 696.563,194.308 697.5,195C 715.848,211.687 724.681,232.521 724,257.5C 725.333,252.833 726.667,248.167 728,243.5C 728.71,242.027 729.876,241.36 731.5,241.5C 730.92,252.487 728.753,263.154 725,273.5C 723.333,274.833 721.667,274.833 720,273.5C 714.479,263.814 710.146,253.814 707,243.5C 711.253,250.337 715.253,257.337 719,264.5C 721.39,237.832 713.556,214.832 695.5,195.5 Z"/></g>
<g><path style="opacity:1" fill="#0d0d0d" d="M 238.5,196.5 C 239.239,196.369 239.906,196.536 240.5,197C 223.847,216.755 216.681,239.588 219,265.5C 223,258.167 227,250.833 231,243.5C 231.167,244 231.333,244.5 231.5,245C 227.393,254.712 222.893,264.212 218,273.5C 216.333,274.833 214.667,274.833 213,273.5C 211.74,267.72 210.073,262.053 208,256.5C 207.088,251.536 206.588,246.536 206.5,241.5C 207.5,241.5 208.5,241.5 209.5,241.5C 210.993,246.803 212.493,252.136 214,257.5C 213.364,233.465 221.53,213.132 238.5,196.5 Z"/></g>
<g><path style="opacity:1" fill="#929292" d="M 479.5,246.5 C 480.167,249.167 480.833,251.833 481.5,254.5C 481.291,255.922 480.791,257.255 480,258.5C 479.501,254.514 479.334,250.514 479.5,246.5 Z"/></g>
<g><path style="opacity:1" fill="#141414" d="M 261.5,286.5 C 265.461,287.884 266.461,290.551 264.5,294.5C 261.187,296.254 259.52,295.254 259.5,291.5C 259.437,289.486 260.103,287.819 261.5,286.5 Z"/></g>
<g><path style="opacity:1" fill="#151515" d="M 496.5,286.5 C 499.734,286.237 501.068,287.737 500.5,291C 500.947,293.599 499.947,295.099 497.5,295.5C 493.837,293.019 493.504,290.019 496.5,286.5 Z"/></g>
<g><path style="opacity:1" fill="#181818" d="M 711.5,286.5 C 715.461,287.884 716.461,290.551 714.5,294.5C 711.187,296.254 709.52,295.254 709.5,291.5C 709.437,289.486 710.103,287.819 711.5,286.5 Z"/></g>
<g><path style="opacity:1" fill="#181818" d="M 721.5,286.5 C 725.461,287.884 726.461,290.551 724.5,294.5C 721.187,296.254 719.52,295.254 719.5,291.5C 719.437,289.486 720.103,287.819 721.5,286.5 Z"/></g>
<g><path style="opacity:1" fill="#1c1c1c" d="M 505.5,289.5 C 506.833,289.5 508.167,289.5 509.5,289.5C 509,302.836 508.333,316.17 507.5,329.5C 506.28,330.711 505.113,330.711 504,329.5C 503.029,316.087 503.529,302.754 505.5,289.5 Z"/></g>
<g><path style="opacity:1" fill="#0c0c0c" d="M 729.5,289.5 C 730.833,289.5 732.167,289.5 733.5,289.5C 733.119,302.845 732.452,316.178 731.5,329.5C 730.833,329.833 730.167,330.167 729.5,330.5C 728.281,316.827 728.281,303.161 729.5,289.5 Z"/></g>
<g><path style="opacity:1" fill="#0e0e0e" d="M 438.5,289.5 C 445.109,290.258 447.276,293.925 445,300.5C 444.692,301.308 444.192,301.975 443.5,302.5C 442.752,299.503 442.085,296.503 441.5,293.5C 440.277,292.386 438.944,292.219 437.5,293C 435.752,297.294 435.085,301.794 435.5,306.5C 438.681,306.002 441.347,306.835 443.5,309C 440.487,309.502 437.487,310.002 434.5,310.5C 434.5,317.167 434.5,323.833 434.5,330.5C 433.178,330.67 432.011,330.337 431,329.5C 430.83,323.472 430.33,317.472 429.5,311.5C 428.137,312.879 427.137,312.713 426.5,311C 427.098,309.699 428.098,308.865 429.5,308.5C 429.682,300.656 432.682,294.322 438.5,289.5 Z"/></g>
<g><path style="opacity:1" fill="#0e0e0e" d="M 473.5,292.5 C 477.728,293.466 480.728,296.133 482.5,300.5C 481.635,301.583 480.635,301.749 479.5,301C 476.619,298.721 474.619,295.888 473.5,292.5 Z"/></g>
<g><path style="opacity:1" fill="#0e0e0e" d="M 701.5,289.5 C 708.109,290.258 710.276,293.925 708,300.5C 707.692,301.308 707.192,301.975 706.5,302.5C 705.752,299.503 705.085,296.503 704.5,293.5C 703.277,292.386 701.944,292.219 700.5,293C 698.752,297.294 698.085,301.794 698.5,306.5C 701.681,306.002 704.347,306.835 706.5,309C 703.487,309.502 700.487,310.002 697.5,310.5C 697.5,317.167 697.5,323.833 697.5,330.5C 696.178,330.67 695.011,330.337 694,329.5C 693.83,323.472 693.33,317.472 692.5,311.5C 691.137,312.879 690.137,312.713 689.5,311C 690.098,309.699 691.098,308.865 692.5,308.5C 692.682,300.656 695.682,294.322 701.5,289.5 Z"/></g>
<g><path style="opacity:1" fill="#0d0d0d" d="M 169.5,293.5 C 171.402,296.337 172.069,299.671 171.5,303.5C 174.247,303.187 176.914,303.52 179.5,304.5C 179.023,305.478 178.357,306.311 177.5,307C 175.19,307.497 172.857,307.663 170.5,307.5C 170.5,314.833 170.5,322.167 170.5,329.5C 169.178,329.67 168.011,329.337 167,328.5C 166.5,321.842 166.334,315.175 166.5,308.5C 164.833,308.5 163.167,308.5 161.5,308.5C 161.5,307.167 161.5,305.833 161.5,304.5C 163.5,304.5 165.5,304.5 167.5,304.5C 167.659,300.709 168.325,297.042 169.5,293.5 Z"/></g>
<g><path style="opacity:1" fill="#161616" d="M 184.5,303.5 C 190.302,302.006 194.136,304.006 196,309.5C 196.001,313.85 195.501,318.183 194.5,322.5C 194.753,324.858 195.086,327.192 195.5,329.5C 192.14,330.21 190.307,328.876 190,325.5C 187.543,330.186 183.877,331.519 179,329.5C 176.777,325.612 177.277,322.112 180.5,319C 183.166,316.665 186.166,314.831 189.5,313.5C 190.952,310.718 190.619,308.218 188.5,306C 185.702,305.439 183.869,306.606 183,309.5C 182.506,311.134 182.34,312.801 182.5,314.5C 180.365,314.853 179.032,314.02 178.5,312C 179.927,308.743 181.927,305.91 184.5,303.5 Z"/></g>
<g><path style="opacity:1" fill="#0e0e0e" d="M 259.5,303.5 C 260.833,303.5 262.167,303.5 263.5,303.5C 262.815,311.816 262.482,320.149 262.5,328.5C 261.178,328.67 260.011,328.337 259,327.5C 258.2,319.421 258.367,311.421 259.5,303.5 Z"/></g>
<g><path style="opacity:1" fill="#161616" d="M 450.5,303.5 C 456.302,302.006 460.136,304.006 462,309.5C 462.001,313.85 461.501,318.183 460.5,322.5C 460.753,324.858 461.086,327.192 461.5,329.5C 458.14,330.21 456.307,328.876 456,325.5C 453.543,330.186 449.877,331.519 445,329.5C 442.777,325.612 443.277,322.112 446.5,319C 449.166,316.665 452.166,314.831 455.5,313.5C 456.952,310.718 456.619,308.218 454.5,306C 451.702,305.439 449.869,306.606 449,309.5C 448.506,311.134 448.34,312.801 448.5,314.5C 447.167,314.5 445.833,314.5 444.5,314.5C 444.687,312.436 445.187,310.436 446,308.5C 447.707,306.963 449.207,305.296 450.5,303.5 Z"/></g>
<g><path style="opacity:1" fill="#161616" d="M 494.5,303.5 C 495.833,303.5 497.167,303.5 498.5,303.5C 498.666,311.507 498.5,319.507 498,327.5C 496.286,328.925 494.953,328.592 494,326.5C 493.233,318.785 493.4,311.118 494.5,303.5 Z"/></g>
<g><path style="opacity:1" fill="#030303" d="M 709.5,303.5 C 710.5,303.5 711.5,303.5 712.5,303.5C 712.5,311.833 712.5,320.167 712.5,328.5C 711.178,328.67 710.011,328.337 709,327.5C 708.2,319.421 708.367,311.421 709.5,303.5 Z"/></g>
<g><path style="opacity:1" fill="#030303" d="M 719.5,303.5 C 720.5,303.5 721.5,303.5 722.5,303.5C 722.5,311.833 722.5,320.167 722.5,328.5C 721.178,328.67 720.011,328.337 719,327.5C 718.2,319.421 718.367,311.421 719.5,303.5 Z"/></g>
<g><path style="opacity:1" fill="#121212" d="M 231.5,304.5 C 233.467,304.261 235.301,304.594 237,305.5C 239.076,310.651 241.41,315.651 244,320.5C 247,315.5 250,310.5 253,305.5C 254.388,304.446 255.888,304.28 257.5,305C 248.511,318.475 240.677,332.641 234,347.5C 232.56,346.07 232.226,344.403 233,342.5C 235.918,337.166 238.418,331.666 240.5,326C 237.357,318.882 234.357,311.715 231.5,304.5 Z"/></g>
<g><path style="opacity:1" fill="#0a0a0a" d="M 269.5,304.5 C 275.833,304.5 282.167,304.5 288.5,304.5C 288.719,305.675 288.386,306.675 287.5,307.5C 281.982,312.184 276.982,317.351 272.5,323C 277.489,323.499 282.489,323.666 287.5,323.5C 287.52,325.143 286.853,326.476 285.5,327.5C 279.144,328.204 272.81,328.87 266.5,329.5C 265.386,328.277 265.219,326.944 266,325.5C 271.5,320 277,314.5 282.5,309C 278.179,308.501 273.846,308.334 269.5,308.5C 269.5,307.167 269.5,305.833 269.5,304.5 Z"/></g>
<g><path style="opacity:1" fill="#151515" d="M 202.5,304.5 C 203.5,304.5 204.5,304.5 205.5,304.5C 205.335,307.518 205.502,310.518 206,313.5C 207.211,310.241 209.044,307.408 211.5,305C 212.944,304.219 214.277,304.386 215.5,305.5C 216.262,309.111 216.762,312.778 217,316.5C 218.265,311.618 220.765,307.618 224.5,304.5C 225.938,304.719 227.271,305.219 228.5,306C 228.529,312.99 228.863,319.99 229.5,327C 228.333,330.167 226.833,330.333 225,327.5C 224.667,321.167 224.333,314.833 224,308.5C 222.171,310.156 220.837,312.156 220,314.5C 218.53,319.243 216.864,323.909 215,328.5C 214,328.167 213,327.833 212,327.5C 212.305,320.85 212.305,314.183 212,307.5C 207.423,313.729 204.923,320.729 204.5,328.5C 203.167,328.5 201.833,328.5 200.5,328.5C 200.062,320.35 200.729,312.35 202.5,304.5 Z"/></g>
<g><path style="opacity:1" fill="#ececec" d="M 188.5,317.5 C 190.344,318.204 190.844,319.537 190,321.5C 188.078,325.597 184.912,327.93 180.5,328.5C 181.574,323.748 184.24,320.081 188.5,317.5 Z"/></g>
<g><path style="opacity:1" fill="#ececec" d="M 454.5,317.5 C 456.344,318.204 456.844,319.537 456,321.5C 454.078,325.597 450.912,327.93 446.5,328.5C 447.574,323.748 450.24,320.081 454.5,317.5 Z"/></g>
</svg>
