<?xml version="1.0" encoding="UTF-8"?>
<!DOCTYPE svg PUBLIC "-//W3C//DTD SVG 1.1//EN" "http://www.w3.org/Graphics/SVG/1.1/DTD/svg11.dtd">
<svg xmlns="http://www.w3.org/2000/svg" version="1.1" width="1000px" height="500px" style="shape-rendering:geometricPrecision; text-rendering:geometricPrecision; image-rendering:optimizeQuality; fill-rule:evenodd; clip-rule:evenodd" xmlns:xlink="http://www.w3.org/1999/xlink">
<g><path style="opacity:1" fill="#fefefe" d="M -0.5,-0.5 C 332.833,-0.5 666.167,-0.5 999.5,-0.5C 999.5,166.167 999.5,332.833 999.5,499.5C 666.167,499.5 332.833,499.5 -0.5,499.5C -0.5,332.833 -0.5,166.167 -0.5,-0.5 Z"/></g>
<g><path style="opacity:1" fill="#131313" d="M 420.5,58.5 C 421.572,60.9358 420.905,63.1025 418.5,65C 411.676,68.2451 405.009,71.7451 398.5,75.5C 397.422,73.5253 397.755,71.692 399.5,70C 406.666,66.3027 413.666,62.4693 420.5,58.5 Z"/></g>
<g><path style="opacity:1" fill="#121212" d="M 766.5,58.5 C 767.572,60.9358 766.905,63.1025 764.5,65C 757.709,68.2985 751.042,71.7985 744.5,75.5C 743.417,74.635 743.251,73.635 744,72.5C 745.167,71.3333 746.333,70.1667 747.5,69C 754.217,65.9795 760.551,62.4795 766.5,58.5 Z"/></g>
<g><path style="opacity:1" fill="#121212" d="M 420.5,69.5 C 421.572,71.9358 420.905,74.1025 418.5,76C 411.709,79.2985 405.042,82.7985 398.5,86.5C 397.417,85.635 397.251,84.635 398,83.5C 399.167,82.3333 400.333,81.1667 401.5,80C 408.217,76.9795 414.551,73.4795 420.5,69.5 Z"/></g>
<g><path style="opacity:1" fill="#141414" d="M 350.5,72.5 C 351.376,72.3691 352.043,72.7025 352.5,73.5C 351.752,75.3325 350.752,76.9991 349.5,78.5C 342.833,82.1667 336.167,85.8333 329.5,89.5C 328.152,87.3886 328.485,85.5553 330.5,84C 337.393,80.3924 344.059,76.5591 350.5,72.5 Z"/></g>
<g><path style="opacity:1" fill="#0c0c0c" d="M 631.5,78.5 C 634.044,78.1043 636.211,78.771 638,80.5C 638.813,84.6645 638.313,88.6645 636.5,92.5C 641.625,95.0272 641.792,97.6939 637,100.5C 635.527,100.097 634.194,99.4303 633,98.5C 630.5,101 628,103.5 625.5,106C 622.634,107.457 619.634,107.79 616.5,107C 620.951,104.217 625.117,101.05 629,97.5C 628.169,94.8232 627.002,92.1566 625.5,89.5C 626.734,85.3626 628.734,81.6959 631.5,78.5 Z"/></g>
<g><path style="opacity:1" fill="#121212" d="M 699.5,80.5 C 709.022,81.8855 712.189,87.2188 709,96.5C 700.122,105.803 694.622,104.303 692.5,92C 692.586,86.7575 694.919,82.9242 699.5,80.5 Z"/></g>
<g><path style="opacity:1" fill="#d7d7d7" d="M 629.5,84.5 C 632.833,84.5 634.5,86.1667 634.5,89.5C 631.736,89.0012 630.069,87.3345 629.5,84.5 Z"/></g>
<g><path style="opacity:1" fill="#f5f5f5" d="M 696.5,86.5 C 702.203,85.7299 705.37,88.0632 706,93.5C 700.849,96.9012 697.016,95.9012 694.5,90.5C 694.752,88.9271 695.418,87.5938 696.5,86.5 Z"/></g>
<g><path style="opacity:1" fill="#121212" d="M 490.5,86.5 C 496.839,87.0016 500.506,90.5016 501.5,97C 500.333,103.5 496.5,107.333 490,108.5C 484.953,106.926 482.787,103.426 483.5,98C 483.43,92.6289 485.764,88.7955 490.5,86.5 Z"/></g>
<g><path style="opacity:1" fill="#131313" d="M 252.5,87.5 C 253.572,89.9358 252.905,92.1025 250.5,94C 243.676,97.2451 237.009,100.745 230.5,104.5C 229.422,102.525 229.755,100.692 231.5,99C 238.666,95.3027 245.666,91.4693 252.5,87.5 Z"/></g>
<g><path style="opacity:1" fill="#0b0b0b" d="M 755.5,88.5 C 759.221,89.8912 761.554,92.5579 762.5,96.5C 761.205,99.2708 760.205,102.104 759.5,105C 761.997,119.373 763.163,133.873 763,148.5C 769.705,141.126 777.538,135.292 786.5,131C 798.497,128.666 803.664,133.499 802,145.5C 799.561,153.272 794.394,158.439 786.5,161C 771.242,166.199 755.576,168.199 739.5,167C 736.527,165.235 734.36,162.735 733,159.5C 727.597,166.947 720.43,169.447 711.5,167C 709.288,164.957 707.288,162.791 705.5,160.5C 698.006,167.458 689.339,169.291 679.5,166C 677.622,164.457 676.122,162.624 675,160.5C 672.766,162.7 670.266,164.533 667.5,166C 647.245,173.326 626.578,174.993 605.5,171C 594.335,166.504 590.168,158.338 593,146.5C 598.039,133.565 599.206,133.565 596.5,146.5C 596.893,153.074 600.226,157.574 606.5,160C 626.631,164.939 646.631,164.273 666.5,158C 669.927,156.569 672.76,154.402 675,151.5C 676.152,153.649 677.652,155.482 679.5,157C 685.833,157.667 692.167,157.667 698.5,157C 702.618,155.045 705.952,152.212 708.5,148.5C 709.36,151.593 710.694,154.427 712.5,157C 722.49,159.673 730.324,156.84 736,148.5C 736.689,151.408 737.855,154.075 739.5,156.5C 744.131,157.662 748.798,157.828 753.5,157C 755.667,156.167 757.167,154.667 758,152.5C 758.942,147.547 759.442,142.547 759.5,137.5C 758.582,123.996 756.582,110.662 753.5,97.5C 753.449,94.3082 754.116,91.3082 755.5,88.5 Z"/></g>
<g><path style="opacity:1" fill="#131313" d="M 537.5,88.5 C 538.376,88.3691 539.043,88.7025 539.5,89.5C 538.627,91.4134 537.627,93.2467 536.5,95C 529.676,98.2451 523.009,101.745 516.5,105.5C 515.422,103.525 515.755,101.692 517.5,100C 524.393,96.3924 531.059,92.5591 537.5,88.5 Z"/></g>
<g><path style="opacity:1" fill="#121212" d="M 739.5,89.5 C 740.572,91.9358 739.905,94.1025 737.5,96C 730.709,99.2985 724.042,102.798 717.5,106.5C 716.417,105.635 716.251,104.635 717,103.5C 718.167,102.333 719.333,101.167 720.5,100C 727.217,96.9795 733.551,93.4795 739.5,89.5 Z"/></g>
<g><path style="opacity:1" fill="#f4f4f4" d="M 487.5,92.5 C 493.172,91.883 496.339,94.2163 497,99.5C 493.621,101.923 490.121,102.09 486.5,100C 485.083,97.2565 485.416,94.7565 487.5,92.5 Z"/></g>
<g><path style="opacity:1" fill="#0e0e0e" d="M 201.5,93.5 C 203.851,112.325 206.018,131.325 208,150.5C 208.066,153.276 209.232,155.442 211.5,157C 217.585,157.861 223.585,157.527 229.5,156C 234.996,151.007 240.663,146.174 246.5,141.5C 251.62,145.447 256.62,149.613 261.5,154C 263.5,155 265.5,156 267.5,157C 273.5,157.667 279.5,157.667 285.5,157C 288.042,156.454 290.042,155.121 291.5,153C 290.089,149.512 288.423,146.178 286.5,143C 287.611,139.945 289.111,137.112 291,134.5C 293.922,138.089 295.088,142.255 294.5,147C 295.966,160.863 289.8,167.696 276,167.5C 269.55,167.683 263.883,165.683 259,161.5C 259.058,166.121 256.891,168.455 252.5,168.5C 245.88,166.9 240.214,163.566 235.5,158.5C 227.782,167.596 218.449,169.763 207.5,165C 205.437,162.489 203.937,159.656 203,156.5C 201.536,139.291 199.703,122.125 197.5,105C 197.291,100.594 198.624,96.7602 201.5,93.5 Z"/></g>
<g><path style="opacity:1" fill="#0f0f0f" d="M 313.5,93.5 C 315.736,113.721 318.236,134.054 321,154.5C 321.833,155.333 322.667,156.167 323.5,157C 333.633,158.629 343.3,157.296 352.5,153C 356.452,150.073 356.452,147.239 352.5,144.5C 348.052,152.268 342.552,153.268 336,147.5C 334.741,138.455 337.241,130.622 343.5,124C 344.833,123.333 346.167,123.333 347.5,124C 358.618,133.703 361.118,145.203 355,158.5C 345.856,166.001 335.356,168.835 323.5,167C 318.664,165.181 315.831,161.681 315,156.5C 313.536,139.291 311.703,122.125 309.5,105C 309.291,100.594 310.624,96.7602 313.5,93.5 Z"/></g>
<g><path style="opacity:1" fill="#121212" d="M 410.5,93.5 C 413.682,111.765 416.015,130.432 417.5,149.5C 416.802,155.658 415.469,161.658 413.5,167.5C 413.502,161.956 413.336,156.289 413,150.5C 411.077,136.511 409.243,122.511 407.5,108.5C 407.865,103.34 408.865,98.3402 410.5,93.5 Z"/></g>
<g><path style="opacity:1" fill="#121212" d="M 252.5,98.5 C 253.572,100.936 252.905,103.103 250.5,105C 243.709,108.298 237.042,111.798 230.5,115.5C 229.417,114.635 229.251,113.635 230,112.5C 231.167,111.333 232.333,110.167 233.5,109C 240.217,105.98 246.551,102.48 252.5,98.5 Z"/></g>
<g><path style="opacity:1" fill="#0f0f0f" d="M 288.5,102.5 C 290.604,102.201 292.604,102.534 294.5,103.5C 295.873,106.383 295.207,108.717 292.5,110.5C 290.232,109.456 287.899,109.289 285.5,110C 284.549,110.718 284.383,111.551 285,112.5C 289.441,115.655 294.274,116.488 299.5,115C 298.743,116.512 297.743,117.846 296.5,119C 290.944,121.028 285.444,123.195 280,125.5C 278.743,125.15 278.409,124.483 279,123.5C 280.167,121.667 281.667,120.167 283.5,119C 280.71,116.79 279.877,113.956 281,110.5C 283.028,107.308 285.528,104.641 288.5,102.5 Z"/></g>
<g><path style="opacity:1" fill="#0c0c0c" d="M 348.5,102.5 C 356.379,104.628 357.379,108.462 351.5,114C 348.933,113.304 346.433,112.138 344,110.5C 342.333,112.167 340.667,113.833 339,115.5C 331.654,113.347 330.821,109.847 336.5,105C 337.5,104.333 338.5,104.333 339.5,105C 340.685,106.353 342.019,107.52 343.5,108.5C 345.641,106.878 347.308,104.878 348.5,102.5 Z"/></g>
<g><path style="opacity:1" fill="#121212" d="M 779.5,108.5 C 788.793,110.42 789.793,114.42 782.5,120.5C 779.888,119.221 777.555,117.555 775.5,115.5C 777.11,113.275 778.443,110.941 779.5,108.5 Z"/></g>
<g><path style="opacity:1" fill="#0e0e0e" d="M 460.5,111.5 C 461.117,111.611 461.617,111.944 462,112.5C 463.641,126.039 466.308,139.372 470,152.5C 470.465,153.931 471.299,155.097 472.5,156C 479.474,157.961 486.474,157.961 493.5,156C 494.804,155.196 495.471,154.029 495.5,152.5C 494.283,149.238 492.949,146.072 491.5,143C 492.327,139.512 493.827,136.346 496,133.5C 500.667,142.833 500.667,152.167 496,161.5C 493.658,164.754 490.491,166.588 486.5,167C 480.294,168.245 474.461,167.412 469,164.5C 466.616,160.675 464.616,156.675 463,152.5C 456.458,163.019 446.958,167.519 434.5,166C 428.943,164.496 427.11,160.996 429,155.5C 429.473,153.221 430.473,151.221 432,149.5C 432.394,152.893 434.227,155.06 437.5,156C 445.133,157.366 452.3,156.199 459,152.5C 460.872,149.795 461.705,146.795 461.5,143.5C 460.115,136.024 458.782,128.524 457.5,121C 457.806,117.585 458.806,114.418 460.5,111.5 Z"/></g>
<g><path style="opacity:1" fill="#0f0f0f" d="M 533.5,122.5 C 543.002,124.317 543.836,127.983 536,133.5C 533.627,132.576 531.794,131.076 530.5,129C 531.391,126.721 532.391,124.554 533.5,122.5 Z"/></g>
<g><path style="opacity:1" fill="#0d0d0d" d="M 639.5,127.5 C 647.127,129.876 648.127,133.709 642.5,139C 639.633,138.819 637.133,137.652 635,135.5C 633.216,137.367 631.216,139.034 629,140.5C 627.343,139.516 625.677,138.516 624,137.5C 623.93,133.965 625.263,130.965 628,128.5C 630.257,130.046 632.424,131.712 634.5,133.5C 636.164,131.509 637.831,129.509 639.5,127.5 Z"/></g>
<g><path style="opacity:1" fill="#101010" d="M 701.5,128.5 C 709.72,130.989 710.553,134.989 704,140.5C 701.361,139.432 699.195,137.766 697.5,135.5C 698.861,133.15 700.194,130.816 701.5,128.5 Z"/></g>
<g><path style="opacity:1" fill="#0e0e0e" d="M 729.5,128.5 C 738.118,131.089 738.785,135.089 731.5,140.5C 724.299,137.567 723.632,133.567 729.5,128.5 Z"/></g>
<g><path style="opacity:1" fill="#e2e2e2" d="M 341.5,134.5 C 344.168,134.834 346.168,136.167 347.5,138.5C 341.957,141.973 339.957,140.639 341.5,134.5 Z"/></g>
<g><path style="opacity:1" fill="#f9f9f9" d="M 779.5,141.5 C 784.599,141.175 789.599,141.675 794.5,143C 797.167,145 797.167,147 794.5,149C 783.812,154.566 772.479,157.232 760.5,157C 765.862,150.455 772.195,145.288 779.5,141.5 Z"/></g>
<g><path style="opacity:1" fill="#0f0f0f" d="M 535.5,142.5 C 540.184,148.042 542.184,154.542 541.5,162C 541.002,175.33 535.668,186.33 525.5,195C 516.485,198.786 507.818,198.12 499.5,193C 514.728,193.969 526.561,188.136 535,175.5C 536.943,173.01 538.109,170.177 538.5,167C 536.634,161.438 534.634,155.938 532.5,150.5C 532.948,147.609 533.948,144.942 535.5,142.5 Z"/></g>
<g><path style="opacity:1" fill="#ededed" d="M 244.5,147.5 C 247.48,147.241 249.313,148.574 250,151.5C 250.818,154.227 250.652,156.894 249.5,159.5C 245.918,157.88 242.918,155.547 240.5,152.5C 241.857,150.814 243.19,149.148 244.5,147.5 Z"/></g>
<g><path style="opacity:1" fill="#0f0f0f" d="M 493.5,175.5 C 496.658,176.313 499.324,177.98 501.5,180.5C 500.041,182.583 498.708,184.75 497.5,187C 494.531,186.342 491.865,184.842 489.5,182.5C 487.823,184.54 486.156,186.54 484.5,188.5C 477.084,185.409 476.584,181.409 483,176.5C 485.01,177.848 487.01,179.182 489,180.5C 491.378,179.623 492.878,177.956 493.5,175.5 Z"/></g>
<g><path style="opacity:1" fill="#121212" d="M 294.5,182.5 C 296.811,183.961 296.811,185.794 294.5,188C 287.676,191.245 281.009,194.745 274.5,198.5C 273.152,196.389 273.485,194.555 275.5,193C 282.217,189.98 288.551,186.48 294.5,182.5 Z"/></g>
<g><path style="opacity:1" fill="#0d0d0d" d="M 490.5,232.5 C 490.168,243.187 490.501,253.854 491.5,264.5C 492.107,264.376 492.44,264.043 492.5,263.5C 493.708,260.956 495.708,259.622 498.5,259.5C 498.046,262.14 496.879,264.473 495,266.5C 492.312,269.272 489.646,271.938 487,274.5C 485.739,274.241 484.739,273.574 484,272.5C 480.131,267.155 476.965,261.488 474.5,255.5C 475.552,255.351 476.552,255.517 477.5,256C 479.788,258.743 481.955,261.577 484,264.5C 484.333,243.167 484.667,221.833 485,200.5C 486.937,189.975 488.604,189.975 490,200.5C 490.5,211.161 490.667,221.828 490.5,232.5 Z"/></g>
<g><path style="opacity:1" fill="#121212" d="M 216.5,254.5 C 216.709,255.922 217.209,257.255 218,258.5C 218.499,254.514 218.666,250.514 218.5,246.5C 220.152,225.695 228.819,208.528 244.5,195C 245.167,194.333 245.833,194.333 246.5,195C 228.117,214.479 220.284,237.646 223,264.5C 226.747,257.337 230.747,250.337 235,243.5C 231.394,253.785 226.894,263.785 221.5,273.5C 219.955,274.452 218.288,274.785 216.5,274.5C 213.143,263.751 210.81,252.751 209.5,241.5C 210.833,241.5 212.167,241.5 213.5,241.5C 214.344,245.874 215.344,250.207 216.5,254.5 Z"/></g>
<g><path style="opacity:1" fill="#101010" d="M 752.5,195.5 C 752.897,194.475 753.563,194.308 754.5,195C 773.07,211.987 781.903,233.154 781,258.5C 782.454,252.509 784.287,246.676 786.5,241C 787.449,240.383 788.282,240.549 789,241.5C 788.321,252.719 785.821,263.552 781.5,274C 779.888,274.72 778.388,274.554 777,273.5C 771.953,264.074 767.453,254.407 763.5,244.5C 763.846,243.304 764.346,243.304 765,244.5C 768.667,251.167 772.333,257.833 776,264.5C 778.391,237.836 770.558,214.836 752.5,195.5 Z"/></g>
<g><path style="opacity:1" fill="#8e8e8e" d="M 490.5,232.5 C 491.167,242.833 491.833,253.167 492.5,263.5C 492.44,264.043 492.107,264.376 491.5,264.5C 490.501,253.854 490.168,243.187 490.5,232.5 Z"/></g>
<g><path style="opacity:1" fill="#929292" d="M 218.5,246.5 C 218.666,250.514 218.499,254.514 218,258.5C 217.209,257.255 216.709,255.922 216.5,254.5C 217.167,251.833 217.833,249.167 218.5,246.5 Z"/></g>
<g><path style="opacity:1" fill="#181818" d="M 314.5,285.5 C 318.461,286.884 319.461,289.551 317.5,293.5C 314.187,295.254 312.52,294.254 312.5,290.5C 312.437,288.486 313.103,286.819 314.5,285.5 Z"/></g>
<g><path style="opacity:1" fill="#141414" d="M 749.5,286.5 C 753.461,287.884 754.461,290.551 752.5,294.5C 749.187,296.254 747.52,295.254 747.5,291.5C 747.437,289.486 748.103,287.819 749.5,286.5 Z"/></g>
<g><path style="opacity:1" fill="#090909" d="M 224.5,288.5 C 225.833,288.5 227.167,288.5 228.5,288.5C 228.086,301.843 227.419,315.176 226.5,328.5C 225.833,328.833 225.167,329.167 224.5,329.5C 223.281,315.827 223.281,302.161 224.5,288.5 Z"/></g>
<g><path style="opacity:1" fill="#090909" d="M 496.5,288.5 C 497.833,288.5 499.167,288.5 500.5,288.5C 500.086,301.843 499.419,315.176 498.5,328.5C 497.833,328.833 497.167,329.167 496.5,329.5C 495.281,315.827 495.281,302.161 496.5,288.5 Z"/></g>
<g><path style="opacity:1" fill="#1c1c1c" d="M 596.5,288.5 C 597.833,288.5 599.167,288.5 600.5,288.5C 600,301.836 599.333,315.17 598.5,328.5C 597.28,329.711 596.113,329.711 595,328.5C 594.029,315.087 594.529,301.754 596.5,288.5 Z"/></g>
<g><path style="opacity:1" fill="#090909" d="M 757.5,289.5 C 758.833,289.5 760.167,289.5 761.5,289.5C 761.086,302.843 760.419,316.176 759.5,329.5C 758.833,329.833 758.167,330.167 757.5,330.5C 756.281,316.827 756.281,303.161 757.5,289.5 Z"/></g>
<g><path style="opacity:1" fill="#0e0e0e" d="M 167.5,288.5 C 174.109,289.258 176.276,292.925 174,299.5C 173.692,300.308 173.192,300.975 172.5,301.5C 171.752,298.503 171.085,295.503 170.5,292.5C 169.277,291.386 167.944,291.219 166.5,292C 164.752,296.294 164.085,300.794 164.5,305.5C 167.681,305.002 170.347,305.835 172.5,308C 169.487,308.502 166.487,309.002 163.5,309.5C 163.5,316.167 163.5,322.833 163.5,329.5C 162.178,329.67 161.011,329.337 160,328.5C 159.83,322.472 159.33,316.472 158.5,310.5C 157.137,311.879 156.137,311.713 155.5,310C 156.098,308.699 157.098,307.865 158.5,307.5C 158.682,299.656 161.682,293.322 167.5,288.5 Z"/></g>
<g><path style="opacity:1" fill="#131313" d="M 180.5,291.5 C 184.656,292.645 187.656,295.311 189.5,299.5C 188.277,300.614 186.944,300.781 185.5,300C 183.18,297.522 181.514,294.689 180.5,291.5 Z"/></g>
<g><path style="opacity:1" fill="#0e0e0e" d="M 439.5,288.5 C 446.109,289.258 448.276,292.925 446,299.5C 445.692,300.308 445.192,300.975 444.5,301.5C 443.752,298.503 443.085,295.503 442.5,292.5C 441.277,291.386 439.944,291.219 438.5,292C 436.752,296.294 436.085,300.794 436.5,305.5C 439.681,305.002 442.347,305.835 444.5,308C 441.487,308.502 438.487,309.002 435.5,309.5C 435.5,316.167 435.5,322.833 435.5,329.5C 434.178,329.67 433.011,329.337 432,328.5C 431.83,322.472 431.33,316.472 430.5,310.5C 429.137,311.879 428.137,311.713 427.5,310C 428.098,308.699 429.098,307.865 430.5,307.5C 430.682,299.656 433.682,293.322 439.5,288.5 Z"/></g>
<g><path style="opacity:1" fill="#131313" d="M 452.5,291.5 C 456.656,292.645 459.656,295.311 461.5,299.5C 460.277,300.614 458.944,300.781 457.5,300C 455.18,297.522 453.514,294.689 452.5,291.5 Z"/></g>
<g><path style="opacity:1" fill="#111111" d="M 141.5,302.5 C 145.954,301.617 149.454,302.95 152,306.5C 151.964,313.819 151.797,321.152 151.5,328.5C 148.612,328.78 147.112,327.447 147,324.5C 143.188,330.003 138.855,330.67 134,326.5C 134.991,319.324 139.158,314.658 146.5,312.5C 147.797,309.812 147.464,307.312 145.5,305C 144.167,304.333 142.833,304.333 141.5,305C 139.503,307.492 138.503,310.325 138.5,313.5C 137.5,313.5 136.5,313.5 135.5,313.5C 135.677,308.811 137.677,305.144 141.5,302.5 Z"/></g>
<g><path style="opacity:1" fill="#161616" d="M 271.5,302.5 C 277.302,301.006 281.136,303.006 283,308.5C 283.001,312.85 282.501,317.183 281.5,321.5C 281.753,323.858 282.086,326.192 282.5,328.5C 279.14,329.21 277.307,327.876 277,324.5C 274.543,329.186 270.877,330.519 266,328.5C 263.777,324.612 264.277,321.112 267.5,318C 270.166,315.665 273.166,313.831 276.5,312.5C 277.952,309.718 277.619,307.218 275.5,305C 272.702,304.439 270.869,305.606 270,308.5C 269.506,310.134 269.34,311.801 269.5,313.5C 267.365,313.853 266.032,313.02 265.5,311C 266.927,307.743 268.927,304.91 271.5,302.5 Z"/></g>
<g><path style="opacity:1" fill="#030303" d="M 312.5,302.5 C 313.5,302.5 314.5,302.5 315.5,302.5C 315.5,310.833 315.5,319.167 315.5,327.5C 314.178,327.67 313.011,327.337 312,326.5C 311.2,318.421 311.367,310.421 312.5,302.5 Z"/></g>
<g><path style="opacity:1" fill="#111111" d="M 413.5,302.5 C 417.954,301.617 421.454,302.95 424,306.5C 423.964,313.819 423.797,321.152 423.5,328.5C 420.612,328.78 419.112,327.447 419,324.5C 415.188,330.003 410.855,330.67 406,326.5C 406.991,319.324 411.158,314.658 418.5,312.5C 419.797,309.812 419.464,307.312 417.5,305C 416.167,304.333 414.833,304.333 413.5,305C 411.503,307.492 410.503,310.325 410.5,313.5C 409.5,313.5 408.5,313.5 407.5,313.5C 407.677,308.811 409.677,305.144 413.5,302.5 Z"/></g>
<g><path style="opacity:1" fill="#131313" d="M 521.5,302.5 C 526.742,301.271 530.575,302.937 533,307.5C 532.836,314.476 532.669,321.476 532.5,328.5C 531.167,328.5 529.833,328.5 528.5,328.5C 528.762,327.022 528.429,325.689 527.5,324.5C 523.953,330.047 519.786,330.714 515,326.5C 514.365,324.365 514.699,322.365 516,320.5C 518.958,316.855 522.625,314.188 527,312.5C 528.297,308.825 527.297,306.158 524,304.5C 520.403,306.361 518.903,309.361 519.5,313.5C 518.5,313.5 517.5,313.5 516.5,313.5C 516.277,308.948 517.944,305.281 521.5,302.5 Z"/></g>
<g><path style="opacity:1" fill="#131313" d="M 578.5,302.5 C 581.187,302.336 583.854,302.503 586.5,303C 587.701,303.903 588.535,305.069 589,306.5C 588.563,313.859 588.729,321.192 589.5,328.5C 586.14,329.21 584.307,327.876 584,324.5C 582.5,326 581,327.5 579.5,329C 571.607,330.023 569.44,326.857 573,319.5C 576.092,316.578 579.592,314.245 583.5,312.5C 584.952,309.718 584.619,307.218 582.5,305C 577.385,305.317 575.385,308.15 576.5,313.5C 575.167,313.5 573.833,313.5 572.5,313.5C 572.844,308.848 574.844,305.182 578.5,302.5 Z"/></g>
<g><path style="opacity:1" fill="#0a0a0a" d="M 213.5,325.5 C 213.663,323.143 213.497,320.81 213,318.5C 212.59,319.901 212.09,321.234 211.5,322.5C 210.604,325.069 208.938,327.069 206.5,328.5C 204.517,327.018 202.684,325.351 201,323.5C 200.333,317.167 200.333,310.833 201,304.5C 202.356,303.62 203.856,303.286 205.5,303.5C 204.669,310.131 204.336,316.798 204.5,323.5C 205.822,323.67 206.989,323.337 208,322.5C 210.798,316.773 212.798,310.773 214,304.5C 215.011,303.663 216.178,303.33 217.5,303.5C 217.831,311.86 217.498,320.193 216.5,328.5C 215.145,327.812 214.145,326.812 213.5,325.5 Z"/></g>
<g><path style="opacity:1" fill="#171717" d="M 254.5,303.5 C 256.833,303.5 259.167,303.5 261.5,303.5C 262.167,306.833 260.833,308.833 257.5,309.5C 256.468,307.96 255.135,307.46 253.5,308C 251.651,309.093 249.984,310.426 248.5,312C 253.322,311.778 257.489,313.278 261,316.5C 262.176,320.26 261.01,323.093 257.5,325C 254.576,326.881 251.409,328.048 248,328.5C 243.744,328.581 242.077,326.581 243,322.5C 246.972,318.331 247.806,318.665 245.5,323.5C 246.365,324.583 247.365,324.749 248.5,324C 260.878,316.627 259.545,313.627 244.5,315C 243.978,314.439 243.645,313.772 243.5,313C 246.118,308.544 249.784,305.377 254.5,303.5 Z"/></g>
<g><path style="opacity:1" fill="#0f0f0f" d="M 288.5,303.5 C 289.473,304.791 290.473,304.791 291.5,303.5C 292.325,307.122 292.825,310.789 293,314.5C 294.181,310.637 296.014,307.137 298.5,304C 301.025,303.104 303.192,303.604 305,305.5C 305.5,312.826 305.666,320.159 305.5,327.5C 303.549,327.773 302.049,327.107 301,325.5C 300.41,320.483 300.577,315.483 301.5,310.5C 301.564,308.611 301.064,306.944 300,305.5C 295.968,311.944 293.302,318.944 292,326.5C 290.644,327.38 289.144,327.714 287.5,327.5C 288.166,319.517 288.499,311.517 288.5,303.5 Z"/></g>
<g><path style="opacity:1" fill="#0a0a0a" d="M 485.5,325.5 C 485.663,323.143 485.497,320.81 485,318.5C 484.59,319.901 484.09,321.234 483.5,322.5C 482.604,325.069 480.938,327.069 478.5,328.5C 476.517,327.018 474.684,325.351 473,323.5C 472.333,317.167 472.333,310.833 473,304.5C 474.356,303.62 475.856,303.286 477.5,303.5C 476.669,310.131 476.336,316.798 476.5,323.5C 477.822,323.67 478.989,323.337 480,322.5C 482.798,316.773 484.798,310.773 486,304.5C 487.011,303.663 488.178,303.33 489.5,303.5C 489.831,311.86 489.498,320.193 488.5,328.5C 487.145,327.812 486.145,326.812 485.5,325.5 Z"/></g>
<g><path style="opacity:1" fill="#141414" d="M 553.5,302.5 C 556.095,307.774 558.262,313.441 560,319.5C 562.921,314.659 565.588,309.659 568,304.5C 569.183,303.269 570.349,303.269 571.5,304.5C 567.412,311.676 563.578,319.009 560,326.5C 558.286,327.925 556.953,327.592 556,325.5C 555.133,320.363 553.799,315.363 552,310.5C 549.667,315.833 547.333,321.167 545,326.5C 544,327.833 543,327.833 542,326.5C 540.317,318.768 538.483,311.101 536.5,303.5C 538.167,303.5 539.833,303.5 541.5,303.5C 542.505,308.522 543.672,313.522 545,318.5C 547.934,313.181 550.767,307.848 553.5,302.5 Z"/></g>
<g><path style="opacity:1" fill="#161616" d="M 696.5,303.5 C 702.302,302.006 706.136,304.006 708,309.5C 708.001,313.85 707.501,318.183 706.5,322.5C 706.753,324.858 707.086,327.192 707.5,329.5C 704.14,330.21 702.307,328.876 702,325.5C 699.543,330.186 695.877,331.519 691,329.5C 688.777,325.612 689.277,322.112 692.5,319C 695.166,316.665 698.166,314.831 701.5,313.5C 702.952,310.718 702.619,308.218 700.5,306C 697.702,305.439 695.869,306.606 695,309.5C 694.506,311.134 694.34,312.801 694.5,314.5C 692.365,314.853 691.032,314.02 690.5,312C 691.927,308.743 693.927,305.91 696.5,303.5 Z"/></g>
<g><path style="opacity:1" fill="#0e0e0e" d="M 747.5,303.5 C 748.833,303.5 750.167,303.5 751.5,303.5C 750.815,311.816 750.482,320.149 750.5,328.5C 749.178,328.67 748.011,328.337 747,327.5C 746.2,319.421 746.367,311.421 747.5,303.5 Z"/></g>
<g><path style="opacity:1" fill="#111111" d="M 876.5,303.5 C 880.954,302.617 884.454,303.95 887,307.5C 886.964,314.819 886.797,322.152 886.5,329.5C 883.612,329.78 882.112,328.447 882,325.5C 878.188,331.003 873.855,331.67 869,327.5C 869.991,320.324 874.158,315.658 881.5,313.5C 882.797,310.812 882.464,308.312 880.5,306C 879.167,305.333 877.833,305.333 876.5,306C 874.503,308.492 873.503,311.325 873.5,314.5C 872.5,314.5 871.5,314.5 870.5,314.5C 870.677,309.811 872.677,306.144 876.5,303.5 Z"/></g>
<g><path style="opacity:1" fill="#151515" d="M 103.5,303.5 C 104.5,303.5 105.5,303.5 106.5,303.5C 106.335,306.518 106.502,309.518 107,312.5C 108.211,309.241 110.044,306.408 112.5,304C 113.944,303.219 115.277,303.386 116.5,304.5C 117.262,308.111 117.762,311.778 118,315.5C 119.265,310.618 121.765,306.618 125.5,303.5C 126.938,303.719 128.271,304.219 129.5,305C 129.529,311.99 129.863,318.99 130.5,326C 129.333,329.167 127.833,329.333 126,326.5C 125.667,320.167 125.333,313.833 125,307.5C 123.171,309.156 121.837,311.156 121,313.5C 119.53,318.243 117.864,322.909 116,327.5C 115,327.167 114,326.833 113,326.5C 113.305,319.85 113.305,313.183 113,306.5C 108.423,312.729 105.923,319.729 105.5,327.5C 104.167,327.5 102.833,327.5 101.5,327.5C 101.062,319.35 101.729,311.35 103.5,303.5 Z"/></g>
<g><path style="opacity:1" fill="#151515" d="M 375.5,303.5 C 376.5,303.5 377.5,303.5 378.5,303.5C 378.335,306.518 378.502,309.518 379,312.5C 380.211,309.241 382.044,306.408 384.5,304C 385.944,303.219 387.277,303.386 388.5,304.5C 389.262,308.111 389.762,311.778 390,315.5C 391.265,310.618 393.765,306.618 397.5,303.5C 398.938,303.719 400.271,304.219 401.5,305C 401.529,311.99 401.863,318.99 402.5,326C 401.333,329.167 399.833,329.333 398,326.5C 397.667,320.167 397.333,313.833 397,307.5C 395.171,309.156 393.837,311.156 393,313.5C 391.53,318.243 389.864,322.909 388,327.5C 387,327.167 386,326.833 385,326.5C 385.305,319.85 385.305,313.183 385,306.5C 380.423,312.729 377.923,319.729 377.5,327.5C 376.167,327.5 374.833,327.5 373.5,327.5C 373.062,319.35 373.729,311.35 375.5,303.5 Z"/></g>
<g><path style="opacity:1" fill="#0a0a0a" d="M 778.5,304.5 C 784.833,304.5 791.167,304.5 797.5,304.5C 797.719,305.675 797.386,306.675 796.5,307.5C 790.982,312.184 785.982,317.351 781.5,323C 786.489,323.499 791.489,323.666 796.5,323.5C 796.52,325.143 795.853,326.476 794.5,327.5C 788.144,328.204 781.81,328.87 775.5,329.5C 774.386,328.277 774.219,326.944 775,325.5C 780.5,320 786,314.5 791.5,309C 787.179,308.501 782.846,308.334 778.5,308.5C 778.5,307.167 778.5,305.833 778.5,304.5 Z"/></g>
<g><path style="opacity:1" fill="#141414" d="M 827.5,304.5 C 829.25,307.355 830.083,310.689 830,314.5C 830.973,311.221 832.473,308.221 834.5,305.5C 840.489,303.31 843.155,305.477 842.5,312C 841.752,317.477 841.419,322.977 841.5,328.5C 840.178,328.67 839.011,328.337 838,327.5C 837.831,320.809 837.331,314.142 836.5,307.5C 832.279,313.817 829.613,320.817 828.5,328.5C 826.833,328.5 825.167,328.5 823.5,328.5C 823.833,324.5 824.167,320.5 824.5,316.5C 824.977,312.38 825.977,308.38 827.5,304.5 Z"/></g>
<g><path style="opacity:1" fill="#141414" d="M 850.5,304.5 C 852.25,307.355 853.083,310.689 853,314.5C 853.973,311.221 855.473,308.221 857.5,305.5C 863.489,303.31 866.155,305.477 865.5,312C 864.752,317.477 864.419,322.977 864.5,328.5C 863.178,328.67 862.011,328.337 861,327.5C 860.831,320.809 860.331,314.142 859.5,307.5C 855.279,313.817 852.613,320.817 851.5,328.5C 849.833,328.5 848.167,328.5 846.5,328.5C 846.833,324.5 847.167,320.5 847.5,316.5C 847.977,312.38 848.977,308.38 850.5,304.5 Z"/></g>
<g><path style="opacity:1" fill="#151515" d="M 714.5,304.5 C 715.5,304.5 716.5,304.5 717.5,304.5C 717.335,307.518 717.502,310.518 718,313.5C 719.211,310.241 721.044,307.408 723.5,305C 724.944,304.219 726.277,304.386 727.5,305.5C 728.262,309.111 728.762,312.778 729,316.5C 730.265,311.618 732.765,307.618 736.5,304.5C 737.938,304.719 739.271,305.219 740.5,306C 740.529,312.99 740.863,319.99 741.5,327C 740.333,330.167 738.833,330.333 737,327.5C 736.667,321.167 736.333,314.833 736,308.5C 734.171,310.156 732.837,312.156 732,314.5C 730.53,319.243 728.864,323.909 727,328.5C 726,328.167 725,327.833 724,327.5C 724.305,320.85 724.305,314.183 724,307.5C 719.423,313.729 716.923,320.729 716.5,328.5C 715.167,328.5 713.833,328.5 712.5,328.5C 712.062,320.35 712.729,312.35 714.5,304.5 Z"/></g>
<g><path style="opacity:1" fill="#111111" d="M 806.5,305.5 C 809.518,305.335 812.518,305.502 815.5,306C 817.049,307.214 818.215,308.714 819,310.5C 822.18,320.825 818.68,327.158 808.5,329.5C 802.22,328.551 799.22,324.884 799.5,318.5C 799.504,312.819 801.838,308.486 806.5,305.5 Z"/></g>
<g><path style="opacity:1" fill="#909090" d="M 827.5,304.5 C 825.977,308.38 824.977,312.38 824.5,316.5C 824.5,312.5 824.5,308.5 824.5,304.5C 825.5,304.5 826.5,304.5 827.5,304.5 Z"/></g>
<g><path style="opacity:1" fill="#909090" d="M 850.5,304.5 C 848.977,308.38 847.977,312.38 847.5,316.5C 847.5,312.5 847.5,308.5 847.5,304.5C 848.5,304.5 849.5,304.5 850.5,304.5 Z"/></g>
<g><path style="opacity:1" fill="#f4f4f4" d="M 808.5,308.5 C 813.892,308.898 816.225,311.898 815.5,317.5C 816.03,322.451 814.03,325.785 809.5,327.5C 805.536,325.916 803.87,322.916 804.5,318.5C 804.19,314.461 805.523,311.127 808.5,308.5 Z"/></g>
<g><path style="opacity:1" fill="#ebebeb" d="M 146.5,315.5 C 147.124,315.917 147.457,316.584 147.5,317.5C 145.784,322.549 142.451,325.883 137.5,327.5C 137.372,325.345 137.872,323.345 139,321.5C 141.478,319.361 143.978,317.361 146.5,315.5 Z"/></g>
<g><path style="opacity:1" fill="#ececec" d="M 275.5,316.5 C 277.344,317.204 277.844,318.537 277,320.5C 275.078,324.597 271.912,326.93 267.5,327.5C 268.574,322.748 271.24,319.081 275.5,316.5 Z"/></g>
<g><path style="opacity:1" fill="#ebebeb" d="M 418.5,315.5 C 419.124,315.917 419.457,316.584 419.5,317.5C 417.784,322.549 414.451,325.883 409.5,327.5C 409.372,325.345 409.872,323.345 411,321.5C 413.478,319.361 415.978,317.361 418.5,315.5 Z"/></g>
<g><path style="opacity:1" fill="#e4e4e4" d="M 526.5,315.5 C 528.344,316.204 528.844,317.537 528,319.5C 526.285,321.759 524.452,323.926 522.5,326C 518,328.167 516.833,327 519,322.5C 521.396,319.933 523.896,317.6 526.5,315.5 Z"/></g>
<g><path style="opacity:1" fill="#ededed" d="M 581.5,316.5 C 582.5,316.5 583.5,316.5 584.5,316.5C 583.239,322.093 579.906,325.759 574.5,327.5C 575.066,322.699 577.4,319.032 581.5,316.5 Z"/></g>
<g><path style="opacity:1" fill="#ececec" d="M 700.5,317.5 C 702.344,318.204 702.844,319.537 702,321.5C 700.078,325.597 696.912,327.93 692.5,328.5C 693.574,323.748 696.24,320.081 700.5,317.5 Z"/></g>
<g><path style="opacity:1" fill="#ebebeb" d="M 881.5,316.5 C 882.124,316.917 882.457,317.584 882.5,318.5C 880.784,323.549 877.451,326.883 872.5,328.5C 872.372,326.345 872.872,324.345 874,322.5C 876.478,320.361 878.978,318.361 881.5,316.5 Z"/></g>
<g><path style="opacity:1" fill="#9a9a9a" d="M 213.5,325.5 C 212.833,324.5 212.167,323.5 211.5,322.5C 212.09,321.234 212.59,319.901 213,318.5C 213.497,320.81 213.663,323.143 213.5,325.5 Z"/></g>
<g><path style="opacity:1" fill="#9a9a9a" d="M 485.5,325.5 C 484.833,324.5 484.167,323.5 483.5,322.5C 484.09,321.234 484.59,319.901 485,318.5C 485.497,320.81 485.663,323.143 485.5,325.5 Z"/></g>
</svg>
