<?xml version="1.0" encoding="UTF-8"?>
<!DOCTYPE svg PUBLIC "-//W3C//DTD SVG 1.1//EN" "http://www.w3.org/Graphics/SVG/1.1/DTD/svg11.dtd">
<svg xmlns="http://www.w3.org/2000/svg" version="1.1" width="3000px" height="2000px" style="shape-rendering:geometricPrecision; text-rendering:geometricPrecision; image-rendering:optimizeQuality; fill-rule:evenodd; clip-rule:evenodd" xmlns:xlink="http://www.w3.org/1999/xlink">
<g><path style="opacity:1" fill="#184266" d="M -0.5,-0.5 C 150.833,-0.5 302.167,-0.5 453.5,-0.5C 474.856,83.9402 453.523,155.44 389.5,214C 366.914,233.293 342.914,250.626 317.5,266C 271.967,291.256 228.3,319.256 186.5,350C 114.71,405.952 52.3771,470.785 -0.5,544.5C -0.5,362.833 -0.5,181.167 -0.5,-0.5 Z"/></g>
<g><path style="opacity:1" fill="#fefefe" d="M 453.5,-0.5 C 469.833,-0.5 486.167,-0.5 502.5,-0.5C 498.336,92.4891 470.836,177.822 420,255.5C 401.637,278.55 385.637,303.217 372,329.5C 352.703,376.594 361.537,417.427 398.5,452C 420.873,470.186 446.207,482.519 474.5,489C 509.753,497.374 545.42,499.707 581.5,496C 662.894,483.932 718.061,439.432 747,362.5C 763.119,315.399 770.952,266.899 770.5,217C 770.709,140.824 754.709,68.324 722.5,-0.5C 1108.83,-0.5 1495.17,-0.5 1881.5,-0.5C 1875.73,14.3839 1867.89,28.0506 1858,40.5C 1839.74,62.0977 1820.74,83.0977 1801,103.5C 1782.64,123.53 1768.31,146.197 1758,171.5C 1748.77,197.138 1749.44,222.472 1760,247.5C 1772.58,269.226 1791.08,283.393 1815.5,290C 1839.88,295.302 1864.54,296.968 1889.5,295C 1908.61,292.759 1927.61,289.759 1946.5,286C 2059.09,261.748 2171.76,237.748 2284.5,214C 2305.8,209.671 2327.3,207.171 2349,206.5C 2380.79,204.756 2409.63,212.922 2435.5,231C 2457.02,249.525 2469.52,273.025 2473,301.5C 2475.36,325.974 2473.02,349.974 2466,373.5C 2458.38,401.064 2446.72,426.731 2431,450.5C 2413.25,477.007 2395.25,503.34 2377,529.5C 2357.9,557.699 2344.24,588.365 2336,621.5C 2327.13,687.249 2348.3,741.082 2399.5,783C 2444.07,818.154 2493.74,827.821 2548.5,812C 2559.6,808.285 2570.6,804.285 2581.5,800C 2613.96,783.938 2646.29,767.604 2678.5,751C 2760.15,710.999 2835.82,719.999 2905.5,778C 2941.24,809.3 2967.74,847.133 2985,891.5C 2990.38,906.129 2995.21,920.796 2999.5,935.5C 2999.5,1014.5 2999.5,1093.5 2999.5,1172.5C 2991.11,1179.89 2983.61,1188.22 2977,1197.5C 2956.76,1227.98 2940.76,1260.65 2929,1295.5C 2913.78,1341.17 2899.78,1387.17 2887,1433.5C 2830.38,1613.03 2734.21,1767.2 2598.5,1896C 2585.46,1908.04 2572.13,1919.71 2558.5,1931C 2528.46,1954.34 2498.12,1977.17 2467.5,1999.5C 2430.17,1999.5 2392.83,1999.5 2355.5,1999.5C 2368.63,1978.24 2378.79,1955.57 2386,1931.5C 2397.06,1871.98 2376.22,1827.48 2323.5,1798C 2300.21,1785.68 2275.55,1777.68 2249.5,1774C 2211.43,1769.06 2173.43,1769.39 2135.5,1775C 2043.51,1794.66 1983.67,1849.49 1956,1939.5C 1950.48,1959.22 1946.31,1979.22 1943.5,1999.5C 1873.83,1999.5 1804.17,1999.5 1734.5,1999.5C 1750.49,1974.85 1763.33,1948.51 1773,1920.5C 1780.47,1897.99 1782.47,1874.99 1779,1851.5C 1767.12,1806.63 1737.95,1782.47 1691.5,1779C 1676.76,1778.05 1662.09,1778.72 1647.5,1781C 1623.98,1785.77 1600.98,1792.44 1578.5,1801C 1455.35,1854.74 1332.35,1908.74 1209.5,1963C 1184.31,1974.06 1158.31,1982.73 1131.5,1989C 1093.6,1998.46 1058.27,1992.79 1025.5,1972C 999.55,1950.96 983.717,1923.79 978,1890.5C 971.264,1850.2 973.931,1810.53 986,1771.5C 990.94,1756.68 996.273,1742.01 1002,1727.5C 1014.92,1697.74 1027.25,1667.74 1039,1637.5C 1053.71,1599.84 1060.05,1560.84 1058,1520.5C 1049.53,1468.03 1023.7,1426.53 980.5,1396C 930.783,1361.42 876.783,1352.42 818.5,1369C 790.235,1380.31 764.235,1395.31 740.5,1414C 711.456,1438.05 682.123,1461.71 652.5,1485C 572.01,1541.15 489.343,1544.15 404.5,1494C 354.316,1463.48 315.482,1422.32 288,1370.5C 259.92,1315.26 239.586,1257.26 227,1196.5C 218.649,1153.1 209.982,1109.76 201,1066.5C 192.558,1028.84 179.558,992.838 162,958.5C 145.83,928.169 123.33,903.835 94.5,885.5C 153.237,833.116 220.904,796.282 297.5,775C 329.702,767.911 362.036,761.578 394.5,756C 417.824,750.258 438.324,739.424 456,723.5C 478.144,697.948 486.811,668.281 482,634.5C 478.447,612.176 471.114,591.176 460,571.5C 438.592,535.084 411.092,503.917 377.5,478C 311.668,434.12 242.668,428.787 170.5,462C 144.818,474.497 120.818,489.497 98.5,507C 61.114,537.547 28.114,572.047 -0.5,610.5C -0.5,588.5 -0.5,566.5 -0.5,544.5C 52.3771,470.785 114.71,405.952 186.5,350C 228.3,319.256 271.967,291.256 317.5,266C 342.914,250.626 366.914,233.293 389.5,214C 453.523,155.44 474.856,83.9402 453.5,-0.5 Z"/></g>
<g><path style="opacity:1" fill="#184266" d="M 502.5,-0.5 C 575.833,-0.5 649.167,-0.5 722.5,-0.5C 754.709,68.324 770.709,140.824 770.5,217C 770.952,266.899 763.119,315.399 747,362.5C 718.061,439.432 662.894,483.932 581.5,496C 545.42,499.707 509.753,497.374 474.5,489C 446.207,482.519 420.873,470.186 398.5,452C 361.537,417.427 352.703,376.594 372,329.5C 385.637,303.217 401.637,278.55 420,255.5C 470.836,177.822 498.336,92.4891 502.5,-0.5 Z"/></g>
<g><path style="opacity:1" fill="#ffb34f" d="M 1881.5,-0.5 C 2251.5,-0.5 2621.5,-0.5 2991.5,-0.5C 2994.14,1.80437 2996.81,4.13771 2999.5,6.5C 2999.5,316.167 2999.5,625.833 2999.5,935.5C 2995.21,920.796 2990.38,906.129 2985,891.5C 2967.74,847.133 2941.24,809.3 2905.5,778C 2835.82,719.999 2760.15,710.999 2678.5,751C 2646.29,767.604 2613.96,783.938 2581.5,800C 2570.6,804.285 2559.6,808.285 2548.5,812C 2493.74,827.821 2444.07,818.154 2399.5,783C 2348.3,741.082 2327.13,687.249 2336,621.5C 2344.24,588.365 2357.9,557.699 2377,529.5C 2395.25,503.34 2413.25,477.007 2431,450.5C 2446.72,426.731 2458.38,401.064 2466,373.5C 2473.02,349.974 2475.36,325.974 2473,301.5C 2469.52,273.025 2457.02,249.525 2435.5,231C 2409.63,212.922 2380.79,204.756 2349,206.5C 2327.3,207.171 2305.8,209.671 2284.5,214C 2171.76,237.748 2059.09,261.748 1946.5,286C 1927.61,289.759 1908.61,292.759 1889.5,295C 1864.54,296.968 1839.88,295.302 1815.5,290C 1791.08,283.393 1772.58,269.226 1760,247.5C 1749.44,222.472 1748.77,197.138 1758,171.5C 1768.31,146.197 1782.64,123.53 1801,103.5C 1820.74,83.0977 1839.74,62.0977 1858,40.5C 1867.89,28.0506 1875.73,14.3839 1881.5,-0.5 Z"/></g>
<g><path style="opacity:1" fill="#fffbf7" d="M 2991.5,-0.5 C 2994.17,-0.5 2996.83,-0.5 2999.5,-0.5C 2999.5,1.83333 2999.5,4.16667 2999.5,6.5C 2996.81,4.13771 2994.14,1.80437 2991.5,-0.5 Z"/></g>
<g><path style="opacity:1" fill="#184266" d="M 94.5,885.5 C 64.8695,869.641 33.2028,863.308 -0.5,866.5C -0.5,781.167 -0.5,695.833 -0.5,610.5C 28.114,572.047 61.114,537.547 98.5,507C 120.818,489.497 144.818,474.497 170.5,462C 242.668,428.787 311.668,434.12 377.5,478C 411.092,503.917 438.592,535.084 460,571.5C 471.114,591.176 478.447,612.176 482,634.5C 486.811,668.281 478.144,697.948 456,723.5C 438.324,739.424 417.824,750.258 394.5,756C 362.036,761.578 329.702,767.911 297.5,775C 220.904,796.282 153.237,833.116 94.5,885.5 Z"/></g>
<g><path style="opacity:1" fill="#363636" d="M 1304.5,778.5 C 1305.5,778.5 1306.5,778.5 1307.5,778.5C 1307.74,790.079 1302.4,797.579 1291.5,801C 1271.82,803.594 1252.16,806.26 1232.5,809C 1227.61,809.798 1222.94,811.298 1218.5,813.5C 1217.36,811.579 1217.19,809.579 1218,807.5C 1219.57,799.498 1224.07,793.998 1231.5,791C 1250.11,788.007 1268.77,785.341 1287.5,783C 1293.52,782.342 1299.18,780.842 1304.5,778.5 Z"/></g>
<g><path style="opacity:1" fill="#353535" d="M 1243.5,840.5 C 1251.87,840.377 1260.2,840.877 1268.5,842C 1277.18,845.362 1280.85,851.695 1279.5,861C 1268.49,928.754 1256.82,996.42 1244.5,1064C 1246,1073.81 1251,1081.15 1259.5,1086C 1289.09,1101.19 1320.59,1108.35 1354,1107.5C 1375.2,1108.04 1395.7,1104.54 1415.5,1097C 1423.83,1093.99 1430.33,1088.83 1435,1081.5C 1436.51,1075.72 1435.01,1070.88 1430.5,1067C 1426.99,1064.75 1423.33,1062.75 1419.5,1061C 1393.41,1053.98 1367.41,1046.64 1341.5,1039C 1327.05,1034.44 1313.72,1027.78 1301.5,1019C 1292.4,1010.81 1286.07,1000.81 1282.5,989C 1277.19,975.266 1274.36,961.099 1274,946.5C 1277.04,939.887 1282.21,936.054 1289.5,935C 1320.81,931.736 1352.14,928.736 1383.5,926C 1389.95,924.804 1396.28,923.137 1402.5,921C 1409.25,914.44 1408.92,908.107 1401.5,902C 1393.9,899.864 1393.57,896.864 1400.5,893C 1415.45,891.558 1426.61,897.391 1434,910.5C 1441.29,924.181 1441.29,937.848 1434,951.5C 1427.66,959.253 1419.5,963.753 1409.5,965C 1371.86,968.864 1334.19,972.531 1296.5,976C 1296.04,976.414 1295.71,976.914 1295.5,977.5C 1297.56,983.774 1301.22,988.941 1306.5,993C 1312.85,997.174 1319.51,1000.84 1326.5,1004C 1354.02,1012.8 1381.68,1021.13 1409.5,1029C 1425.53,1032.91 1438.36,1041.41 1448,1054.5C 1452.04,1061.28 1454.04,1068.61 1454,1076.5C 1461.03,1086.18 1470.53,1090.02 1482.5,1088C 1486.96,1086.02 1490.79,1083.19 1494,1079.5C 1497.24,1073.86 1499.58,1067.86 1501,1061.5C 1512.48,995.135 1524.15,928.802 1536,862.5C 1536.61,855.811 1536.44,849.144 1535.5,842.5C 1546.56,839.696 1557.56,839.863 1568.5,843C 1575.56,846.6 1578.89,852.434 1578.5,860.5C 1567.29,925.129 1556.12,989.795 1545,1054.5C 1542.01,1068.82 1536.67,1082.16 1529,1094.5C 1510.73,1117.36 1488.23,1122.86 1461.5,1111C 1456.33,1107.17 1451.83,1102.67 1448,1097.5C 1443.55,1104.95 1437.71,1111.12 1430.5,1116C 1412.12,1127.27 1392.12,1133.6 1370.5,1135C 1334.13,1138.49 1299.46,1132.49 1266.5,1117C 1252.85,1110.69 1243.35,1100.52 1238,1086.5C 1230.04,1111.26 1216.88,1132.76 1198.5,1151C 1173.32,1170.65 1145.32,1175.99 1114.5,1167C 1111.64,1163.32 1110.81,1159.15 1112,1154.5C 1112.83,1153 1114,1151.83 1115.5,1151C 1147.83,1156.25 1172.67,1145.08 1190,1117.5C 1198.46,1101.44 1204.13,1084.44 1207,1066.5C 1217.74,995.586 1227.91,924.586 1237.5,853.5C 1237.48,850.248 1237.15,847.081 1236.5,844C 1238.71,842.384 1241.05,841.217 1243.5,840.5 Z"/></g>
<g><path style="opacity:1" fill="#353535" d="M 1620.5,840.5 C 1630.42,839.817 1640.09,840.984 1649.5,844C 1654.95,848.344 1657.28,854.011 1656.5,861C 1646.12,928.892 1635.28,996.726 1624,1064.5C 1620.91,1079.9 1615.24,1094.24 1607,1107.5C 1594.15,1123.84 1577.32,1131.34 1556.5,1130C 1553.91,1128.47 1553.08,1126.31 1554,1123.5C 1559.07,1121.58 1563.74,1118.92 1568,1115.5C 1571.62,1110.32 1574.29,1104.65 1576,1098.5C 1588.56,1020.15 1601.23,941.816 1614,863.5C 1614.79,857.115 1614.63,850.782 1613.5,844.5C 1615.48,842.436 1617.82,841.103 1620.5,840.5 Z"/></g>
<g><path style="opacity:1" fill="#353535" d="M 2024.5,840.5 C 2034.78,839.63 2044.78,840.796 2054.5,844C 2059.52,847.731 2061.86,852.731 2061.5,859C 2050.88,925.651 2039.38,992.151 2027,1058.5C 2027.27,1079.77 2038.11,1089.6 2059.5,1088C 2070.19,1082.48 2076.36,1073.65 2078,1061.5C 2082.57,1033.42 2087.57,1005.42 2093,977.5C 2093.81,969.587 2093.65,961.754 2092.5,954C 2094.49,952.249 2096.82,951.249 2099.5,951C 2110.24,949.57 2120.57,950.903 2130.5,955C 2132.12,957.08 2133.62,959.246 2135,961.5C 2135.36,975.638 2134.03,989.638 2131,1003.5C 2128,1020.5 2125,1037.5 2122,1054.5C 2119.19,1066.25 2115.19,1077.58 2110,1088.5C 2093.03,1114.93 2069.87,1122.77 2040.5,1112C 2029.84,1105.18 2022.67,1095.68 2019,1083.5C 2006.26,1108.32 1986.26,1118.99 1959,1115.5C 1958.33,1113.83 1958.33,1112.17 1959,1110.5C 1965.59,1108.55 1970.93,1104.88 1975,1099.5C 1978.12,1093.46 1980.46,1087.13 1982,1080.5C 1993.38,1008.31 2005.72,936.311 2019,864.5C 2019.68,857.139 2019.52,849.805 2018.5,842.5C 2020.9,842.741 2022.9,842.074 2024.5,840.5 Z"/></g>
<g><path style="opacity:1" fill="#ffb34f" d="M -0.5,866.5 C 33.2028,863.308 64.8695,869.641 94.5,885.5C 123.33,903.835 145.83,928.169 162,958.5C 179.558,992.838 192.558,1028.84 201,1066.5C 209.982,1109.76 218.649,1153.1 227,1196.5C 239.586,1257.26 259.92,1315.26 288,1370.5C 315.482,1422.32 354.316,1463.48 404.5,1494C 489.343,1544.15 572.01,1541.15 652.5,1485C 682.123,1461.71 711.456,1438.05 740.5,1414C 764.235,1395.31 790.235,1380.31 818.5,1369C 876.783,1352.42 930.783,1361.42 980.5,1396C 1023.7,1426.53 1049.53,1468.03 1058,1520.5C 1060.05,1560.84 1053.71,1599.84 1039,1637.5C 1027.25,1667.74 1014.92,1697.74 1002,1727.5C 996.273,1742.01 990.94,1756.68 986,1771.5C 973.931,1810.53 971.264,1850.2 978,1890.5C 983.717,1923.79 999.55,1950.96 1025.5,1972C 1058.27,1992.79 1093.6,1998.46 1131.5,1989C 1158.31,1982.73 1184.31,1974.06 1209.5,1963C 1332.35,1908.74 1455.35,1854.74 1578.5,1801C 1600.98,1792.44 1623.98,1785.77 1647.5,1781C 1662.09,1778.72 1676.76,1778.05 1691.5,1779C 1737.95,1782.47 1767.12,1806.63 1779,1851.5C 1782.47,1874.99 1780.47,1897.99 1773,1920.5C 1763.33,1948.51 1750.49,1974.85 1734.5,1999.5C 1156.17,1999.5 577.833,1999.5 -0.5,1999.5C -0.5,1621.83 -0.5,1244.17 -0.5,866.5 Z"/></g>
<g><path style="opacity:1" fill="#363636" d="M 1882.5,872.5 C 1895.28,870.977 1905.44,875.311 1913,885.5C 1916.19,892.456 1916.19,899.456 1913,906.5C 1897.03,934.735 1872.86,947.568 1840.5,945C 1834.22,944.025 1828.72,941.525 1824,937.5C 1823.06,934.653 1823.56,932.153 1825.5,930C 1840.2,934.163 1854.54,932.996 1868.5,926.5C 1855.98,920.781 1851.48,911.114 1855,897.5C 1860.89,885.438 1870.06,877.105 1882.5,872.5 Z"/></g>
<g><path style="opacity:1" fill="#343434" d="M 1153.5,884.5 C 1161.17,884.334 1168.84,884.5 1176.5,885C 1186.5,887.325 1191.17,893.658 1190.5,904C 1180.71,963.228 1170.54,1022.39 1160,1081.5C 1157.42,1094.87 1160.59,1106.53 1169.5,1116.5C 1160.3,1119.61 1150.96,1120.11 1141.5,1118C 1134.14,1115.3 1129.64,1110.14 1128,1102.5C 1127.04,1098.22 1126.54,1093.89 1126.5,1089.5C 1132.12,1036.1 1138.29,982.771 1145,929.5C 1146.75,915.22 1147.75,900.887 1148,886.5C 1149.95,885.891 1151.78,885.224 1153.5,884.5 Z"/></g>
<g><path style="opacity:1" fill="#363636" d="M 1363.5,885.5 C 1365.53,893.988 1362.53,900.821 1354.5,906C 1333.66,910.306 1312.66,913.639 1291.5,916C 1286.26,916.727 1281.26,918.227 1276.5,920.5C 1275.24,910.853 1278.91,903.687 1287.5,899C 1308.98,894.772 1330.65,891.438 1352.5,889C 1356.44,888.342 1360.11,887.175 1363.5,885.5 Z"/></g>
<g><path style="opacity:1" fill="#fafafa" d="M 1886.5,886.5 C 1891.9,885.785 1896.4,887.452 1900,891.5C 1900.67,893.5 1900.67,895.5 1900,897.5C 1895.93,904.24 1891.1,910.407 1885.5,916C 1874.16,918.66 1868.99,914.16 1870,902.5C 1874.73,896.264 1880.23,890.931 1886.5,886.5 Z"/></g>
<g><path style="opacity:1" fill="#363636" d="M 2161.5,894.5 C 2163.28,904.264 2159.61,911.43 2150.5,916C 2144.23,917.61 2137.89,918.944 2131.5,920C 2117.83,921.667 2104.17,923.333 2090.5,925C 2084.92,925.681 2079.59,927.181 2074.5,929.5C 2072.8,920.063 2076.13,912.896 2084.5,908C 2104.76,904.541 2125.09,901.541 2145.5,899C 2151.19,898.305 2156.53,896.805 2161.5,894.5 Z"/></g>
<g><path style="opacity:1" fill="#353535" d="M 1930.5,949.5 C 1938.94,948.801 1945.77,951.801 1951,958.5C 1961.32,976.122 1964.99,995.122 1962,1015.5C 1948.58,1084.91 1906.75,1124.08 1836.5,1133C 1804.44,1137.59 1775.1,1130.93 1748.5,1113C 1724.09,1091.46 1713.59,1064.29 1717,1031.5C 1720.39,996.486 1737.56,970.986 1768.5,955C 1783.53,949.061 1798.53,949.061 1813.5,955C 1825.14,963.235 1829.3,974.402 1826,988.5C 1824.05,997.595 1819.22,1004.59 1811.5,1009.5C 1805.92,997.768 1796.58,991.268 1783.5,990C 1751.31,988.19 1735.48,1003.36 1736,1035.5C 1740.21,1051.42 1749.37,1063.59 1763.5,1072C 1788,1084.64 1814,1089.31 1841.5,1086C 1875.35,1083 1902.51,1068.17 1923,1041.5C 1936.53,1019.52 1941.2,995.856 1937,970.5C 1934.98,964.281 1931.81,958.781 1927.5,954C 1928.31,952.357 1929.31,950.857 1930.5,949.5 Z"/></g>
<g><path style="opacity:1" fill="#353535" d="M 1080.5,957.5 C 1086.73,956.939 1092.73,957.772 1098.5,960C 1096.79,963.988 1095.63,968.154 1095,972.5C 1091.46,997.588 1087.46,1022.59 1083,1047.5C 1079.03,1065.43 1072.69,1082.43 1064,1098.5C 1045.6,1126.31 1019.77,1138.14 986.5,1134C 967.134,1128.8 954.467,1116.63 948.5,1097.5C 946.813,1096.43 945.146,1096.6 943.5,1098C 930.544,1105.95 921.71,1117.12 917,1131.5C 915.599,1141.48 916.599,1151.14 920,1160.5C 925.65,1168.24 933.15,1170.57 942.5,1167.5C 942.992,1178.01 938.326,1185.18 928.5,1189C 899.28,1196.1 881.78,1184.94 876,1155.5C 873.711,1125.58 885.545,1103.08 911.5,1088C 921.6,1082.12 932.267,1077.62 943.5,1074.5C 941.747,1045.84 948.58,1019.51 964,995.5C 978.295,976.935 997.128,966.602 1020.5,964.5C 1032.64,964.766 1043.31,968.766 1052.5,976.5C 1056.33,969.168 1062,963.668 1069.5,960C 1073.31,959.205 1076.98,958.371 1080.5,957.5 Z"/></g>
<g><path style="opacity:1" fill="#fdfdfd" d="M 1023.5,986.5 C 1035.18,985.09 1044.01,989.424 1050,999.5C 1049.34,1024.48 1045,1048.81 1037,1072.5C 1033.44,1083.8 1027.28,1093.3 1018.5,1101C 1010,1106.24 1002.17,1105.41 995,1098.5C 988.071,1087.54 985.237,1075.54 986.5,1062.5C 986.135,1042.96 990.635,1024.63 1000,1007.5C 1005.84,998.155 1013.67,991.155 1023.5,986.5 Z"/></g>
<g><path style="opacity:1" fill="#353535" d="M 2057.5,1137.5 C 2074.99,1136.16 2083.49,1144.16 2083,1161.5C 2078.32,1177.27 2067.82,1183.43 2051.5,1180C 2041.33,1174.48 2037.49,1165.98 2040,1154.5C 2043.12,1145.88 2048.95,1140.21 2057.5,1137.5 Z"/></g>
<g><path style="opacity:1" fill="#353535" d="M 1821.5,1152.5 C 1841.98,1152.42 1849.81,1162.42 1845,1182.5C 1838.98,1193.26 1829.82,1197.76 1817.5,1196C 1805.23,1190.89 1800.73,1181.72 1804,1168.5C 1807.54,1160.46 1813.37,1155.12 1821.5,1152.5 Z"/></g>
<g><path style="opacity:1" fill="#363636" d="M 1038.5,1158.5 C 1040.93,1167.84 1037.59,1175.01 1028.5,1180C 1022.62,1181.84 1016.62,1183.18 1010.5,1184C 994.426,1185.51 978.426,1187.51 962.5,1190C 958.441,1191.08 954.441,1192.24 950.5,1193.5C 950.615,1182.78 955.615,1175.28 965.5,1171C 986.827,1168 1008.16,1165 1029.5,1162C 1032.79,1161.28 1035.79,1160.11 1038.5,1158.5 Z"/></g>
<g><path style="opacity:1" fill="#184266" d="M 2999.5,1172.5 C 2999.5,1448.17 2999.5,1723.83 2999.5,1999.5C 2822.17,1999.5 2644.83,1999.5 2467.5,1999.5C 2498.12,1977.17 2528.46,1954.34 2558.5,1931C 2572.13,1919.71 2585.46,1908.04 2598.5,1896C 2734.21,1767.2 2830.38,1613.03 2887,1433.5C 2899.78,1387.17 2913.78,1341.17 2929,1295.5C 2940.76,1260.65 2956.76,1227.98 2977,1197.5C 2983.61,1188.22 2991.11,1179.89 2999.5,1172.5 Z"/></g>
<g><path style="opacity:1" fill="#184266" d="M 2769.5,1185.5 C 2796.57,1182.95 2817.07,1193.29 2831,1216.5C 2842.48,1238.08 2849.15,1261.08 2851,1285.5C 2859.31,1404.32 2830.31,1512.99 2764,1611.5C 2730.24,1662.27 2689.74,1707.1 2642.5,1746C 2611.35,1770.58 2576.68,1788.91 2538.5,1801C 2472.31,1819.58 2410.64,1809.91 2353.5,1772C 2314.64,1744.47 2281.8,1710.97 2255,1671.5C 2233.12,1637.32 2223.79,1599.99 2227,1559.5C 2232.26,1531.13 2246.1,1507.96 2268.5,1490C 2285.93,1477.59 2304.93,1468.26 2325.5,1462C 2367.27,1452.31 2408.27,1439.97 2448.5,1425C 2524.59,1392.57 2591.09,1346.4 2648,1286.5C 2662.33,1270.17 2676.67,1253.83 2691,1237.5C 2706.72,1220.25 2724.56,1205.75 2744.5,1194C 2752.58,1190.03 2760.91,1187.2 2769.5,1185.5 Z"/></g>
<g><path style="opacity:1" fill="#184266" d="M 2355.5,1999.5 C 2218.17,1999.5 2080.83,1999.5 1943.5,1999.5C 1946.31,1979.22 1950.48,1959.22 1956,1939.5C 1983.67,1849.49 2043.51,1794.66 2135.5,1775C 2173.43,1769.39 2211.43,1769.06 2249.5,1774C 2275.55,1777.68 2300.21,1785.68 2323.5,1798C 2376.22,1827.48 2397.06,1871.98 2386,1931.5C 2378.79,1955.57 2368.63,1978.24 2355.5,1999.5 Z"/></g>
</svg>
