<?xml version="1.0" encoding="UTF-8"?>
<!DOCTYPE svg PUBLIC "-//W3C//DTD SVG 1.1//EN" "http://www.w3.org/Graphics/SVG/1.1/DTD/svg11.dtd">
<svg xmlns="http://www.w3.org/2000/svg" version="1.1" width="3000px" height="2000px" style="shape-rendering:geometricPrecision; text-rendering:geometricPrecision; image-rendering:optimizeQuality; fill-rule:evenodd; clip-rule:evenodd" xmlns:xlink="http://www.w3.org/1999/xlink">
<g><path style="opacity:1" fill="#feb24f" d="M -0.5,-0.5 C 176.5,-0.5 353.5,-0.5 530.5,-0.5C 552.036,45.9347 570.536,93.6014 586,142.5C 596.849,178.077 603.849,214.41 607,251.5C 613.748,343.018 581.248,416.852 509.5,473C 481.933,493.457 451.933,509.79 419.5,522C 364.699,541.562 308.365,554.896 250.5,562C 188.779,570.503 126.779,573.836 64.5,572C 54.4025,571.213 44.4025,570.046 34.5,568.5C 22.5,557.167 10.8333,545.5 -0.5,533.5C -0.5,355.5 -0.5,177.5 -0.5,-0.5 Z"/></g>
<g><path style="opacity:1" fill="#1d4365" d="M 530.5,-0.5 C 535.167,-0.5 539.833,-0.5 544.5,-0.5C 578.724,63.3361 603.558,130.669 619,201.5C 647.308,358.408 588.808,468.575 443.5,532C 404.726,547.823 364.726,559.489 323.5,567C 234.161,583.739 144.161,589.239 53.5,583.5C 35.4041,581.484 17.4041,578.817 -0.5,575.5C -0.5,571.833 -0.5,568.167 -0.5,564.5C 11.0963,566.408 22.763,567.741 34.5,568.5C 44.4025,570.046 54.4025,571.213 64.5,572C 126.779,573.836 188.779,570.503 250.5,562C 308.365,554.896 364.699,541.562 419.5,522C 451.933,509.79 481.933,493.457 509.5,473C 581.248,416.852 613.748,343.018 607,251.5C 603.849,214.41 596.849,178.077 586,142.5C 570.536,93.6014 552.036,45.9347 530.5,-0.5 Z"/></g>
<g><path style="opacity:1" fill="#feb24f" d="M 544.5,-0.5 C 598.167,-0.5 651.833,-0.5 705.5,-0.5C 738.643,59.1214 767.477,120.788 792,184.5C 809.096,230.08 820.096,277.08 825,325.5C 834.087,432.815 793.92,515.649 704.5,574C 653.79,603.908 599.456,624.575 541.5,636C 450.702,654.316 359.035,661.316 266.5,657C 214.525,653.117 164.525,641.117 116.5,621C 94.1143,610.488 73.1143,597.988 53.5,583.5C 144.161,589.239 234.161,583.739 323.5,567C 364.726,559.489 404.726,547.823 443.5,532C 588.808,468.575 647.308,358.408 619,201.5C 603.558,130.669 578.724,63.3361 544.5,-0.5 Z"/></g>
<g><path style="opacity:1" fill="#fefefe" d="M 705.5,-0.5 C 1167.17,-0.5 1628.83,-0.5 2090.5,-0.5C 2062.37,168.355 2093.87,325.022 2185,469.5C 2241.45,558.616 2314.95,630.116 2405.5,684C 2436.9,701.703 2469.9,715.536 2504.5,725.5C 2505.21,726.404 2506.21,726.737 2507.5,726.5C 2511.58,825.613 2545.75,912.613 2610,987.5C 2658.65,1044.82 2717.48,1088.32 2786.5,1118C 2856.14,1145.9 2927.14,1150.07 2999.5,1130.5C 2999.5,1420.17 2999.5,1709.83 2999.5,1999.5C 2730.5,1999.5 2461.5,1999.5 2192.5,1999.5C 2139.77,1945.28 2087.94,1890.28 2037,1834.5C 1981.29,1775.76 1921.12,1722.59 1856.5,1675C 1757.47,1605.33 1649.14,1554.66 1531.5,1523C 1466.91,1505.22 1401.25,1493.22 1334.5,1487C 1215.11,1476.86 1101.78,1498.19 994.5,1551C 976.186,1559.82 958.186,1569.16 940.5,1579C 886.161,1611.17 831.494,1642.84 776.5,1674C 713.57,1708.09 646.903,1731.42 576.5,1744C 500.501,1754.36 424.835,1752.36 349.5,1738C 262.258,1720.48 177.592,1694.48 95.5,1660C 63.3513,1646.42 31.3513,1632.59 -0.5,1618.5C -0.5,1270.83 -0.5,923.167 -0.5,575.5C 17.4041,578.817 35.4041,581.484 53.5,583.5C 73.1143,597.988 94.1143,610.488 116.5,621C 164.525,641.117 214.525,653.117 266.5,657C 359.035,661.316 450.702,654.316 541.5,636C 599.456,624.575 653.79,603.908 704.5,574C 793.92,515.649 834.087,432.815 825,325.5C 820.096,277.08 809.096,230.08 792,184.5C 767.477,120.788 738.643,59.1214 705.5,-0.5 Z"/></g>
<g><path style="opacity:1" fill="#feb24f" d="M 2090.5,-0.5 C 2393.5,-0.5 2696.5,-0.5 2999.5,-0.5C 2999.5,17.5 2999.5,35.5 2999.5,53.5C 2966.05,84.5492 2930.38,112.716 2892.5,138C 2861.57,156.604 2830.9,175.604 2800.5,195C 2685.14,278.363 2600.31,385.863 2546,517.5C 2522.97,575.336 2510.14,635.336 2507.5,697.5C 2507.16,707.045 2506.16,716.378 2504.5,725.5C 2469.9,715.536 2436.9,701.703 2405.5,684C 2314.95,630.116 2241.45,558.616 2185,469.5C 2093.87,325.022 2062.37,168.355 2090.5,-0.5 Z"/></g>
<g><path style="opacity:1" fill="#184266" d="M 2999.5,53.5 C 2999.5,412.5 2999.5,771.5 2999.5,1130.5C 2927.14,1150.07 2856.14,1145.9 2786.5,1118C 2717.48,1088.32 2658.65,1044.82 2610,987.5C 2545.75,912.613 2511.58,825.613 2507.5,726.5C 2507.5,716.833 2507.5,707.167 2507.5,697.5C 2510.14,635.336 2522.97,575.336 2546,517.5C 2600.31,385.863 2685.14,278.363 2800.5,195C 2830.9,175.604 2861.57,156.604 2892.5,138C 2930.38,112.716 2966.05,84.5492 2999.5,53.5 Z"/></g>
<g><path style="opacity:1" fill="#fcfcfb" d="M -0.5,533.5 C 10.8333,545.5 22.5,557.167 34.5,568.5C 22.763,567.741 11.0963,566.408 -0.5,564.5C -0.5,554.167 -0.5,543.833 -0.5,533.5 Z"/></g>
<g><path style="opacity:1" fill="#383838" d="M 2040.5,662.5 C 2046.84,661.755 2051.01,664.422 2053,670.5C 2053.95,677.668 2052.78,684.502 2049.5,691C 2050.97,693.474 2052.81,695.64 2055,697.5C 2055.67,701.636 2055.17,705.636 2053.5,709.5C 2049.86,707.684 2046.36,705.684 2043,703.5C 2036.39,711.435 2028.56,717.935 2019.5,723C 2015.17,723.667 2010.83,723.667 2006.5,723C 2016.85,716.986 2026.35,709.82 2035,701.5C 2035.67,700.5 2035.67,699.5 2035,698.5C 2031.61,696.773 2029.27,694.106 2028,690.5C 2025.95,678.267 2030.12,668.934 2040.5,662.5 Z"/></g>
<g><path style="opacity:1" fill="#373737" d="M 1125.5,674.5 C 1126.5,674.5 1127.5,674.5 1128.5,674.5C 1130.72,685.837 1129.05,696.504 1123.5,706.5C 1117.76,711.396 1111.76,711.73 1105.5,707.5C 1102.18,713.993 1097.02,717.993 1090,719.5C 1084.57,718.747 1080.91,715.747 1079,710.5C 1077.86,703.196 1078.86,696.196 1082,689.5C 1083.18,688.269 1084.35,688.269 1085.5,689.5C 1084.25,692.494 1084.25,695.494 1085.5,698.5C 1090.5,696.333 1095.5,694.167 1100.5,692C 1101.56,689.263 1102.39,686.43 1103,683.5C 1103.95,681.408 1105.29,681.075 1107,682.5C 1107.04,684.941 1107.87,686.941 1109.5,688.5C 1113.83,686.667 1118.17,684.833 1122.5,683C 1124.08,680.405 1125.08,677.571 1125.5,674.5 Z"/></g>
<g><path style="opacity:1" fill="#f5f5f5" d="M 2034.5,674.5 C 2038.89,673.943 2042.06,675.61 2044,679.5C 2044.82,682.227 2044.65,684.894 2043.5,687.5C 2037.63,684.991 2034.63,680.658 2034.5,674.5 Z"/></g>
<g><path style="opacity:1" fill="#383838" d="M 862.5,682.5 C 863.5,682.5 864.5,682.5 865.5,682.5C 865.049,687.124 863.049,690.957 859.5,694C 845.903,699.309 832.403,704.809 819,710.5C 818.778,705.775 820.611,701.942 824.5,699C 837.226,693.379 849.893,687.879 862.5,682.5 Z"/></g>
<g><path style="opacity:1" fill="#393939" d="M 1686.5,681.5 C 1687.2,686.612 1685.2,690.779 1680.5,694C 1667.21,699.598 1653.87,705.098 1640.5,710.5C 1639.87,705.879 1641.53,702.045 1645.5,699C 1659.26,693.115 1672.92,687.282 1686.5,681.5 Z"/></g>
<g><path style="opacity:1" fill="#393939" d="M 1749.5,682.5 C 1750.5,682.5 1751.5,682.5 1752.5,682.5C 1751.69,686.946 1749.69,690.779 1746.5,694C 1732.99,699.668 1719.33,704.835 1705.5,709.5C 1705.68,705.305 1707.35,701.805 1710.5,699C 1723.64,693.572 1736.64,688.072 1749.5,682.5 Z"/></g>
<g><path style="opacity:1" fill="#383838" d="M 2263.5,682.5 C 2264.5,682.5 2265.5,682.5 2266.5,682.5C 2266.05,687.124 2264.05,690.957 2260.5,694C 2246.9,699.309 2233.4,704.809 2220,710.5C 2219.78,705.775 2221.61,701.942 2225.5,699C 2238.23,693.379 2250.89,687.879 2263.5,682.5 Z"/></g>
<g><path style="opacity:1" fill="#ba9157" d="M 2507.5,697.5 C 2507.5,707.167 2507.5,716.833 2507.5,726.5C 2506.21,726.737 2505.21,726.404 2504.5,725.5C 2506.16,716.378 2507.16,707.045 2507.5,697.5 Z"/></g>
<g><path style="opacity:1" fill="#363636" d="M 2184.5,728.5 C 2185.82,731.428 2186.49,734.761 2186.5,738.5C 2187.93,777.169 2189.43,815.836 2191,854.5C 2192.85,866.697 2200.01,872.03 2212.5,870.5C 2226.43,870.346 2239.76,867.513 2252.5,862C 2255.29,860.881 2256.96,858.881 2257.5,856C 2254.75,848.999 2251.58,842.166 2248,835.5C 2247.42,831.112 2247.76,826.779 2249,822.5C 2250.15,817.225 2251.98,812.225 2254.5,807.5C 2270.99,829.662 2272.82,852.995 2260,877.5C 2254.61,884.553 2247.78,889.72 2239.5,893C 2225.22,897.951 2210.56,899.618 2195.5,898C 2188.23,896.394 2183.06,892.227 2180,885.5C 2177.22,877.398 2175.56,869.065 2175,860.5C 2172.89,823.836 2171.22,787.169 2170,750.5C 2173.59,742.315 2178.42,734.981 2184.5,728.5 Z"/></g>
<g><path style="opacity:1" fill="#363636" d="M 870.5,727.5 C 872.775,763.981 874.609,800.648 876,837.5C 876.118,845.957 877.118,854.29 879,862.5C 880.563,865.728 883.063,867.895 886.5,869C 898.155,870.676 909.822,870.843 921.5,869.5C 925.43,849.871 932.597,831.538 943,814.5C 953.32,803.087 963.986,802.754 975,813.5C 982.445,823.945 990.945,833.445 1000.5,842C 1004.62,845.226 1009.29,847.06 1014.5,847.5C 1013.3,856.425 1010.3,864.759 1005.5,872.5C 979.143,880.23 952.809,888.063 926.5,896C 910.853,898.666 895.186,899 879.5,897C 876.098,895.6 873.264,893.433 871,890.5C 868.878,885.927 867.045,881.26 865.5,876.5C 843.416,898.155 817.416,904.655 787.5,896C 777.617,890.084 772.45,881.251 772,869.5C 771.587,858.151 770.92,846.818 770,835.5C 769.691,834.234 769.191,833.067 768.5,832C 764.218,831.035 760.218,831.702 756.5,834C 751.525,837.97 747.691,842.803 745,848.5C 742.828,859.332 746.994,866.499 757.5,870C 755.069,878.552 752.402,887.052 749.5,895.5C 742.591,891.756 738.091,886.089 736,878.5C 730.724,852.329 737.89,830.162 757.5,812C 762.705,807.393 768.705,805.727 775.5,807C 780.829,813.118 783.662,820.284 784,828.5C 784.268,837.865 784.935,847.198 786,856.5C 789.015,866.602 795.848,871.102 806.5,870C 822.522,872.161 837.855,869.828 852.5,863C 855.295,861.207 857.795,859.04 860,856.5C 859.642,831.131 858.309,805.797 856,780.5C 855.333,770.5 855.333,760.5 856,750.5C 860.344,742.468 865.177,734.801 870.5,727.5 Z"/></g>
<g><path style="opacity:1" fill="#363636" d="M 1055.5,731.5 C 1057.98,778.979 1058.81,826.645 1058,874.5C 1054.51,882.316 1049.84,889.316 1044,895.5C 1040.67,850.18 1038,804.846 1036,759.5C 1041.16,749.182 1047.66,739.849 1055.5,731.5 Z"/></g>
<g><path style="opacity:1" fill="#363636" d="M 1263.5,731.5 C 1265.33,775.997 1266.67,820.831 1267.5,866C 1265.66,877.508 1260.49,887.341 1252,895.5C 1248.54,849.872 1246.21,804.205 1245,758.5C 1249.8,748.542 1255.96,739.542 1263.5,731.5 Z"/></g>
<g><path style="opacity:1" fill="#353535" d="M 1616.5,732.5 C 1617.17,740.833 1617.83,749.167 1618.5,757.5C 1619.24,795.835 1619.74,834.169 1620,872.5C 1616.9,881.037 1612.07,888.37 1605.5,894.5C 1601.75,849.22 1599.25,803.887 1598,758.5C 1602.48,748.54 1608.64,739.873 1616.5,732.5 Z"/></g>
<g><path style="opacity:1" fill="#363636" d="M 1211.5,731.5 C 1212.32,735.647 1212.82,739.981 1213,744.5C 1214.21,779.164 1214.87,813.83 1215,848.5C 1212,871.504 1199.5,886.67 1177.5,894C 1166.2,898.207 1154.53,899.541 1142.5,898C 1137.69,894.574 1134.19,890.074 1132,884.5C 1129.33,876.5 1126.67,868.5 1124,860.5C 1124.27,875.033 1119.44,887.533 1109.5,898C 1105.7,900.603 1101.53,902.436 1097,903.5C 1092.29,901.712 1087.79,899.545 1083.5,897C 1092.67,890.5 1100.5,882.667 1107,873.5C 1111.31,861.603 1115.31,849.603 1119,837.5C 1120.11,834.274 1121.94,831.607 1124.5,829.5C 1126.72,830.924 1128.22,832.924 1129,835.5C 1131.65,847.299 1136.82,857.799 1144.5,867C 1150.76,870.356 1157.42,871.356 1164.5,870C 1177.59,869.362 1189.09,864.862 1199,856.5C 1200.1,852.448 1200.6,848.281 1200.5,844C 1198.81,815.81 1196.81,787.644 1194.5,759.5C 1194.47,756.567 1195.3,753.9 1197,751.5C 1201.66,744.675 1206.5,738.009 1211.5,731.5 Z"/></g>
<g><path style="opacity:1" fill="#353535" d="M 1864.5,731.5 C 1866.74,769.653 1867.9,807.986 1868,846.5C 1866.08,868.082 1855.24,883.248 1835.5,892C 1829.23,894.202 1822.89,896.202 1816.5,898C 1803.17,898.667 1789.83,898.667 1776.5,898C 1772.28,896.974 1768.78,894.807 1766,891.5C 1764.52,887.385 1762.85,883.385 1761,879.5C 1739.77,893.852 1716.27,900.519 1690.5,899.5C 1687.14,926.723 1672.81,945.556 1647.5,956C 1637.26,957.217 1628.26,954.384 1620.5,947.5C 1635.73,942.721 1649.73,935.554 1662.5,926C 1668.41,920.761 1673.58,914.928 1678,908.5C 1678.15,905.768 1677.65,903.102 1676.5,900.5C 1670.53,899.67 1664.53,899.17 1658.5,899C 1654.76,897.719 1652.26,895.219 1651,891.5C 1649.45,874.539 1654.62,860.039 1666.5,848C 1674.32,845.753 1680.49,847.919 1685,854.5C 1687.68,859.393 1689.51,864.56 1690.5,870C 1711.19,872.286 1730.85,868.953 1749.5,860C 1750.02,859.439 1750.36,858.772 1750.5,858C 1749.22,855.719 1747.56,853.719 1745.5,852C 1739.39,849.131 1733.06,846.964 1726.5,845.5C 1726.88,839.667 1728.04,834 1730,828.5C 1730.57,825.681 1731.91,823.348 1734,821.5C 1742.26,819.726 1750.43,817.559 1758.5,815C 1766.83,814.333 1775.17,814.333 1783.5,815C 1795.41,818.982 1799.91,827.149 1797,839.5C 1792.54,848.631 1786.54,856.631 1779,863.5C 1778.29,865.367 1778.79,866.867 1780.5,868C 1783.1,868.92 1785.77,869.587 1788.5,870C 1805.56,871.84 1822.22,870.173 1838.5,865C 1844.13,862.602 1848.96,859.102 1853,854.5C 1853.17,851.833 1853.33,849.167 1853.5,846.5C 1851.05,815.85 1849.22,785.184 1848,754.5C 1852.94,746.397 1858.44,738.73 1864.5,731.5 Z"/></g>
<g><path style="opacity:1" fill="#363636" d="M 1916.5,731.5 C 1918.67,778.651 1919.5,825.985 1919,873.5C 1916.08,881.671 1911.42,888.671 1905,894.5C 1901.07,849.557 1898.4,804.557 1897,759.5C 1901.78,748.915 1908.28,739.582 1916.5,731.5 Z"/></g>
<g><path style="opacity:1" fill="#363636" d="M 1466.5,733.5 C 1468.65,770.646 1470.15,807.979 1471,845.5C 1472.72,866.973 1484.22,875.14 1505.5,870C 1510.6,869.046 1515.6,867.713 1520.5,866C 1521.67,865.5 1522.5,864.667 1523,863.5C 1524.59,852.875 1528.43,843.209 1534.5,834.5C 1540.77,828.861 1548.11,827.027 1556.5,829C 1563.59,832.421 1569.09,837.588 1573,844.5C 1572.89,853.861 1570.89,862.861 1567,871.5C 1566.22,873.286 1565.05,874.786 1563.5,876C 1560.47,876.539 1557.47,877.206 1554.5,878C 1533.82,890.396 1511.48,897.229 1487.5,898.5C 1479.61,896.444 1474.44,891.444 1472,883.5C 1471.24,904.436 1464.91,923.436 1453,940.5C 1436.33,957.899 1415.83,966.232 1391.5,965.5C 1378.67,965.948 1367.67,961.781 1358.5,953C 1357.1,952.405 1355.77,952.572 1354.5,953.5C 1353.39,951.716 1353.39,949.882 1354.5,948C 1350.93,941.621 1348.76,934.787 1348,927.5C 1346.64,909.904 1349.3,892.904 1356,876.5C 1357.68,872.468 1359.84,868.801 1362.5,865.5C 1362.83,865.833 1363.17,866.167 1363.5,866.5C 1357.42,882.401 1355.58,898.734 1358,915.5C 1360.45,925.288 1366.45,931.955 1376,935.5C 1384.05,932.052 1392.22,929.052 1400.5,926.5C 1400.31,928.564 1399.81,930.564 1399,932.5C 1392.96,937.517 1394.3,939.517 1403,938.5C 1418.77,938.799 1432.93,934.299 1445.5,925C 1452.78,918.522 1456.61,910.355 1457,900.5C 1456.05,855.6 1453.55,810.767 1449.5,766C 1452.41,753.676 1458.08,742.843 1466.5,733.5 Z"/></g>
<g><path style="opacity:1" fill="#363636" d="M 942.5,737.5 C 948.715,743.568 954.715,749.901 960.5,756.5C 955.187,762.981 949.687,769.314 944,775.5C 937.801,769.636 931.968,763.469 926.5,757C 931.668,750.335 937.001,743.835 942.5,737.5 Z"/></g>
<g><path style="opacity:1" fill="#363636" d="M 784.5,743.5 C 785.787,744.871 786.453,746.705 786.5,749C 785.532,759.57 782.365,769.403 777,778.5C 776.667,776.167 776.333,773.833 776,771.5C 764.798,777.512 752.964,781.846 740.5,784.5C 740.167,783.5 739.833,782.5 739.5,781.5C 740.968,774.559 741.968,767.559 742.5,760.5C 757.924,758.114 771.924,752.447 784.5,743.5 Z"/></g>
<g><path style="opacity:1" fill="#767676" d="M 1616.5,732.5 C 1616.56,731.957 1616.89,731.624 1617.5,731.5C 1618.5,740.141 1618.83,748.808 1618.5,757.5C 1617.83,749.167 1617.17,740.833 1616.5,732.5 Z"/></g>
<g><path style="opacity:1" fill="#363636" d="M 2130.5,808.5 C 2143.83,827.875 2146,848.542 2137,870.5C 2125.82,886.021 2110.98,896.521 2092.5,902C 2068.71,909.294 2044.71,910.294 2020.5,905C 2011.17,901.665 2005.33,895.165 2003,885.5C 2001.31,864.741 2007.81,847.074 2022.5,832.5C 2022.83,832.833 2023.17,833.167 2023.5,833.5C 2017.92,840.99 2014.26,849.323 2012.5,858.5C 2012.81,867.272 2017.14,873.106 2025.5,876C 2058.98,882.974 2090.98,878.64 2121.5,863C 2123.96,861.542 2126.13,859.709 2128,857.5C 2128.32,855.447 2127.99,853.447 2127,851.5C 2123.37,845.064 2119.87,838.564 2116.5,832C 2119.36,823.003 2124.02,815.169 2130.5,808.5 Z"/></g>
<g><path style="opacity:1" fill="#fbfbfb" d="M 948.5,831.5 C 952.131,831.16 955.464,831.994 958.5,834C 964.074,840.484 969.407,847.151 974.5,854C 960.961,858.634 947.295,862.801 933.5,866.5C 932.587,860.638 933.42,854.972 936,849.5C 938.477,842.173 942.644,836.173 948.5,831.5 Z"/></g>
<g><path style="opacity:1" fill="#373737" d="M 2237.5,915.5 C 2239.37,915.859 2240.87,916.859 2242,918.5C 2245.81,923.941 2249.97,929.108 2254.5,934C 2249.67,940.167 2244.17,945.667 2238,950.5C 2232.78,944.947 2227.94,939.114 2223.5,933C 2227.99,927.015 2232.65,921.181 2237.5,915.5 Z"/></g>
<g><path style="opacity:1" fill="#383838" d="M 773.5,925.5 C 774.201,930.612 772.201,934.779 767.5,938C 754.5,943.167 741.5,948.333 728.5,953.5C 727.652,949.333 728.985,945.833 732.5,943C 746.256,937.115 759.923,931.282 773.5,925.5 Z"/></g>
<g><path style="opacity:1" fill="#383838" d="M 942.5,925.5 C 943.559,927.726 943.392,930.059 942,932.5C 940.167,934.333 938.333,936.167 936.5,938C 923.5,943.167 910.5,948.333 897.5,953.5C 896.652,949.333 897.985,945.833 901.5,943C 915.256,937.115 928.923,931.282 942.5,925.5 Z"/></g>
<g><path style="opacity:1" fill="#393939" d="M 1542.5,925.5 C 1544.23,925.843 1544.73,926.843 1544,928.5C 1542.22,931.941 1540.06,935.108 1537.5,938C 1523.8,943.187 1510.13,948.353 1496.5,953.5C 1497.16,948.685 1499.49,944.851 1503.5,942C 1516.64,936.572 1529.64,931.072 1542.5,925.5 Z"/></g>
<g><path style="opacity:1" fill="#373737" d="M 2074.5,938.5 C 2076.37,938.859 2077.87,939.859 2079,941.5C 2082.59,946.351 2086.43,951.017 2090.5,955.5C 2085.87,961.797 2080.54,967.463 2074.5,972.5C 2068.97,967.134 2063.97,961.3 2059.5,955C 2064.34,949.33 2069.34,943.83 2074.5,938.5 Z"/></g>
<g><path style="opacity:1" fill="#373737" d="M 1618.5,1035.5 C 1624.35,1034.84 1628.51,1037.17 1631,1042.5C 1632.34,1050.25 1631.17,1057.58 1627.5,1064.5C 1629.48,1066.4 1631.31,1068.4 1633,1070.5C 1633.92,1074.71 1633.42,1078.71 1631.5,1082.5C 1628.17,1080.5 1624.83,1078.5 1621.5,1076.5C 1615.65,1082.18 1609.65,1087.68 1603.5,1093C 1597.58,1096.33 1591.25,1097.33 1584.5,1096C 1596.1,1090.23 1606.1,1082.4 1614.5,1072.5C 1604.34,1064.26 1602.84,1054.59 1610,1043.5C 1612.58,1040.48 1615.41,1037.81 1618.5,1035.5 Z"/></g>
<g><path style="opacity:1" fill="#f1f1f1" d="M 1613.5,1047.5 C 1619.5,1047.66 1622.83,1050.83 1623.5,1057C 1623.71,1059.46 1622.71,1060.46 1620.5,1060C 1616.33,1057.84 1613.67,1054.5 1612.5,1050C 1612.74,1049.1 1613.08,1048.26 1613.5,1047.5 Z"/></g>
<g><path style="opacity:1" fill="#383838" d="M 1534.5,1050.5 C 1550.81,1051.42 1557.98,1060.08 1556,1076.5C 1551.43,1090.37 1541.93,1095.87 1527.5,1093C 1524.67,1091.5 1522.5,1089.33 1521,1086.5C 1516.4,1070.81 1520.9,1058.81 1534.5,1050.5 Z"/></g>
<g><path style="opacity:1" fill="#383838" d="M 936.5,1055.5 C 937.5,1055.5 938.5,1055.5 939.5,1055.5C 939.049,1060.12 937.049,1063.96 933.5,1067C 919.992,1072.67 906.326,1077.83 892.5,1082.5C 892.899,1077.58 895.233,1073.74 899.5,1071C 912.056,1066.1 924.389,1060.93 936.5,1055.5 Z"/></g>
<g><path style="opacity:1" fill="#383838" d="M 1001.5,1055.5 C 1002.5,1055.5 1003.5,1055.5 1004.5,1055.5C 1004.07,1060.11 1002.07,1063.95 998.5,1067C 984.928,1072.37 971.428,1077.87 958,1083.5C 957.778,1078.77 959.611,1074.94 963.5,1072C 976.373,1066.72 989.04,1061.22 1001.5,1055.5 Z"/></g>
<g><path style="opacity:1" fill="#393939" d="M 1238.5,1054.5 C 1238.87,1059.43 1236.87,1063.6 1232.5,1067C 1219.05,1072.22 1205.72,1077.72 1192.5,1083.5C 1191.87,1078.88 1193.54,1075.04 1197.5,1072C 1211.26,1066.12 1224.92,1060.28 1238.5,1054.5 Z"/></g>
<g><path style="opacity:1" fill="#373737" d="M 1338.5,1055.5 C 1339.5,1055.5 1340.5,1055.5 1341.5,1055.5C 1341.96,1060.49 1340.96,1065.16 1338.5,1069.5C 1334.37,1071.32 1330.87,1073.98 1328,1077.5C 1326.12,1081.98 1327.79,1083.98 1333,1083.5C 1340.28,1082.52 1347.28,1080.52 1354,1077.5C 1354.5,1077.83 1355,1078.17 1355.5,1078.5C 1353.91,1083.52 1351.91,1088.35 1349.5,1093C 1342.72,1097.2 1335.38,1098.86 1327.5,1098C 1325.06,1097.23 1323.23,1095.73 1322,1093.5C 1318.51,1076.81 1324.01,1064.15 1338.5,1055.5 Z"/></g>
<g><path style="opacity:1" fill="#393939" d="M 1421.5,1054.5 C 1423.34,1055.2 1423.84,1056.54 1423,1058.5C 1421.44,1061.78 1419.27,1064.62 1416.5,1067C 1403.05,1072.22 1389.72,1077.72 1376.5,1083.5C 1375.87,1078.88 1377.54,1075.04 1381.5,1072C 1395.04,1066.39 1408.37,1060.56 1421.5,1054.5 Z"/></g>
<g><path style="opacity:1" fill="#393939" d="M 1500.5,1054.5 C 1501.2,1059.61 1499.2,1063.78 1494.5,1067C 1481.21,1072.6 1467.87,1078.1 1454.5,1083.5C 1453.87,1078.88 1455.53,1075.05 1459.5,1072C 1473.26,1066.12 1486.92,1060.28 1500.5,1054.5 Z"/></g>
<g><path style="opacity:1" fill="#393939" d="M 2048.5,1054.5 C 2050.23,1054.84 2050.73,1055.84 2050,1057.5C 2048.7,1061.27 2046.53,1064.44 2043.5,1067C 2029.93,1072.37 2016.43,1077.87 2003,1083.5C 2002.78,1078.77 2004.61,1074.94 2008.5,1072C 2022.04,1066.39 2035.37,1060.56 2048.5,1054.5 Z"/></g>
<g><path style="opacity:1" fill="#393939" d="M 2126.5,1054.5 C 2128.23,1054.84 2128.73,1055.84 2128,1057.5C 2126.7,1061.27 2124.53,1064.44 2121.5,1067C 2107.93,1072.37 2094.43,1077.87 2081,1083.5C 2080.78,1078.77 2082.61,1074.94 2086.5,1072C 2100.04,1066.39 2113.37,1060.56 2126.5,1054.5 Z"/></g>
<g><path style="opacity:1" fill="#f9f9f9" d="M 1531.5,1061.5 C 1534.42,1061.46 1537.09,1062.29 1539.5,1064C 1542,1066.5 1544.5,1069 1547,1071.5C 1547.94,1074.35 1547.44,1076.85 1545.5,1079C 1540.5,1079.67 1535.5,1079.67 1530.5,1079C 1525.58,1077.09 1523.75,1073.59 1525,1068.5C 1526.69,1065.64 1528.86,1063.31 1531.5,1061.5 Z"/></g>
<g><path style="opacity:1" fill="#363636" d="M 2054.5,1100.5 C 2055.31,1102.29 2055.81,1104.29 2056,1106.5C 2056.9,1148.55 2058.9,1190.55 2062,1232.5C 2063.11,1237.25 2065.95,1240.41 2070.5,1242C 2082.27,1243.71 2093.94,1243.05 2105.5,1240C 2100.8,1235.12 2099.3,1229.28 2101,1222.5C 2105.95,1207.57 2114.11,1194.73 2125.5,1184C 2133.12,1177.93 2141.79,1175.26 2151.5,1176C 2148.4,1183.7 2144.9,1191.2 2141,1198.5C 2133.83,1201.5 2126.66,1204.66 2119.5,1208C 2117.37,1209.05 2115.71,1210.55 2114.5,1212.5C 2122.43,1231.12 2135.43,1235.62 2153.5,1226C 2158.3,1223.37 2162.96,1220.53 2167.5,1217.5C 2168.61,1218.72 2168.78,1220.06 2168,1221.5C 2165.32,1229.9 2162.48,1238.23 2159.5,1246.5C 2132.71,1264.3 2103.21,1272.64 2071,1271.5C 2065.16,1271.01 2060.16,1268.67 2056,1264.5C 2053.21,1259.47 2051.21,1254.13 2050,1248.5C 2031.18,1268.35 2008.02,1276.51 1980.5,1273C 1976.27,1273.52 1972.6,1275.18 1969.5,1278C 1970.17,1278.67 1970.83,1279.33 1971.5,1280C 1978.1,1281.83 1984.77,1283.49 1991.5,1285C 1993.81,1286.64 1995.31,1288.8 1996,1291.5C 1997.49,1307.03 1991.99,1319.53 1979.5,1329C 1956.46,1343.23 1931.46,1348.57 1904.5,1345C 1886.64,1338.31 1878.3,1325.31 1879.5,1306C 1880.32,1287.39 1885.65,1270.22 1895.5,1254.5C 1895.83,1254.67 1896.17,1254.83 1896.5,1255C 1889.45,1270.05 1886.61,1285.89 1888,1302.5C 1891.4,1314.9 1899.57,1322.06 1912.5,1324C 1932.05,1325.35 1951.05,1322.68 1969.5,1316C 1974.58,1313.8 1978.91,1310.63 1982.5,1306.5C 1982.29,1305.91 1981.96,1305.41 1981.5,1305C 1974.69,1303.4 1968.03,1301.4 1961.5,1299C 1955.04,1293.03 1953.54,1285.86 1957,1277.5C 1960.94,1261.23 1970.77,1250.4 1986.5,1245C 1998.91,1244.26 2011.25,1242.93 2023.5,1241C 2032.19,1239.25 2039.36,1235.08 2045,1228.5C 2044.11,1203.8 2042.44,1179.14 2040,1154.5C 2039.33,1144.17 2039.33,1133.83 2040,1123.5C 2044.84,1115.81 2049.68,1108.14 2054.5,1100.5 Z"/></g>
<g><path style="opacity:1" fill="#353535" d="M 1168.5,1104.5 C 1170.28,1149.66 1171.61,1195 1172.5,1240.5C 1170.21,1251.41 1165.04,1260.75 1157,1268.5C 1154.61,1232.17 1152.28,1195.84 1150,1159.5C 1149.33,1150.17 1149.33,1140.83 1150,1131.5C 1154.8,1121.54 1160.96,1112.54 1168.5,1104.5 Z"/></g>
<g><path style="opacity:1" fill="#373737" d="M 1352.5,1104.5 C 1353.33,1110.99 1353.83,1117.65 1354,1124.5C 1355.09,1164.83 1355.75,1205.17 1356,1245.5C 1352.6,1254.23 1347.6,1261.89 1341,1268.5C 1338.57,1232.17 1336.23,1195.84 1334,1159.5C 1333.33,1150.17 1333.33,1140.83 1334,1131.5C 1338.8,1121.54 1344.96,1112.54 1352.5,1104.5 Z"/></g>
<g><path style="opacity:1" fill="#363636" d="M 1795.5,1104.5 C 1797.35,1151.33 1798.51,1198.33 1799,1245.5C 1795.24,1254.02 1790.24,1261.69 1784,1268.5C 1780.75,1223.18 1778.08,1177.85 1776,1132.5C 1781.16,1122.18 1787.66,1112.85 1795.5,1104.5 Z"/></g>
<g><path style="opacity:1" fill="#353535" d="M 1116.5,1104.5 C 1118.72,1138.8 1120.06,1173.3 1120.5,1208C 1121.14,1243.71 1103.8,1264.71 1068.5,1271C 1061.51,1271.5 1054.51,1271.67 1047.5,1271.5C 1049.04,1265.55 1050.37,1259.55 1051.5,1253.5C 1029.09,1258.22 1006.75,1263.38 984.5,1269C 971.219,1271.29 957.886,1271.79 944.5,1270.5C 945.809,1266.89 946.809,1263.23 947.5,1259.5C 938.417,1263.03 929.084,1265.86 919.5,1268C 903.212,1270.42 886.879,1272.08 870.5,1273C 868.04,1274.46 865.873,1276.29 864,1278.5C 858.799,1289.07 852.965,1299.24 846.5,1309C 855.583,1306.14 864.583,1302.64 873.5,1298.5C 874.146,1303.72 872.146,1307.88 867.5,1311C 854.381,1315.87 841.381,1321.04 828.5,1326.5C 827.833,1325.83 827.167,1325.17 826.5,1324.5C 823.897,1325.56 821.23,1325.73 818.5,1325C 811.833,1322 805.167,1319 798.5,1316C 810.173,1312 821.173,1306.66 831.5,1300C 837,1294.5 842.5,1289 848,1283.5C 854.833,1273.83 861.667,1264.17 868.5,1254.5C 877.862,1245 889.195,1241.17 902.5,1243C 918.895,1241.52 934.895,1238.18 950.5,1233C 953.994,1231.42 957.327,1229.59 960.5,1227.5C 960.833,1228 961.167,1228.5 961.5,1229C 960.306,1233.8 959.306,1238.64 958.5,1243.5C 967,1244.07 975.333,1243.23 983.5,1241C 988.058,1229.99 992.225,1218.83 996,1207.5C 999.637,1200.39 1004.14,1193.89 1009.5,1188C 1015.49,1184.23 1021.83,1183.57 1028.5,1186C 1039.17,1197.67 1049.83,1209.33 1060.5,1221C 1064.09,1223.28 1067.42,1225.78 1070.5,1228.5C 1068.63,1233.46 1066.96,1238.46 1065.5,1243.5C 1079.09,1242.86 1091.43,1238.69 1102.5,1231C 1103.7,1230.1 1104.53,1228.93 1105,1227.5C 1104.31,1195.78 1102.47,1164.12 1099.5,1132.5C 1099.47,1129.57 1100.3,1126.9 1102,1124.5C 1106.66,1117.68 1111.5,1111.01 1116.5,1104.5 Z"/></g>
<g><path style="opacity:1" fill="#353535" d="M 1743.5,1104.5 C 1745.09,1137.66 1746.43,1170.99 1747.5,1204.5C 1749.7,1241.93 1732.37,1264.1 1695.5,1271C 1683.83,1271.67 1672.17,1271.67 1660.5,1271C 1658.33,1270.17 1656.83,1268.67 1656,1266.5C 1655.08,1262.21 1654.58,1257.88 1654.5,1253.5C 1639.38,1259.15 1624.05,1264.32 1608.5,1269C 1596.94,1271.19 1585.28,1272.02 1573.5,1271.5C 1573.54,1267.11 1573.71,1262.77 1574,1258.5C 1558.36,1265.93 1541.86,1270.1 1524.5,1271C 1518.18,1271.5 1511.84,1271.67 1505.5,1271.5C 1505.84,1267.95 1506.51,1264.45 1507.5,1261C 1507.17,1260.5 1506.83,1260 1506.5,1259.5C 1501.6,1261.63 1496.6,1263.47 1491.5,1265C 1483.06,1266.15 1474.73,1267.82 1466.5,1270C 1457.86,1271.25 1449.19,1271.58 1440.5,1271C 1436,1269.17 1432.83,1266 1431,1261.5C 1427.27,1252.31 1423.94,1242.97 1421,1233.5C 1421.58,1248.17 1416.74,1260.67 1406.5,1271C 1402.76,1273.78 1398.6,1275.62 1394,1276.5C 1389.41,1274.45 1384.91,1272.29 1380.5,1270C 1391.81,1262.36 1400.64,1252.52 1407,1240.5C 1409.54,1231.47 1412.21,1222.47 1415,1213.5C 1416.68,1209.47 1418.84,1205.8 1421.5,1202.5C 1424.06,1204.61 1425.89,1207.27 1427,1210.5C 1429.56,1221.54 1434.39,1231.37 1441.5,1240C 1446.27,1242.87 1451.43,1244.04 1457,1243.5C 1476.78,1243.15 1495.95,1239.65 1514.5,1233C 1517.94,1231.22 1521.11,1229.06 1524,1226.5C 1522.86,1232.04 1522.03,1237.71 1521.5,1243.5C 1545.12,1242.65 1567.46,1237.65 1588.5,1228.5C 1587.12,1233.42 1586.12,1238.42 1585.5,1243.5C 1595.43,1243.55 1605.09,1242.05 1614.5,1239C 1617.76,1228.14 1623.09,1218.48 1630.5,1210C 1638.46,1204.86 1646.8,1204.19 1655.5,1208C 1660,1211.17 1664.5,1214.33 1669,1217.5C 1669.67,1221.17 1669.67,1224.83 1669,1228.5C 1667.66,1233.41 1666.82,1238.41 1666.5,1243.5C 1683.1,1244.57 1699.43,1243.07 1715.5,1239C 1722.21,1236.74 1727.71,1232.91 1732,1227.5C 1731.16,1196.13 1729.33,1164.79 1726.5,1133.5C 1726.51,1129.48 1727.67,1125.81 1730,1122.5C 1734.72,1116.62 1739.22,1110.62 1743.5,1104.5 Z"/></g>
<g><path style="opacity:1" fill="#373737" d="M 1022.5,1114.5 C 1028.63,1120.8 1034.63,1127.3 1040.5,1134C 1034.99,1140.34 1029.32,1146.51 1023.5,1152.5C 1017.13,1147.13 1011.46,1141.13 1006.5,1134.5C 1011.84,1127.8 1017.18,1121.14 1022.5,1114.5 Z"/></g>
<g><path style="opacity:1" fill="#363636" d="M 1509.5,1153.5 C 1510.5,1153.5 1511.5,1153.5 1512.5,1153.5C 1512.48,1165.73 1509.31,1177.06 1503,1187.5C 1502.81,1185.42 1502.31,1183.42 1501.5,1181.5C 1490.25,1187.7 1478.25,1191.7 1465.5,1193.5C 1466.98,1185.9 1467.98,1178.23 1468.5,1170.5C 1483.63,1168.13 1497.3,1162.46 1509.5,1153.5 Z"/></g>
<g><path style="opacity:1" fill="#fafafa" d="M 1007.5,1208.5 C 1011.13,1208.16 1014.46,1208.99 1017.5,1211C 1023.68,1217.35 1030.01,1223.51 1036.5,1229.5C 1021.99,1232.09 1007.65,1235.42 993.5,1239.5C 995.763,1227.98 1000.43,1217.65 1007.5,1208.5 Z"/></g>
<g><path style="opacity:1" fill="#353535" d="M 1216.5,1220.5 C 1227.12,1218.89 1233.95,1223.23 1237,1233.5C 1241.55,1251.54 1241.55,1269.54 1237,1287.5C 1229.9,1307.6 1216.4,1321.43 1196.5,1329C 1186.25,1330.21 1177.25,1327.38 1169.5,1320.5C 1188.11,1315.03 1204.44,1305.7 1218.5,1292.5C 1221.91,1289.26 1224.74,1285.59 1227,1281.5C 1227.38,1278.53 1226.88,1275.69 1225.5,1273C 1205.18,1276.68 1197.01,1268.51 1201,1248.5C 1202.83,1237.16 1208,1227.82 1216.5,1220.5 Z"/></g>
<g><path style="opacity:1" fill="#363636" d="M 921.5,1290.5 C 927.728,1295.56 933.061,1301.56 937.5,1308.5C 932.446,1314.22 927.113,1319.55 921.5,1324.5C 915.968,1319.13 910.968,1313.3 906.5,1307C 912.076,1301.93 917.076,1296.43 921.5,1290.5 Z"/></g>
<g><path style="opacity:1" fill="#363636" d="M 1548.5,1290.5 C 1554.73,1295.56 1560.06,1301.56 1564.5,1308.5C 1559.5,1314.17 1554.17,1319.5 1548.5,1324.5C 1543.16,1319.16 1538.16,1313.49 1533.5,1307.5C 1538.27,1301.61 1543.27,1295.95 1548.5,1290.5 Z"/></g>
<g><path style="opacity:1" fill="#393939" d="M 1369.5,1298.5 C 1371.23,1298.84 1371.73,1299.84 1371,1301.5C 1369.22,1304.94 1367.06,1308.11 1364.5,1311C 1350.84,1316.28 1337.17,1321.44 1323.5,1326.5C 1324.16,1321.68 1326.49,1317.85 1330.5,1315C 1343.8,1309.96 1356.8,1304.46 1369.5,1298.5 Z"/></g>
<g><path style="opacity:1" fill="#184266" d="M 2192.5,1999.5 C 1461.5,1999.5 730.5,1999.5 -0.5,1999.5C -0.5,1872.5 -0.5,1745.5 -0.5,1618.5C 31.3513,1632.59 63.3513,1646.42 95.5,1660C 177.592,1694.48 262.258,1720.48 349.5,1738C 424.835,1752.36 500.501,1754.36 576.5,1744C 646.903,1731.42 713.57,1708.09 776.5,1674C 831.494,1642.84 886.161,1611.17 940.5,1579C 958.186,1569.16 976.186,1559.82 994.5,1551C 1101.78,1498.19 1215.11,1476.86 1334.5,1487C 1401.25,1493.22 1466.91,1505.22 1531.5,1523C 1649.14,1554.66 1757.47,1605.33 1856.5,1675C 1921.12,1722.59 1981.29,1775.76 2037,1834.5C 2087.94,1890.28 2139.77,1945.28 2192.5,1999.5 Z"/></g>
</svg>
