<?xml version="1.0" encoding="UTF-8"?>
<!DOCTYPE svg PUBLIC "-//W3C//DTD SVG 1.1//EN" "http://www.w3.org/Graphics/SVG/1.1/DTD/svg11.dtd">
<svg xmlns="http://www.w3.org/2000/svg" version="1.1" width="3000px" height="2000px" style="shape-rendering:geometricPrecision; text-rendering:geometricPrecision; image-rendering:optimizeQuality; fill-rule:evenodd; clip-rule:evenodd" xmlns:xlink="http://www.w3.org/1999/xlink">
<g><path style="opacity:1" fill="#184266" d="M -0.5,-0.5 C 231.5,-0.5 463.5,-0.5 695.5,-0.5C 714.237,72.7677 696.237,135.268 641.5,187C 621.742,204.045 600.742,219.378 578.5,233C 406.362,326.48 281.529,463.313 204,643.5C 188.921,683.072 173.254,722.405 157,761.5C 146.018,786.823 132.018,810.156 115,831.5C 99.617,850.223 80.4503,863.39 57.5,871C 37.8501,876.304 18.5168,875.47 -0.5,868.5C -0.5,578.833 -0.5,289.167 -0.5,-0.5 Z"/></g>
<g><path style="opacity:1" fill="#fefefe" d="M 695.5,-0.5 C 710.167,-0.5 724.833,-0.5 739.5,-0.5C 736.1,72.3579 716.267,140.358 680,203.5C 666.408,225.02 652.075,246.02 637,266.5C 627.273,281.288 620.273,297.288 616,314.5C 611.488,348.302 621.988,376.468 647.5,399C 675.888,421.25 708.222,433.917 744.5,437C 857.14,449.801 929.974,402.301 963,294.5C 974.435,246.425 977.768,197.759 973,148.5C 968.7,96.297 955.2,46.6303 932.5,-0.5C 1309.83,-0.5 1687.17,-0.5 2064.5,-0.5C 2076.08,22.7461 2084.58,47.0795 2090,72.5C 2097.05,119.96 2086.38,162.96 2058,201.5C 2048.05,214.457 2037.71,227.124 2027,239.5C 2007.3,260.2 1987.97,281.2 1969,302.5C 1947.41,328.68 1932.41,358.347 1924,391.5C 1916.3,462.162 1947.47,504.329 2017.5,518C 2041.4,521.969 2065.4,522.636 2089.5,520C 2116.72,517.074 2143.72,512.74 2170.5,507C 2314.67,475.916 2459,445.583 2603.5,416C 2639.33,409.339 2675,410.006 2710.5,418C 2765.11,434.944 2796.27,471.778 2804,528.5C 2806.85,583.088 2795.19,634.422 2769,682.5C 2748.24,717.253 2725.9,750.919 2702,783.5C 2685.49,807.844 2670.49,833.177 2657,859.5C 2614.62,951.044 2628.79,1032.54 2699.5,1104C 2761.42,1160.51 2832.09,1174.84 2911.5,1147C 2942,1135.56 2971.33,1121.73 2999.5,1105.5C 2999.5,1203.5 2999.5,1301.5 2999.5,1399.5C 2985.18,1380.34 2968.85,1362.84 2950.5,1347C 2929.1,1328.92 2904.44,1318.76 2876.5,1316.5C 2852.95,1316.96 2832.28,1324.79 2814.5,1340C 2797.1,1356.95 2783.27,1376.45 2773,1398.5C 2767.45,1410.27 2762.45,1422.27 2758,1434.5C 2746.31,1469.23 2735.64,1504.23 2726,1539.5C 2676.75,1696.29 2588.25,1825.79 2460.5,1928C 2434.89,1945.95 2409.55,1964.28 2384.5,1983C 2377.72,1988.05 2371.39,1993.55 2365.5,1999.5C 2346.17,1999.5 2326.83,1999.5 2307.5,1999.5C 2317.32,1982.53 2327.15,1965.53 2337,1948.5C 2347.57,1930.37 2353.4,1910.87 2354.5,1890C 2353.76,1863.18 2343.09,1841.18 2322.5,1824C 2299.33,1806.94 2273.33,1796.94 2244.5,1794C 2202.88,1788.06 2162.54,1792.73 2123.5,1808C 2078.89,1829.36 2048.73,1863.52 2033,1910.5C 2023.61,1939.41 2019.11,1969.07 2019.5,1999.5C 1713.5,1999.5 1407.5,1999.5 1101.5,1999.5C 1072.03,1958.7 1066.86,1915.04 1086,1868.5C 1100.32,1841.18 1115.66,1814.51 1132,1788.5C 1145.01,1764.98 1152.17,1739.81 1153.5,1713C 1152.53,1671.06 1131.53,1645.73 1090.5,1637C 1074.44,1634.82 1058.44,1635.16 1042.5,1638C 1018.05,1643.26 994.385,1650.93 971.5,1661C 870.401,1705.88 769.067,1750.22 667.5,1794C 648.139,1801.79 628.139,1807.12 607.5,1810C 568.666,1814.08 537.832,1800.58 515,1769.5C 501.143,1745.24 494.643,1719.08 495.5,1691C 496.022,1665.77 500.522,1641.27 509,1617.5C 519.448,1590.6 530.448,1563.94 542,1537.5C 550.839,1515.48 557.506,1492.81 562,1469.5C 570.326,1393.84 540.159,1339.67 471.5,1307C 427.517,1288.59 384.517,1290.59 342.5,1313C 323.96,1324.1 306.293,1336.44 289.5,1350C 265.542,1371.97 239.875,1391.63 212.5,1409C 170.826,1433.05 126.826,1438.38 80.5,1425C 50.5099,1415.68 23.5099,1401.18 -0.5,1381.5C -0.5,1210.5 -0.5,1039.5 -0.5,868.5C 18.5168,875.47 37.8501,876.304 57.5,871C 80.4503,863.39 99.617,850.223 115,831.5C 132.018,810.156 146.018,786.823 157,761.5C 173.254,722.405 188.921,683.072 204,643.5C 281.529,463.313 406.362,326.48 578.5,233C 600.742,219.378 621.742,204.045 641.5,187C 696.237,135.268 714.237,72.7677 695.5,-0.5 Z"/></g>
<g><path style="opacity:1" fill="#184266" d="M 739.5,-0.5 C 803.833,-0.5 868.167,-0.5 932.5,-0.5C 955.2,46.6303 968.7,96.297 973,148.5C 977.768,197.759 974.435,246.425 963,294.5C 929.974,402.301 857.14,449.801 744.5,437C 708.222,433.917 675.888,421.25 647.5,399C 621.988,376.468 611.488,348.302 616,314.5C 620.273,297.288 627.273,281.288 637,266.5C 652.075,246.02 666.408,225.02 680,203.5C 716.267,140.358 736.1,72.3579 739.5,-0.5 Z"/></g>
<g><path style="opacity:1" fill="#ffb34f" d="M 2064.5,-0.5 C 2376.17,-0.5 2687.83,-0.5 2999.5,-0.5C 2999.5,368.167 2999.5,736.833 2999.5,1105.5C 2971.33,1121.73 2942,1135.56 2911.5,1147C 2832.09,1174.84 2761.42,1160.51 2699.5,1104C 2628.79,1032.54 2614.62,951.044 2657,859.5C 2670.49,833.177 2685.49,807.844 2702,783.5C 2725.9,750.919 2748.24,717.253 2769,682.5C 2795.19,634.422 2806.85,583.088 2804,528.5C 2796.27,471.778 2765.11,434.944 2710.5,418C 2675,410.006 2639.33,409.339 2603.5,416C 2459,445.583 2314.67,475.916 2170.5,507C 2143.72,512.74 2116.72,517.074 2089.5,520C 2065.4,522.636 2041.4,521.969 2017.5,518C 1947.47,504.329 1916.3,462.162 1924,391.5C 1932.41,358.347 1947.41,328.68 1969,302.5C 1987.97,281.2 2007.3,260.2 2027,239.5C 2037.71,227.124 2048.05,214.457 2058,201.5C 2086.38,162.96 2097.05,119.96 2090,72.5C 2084.58,47.0795 2076.08,22.7461 2064.5,-0.5 Z"/></g>
<g><path style="opacity:1" fill="#184266" d="M 514.5,388.5 C 561.631,386.266 603.298,400.099 639.5,430C 671.684,457.552 696.184,490.719 713,529.5C 722.06,553.342 723.727,577.676 718,602.5C 708.776,630.726 690.276,650.226 662.5,661C 653.284,664.072 643.95,666.739 634.5,669C 535.568,679.986 449.235,718.319 375.5,784C 357.731,802.107 339.065,819.107 319.5,835C 305.231,846.201 289.065,852.701 271,854.5C 249.226,853.069 234.56,842.069 227,821.5C 222.488,809.919 219.821,797.919 219,785.5C 215.54,726.138 226.206,669.471 251,615.5C 287.518,537.643 341.351,474.477 412.5,426C 443.799,405.837 477.799,393.337 514.5,388.5 Z"/></g>
<g><path style="opacity:1" fill="#363636" d="M 1598.5,589.5 C 1609.67,588.034 1620,590.2 1629.5,596C 1637.98,604.113 1640.81,613.946 1638,625.5C 1632.48,644.348 1619.98,655.514 1600.5,659C 1572.61,661.78 1560.11,649.28 1563,621.5C 1563.69,618.592 1564.86,615.925 1566.5,613.5C 1569.29,611.96 1571.79,612.294 1574,614.5C 1572.89,621.086 1572.55,627.752 1573,634.5C 1574.9,639.4 1578.4,642.567 1583.5,644C 1597.77,646.549 1609.94,642.716 1620,632.5C 1626.72,621.685 1624.22,614.185 1612.5,610C 1602.46,609.419 1592.46,609.919 1582.5,611.5C 1574.24,612.039 1570.57,608.206 1571.5,600C 1571.39,596.795 1572.06,593.795 1573.5,591C 1577.12,591.038 1580.78,591.204 1584.5,591.5C 1589.41,591.579 1594.08,590.912 1598.5,589.5 Z"/></g>
<g><path style="opacity:1" fill="#353535" d="M 1018.5,640.5 C 1025.51,640.334 1032.51,640.5 1039.5,641C 1050.71,643.251 1055.71,650.084 1054.5,661.5C 1043.53,729.099 1031.87,796.599 1019.5,864C 1023.45,881.615 1034.45,889.615 1052.5,888C 1063.12,883.279 1069.29,875.113 1071,863.5C 1077.06,830.422 1082.56,797.256 1087.5,764C 1087.24,760.152 1086.91,756.318 1086.5,752.5C 1096.77,750.042 1107.1,749.875 1117.5,752C 1125.44,754.865 1129.44,760.531 1129.5,769C 1125.71,794.894 1121.54,820.728 1117,846.5C 1113.99,864.538 1107.66,881.205 1098,896.5C 1080.87,916.327 1060.04,921.827 1035.5,913C 1024,906.194 1016.16,896.36 1012,883.5C 1000.2,907.3 981.032,918.467 954.5,917C 950.5,914.333 950.5,911.667 954.5,909C 959.38,907.645 963.547,905.145 967,901.5C 970.099,896.875 972.432,891.875 974,886.5C 985.777,814.723 998.111,743.056 1011,671.5C 1012.57,662.294 1012.74,653.127 1011.5,644C 1013.86,642.724 1016.19,641.558 1018.5,640.5 Z"/></g>
<g><path style="opacity:1" fill="#353535" d="M 2190.5,640.5 C 2197.17,640.334 2203.84,640.5 2210.5,641C 2221.31,642.477 2226.65,648.643 2226.5,659.5C 2215.58,727.613 2203.91,795.613 2191.5,863.5C 2194.9,881.044 2205.57,889.211 2223.5,888C 2229.8,886.037 2234.63,882.203 2238,876.5C 2240.26,872.05 2241.93,867.383 2243,862.5C 2248.33,832.503 2253.67,802.503 2259,772.5C 2259.94,766.168 2259.44,760.001 2257.5,754C 2270.24,749.169 2282.91,749.503 2295.5,755C 2297.62,756.731 2299.12,758.898 2300,761.5C 2300.67,767.833 2300.67,774.167 2300,780.5C 2295.56,805.481 2291.23,830.481 2287,855.5C 2283.71,870.732 2277.71,884.732 2269,897.5C 2252.01,916.756 2231.51,921.922 2207.5,913C 2195.99,906.152 2188.16,896.319 2184,883.5C 2172.2,907.303 2153.03,918.47 2126.5,917C 2123.92,915.519 2123.09,913.352 2124,910.5C 2129.12,908.606 2133.79,905.939 2138,902.5C 2141.42,897.588 2144.09,892.254 2146,886.5C 2157.74,812.988 2170.41,739.655 2184,666.5C 2184.8,659.117 2184.63,651.783 2183.5,644.5C 2185.48,642.436 2187.82,641.103 2190.5,640.5 Z"/></g>
<g><path style="opacity:1" fill="#373737" d="M 1205.5,652.5 C 1220.47,652.92 1235.47,653.086 1250.5,653C 1266.36,658.538 1273.19,669.704 1271,686.5C 1263.87,709.771 1248.04,721.437 1223.5,721.5C 1204.87,720.873 1195.21,711.207 1194.5,692.5C 1194.44,686.168 1196.11,680.335 1199.5,675C 1202.64,673.959 1205.14,674.793 1207,677.5C 1205.79,684.072 1205.45,690.738 1206,697.5C 1207.59,702.052 1210.75,704.885 1215.5,706C 1226.09,707.716 1236.09,706.049 1245.5,701C 1254.36,695.784 1257.53,688.284 1255,678.5C 1253.06,675.894 1250.56,674.061 1247.5,673C 1234.5,672.905 1221.5,672.905 1208.5,673C 1207,672.167 1205.83,671 1205,669.5C 1204.26,663.782 1204.43,658.115 1205.5,652.5 Z"/></g>
<g><path style="opacity:1" fill="#363636" d="M 1462.5,668.5 C 1484.57,667.55 1494.74,677.884 1493,699.5C 1477.83,729.005 1453.66,742.838 1420.5,741C 1414.87,740.259 1409.53,738.593 1404.5,736C 1401.13,732.867 1400.8,729.534 1403.5,726C 1418.37,729.748 1433.03,728.748 1447.5,723C 1435.46,717.752 1430.62,708.586 1433,695.5C 1438.28,681.38 1448.11,672.38 1462.5,668.5 Z"/></g>
<g><path style="opacity:1" fill="#363636" d="M 2047.5,672.5 C 2062.54,670.436 2073.38,676.103 2080,689.5C 2080.98,695.693 2080.32,701.693 2078,707.5C 2062.15,734.343 2038.65,746.843 2007.5,745C 2001.87,744.259 1996.53,742.593 1991.5,740C 1987.41,736.062 1987.58,732.562 1992,729.5C 2006.94,733.89 2021.44,732.723 2035.5,726C 2027.67,724.653 2022.5,720.153 2020,712.5C 2017.92,703.116 2019.92,694.783 2026,687.5C 2031.99,680.659 2039.15,675.659 2047.5,672.5 Z"/></g>
<g><path style="opacity:1" fill="#fafafa" d="M 1465.5,682.5 C 1469.41,682.263 1473.08,683.096 1476.5,685C 1478.3,686.594 1479.3,688.594 1479.5,691C 1475.37,698.811 1470.04,705.811 1463.5,712C 1457.72,713.964 1452.88,712.464 1449,707.5C 1447.58,704.97 1447.25,702.303 1448,699.5C 1452.43,692.234 1458.26,686.567 1465.5,682.5 Z"/></g>
<g><path style="opacity:1" fill="#353535" d="M 1594.5,684.5 C 1617.15,684.101 1624.98,694.768 1618,716.5C 1609.46,727.674 1598.63,730.507 1585.5,725C 1576.7,715.968 1575.2,705.801 1581,694.5C 1584.56,689.756 1589.06,686.423 1594.5,684.5 Z"/></g>
<g><path style="opacity:1" fill="#f9f9f9" d="M 2051.5,686.5 C 2061.08,685.259 2065.58,689.259 2065,698.5C 2060.54,704.625 2055.71,710.458 2050.5,716C 2039.68,718.839 2034.51,714.672 2035,703.5C 2039.36,696.641 2044.86,690.974 2051.5,686.5 Z"/></g>
<g><path style="opacity:1" fill="#373737" d="M 1154.5,694.5 C 1155.65,694.791 1156.32,695.624 1156.5,697C 1154.46,710.706 1146.46,718.04 1132.5,719C 1114.48,721.203 1096.48,723.537 1078.5,726C 1074.67,726.706 1071.01,727.872 1067.5,729.5C 1066.24,719.853 1069.91,712.687 1078.5,708C 1098.07,704.522 1117.74,701.522 1137.5,699C 1143.47,698.18 1149.14,696.68 1154.5,694.5 Z"/></g>
<g><path style="opacity:1" fill="#363636" d="M 2326.5,694.5 C 2328.5,703.991 2324.84,711.158 2315.5,716C 2309.28,717.84 2302.95,719.173 2296.5,720C 2282.79,721.292 2269.12,722.959 2255.5,725C 2249.98,725.88 2244.64,727.38 2239.5,729.5C 2238.23,719.871 2241.9,712.704 2250.5,708C 2270.4,704.476 2290.4,701.476 2310.5,699C 2316.13,698.051 2321.46,696.551 2326.5,694.5 Z"/></g>
<g><path style="opacity:1" fill="#353535" d="M 838.5,700.5 C 853.027,699.866 861.36,706.699 863.5,721C 860.582,738.577 850.249,746.244 832.5,744C 821.266,738.679 817.1,729.845 820,717.5C 823.227,708.432 829.394,702.765 838.5,700.5 Z"/></g>
<g><path style="opacity:1" fill="#353535" d="M 888.5,700.5 C 902.943,699.62 910.943,706.287 912.5,720.5C 910.651,738.499 900.651,746.333 882.5,744C 873.004,740.518 868.337,733.685 868.5,723.5C 870.283,711.395 876.949,703.729 888.5,700.5 Z"/></g>
<g><path style="opacity:1" fill="#363636" d="M 1772.5,713.5 C 1773.5,713.5 1774.5,713.5 1775.5,713.5C 1775.86,722.615 1772.2,729.448 1764.5,734C 1743.02,738.452 1721.35,741.786 1699.5,744C 1695.09,745.018 1690.76,746.185 1686.5,747.5C 1686.22,737.88 1690.22,730.714 1698.5,726C 1719.75,722.475 1741.08,719.475 1762.5,717C 1766.11,716.299 1769.44,715.132 1772.5,713.5 Z"/></g>
<g><path style="opacity:1" fill="#353535" d="M 923.5,749.5 C 933.334,748.501 940.834,752.167 946,760.5C 954.928,776.73 958.261,794.063 956,812.5C 947.291,871.085 914.791,909.585 858.5,928C 828.033,935.634 797.7,935.301 767.5,927C 724.608,908.744 705.775,876.244 711,829.5C 714.724,793.198 733.224,767.698 766.5,753C 776.362,750.582 786.362,749.915 796.5,751C 815.778,757.384 823.278,770.551 819,790.5C 816.464,798.243 811.964,804.576 805.5,809.5C 800.758,800.259 793.425,794.092 783.5,791C 768.145,787.01 754.145,789.677 741.5,799C 729.837,810.675 726.337,824.508 731,840.5C 736.159,854.664 745.326,865.497 758.5,873C 771.557,880.352 785.557,884.685 800.5,886C 835.988,890.228 868.321,882.228 897.5,862C 924.266,838.04 935.432,808.206 931,772.5C 929.548,766.259 926.548,760.925 922,756.5C 921.391,753.935 921.891,751.601 923.5,749.5 Z"/></g>
<g><path style="opacity:1" fill="#353535" d="M 2095.5,749.5 C 2100.98,748.826 2105.98,749.992 2110.5,753C 2115.67,757.186 2119.51,762.353 2122,768.5C 2130.42,792.096 2130.42,815.762 2122,839.5C 2101.39,895.737 2061.22,926.904 2001.5,933C 1969.41,937.641 1940.08,930.974 1913.5,913C 1897.68,900.211 1887.85,883.711 1884,863.5C 1875.78,820.457 1888.94,785.957 1923.5,760C 1937.37,751.45 1952.37,748.45 1968.5,751C 1987.4,756.954 1994.9,769.787 1991,789.5C 1988.79,797.923 1984.13,804.59 1977,809.5C 1972.61,800.116 1965.45,793.949 1955.5,791C 1940.73,787.267 1927.07,789.601 1914.5,798C 1902.7,809.03 1898.53,822.53 1902,838.5C 1906.77,852.933 1915.61,864.1 1928.5,872C 1953.7,884.65 1980.37,889.316 2008.5,886C 2041.56,882.549 2068.06,867.716 2088,841.5C 2102.49,819.39 2107.16,795.39 2102,769.5C 2099.85,763.857 2096.68,758.857 2092.5,754.5C 2093.26,752.64 2094.26,750.973 2095.5,749.5 Z"/></g>
<g><path style="opacity:1" fill="#353535" d="M 1221.5,750.5 C 1238.09,748.981 1253.42,752.481 1267.5,761C 1279.48,771.952 1283.65,785.452 1280,801.5C 1275.56,824.14 1271.56,846.807 1268,869.5C 1271.03,877.194 1276.19,883.028 1283.5,887C 1294.95,893.6 1307.11,897.1 1320,897.5C 1326.72,858.237 1333.05,818.903 1339,779.5C 1339.5,770.506 1339.67,761.506 1339.5,752.5C 1350.52,749.792 1361.52,749.958 1372.5,753C 1377.06,754.627 1379.9,757.794 1381,762.5C 1381.17,769.191 1381.67,775.858 1382.5,782.5C 1409.4,762.364 1439.4,754.864 1472.5,760C 1498.68,766.513 1514.18,783.013 1519,809.5C 1521.09,830.058 1516.92,849.224 1506.5,867C 1511.21,883.025 1521.88,890.025 1538.5,888C 1548.67,883.482 1554.83,875.649 1557,864.5C 1563.52,831.157 1569.02,797.657 1573.5,764C 1573.46,760.779 1573.13,757.612 1572.5,754.5C 1573.09,753.201 1574.09,752.368 1575.5,752C 1586.74,749.471 1597.74,750.138 1608.5,754C 1615.18,760.064 1617.35,767.564 1615,776.5C 1609.89,806.686 1604.72,836.853 1599.5,867C 1601.38,881.211 1609.55,888.711 1624,889.5C 1640.14,888.029 1650.14,879.363 1654,863.5C 1653.62,838.673 1660.29,816.007 1674,795.5C 1691.37,772.826 1714.2,762.992 1742.5,766C 1750.18,767.671 1756.84,771.171 1762.5,776.5C 1771.52,760.663 1785.19,754.497 1803.5,758C 1805.09,758.862 1806.75,759.529 1808.5,760C 1806.37,765.639 1804.87,771.472 1804,777.5C 1801.23,800.627 1797.57,823.627 1793,846.5C 1788.65,867.24 1780.98,886.573 1770,904.5C 1748.19,931.215 1720.69,940.048 1687.5,931C 1674.18,925.018 1665.02,915.184 1660,901.5C 1645.49,916.752 1628.33,920.919 1608.5,914C 1598.43,907.925 1592.26,899.092 1590,887.5C 1575.4,911.886 1554.23,921.053 1526.5,915C 1510.41,907.911 1500.58,895.745 1497,878.5C 1478.48,896.519 1456.65,909.019 1431.5,916C 1390.34,928.218 1348.67,930.551 1306.5,923C 1290.93,919.136 1277.77,911.303 1267,899.5C 1265.08,896.661 1263.41,893.661 1262,890.5C 1256.58,910.462 1247.91,928.796 1236,945.5C 1216.37,967.38 1191.87,976.213 1162.5,972C 1160.25,970.005 1159.25,967.505 1159.5,964.5C 1178.43,964.619 1193.26,956.952 1204,941.5C 1208.51,933.989 1212.34,926.156 1215.5,918C 1186.82,916.417 1163.99,904.25 1147,881.5C 1132.35,849.994 1135.02,819.994 1155,791.5C 1172.24,769.742 1194.41,756.075 1221.5,750.5 Z"/></g>
<g><path style="opacity:1" fill="#fdfdfd" d="M 1227.5,767.5 C 1233.9,766.529 1239.57,768.029 1244.5,772C 1242.71,773.163 1240.71,773.83 1238.5,774C 1237.98,774.561 1237.64,775.228 1237.5,776C 1238.72,785.5 1238.56,795 1237,804.5C 1233.24,832.904 1229.07,861.238 1224.5,889.5C 1195.79,884.078 1181.12,866.744 1180.5,837.5C 1181.4,811.873 1191.73,791.039 1211.5,775C 1216.54,771.643 1221.88,769.143 1227.5,767.5 Z"/></g>
<g><path style="opacity:1" fill="#fdfdfd" d="M 1369.5,901.5 C 1366.61,901.806 1363.95,901.473 1361.5,900.5C 1362.23,897.821 1363.06,895.154 1364,892.5C 1368.35,863.046 1373.35,833.713 1379,804.5C 1396.58,786.974 1417.75,779.14 1442.5,781C 1459.97,785.14 1470.81,795.973 1475,813.5C 1476.48,839.366 1466.98,860.2 1446.5,876C 1423.33,891.778 1397.66,900.278 1369.5,901.5 Z"/></g>
<g><path style="opacity:1" fill="#fdfdfd" d="M 1734.5,786.5 C 1745.27,785.301 1753.44,789.301 1759,798.5C 1760.31,831.96 1752.98,863.293 1737,892.5C 1733.42,896.752 1729.25,900.252 1724.5,903C 1716.39,906.032 1709.55,904.199 1704,897.5C 1697.85,886.301 1695.35,874.301 1696.5,861.5C 1696.23,839.676 1702.06,819.676 1714,801.5C 1719.34,794.313 1726.17,789.313 1734.5,786.5 Z"/></g>
<g><path style="opacity:1" fill="#7b7b7b" d="M 1361.5,900.5 C 1363.95,901.473 1366.61,901.806 1369.5,901.5C 1366.64,902.803 1363.64,902.803 1360.5,901.5C 1360.62,900.893 1360.96,900.56 1361.5,900.5 Z"/></g>
<g><path style="opacity:1" fill="#363636" d="M 1049.5,937.5 C 1069.01,936.179 1077.85,945.179 1076,964.5C 1069.97,978.597 1059.47,983.764 1044.5,980C 1036.83,975.847 1032.83,969.347 1032.5,960.5C 1033.58,949.315 1039.24,941.648 1049.5,937.5 Z"/></g>
<g><path style="opacity:1" fill="#353535" d="M 2221.5,937.5 C 2245.08,937.322 2252.91,948.322 2245,970.5C 2237.65,979.616 2228.15,982.783 2216.5,980C 2206.93,974.658 2203.1,966.492 2205,955.5C 2207.62,946.719 2213.12,940.719 2221.5,937.5 Z"/></g>
<g><path style="opacity:1" fill="#363636" d="M 1878.5,947.5 C 1879.5,947.5 1880.5,947.5 1881.5,947.5C 1881.92,959.193 1876.58,966.693 1865.5,970C 1848.25,972.982 1830.92,975.316 1813.5,977C 1806.38,977.953 1799.55,979.787 1793,982.5C 1791.82,972.033 1795.98,964.533 1805.5,960C 1824.07,956.693 1842.73,954.026 1861.5,952C 1867.52,951.342 1873.18,949.842 1878.5,947.5 Z"/></g>
<g><path style="opacity:1" fill="#353535" d="M 1986.5,952.5 C 2003.96,951.131 2012.46,959.131 2012,976.5C 2008.04,991.065 1998.54,997.565 1983.5,996C 1971.26,991.365 1966.43,982.532 1969,969.5C 1972.12,960.88 1977.95,955.213 1986.5,952.5 Z"/></g>
<g><path style="opacity:1" fill="#373737" d="M 861.5,957.5 C 862.5,957.5 863.5,957.5 864.5,957.5C 864.877,966.558 861.21,973.391 853.5,978C 847.911,979.654 842.244,980.987 836.5,982C 815.651,984.189 794.985,987.355 774.5,991.5C 774.841,978.323 781.507,970.49 794.5,968C 814.912,965.907 835.245,963.24 855.5,960C 857.723,959.434 859.723,958.6 861.5,957.5 Z"/></g>
<g><path style="opacity:1" fill="#363636" d="M 1868.5,993.5 C 1869.83,993.5 1871.17,993.5 1872.5,993.5C 1872.28,999.029 1871.12,1004.36 1869,1009.5C 1867.5,1012.33 1865.33,1014.5 1862.5,1016C 1848.55,1017.24 1834.55,1017.91 1820.5,1018C 1811.11,1019.02 1807.95,1023.85 1811,1032.5C 1825.65,1044.41 1841.98,1047.41 1860,1041.5C 1860.99,1042.43 1861.49,1043.6 1861.5,1045C 1860.79,1052.49 1857.79,1058.83 1852.5,1064C 1850.61,1064.97 1848.61,1065.64 1846.5,1066C 1827.14,1066.11 1807.8,1066.77 1788.5,1068C 1782.08,1069.39 1779.25,1073.23 1780,1079.5C 1782.32,1080.52 1782.82,1082.02 1781.5,1084C 1769.37,1086.21 1763.87,1081.04 1765,1068.5C 1768.41,1058.76 1774.91,1051.92 1784.5,1048C 1792.75,1046.19 1801.08,1044.86 1809.5,1044C 1798.03,1039.84 1793.19,1031.68 1795,1019.5C 1799.41,1007.42 1807.91,999.923 1820.5,997C 1831.5,996.667 1842.5,996.333 1853.5,996C 1858.73,995.704 1863.73,994.871 1868.5,993.5 Z"/></g>
<g><path style="opacity:1" fill="#353535" d="M 1287.5,1040.5 C 1295.21,1040.29 1302.88,1040.79 1310.5,1042C 1316.16,1043 1319.99,1046.16 1322,1051.5C 1322.74,1059.87 1322.41,1068.21 1321,1076.5C 1309.51,1139.78 1298.35,1203.11 1287.5,1266.5C 1288.92,1278.09 1295.26,1285.59 1306.5,1289C 1325.59,1290.57 1337.42,1282.07 1342,1263.5C 1341.42,1238.15 1348.42,1215.15 1363,1194.5C 1377.11,1176.52 1395.61,1166.52 1418.5,1164.5C 1430.64,1164.77 1441.31,1168.77 1450.5,1176.5C 1457.75,1162.78 1469.25,1156.45 1485,1157.5C 1489.08,1157.27 1492.91,1158.11 1496.5,1160C 1491.8,1179.9 1488.3,1200.07 1486,1220.5C 1482.42,1236.08 1479.75,1251.74 1478,1267.5C 1484.41,1287.89 1497.24,1293.39 1516.5,1284C 1526.29,1276.59 1532.13,1266.76 1534,1254.5C 1534.2,1221.49 1534.87,1188.49 1536,1155.5C 1536.83,1153.33 1538.33,1151.83 1540.5,1151C 1550.54,1150.2 1560.54,1150.54 1570.5,1152C 1574.33,1153.17 1576.83,1155.67 1578,1159.5C 1578.67,1164.17 1578.67,1168.83 1578,1173.5C 1572.07,1201.21 1569.4,1229.21 1570,1257.5C 1570.74,1267.73 1574.57,1276.57 1581.5,1284C 1593.2,1291.52 1603.03,1289.69 1611,1278.5C 1616.53,1267.72 1620.53,1256.39 1623,1244.5C 1629,1214.12 1632.17,1183.45 1632.5,1152.5C 1641.39,1150.57 1650.39,1150.07 1659.5,1151C 1672.97,1154.76 1678.14,1163.6 1675,1177.5C 1667.89,1205.75 1664.55,1234.41 1665,1263.5C 1665.24,1273.95 1669.74,1281.79 1678.5,1287C 1688.66,1290.5 1696.5,1287.67 1702,1278.5C 1715.55,1253.44 1721.71,1226.61 1720.5,1198C 1720.25,1183.37 1719.09,1168.87 1717,1154.5C 1726.09,1149.26 1735.09,1149.26 1744,1154.5C 1745.28,1156.72 1746.28,1159.05 1747,1161.5C 1749.4,1203.9 1740.73,1243.9 1721,1281.5C 1713.11,1296.39 1701.61,1307.55 1686.5,1315C 1656.62,1321.64 1636.62,1310.47 1626.5,1281.5C 1619.1,1292.73 1610.1,1302.57 1599.5,1311C 1581.94,1320.57 1565.28,1319.24 1549.5,1307C 1545.58,1303.75 1542.41,1299.92 1540,1295.5C 1525.13,1318.01 1505.97,1322.84 1482.5,1310C 1475.24,1304.07 1470.41,1296.57 1468,1287.5C 1451.96,1320.61 1425.46,1336.45 1388.5,1335C 1369.01,1331.01 1355.51,1319.85 1348,1301.5C 1330.87,1319.25 1311.7,1322.09 1290.5,1310C 1284.02,1303.87 1280.02,1296.37 1278.5,1287.5C 1266.08,1308.38 1247.75,1318.21 1223.5,1317C 1218.67,1314.87 1218.34,1312.2 1222.5,1309C 1228.2,1308.07 1232.7,1305.23 1236,1300.5C 1239.32,1294.88 1241.65,1288.88 1243,1282.5C 1254.41,1210.66 1266.74,1138.99 1280,1067.5C 1280.81,1059.59 1280.65,1051.75 1279.5,1044C 1282.23,1042.83 1284.9,1041.66 1287.5,1040.5 Z"/></g>
<g><path style="opacity:1" fill="#353535" d="M 1886.5,1040.5 C 1893.51,1040.33 1900.51,1040.5 1907.5,1041C 1918.71,1043.25 1923.71,1050.08 1922.5,1061.5C 1912.85,1121.23 1902.68,1180.89 1892,1240.5C 1887.01,1271.8 1876.68,1301.14 1861,1328.5C 1836.23,1364.65 1802.4,1377.82 1759.5,1368C 1757.33,1367.17 1755.83,1365.67 1755,1363.5C 1753.77,1358.97 1754.61,1354.97 1757.5,1351.5C 1787.14,1356.49 1810.97,1347.15 1829,1323.5C 1839.94,1306.01 1846.94,1287.01 1850,1266.5C 1859.81,1199.8 1869.81,1133.14 1880,1066.5C 1880.81,1058.92 1880.65,1051.42 1879.5,1044C 1881.71,1042.38 1884.05,1041.22 1886.5,1040.5 Z"/></g>
<g><path style="opacity:1" fill="#353535" d="M 1965.5,1040.5 C 1973.22,1040.24 1980.89,1040.74 1988.5,1042C 1997.88,1044.59 2001.88,1050.76 2000.5,1060.5C 1990.55,1132.4 1979.05,1204.07 1966,1275.5C 1961.99,1292.71 1953.49,1307.21 1940.5,1319C 1928.17,1328.06 1914.5,1331.4 1899.5,1329C 1898.02,1326.41 1898.35,1324.07 1900.5,1322C 1906.2,1321.07 1910.7,1318.23 1914,1313.5C 1917.11,1308.19 1919.44,1302.52 1921,1296.5C 1933.2,1220.48 1945.54,1144.48 1958,1068.5C 1958.5,1059.84 1958.67,1051.17 1958.5,1042.5C 1961.15,1042.59 1963.49,1041.92 1965.5,1040.5 Z"/></g>
<g><path style="opacity:1" fill="#363636" d="M 1628.5,1064.5 C 1632.48,1066 1636.64,1066.67 1641,1066.5C 1651.1,1064.8 1661.26,1064.3 1671.5,1065C 1690.18,1070.86 1697.02,1083.36 1692,1102.5C 1683.93,1123.05 1668.76,1133.71 1646.5,1134.5C 1623.34,1131.5 1613.84,1118.5 1618,1095.5C 1618.76,1092.8 1619.93,1090.3 1621.5,1088C 1624.35,1087.06 1626.85,1087.56 1629,1089.5C 1628.52,1094.11 1628.02,1098.78 1627.5,1103.5C 1627.28,1112.45 1631.62,1117.62 1640.5,1119C 1654.68,1120.61 1666.51,1116.11 1676,1105.5C 1680.03,1098.57 1679.2,1092.4 1673.5,1087C 1668.7,1085.07 1663.7,1084.23 1658.5,1084.5C 1651.63,1084.74 1644.79,1085.41 1638,1086.5C 1629.21,1087.2 1625.37,1083.2 1626.5,1074.5C 1626.4,1070.97 1627.07,1067.64 1628.5,1064.5 Z"/></g>
<g><path style="opacity:1" fill="#343434" d="M 1796.5,1084.5 C 1805.25,1084.09 1813.92,1084.59 1822.5,1086C 1830.01,1088.84 1833.68,1094.34 1833.5,1102.5C 1823.84,1162.25 1813.68,1221.92 1803,1281.5C 1800.42,1294.87 1803.59,1306.53 1812.5,1316.5C 1803.3,1319.61 1793.96,1320.11 1784.5,1318C 1777.14,1315.3 1772.64,1310.14 1771,1302.5C 1769.99,1298.4 1769.49,1294.24 1769.5,1290C 1775.07,1236.43 1781.23,1182.93 1788,1129.5C 1789.8,1115.23 1790.8,1100.89 1791,1086.5C 1792.95,1085.89 1794.78,1085.22 1796.5,1084.5 Z"/></g>
<g><path style="opacity:1" fill="#363636" d="M 1460.5,1113.5 C 1461.83,1113.5 1463.17,1113.5 1464.5,1113.5C 1463.93,1122.49 1459.93,1129.32 1452.5,1134C 1446.62,1135.82 1440.62,1137.15 1434.5,1138C 1414.24,1139.77 1394.24,1142.93 1374.5,1147.5C 1374.23,1137.86 1378.23,1130.69 1386.5,1126C 1407.75,1122.47 1429.08,1119.47 1450.5,1117C 1454.11,1116.3 1457.44,1115.13 1460.5,1113.5 Z"/></g>
<g><path style="opacity:1" fill="#353535" d="M 1084.5,1276.5 C 1088.23,1276.82 1091.89,1276.49 1095.5,1275.5C 1095.38,1274.89 1095.04,1274.56 1094.5,1274.5C 1070.87,1265.58 1062.37,1248.92 1069,1224.5C 1078.4,1203.45 1094.57,1190.95 1117.5,1187C 1122.87,1186.6 1128.2,1185.93 1133.5,1185C 1153.5,1184.67 1173.5,1184.33 1193.5,1184C 1199.69,1182.55 1205.86,1181.05 1212,1179.5C 1213.89,1195.82 1209.06,1209.65 1197.5,1221C 1193.91,1222.53 1190.24,1223.86 1186.5,1225C 1161.46,1225.06 1136.46,1225.72 1111.5,1227C 1092.18,1233.39 1089.51,1243.72 1103.5,1258C 1130.79,1275.6 1160.12,1280.1 1191.5,1271.5C 1191.41,1284.51 1187.91,1296.51 1181,1307.5C 1174.99,1313.17 1167.82,1316.34 1159.5,1317C 1126.16,1317.36 1092.83,1318.03 1059.5,1319C 1053.69,1319.82 1048.36,1321.82 1043.5,1325C 1037.81,1330.52 1037.14,1336.52 1041.5,1343C 1046,1344.6 1046,1346.94 1041.5,1350C 1027.04,1354.69 1017.21,1349.86 1012,1335.5C 1010.56,1316.88 1017.39,1302.05 1032.5,1291C 1048.27,1280.89 1065.61,1276.05 1084.5,1276.5 Z"/></g>
<g><path style="opacity:1" fill="#fdfdfd" d="M 1422.5,1186.5 C 1433.8,1185.4 1442.3,1189.73 1448,1199.5C 1447.42,1224.81 1443.09,1249.47 1435,1273.5C 1431.17,1284.35 1425.01,1293.51 1416.5,1301C 1408.01,1306.17 1400.18,1305.33 1393,1298.5C 1386.23,1287.65 1383.4,1275.82 1384.5,1263C 1383.74,1237.35 1391.4,1214.69 1407.5,1195C 1411.99,1191.09 1416.99,1188.26 1422.5,1186.5 Z"/></g>
<g><path style="opacity:1" fill="#9e9e9e" d="M 1094.5,1274.5 C 1095.04,1274.56 1095.38,1274.89 1095.5,1275.5C 1091.89,1276.49 1088.23,1276.82 1084.5,1276.5C 1087.83,1275.83 1091.17,1275.17 1094.5,1274.5 Z"/></g>
<g><path style="opacity:1" fill="#ffb34f" d="M 1101.5,1999.5 C 734.167,1999.5 366.833,1999.5 -0.5,1999.5C -0.5,1793.5 -0.5,1587.5 -0.5,1381.5C 23.5099,1401.18 50.5099,1415.68 80.5,1425C 126.826,1438.38 170.826,1433.05 212.5,1409C 239.875,1391.63 265.542,1371.97 289.5,1350C 306.293,1336.44 323.96,1324.1 342.5,1313C 384.517,1290.59 427.517,1288.59 471.5,1307C 540.159,1339.67 570.326,1393.84 562,1469.5C 557.506,1492.81 550.839,1515.48 542,1537.5C 530.448,1563.94 519.448,1590.6 509,1617.5C 500.522,1641.27 496.022,1665.77 495.5,1691C 494.643,1719.08 501.143,1745.24 515,1769.5C 537.832,1800.58 568.666,1814.08 607.5,1810C 628.139,1807.12 648.139,1801.79 667.5,1794C 769.067,1750.22 870.401,1705.88 971.5,1661C 994.385,1650.93 1018.05,1643.26 1042.5,1638C 1058.44,1635.16 1074.44,1634.82 1090.5,1637C 1131.53,1645.73 1152.53,1671.06 1153.5,1713C 1152.17,1739.81 1145.01,1764.98 1132,1788.5C 1115.66,1814.51 1100.32,1841.18 1086,1868.5C 1066.86,1915.04 1072.03,1958.7 1101.5,1999.5 Z"/></g>
<g><path style="opacity:1" fill="#184266" d="M 2999.5,1399.5 C 2999.5,1599.5 2999.5,1799.5 2999.5,1999.5C 2788.17,1999.5 2576.83,1999.5 2365.5,1999.5C 2371.39,1993.55 2377.72,1988.05 2384.5,1983C 2409.55,1964.28 2434.89,1945.95 2460.5,1928C 2588.25,1825.79 2676.75,1696.29 2726,1539.5C 2735.64,1504.23 2746.31,1469.23 2758,1434.5C 2762.45,1422.27 2767.45,1410.27 2773,1398.5C 2783.27,1376.45 2797.1,1356.95 2814.5,1340C 2832.28,1324.79 2852.95,1316.96 2876.5,1316.5C 2904.44,1318.76 2929.1,1328.92 2950.5,1347C 2968.85,1362.84 2985.18,1380.34 2999.5,1399.5 Z"/></g>
<g><path style="opacity:1" fill="#363636" d="M 1063.5,1368.5 C 1062.54,1366.74 1062.21,1364.74 1062.5,1362.5C 1064.93,1352.59 1071.26,1346.76 1081.5,1345C 1105.1,1342.97 1128.43,1339.47 1151.5,1334.5C 1151.88,1343.56 1148.21,1350.39 1140.5,1355C 1119.07,1359.72 1097.4,1363.05 1075.5,1365C 1071.32,1365.67 1067.32,1366.84 1063.5,1368.5 Z"/></g>
<g><path style="opacity:1" fill="#184266" d="M 2635.5,1355.5 C 2659.4,1352.7 2676.57,1362.03 2687,1383.5C 2695.03,1401.97 2699.36,1421.3 2700,1441.5C 2702.71,1533.69 2676.71,1616.69 2622,1690.5C 2601.33,1718.51 2577.83,1744.01 2551.5,1767C 2519.6,1794.28 2482.94,1811.95 2441.5,1820C 2397.39,1825.31 2357.39,1814.97 2321.5,1789C 2305.35,1777 2290.52,1763.5 2277,1748.5C 2256.78,1726.73 2242.78,1701.4 2235,1672.5C 2225.71,1622.16 2244.54,1586.99 2291.5,1567C 2311.05,1559.78 2331.05,1554.11 2351.5,1550C 2430.95,1526.71 2498.45,1484.54 2554,1423.5C 2570.87,1400.96 2590.71,1381.46 2613.5,1365C 2620.6,1360.94 2627.93,1357.78 2635.5,1355.5 Z"/></g>
<g><path style="opacity:1" fill="#999999" d="M 1062.5,1362.5 C 1062.21,1364.74 1062.54,1366.74 1063.5,1368.5C 1063.44,1369.04 1063.11,1369.38 1062.5,1369.5C 1061.2,1367.03 1061.2,1364.69 1062.5,1362.5 Z"/></g>
<g><path style="opacity:1" fill="#184266" d="M 2307.5,1999.5 C 2211.5,1999.5 2115.5,1999.5 2019.5,1999.5C 2019.11,1969.07 2023.61,1939.41 2033,1910.5C 2048.73,1863.52 2078.89,1829.36 2123.5,1808C 2162.54,1792.73 2202.88,1788.06 2244.5,1794C 2273.33,1796.94 2299.33,1806.94 2322.5,1824C 2343.09,1841.18 2353.76,1863.18 2354.5,1890C 2353.4,1910.87 2347.57,1930.37 2337,1948.5C 2327.15,1965.53 2317.32,1982.53 2307.5,1999.5 Z"/></g>
</svg>
