<?xml version="1.0" encoding="UTF-8"?>
<!DOCTYPE svg PUBLIC "-//W3C//DTD SVG 1.1//EN" "http://www.w3.org/Graphics/SVG/1.1/DTD/svg11.dtd">
<svg xmlns="http://www.w3.org/2000/svg" version="1.1" width="3000px" height="2000px" style="shape-rendering:geometricPrecision; text-rendering:geometricPrecision; image-rendering:optimizeQuality; fill-rule:evenodd; clip-rule:evenodd" xmlns:xlink="http://www.w3.org/1999/xlink">
<g><path style="opacity:1" fill="#fefefe" d="M -0.5,-0.5 C 267.167,-0.5 534.833,-0.5 802.5,-0.5C 801.56,8.91618 803.06,17.9162 807,26.5C 811.601,35.425 816.601,44.0917 822,52.5C 831.608,66.7255 844.774,72.2255 861.5,69C 870.705,65.1299 876.205,58.2966 878,48.5C 879.298,39.5434 878.298,30.8767 875,22.5C 871.329,14.4865 867.163,6.81987 862.5,-0.5C 887.833,-0.5 913.167,-0.5 938.5,-0.5C 936.139,7.44803 935.972,15.448 938,23.5C 941.889,34.4978 946.556,45.1645 952,55.5C 958.815,68.9792 969.648,76.6459 984.5,78.5C 999.138,77.0335 1007.97,69.0335 1011,54.5C 1012.08,46.2399 1011.08,38.2399 1008,30.5C 1003.87,19.5823 998.708,9.24898 992.5,-0.5C 1020.83,-0.5 1049.17,-0.5 1077.5,-0.5C 1080.85,6.6886 1085.85,12.5219 1092.5,17C 1099.71,22.1069 1107.38,26.4402 1115.5,30C 1126.2,32.6154 1135.37,30.1154 1143,22.5C 1147.43,14.8849 1147.6,7.21821 1143.5,-0.5C 1326.17,-0.5 1508.83,-0.5 1691.5,-0.5C 1717.85,42.1935 1746.69,83.1935 1778,122.5C 1819.44,173.286 1863.11,222.286 1909,269.5C 2017.85,378.059 2132.35,479.559 2252.5,574C 2302.6,611.888 2354.27,647.554 2407.5,681C 2429.67,694.252 2452,707.252 2474.5,720C 2398.89,837.179 2381.06,962.679 2421,1096.5C 2427.76,1118.61 2435.59,1140.28 2444.5,1161.5C 2329.7,1209.06 2221.03,1267.22 2118.5,1336C 2061.68,1375.4 2009.51,1420.56 1962,1471.5C 1913.62,1525.54 1876.96,1586.88 1852,1655.5C 1821.54,1749 1822.2,1842.33 1854,1935.5C 1861.35,1957.2 1869.52,1978.53 1878.5,1999.5C 1458.17,1999.5 1037.83,1999.5 617.5,1999.5C 619.66,1966.13 614.16,1934.13 601,1903.5C 575.667,1852.42 535.167,1832.92 479.5,1845C 445.565,1858.6 421.065,1882.1 406,1915.5C 394.769,1942.36 388.603,1970.36 387.5,1999.5C 258.167,1999.5 128.833,1999.5 -0.5,1999.5C -0.5,1910.83 -0.5,1822.17 -0.5,1733.5C 26.2146,1730.87 50.8813,1722.37 73.5,1708C 100.051,1691.13 123.217,1670.29 143,1645.5C 172.063,1609.43 198.396,1571.43 222,1531.5C 241.131,1497.61 251.631,1461.28 253.5,1422.5C 252.959,1371.56 231.292,1332.73 188.5,1306C 139.723,1283.9 91.7232,1285.57 44.5,1311C 28.4215,1320.03 13.4215,1330.53 -0.5,1342.5C -0.5,894.833 -0.5,447.167 -0.5,-0.5 Z"/></g>
<g><path style="opacity:1" fill="#ffb34f" d="M 802.5,-0.5 C 822.5,-0.5 842.5,-0.5 862.5,-0.5C 867.163,6.81987 871.329,14.4865 875,22.5C 878.298,30.8767 879.298,39.5434 878,48.5C 876.205,58.2966 870.705,65.1299 861.5,69C 844.774,72.2255 831.608,66.7255 822,52.5C 816.601,44.0917 811.601,35.425 807,26.5C 803.06,17.9162 801.56,8.91618 802.5,-0.5 Z"/></g>
<g><path style="opacity:1" fill="#ffb350" d="M 938.5,-0.5 C 956.5,-0.5 974.5,-0.5 992.5,-0.5C 998.708,9.24898 1003.87,19.5823 1008,30.5C 1011.08,38.2399 1012.08,46.2399 1011,54.5C 1007.97,69.0335 999.138,77.0335 984.5,78.5C 969.648,76.6459 958.815,68.9792 952,55.5C 946.556,45.1645 941.889,34.4978 938,23.5C 935.972,15.448 936.139,7.44803 938.5,-0.5 Z"/></g>
<g><path style="opacity:1" fill="#ffb350" d="M 1077.5,-0.5 C 1099.5,-0.5 1121.5,-0.5 1143.5,-0.5C 1147.6,7.21821 1147.43,14.8849 1143,22.5C 1135.37,30.1154 1126.2,32.6154 1115.5,30C 1107.38,26.4402 1099.71,22.1069 1092.5,17C 1085.85,12.5219 1080.85,6.6886 1077.5,-0.5 Z"/></g>
<g><path style="opacity:1" fill="#184266" d="M 1691.5,-0.5 C 1837.83,-0.5 1984.17,-0.5 2130.5,-0.5C 2170.44,64.2845 2215.6,125.284 2266,182.5C 2335.3,259.797 2409.13,332.297 2487.5,400C 2539.92,445.086 2592.92,489.419 2646.5,533C 2737.06,604.845 2833.06,668.845 2934.5,725C 2956.19,735.847 2977.86,746.68 2999.5,757.5C 2999.5,870.5 2999.5,983.5 2999.5,1096.5C 2966.72,1105.15 2934.39,1115.32 2902.5,1127C 2797.07,1167.55 2695.4,1215.88 2597.5,1272C 2528.24,1312.3 2463.57,1358.96 2403.5,1412C 2361.1,1451.04 2323.93,1494.21 2292,1541.5C 2214.02,1662.07 2195.02,1791.41 2235,1929.5C 2242.62,1953.19 2251.12,1976.52 2260.5,1999.5C 2133.17,1999.5 2005.83,1999.5 1878.5,1999.5C 1869.52,1978.53 1861.35,1957.2 1854,1935.5C 1822.2,1842.33 1821.54,1749 1852,1655.5C 1876.96,1586.88 1913.62,1525.54 1962,1471.5C 2009.51,1420.56 2061.68,1375.4 2118.5,1336C 2221.03,1267.22 2329.7,1209.06 2444.5,1161.5C 2435.59,1140.28 2427.76,1118.61 2421,1096.5C 2381.06,962.679 2398.89,837.179 2474.5,720C 2452,707.252 2429.67,694.252 2407.5,681C 2354.27,647.554 2302.6,611.888 2252.5,574C 2132.35,479.559 2017.85,378.059 1909,269.5C 1863.11,222.286 1819.44,173.286 1778,122.5C 1746.69,83.1935 1717.85,42.1935 1691.5,-0.5 Z"/></g>
<g><path style="opacity:1" fill="#fcb14f" d="M 2130.5,-0.5 C 2145.5,-0.5 2160.5,-0.5 2175.5,-0.5C 2206.93,51.1126 2242.1,100.113 2281,146.5C 2342.16,219.012 2407,288.512 2475.5,355C 2541.71,418.553 2609.71,479.887 2679.5,539C 2746.09,593.922 2815.75,644.588 2888.5,691C 2924.63,712.73 2961.63,732.897 2999.5,751.5C 2999.5,753.5 2999.5,755.5 2999.5,757.5C 2977.86,746.68 2956.19,735.847 2934.5,725C 2833.06,668.845 2737.06,604.845 2646.5,533C 2592.92,489.419 2539.92,445.086 2487.5,400C 2409.13,332.297 2335.3,259.797 2266,182.5C 2215.6,125.284 2170.44,64.2845 2130.5,-0.5 Z"/></g>
<g><path style="opacity:1" fill="#184265" d="M 2175.5,-0.5 C 2450.17,-0.5 2724.83,-0.5 2999.5,-0.5C 2999.5,250.167 2999.5,500.833 2999.5,751.5C 2961.63,732.897 2924.63,712.73 2888.5,691C 2815.75,644.588 2746.09,593.922 2679.5,539C 2609.71,479.887 2541.71,418.553 2475.5,355C 2407,288.512 2342.16,219.012 2281,146.5C 2242.1,100.113 2206.93,51.1126 2175.5,-0.5 Z"/></g>
<g><path style="opacity:1" fill="#ffb350" d="M 1171.5,81.5 C 1182.26,81.1901 1192.92,82.0235 1203.5,84C 1224.33,88.7416 1231.17,100.908 1224,120.5C 1217.01,127.545 1208.51,130.878 1198.5,130.5C 1184.94,130.634 1172.27,127.467 1160.5,121C 1149.05,109.912 1148.72,98.5784 1159.5,87C 1163.23,84.2986 1167.23,82.4653 1171.5,81.5 Z"/></g>
<g><path style="opacity:1" fill="#ffb350" d="M 1082.5,90.5 C 1104.74,90.6556 1112.57,101.322 1106,122.5C 1096.79,137.719 1083.95,148.552 1067.5,155C 1051.41,156.976 1042.74,149.976 1041.5,134C 1041.69,127.426 1043.86,121.593 1048,116.5C 1057.75,105.212 1069.25,96.545 1082.5,90.5 Z"/></g>
<g><path style="opacity:1" fill="#ffb34f" d="M 202.5,160.5 C 242.357,158.618 275.857,172.285 303,201.5C 319.001,220.143 332.001,240.81 342,263.5C 354.449,292.399 365.783,321.732 376,351.5C 383.969,379.103 385.636,407.103 381,435.5C 374.815,467.978 357.982,493.145 330.5,511C 293.687,529.281 258.02,527.281 223.5,505C 196.234,484.985 175.734,459.485 162,428.5C 146.64,395.753 133.64,362.086 123,327.5C 116.551,301.808 114.885,275.808 118,249.5C 127.373,201.634 155.54,171.968 202.5,160.5 Z"/></g>
<g><path style="opacity:1" fill="#ffb34f" d="M 452.5,723.5 C 480.546,722.966 508.546,723.8 536.5,726C 575.593,730.725 610.593,745.059 641.5,769C 692.876,816.143 703.042,870.976 672,933.5C 653.578,963.125 628.412,984.958 596.5,999C 568.009,1011.21 538.343,1018.87 507.5,1022C 479.176,1024.14 450.843,1026.14 422.5,1028C 381.839,1032.29 342.173,1027.96 303.5,1015C 266.409,1002.07 237.243,979.233 216,946.5C 186.098,888.734 193.265,836.234 237.5,789C 272.018,758.248 312.351,739.581 358.5,733C 389.878,728.725 421.212,725.558 452.5,723.5 Z"/></g>
<g><path style="opacity:1" fill="#373737" d="M 1507.5,762.5 C 1514.18,762.763 1519.35,765.763 1523,771.5C 1536.03,792.715 1531.2,807.882 1508.5,817C 1503.17,817.667 1497.83,817.667 1492.5,817C 1488.83,815.332 1486.67,812.499 1486,808.5C 1483.79,788.598 1490.96,773.264 1507.5,762.5 Z"/></g>
<g><path style="opacity:1" fill="#fafafa" d="M 1504.5,777.5 C 1512.24,778.399 1517.07,782.733 1519,790.5C 1520.76,797.76 1517.93,802.26 1510.5,804C 1494.57,804.102 1490.41,797.268 1498,783.5C 1500.06,781.266 1502.23,779.266 1504.5,777.5 Z"/></g>
<g><path style="opacity:1" fill="#373737" d="M 1380.5,799.5 C 1391.95,797.301 1399.45,801.634 1403,812.5C 1403.5,817.489 1403.67,822.489 1403.5,827.5C 1406.9,827.18 1410.23,827.513 1413.5,828.5C 1412.8,831.28 1411.8,833.947 1410.5,836.5C 1406.83,837.167 1403.17,837.833 1399.5,838.5C 1391.15,855.675 1377.48,863.508 1358.5,862C 1355.46,859.297 1352.8,856.297 1350.5,853C 1365.37,852.492 1378.53,847.658 1390,838.5C 1390.59,837.517 1390.26,836.85 1389,836.5C 1383.32,835.498 1378.16,833.331 1373.5,830C 1365,817.337 1367.33,807.17 1380.5,799.5 Z"/></g>
<g><path style="opacity:1" fill="#f4f4f4" d="M 1381.5,811.5 C 1392.17,810.833 1397.17,815.833 1396.5,826.5C 1388.49,826.454 1382.15,823.288 1377.5,817C 1378.65,815.019 1379.98,813.186 1381.5,811.5 Z"/></g>
<g><path style="opacity:1" fill="#363636" d="M 1189.5,821.5 C 1190.83,821.5 1192.17,821.5 1193.5,821.5C 1193.3,831.569 1195.13,841.236 1199,850.5C 1200.21,853.759 1202.04,856.592 1204.5,859C 1201.34,861.416 1198,863.582 1194.5,865.5C 1194.17,869.5 1193.83,873.5 1193.5,877.5C 1194.74,914.518 1196.4,951.518 1198.5,988.5C 1196.09,1020.51 1180.75,1044.01 1152.5,1059C 1134.98,1067.18 1116.98,1068.51 1098.5,1063C 1081.26,1055.03 1072.09,1041.53 1071,1022.5C 1070.04,999.366 1076.71,978.7 1091,960.5C 1092.36,961.893 1093.2,963.559 1093.5,965.5C 1089.76,974.208 1086.93,983.208 1085,992.5C 1081.55,1009.9 1086.05,1024.73 1098.5,1037C 1103.66,1040.5 1109.33,1042.83 1115.5,1044C 1135.01,1047.2 1153.01,1043.53 1169.5,1033C 1179.45,1025.6 1183.78,1015.77 1182.5,1003.5C 1180.54,960.467 1178.04,917.467 1175,874.5C 1174,861.175 1173.67,847.842 1174,834.5C 1175.62,832.759 1177.12,830.925 1178.5,829C 1182.23,826.477 1185.9,823.977 1189.5,821.5 Z"/></g>
<g><path style="opacity:1" fill="#363636" d="M 1728.5,821.5 C 1729.5,821.5 1730.5,821.5 1731.5,821.5C 1731.87,835.429 1735.87,848.096 1743.5,859.5C 1740.37,862.132 1736.87,864.132 1733,865.5C 1732.64,898.183 1732.97,930.849 1734,963.5C 1724.28,1008.44 1697.78,1023.27 1654.5,1008C 1651.7,1006.21 1649.2,1004.04 1647,1001.5C 1644.58,1006.91 1641.08,1011.41 1636.5,1015C 1612.39,1023.19 1594.55,1016.02 1583,993.5C 1568.9,1013.08 1550.07,1019.58 1526.5,1013C 1514.96,1010.6 1504.13,1006.43 1494,1000.5C 1455.7,1021.25 1419.04,1018.92 1384,993.5C 1358.54,1007.16 1331.37,1014.16 1302.5,1014.5C 1301.02,1049.98 1283.02,1071.98 1248.5,1080.5C 1236.75,1078.2 1225.75,1074.03 1215.5,1068C 1214.62,1066.64 1214.29,1065.14 1214.5,1063.5C 1238.7,1065.17 1259.86,1058.17 1278,1042.5C 1284.9,1033.99 1289.4,1024.32 1291.5,1013.5C 1274.75,1014.98 1259.41,1011.15 1245.5,1002C 1237,993.151 1234.17,982.651 1237,970.5C 1238.09,956.823 1243.59,945.323 1253.5,936C 1266.47,930.199 1277.63,932.699 1287,943.5C 1297.08,958.233 1302.24,974.566 1302.5,992.5C 1325.35,993.046 1347.35,989.046 1368.5,980.5C 1357.15,968.756 1344.32,959.089 1330,951.5C 1331.65,944.364 1334.82,937.864 1339.5,932C 1372.18,923.357 1404.85,923.523 1437.5,932.5C 1436.31,940.57 1433.81,948.237 1430,955.5C 1421.76,965.746 1412.26,974.58 1401.5,982C 1426.92,993.881 1452.92,995.548 1479.5,987C 1467.18,972.535 1464.34,956.368 1471,938.5C 1474.87,928.311 1480.7,919.477 1488.5,912C 1504.58,901.304 1518.08,903.804 1529,919.5C 1534.76,929.756 1535.76,940.423 1532,951.5C 1527.69,963.456 1521.36,974.122 1513,983.5C 1512.54,984.744 1513.04,985.577 1514.5,986C 1531.52,992.298 1548.85,993.631 1566.5,990C 1570.92,987.588 1574.75,984.422 1578,980.5C 1584.66,967.344 1593.16,955.51 1603.5,945C 1618.66,933.76 1632.16,935.593 1644,950.5C 1650.03,959.229 1655.03,968.562 1659,978.5C 1665.67,988.999 1675.33,993.665 1688,992.5C 1696.1,992.413 1703.93,990.913 1711.5,988C 1719.89,984.161 1722.89,977.661 1720.5,968.5C 1719.25,944.123 1717.42,919.79 1715,895.5C 1713.63,875.179 1712.97,854.846 1713,834.5C 1717.43,829.233 1722.6,824.899 1728.5,821.5 Z"/></g>
<g><path style="opacity:1" fill="#363636" d="M 1779.5,1018.5 C 1777.85,1012.74 1776.85,1006.74 1776.5,1000.5C 1775.07,945.455 1772.9,890.455 1770,835.5C 1775.07,828.267 1781.9,823.601 1790.5,821.5C 1790.59,875.171 1790.76,928.837 1791,982.5C 1789.32,990.572 1787.32,998.572 1785,1006.5C 1783.62,1010.85 1781.79,1014.85 1779.5,1018.5 Z"/></g>
<g><path style="opacity:1" fill="#363636" d="M 2107.5,821.5 C 2108.5,821.5 2109.5,821.5 2110.5,821.5C 2110.19,869.52 2111.02,917.52 2113,965.5C 2113.99,972.149 2115.99,978.483 2119,984.5C 2123.91,990.454 2130.25,993.121 2138,992.5C 2153.21,992.406 2167.71,989.239 2181.5,983C 2182.67,981.833 2183.83,980.667 2185,979.5C 2185.13,963.694 2181.63,948.694 2174.5,934.5C 2177.61,926.635 2182.44,919.969 2189,914.5C 2191.24,918.223 2192.91,922.223 2194,926.5C 2198.41,942.653 2199.41,958.986 2197,975.5C 2188.7,993.803 2174.86,1005.64 2155.5,1011C 2142.19,1014.83 2128.85,1015.17 2115.5,1012C 2108.27,1009.1 2103.44,1003.93 2101,996.5C 2099.24,989.921 2097.9,983.254 2097,976.5C 2096.27,930.396 2093.77,884.396 2089.5,838.5C 2093.58,830.757 2099.58,825.091 2107.5,821.5 Z"/></g>
<g><path style="opacity:1" fill="#383838" d="M 2210.5,824.5 C 2211.65,824.791 2212.32,825.624 2212.5,827C 2211.62,831.182 2210.29,835.182 2208.5,839C 2189.51,848.155 2171.51,858.822 2154.5,871C 2153.55,871.617 2152.72,871.451 2152,870.5C 2151.33,868.167 2151.33,865.833 2152,863.5C 2161.89,852.631 2173.39,843.797 2186.5,837C 2194.72,833.059 2202.72,828.892 2210.5,824.5 Z"/></g>
<g><path style="opacity:1" fill="#373737" d="M 1955.5,827.5 C 1965.09,827.038 1971.25,831.371 1974,840.5C 1974.5,845.823 1974.67,851.156 1974.5,856.5C 1977.85,856.335 1981.18,856.502 1984.5,857C 1983.59,859.447 1982.76,861.947 1982,864.5C 1978.59,865.293 1975.09,865.793 1971.5,866C 1963.3,883.266 1949.64,891.6 1930.5,891C 1926.64,888.642 1923.64,885.475 1921.5,881.5C 1934.1,880.936 1945.76,877.436 1956.5,871C 1958.35,869.316 1960.02,867.483 1961.5,865.5C 1955.81,864.151 1950.47,861.984 1945.5,859C 1937.01,849.078 1937.67,839.745 1947.5,831C 1950.16,829.522 1952.82,828.355 1955.5,827.5 Z"/></g>
<g><path style="opacity:1" fill="#fdb24f" d="M 2804.5,834.5 C 2816.56,835.097 2828.56,836.263 2840.5,838C 2822.09,892.031 2815.59,947.531 2821,1004.5C 2823.59,1024.93 2826.75,1045.26 2830.5,1065.5C 2818.91,1065.76 2807.41,1065.76 2796,1065.5C 2778.28,987.691 2781.11,910.691 2804.5,834.5 Z"/></g>
<g><path style="opacity:1" fill="#373737" d="M 1265.5,837.5 C 1269.13,837.16 1272.46,837.994 1275.5,840C 1285.13,849.093 1289.29,860.259 1288,873.5C 1280.03,887.737 1267.86,893.904 1251.5,892C 1247.51,890.01 1245.01,886.843 1244,882.5C 1242.13,862.924 1249.29,847.924 1265.5,837.5 Z"/></g>
<g><path style="opacity:1" fill="#f9f9f9" d="M 1952.5,840.5 C 1962.61,839.607 1967.61,844.274 1967.5,854.5C 1959.56,854.749 1953.22,851.749 1948.5,845.5C 1949.86,843.814 1951.19,842.148 1952.5,840.5 Z"/></g>
<g><path style="opacity:1" fill="#373737" d="M 1653.5,843.5 C 1654.65,843.791 1655.32,844.624 1655.5,846C 1654.85,850.44 1653.52,854.607 1651.5,858.5C 1632.38,867.22 1614.38,877.72 1597.5,890C 1596.55,890.617 1595.72,890.451 1595,889.5C 1594.25,886.697 1594.58,884.03 1596,881.5C 1605.82,871.18 1616.99,862.68 1629.5,856C 1637.72,852.059 1645.72,847.892 1653.5,843.5 Z"/></g>
<g><path style="opacity:1" fill="#363636" d="M 1506.5,844.5 C 1513.01,848.847 1518.35,854.347 1522.5,861C 1517.01,866.66 1511.34,872.16 1505.5,877.5C 1499.17,873.167 1493.83,867.833 1489.5,861.5C 1493.55,854.118 1499.22,848.451 1506.5,844.5 Z"/></g>
<g><path style="opacity:1" fill="#fbfbfb" d="M 1262.5,852.5 C 1269.99,852.478 1274.83,856.145 1277,863.5C 1280.07,869.601 1278.57,874.101 1272.5,877C 1264.86,880.048 1258.36,878.548 1253,872.5C 1252.68,864.151 1255.84,857.484 1262.5,852.5 Z"/></g>
<g><path style="opacity:1" fill="#363636" d="M 895.5,894.5 C 896.329,909.086 897.829,923.752 900,938.5C 902.628,953.053 907.628,966.72 915,979.5C 919.039,984.875 924.206,988.709 930.5,991C 947.571,992.915 964.238,991.248 980.5,986C 983.927,984.204 987.094,982.037 990,979.5C 990.717,972.382 990.05,965.382 988,958.5C 985.56,950.512 982.726,942.678 979.5,935C 982.468,926.916 987.301,920.083 994,914.5C 1001.98,932.637 1004.98,951.637 1003,971.5C 995.625,991.871 981.459,1005.04 960.5,1011C 929.447,1022.21 907.947,1012.71 896,982.5C 878.264,996.916 858.764,1000.08 837.5,992C 828.245,985.674 825.078,977.174 828,966.5C 833.964,953.868 842.797,943.701 854.5,936C 862.609,930.612 871.276,926.279 880.5,923C 880.981,917.243 881.148,911.41 881,905.5C 885.274,900.963 890.107,897.296 895.5,894.5 Z"/></g>
<g><path style="opacity:1" fill="#363636" d="M 2036.5,913.5 C 2044.79,920.697 2050.62,929.697 2054,940.5C 2058.09,951.149 2059.76,962.149 2059,973.5C 2051.71,989.454 2039.88,1000.62 2023.5,1007C 2008.58,1012.23 1993.25,1015.56 1977.5,1017C 1956.81,1017.86 1936.14,1017.52 1915.5,1016C 1903.28,1014.09 1891.61,1010.42 1880.5,1005C 1869.97,998.788 1863.81,989.621 1862,977.5C 1859.84,958.476 1864.68,941.476 1876.5,926.5C 1877.66,928.146 1878.33,929.979 1878.5,932C 1873,944.875 1872.16,958.042 1876,971.5C 1877.78,974.941 1879.94,978.108 1882.5,981C 1896.82,989.88 1912.48,994.547 1929.5,995C 1960.39,996.902 1991.05,995.235 2021.5,990C 2030.6,988.641 2038.43,984.807 2045,978.5C 2045.74,971.13 2044.41,964.13 2041,957.5C 2036.43,948.848 2031.27,940.682 2025.5,933C 2028.27,925.966 2031.93,919.466 2036.5,913.5 Z"/></g>
<g><path style="opacity:1" fill="#fcfcfc" d="M 1495.5,928.5 C 1511.14,928.133 1519.47,935.8 1520.5,951.5C 1520.33,953.5 1520.17,955.5 1520,957.5C 1513.67,965.167 1506.67,972.167 1499,978.5C 1488.56,972.072 1481.06,963.238 1476.5,952C 1478.72,940.679 1485.05,932.845 1495.5,928.5 Z"/></g>
<g><path style="opacity:1" fill="#fbfbfb" d="M 880.5,934.5 C 881.5,934.5 882.5,934.5 883.5,934.5C 885.192,946.291 887.525,957.958 890.5,969.5C 886.417,970.354 882.417,971.521 878.5,973C 870.152,974.913 861.818,974.913 853.5,973C 849.837,972.155 846.837,970.322 844.5,967.5C 852.716,952.281 864.716,941.281 880.5,934.5 Z"/></g>
<g><path style="opacity:1" fill="#fbfbfb" d="M 1370.5,944.5 C 1386.04,944.093 1401.38,945.593 1416.5,949C 1407.5,958.909 1397,966.742 1385,972.5C 1372.78,963.955 1360.28,955.789 1347.5,948C 1355.3,946.827 1362.97,945.66 1370.5,944.5 Z"/></g>
<g><path style="opacity:1" fill="#fbfbfb" d="M 1259.5,956.5 C 1263.85,956.334 1268.18,956.501 1272.5,957C 1275.56,958.061 1278.06,959.894 1280,962.5C 1285.67,971.337 1288.83,981.004 1289.5,991.5C 1274.16,992.123 1259.99,988.457 1247,980.5C 1246.16,969.841 1250.33,961.841 1259.5,956.5 Z"/></g>
<g><path style="opacity:1" fill="#fbfbfb" d="M 1608.5,959.5 C 1620.82,959.979 1629.99,965.646 1636,976.5C 1638.7,981.558 1640.53,986.891 1641.5,992.5C 1622.21,998.455 1605.71,994.121 1592,979.5C 1594.31,970.344 1599.81,963.678 1608.5,959.5 Z"/></g>
<g><path style="opacity:1" fill="#9c9c9c" d="M 1776.5,1000.5 C 1776.85,1006.74 1777.85,1012.74 1779.5,1018.5C 1778.79,1019.4 1777.79,1019.74 1776.5,1019.5C 1776.5,1013.17 1776.5,1006.83 1776.5,1000.5 Z"/></g>
<g><path style="opacity:1" fill="#373737" d="M 977.5,1036.5 C 979.783,1036.61 981.783,1037.44 983.5,1039C 988.057,1043.05 992.057,1047.55 995.5,1052.5C 989.5,1058.17 983.5,1063.83 977.5,1069.5C 971.462,1064.46 966.129,1058.8 961.5,1052.5C 965.882,1046.12 971.215,1040.78 977.5,1036.5 Z"/></g>
<g><path style="opacity:1" fill="#373737" d="M 2172.5,1036.5 C 2174.31,1036.49 2175.98,1036.99 2177.5,1038C 2182.39,1042.39 2186.72,1047.22 2190.5,1052.5C 2184.54,1057.96 2178.71,1063.62 2173,1069.5C 2166.57,1064.91 2161.4,1059.24 2157.5,1052.5C 2161.14,1045.86 2166.14,1040.53 2172.5,1036.5 Z"/></g>
<g><path style="opacity:1" fill="#363636" d="M 1948.5,1042.5 C 1949.55,1042.35 1950.55,1042.52 1951.5,1043C 1956.87,1048.03 1961.87,1053.37 1966.5,1059C 1960.35,1064.32 1954.35,1069.82 1948.5,1075.5C 1942.65,1070.48 1937.32,1064.98 1932.5,1059C 1936.69,1052.31 1942.03,1046.81 1948.5,1042.5 Z"/></g>
<g><path style="opacity:1" fill="#383838" d="M 1156.5,1080.5 C 1157.69,1080.97 1158.36,1081.97 1158.5,1083.5C 1157.86,1087.59 1156.53,1091.42 1154.5,1095C 1135.72,1103.55 1118.05,1113.89 1101.5,1126C 1100.22,1126.68 1099.05,1126.52 1098,1125.5C 1098.28,1119.12 1101.11,1113.95 1106.5,1110C 1122.11,1098.36 1138.78,1088.53 1156.5,1080.5 Z"/></g>
<g><path style="opacity:1" fill="#383838" d="M 1011.5,1082.5 C 1011.96,1087.56 1010.96,1092.56 1008.5,1097.5C 989.384,1106.22 971.384,1116.72 954.5,1129C 953.552,1129.48 952.552,1129.65 951.5,1129.5C 951.211,1126.35 951.711,1123.35 953,1120.5C 956.167,1116 960,1112.17 964.5,1109C 979.289,1098.61 994.956,1089.77 1011.5,1082.5 Z"/></g>
<g><path style="opacity:1" fill="#373737" d="M 902.5,1094.5 C 903.552,1094.35 904.552,1094.52 905.5,1095C 904.899,1099.86 903.566,1104.52 901.5,1109C 881.8,1117.93 863.3,1128.76 846,1141.5C 843.697,1139.66 843.031,1137.33 844,1134.5C 847.465,1130.03 851.298,1125.87 855.5,1122C 870.317,1111.34 885.984,1102.18 902.5,1094.5 Z"/></g>
<g><path style="opacity:1" fill="#fdb24f" d="M 2999.5,1096.5 C 2999.5,1104.5 2999.5,1112.5 2999.5,1120.5C 2938.75,1139.69 2879.42,1162.53 2821.5,1189C 2747.84,1223.32 2676.18,1260.99 2606.5,1302C 2542.61,1340.21 2482.95,1384.21 2427.5,1434C 2382.58,1475.89 2344.08,1522.72 2312,1574.5C 2239.55,1698.52 2229.55,1827.52 2282,1961.5C 2287.08,1974.23 2292.24,1986.9 2297.5,1999.5C 2285.17,1999.5 2272.83,1999.5 2260.5,1999.5C 2251.12,1976.52 2242.62,1953.19 2235,1929.5C 2195.02,1791.41 2214.02,1662.07 2292,1541.5C 2323.93,1494.21 2361.1,1451.04 2403.5,1412C 2463.57,1358.96 2528.24,1312.3 2597.5,1272C 2695.4,1215.88 2797.07,1167.55 2902.5,1127C 2934.39,1115.32 2966.72,1105.15 2999.5,1096.5 Z"/></g>
<g><path style="opacity:1" fill="#184265" d="M 2999.5,1120.5 C 2999.5,1413.5 2999.5,1706.5 2999.5,1999.5C 2765.5,1999.5 2531.5,1999.5 2297.5,1999.5C 2292.24,1986.9 2287.08,1974.23 2282,1961.5C 2229.55,1827.52 2239.55,1698.52 2312,1574.5C 2344.08,1522.72 2382.58,1475.89 2427.5,1434C 2482.95,1384.21 2542.61,1340.21 2606.5,1302C 2676.18,1260.99 2747.84,1223.32 2821.5,1189C 2879.42,1162.53 2938.75,1139.69 2999.5,1120.5 Z"/></g>
<g><path style="opacity:1" fill="#ffb34f" d="M -0.5,1733.5 C -0.5,1603.17 -0.5,1472.83 -0.5,1342.5C 13.4215,1330.53 28.4215,1320.03 44.5,1311C 91.7232,1285.57 139.723,1283.9 188.5,1306C 231.292,1332.73 252.959,1371.56 253.5,1422.5C 251.631,1461.28 241.131,1497.61 222,1531.5C 198.396,1571.43 172.063,1609.43 143,1645.5C 123.217,1670.29 100.051,1691.13 73.5,1708C 50.8813,1722.37 26.2146,1730.87 -0.5,1733.5 Z"/></g>
<g><path style="opacity:1" fill="#ffb34f" d="M 649.5,1306.5 C 695.128,1305.54 736.128,1318.71 772.5,1346C 813.263,1377.17 850.43,1412.34 884,1451.5C 903.179,1475.86 916.513,1503.19 924,1533.5C 932.79,1576.62 922.29,1614.12 892.5,1646C 857.943,1674.98 818.61,1683.98 774.5,1673C 740.139,1663.33 709.805,1646.66 683.5,1623C 659.032,1600.87 634.866,1578.37 611,1555.5C 582.659,1527.17 563.326,1493.5 553,1454.5C 542.33,1408.33 553.496,1368.49 586.5,1335C 604.85,1319.49 625.85,1309.99 649.5,1306.5 Z"/></g>
<g><path style="opacity:1" fill="#ffb34f" d="M 617.5,1999.5 C 540.833,1999.5 464.167,1999.5 387.5,1999.5C 388.603,1970.36 394.769,1942.36 406,1915.5C 421.065,1882.1 445.565,1858.6 479.5,1845C 535.167,1832.92 575.667,1852.42 601,1903.5C 614.16,1934.13 619.66,1966.13 617.5,1999.5 Z"/></g>
</svg>
