<?xml version="1.0" encoding="UTF-8"?>
<!DOCTYPE svg PUBLIC "-//W3C//DTD SVG 1.1//EN" "http://www.w3.org/Graphics/SVG/1.1/DTD/svg11.dtd">
<svg xmlns="http://www.w3.org/2000/svg" version="1.1" width="3000px" height="2000px" style="shape-rendering:geometricPrecision; text-rendering:geometricPrecision; image-rendering:optimizeQuality; fill-rule:evenodd; clip-rule:evenodd" xmlns:xlink="http://www.w3.org/1999/xlink">
<g><path style="opacity:1" fill="#feb24f" d="M -0.5,-0.5 C 34.5,-0.5 69.5,-0.5 104.5,-0.5C 131.355,90.4103 182.355,164.577 257.5,222C 311.239,262.723 369.572,296.056 432.5,322C 522.446,359.736 615.446,387.07 711.5,404C 772.991,413.33 834.324,412.663 895.5,402C 1002.4,379.076 1078.23,317.909 1123,218.5C 1151.86,148.394 1167.36,75.3944 1169.5,-0.5C 1230.17,-0.5 1290.83,-0.5 1351.5,-0.5C 1354.85,58.135 1355.35,116.802 1353,175.5C 1350.31,230.63 1342.31,284.964 1329,338.5C 1285.64,497.855 1181.47,582.022 1016.5,591C 998.833,591.667 981.167,591.667 963.5,591C 945.829,589.462 928.163,587.962 910.5,586.5C 909.926,651.651 902.426,715.985 888,779.5C 877.459,822.239 861.126,862.572 839,900.5C 793.005,971.425 728.505,1016.26 645.5,1035C 601.589,1044 557.256,1047 512.5,1044C 439.842,1037.17 368.842,1022.5 299.5,1000C 283.13,994.599 266.796,989.099 250.5,983.5C 250.155,1032.92 247.988,1082.25 244,1131.5C 238.556,1194.28 223.556,1254.61 199,1312.5C 159.708,1401.29 93.2084,1458.29 -0.5,1483.5C -0.5,1375.5 -0.5,1267.5 -0.5,1159.5C 22.0465,1119.04 38.2132,1076.04 48,1030.5C 63.7511,949.568 69.4178,867.902 65,785.5C 61.0464,690.714 50.3797,596.714 33,503.5C 26.3867,471.491 18.3867,439.824 9,408.5C 6.09821,399.289 2.93154,390.289 -0.5,381.5C -0.5,254.167 -0.5,126.833 -0.5,-0.5 Z"/></g>
<g><path style="opacity:1" fill="#1d4365" d="M 104.5,-0.5 C 107.5,-0.5 110.5,-0.5 113.5,-0.5C 134.229,70.3703 171.896,130.537 226.5,180C 271.387,218.799 320.72,251.132 374.5,277C 477.197,324.757 584.197,359.091 695.5,380C 756.066,390.387 816.732,391.054 877.5,382C 993.959,360.201 1072.46,293.701 1113,182.5C 1133.18,123.109 1145.34,62.1089 1149.5,-0.5C 1156.17,-0.5 1162.83,-0.5 1169.5,-0.5C 1167.36,75.3944 1151.86,148.394 1123,218.5C 1078.23,317.909 1002.4,379.076 895.5,402C 834.324,412.663 772.991,413.33 711.5,404C 615.446,387.07 522.446,359.736 432.5,322C 369.572,296.056 311.239,262.723 257.5,222C 182.355,164.577 131.355,90.4103 104.5,-0.5 Z"/></g>
<g><path style="opacity:1" fill="#feb24f" d="M 113.5,-0.5 C 458.833,-0.5 804.167,-0.5 1149.5,-0.5C 1145.34,62.1089 1133.18,123.109 1113,182.5C 1072.46,293.701 993.959,360.201 877.5,382C 816.732,391.054 756.066,390.387 695.5,380C 584.197,359.091 477.197,324.757 374.5,277C 320.72,251.132 271.387,218.799 226.5,180C 171.896,130.537 134.229,70.3703 113.5,-0.5 Z"/></g>
<g><path style="opacity:1" fill="#fefefe" d="M 1351.5,-0.5 C 1900.83,-0.5 2450.17,-0.5 2999.5,-0.5C 2999.5,177.5 2999.5,355.5 2999.5,533.5C 2968.11,524.927 2936.11,521.761 2903.5,524C 2863.7,528.436 2824.03,533.769 2784.5,540C 2738.83,547.179 2698.16,565.179 2662.5,594C 2631.04,621.922 2614.04,656.922 2611.5,699C 2613.56,746.131 2633.9,783.131 2672.5,810C 2701.48,828.548 2733.14,839.548 2767.5,843C 2838.31,845.307 2907.98,837.307 2976.5,819C 2984.15,816.393 2991.82,813.893 2999.5,811.5C 2999.5,1075.83 2999.5,1340.17 2999.5,1604.5C 2964.37,1624.81 2939.87,1654.14 2926,1692.5C 2919.94,1709.05 2915.61,1726.05 2913,1743.5C 2909.36,1782.6 2906.86,1821.76 2905.5,1861C 2904.76,1901.29 2913.92,1939.13 2933,1974.5C 2938.64,1983.29 2944.8,1991.63 2951.5,1999.5C 2839.83,1999.5 2728.17,1999.5 2616.5,1999.5C 2628.47,1982.22 2636.64,1963.22 2641,1942.5C 2647.55,1890.74 2627.38,1853.91 2580.5,1832C 2542.11,1819.11 2504.44,1821.11 2467.5,1838C 2457.18,1842.82 2447.18,1848.16 2437.5,1854C 2406.95,1874.44 2377.28,1896.11 2348.5,1919C 2328.49,1936.53 2312.99,1957.37 2302,1981.5C 2299.45,1987.3 2297.62,1993.3 2296.5,1999.5C 2182.5,1999.5 2068.5,1999.5 1954.5,1999.5C 1934.68,1977.1 1909.68,1966.1 1879.5,1966.5C 1848.32,1967.55 1821.32,1978.55 1798.5,1999.5C 1198.83,1999.5 599.167,1999.5 -0.5,1999.5C -0.5,1827.5 -0.5,1655.5 -0.5,1483.5C 93.2084,1458.29 159.708,1401.29 199,1312.5C 223.556,1254.61 238.556,1194.28 244,1131.5C 247.988,1082.25 250.155,1032.92 250.5,983.5C 266.796,989.099 283.13,994.599 299.5,1000C 368.842,1022.5 439.842,1037.17 512.5,1044C 557.256,1047 601.589,1044 645.5,1035C 728.505,1016.26 793.005,971.425 839,900.5C 861.126,862.572 877.459,822.239 888,779.5C 902.426,715.985 909.926,651.651 910.5,586.5C 928.163,587.962 945.829,589.462 963.5,591C 981.167,591.667 998.833,591.667 1016.5,591C 1181.47,582.022 1285.64,497.855 1329,338.5C 1342.31,284.964 1350.31,230.63 1353,175.5C 1355.35,116.802 1354.85,58.135 1351.5,-0.5 Z"/></g>
<g><path style="opacity:1" fill="#1e4365" d="M -0.5,381.5 C 2.93154,390.289 6.09821,399.289 9,408.5C 18.3867,439.824 26.3867,471.491 33,503.5C 50.3797,596.714 61.0464,690.714 65,785.5C 69.4178,867.902 63.7511,949.568 48,1030.5C 38.2132,1076.04 22.0465,1119.04 -0.5,1159.5C -0.5,1141.83 -0.5,1124.17 -0.5,1106.5C 9.1896,1084.94 17.0229,1062.6 23,1039.5C 34.5565,991.158 41.8898,942.158 45,892.5C 51.8621,766.97 46.5288,641.97 29,517.5C 22.2558,474.655 12.4225,432.655 -0.5,391.5C -0.5,388.167 -0.5,384.833 -0.5,381.5 Z"/></g>
<g><path style="opacity:1" fill="#fdb24f" d="M -0.5,391.5 C 12.4225,432.655 22.2558,474.655 29,517.5C 46.5288,641.97 51.8621,766.97 45,892.5C 41.8898,942.158 34.5565,991.158 23,1039.5C 17.0229,1062.6 9.1896,1084.94 -0.5,1106.5C -0.5,868.167 -0.5,629.833 -0.5,391.5 Z"/></g>
<g><path style="opacity:1" fill="#184266" d="M 2999.5,533.5 C 2999.5,626.167 2999.5,718.833 2999.5,811.5C 2991.82,813.893 2984.15,816.393 2976.5,819C 2907.98,837.307 2838.31,845.307 2767.5,843C 2733.14,839.548 2701.48,828.548 2672.5,810C 2633.9,783.131 2613.56,746.131 2611.5,699C 2614.04,656.922 2631.04,621.922 2662.5,594C 2698.16,565.179 2738.83,547.179 2784.5,540C 2824.03,533.769 2863.7,528.436 2903.5,524C 2936.11,521.761 2968.11,524.927 2999.5,533.5 Z"/></g>
<g><path style="opacity:1" fill="#1c4365" d="M 695.5,531.5 C 702.5,533.5 709.5,535.5 716.5,537.5C 708.038,596.718 689.871,652.718 662,705.5C 615.99,782.473 549.157,831.64 461.5,853C 403.912,864.334 345.912,866.667 287.5,860C 272.463,857.912 257.463,855.579 242.5,853C 241.528,845.91 240.862,838.744 240.5,831.5C 298.168,842.185 356.168,844.352 414.5,838C 539.815,821.123 624.648,753.623 669,635.5C 680.969,601.625 689.802,566.958 695.5,531.5 Z"/></g>
<g><path style="opacity:1" fill="#383838" d="M 1448.5,794.5 C 1449.79,796.048 1450.46,798.048 1450.5,800.5C 1450.17,802.5 1449.83,804.5 1449.5,806.5C 1428.42,813.97 1407.42,821.637 1386.5,829.5C 1384.84,827.744 1383.84,825.577 1383.5,823C 1383.83,822.5 1384.17,822 1384.5,821.5C 1406.1,812.865 1427.43,803.865 1448.5,794.5 Z"/></g>
<g><path style="opacity:1" fill="#353535" d="M 1514.5,833.5 C 1515.93,833.881 1516.76,834.881 1517,836.5C 1522.35,868.267 1525.18,900.267 1525.5,932.5C 1525.77,950.776 1523.1,968.609 1517.5,986C 1519.28,989.241 1521.94,991.575 1525.5,993C 1528.33,995.833 1531.17,998.667 1534,1001.5C 1536.13,1003.93 1537.3,1006.77 1537.5,1010C 1535.04,1027.74 1527.88,1043.24 1516,1056.5C 1508.79,1064.03 1499.95,1068.53 1489.5,1070C 1452.03,1075.55 1414.36,1078.55 1376.5,1079C 1369.72,1077.63 1363.22,1075.46 1357,1072.5C 1335.69,1079.79 1313.85,1084.79 1291.5,1087.5C 1292.05,1084.44 1292.55,1081.44 1293,1078.5C 1286.61,1082.14 1279.78,1084.64 1272.5,1086C 1258.27,1088.67 1243.94,1090.51 1229.5,1091.5C 1227.8,1073.83 1225.97,1056.16 1224,1038.5C 1216.77,1052.63 1208.77,1066.29 1200,1079.5C 1180.76,1101.94 1156.93,1108.77 1128.5,1100C 1113.53,1095.8 1099.86,1089.13 1087.5,1080C 1129.73,1067.48 1170.73,1051.81 1210.5,1033C 1222.98,1017.69 1235.65,1002.52 1248.5,987.5C 1250.58,989.288 1252.74,990.954 1255,992.5C 1256.34,1008.2 1257.84,1023.86 1259.5,1039.5C 1276.13,1039.51 1292.13,1036.34 1307.5,1030C 1310.37,1024.9 1312.37,1019.4 1313.5,1013.5C 1317.17,1013.5 1320.83,1013.5 1324.5,1013.5C 1322.58,1020.77 1320.91,1028.1 1319.5,1035.5C 1326.13,1035.64 1332.63,1034.97 1339,1033.5C 1340.51,1006.66 1351.01,984.16 1370.5,966C 1379.06,960.053 1388.39,955.72 1398.5,953C 1424.45,947.958 1437.45,958.625 1437.5,985C 1437.38,1001 1432.71,1015.5 1423.5,1028.5C 1424,1028.83 1424.5,1029.17 1425,1029.5C 1439.09,1027.42 1453.26,1026.08 1467.5,1025.5C 1469.24,1010.12 1474.07,995.787 1482,982.5C 1483.8,980.683 1485.97,979.516 1488.5,979C 1492.15,978.501 1495.82,978.335 1499.5,978.5C 1495.6,945.078 1488.26,912.411 1477.5,880.5C 1487.22,862.781 1499.55,847.115 1514.5,833.5 Z"/></g>
<g><path style="opacity:1" fill="#363636" d="M 1414.5,855.5 C 1423.59,864.614 1426.75,875.614 1424,888.5C 1420.81,906.382 1410.31,914.215 1392.5,912C 1386.94,909.438 1383.11,905.272 1381,899.5C 1378.76,888.14 1380.93,877.806 1387.5,868.5C 1388.9,868.865 1389.9,869.699 1390.5,871C 1387.85,885.356 1393.85,891.689 1408.5,890C 1412.12,888.369 1415.12,886.035 1417.5,883C 1414.4,877.731 1410.4,873.231 1405.5,869.5C 1408.53,864.816 1411.53,860.149 1414.5,855.5 Z"/></g>
<g><path style="opacity:1" fill="#363636" d="M 1815.5,884.5 C 1830.9,883.067 1837.73,890.067 1836,905.5C 1834.95,910.651 1833.12,915.484 1830.5,920C 1834.84,920.093 1839.17,920.093 1843.5,920C 1841.07,926.445 1838.74,932.945 1836.5,939.5C 1834.33,939.833 1832.17,940.167 1830,940.5C 1825.42,940.098 1820.92,939.598 1816.5,939C 1808.22,948.142 1798.22,950.809 1786.5,947C 1779.72,944.534 1773.89,940.7 1769,935.5C 1768.31,934.668 1768.48,934.002 1769.5,933.5C 1781.09,931.435 1792.43,928.435 1803.5,924.5C 1799.07,912.449 1800.57,901.116 1808,890.5C 1810.48,888.361 1812.98,886.361 1815.5,884.5 Z"/></g>
<g><path style="opacity:1" fill="#353535" d="M 1972.5,899.5 C 1973.12,899.611 1973.62,899.944 1974,900.5C 1975.68,920.481 1975.68,940.481 1974,960.5C 1971.98,989.932 1969.14,1019.27 1965.5,1048.5C 1983.45,1047.9 2001.11,1045.4 2018.5,1041C 2021.55,1030.63 2024.22,1020.13 2026.5,1009.5C 2030.17,1009.5 2033.83,1009.5 2037.5,1009.5C 2034.37,1037 2027.04,1063.34 2015.5,1088.5C 1990.97,1095.09 1965.97,1098.75 1940.5,1099.5C 1939.72,1045.2 1936.72,991.03 1931.5,937C 1943.45,922.548 1957.12,910.048 1972.5,899.5 Z"/></g>
<g><path style="opacity:1" fill="#353535" d="M 1596.5,901.5 C 1597.5,901.414 1598.33,901.748 1599,902.5C 1600.71,948.591 1599.05,994.591 1594,1040.5C 1593.46,1043.53 1592.79,1046.53 1592,1049.5C 1584.86,1065.75 1578.03,1082.08 1571.5,1098.5C 1568.95,1098.61 1566.62,1097.95 1564.5,1096.5C 1563.96,1043.87 1561.29,991.374 1556.5,939C 1567.8,924.192 1581.14,911.692 1596.5,901.5 Z"/></g>
<g><path style="opacity:1" fill="#f6f6f6" d="M 1810.5,906.5 C 1820.57,904.954 1825.24,909.287 1824.5,919.5C 1816.83,919.478 1811.16,916.145 1807.5,909.5C 1808.34,908.265 1809.34,907.265 1810.5,906.5 Z"/></g>
<g><path style="opacity:1" fill="#383838" d="M 1255.5,931.5 C 1256.79,933.048 1257.46,935.048 1257.5,937.5C 1257.17,939.5 1256.83,941.5 1256.5,943.5C 1235.42,950.97 1214.42,958.637 1193.5,966.5C 1191.84,964.744 1190.84,962.577 1190.5,960C 1190.83,959.5 1191.17,959 1191.5,958.5C 1213.1,949.865 1234.43,940.865 1255.5,931.5 Z"/></g>
<g><path style="opacity:1" fill="#383838" d="M 2052.5,942.5 C 2053.5,942.5 2054.5,942.5 2055.5,942.5C 2055.79,946.437 2055.46,950.27 2054.5,954C 2033.46,961.401 2012.46,968.901 1991.5,976.5C 1989.54,973.982 1988.87,971.316 1989.5,968.5C 2010.7,960.057 2031.7,951.39 2052.5,942.5 Z"/></g>
<g><path style="opacity:1" fill="#343434" d="M 1881.5,959.5 C 1893.01,967.784 1901.18,978.784 1906,992.5C 1908.04,1003.55 1907.71,1014.55 1905,1025.5C 1901.25,1040 1895.58,1053.66 1888,1066.5C 1876.44,1075.86 1863.61,1083.03 1849.5,1088C 1811.92,1101.73 1773.25,1106.4 1733.5,1102C 1712.59,1099.31 1695.76,1089.81 1683,1073.5C 1675.91,1061.73 1675.25,1049.73 1681,1037.5C 1693.6,1010.98 1710.6,987.643 1732,967.5C 1734.12,972.978 1735.79,978.645 1737,984.5C 1737.89,988.152 1738.22,991.818 1738,995.5C 1727.08,1003.75 1716.74,1012.75 1707,1022.5C 1706.33,1023.5 1706.33,1024.5 1707,1025.5C 1716,1038.81 1728.5,1046.97 1744.5,1050C 1783.95,1055.8 1822.95,1053.46 1861.5,1043C 1868.36,1040.99 1875.03,1038.49 1881.5,1035.5C 1878.91,1031.32 1876.08,1027.32 1873,1023.5C 1864.29,1014.62 1855.46,1005.96 1846.5,997.5C 1858.19,984.813 1869.86,972.146 1881.5,959.5 Z"/></g>
<g><path style="opacity:1" fill="#fbfbfb" d="M 1393.5,1003.5 C 1400.17,1003.33 1406.84,1003.5 1413.5,1004C 1415.09,1004.86 1416.75,1005.53 1418.5,1006C 1420.21,1007.13 1420.71,1008.63 1420,1010.5C 1417.5,1012.33 1415,1014.17 1412.5,1016C 1392.66,1024.47 1372,1029.64 1350.5,1031.5C 1350.21,1028.35 1350.71,1025.35 1352,1022.5C 1358.98,1014.92 1367.48,1009.75 1377.5,1007C 1382.95,1005.75 1388.29,1004.58 1393.5,1003.5 Z"/></g>
<g><path style="opacity:1" fill="#353535" d="M 1070.5,1012.5 C 1073.86,1012.62 1077.19,1012.95 1080.5,1013.5C 1077.21,1039.41 1067.37,1062.41 1051,1082.5C 1035.11,1099.46 1015.61,1106.3 992.5,1103C 978.115,1099.98 964.449,1094.98 951.5,1088C 947.802,1085.81 944.468,1083.15 941.5,1080C 983.273,1067.61 1023.61,1051.61 1062.5,1032C 1065.84,1025.81 1068.51,1019.31 1070.5,1012.5 Z"/></g>
<g><path style="opacity:1" fill="#383838" d="M 1048.5,1113.5 C 1050.25,1117.18 1050.92,1121.18 1050.5,1125.5C 1028.76,1132.87 1007.09,1140.53 985.5,1148.5C 983.757,1145.74 983.423,1142.91 984.5,1140C 1006.05,1131.43 1027.39,1122.6 1048.5,1113.5 Z"/></g>
<g><path style="opacity:1" fill="#353535" d="M 2001.5,1113.5 C 2003.07,1113.94 2004.24,1114.94 2005,1116.5C 2010.47,1125.94 2016.3,1135.1 2022.5,1144C 2013.66,1150.34 2004.66,1156.5 1995.5,1162.5C 1985.95,1154.76 1978.29,1145.42 1972.5,1134.5C 1982.02,1127.25 1991.69,1120.25 2001.5,1113.5 Z"/></g>
<g><path style="opacity:1" fill="#363636" d="M 1793.5,1122.5 C 1800.6,1132.51 1807.6,1142.68 1814.5,1153C 1805.61,1159.56 1796.44,1165.73 1787,1171.5C 1777.34,1163.51 1769.51,1154.01 1763.5,1143C 1773.74,1136.39 1783.74,1129.56 1793.5,1122.5 Z"/></g>
<g><path style="opacity:1" fill="#184266" d="M 2614.5,1131.5 C 2653.52,1129.39 2691.52,1134.56 2728.5,1147C 2767.01,1160.52 2796.85,1184.68 2818,1219.5C 2845.36,1275 2838.69,1326 2798,1372.5C 2772.76,1397.55 2742.93,1415.05 2708.5,1425C 2668.21,1435.66 2627.21,1441.66 2585.5,1443C 2558.85,1444.38 2532.18,1444.71 2505.5,1444C 2467.6,1441.69 2432.27,1431.03 2399.5,1412C 2342.65,1374.82 2321.82,1322.99 2337,1256.5C 2351.37,1218.26 2376.54,1189.43 2412.5,1170C 2445.33,1152.39 2480.33,1142.06 2517.5,1139C 2549.97,1136.3 2582.31,1133.8 2614.5,1131.5 Z"/></g>
<g><path style="opacity:1" fill="#184266" d="M 1921.5,1397.5 C 1961.75,1395.41 1995.58,1409.08 2023,1438.5C 2036.57,1453.95 2047.9,1470.95 2057,1489.5C 2071.24,1522.89 2083.91,1556.89 2095,1591.5C 2102.16,1617.37 2104.49,1643.7 2102,1670.5C 2096.87,1708.97 2078.03,1738.47 2045.5,1759C 2009.43,1775.95 1974.43,1773.95 1940.5,1753C 1912.7,1732.86 1891.87,1707.03 1878,1675.5C 1863.3,1642.73 1850.97,1609.07 1841,1574.5C 1833.09,1546.22 1831.09,1517.55 1835,1488.5C 1844.47,1439.44 1873.3,1409.11 1921.5,1397.5 Z"/></g>
<g><path style="opacity:1" fill="#184266" d="M 2999.5,1604.5 C 2999.5,1736.17 2999.5,1867.83 2999.5,1999.5C 2983.5,1999.5 2967.5,1999.5 2951.5,1999.5C 2944.8,1991.63 2938.64,1983.29 2933,1974.5C 2913.92,1939.13 2904.76,1901.29 2905.5,1861C 2906.86,1821.76 2909.36,1782.6 2913,1743.5C 2915.61,1726.05 2919.94,1709.05 2926,1692.5C 2939.87,1654.14 2964.37,1624.81 2999.5,1604.5 Z"/></g>
<g><path style="opacity:1" fill="#184266" d="M 2616.5,1999.5 C 2509.83,1999.5 2403.17,1999.5 2296.5,1999.5C 2297.62,1993.3 2299.45,1987.3 2302,1981.5C 2312.99,1957.37 2328.49,1936.53 2348.5,1919C 2377.28,1896.11 2406.95,1874.44 2437.5,1854C 2447.18,1848.16 2457.18,1842.82 2467.5,1838C 2504.44,1821.11 2542.11,1819.11 2580.5,1832C 2627.38,1853.91 2647.55,1890.74 2641,1942.5C 2636.64,1963.22 2628.47,1982.22 2616.5,1999.5 Z"/></g>
<g><path style="opacity:1" fill="#194266" d="M 1954.5,1999.5 C 1902.5,1999.5 1850.5,1999.5 1798.5,1999.5C 1821.32,1978.55 1848.32,1967.55 1879.5,1966.5C 1909.68,1966.1 1934.68,1977.1 1954.5,1999.5 Z"/></g>
</svg>
