<?xml version="1.0" encoding="UTF-8"?>
<!DOCTYPE svg PUBLIC "-//W3C//DTD SVG 1.1//EN" "http://www.w3.org/Graphics/SVG/1.1/DTD/svg11.dtd">
<svg xmlns="http://www.w3.org/2000/svg" version="1.1" width="3000px" height="2000px" style="shape-rendering:geometricPrecision; text-rendering:geometricPrecision; image-rendering:optimizeQuality; fill-rule:evenodd; clip-rule:evenodd" xmlns:xlink="http://www.w3.org/1999/xlink">
<g><path style="opacity:1" fill="#184266" d="M -0.5,-0.5 C 31.5,-0.5 63.5,-0.5 95.5,-0.5C 108.982,21.8146 126.982,39.6479 149.5,53C 159.677,58.5886 170.01,63.9219 180.5,69C 205.403,79.451 230.069,90.451 254.5,102C 270.668,111.919 287.002,121.585 303.5,131C 326.972,142.235 349.972,154.235 372.5,167C 393.294,178.448 411.794,192.948 428,210.5C 456.32,245.458 477.654,284.458 492,327.5C 508.473,386.325 501.14,441.992 470,494.5C 459.65,511.202 448.316,527.202 436,542.5C 401.985,580.187 365.152,614.687 325.5,646C 288.679,673.91 251.679,701.577 214.5,729C 187.904,751.593 161.904,774.926 136.5,799C 112.636,820.517 86.3025,838.517 57.5,853C 38.9623,861.569 19.629,867.402 -0.5,870.5C -0.5,580.167 -0.5,289.833 -0.5,-0.5 Z"/></g>
<g><path style="opacity:1" fill="#fefefe" d="M 95.5,-0.5 C 634.167,-0.5 1172.83,-0.5 1711.5,-0.5C 1715.57,14.6402 1722.07,28.6402 1731,41.5C 1756.3,78.1425 1788.47,106.976 1827.5,128C 1850.65,139.875 1874.98,143.542 1900.5,139C 1940.42,125.385 1957.92,97.5521 1953,55.5C 1949.08,35.3301 1941.58,16.6634 1930.5,-0.5C 1966.17,-0.5 2001.83,-0.5 2037.5,-0.5C 2086.53,67.3778 2152.2,110.211 2234.5,128C 2319.3,139.691 2379.47,106.858 2415,29.5C 2418.76,19.7912 2421.26,9.79123 2422.5,-0.5C 2614.83,-0.5 2807.17,-0.5 2999.5,-0.5C 2999.5,138.5 2999.5,277.5 2999.5,416.5C 2962.88,452.465 2930.05,491.465 2901,533.5C 2854.38,603.041 2812.04,675.374 2774,750.5C 2737,825.167 2700,899.833 2663,974.5C 2648.59,1001.66 2633.92,1028.66 2619,1055.5C 2602.07,1089.69 2587.07,1124.69 2574,1160.5C 2555.53,1211.58 2536.86,1262.58 2518,1313.5C 2499.17,1363.35 2476.5,1411.35 2450,1457.5C 2433.51,1484.33 2413.68,1508.5 2390.5,1530C 2371.63,1546.11 2350.3,1558.11 2326.5,1566C 2297.21,1575.52 2267.21,1581.52 2236.5,1584C 2194.53,1586.31 2152.53,1586.98 2110.5,1586C 2064.52,1583.9 2018.52,1582.4 1972.5,1581.5C 1943.63,1581.28 1914.96,1583.45 1886.5,1588C 1866.1,1592.86 1846.76,1600.53 1828.5,1611C 1778.34,1636.15 1734.18,1669.32 1696,1710.5C 1630.1,1788.78 1608.77,1878.11 1632,1978.5C 1633.99,1985.48 1635.83,1992.48 1637.5,1999.5C 1091.5,1999.5 545.5,1999.5 -0.5,1999.5C -0.5,1869.5 -0.5,1739.5 -0.5,1609.5C 33.8839,1602.28 53.7172,1581.28 59,1546.5C 60.5873,1521.44 54.9207,1498.11 42,1476.5C 30.5238,1457.86 16.3572,1441.52 -0.5,1427.5C -0.5,1409.5 -0.5,1391.5 -0.5,1373.5C 7.30167,1382.13 15.635,1390.3 24.5,1398C 44.0821,1414.96 66.4154,1426.96 91.5,1434C 114.415,1438.37 134.748,1433.04 152.5,1418C 169.38,1398.89 173.88,1377.06 166,1352.5C 149.741,1308.25 122.241,1272.75 83.5,1246C 60.6689,1232.81 36.3355,1228.81 10.5,1234C 6.60316,1235.02 2.93649,1236.52 -0.5,1238.5C -0.5,1115.83 -0.5,993.167 -0.5,870.5C 19.629,867.402 38.9623,861.569 57.5,853C 86.3025,838.517 112.636,820.517 136.5,799C 161.904,774.926 187.904,751.593 214.5,729C 251.679,701.577 288.679,673.91 325.5,646C 365.152,614.687 401.985,580.187 436,542.5C 448.316,527.202 459.65,511.202 470,494.5C 501.14,441.992 508.473,386.325 492,327.5C 477.654,284.458 456.32,245.458 428,210.5C 411.794,192.948 393.294,178.448 372.5,167C 349.972,154.235 326.972,142.235 303.5,131C 287.002,121.585 270.668,111.919 254.5,102C 230.069,90.451 205.403,79.451 180.5,69C 170.01,63.9219 159.677,58.5886 149.5,53C 126.982,39.6479 108.982,21.8146 95.5,-0.5 Z"/></g>
<g><path style="opacity:1" fill="#ffb34f" d="M 1711.5,-0.5 C 1784.5,-0.5 1857.5,-0.5 1930.5,-0.5C 1941.58,16.6634 1949.08,35.3301 1953,55.5C 1957.92,97.5521 1940.42,125.385 1900.5,139C 1874.98,143.542 1850.65,139.875 1827.5,128C 1788.47,106.976 1756.3,78.1425 1731,41.5C 1722.07,28.6402 1715.57,14.6402 1711.5,-0.5 Z"/></g>
<g><path style="opacity:1" fill="#ffb34f" d="M 2037.5,-0.5 C 2165.83,-0.5 2294.17,-0.5 2422.5,-0.5C 2421.26,9.79123 2418.76,19.7912 2415,29.5C 2379.47,106.858 2319.3,139.691 2234.5,128C 2152.2,110.211 2086.53,67.3778 2037.5,-0.5 Z"/></g>
<g><path style="opacity:1" fill="#ffb34f" d="M 1621.5,86.5 C 1665.77,83.9797 1705.44,96.1463 1740.5,123C 1776.37,149.864 1801.87,184.364 1817,226.5C 1826.41,256.853 1823.41,285.853 1808,313.5C 1787.82,340.249 1760.82,353.249 1727,352.5C 1706.69,352.215 1687.19,348.048 1668.5,340C 1629.63,321.154 1594.46,296.988 1563,267.5C 1542.07,246.638 1528.73,221.638 1523,192.5C 1519.42,153.83 1534.25,124.664 1567.5,105C 1584.37,95.1006 1602.37,88.9339 1621.5,86.5 Z"/></g>
<g><path style="opacity:1" fill="#ffb34f" d="M 2057.5,149.5 C 2098.05,147.47 2135.38,157.303 2169.5,179C 2193.69,196.862 2211.53,219.695 2223,247.5C 2230.95,274.065 2230.28,300.398 2221,326.5C 2205.2,364.296 2179.04,392.462 2142.5,411C 2069.06,445.176 2004.56,433.01 1949,374.5C 1918.23,333.817 1910.9,289.15 1927,240.5C 1945.42,196.748 1977.59,168.582 2023.5,156C 2034.85,153.218 2046.19,151.051 2057.5,149.5 Z"/></g>
<g><path style="opacity:1" fill="#184266" d="M 2999.5,416.5 C 2999.5,944.167 2999.5,1471.83 2999.5,1999.5C 2545.5,1999.5 2091.5,1999.5 1637.5,1999.5C 1635.83,1992.48 1633.99,1985.48 1632,1978.5C 1608.77,1878.11 1630.1,1788.78 1696,1710.5C 1734.18,1669.32 1778.34,1636.15 1828.5,1611C 1846.76,1600.53 1866.1,1592.86 1886.5,1588C 1914.96,1583.45 1943.63,1581.28 1972.5,1581.5C 2018.52,1582.4 2064.52,1583.9 2110.5,1586C 2152.53,1586.98 2194.53,1586.31 2236.5,1584C 2267.21,1581.52 2297.21,1575.52 2326.5,1566C 2350.3,1558.11 2371.63,1546.11 2390.5,1530C 2413.68,1508.5 2433.51,1484.33 2450,1457.5C 2476.5,1411.35 2499.17,1363.35 2518,1313.5C 2536.86,1262.58 2555.53,1211.58 2574,1160.5C 2587.07,1124.69 2602.07,1089.69 2619,1055.5C 2633.92,1028.66 2648.59,1001.66 2663,974.5C 2700,899.833 2737,825.167 2774,750.5C 2812.04,675.374 2854.38,603.041 2901,533.5C 2930.05,491.465 2962.88,452.465 2999.5,416.5 Z"/></g>
<g><path style="opacity:1" fill="#b4b4b4" d="M 746.5,624.5 C 746.169,651.672 746.502,678.672 747.5,705.5C 747.44,706.043 747.107,706.376 746.5,706.5C 745.171,679.003 745.171,651.67 746.5,624.5 Z"/></g>
<g><path style="opacity:1" fill="#353535" d="M 746.5,624.5 C 748.199,624.34 749.866,624.506 751.5,625C 756.203,630.234 760.037,636.067 763,642.5C 766.813,647.16 771.313,650.827 776.5,653.5C 778.148,655.456 778.815,657.789 778.5,660.5C 768.794,669.608 764.794,680.941 766.5,694.5C 758.123,694.849 751.79,698.515 747.5,705.5C 746.502,678.672 746.169,651.672 746.5,624.5 Z"/></g>
<g><path style="opacity:1" fill="#353535" d="M 1051.5,625.5 C 1052.83,625.5 1054.17,625.5 1055.5,625.5C 1055.83,653.005 1055.5,680.338 1054.5,707.5C 1049.71,701.4 1043.37,698.4 1035.5,698.5C 1038.24,683.698 1034.41,671.032 1024,660.5C 1023.5,658.19 1023.34,655.857 1023.5,653.5C 1027.19,652.824 1030.52,651.324 1033.5,649C 1039.36,640.982 1045.36,633.148 1051.5,625.5 Z"/></g>
<g><path style="opacity:1" fill="#575757" d="M 1051.5,625.5 C 1052.92,624.549 1054.59,624.216 1056.5,624.5C 1056.67,652.835 1056.5,681.169 1056,709.5C 1055.28,708.956 1054.78,708.289 1054.5,707.5C 1055.5,680.338 1055.83,653.005 1055.5,625.5C 1054.17,625.5 1052.83,625.5 1051.5,625.5 Z"/></g>
<g><path style="opacity:1" fill="#848484" d="M 1093.5,625.5 C 1092.17,625.5 1090.83,625.5 1089.5,625.5C 1089.17,652.005 1089.5,678.339 1090.5,704.5C 1090.22,705.289 1089.72,705.956 1089,706.5C 1088.5,679.169 1088.33,651.835 1088.5,624.5C 1090.41,624.216 1092.08,624.549 1093.5,625.5 Z"/></g>
<g><path style="opacity:1" fill="#343434" d="M 1093.5,625.5 C 1095.46,626.96 1097.3,628.627 1099,630.5C 1103.02,639.846 1109.19,647.346 1117.5,653C 1118.79,653.49 1120.13,653.657 1121.5,653.5C 1121.66,655.857 1121.5,658.19 1121,660.5C 1111.69,669.919 1107.86,681.252 1109.5,694.5C 1101.59,694.953 1095.26,698.287 1090.5,704.5C 1089.5,678.339 1089.17,652.005 1089.5,625.5C 1090.83,625.5 1092.17,625.5 1093.5,625.5 Z"/></g>
<g><path style="opacity:1" fill="#353535" d="M 1678.5,624.5 C 1678.83,651.672 1678.5,678.672 1677.5,705.5C 1676.77,703.265 1675.44,701.432 1673.5,700C 1668.53,697.064 1663.19,695.231 1657.5,694.5C 1659.82,681.122 1656.15,669.788 1646.5,660.5C 1646.3,658.05 1646.63,655.717 1647.5,653.5C 1652.13,651.846 1656.13,649.18 1659.5,645.5C 1663.71,638.914 1668.04,632.414 1672.5,626C 1674.35,624.872 1676.35,624.372 1678.5,624.5 Z"/></g>
<g><path style="opacity:1" fill="#ababab" d="M 1678.5,624.5 C 1679.83,651.67 1679.83,679.003 1678.5,706.5C 1677.89,706.376 1677.56,706.043 1677.5,705.5C 1678.5,678.672 1678.83,651.672 1678.5,624.5 Z"/></g>
<g><path style="opacity:1" fill="#363636" d="M 2315.5,624.5 C 2319.66,624.143 2322.83,625.81 2325,629.5C 2328.73,637.123 2333.56,643.956 2339.5,650C 2342.07,652.287 2345.07,653.453 2348.5,653.5C 2348.66,655.857 2348.5,658.19 2348,660.5C 2338.34,669.758 2334.51,681.091 2336.5,694.5C 2327.6,695.031 2320.77,699.031 2316,706.5C 2315.5,679.169 2315.33,651.835 2315.5,624.5 Z"/></g>
<g><path style="opacity:1" fill="#393939" d="M 981.5,649.5 C 982.376,649.369 983.043,649.702 983.5,650.5C 981.563,655.228 978.563,659.061 974.5,662C 961.717,667.225 949.05,672.725 936.5,678.5C 936.167,678.167 935.833,677.833 935.5,677.5C 937.437,672.772 940.437,668.939 944.5,666C 956.923,660.45 969.257,654.95 981.5,649.5 Z"/></g>
<g><path style="opacity:1" fill="#a1a1a1" d="M 776.5,653.5 C 777.5,653.5 778.5,653.5 779.5,653.5C 779.802,656.059 779.468,658.393 778.5,660.5C 778.815,657.789 778.148,655.456 776.5,653.5 Z"/></g>
<g><path style="opacity:1" fill="#939393" d="M 1647.5,653.5 C 1646.63,655.717 1646.3,658.05 1646.5,660.5C 1645.85,659.551 1645.51,658.385 1645.5,657C 1645.61,655.319 1646.27,654.152 1647.5,653.5 Z"/></g>
<g><path style="opacity:1" fill="#393939" d="M 1762.5,665.5 C 1763.24,665.369 1763.91,665.536 1764.5,666C 1762.59,670.897 1759.59,674.897 1755.5,678C 1742.5,683.833 1729.5,689.667 1716.5,695.5C 1716.67,690.039 1719.34,685.873 1724.5,683C 1737.38,677.391 1750.04,671.558 1762.5,665.5 Z"/></g>
<g><path style="opacity:1" fill="#383838" d="M 979.5,678.5 C 981.284,679.574 982.451,681.24 983,683.5C 984.356,691.529 983.356,699.195 980,706.5C 975.464,711.152 969.964,712.652 963.5,711C 962.069,710.535 960.903,709.701 960,708.5C 956.835,718.017 950.335,722.184 940.5,721C 935.106,717.711 932.773,712.878 933.5,706.5C 933.46,702.036 934.127,697.703 935.5,693.5C 936.833,693.5 938.167,693.5 939.5,693.5C 938.571,698.765 939.904,703.265 943.5,707C 948.965,707.894 952.798,705.727 955,700.5C 956.326,695.531 957.492,690.531 958.5,685.5C 959.086,685.291 959.586,684.957 960,684.5C 961.003,688.855 962.503,693.021 964.5,697C 968.999,699.367 972.832,698.533 976,694.5C 976.724,688.941 977.891,683.607 979.5,678.5 Z"/></g>
<g><path style="opacity:1" fill="#343434" d="M 766.5,874.5 C 776.987,875.494 787.654,875.828 798.5,875.5C 798.5,882.167 798.5,888.833 798.5,895.5C 781.167,895.5 763.833,895.5 746.5,895.5C 746.333,837.499 746.5,779.499 747,721.5C 750.787,705.863 760.621,699.03 776.5,701C 786.266,706.681 791.933,715.181 793.5,726.5C 789.188,724.711 785.521,721.877 782.5,718C 773.622,714.188 768.455,717.021 767,726.5C 766.5,775.832 766.333,825.166 766.5,874.5 Z"/></g>
<g><path style="opacity:1" fill="#353535" d="M 1678.5,729.5 C 1678.5,764.167 1678.5,798.833 1678.5,833.5C 1734.5,833.5 1790.5,833.5 1846.5,833.5C 1868.45,835.276 1881.95,846.943 1887,868.5C 1887.67,879.167 1887.67,889.833 1887,900.5C 1885.99,930.205 1871.15,941.705 1842.5,935C 1836,932.5 1831.5,928 1829,921.5C 1826.02,913.08 1824.52,904.414 1824.5,895.5C 1751.5,895.5 1678.5,895.5 1605.5,895.5C 1605.82,912.383 1602.99,928.717 1597,944.5C 1586.36,967.073 1568.53,978.407 1543.5,978.5C 1543.5,976.167 1543.5,973.833 1543.5,971.5C 1552.61,970.53 1560.11,966.53 1566,959.5C 1577.13,944.777 1583.13,928.11 1584,909.5C 1584.67,883.833 1584.67,858.167 1584,832.5C 1582.32,827.325 1578.82,823.992 1573.5,822.5C 1572.53,820.257 1572.19,817.924 1572.5,815.5C 1575.02,815.245 1577.35,814.411 1579.5,813C 1586.33,806.824 1591.83,799.658 1596,791.5C 1598.17,787.81 1601.34,786.143 1605.5,786.5C 1605.5,815.833 1605.5,845.167 1605.5,874.5C 1623.17,874.5 1640.83,874.5 1658.5,874.5C 1658.67,825.166 1658.5,775.832 1658,726.5C 1657.31,717.804 1652.81,714.637 1644.5,717C 1640.04,719.291 1636.38,722.458 1633.5,726.5C 1632.66,714.694 1637.66,706.194 1648.5,701C 1668.27,699.932 1678.27,709.432 1678.5,729.5 Z"/></g>
<g><path style="opacity:1" fill="#373737" d="M 1107.5,700.5 C 1123.36,700.011 1132.69,707.678 1135.5,723.5C 1135.17,724.5 1134.83,725.5 1134.5,726.5C 1131.35,723.85 1128.35,721.016 1125.5,718C 1117.07,714.026 1111.91,716.526 1110,725.5C 1109.33,775.167 1109.33,824.833 1110,874.5C 1115.03,872.302 1118.53,868.636 1120.5,863.5C 1122.83,862.167 1125.17,862.167 1127.5,863.5C 1132.73,873.893 1140.73,881.393 1151.5,886C 1155.19,888.169 1156.86,891.336 1156.5,895.5C 1133.83,895.5 1111.17,895.5 1088.5,895.5C 1088.33,838.499 1088.5,781.499 1089,724.5C 1090.64,712.841 1096.8,704.841 1107.5,700.5 Z"/></g>
<g><path style="opacity:1" fill="#393939" d="M 2151.5,715.5 C 2161.76,715.939 2165.93,721.272 2164,731.5C 2163.19,735.295 2161.69,738.795 2159.5,742C 2161.9,743.718 2164.56,744.885 2167.5,745.5C 2166.33,747.833 2165.17,750.167 2164,752.5C 2162.77,753.108 2161.44,753.441 2160,753.5C 2157.13,752.791 2154.3,752.291 2151.5,752C 2144.92,762.032 2135.76,767.865 2124,769.5C 2119.59,768.877 2115.75,767.044 2112.5,764C 2124.3,760.683 2135.47,755.85 2146,749.5C 2145.91,747.057 2144.58,745.39 2142,744.5C 2136.01,731.971 2139.18,722.305 2151.5,715.5 Z"/></g>
<g><path style="opacity:1" fill="#363636" d="M 1429.5,718.5 C 1439.72,716.395 1446.88,720.062 1451,729.5C 1450.86,746.644 1442.69,752.477 1426.5,747C 1416.39,736.278 1417.39,726.778 1429.5,718.5 Z"/></g>
<g><path style="opacity:1" fill="#373737" d="M 1570.5,721.5 C 1581.63,720.45 1588.47,725.45 1591,736.5C 1593.6,758.573 1584.1,767.406 1562.5,763C 1559.24,761.413 1557.08,758.913 1556,755.5C 1553.59,740.863 1558.42,729.53 1570.5,721.5 Z"/></g>
<g><path style="opacity:1" fill="#393939" d="M 2440.5,720.5 C 2441.68,720.281 2442.68,720.614 2443.5,721.5C 2441.68,725.629 2439.02,729.129 2435.5,732C 2421.93,738.038 2408.43,744.205 2395,750.5C 2396.28,744.808 2399.45,740.308 2404.5,737C 2416.71,731.725 2428.71,726.225 2440.5,720.5 Z"/></g>
<g><path style="opacity:1" fill="#f5f5f5" d="M 2145.5,725.5 C 2153.81,726.169 2156.47,730.502 2153.5,738.5C 2147.29,736.027 2144.62,731.693 2145.5,725.5 Z"/></g>
<g><path style="opacity:1" fill="#f8f8f8" d="M 1568.5,731.5 C 1577.75,731.748 1583.42,736.414 1585.5,745.5C 1585.15,747.697 1584.15,749.53 1582.5,751C 1577.25,752.506 1571.92,752.839 1566.5,752C 1561.27,749.367 1559.44,745.201 1561,739.5C 1563.03,736.308 1565.53,733.641 1568.5,731.5 Z"/></g>
<g><path style="opacity:1" fill="#373737" d="M 972.5,738.5 C 988.2,738.687 994.367,746.354 991,761.5C 983.997,771.358 975.497,772.858 965.5,766C 958.266,754.281 960.599,745.114 972.5,738.5 Z"/></g>
<g><path style="opacity:1" fill="#3a3a3a" d="M 883.5,740.5 C 884.239,740.369 884.906,740.536 885.5,741C 883.218,745.575 880.218,749.575 876.5,753C 862.925,759.038 849.425,765.205 836,771.5C 837.28,765.808 840.446,761.308 845.5,758C 858.377,752.391 871.044,746.558 883.5,740.5 Z"/></g>
<g><path style="opacity:1" fill="#353535" d="M 1489.5,900.5 C 1490.5,885.009 1490.83,869.342 1490.5,853.5C 1469.5,853.5 1448.5,853.5 1427.5,853.5C 1426.96,840.066 1427.79,826.733 1430,813.5C 1434.86,797.939 1444.36,786.106 1458.5,778C 1470.08,772.045 1481.74,766.378 1493.5,761C 1497.26,757.914 1500.26,754.248 1502.5,750C 1505.15,749.503 1507.81,749.336 1510.5,749.5C 1510.67,801.501 1510.5,853.501 1510,905.5C 1507.69,925.974 1496.19,936.64 1475.5,937.5C 1458.44,937.223 1447.6,928.889 1443,912.5C 1441.87,906.888 1441.37,901.221 1441.5,895.5C 1388.17,895.5 1334.83,895.5 1281.5,895.5C 1281.34,893.801 1281.51,892.134 1282,890.5C 1287.39,885.219 1293.56,881.053 1300.5,878C 1305.5,874.154 1309.17,869.321 1311.5,863.5C 1313.42,862.359 1315.42,862.192 1317.5,863C 1322.85,868.339 1329.18,872.006 1336.5,874C 1378.17,874.5 1419.83,874.667 1461.5,874.5C 1461.33,883.506 1461.5,892.506 1462,901.5C 1463.97,914.198 1470.81,918.365 1482.5,914C 1486.83,910.51 1489.17,906.01 1489.5,900.5 Z"/></g>
<g><path style="opacity:1" fill="#363636" d="M 1737.5,759.5 C 1753.21,760.366 1759.04,768.366 1755,783.5C 1747.02,793.332 1738.35,793.999 1729,785.5C 1722.98,773.89 1725.81,765.224 1737.5,759.5 Z"/></g>
<g><path style="opacity:1" fill="#353535" d="M 2333.5,700.5 C 2347.31,699.324 2356.47,705.324 2361,718.5C 2362.08,721.063 2362.58,723.729 2362.5,726.5C 2361.45,726.649 2360.45,726.483 2359.5,726C 2355.6,718.717 2349.6,715.717 2341.5,717C 2339.38,718.731 2337.88,720.898 2337,723.5C 2336.5,773.832 2336.33,824.166 2336.5,874.5C 2358.5,874.5 2380.5,874.5 2402.5,874.5C 2402.33,883.506 2402.5,892.506 2403,901.5C 2404.97,914.198 2411.81,918.365 2423.5,914C 2427.42,910.323 2429.92,905.823 2431,900.5C 2431.67,876.167 2431.67,851.833 2431,827.5C 2429.75,818.997 2425.92,811.997 2419.5,806.5C 2418.53,804.257 2418.19,801.924 2418.5,799.5C 2425.01,798.324 2430.18,794.991 2434,789.5C 2437.5,783.156 2441.5,777.156 2446,771.5C 2447.7,770.594 2449.53,770.261 2451.5,770.5C 2451.67,815.168 2451.5,859.835 2451,904.5C 2448.97,926.026 2437.14,937.026 2415.5,937.5C 2399.39,936.888 2388.89,928.888 2384,913.5C 2382.05,907.659 2381.22,901.659 2381.5,895.5C 2359.5,895.5 2337.5,895.5 2315.5,895.5C 2315.33,838.166 2315.5,780.832 2316,723.5C 2317.99,712.704 2323.82,705.038 2333.5,700.5 Z"/></g>
<g><path style="opacity:1" fill="#373737" d="M 626.5,780.5 C 642.321,781.127 648.155,789.127 644,804.5C 636.912,813.543 628.746,814.71 619.5,808C 611.374,796.103 613.708,786.937 626.5,780.5 Z"/></g>
<g><path style="opacity:1" fill="#363636" d="M 1024.5,704.5 C 1042.44,701.937 1052.94,709.604 1056,727.5C 1056.5,783.499 1056.67,839.499 1056.5,895.5C 1036.83,895.5 1017.17,895.5 997.5,895.5C 998.535,917.828 993.369,938.495 982,957.5C 969.971,971.927 954.471,978.927 935.5,978.5C 935.5,976.167 935.5,973.833 935.5,971.5C 945.091,970.452 952.924,966.119 959,958.5C 967.616,947.262 972.949,934.596 975,920.5C 976.582,890.857 976.915,861.19 976,831.5C 974.06,826.766 970.56,823.766 965.5,822.5C 964.526,820.257 964.192,817.924 964.5,815.5C 968.187,814.824 971.52,813.324 974.5,811C 979.948,804.605 984.781,797.772 989,790.5C 990.894,787.156 993.727,785.822 997.5,786.5C 997.5,815.833 997.5,845.167 997.5,874.5C 1010.17,874.5 1022.83,874.5 1035.5,874.5C 1035.67,825.499 1035.5,776.499 1035,727.5C 1031.91,719.104 1026.41,717.271 1018.5,722C 1015.63,724.537 1013.13,727.37 1011,730.5C 1010.13,729.892 1009.63,729.059 1009.5,728C 1011.15,717.842 1016.15,710.009 1024.5,704.5 Z"/></g>
<g><path style="opacity:1" fill="#fdfdfd" d="M 1487.5,787.5 C 1489.48,802.129 1490.15,817.129 1489.5,832.5C 1475.83,832.5 1462.17,832.5 1448.5,832.5C 1450.35,807.974 1463.35,792.974 1487.5,787.5 Z"/></g>
<g><path style="opacity:1" fill="#353535" d="M 799.5,895.5 C 799.5,888.833 799.5,882.167 799.5,875.5C 806.354,875.824 813.021,875.491 819.5,874.5C 819.748,849.067 831.082,830.234 853.5,818C 863.5,813.333 873.5,808.667 883.5,804C 888.023,800.977 891.69,797.144 894.5,792.5C 897.428,791.516 900.428,791.183 903.5,791.5C 903.5,826.167 903.5,860.833 903.5,895.5C 868.833,895.5 834.167,895.5 799.5,895.5 Z"/></g>
<g><path style="opacity:1" fill="#343434" d="M 2071.5,874.5 C 2127.66,875.499 2184,875.832 2240.5,875.5C 2240.17,883.352 2240.51,891.018 2241.5,898.5C 2241.46,903.795 2242.63,908.795 2245,913.5C 2249.95,917.677 2254.62,917.343 2259,912.5C 2260.47,908.971 2261.47,905.305 2262,901.5C 2262.67,884.5 2262.67,867.5 2262,850.5C 2261.28,841.401 2257.62,833.735 2251,827.5C 2250.5,825.19 2250.34,822.857 2250.5,820.5C 2256.5,819.016 2261.34,815.682 2265,810.5C 2268.46,804.41 2272.29,798.577 2276.5,793C 2278.35,791.872 2280.35,791.372 2282.5,791.5C 2282.67,829.835 2282.5,868.168 2282,906.5C 2280.29,928.546 2268.46,938.713 2246.5,937C 2236.5,935.653 2229.33,930.486 2225,921.5C 2222.22,913.048 2220.72,904.381 2220.5,895.5C 2151.17,895.5 2081.83,895.5 2012.5,895.5C 2012.5,890.971 2014.5,887.471 2018.5,885C 2028.94,880.728 2036.6,873.562 2041.5,863.5C 2043.76,862.353 2046.1,862.186 2048.5,863C 2054.57,870.036 2062.24,873.869 2071.5,874.5 Z"/></g>
<g><path style="opacity:1" fill="#b4b4b4" d="M 1487.5,787.5 C 1488.21,786.596 1489.21,786.263 1490.5,786.5C 1490.5,802.167 1490.5,817.833 1490.5,833.5C 1476.32,833.829 1462.32,833.496 1448.5,832.5C 1462.17,832.5 1475.83,832.5 1489.5,832.5C 1490.15,817.129 1489.48,802.129 1487.5,787.5 Z"/></g>
<g><path style="opacity:1" fill="#353535" d="M 681.5,844.5 C 681.185,841.789 681.852,839.456 683.5,837.5C 688.706,834.803 693.206,831.137 697,826.5C 699.855,820.15 703.688,814.483 708.5,809.5C 710.045,808.548 711.712,808.215 713.5,808.5C 713.667,847.501 713.5,886.501 713,925.5C 709.024,943.143 698.191,953.643 680.5,957C 636.168,957.5 591.835,957.667 547.5,957.5C 546.822,953.727 548.156,950.894 551.5,949C 559.123,945.273 565.956,940.439 572,934.5C 575.661,924.093 581.161,922.926 588.5,931C 592.935,934.368 597.935,936.368 603.5,937C 627.833,937.667 652.167,937.667 676.5,937C 684.026,935.161 689.192,930.661 692,923.5C 692.667,903.167 692.667,882.833 692,862.5C 689.777,855.716 686.277,849.716 681.5,844.5 Z"/></g>
<g><path style="opacity:1" fill="#fdfdfd" d="M 882.5,874.5 C 868.833,874.5 855.167,874.5 841.5,874.5C 841.5,872.167 841.5,869.833 841.5,867.5C 843.374,854.591 849.707,844.424 860.5,837C 867.263,833.285 874.263,830.118 881.5,827.5C 882.499,843.152 882.833,858.819 882.5,874.5 Z"/></g>
<g><path style="opacity:1" fill="#9d9d9d" d="M 1678.5,729.5 C 1679.5,763.663 1679.83,797.996 1679.5,832.5C 1735.34,832.168 1791,832.501 1846.5,833.5C 1790.5,833.5 1734.5,833.5 1678.5,833.5C 1678.5,798.833 1678.5,764.167 1678.5,729.5 Z"/></g>
<g><path style="opacity:1" fill="#7c7c7c" d="M 683.5,837.5 C 681.852,839.456 681.185,841.789 681.5,844.5C 680.532,842.393 680.198,840.059 680.5,837.5C 681.5,837.5 682.5,837.5 683.5,837.5 Z"/></g>
<g><path style="opacity:1" fill="#c7c7c7" d="M 1427.5,853.5 C 1448.5,853.5 1469.5,853.5 1490.5,853.5C 1490.83,869.342 1490.5,885.009 1489.5,900.5C 1489.5,885.167 1489.5,869.833 1489.5,854.5C 1468.66,854.831 1447.99,854.497 1427.5,853.5 Z"/></g>
<g><path style="opacity:1" fill="#c7c7c7" d="M 1850.5,854.5 C 1793.5,854.5 1736.5,854.5 1679.5,854.5C 1679.5,861.167 1679.5,867.833 1679.5,874.5C 1678.51,867.687 1678.18,860.687 1678.5,853.5C 1736,853.168 1793.34,853.501 1850.5,854.5 Z"/></g>
<g><path style="opacity:1" fill="#fefefe" d="M 1850.5,854.5 C 1858.45,856.612 1863.61,861.612 1866,869.5C 1866.79,881.86 1866.63,894.193 1865.5,906.5C 1864.01,913.85 1859.68,917.017 1852.5,916C 1848.48,913.323 1846.31,909.489 1846,904.5C 1845.5,894.506 1845.33,884.506 1845.5,874.5C 1790.17,874.5 1734.83,874.5 1679.5,874.5C 1679.5,867.833 1679.5,861.167 1679.5,854.5C 1736.5,854.5 1793.5,854.5 1850.5,854.5 Z"/></g>
<g><path style="opacity:1" fill="#656565" d="M 766.5,874.5 C 784.167,874.5 801.833,874.5 819.5,874.5C 813.021,875.491 806.354,875.824 799.5,875.5C 799.5,882.167 799.5,888.833 799.5,895.5C 799.167,895.5 798.833,895.5 798.5,895.5C 798.5,888.833 798.5,882.167 798.5,875.5C 787.654,875.828 776.987,875.494 766.5,874.5 Z"/></g>
<g><path style="opacity:1" fill="#6c6c6c" d="M 841.5,867.5 C 841.5,869.833 841.5,872.167 841.5,874.5C 855.167,874.5 868.833,874.5 882.5,874.5C 868.677,875.496 854.677,875.829 840.5,875.5C 840.194,872.615 840.527,869.948 841.5,867.5 Z"/></g>
<g><path style="opacity:1" fill="#646464" d="M 2071.5,874.5 C 2128.17,874.5 2184.83,874.5 2241.5,874.5C 2241.5,882.5 2241.5,890.5 2241.5,898.5C 2240.51,891.018 2240.17,883.352 2240.5,875.5C 2184,875.832 2127.66,875.499 2071.5,874.5 Z"/></g>
<g><path style="opacity:1" fill="#363636" d="M 2153.5,916.5 C 2169.68,916.209 2175.84,923.876 2172,939.5C 2167.35,946.499 2160.85,948.999 2152.5,947C 2143.97,942.774 2140.8,935.941 2143,926.5C 2145.41,921.922 2148.91,918.588 2153.5,916.5 Z"/></g>
<g><path style="opacity:1" fill="#3a3a3a" d="M 1504.5,951.5 C 1505.24,951.369 1505.91,951.536 1506.5,952C 1504.62,956.873 1501.62,960.873 1497.5,964C 1483.78,970.548 1470.11,976.381 1456.5,981.5C 1458.55,977.23 1461.22,973.397 1464.5,970C 1478.04,964.058 1491.38,957.891 1504.5,951.5 Z"/></g>
<g><path style="opacity:1" fill="#373737" d="M 2414.5,958.5 C 2426.69,956.583 2434.02,961.583 2436.5,973.5C 2433.54,987.98 2425.21,992.48 2411.5,987C 2401.4,976.198 2402.4,966.698 2414.5,958.5 Z"/></g>
<g><path style="opacity:1" fill="#393939" d="M 650.5,977.5 C 651.376,977.369 652.043,977.702 652.5,978.5C 651.035,982.602 648.701,986.102 645.5,989C 631.925,995.038 618.425,1001.2 605,1007.5C 605.367,1002.12 607.867,997.95 612.5,995C 625.311,989.241 637.978,983.408 650.5,977.5 Z"/></g>
<g><path style="opacity:1" fill="#696969" d="M 1084.5,1091.5 C 1064.47,1090.85 1044.8,1091.51 1025.5,1093.5C 1024.6,1092.79 1024.26,1091.79 1024.5,1090.5C 1044.67,1090.17 1064.67,1090.5 1084.5,1091.5 Z"/></g>
<g><path style="opacity:1" fill="#828282" d="M 912.5,1091.5 C 911.167,1091.5 909.833,1091.5 908.5,1091.5C 908.169,1118.01 908.502,1144.34 909.5,1170.5C 909.217,1171.29 908.717,1171.96 908,1172.5C 907.5,1145.17 907.333,1117.84 907.5,1090.5C 909.415,1090.22 911.081,1090.55 912.5,1091.5 Z"/></g>
<g><path style="opacity:1" fill="#343434" d="M 912.5,1091.5 C 914.463,1092.96 916.296,1094.63 918,1096.5C 922.02,1105.85 928.187,1113.35 936.5,1119C 937.793,1119.49 939.127,1119.66 940.5,1119.5C 940.663,1121.86 940.497,1124.19 940,1126.5C 930.693,1135.92 926.86,1147.25 928.5,1160.5C 920.591,1160.95 914.258,1164.29 909.5,1170.5C 908.502,1144.34 908.169,1118.01 908.5,1091.5C 909.833,1091.5 911.167,1091.5 912.5,1091.5 Z"/></g>
<g><path style="opacity:1" fill="#353535" d="M 1084.5,1091.5 C 1132.46,1094.06 1149.3,1118.39 1135,1164.5C 1133.19,1170.28 1131.19,1175.94 1129,1181.5C 1127.87,1171.06 1123.04,1162.9 1114.5,1157C 1126.82,1131.65 1119.48,1115.65 1092.5,1109C 1084.2,1107.65 1075.87,1107.32 1067.5,1108C 1065.83,1109 1064.17,1110 1062.5,1111C 1059.59,1114.56 1056.76,1118.06 1054,1121.5C 1048,1118.5 1046.17,1113.83 1048.5,1107.5C 1039.79,1104.43 1032.12,1099.77 1025.5,1093.5C 1044.8,1091.51 1064.47,1090.85 1084.5,1091.5 Z"/></g>
<g><path style="opacity:1" fill="#353535" d="M 1326.5,1164.5 C 1325.79,1163.6 1324.79,1163.26 1323.5,1163.5C 1323.81,1159.63 1323.48,1155.96 1322.5,1152.5C 1322.75,1142.01 1318.92,1133.34 1311,1126.5C 1310.5,1124.19 1310.34,1121.86 1310.5,1119.5C 1316.62,1117.84 1321.78,1114.51 1326,1109.5C 1329.05,1102.56 1333.22,1096.39 1338.5,1091C 1340.13,1090.51 1341.8,1090.34 1343.5,1090.5C 1343.67,1118.84 1343.5,1147.17 1343,1175.5C 1339.07,1169.45 1333.57,1165.79 1326.5,1164.5 Z"/></g>
<g><path style="opacity:1" fill="#9f9f9f" d="M 1381.5,1091.5 C 1379.83,1091.5 1378.17,1091.5 1376.5,1091.5C 1376.17,1118.34 1376.5,1145.01 1377.5,1171.5C 1377.44,1172.04 1377.11,1172.38 1376.5,1172.5C 1375.5,1145.17 1375.17,1117.84 1375.5,1090.5C 1377.74,1090.21 1379.74,1090.54 1381.5,1091.5 Z"/></g>
<g><path style="opacity:1" fill="#353535" d="M 1381.5,1091.5 C 1386.3,1096.41 1390.13,1102.08 1393,1108.5C 1395.83,1111.33 1398.67,1114.17 1401.5,1117C 1403.44,1118.9 1405.77,1119.74 1408.5,1119.5C 1408.81,1122.25 1408.48,1124.91 1407.5,1127.5C 1398.47,1136.58 1394.81,1147.58 1396.5,1160.5C 1388.1,1160.86 1381.77,1164.52 1377.5,1171.5C 1376.5,1145.01 1376.17,1118.34 1376.5,1091.5C 1378.17,1091.5 1379.83,1091.5 1381.5,1091.5 Z"/></g>
<g><path style="opacity:1" fill="#343434" d="M 1961.5,1091.5 C 1962.83,1091.5 1964.17,1091.5 1965.5,1091.5C 1965.5,1118.17 1965.5,1144.83 1965.5,1171.5C 1960.64,1164.73 1953.97,1161.07 1945.5,1160.5C 1946.92,1147.6 1943.09,1136.6 1934,1127.5C 1933.5,1124.85 1933.34,1122.19 1933.5,1119.5C 1937.69,1118.74 1941.36,1116.9 1944.5,1114C 1949.12,1108.71 1952.95,1102.87 1956,1096.5C 1957.7,1094.63 1959.54,1092.96 1961.5,1091.5 Z"/></g>
<g><path style="opacity:1" fill="#8d8d8d" d="M 1961.5,1091.5 C 1962.92,1090.55 1964.59,1090.22 1966.5,1090.5C 1966.83,1118.24 1966.5,1145.24 1965.5,1171.5C 1965.5,1144.83 1965.5,1118.17 1965.5,1091.5C 1964.17,1091.5 1962.83,1091.5 1961.5,1091.5 Z"/></g>
<g><path style="opacity:1" fill="#393939" d="M 2049.5,1131.5 C 2050.38,1131.37 2051.04,1131.7 2051.5,1132.5C 2049.54,1136.26 2047.21,1139.76 2044.5,1143C 2030.82,1150.36 2016.82,1156.2 2002.5,1160.5C 2004.44,1155.77 2007.44,1151.94 2011.5,1149C 2024.38,1143.39 2037.04,1137.56 2049.5,1131.5 Z"/></g>
<g><path style="opacity:1" fill="#ffb34f" d="M 338.5,1140.5 C 413.015,1138.19 475.848,1163.86 527,1217.5C 543.688,1236.56 554.688,1258.56 560,1283.5C 565.139,1317.87 556.806,1348.54 535,1375.5C 500.544,1417.55 456.377,1433.71 402.5,1424C 332.336,1408.36 276.836,1371.19 236,1312.5C 220.078,1287.81 212.745,1260.81 214,1231.5C 217.617,1208.76 228.117,1189.93 245.5,1175C 273.163,1154.5 304.163,1143 338.5,1140.5 Z"/></g>
<g><path style="opacity:1" fill="#626262" d="M 1322.5,1152.5 C 1323.48,1155.96 1323.81,1159.63 1323.5,1163.5C 1324.79,1163.26 1325.79,1163.6 1326.5,1164.5C 1325.17,1164.5 1323.83,1164.5 1322.5,1164.5C 1322.5,1160.5 1322.5,1156.5 1322.5,1152.5 Z"/></g>
<g><path style="opacity:1" fill="#353535" d="M 1026.5,1297.5 C 1025.53,1297.99 1024.53,1298.49 1023.5,1299C 1048.67,1299.83 1073.67,1299.66 1098.5,1298.5C 1099.59,1267.25 1115.59,1254.08 1146.5,1259C 1158.44,1263.94 1165.61,1272.78 1168,1285.5C 1169.39,1303.8 1169.89,1322.13 1169.5,1340.5C 1180.17,1340.5 1190.83,1340.5 1201.5,1340.5C 1201.22,1316.56 1211.22,1298.39 1231.5,1286C 1243.08,1280.05 1254.74,1274.38 1266.5,1269C 1270.31,1266.23 1273.31,1262.73 1275.5,1258.5C 1278.43,1257.52 1281.43,1257.18 1284.5,1257.5C 1284.5,1285.17 1284.5,1312.83 1284.5,1340.5C 1287.96,1341.48 1291.63,1341.81 1295.5,1341.5C 1295.5,1348.17 1295.5,1354.83 1295.5,1361.5C 1184.17,1361.5 1072.83,1361.5 961.5,1361.5C 961.5,1354.83 961.5,1348.17 961.5,1341.5C 1024,1341.83 1086.34,1341.5 1148.5,1340.5C 1148.67,1324.5 1148.5,1308.5 1148,1292.5C 1145.96,1282.1 1139.79,1277.6 1129.5,1279C 1124.01,1281.83 1120.84,1286.33 1120,1292.5C 1119.5,1301.49 1119.33,1310.49 1119.5,1319.5C 1076.83,1319.67 1034.17,1319.5 991.5,1319C 985.134,1312.97 979.134,1306.64 973.5,1300C 1024.25,1280.6 1065.08,1248.44 1096,1203.5C 1100.25,1197.08 1102.25,1190.08 1102,1182.5C 1097.05,1174.28 1089.89,1171.45 1080.5,1174C 1074.46,1176.7 1069.63,1180.87 1066,1186.5C 1066.5,1164.67 1077.66,1154.84 1099.5,1157C 1117.91,1163.3 1125.41,1176.13 1122,1195.5C 1114.59,1212 1104.92,1227 1093,1240.5C 1073.66,1263.02 1051.49,1282.02 1026.5,1297.5 Z"/></g>
<g><path style="opacity:1" fill="#343434" d="M 1394.5,1166.5 C 1410.31,1165.96 1419.65,1173.63 1422.5,1189.5C 1422.17,1190.5 1421.83,1191.5 1421.5,1192.5C 1417.98,1189.15 1414.31,1185.98 1410.5,1183C 1402.19,1180.64 1397.69,1183.8 1397,1192.5C 1396.5,1241.5 1396.33,1290.5 1396.5,1339.5C 1398.31,1339.51 1399.98,1339.01 1401.5,1338C 1403.83,1335 1406.17,1332 1408.5,1329C 1410.47,1328.5 1412.47,1328.34 1414.5,1328.5C 1418.95,1339.12 1426.62,1346.62 1437.5,1351C 1441.5,1353.47 1443.5,1356.97 1443.5,1361.5C 1421.17,1361.5 1398.83,1361.5 1376.5,1361.5C 1376.33,1303.83 1376.5,1246.17 1377,1188.5C 1378.65,1177.7 1384.49,1170.36 1394.5,1166.5 Z"/></g>
<g><path style="opacity:1" fill="#353535" d="M 1965.5,1191.5 C 1965.5,1227.5 1965.5,1263.5 1965.5,1299.5C 2022.17,1299.5 2078.83,1299.5 2135.5,1299.5C 2156.37,1302.2 2169.21,1313.87 2174,1334.5C 2174.67,1346.5 2174.67,1358.5 2174,1370.5C 2170.58,1399.13 2155.08,1408.97 2127.5,1400C 2118.18,1394.21 2113.35,1385.71 2113,1374.5C 2112.5,1370.18 2112.33,1365.85 2112.5,1361.5C 2039.17,1361.5 1965.83,1361.5 1892.5,1361.5C 1893.39,1384.27 1887.89,1405.27 1876,1424.5C 1864.05,1438.39 1848.88,1445.06 1830.5,1444.5C 1830.5,1442.17 1830.5,1439.83 1830.5,1437.5C 1840.09,1436.45 1847.92,1432.12 1854,1424.5C 1864.43,1409.88 1870.1,1393.54 1871,1375.5C 1871.67,1349.5 1871.67,1323.5 1871,1297.5C 1869.06,1292.77 1865.56,1289.77 1860.5,1288.5C 1859.53,1286.26 1859.19,1283.92 1859.5,1281.5C 1862.02,1281.24 1864.35,1280.41 1866.5,1279C 1869.33,1276.17 1872.17,1273.33 1875,1270.5C 1878.31,1264.05 1882.47,1258.22 1887.5,1253C 1889.13,1252.51 1890.8,1252.34 1892.5,1252.5C 1892.5,1281.83 1892.5,1311.17 1892.5,1340.5C 1910.17,1340.5 1927.83,1340.5 1945.5,1340.5C 1945.67,1290.83 1945.5,1241.17 1945,1191.5C 1943.09,1182.53 1937.93,1180.03 1929.5,1184C 1926.62,1186.89 1923.62,1189.72 1920.5,1192.5C 1919.64,1182.7 1923.31,1174.87 1931.5,1169C 1951.06,1163.63 1962.39,1171.13 1965.5,1191.5 Z"/></g>
<g><path style="opacity:1" fill="#363636" d="M 928.5,1340.5 C 938.987,1341.49 949.654,1341.83 960.5,1341.5C 960.5,1348.17 960.5,1354.83 960.5,1361.5C 942.833,1361.5 925.167,1361.5 907.5,1361.5C 907.333,1304.5 907.5,1247.5 908,1190.5C 910.848,1173.63 920.681,1165.8 937.5,1167C 948.474,1172.11 953.807,1180.61 953.5,1192.5C 950.349,1189.85 947.349,1187.02 944.5,1184C 936.074,1180.03 930.908,1182.53 929,1191.5C 928.5,1241.17 928.333,1290.83 928.5,1340.5 Z"/></g>
<g><path style="opacity:1" fill="#353535" d="M 1296.5,1361.5 C 1296.5,1354.83 1296.5,1348.17 1296.5,1341.5C 1305.35,1341.83 1314.02,1341.49 1322.5,1340.5C 1322.67,1291.17 1322.5,1241.83 1322,1192.5C 1317.72,1184.53 1311.88,1183.37 1304.5,1189C 1302.45,1191.59 1300.28,1194.09 1298,1196.5C 1297.06,1195.74 1296.56,1194.74 1296.5,1193.5C 1298.18,1184.62 1302.52,1177.45 1309.5,1172C 1327.71,1167.19 1338.87,1174.02 1343,1192.5C 1343.5,1248.83 1343.67,1305.17 1343.5,1361.5C 1327.83,1361.5 1312.17,1361.5 1296.5,1361.5 Z"/></g>
<g><path style="opacity:1" fill="#363636" d="M 1716.5,1184.5 C 1726.72,1182.4 1733.88,1186.06 1738,1195.5C 1737.9,1212.6 1729.73,1218.43 1713.5,1213C 1703.53,1202.32 1704.53,1192.82 1716.5,1184.5 Z"/></g>
<g><path style="opacity:1" fill="#373737" d="M 1857.5,1187.5 C 1869.09,1186.57 1875.92,1191.91 1878,1203.5C 1880.47,1225.36 1870.97,1233.86 1849.5,1229C 1846.67,1227.5 1844.5,1225.33 1843,1222.5C 1840.37,1207.5 1845.21,1195.83 1857.5,1187.5 Z"/></g>
<g><path style="opacity:1" fill="#f9f9f9" d="M 1855.5,1197.5 C 1864.54,1197.7 1870.21,1202.2 1872.5,1211C 1872.3,1213.41 1871.3,1215.41 1869.5,1217C 1864.59,1218.49 1859.59,1218.83 1854.5,1218C 1847.13,1214.69 1845.63,1209.52 1850,1202.5C 1851.73,1200.6 1853.56,1198.93 1855.5,1197.5 Z"/></g>
<g><path style="opacity:1" fill="#393939" d="M 1053.5,1200.5 C 1054.38,1200.37 1055.04,1200.7 1055.5,1201.5C 1053.54,1205.26 1051.21,1208.76 1048.5,1212C 1034.66,1218.98 1020.66,1224.81 1006.5,1229.5C 1008.53,1224.25 1011.87,1220.08 1016.5,1217C 1029.16,1212 1041.49,1206.5 1053.5,1200.5 Z"/></g>
<g><path style="opacity:1" fill="#393939" d="M 1260.5,1207.5 C 1261.55,1207.35 1262.55,1207.52 1263.5,1208C 1261.81,1212.38 1259.15,1216.04 1255.5,1219C 1242.07,1225.56 1228.4,1231.23 1214.5,1236C 1216.68,1231.98 1219.34,1228.31 1222.5,1225C 1235.31,1219.24 1247.98,1213.41 1260.5,1207.5 Z"/></g>
<g><path style="opacity:1" fill="#3a3a3a" d="M 2272.5,1206.5 C 2273.24,1206.37 2273.91,1206.54 2274.5,1207C 2272.22,1211.58 2269.22,1215.58 2265.5,1219C 2251.93,1225.04 2238.43,1231.2 2225,1237.5C 2226.28,1231.81 2229.45,1227.31 2234.5,1224C 2247.38,1218.39 2260.04,1212.56 2272.5,1206.5 Z"/></g>
<g><path style="opacity:1" fill="#363636" d="M 1776.5,1366.5 C 1777.5,1351.01 1777.83,1335.34 1777.5,1319.5C 1756.5,1319.5 1735.5,1319.5 1714.5,1319.5C 1713.44,1303.88 1714.94,1288.55 1719,1273.5C 1724.67,1260.83 1733.51,1250.99 1745.5,1244C 1757.08,1238.05 1768.74,1232.38 1780.5,1227C 1784.06,1223.94 1787.06,1220.44 1789.5,1216.5C 1792.43,1215.52 1795.43,1215.18 1798.5,1215.5C 1798.67,1265.83 1798.5,1316.17 1798,1366.5C 1794.87,1396.32 1778.7,1407.82 1749.5,1401C 1737.76,1396.03 1730.92,1387.2 1729,1374.5C 1728.5,1370.18 1728.33,1365.85 1728.5,1361.5C 1675.5,1361.5 1622.5,1361.5 1569.5,1361.5C 1569.34,1359.47 1569.5,1357.47 1570,1355.5C 1575.29,1350.88 1581.13,1347.05 1587.5,1344C 1592.51,1340.16 1596.18,1335.33 1598.5,1329.5C 1600.42,1328.36 1602.42,1328.19 1604.5,1329C 1609.85,1334.34 1616.18,1338.01 1623.5,1340C 1665.17,1340.5 1706.83,1340.67 1748.5,1340.5C 1748.13,1350.89 1748.63,1361.22 1750,1371.5C 1757.22,1385.41 1765.55,1386.07 1775,1373.5C 1776.2,1371.32 1776.7,1368.99 1776.5,1366.5 Z"/></g>
<g><path style="opacity:1" fill="#373737" d="M 2024.5,1225.5 C 2040.17,1226.34 2046.01,1234.34 2042,1249.5C 2035.52,1258.05 2027.68,1259.55 2018.5,1254C 2009.09,1242.05 2011.09,1232.55 2024.5,1225.5 Z"/></g>
<g><path style="opacity:1" fill="#ffb34f" d="M -0.5,1373.5 C -0.5,1328.5 -0.5,1283.5 -0.5,1238.5C 2.93649,1236.52 6.60316,1235.02 10.5,1234C 36.3355,1228.81 60.6689,1232.81 83.5,1246C 122.241,1272.75 149.741,1308.25 166,1352.5C 173.88,1377.06 169.38,1398.89 152.5,1418C 134.748,1433.04 114.415,1438.37 91.5,1434C 66.4154,1426.96 44.0821,1414.96 24.5,1398C 15.635,1390.3 7.30167,1382.13 -0.5,1373.5 Z"/></g>
<g><path style="opacity:1" fill="#363636" d="M 787.5,1246.5 C 796.25,1245.46 802.75,1248.79 807,1256.5C 808.648,1272.52 801.481,1279.35 785.5,1277C 776.427,1271.11 774.26,1263.28 779,1253.5C 781.441,1250.55 784.275,1248.21 787.5,1246.5 Z"/></g>
<g><path style="opacity:1" fill="#fcfcfc" d="M 1777.5,1298.5 C 1763.83,1298.5 1750.17,1298.5 1736.5,1298.5C 1736.5,1295.83 1736.5,1293.17 1736.5,1290.5C 1739.65,1275.71 1747.98,1264.88 1761.5,1258C 1766.61,1255.46 1771.94,1253.63 1777.5,1252.5C 1777.5,1267.83 1777.5,1283.17 1777.5,1298.5 Z"/></g>
<g><path style="opacity:1" fill="#363636" d="M 2281.5,1257.5 C 2284.5,1257.5 2287.5,1257.5 2290.5,1257.5C 2290.9,1299.52 2290.4,1341.52 2289,1383.5C 2286.99,1401.24 2280.15,1416.74 2268.5,1430C 2256.67,1439.89 2243.01,1444.72 2227.5,1444.5C 2227.5,1442.17 2227.5,1439.83 2227.5,1437.5C 2237.63,1436.35 2245.8,1431.68 2252,1423.5C 2264.62,1404.81 2270.45,1384.14 2269.5,1361.5C 2248.5,1361.5 2227.5,1361.5 2206.5,1361.5C 2205.48,1345.88 2206.98,1330.55 2211,1315.5C 2215.91,1304.25 2223.41,1295.08 2233.5,1288C 2246.66,1280.95 2259.99,1274.28 2273.5,1268C 2277.15,1265.19 2279.82,1261.69 2281.5,1257.5 Z"/></g>
<g><path style="opacity:1" fill="#353535" d="M 870.5,1274.5 C 872.167,1274.5 873.833,1274.5 875.5,1274.5C 875.667,1312.17 875.5,1349.83 875,1387.5C 872.184,1406.65 861.351,1418.48 842.5,1423C 798.168,1423.5 753.835,1423.67 709.5,1423.5C 709.143,1419.34 710.81,1416.17 714.5,1414C 725.238,1409.81 733.238,1402.65 738.5,1392.5C 740.765,1391.35 743.098,1391.19 745.5,1392C 750.709,1398.27 757.375,1401.94 765.5,1403C 789.833,1403.67 814.167,1403.67 838.5,1403C 846.333,1400.5 851.5,1395.33 854,1387.5C 854.667,1367.83 854.667,1348.17 854,1328.5C 851.555,1321.73 847.889,1315.73 843,1310.5C 842.192,1308.42 842.359,1306.42 843.5,1304.5C 849.321,1302.17 854.154,1298.5 858,1293.5C 861.68,1286.8 865.847,1280.46 870.5,1274.5 Z"/></g>
<g><path style="opacity:1" fill="#797979" d="M 1262.5,1294.5 C 1262.56,1293.96 1262.89,1293.62 1263.5,1293.5C 1264.83,1309.33 1264.83,1324.99 1263.5,1340.5C 1263.83,1324.99 1263.5,1309.66 1262.5,1294.5 Z"/></g>
<g><path style="opacity:1" fill="#fdfdfd" d="M 1262.5,1294.5 C 1263.5,1309.66 1263.83,1324.99 1263.5,1340.5C 1249.83,1340.5 1236.17,1340.5 1222.5,1340.5C 1222.32,1323.69 1229.32,1310.85 1243.5,1302C 1249.64,1298.93 1255.97,1296.43 1262.5,1294.5 Z"/></g>
<g><path style="opacity:1" fill="#fdfdfd" d="M 2267.5,1294.5 C 2268.5,1309.66 2268.83,1324.99 2268.5,1340.5C 2254.83,1340.5 2241.17,1340.5 2227.5,1340.5C 2229.67,1315.65 2243,1300.32 2267.5,1294.5 Z"/></g>
<g><path style="opacity:1" fill="#bfbfbf" d="M 2267.5,1294.5 C 2267.56,1293.96 2267.89,1293.62 2268.5,1293.5C 2269.83,1309.33 2269.83,1324.99 2268.5,1340.5C 2268.83,1324.99 2268.5,1309.66 2267.5,1294.5 Z"/></g>
<g><path style="opacity:1" fill="#989898" d="M 1026.5,1297.5 C 1050.33,1298.5 1074.33,1298.83 1098.5,1298.5C 1073.67,1299.66 1048.67,1299.83 1023.5,1299C 1024.53,1298.49 1025.53,1297.99 1026.5,1297.5 Z"/></g>
<g><path style="opacity:1" fill="#9d9d9d" d="M 1736.5,1290.5 C 1736.5,1293.17 1736.5,1295.83 1736.5,1298.5C 1750.17,1298.5 1763.83,1298.5 1777.5,1298.5C 1763.68,1299.5 1749.68,1299.83 1735.5,1299.5C 1735.19,1296.29 1735.52,1293.29 1736.5,1290.5 Z"/></g>
<g><path style="opacity:1" fill="#969696" d="M 1965.5,1191.5 C 1966.5,1227 1966.83,1262.66 1966.5,1298.5C 2023,1298.17 2079.34,1298.5 2135.5,1299.5C 2078.83,1299.5 2022.17,1299.5 1965.5,1299.5C 1965.5,1263.5 1965.5,1227.5 1965.5,1191.5 Z"/></g>
<g><path style="opacity:1" fill="#cfcfcf" d="M 1714.5,1319.5 C 1735.5,1319.5 1756.5,1319.5 1777.5,1319.5C 1777.83,1335.34 1777.5,1351.01 1776.5,1366.5C 1776.5,1351.17 1776.5,1335.83 1776.5,1320.5C 1755.66,1320.83 1734.99,1320.5 1714.5,1319.5 Z"/></g>
<g><path style="opacity:1" fill="#fcfcfc" d="M 1966.5,1319.5 C 2024.54,1319.02 2082.54,1319.52 2140.5,1321C 2146.82,1323.99 2150.99,1328.82 2153,1335.5C 2153.9,1348.22 2153.56,1360.88 2152,1373.5C 2150.6,1380.45 2146.43,1383.28 2139.5,1382C 2135.35,1378.96 2133.18,1374.79 2133,1369.5C 2132.5,1359.84 2132.33,1350.17 2132.5,1340.5C 2077.17,1340.5 2021.83,1340.5 1966.5,1340.5C 1966.5,1333.5 1966.5,1326.5 1966.5,1319.5 Z"/></g>
<g><path style="opacity:1" fill="#656565" d="M 928.5,1340.5 C 1001.83,1340.5 1075.17,1340.5 1148.5,1340.5C 1086.34,1341.5 1024,1341.83 961.5,1341.5C 961.5,1348.17 961.5,1354.83 961.5,1361.5C 961.167,1361.5 960.833,1361.5 960.5,1361.5C 960.5,1354.83 960.5,1348.17 960.5,1341.5C 949.654,1341.83 938.987,1341.49 928.5,1340.5 Z"/></g>
<g><path style="opacity:1" fill="#616161" d="M 1284.5,1340.5 C 1297.17,1340.5 1309.83,1340.5 1322.5,1340.5C 1314.02,1341.49 1305.35,1341.83 1296.5,1341.5C 1296.5,1348.17 1296.5,1354.83 1296.5,1361.5C 1296.17,1361.5 1295.83,1361.5 1295.5,1361.5C 1295.5,1354.83 1295.5,1348.17 1295.5,1341.5C 1291.63,1341.81 1287.96,1341.48 1284.5,1340.5 Z"/></g>
<g><path style="opacity:1" fill="#393939" d="M 1791.5,1417.5 C 1792.24,1417.37 1792.91,1417.54 1793.5,1418C 1791.59,1422.9 1788.59,1426.9 1784.5,1430C 1771.41,1436.84 1758.07,1442.34 1744.5,1446.5C 1745.97,1442.4 1748.3,1438.9 1751.5,1436C 1764.89,1429.71 1778.23,1423.55 1791.5,1417.5 Z"/></g>
<g><path style="opacity:1" fill="#ffb34f" d="M -0.5,1427.5 C 16.3572,1441.52 30.5238,1457.86 42,1476.5C 54.9207,1498.11 60.5873,1521.44 59,1546.5C 53.7172,1581.28 33.8839,1602.28 -0.5,1609.5C -0.5,1548.83 -0.5,1488.17 -0.5,1427.5 Z"/></g>
<g><path style="opacity:1" fill="#ffb34f" d="M 250.5,1442.5 C 283.162,1440 313.829,1446.5 342.5,1462C 369.826,1479.32 387.993,1503.49 397,1534.5C 402.275,1571.34 392.275,1603.34 367,1630.5C 325.933,1671.23 277.433,1684.06 221.5,1669C 163.521,1645.69 136.688,1602.85 141,1540.5C 151.04,1493.13 179.207,1462.29 225.5,1448C 233.925,1445.95 242.259,1444.12 250.5,1442.5 Z"/></g>
<g><path style="opacity:1" fill="#393939" d="M 812.5,1443.5 C 813.376,1443.37 814.043,1443.7 814.5,1444.5C 812.755,1448.41 810.422,1451.91 807.5,1455C 793.621,1461.61 779.621,1467.61 765.5,1473C 767.321,1469.03 769.655,1465.36 772.5,1462C 785.893,1455.71 799.227,1449.55 812.5,1443.5 Z"/></g>
</svg>
