<?xml version="1.0" encoding="UTF-8"?>
<!DOCTYPE svg PUBLIC "-//W3C//DTD SVG 1.1//EN" "http://www.w3.org/Graphics/SVG/1.1/DTD/svg11.dtd">
<svg xmlns="http://www.w3.org/2000/svg" version="1.1" width="3000px" height="2000px" style="shape-rendering:geometricPrecision; text-rendering:geometricPrecision; image-rendering:optimizeQuality; fill-rule:evenodd; clip-rule:evenodd" xmlns:xlink="http://www.w3.org/1999/xlink">
<g><path style="opacity:1" fill="#fffefe" d="M -0.5,-0.5 C 120.167,-0.5 240.833,-0.5 361.5,-0.5C 375.97,23.0256 383.804,48.6923 385,76.5C 386.161,131.533 377.161,184.866 358,236.5C 352.217,251.4 345.884,266.066 339,280.5C 335.501,288.995 333.668,297.829 333.5,307C 334.313,316.692 335.313,326.359 336.5,336C 337.354,344.109 334.688,350.776 328.5,356C 317.833,362.333 307.167,368.667 296.5,375C 287.667,382.494 281.167,391.661 277,402.5C 274.489,404.563 271.656,406.063 268.5,407C 230.837,413.701 193.837,411.035 157.5,399C 51.3111,364.031 3.81113,290.531 15,178.5C 12.6961,162.087 7.52946,146.754 -0.5,132.5C -0.5,88.1667 -0.5,43.8333 -0.5,-0.5 Z"/></g>
<g><path style="opacity:1" fill="#ffb350" d="M 361.5,-0.5 C 370.833,-0.5 380.167,-0.5 389.5,-0.5C 400.825,21.7963 407.325,45.4629 409,70.5C 411.154,129.241 402.154,186.241 382,241.5C 374.333,260.167 366.667,278.833 359,297.5C 358.469,310.539 358.969,323.539 360.5,336.5C 361.243,352.18 355.576,365.013 343.5,375C 332.666,381.918 321.666,388.585 310.5,395C 304.532,401.768 299.699,409.268 296,417.5C 291.195,423.488 285.028,427.321 277.5,429C 247.013,436.744 216.347,437.411 185.5,431C 138.651,422.234 96.6511,403.234 59.5,374C 31.2099,349.232 11.2099,319.065 -0.5,283.5C -0.5,233.167 -0.5,182.833 -0.5,132.5C 7.52946,146.754 12.6961,162.087 15,178.5C 3.81113,290.531 51.3111,364.031 157.5,399C 193.837,411.035 230.837,413.701 268.5,407C 271.656,406.063 274.489,404.563 277,402.5C 281.167,391.661 287.667,382.494 296.5,375C 307.167,368.667 317.833,362.333 328.5,356C 334.688,350.776 337.354,344.109 336.5,336C 335.313,326.359 334.313,316.692 333.5,307C 333.668,297.829 335.501,288.995 339,280.5C 345.884,266.066 352.217,251.4 358,236.5C 377.161,184.866 386.161,131.533 385,76.5C 383.804,48.6923 375.97,23.0256 361.5,-0.5 Z"/></g>
<g><path style="opacity:1" fill="#fffefe" d="M 389.5,-0.5 C 448.833,-0.5 508.167,-0.5 567.5,-0.5C 601.879,73.369 609.713,150.036 591,229.5C 576.253,287.224 545.419,334.057 498.5,370C 474.226,385.942 450.226,402.276 426.5,419C 402.043,437.087 384.21,460.254 373,488.5C 366.803,505.424 360.803,522.424 355,539.5C 335.839,587.504 300.672,607.004 249.5,598C 241.323,596.274 233.323,593.941 225.5,591C 210.125,584.766 195.125,577.766 180.5,570C 163.156,564.189 145.323,561.355 127,561.5C 107.125,562.438 87.2912,563.938 67.5,566C 59.1667,566.667 50.8333,566.667 42.5,566C 28.1165,563.381 13.7831,560.547 -0.5,557.5C -0.5,466.167 -0.5,374.833 -0.5,283.5C 11.2099,319.065 31.2099,349.232 59.5,374C 96.6511,403.234 138.651,422.234 185.5,431C 216.347,437.411 247.013,436.744 277.5,429C 285.028,427.321 291.195,423.488 296,417.5C 299.699,409.268 304.532,401.768 310.5,395C 321.666,388.585 332.666,381.918 343.5,375C 355.576,365.013 361.243,352.18 360.5,336.5C 358.969,323.539 358.469,310.539 359,297.5C 366.667,278.833 374.333,260.167 382,241.5C 402.154,186.241 411.154,129.241 409,70.5C 407.325,45.4629 400.825,21.7963 389.5,-0.5 Z"/></g>
<g><path style="opacity:1" fill="#ffb350" d="M 567.5,-0.5 C 576.5,-0.5 585.5,-0.5 594.5,-0.5C 627.131,76.6165 633.631,155.95 614,237.5C 598.56,296.587 567.394,345.42 520.5,384C 494.34,402.247 468.007,420.247 441.5,438C 420.697,453.134 405.531,472.634 396,496.5C 390.136,512.424 384.47,528.424 379,544.5C 357.838,601.332 317.004,627.832 256.5,624C 244.188,622.255 232.188,619.255 220.5,615C 204.231,608.198 188.231,600.864 172.5,593C 154.798,585.996 136.464,583.662 117.5,586C 98.2071,588.114 78.8737,589.614 59.5,590.5C 39.1982,590.096 19.1982,587.429 -0.5,582.5C -0.5,574.167 -0.5,565.833 -0.5,557.5C 13.7831,560.547 28.1165,563.381 42.5,566C 50.8333,566.667 59.1667,566.667 67.5,566C 87.2912,563.938 107.125,562.438 127,561.5C 145.323,561.355 163.156,564.189 180.5,570C 195.125,577.766 210.125,584.766 225.5,591C 233.323,593.941 241.323,596.274 249.5,598C 300.672,607.004 335.839,587.504 355,539.5C 360.803,522.424 366.803,505.424 373,488.5C 384.21,460.254 402.043,437.087 426.5,419C 450.226,402.276 474.226,385.942 498.5,370C 545.419,334.057 576.253,287.224 591,229.5C 609.713,150.036 601.879,73.369 567.5,-0.5 Z"/></g>
<g><path style="opacity:1" fill="#fffefe" d="M 594.5,-0.5 C 655.167,-0.5 715.833,-0.5 776.5,-0.5C 805.755,41.6466 832.255,85.6466 856,131.5C 868.317,159.973 868.65,188.64 857,217.5C 846.265,241.989 832.265,264.323 815,284.5C 797.369,304.466 779.369,324.133 761,343.5C 739.925,366.936 723.259,393.269 711,422.5C 702.978,446.541 700.311,471.207 703,496.5C 706.753,522.932 711.92,549.099 718.5,575C 734.228,639.627 722.728,698.794 684,752.5C 652.294,793.444 610.46,816.278 558.5,821C 422.416,826.531 289.416,808.865 159.5,768C 106.209,751.179 52.8753,734.679 -0.5,718.5C -0.5,673.167 -0.5,627.833 -0.5,582.5C 19.1982,587.429 39.1982,590.096 59.5,590.5C 78.8737,589.614 98.2071,588.114 117.5,586C 136.464,583.662 154.798,585.996 172.5,593C 188.231,600.864 204.231,608.198 220.5,615C 232.188,619.255 244.188,622.255 256.5,624C 317.004,627.832 357.838,601.332 379,544.5C 384.47,528.424 390.136,512.424 396,496.5C 405.531,472.634 420.697,453.134 441.5,438C 468.007,420.247 494.34,402.247 520.5,384C 567.394,345.42 598.56,296.587 614,237.5C 633.631,155.95 627.131,76.6165 594.5,-0.5 Z"/></g>
<g><path style="opacity:1" fill="#ffb350" d="M 776.5,-0.5 C 786.5,-0.5 796.5,-0.5 806.5,-0.5C 824.064,26.2756 840.897,53.6089 857,81.5C 868.211,100.257 877.545,119.923 885,140.5C 892.908,172.085 890.242,202.751 877,232.5C 864.568,259.249 848.568,283.582 829,305.5C 805.218,330.276 782.551,355.943 761,382.5C 743.496,404.988 732.163,430.321 727,458.5C 725.248,481.104 726.914,503.438 732,525.5C 739.172,553.861 744.838,582.528 749,611.5C 752.946,685.358 728.113,747.525 674.5,798C 635.917,829.312 591.584,845.645 541.5,847C 414.429,849.512 290.096,832.512 168.5,796C 112.372,778.053 56.0386,760.886 -0.5,744.5C -0.5,735.833 -0.5,727.167 -0.5,718.5C 52.8753,734.679 106.209,751.179 159.5,768C 289.416,808.865 422.416,826.531 558.5,821C 610.46,816.278 652.294,793.444 684,752.5C 722.728,698.794 734.228,639.627 718.5,575C 711.92,549.099 706.753,522.932 703,496.5C 700.311,471.207 702.978,446.541 711,422.5C 723.259,393.269 739.925,366.936 761,343.5C 779.369,324.133 797.369,304.466 815,284.5C 832.265,264.323 846.265,241.989 857,217.5C 868.65,188.64 868.317,159.973 856,131.5C 832.255,85.6466 805.755,41.6466 776.5,-0.5 Z"/></g>
<g><path style="opacity:1" fill="#fefefe" d="M 806.5,-0.5 C 1224.5,-0.5 1642.5,-0.5 2060.5,-0.5C 2073.02,37.6154 2074.86,76.2821 2066,115.5C 2060.86,135.716 2056.2,156.049 2052,176.5C 2044.38,233.424 2052.38,288.091 2076,340.5C 2108.09,410.252 2157.26,464.419 2223.5,503C 2283.23,534.553 2346.56,545.219 2413.5,535C 2467.05,527.15 2517.72,510.484 2565.5,485C 2601.36,465.235 2637.69,446.235 2674.5,428C 2716.61,407.58 2760.94,395.247 2807.5,391C 2836.16,389.2 2864.83,387.534 2893.5,386C 2925.96,383.984 2956.96,376.317 2986.5,363C 2990.86,360.488 2995.19,357.988 2999.5,355.5C 2999.5,680.5 2999.5,1005.5 2999.5,1330.5C 2969.4,1314.96 2937.73,1303.46 2904.5,1296C 2883.9,1291.95 2863.23,1288.28 2842.5,1285C 2803.4,1280.32 2764.4,1274.99 2725.5,1269C 2690.08,1263.12 2655.75,1253.46 2622.5,1240C 2603.01,1230.76 2584.67,1219.76 2567.5,1207C 2544.25,1187.04 2519.59,1169.04 2493.5,1153C 2466.56,1139.51 2438.22,1130.18 2408.5,1125C 2301.86,1107.04 2199.19,1120.04 2100.5,1164C 2037.72,1196.56 1974.05,1227.22 1909.5,1256C 1793.69,1309.25 1688.69,1378.25 1594.5,1463C 1513.69,1536.98 1497.19,1623.48 1545,1722.5C 1555.96,1741.9 1569.46,1759.4 1585.5,1775C 1594.32,1782.57 1603.32,1789.91 1612.5,1797C 1632.85,1810.84 1652.85,1825.18 1672.5,1840C 1706.11,1867.39 1724.28,1902.89 1727,1946.5C 1728.18,1964.15 1728.68,1981.81 1728.5,1999.5C 1417.17,1999.5 1105.83,1999.5 794.5,1999.5C 870.313,1927.66 908.647,1839.16 909.5,1734C 905.986,1613.63 856.319,1517.63 760.5,1446C 729.926,1425.04 697.259,1407.71 662.5,1394C 610.422,1374.53 558.422,1354.86 506.5,1335C 467.421,1318.98 431.754,1297.64 399.5,1271C 376.207,1249.73 356.707,1225.56 341,1198.5C 322.677,1164.51 303.343,1131.18 283,1098.5C 231.844,1030.71 166.344,981.877 86.5,952C 58.2249,941.072 29.2249,932.906 -0.5,927.5C -0.5,866.5 -0.5,805.5 -0.5,744.5C 56.0386,760.886 112.372,778.053 168.5,796C 290.096,832.512 414.429,849.512 541.5,847C 591.584,845.645 635.917,829.312 674.5,798C 728.113,747.525 752.946,685.358 749,611.5C 744.838,582.528 739.172,553.861 732,525.5C 726.914,503.438 725.248,481.104 727,458.5C 732.163,430.321 743.496,404.988 761,382.5C 782.551,355.943 805.218,330.276 829,305.5C 848.568,283.582 864.568,259.249 877,232.5C 890.242,202.751 892.908,172.085 885,140.5C 877.545,119.923 868.211,100.257 857,81.5C 840.897,53.6089 824.064,26.2756 806.5,-0.5 Z"/></g>
<g><path style="opacity:1" fill="#184266" d="M 2060.5,-0.5 C 2373.5,-0.5 2686.5,-0.5 2999.5,-0.5C 2999.5,118.167 2999.5,236.833 2999.5,355.5C 2995.19,357.988 2990.86,360.488 2986.5,363C 2956.96,376.317 2925.96,383.984 2893.5,386C 2864.83,387.534 2836.16,389.2 2807.5,391C 2760.94,395.247 2716.61,407.58 2674.5,428C 2637.69,446.235 2601.36,465.235 2565.5,485C 2517.72,510.484 2467.05,527.15 2413.5,535C 2346.56,545.219 2283.23,534.553 2223.5,503C 2157.26,464.419 2108.09,410.252 2076,340.5C 2052.38,288.091 2044.38,233.424 2052,176.5C 2056.2,156.049 2060.86,135.716 2066,115.5C 2074.86,76.2821 2073.02,37.6154 2060.5,-0.5 Z"/></g>
<g><path style="opacity:1" fill="#363636" d="M 2075.5,837.5 C 2077.66,837.116 2079.33,837.783 2080.5,839.5C 2078.44,845.527 2076.27,851.527 2074,857.5C 2072.83,858.667 2071.67,859.833 2070.5,861C 2050.5,872 2030.5,883 2010.5,894C 2008.87,894.494 2007.2,894.66 2005.5,894.5C 2005.14,886.095 2007.47,878.595 2012.5,872C 2033.56,860.472 2054.56,848.972 2075.5,837.5 Z"/></g>
<g><path style="opacity:1" fill="#353535" d="M 1038.5,850.5 C 1042.66,850.143 1045.83,851.81 1048,855.5C 1053.87,862.751 1059.37,870.251 1064.5,878C 1060.96,881.872 1057.8,886.038 1055,890.5C 1053.96,894.078 1053.46,897.744 1053.5,901.5C 1053.98,909.168 1054.48,916.835 1055,924.5C 1060.32,958.075 1064.99,991.742 1069,1025.5C 1072.89,1049.16 1066.39,1069.33 1049.5,1086C 1024.25,1109.4 994.585,1118.07 960.5,1112C 939.952,1105.78 928.452,1091.94 926,1070.5C 926.611,1042.1 935.111,1016.27 951.5,993C 955.006,992.156 957.339,993.49 958.5,997C 948.36,1013.08 944.193,1030.58 946,1049.5C 947.799,1057.63 952.299,1063.8 959.5,1068C 971.829,1074.07 984.829,1076.07 998.5,1074C 1015.22,1072.76 1030.88,1068.09 1045.5,1060C 1051.42,1054.56 1054.08,1047.73 1053.5,1039.5C 1053.33,1034.8 1052.83,1030.13 1052,1025.5C 1040.82,977.103 1030.99,928.436 1022.5,879.5C 1023.96,867.574 1029.29,857.907 1038.5,850.5 Z"/></g>
<g><path style="opacity:1" fill="#363636" d="M 1272.5,855.5 C 1274.17,855.5 1275.83,855.5 1277.5,855.5C 1276.13,863.457 1273.46,870.957 1269.5,878C 1248.29,889.771 1226.96,901.271 1205.5,912.5C 1203.5,912.5 1202.5,911.5 1202.5,909.5C 1203.6,903.021 1205.6,896.854 1208.5,891C 1230.06,879.392 1251.39,867.559 1272.5,855.5 Z"/></g>
<g><path style="opacity:1" fill="#353535" d="M 1420.5,858.5 C 1422.72,858.178 1424.56,858.845 1426,860.5C 1432.63,868.928 1439.13,877.428 1445.5,886C 1441.13,890.578 1437.63,895.745 1435,901.5C 1434.33,909.5 1434.33,917.5 1435,925.5C 1437.91,948.756 1439.25,972.089 1439,995.5C 1436.77,1013.85 1430.77,1030.85 1421,1046.5C 1414.12,1056.72 1404.62,1062.88 1392.5,1065C 1370.75,1065.72 1349.08,1064.72 1327.5,1062C 1305.84,1056.99 1297.01,1043.49 1301,1021.5C 1301.87,1017.74 1303.03,1014.07 1304.5,1010.5C 1293.93,1008.94 1283.93,1010.77 1274.5,1016C 1259.22,1026.28 1244.22,1036.95 1229.5,1048C 1203.73,1064.46 1176.06,1069.13 1146.5,1062C 1137.67,1058.5 1131.5,1052.33 1128,1043.5C 1125.38,1038.13 1123.71,1032.46 1123,1026.5C 1117.77,987.228 1112.93,947.894 1108.5,908.5C 1112.13,896.902 1117.63,886.235 1125,876.5C 1128.87,871.008 1132.2,871.342 1135,877.5C 1136.88,916.84 1138.88,956.173 1141,995.5C 1141.47,1001.19 1142.14,1006.86 1143,1012.5C 1144.6,1019.73 1149.1,1023.89 1156.5,1025C 1172.85,1025.65 1189.18,1025.31 1205.5,1024C 1215.74,1022.27 1225.74,1019.61 1235.5,1016C 1245.04,1010.56 1255.04,1006.23 1265.5,1003C 1249.84,995.223 1233.5,989.223 1216.5,985C 1211.83,984.333 1207.17,984.333 1202.5,985C 1196.26,987.369 1190.1,989.869 1184,992.5C 1182.29,992.561 1180.96,991.894 1180,990.5C 1181.06,968.43 1192.23,954.263 1213.5,948C 1220.57,947.161 1227.57,947.494 1234.5,949C 1249.08,954.415 1263.41,960.415 1277.5,967C 1292.54,971.507 1307.87,974.507 1323.5,976C 1339.16,977.03 1354.83,978.03 1370.5,979C 1371.02,979.561 1371.36,980.228 1371.5,981C 1370.08,989.172 1368.58,997.338 1367,1005.5C 1366.17,1006.33 1365.33,1007.17 1364.5,1008C 1349.52,1009.01 1334.52,1009.51 1319.5,1009.5C 1318.72,1014.56 1320.72,1018.06 1325.5,1020C 1331.92,1022.61 1338.59,1024.27 1345.5,1025C 1362.5,1025.67 1379.5,1025.67 1396.5,1025C 1418.87,1023.11 1427.04,1011.28 1421,989.5C 1413.62,956.602 1407.79,923.435 1403.5,890C 1404.11,876.601 1409.78,866.101 1420.5,858.5 Z"/></g>
<g><path style="opacity:1" fill="#363636" d="M 1783.5,861.5 C 1795.3,859.492 1802.8,864.158 1806,875.5C 1807.11,886.721 1804.61,897.054 1798.5,906.5C 1802.03,909.195 1805.7,911.695 1809.5,914C 1809.14,921.077 1806.48,927.411 1801.5,933C 1795.66,931.917 1790.32,929.417 1785.5,925.5C 1780.27,930.896 1774.61,935.729 1768.5,940C 1761.91,945.408 1754.57,946.741 1746.5,944C 1740.73,942.633 1735.4,940.3 1730.5,937C 1745.22,931.477 1758.88,924.144 1771.5,915C 1765.77,910.613 1761.6,905.113 1759,898.5C 1758.33,895.833 1758.33,893.167 1759,890.5C 1763.14,877.209 1771.31,867.542 1783.5,861.5 Z"/></g>
<g><path style="opacity:1" fill="#353535" d="M 1961.5,872.5 C 1966.02,872.515 1968.52,874.848 1969,879.5C 1970.7,922.536 1973.03,965.536 1976,1008.5C 1976.54,1017.71 1981.37,1023.21 1990.5,1025C 2008.98,1026.25 2027.31,1025.25 2045.5,1022C 2048.27,1020.53 2050.77,1018.7 2053,1016.5C 2054.46,1013.63 2054.79,1010.63 2054,1007.5C 2047.05,1000.55 2040.05,993.554 2033,986.5C 2032.33,984.167 2032.33,981.833 2033,979.5C 2038.39,967.051 2045.05,955.385 2053,944.5C 2064.15,960.293 2070.32,977.793 2071.5,997C 2071.98,1025.73 2059.65,1046.73 2034.5,1060C 2017.44,1065.98 2000.1,1066.98 1982.5,1063C 1973.12,1059.62 1966.29,1053.45 1962,1044.5C 1959.22,1037.04 1957.22,1029.37 1956,1021.5C 1950.57,982.254 1946.23,942.921 1943,903.5C 1948.6,892.757 1954.76,882.424 1961.5,872.5 Z"/></g>
<g><path style="opacity:1" fill="#363636" d="M 1499.5,872.5 C 1501.96,874.052 1503.46,876.385 1504,879.5C 1507.18,924.787 1511.68,969.954 1517.5,1015C 1515.26,1031.79 1510.76,1047.96 1504,1063.5C 1502.48,1066.01 1500.32,1066.84 1497.5,1066C 1496.11,1065.04 1495.44,1063.71 1495.5,1062C 1497.96,1047.53 1498.12,1033.03 1496,1018.5C 1490.4,984.465 1484.57,950.465 1478.5,916.5C 1481.24,899.696 1488.24,885.029 1499.5,872.5 Z"/></g>
<g><path style="opacity:1" fill="#f7f7f7" d="M 1775.5,878.5 C 1783.4,878.723 1788.4,882.723 1790.5,890.5C 1790.18,893.325 1789.01,895.658 1787,897.5C 1781.14,893.813 1776.97,888.813 1774.5,882.5C 1774.62,881.075 1774.96,879.742 1775.5,878.5 Z"/></g>
<g><path style="opacity:1" fill="#184266" d="M -0.5,927.5 C 29.2249,932.906 58.2249,941.072 86.5,952C 166.344,981.877 231.844,1030.71 283,1098.5C 303.343,1131.18 322.677,1164.51 341,1198.5C 356.707,1225.56 376.207,1249.73 399.5,1271C 431.754,1297.64 467.421,1318.98 506.5,1335C 558.422,1354.86 610.422,1374.53 662.5,1394C 697.259,1407.71 729.926,1425.04 760.5,1446C 856.319,1517.63 905.986,1613.63 909.5,1734C 908.647,1839.16 870.313,1927.66 794.5,1999.5C 529.5,1999.5 264.5,1999.5 -0.5,1999.5C -0.5,1642.17 -0.5,1284.83 -0.5,927.5 Z"/></g>
<g><path style="opacity:1" fill="#353535" d="M 1888.5,929.5 C 1890.37,929.859 1891.87,930.859 1893,932.5C 1907.53,950.12 1912.2,970.12 1907,992.5C 1904.34,1007.48 1898.67,1021.15 1890,1033.5C 1882.96,1040.61 1874.79,1046.11 1865.5,1050C 1810.69,1070.72 1754.36,1076.72 1696.5,1068C 1682.07,1064.54 1669.91,1057.38 1660,1046.5C 1649.25,1031.93 1646.59,1015.93 1652,998.5C 1656.08,986.33 1661.75,974.997 1669,964.5C 1672.6,959.214 1676.1,959.214 1679.5,964.5C 1667.83,978.999 1665,994.999 1671,1012.5C 1677.31,1020.46 1685.48,1025.62 1695.5,1028C 1702.74,1029.85 1710.07,1031.18 1717.5,1032C 1762.99,1034.83 1807.99,1031.49 1852.5,1022C 1864.29,1019.07 1875.29,1014.41 1885.5,1008C 1889.13,1004.95 1890.3,1001.12 1889,996.5C 1885,991.167 1881,985.833 1877,980.5C 1875.34,977.691 1874.17,974.691 1873.5,971.5C 1877.72,957.184 1882.72,943.184 1888.5,929.5 Z"/></g>
<g><path style="opacity:1" fill="#353535" d="M 2031.5,1080.5 C 2042.49,1085.5 2051.82,1092.66 2059.5,1102C 2054.56,1113.25 2047.73,1123.08 2039,1131.5C 2030.39,1126.11 2022.22,1120.11 2014.5,1113.5C 2013.39,1112.39 2012.72,1111.06 2012.5,1109.5C 2017.64,1099.03 2023.98,1089.36 2031.5,1080.5 Z"/></g>
<g><path style="opacity:1" fill="#353535" d="M 1773.5,1091.5 C 1778.31,1092.57 1782.64,1094.74 1786.5,1098C 1792.61,1101.94 1797.94,1106.77 1802.5,1112.5C 1797.6,1123.66 1790.77,1133.33 1782,1141.5C 1771.69,1136.26 1762.53,1129.42 1754.5,1121C 1760.25,1110.76 1766.59,1100.92 1773.5,1091.5 Z"/></g>
<g><path style="opacity:1" fill="#ffb350" d="M 2999.5,1330.5 C 2999.5,1339.17 2999.5,1347.83 2999.5,1356.5C 2960.47,1335.66 2919.14,1321.49 2875.5,1314C 2832.92,1307.42 2790.25,1301.42 2747.5,1296C 2700.91,1290.4 2655.91,1278.74 2612.5,1261C 2589.5,1250.51 2568.17,1237.51 2548.5,1222C 2526.11,1201.95 2501.78,1184.62 2475.5,1170C 2442.83,1156 2408.83,1147 2373.5,1143C 2282.76,1133.24 2195.76,1146.9 2112.5,1184C 2083.02,1199.24 2053.35,1214.24 2023.5,1229C 1973.71,1252.06 1924.05,1275.39 1874.5,1299C 1771.98,1350.55 1679.14,1415.71 1596,1494.5C 1539.44,1553.32 1526.77,1620.65 1558,1696.5C 1573.91,1730.74 1597.41,1758.57 1628.5,1780C 1653.3,1796.13 1676.96,1813.79 1699.5,1833C 1725.78,1858.39 1741.95,1889.22 1748,1925.5C 1751.71,1950.03 1753.21,1974.7 1752.5,1999.5C 1744.5,1999.5 1736.5,1999.5 1728.5,1999.5C 1728.68,1981.81 1728.18,1964.15 1727,1946.5C 1724.28,1902.89 1706.11,1867.39 1672.5,1840C 1652.85,1825.18 1632.85,1810.84 1612.5,1797C 1603.32,1789.91 1594.32,1782.57 1585.5,1775C 1569.46,1759.4 1555.96,1741.9 1545,1722.5C 1497.19,1623.48 1513.69,1536.98 1594.5,1463C 1688.69,1378.25 1793.69,1309.25 1909.5,1256C 1974.05,1227.22 2037.72,1196.56 2100.5,1164C 2199.19,1120.04 2301.86,1107.04 2408.5,1125C 2438.22,1130.18 2466.56,1139.51 2493.5,1153C 2519.59,1169.04 2544.25,1187.04 2567.5,1207C 2584.67,1219.76 2603.01,1230.76 2622.5,1240C 2655.75,1253.46 2690.08,1263.12 2725.5,1269C 2764.4,1274.99 2803.4,1280.32 2842.5,1285C 2863.23,1288.28 2883.9,1291.95 2904.5,1296C 2937.73,1303.46 2969.4,1314.96 2999.5,1330.5 Z"/></g>
<g><path style="opacity:1" fill="#363636" d="M 1030.5,1124.5 C 1032.95,1124.08 1034.28,1125.08 1034.5,1127.5C 1032.98,1135.04 1029.98,1141.87 1025.5,1148C 1006.17,1158.67 986.833,1169.33 967.5,1180C 965.323,1181.2 962.989,1181.7 960.5,1181.5C 960.251,1173.66 962.251,1166.49 966.5,1160C 988.057,1148.39 1009.39,1136.56 1030.5,1124.5 Z"/></g>
<g><path style="opacity:1" fill="#fffefe" d="M 2999.5,1356.5 C 2999.5,1514.5 2999.5,1672.5 2999.5,1830.5C 2992.15,1839.03 2985.31,1848.03 2979,1857.5C 2971.16,1871.18 2963.82,1885.18 2957,1899.5C 2943.53,1932.74 2930.37,1966.07 2917.5,1999.5C 2851.5,1999.5 2785.5,1999.5 2719.5,1999.5C 2725.66,1990.53 2731.82,1981.53 2738,1972.5C 2758.09,1938.65 2777.43,1904.32 2796,1869.5C 2812.5,1839.7 2833,1812.86 2857.5,1789C 2871.55,1777.29 2885.88,1765.95 2900.5,1755C 2935.14,1725.11 2950.64,1687.28 2947,1641.5C 2941.33,1594.32 2920.17,1555.82 2883.5,1526C 2848.04,1498.44 2808.37,1479.1 2764.5,1468C 2747.16,1464 2729.83,1460 2712.5,1456C 2679.07,1450.13 2645.74,1443.8 2612.5,1437C 2575.55,1429.13 2540.55,1416.13 2507.5,1398C 2488.97,1387.15 2472.47,1373.65 2458,1357.5C 2414.65,1300.66 2356.98,1271.99 2285,1271.5C 2211.41,1274.69 2146.24,1299.52 2089.5,1346C 2074.47,1361.37 2059.8,1377.03 2045.5,1393C 2035.53,1402.62 2024.2,1410.29 2011.5,1416C 1985.98,1421.84 1961.64,1430.84 1938.5,1443C 1886.12,1476.48 1870.62,1522.65 1892,1581.5C 1900.23,1599.95 1907.89,1618.62 1915,1637.5C 1921.89,1661.7 1922.23,1686.03 1916,1710.5C 1908.88,1737.33 1902.54,1764.33 1897,1791.5C 1887.45,1868.67 1906.29,1938.01 1953.5,1999.5C 1886.5,1999.5 1819.5,1999.5 1752.5,1999.5C 1753.21,1974.7 1751.71,1950.03 1748,1925.5C 1741.95,1889.22 1725.78,1858.39 1699.5,1833C 1676.96,1813.79 1653.3,1796.13 1628.5,1780C 1597.41,1758.57 1573.91,1730.74 1558,1696.5C 1526.77,1620.65 1539.44,1553.32 1596,1494.5C 1679.14,1415.71 1771.98,1350.55 1874.5,1299C 1924.05,1275.39 1973.71,1252.06 2023.5,1229C 2053.35,1214.24 2083.02,1199.24 2112.5,1184C 2195.76,1146.9 2282.76,1133.24 2373.5,1143C 2408.83,1147 2442.83,1156 2475.5,1170C 2501.78,1184.62 2526.11,1201.95 2548.5,1222C 2568.17,1237.51 2589.5,1250.51 2612.5,1261C 2655.91,1278.74 2700.91,1290.4 2747.5,1296C 2790.25,1301.42 2832.92,1307.42 2875.5,1314C 2919.14,1321.49 2960.47,1335.66 2999.5,1356.5 Z"/></g>
<g><path style="opacity:1" fill="#ffb350" d="M 2719.5,1999.5 C 2709.5,1999.5 2699.5,1999.5 2689.5,1999.5C 2700.64,1985.9 2710.81,1971.57 2720,1956.5C 2738.84,1924.16 2757.17,1891.49 2775,1858.5C 2792.73,1827.22 2814.23,1798.72 2839.5,1773C 2857.17,1758.67 2874.83,1744.33 2892.5,1730C 2911.14,1712.21 2921.31,1690.38 2923,1664.5C 2925.43,1626.13 2914.1,1592.46 2889,1563.5C 2859.78,1532.96 2824.95,1511.13 2784.5,1498C 2772.23,1494.08 2759.89,1490.41 2747.5,1487C 2701.95,1477.45 2656.29,1468.45 2610.5,1460C 2571.55,1452.02 2534.55,1438.68 2499.5,1420C 2483.04,1410.21 2467.71,1398.88 2453.5,1386C 2439.2,1370.03 2424.53,1354.37 2409.5,1339C 2372.85,1309.01 2330.69,1294.51 2283,1295.5C 2248.78,1295.6 2215.95,1302.43 2184.5,1316C 2158.72,1326.83 2134.72,1340.5 2112.5,1357C 2095.68,1373.32 2079.34,1390.16 2063.5,1407.5C 2050.54,1420.65 2035.54,1430.81 2018.5,1438C 1999.35,1442.94 1980.68,1449.27 1962.5,1457C 1910.15,1482.21 1894.32,1522.04 1915,1576.5C 1923.5,1595.16 1931.16,1614.16 1938,1633.5C 1943.66,1653.52 1944.99,1673.85 1942,1694.5C 1940.44,1704.19 1938.77,1713.85 1937,1723.5C 1930.05,1748.62 1924.05,1773.96 1919,1799.5C 1912.42,1858.71 1925.09,1913.37 1957,1963.5C 1964.89,1976.22 1973.73,1988.22 1983.5,1999.5C 1973.5,1999.5 1963.5,1999.5 1953.5,1999.5C 1906.29,1938.01 1887.45,1868.67 1897,1791.5C 1902.54,1764.33 1908.88,1737.33 1916,1710.5C 1922.23,1686.03 1921.89,1661.7 1915,1637.5C 1907.89,1618.62 1900.23,1599.95 1892,1581.5C 1870.62,1522.65 1886.12,1476.48 1938.5,1443C 1961.64,1430.84 1985.98,1421.84 2011.5,1416C 2024.2,1410.29 2035.53,1402.62 2045.5,1393C 2059.8,1377.03 2074.47,1361.37 2089.5,1346C 2146.24,1299.52 2211.41,1274.69 2285,1271.5C 2356.98,1271.99 2414.65,1300.66 2458,1357.5C 2472.47,1373.65 2488.97,1387.15 2507.5,1398C 2540.55,1416.13 2575.55,1429.13 2612.5,1437C 2645.74,1443.8 2679.07,1450.13 2712.5,1456C 2729.83,1460 2747.16,1464 2764.5,1468C 2808.37,1479.1 2848.04,1498.44 2883.5,1526C 2920.17,1555.82 2941.33,1594.32 2947,1641.5C 2950.64,1687.28 2935.14,1725.11 2900.5,1755C 2885.88,1765.95 2871.55,1777.29 2857.5,1789C 2833,1812.86 2812.5,1839.7 2796,1869.5C 2777.43,1904.32 2758.09,1938.65 2738,1972.5C 2731.82,1981.53 2725.66,1990.53 2719.5,1999.5 Z"/></g>
<g><path style="opacity:1" fill="#fffefe" d="M 2689.5,1999.5 C 2454.17,1999.5 2218.83,1999.5 1983.5,1999.5C 1973.73,1988.22 1964.89,1976.22 1957,1963.5C 1925.09,1913.37 1912.42,1858.71 1919,1799.5C 1924.05,1773.96 1930.05,1748.62 1937,1723.5C 1938.77,1713.85 1940.44,1704.19 1942,1694.5C 1944.99,1673.85 1943.66,1653.52 1938,1633.5C 1931.16,1614.16 1923.5,1595.16 1915,1576.5C 1894.32,1522.04 1910.15,1482.21 1962.5,1457C 1980.68,1449.27 1999.35,1442.94 2018.5,1438C 2035.54,1430.81 2050.54,1420.65 2063.5,1407.5C 2079.34,1390.16 2095.68,1373.32 2112.5,1357C 2134.72,1340.5 2158.72,1326.83 2184.5,1316C 2215.95,1302.43 2248.78,1295.6 2283,1295.5C 2330.69,1294.51 2372.85,1309.01 2409.5,1339C 2424.53,1354.37 2439.2,1370.03 2453.5,1386C 2467.71,1398.88 2483.04,1410.21 2499.5,1420C 2534.55,1438.68 2571.55,1452.02 2610.5,1460C 2656.29,1468.45 2701.95,1477.45 2747.5,1487C 2759.89,1490.41 2772.23,1494.08 2784.5,1498C 2824.95,1511.13 2859.78,1532.96 2889,1563.5C 2914.1,1592.46 2925.43,1626.13 2923,1664.5C 2921.31,1690.38 2911.14,1712.21 2892.5,1730C 2874.83,1744.33 2857.17,1758.67 2839.5,1773C 2814.23,1798.72 2792.73,1827.22 2775,1858.5C 2757.17,1891.49 2738.84,1924.16 2720,1956.5C 2710.81,1971.57 2700.64,1985.9 2689.5,1999.5 Z"/></g>
<g><path style="opacity:1" fill="#ffb350" d="M 2218.5,1499.5 C 2252.12,1497.73 2284.45,1503.23 2315.5,1516C 2328.3,1522.48 2340.3,1530.15 2351.5,1539C 2367.86,1555.03 2383.86,1571.36 2399.5,1588C 2419.62,1604.5 2442.62,1614.83 2468.5,1619C 2478.79,1620.63 2489.13,1621.97 2499.5,1623C 2535.51,1623.96 2571.51,1624.96 2607.5,1626C 2629.48,1628.77 2649.48,1636.43 2667.5,1649C 2691.62,1672.32 2698.45,1700.15 2688,1732.5C 2674.29,1772.75 2651.46,1806.92 2619.5,1835C 2585.64,1863.8 2548.31,1887.47 2507.5,1906C 2460.62,1927.27 2413.62,1948.27 2366.5,1969C 2341,1979.43 2314.5,1985.27 2287,1986.5C 2257.26,1986.81 2230.1,1978.64 2205.5,1962C 2183.08,1945.58 2163.24,1926.41 2146,1904.5C 2125.05,1876.95 2107.38,1847.28 2093,1815.5C 2083.74,1792.73 2075.08,1769.73 2067,1746.5C 2060.77,1737.31 2052.94,1729.81 2043.5,1724C 2030.4,1711.1 2025.57,1695.6 2029,1677.5C 2032.2,1668.24 2035.2,1658.91 2038,1649.5C 2039.27,1640.87 2038.27,1632.54 2035,1624.5C 2034.33,1620.17 2034.33,1615.83 2035,1611.5C 2043.35,1593.46 2055.19,1577.96 2070.5,1565C 2113.48,1528.95 2162.81,1507.11 2218.5,1499.5 Z"/></g>
<g><path style="opacity:1" fill="#fffefe" d="M 2221.5,1522.5 C 2252.2,1520.91 2281.53,1526.41 2309.5,1539C 2318.51,1544.17 2327.18,1549.84 2335.5,1556C 2351.5,1572.33 2367.5,1588.67 2383.5,1605C 2408.66,1625.24 2437.33,1637.91 2469.5,1643C 2477.52,1643.87 2485.52,1644.87 2493.5,1646C 2529.5,1646.97 2565.5,1647.97 2601.5,1649C 2662.27,1655.38 2681.43,1686.88 2659,1743.5C 2642.16,1778.32 2618.33,1807.49 2587.5,1831C 2562.5,1849.84 2535.84,1866.18 2507.5,1880C 2466.38,1898.39 2425.38,1917.06 2384.5,1936C 2359.17,1947.67 2332.83,1956.33 2305.5,1962C 2277.97,1965.81 2251.97,1961.14 2227.5,1948C 2197.71,1928.54 2172.88,1904.04 2153,1874.5C 2138.56,1853.3 2125.9,1830.97 2115,1807.5C 2105.74,1784.73 2097.08,1761.73 2089,1738.5C 2086.39,1733.56 2083.39,1728.9 2080,1724.5C 2071.67,1716.83 2063.33,1709.17 2055,1701.5C 2051.09,1694.21 2050.42,1686.55 2053,1678.5C 2059.77,1664.2 2062.77,1649.2 2062,1633.5C 2061.28,1629.28 2059.95,1625.28 2058,1621.5C 2057.33,1619.83 2057.33,1618.17 2058,1616.5C 2065.57,1602.92 2075.4,1591.08 2087.5,1581C 2126.77,1549.2 2171.44,1529.7 2221.5,1522.5 Z"/></g>
<g><path style="opacity:1" fill="#ffb350" d="M 2999.5,1830.5 C 2999.5,1843.83 2999.5,1857.17 2999.5,1870.5C 2991.68,1882.13 2984.85,1894.46 2979,1907.5C 2966.34,1938 2954.17,1968.66 2942.5,1999.5C 2934.17,1999.5 2925.83,1999.5 2917.5,1999.5C 2930.37,1966.07 2943.53,1932.74 2957,1899.5C 2963.82,1885.18 2971.16,1871.18 2979,1857.5C 2985.31,1848.03 2992.15,1839.03 2999.5,1830.5 Z"/></g>
<g><path style="opacity:1" fill="#fffefe" d="M 2999.5,1870.5 C 2999.5,1913.5 2999.5,1956.5 2999.5,1999.5C 2980.5,1999.5 2961.5,1999.5 2942.5,1999.5C 2954.17,1968.66 2966.34,1938 2979,1907.5C 2984.85,1894.46 2991.68,1882.13 2999.5,1870.5 Z"/></g>
</svg>
