<?xml version="1.0" encoding="UTF-8"?>
<!DOCTYPE svg PUBLIC "-//W3C//DTD SVG 1.1//EN" "http://www.w3.org/Graphics/SVG/1.1/DTD/svg11.dtd">
<svg xmlns="http://www.w3.org/2000/svg" version="1.1" width="3000px" height="2000px" style="shape-rendering:geometricPrecision; text-rendering:geometricPrecision; image-rendering:optimizeQuality; fill-rule:evenodd; clip-rule:evenodd" xmlns:xlink="http://www.w3.org/1999/xlink">
<g><path style="opacity:1" fill="#184266" d="M -0.5,-0.5 C 6.16667,-0.5 12.8333,-0.5 19.5,-0.5C 11.2265,82.6028 39.8932,149.436 105.5,200C 128.878,215.69 151.544,232.357 173.5,250C 196.977,271.114 211.477,297.28 217,328.5C 218.753,340.118 220.086,351.784 221,363.5C 221.333,393.5 221.667,423.5 222,453.5C 222.488,482.259 228.154,509.926 239,536.5C 245.191,550.235 253.357,562.569 263.5,573.5C 243.777,585.719 224.444,598.552 205.5,612C 178.833,633.333 152.167,654.667 125.5,676C 102.338,694.093 77.3378,709.426 50.5,722C 33.8884,728.568 16.8884,733.734 -0.5,737.5C -0.5,491.5 -0.5,245.5 -0.5,-0.5 Z"/></g>
<g><path style="opacity:1" fill="#feb350" d="M 19.5,-0.5 C 27.1667,-0.5 34.8333,-0.5 42.5,-0.5C 33.3356,75.9665 59.3356,137.133 120.5,183C 143.394,198.56 165.728,214.894 187.5,232C 223.544,265.079 242.044,306.245 243,355.5C 243.333,386.167 243.667,416.833 244,447.5C 244.168,478.678 250.834,508.345 264,536.5C 269.228,545.559 275.728,553.559 283.5,560.5C 293.751,570.542 305.751,578.042 319.5,583C 555.899,663.403 795.233,673.069 1037.5,612C 1106.45,594.186 1173.12,570.186 1237.5,540C 1264.25,525.962 1288.92,508.962 1311.5,489C 1335.47,465.67 1353.97,438.503 1367,407.5C 1382.11,368.607 1397.78,329.94 1414,291.5C 1430.65,255.033 1454.82,224.533 1486.5,200C 1515.52,180.158 1544.18,159.825 1572.5,139C 1615.99,102.381 1632.66,55.8807 1622.5,-0.5C 1630.17,-0.5 1637.83,-0.5 1645.5,-0.5C 1655.32,58.4301 1638.66,108.263 1595.5,149C 1587.83,155.333 1580.17,161.667 1572.5,168C 1541.95,188.108 1512.28,209.441 1483.5,232C 1459.85,255.004 1441.69,281.838 1429,312.5C 1417.08,341.263 1405.75,370.263 1395,399.5C 1380.37,438.747 1358.54,473.247 1329.5,503C 1292.54,535.897 1250.87,561.564 1204.5,580C 994.861,664.77 777.861,692.437 553.5,663C 467.483,651.059 383.816,630.059 302.5,600C 287.976,593.292 274.976,584.459 263.5,573.5C 253.357,562.569 245.191,550.235 239,536.5C 228.154,509.926 222.488,482.259 222,453.5C 221.667,423.5 221.333,393.5 221,363.5C 220.086,351.784 218.753,340.118 217,328.5C 211.477,297.28 196.977,271.114 173.5,250C 151.544,232.357 128.878,215.69 105.5,200C 39.8932,149.436 11.2265,82.6028 19.5,-0.5 Z"/></g>
<g><path style="opacity:1" fill="#184266" d="M 42.5,-0.5 C 155.5,-0.5 268.5,-0.5 381.5,-0.5C 389.207,16.1168 396.041,33.1168 402,50.5C 406.729,66.9253 407.729,83.5919 405,100.5C 400.752,125.825 395.085,150.825 388,175.5C 373.452,241.215 382.452,303.548 415,362.5C 428.136,384.46 442.969,405.127 459.5,424.5C 422.221,461.46 381.888,494.627 338.5,524C 320.138,536.177 301.805,548.344 283.5,560.5C 275.728,553.559 269.228,545.559 264,536.5C 250.834,508.345 244.168,478.678 244,447.5C 243.667,416.833 243.333,386.167 243,355.5C 242.044,306.245 223.544,265.079 187.5,232C 165.728,214.894 143.394,198.56 120.5,183C 59.3356,137.133 33.3356,75.9665 42.5,-0.5 Z"/></g>
<g><path style="opacity:1" fill="#feb350" d="M 381.5,-0.5 C 389.5,-0.5 397.5,-0.5 405.5,-0.5C 408.027,4.41492 410.36,9.41492 412.5,14.5C 428.14,46.2838 432.64,79.6171 426,114.5C 420.805,138.279 415.139,161.945 409,185.5C 397.154,244.799 406.154,300.799 436,353.5C 446.752,373.02 459.918,390.687 475.5,406.5C 514.038,449.799 561.038,480.632 616.5,499C 655.179,511.669 694.846,519.336 735.5,522C 819.475,525.099 902.141,516.099 983.5,495C 1024.85,484.32 1063.51,467.653 1099.5,445C 1122.92,428.916 1143.08,409.416 1160,386.5C 1166.33,377.167 1172.67,367.833 1179,358.5C 1197.51,326.824 1215.51,294.824 1233,262.5C 1250.91,229.909 1273.41,200.742 1300.5,175C 1315.17,163.333 1329.83,151.667 1344.5,140C 1370.09,115.246 1380.59,85.0791 1376,49.5C 1374.15,31.7793 1368.98,15.1127 1360.5,-0.5C 1368.83,-0.5 1377.17,-0.5 1385.5,-0.5C 1402.04,36.7724 1403.87,74.7724 1391,113.5C 1382.71,132.476 1370.54,148.643 1354.5,162C 1334.2,175.953 1315.37,191.787 1298,209.5C 1281.05,229.449 1266.05,250.782 1253,273.5C 1235.17,306.49 1216.84,339.157 1198,371.5C 1165.29,426.112 1119.79,466.278 1061.5,492C 1034.49,503.334 1006.83,512.667 978.5,520C 938.804,528.727 898.804,535.727 858.5,541C 800.395,547.633 742.395,546.966 684.5,539C 596.172,526.173 521.172,488.006 459.5,424.5C 442.969,405.127 428.136,384.46 415,362.5C 382.452,303.548 373.452,241.215 388,175.5C 395.085,150.825 400.752,125.825 405,100.5C 407.729,83.5919 406.729,66.9253 402,50.5C 396.041,33.1168 389.207,16.1168 381.5,-0.5 Z"/></g>
<g><path style="opacity:1" fill="#fefefe" d="M 405.5,-0.5 C 447.5,-0.5 489.5,-0.5 531.5,-0.5C 524.871,7.08351 520.038,15.7502 517,25.5C 516.333,28.5 516.333,31.5 517,34.5C 521.602,43.7889 522.602,53.4555 520,63.5C 516.399,71.9686 513.399,80.6353 511,89.5C 508.903,103.369 512.236,115.703 521,126.5C 530.023,134.524 538.69,142.858 547,151.5C 553.783,167.179 559.783,183.179 565,199.5C 586.557,255.482 618.724,304.315 661.5,346C 707.39,386.321 759.39,396.321 817.5,376C 824.242,373.864 830.909,371.531 837.5,369C 885.285,347.941 932.952,326.608 980.5,305C 1019.68,286.78 1055.35,263.446 1087.5,235C 1116.16,208.845 1136.66,177.345 1149,140.5C 1161.54,95.9346 1146.88,64.2679 1105,45.5C 1094.38,41.804 1083.55,38.9707 1072.5,37C 1040.18,35.7888 1007.85,35.1221 975.5,35C 946.036,34.1765 918.036,27.5098 891.5,15C 883.574,10.5491 876.241,5.38239 869.5,-0.5C 1033.17,-0.5 1196.83,-0.5 1360.5,-0.5C 1368.98,15.1127 1374.15,31.7793 1376,49.5C 1380.59,85.0791 1370.09,115.246 1344.5,140C 1329.83,151.667 1315.17,163.333 1300.5,175C 1273.41,200.742 1250.91,229.909 1233,262.5C 1215.51,294.824 1197.51,326.824 1179,358.5C 1172.67,367.833 1166.33,377.167 1160,386.5C 1143.08,409.416 1122.92,428.916 1099.5,445C 1063.51,467.653 1024.85,484.32 983.5,495C 902.141,516.099 819.475,525.099 735.5,522C 694.846,519.336 655.179,511.669 616.5,499C 561.038,480.632 514.038,449.799 475.5,406.5C 551.885,319.415 562.718,224.415 508,121.5C 495.351,96.3525 479.851,73.1858 461.5,52C 446.217,38.0367 429.884,25.5367 412.5,14.5C 410.36,9.41492 408.027,4.41492 405.5,-0.5 Z"/></g>
<g><path style="opacity:1" fill="#ffb350" d="M 531.5,-0.5 C 541.5,-0.5 551.5,-0.5 561.5,-0.5C 553.017,7.81725 545.85,17.1506 540,27.5C 542.182,35.4309 543.348,43.5976 543.5,52C 543.333,55.5 543.167,59 543,62.5C 540.201,72.5645 537.201,82.5645 534,92.5C 532.699,98.9219 533.699,104.922 537,110.5C 545.333,118.167 553.667,125.833 562,133.5C 564.248,136.328 566.248,139.328 568,142.5C 575.938,162.714 583.605,183.047 591,203.5C 611.177,251.661 640.01,293.828 677.5,330C 693.403,343.622 711.403,353.622 731.5,360C 751.147,364.569 770.814,364.569 790.5,360C 806.155,356.004 821.488,351.004 836.5,345C 878.833,326 921.167,307 963.5,288C 1000.02,271.256 1033.69,250.256 1064.5,225C 1089.44,203.745 1108.6,178.245 1122,148.5C 1128.19,134.436 1130.85,119.769 1130,104.5C 1127.93,91.7808 1121.76,81.6141 1111.5,74C 1094.58,64.0278 1076.24,58.6944 1056.5,58C 1023.48,57.8713 990.485,57.2047 957.5,56C 921.374,53.6276 888.708,41.961 859.5,21C 851.662,14.3286 844.329,7.16194 837.5,-0.5C 848.167,-0.5 858.833,-0.5 869.5,-0.5C 876.241,5.38239 883.574,10.5491 891.5,15C 918.036,27.5098 946.036,34.1765 975.5,35C 1007.85,35.1221 1040.18,35.7888 1072.5,37C 1083.55,38.9707 1094.38,41.804 1105,45.5C 1146.88,64.2679 1161.54,95.9346 1149,140.5C 1136.66,177.345 1116.16,208.845 1087.5,235C 1055.35,263.446 1019.68,286.78 980.5,305C 932.952,326.608 885.285,347.941 837.5,369C 830.909,371.531 824.242,373.864 817.5,376C 759.39,396.321 707.39,386.321 661.5,346C 618.724,304.315 586.557,255.482 565,199.5C 559.783,183.179 553.783,167.179 547,151.5C 538.69,142.858 530.023,134.524 521,126.5C 512.236,115.703 508.903,103.369 511,89.5C 513.399,80.6353 516.399,71.9686 520,63.5C 522.602,53.4555 521.602,43.7889 517,34.5C 516.333,31.5 516.333,28.5 517,25.5C 520.038,15.7502 524.871,7.08351 531.5,-0.5 Z"/></g>
<g><path style="opacity:1" fill="#fffefe" d="M 561.5,-0.5 C 653.5,-0.5 745.5,-0.5 837.5,-0.5C 844.329,7.16194 851.662,14.3286 859.5,21C 888.708,41.961 921.374,53.6276 957.5,56C 990.485,57.2047 1023.48,57.8713 1056.5,58C 1076.24,58.6944 1094.58,64.0278 1111.5,74C 1121.76,81.6141 1127.93,91.7808 1130,104.5C 1130.85,119.769 1128.19,134.436 1122,148.5C 1108.6,178.245 1089.44,203.745 1064.5,225C 1033.69,250.256 1000.02,271.256 963.5,288C 921.167,307 878.833,326 836.5,345C 821.488,351.004 806.155,356.004 790.5,360C 770.814,364.569 751.147,364.569 731.5,360C 711.403,353.622 693.403,343.622 677.5,330C 640.01,293.828 611.177,251.661 591,203.5C 583.605,183.047 575.938,162.714 568,142.5C 566.248,139.328 564.248,136.328 562,133.5C 553.667,125.833 545.333,118.167 537,110.5C 533.699,104.922 532.699,98.9219 534,92.5C 537.201,82.5645 540.201,72.5645 543,62.5C 543.167,59 543.333,55.5 543.5,52C 543.348,43.5976 542.182,35.4309 540,27.5C 545.85,17.1506 553.017,7.81725 561.5,-0.5 Z"/></g>
<g><path style="opacity:1" fill="#fefefe" d="M 1385.5,-0.5 C 1464.5,-0.5 1543.5,-0.5 1622.5,-0.5C 1632.66,55.8807 1615.99,102.381 1572.5,139C 1544.18,159.825 1515.52,180.158 1486.5,200C 1454.82,224.533 1430.65,255.033 1414,291.5C 1397.78,329.94 1382.11,368.607 1367,407.5C 1353.97,438.503 1335.47,465.67 1311.5,489C 1288.92,508.962 1264.25,525.962 1237.5,540C 1173.12,570.186 1106.45,594.186 1037.5,612C 795.233,673.069 555.899,663.403 319.5,583C 305.751,578.042 293.751,570.542 283.5,560.5C 301.805,548.344 320.138,536.177 338.5,524C 381.888,494.627 422.221,461.46 459.5,424.5C 521.172,488.006 596.172,526.173 684.5,539C 742.395,546.966 800.395,547.633 858.5,541C 898.804,535.727 938.804,528.727 978.5,520C 1006.83,512.667 1034.49,503.334 1061.5,492C 1119.79,466.278 1165.29,426.112 1198,371.5C 1216.84,339.157 1235.17,306.49 1253,273.5C 1266.05,250.782 1281.05,229.449 1298,209.5C 1315.37,191.787 1334.2,175.953 1354.5,162C 1370.54,148.643 1382.71,132.476 1391,113.5C 1403.87,74.7724 1402.04,36.7724 1385.5,-0.5 Z"/></g>
<g><path style="opacity:1" fill="#fefefe" d="M 1645.5,-0.5 C 2096.83,-0.5 2548.17,-0.5 2999.5,-0.5C 2999.5,228.5 2999.5,457.5 2999.5,686.5C 2845.54,691.05 2702.21,732.217 2569.5,810C 2497.79,853.358 2435.63,907.858 2383,973.5C 2298.2,1086.01 2263.2,1212.68 2278,1353.5C 2284.58,1429.88 2298.41,1504.88 2319.5,1578.5C 2275.65,1577.39 2231.98,1573.89 2188.5,1568C 2124.86,1558.81 2061.19,1549.81 1997.5,1541C 1953.96,1536.24 1910.29,1533.41 1866.5,1532.5C 1686.85,1532.41 1542.02,1602.75 1432,1743.5C 1374.01,1819.83 1335.18,1905.16 1315.5,1999.5C 1038.83,1999.5 762.167,1999.5 485.5,1999.5C 493.747,1953.89 489.247,1909.56 472,1866.5C 459.861,1836.55 444.861,1808.22 427,1781.5C 410.352,1760.52 390.852,1742.68 368.5,1728C 342.333,1711.75 316,1695.75 289.5,1680C 274.833,1670 260.167,1660 245.5,1650C 213.532,1633.01 181.532,1616.01 149.5,1599C 122.284,1582.78 100.784,1560.95 85,1533.5C 79.1779,1522.86 74.1779,1511.86 70,1500.5C 60.5178,1471.39 51.8511,1442.06 44,1412.5C 36.6573,1387.49 26.3239,1363.82 13,1341.5C 8.63614,1335.65 4.13614,1329.98 -0.5,1324.5C -0.5,1128.83 -0.5,933.167 -0.5,737.5C 16.8884,733.734 33.8884,728.568 50.5,722C 77.3378,709.426 102.338,694.093 125.5,676C 152.167,654.667 178.833,633.333 205.5,612C 224.444,598.552 243.777,585.719 263.5,573.5C 274.976,584.459 287.976,593.292 302.5,600C 383.816,630.059 467.483,651.059 553.5,663C 777.861,692.437 994.861,664.77 1204.5,580C 1250.87,561.564 1292.54,535.897 1329.5,503C 1358.54,473.247 1380.37,438.747 1395,399.5C 1405.75,370.263 1417.08,341.263 1429,312.5C 1441.69,281.838 1459.85,255.004 1483.5,232C 1512.28,209.441 1541.95,188.108 1572.5,168C 1580.17,161.667 1587.83,155.333 1595.5,149C 1638.66,108.263 1655.32,58.4301 1645.5,-0.5 Z"/></g>
<g><path style="opacity:1" fill="#194266" d="M 412.5,14.5 C 429.884,25.5367 446.217,38.0367 461.5,52C 479.851,73.1858 495.351,96.3525 508,121.5C 562.718,224.415 551.885,319.415 475.5,406.5C 459.918,390.687 446.752,373.02 436,353.5C 406.154,300.799 397.154,244.799 409,185.5C 415.139,161.945 420.805,138.279 426,114.5C 432.64,79.6171 428.14,46.2838 412.5,14.5 Z"/></g>
<g><path style="opacity:1" fill="#184266" d="M 2999.5,686.5 C 2999.5,1124.17 2999.5,1561.83 2999.5,1999.5C 2781.83,1999.5 2564.17,1999.5 2346.5,1999.5C 2357.66,1957.56 2364.82,1914.89 2368,1871.5C 2370.4,1819.59 2366.06,1768.26 2355,1717.5C 2343.99,1670.94 2332.15,1624.6 2319.5,1578.5C 2298.41,1504.88 2284.58,1429.88 2278,1353.5C 2263.2,1212.68 2298.2,1086.01 2383,973.5C 2435.63,907.858 2497.79,853.358 2569.5,810C 2702.21,732.217 2845.54,691.05 2999.5,686.5 Z"/></g>
<g><path style="opacity:1" fill="#373737" d="M 1470.5,804.5 C 1479.07,804.951 1481.57,809.284 1478,817.5C 1477.17,819 1476,820.167 1474.5,821C 1452.77,824.509 1431.1,828.343 1409.5,832.5C 1405.76,829.367 1404.59,825.367 1406,820.5C 1406.78,818.714 1407.95,817.214 1409.5,816C 1430.03,812.478 1450.36,808.645 1470.5,804.5 Z"/></g>
<g><path style="opacity:1" fill="#373737" d="M 1456.5,837.5 C 1466.3,836.482 1473.13,840.482 1477,849.5C 1481.01,862.258 1478.51,873.425 1469.5,883C 1458.7,889.277 1450.2,887.111 1444,876.5C 1438.3,887.397 1429.8,890.564 1418.5,886C 1412.5,880.356 1409.84,873.356 1410.5,865C 1410.49,856.017 1414.16,849.017 1421.5,844C 1430.73,840.592 1434.39,843.758 1432.5,853.5C 1428.86,855.307 1426.03,857.974 1424,861.5C 1422.07,869.865 1425.24,873.365 1433.5,872C 1436.81,868.931 1438.31,865.098 1438,860.5C 1441.01,856.098 1444.67,855.431 1449,858.5C 1449.92,870.13 1454.92,872.464 1464,865.5C 1466.62,860.271 1465.79,855.771 1461.5,852C 1458.99,851.907 1456.83,851.074 1455,849.5C 1453.99,845.198 1454.49,841.198 1456.5,837.5 Z"/></g>
<g><path style="opacity:1" fill="#353535" d="M 1557.5,856.5 C 1569.33,856.479 1577.16,862.146 1581,873.5C 1581.67,875.5 1581.67,877.5 1581,879.5C 1566.16,891.368 1555.5,906.368 1549,924.5C 1537.3,957.647 1527.3,991.313 1519,1025.5C 1513.03,1047.28 1502.53,1066.45 1487.5,1083C 1469.72,1098.82 1449.05,1105.15 1425.5,1102C 1414.74,1098.9 1407.57,1092.07 1404,1081.5C 1389.2,1100.66 1369.7,1108.5 1345.5,1105C 1330.56,1101.22 1320.56,1092.06 1315.5,1077.5C 1299.57,1097.13 1278.91,1107.8 1253.5,1109.5C 1236.57,1108.12 1223.4,1100.46 1214,1086.5C 1199.99,1103.06 1182.82,1107.56 1162.5,1100C 1153.65,1094.48 1147.82,1086.64 1145,1076.5C 1127.75,1102.03 1104.25,1110.53 1074.5,1102C 1064.35,1097.54 1057.52,1090.04 1054,1079.5C 1035.7,1103.62 1012.2,1110.79 983.5,1101C 976.097,1097.39 970.597,1091.89 967,1084.5C 958.83,1105.85 947.83,1125.52 934,1143.5C 913.011,1166.57 886.844,1178.07 855.5,1178C 850.196,1174.1 850.196,1170.1 855.5,1166C 882.16,1161.98 902.327,1148.48 916,1125.5C 925.168,1107.66 932.168,1089 937,1069.5C 945.962,1034.29 954.295,998.954 962,963.5C 965.63,957.93 970.797,954.763 977.5,954C 982.921,953.161 988.254,953.494 993.5,955C 996.635,956.266 998.302,958.599 998.5,962C 992.583,993.668 985.25,1025 976.5,1056C 980.433,1078.13 992.767,1084.8 1013.5,1076C 1021.53,1070.11 1026.7,1062.28 1029,1052.5C 1036.98,1023.9 1044.65,995.238 1052,966.5C 1053.54,964.622 1055.38,963.122 1057.5,962C 1066.35,959.621 1075.35,958.955 1084.5,960C 1086.81,960.641 1088.48,961.974 1089.5,964C 1082.06,992.277 1074.22,1020.44 1066,1048.5C 1063.76,1062.14 1068.59,1072.31 1080.5,1079C 1096.15,1081.26 1107.65,1075.42 1115,1061.5C 1124.55,1030.06 1133.22,998.396 1141,966.5C 1142.54,964.622 1144.38,963.122 1146.5,962C 1155.35,959.621 1164.35,958.955 1173.5,960C 1175.81,960.641 1177.48,961.974 1178.5,964C 1171.06,992.277 1163.22,1020.44 1155,1048.5C 1152.39,1062.39 1157.23,1072.56 1169.5,1079C 1187.33,1080.83 1199.5,1073.33 1206,1056.5C 1207.54,1035.2 1213.54,1015.2 1224,996.5C 1225.58,994.959 1227.41,993.792 1229.5,993C 1238.46,990.601 1247.46,990.268 1256.5,992C 1258.3,992.637 1259.64,993.803 1260.5,995.5C 1248.64,1016.27 1243.48,1038.61 1245,1062.5C 1245.73,1070.8 1249.23,1077.63 1255.5,1083C 1262.44,1085.06 1268.77,1083.72 1274.5,1079C 1287.04,1066.08 1294.2,1050.58 1296,1032.5C 1297.79,1018.89 1295.79,1005.89 1290,993.5C 1285.68,985.846 1279.18,981.346 1270.5,980C 1253.97,978.206 1237.97,980.373 1222.5,986.5C 1216.57,983 1215.07,978 1218,971.5C 1220.78,968.193 1224.28,966.026 1228.5,965C 1252.11,955.478 1276.11,954.144 1300.5,961C 1317.38,968.22 1328.22,980.72 1333,998.5C 1337.1,1016.59 1335.77,1034.25 1329,1051.5C 1328.26,1073.76 1338.76,1082.59 1360.5,1078C 1369.06,1073.78 1375.22,1067.28 1379,1058.5C 1387.92,1027.24 1396.59,995.907 1405,964.5C 1414.96,959.793 1425.46,958.293 1436.5,960C 1440.07,961.703 1441.24,964.537 1440,968.5C 1431.66,999.353 1423.16,1030.19 1414.5,1061C 1417.53,1075 1426.19,1080.66 1440.5,1078C 1449.76,1075.45 1457.26,1070.28 1463,1062.5C 1468.68,1055.16 1473.34,1047.16 1477,1038.5C 1489.29,996.763 1501.95,955.097 1515,913.5C 1521.15,896.356 1529.98,880.856 1541.5,867C 1546.47,862.851 1551.8,859.351 1557.5,856.5 Z"/></g>
<g><path style="opacity:1" fill="#363636" d="M 1866.5,876.5 C 1883.48,876.631 1888.31,884.298 1881,899.5C 1869.87,915.147 1854.71,922.981 1835.5,923C 1831.78,920.237 1830.78,916.737 1832.5,912.5C 1839.33,910.165 1845.99,907.332 1852.5,904C 1854.96,902.542 1857.13,900.709 1859,898.5C 1855.11,888.912 1857.61,881.579 1866.5,876.5 Z"/></g>
<g><path style="opacity:1" fill="#373737" d="M 1071.5,876.5 C 1090.95,876.092 1098.12,885.092 1093,903.5C 1086.09,912.687 1076.92,915.853 1065.5,913C 1053.94,906.519 1051.44,897.353 1058,885.5C 1061.83,881.348 1066.33,878.348 1071.5,876.5 Z"/></g>
<g><path style="opacity:1" fill="#353535" d="M 1625.5,877.5 C 1635.3,877.077 1644.63,878.91 1653.5,883C 1654.9,884.062 1655.9,885.395 1656.5,887C 1650.01,902.132 1644.51,917.632 1640,933.5C 1625.53,987.239 1610.86,1040.91 1596,1094.5C 1593.13,1097.46 1589.63,1099.3 1585.5,1100C 1578.1,1100.85 1570.77,1100.51 1563.5,1099C 1558.86,1096.93 1557.36,1093.43 1559,1088.5C 1573.44,1041.08 1586.77,993.413 1599,945.5C 1605.14,923.74 1612.48,902.407 1621,881.5C 1622.4,879.93 1623.9,878.596 1625.5,877.5 Z"/></g>
<g><path style="opacity:1" fill="#353535" d="M 2002.5,877.5 C 2012.45,876.284 2021.78,878.117 2030.5,883C 2031.9,884.062 2032.9,885.395 2033.5,887C 2028.3,898.894 2023.8,911.061 2020,923.5C 2007.92,965.738 1996.25,1008.07 1985,1050.5C 1984.13,1071.3 1993.96,1080.8 2014.5,1079C 2024.24,1075.59 2031.08,1069.09 2035,1059.5C 2043.98,1028.23 2052.65,996.894 2061,965.5C 2067.72,960.778 2075.22,958.778 2083.5,959.5C 2086.83,959.667 2090.17,959.833 2093.5,960C 2095.51,960.68 2096.85,962.013 2097.5,964C 2088.68,999.107 2078.85,1033.94 2068,1068.5C 2053.22,1098.64 2029.39,1110.14 1996.5,1103C 1978.64,1095.46 1970.31,1081.96 1971.5,1062.5C 1961.26,1064.96 1953.76,1061.62 1949,1052.5C 1948.33,1050.17 1948.33,1047.83 1949,1045.5C 1959.46,1007.53 1969.79,969.531 1980,931.5C 1985.08,915.273 1990.74,899.273 1997,883.5C 1998.36,880.977 2000.19,878.977 2002.5,877.5 Z"/></g>
<g><path style="opacity:1" fill="#353535" d="M 979.5,881.5 C 989.974,879.488 997.474,883.155 1002,892.5C 1002.13,911.37 992.964,918.87 974.5,915C 965.758,907.432 964.258,898.598 970,888.5C 973.068,885.917 976.235,883.584 979.5,881.5 Z"/></g>
<g><path style="opacity:1" fill="#383838" d="M 1267.5,884.5 C 1274.91,883.621 1281.91,884.788 1288.5,888C 1294.52,893.763 1296.02,900.597 1293,908.5C 1288.47,917.024 1281.3,921.357 1271.5,921.5C 1257.19,920.354 1251.36,912.687 1254,898.5C 1256.69,891.981 1261.19,887.314 1267.5,884.5 Z"/></g>
<g><path style="opacity:1" fill="#f7f7f7" d="M 1072.5,887.5 C 1080.33,886.493 1083.49,889.826 1082,897.5C 1079.1,902.155 1074.94,903.655 1069.5,902C 1067.5,899.159 1067,895.993 1068,892.5C 1069.71,890.963 1071.21,889.296 1072.5,887.5 Z"/></g>
<g><path style="opacity:1" fill="#f9f9f9" d="M 1271.5,895.5 C 1280,893.833 1283.17,897.166 1281,905.5C 1277.79,910.339 1273.62,911.506 1268.5,909C 1265.3,903.558 1266.3,899.058 1271.5,895.5 Z"/></g>
<g><path style="opacity:1" fill="#363636" d="M 1464.5,899.5 C 1471.96,901.745 1474.79,906.745 1473,914.5C 1454.35,934.289 1432.52,939.123 1407.5,929C 1394.94,918.74 1395.61,909.74 1409.5,902C 1411.5,901.333 1413.5,901.333 1415.5,902C 1419.83,909.178 1426.17,912.678 1434.5,912.5C 1446.28,912.025 1456.28,907.692 1464.5,899.5 Z"/></g>
<g><path style="opacity:1" fill="#373737" d="M 2110.5,900.5 C 2119.07,900.951 2121.57,905.284 2118,913.5C 2117.17,915 2116,916.167 2114.5,917C 2092.77,920.509 2071.1,924.343 2049.5,928.5C 2045.76,925.367 2044.59,921.367 2046,916.5C 2046.83,914.333 2048.33,912.833 2050.5,912C 2070.67,908.386 2090.67,904.553 2110.5,900.5 Z"/></g>
<g><path style="opacity:1" fill="#353535" d="M 1775.5,959.5 C 1790.38,958.888 1805.05,960.388 1819.5,964C 1821.67,964.833 1823.17,966.333 1824,968.5C 1824.61,972.236 1824.28,975.903 1823,979.5C 1821.83,982 1820,983.833 1817.5,985C 1806.15,984.001 1794.81,984.334 1783.5,986C 1751.84,997.354 1737.67,1019.85 1741,1053.5C 1746.04,1074.21 1758.88,1087.38 1779.5,1093C 1809.05,1099.09 1836.05,1093.42 1860.5,1076C 1867.46,1069.91 1872.3,1062.41 1875,1053.5C 1882.82,1024.56 1890.48,995.564 1898,966.5C 1901.57,962.508 1906.07,960.342 1911.5,960C 1917.83,959.333 1924.17,959.333 1930.5,960C 1932.33,960.273 1933.83,961.107 1935,962.5C 1926.76,997.79 1917.09,1032.79 1906,1067.5C 1896.71,1085.78 1882.55,1098.95 1863.5,1107C 1827.7,1120.25 1791.37,1121.91 1754.5,1112C 1717.94,1096.74 1701.11,1069.24 1704,1029.5C 1712.18,990.152 1736.01,966.819 1775.5,959.5 Z"/></g>
<g><path style="opacity:1" fill="#363636" d="M 1027.5,1122.5 C 1031.88,1123.02 1035.04,1125.36 1037,1129.5C 1037.75,1135.5 1035.59,1140.34 1030.5,1144C 1014.39,1156.77 996.39,1160.43 976.5,1155C 967.526,1151.04 963.026,1144.21 963,1134.5C 966.364,1127.4 971.864,1124.4 979.5,1125.5C 983.543,1132.61 989.709,1135.94 998,1135.5C 1009.77,1135.31 1019.6,1130.98 1027.5,1122.5 Z"/></g>
<g><path style="opacity:1" fill="#363636" d="M 1116.5,1122.5 C 1120.88,1123.02 1124.04,1125.36 1126,1129.5C 1126.38,1135.86 1123.88,1141.03 1118.5,1145C 1103.45,1155.93 1086.78,1159.6 1068.5,1156C 1057.79,1152.72 1052.29,1145.55 1052,1134.5C 1055.36,1127.4 1060.86,1124.4 1068.5,1125.5C 1072.81,1132.91 1079.31,1136.24 1088,1135.5C 1099.35,1135.07 1108.85,1130.74 1116.5,1122.5 Z"/></g>
<g><path style="opacity:1" fill="#363636" d="M 2004.5,1132.5 C 2016.31,1131.39 2023.31,1136.55 2025.5,1148C 2023.21,1163.97 2014.21,1170.31 1998.5,1167C 1992.52,1163.35 1989.52,1158.02 1989.5,1151C 1990.65,1141.69 1995.65,1135.52 2004.5,1132.5 Z"/></g>
<g><path style="opacity:1" fill="#353535" d="M 1793.5,1144.5 C 1812.84,1143.66 1819.34,1152.33 1813,1170.5C 1805.98,1179.72 1797.15,1181.89 1786.5,1177C 1779.98,1169.67 1778.82,1161.51 1783,1152.5C 1785.94,1148.96 1789.44,1146.3 1793.5,1144.5 Z"/></g>
<g><path style="opacity:1" fill="#363636" d="M 1102.5,1182.5 C 1110.33,1181.49 1113.49,1184.83 1112,1192.5C 1111.65,1194.85 1110.49,1196.68 1108.5,1198C 1085.95,1202.64 1063.28,1206.31 1040.5,1209C 1037.6,1203.75 1037.94,1198.75 1041.5,1194C 1061.92,1189.93 1082.26,1186.1 1102.5,1182.5 Z"/></g>
<g><path style="opacity:1" fill="#363636" d="M 910.5,1188.5 C 920.913,1185.43 925.08,1189.1 923,1199.5C 922.215,1201.29 921.049,1202.79 919.5,1204C 898.107,1207.51 876.774,1211.34 855.5,1215.5C 853.626,1215.61 852.126,1214.94 851,1213.5C 848.28,1207.62 849.447,1202.78 854.5,1199C 873.399,1196 892.066,1192.5 910.5,1188.5 Z"/></g>
<g><path style="opacity:1" fill="#184266" d="M -0.5,1324.5 C 4.13614,1329.98 8.63614,1335.65 13,1341.5C 26.3239,1363.82 36.6573,1387.49 44,1412.5C 51.8511,1442.06 60.5178,1471.39 70,1500.5C 74.1779,1511.86 79.1779,1522.86 85,1533.5C 100.784,1560.95 122.284,1582.78 149.5,1599C 181.532,1616.01 213.532,1633.01 245.5,1650C 260.167,1660 274.833,1670 289.5,1680C 316,1695.75 342.333,1711.75 368.5,1728C 390.852,1742.68 410.352,1760.52 427,1781.5C 444.861,1808.22 459.861,1836.55 472,1866.5C 489.247,1909.56 493.747,1953.89 485.5,1999.5C 323.5,1999.5 161.5,1999.5 -0.5,1999.5C -0.5,1774.5 -0.5,1549.5 -0.5,1324.5 Z"/></g>
<g><path style="opacity:1" fill="#feb34f" d="M 2319.5,1578.5 C 2332.15,1624.6 2343.99,1670.94 2355,1717.5C 2366.06,1768.26 2370.4,1819.59 2368,1871.5C 2364.82,1914.89 2357.66,1957.56 2346.5,1999.5C 2002.83,1999.5 1659.17,1999.5 1315.5,1999.5C 1335.18,1905.16 1374.01,1819.83 1432,1743.5C 1542.02,1602.75 1686.85,1532.41 1866.5,1532.5C 1910.29,1533.41 1953.96,1536.24 1997.5,1541C 2061.19,1549.81 2124.86,1558.81 2188.5,1568C 2231.98,1573.89 2275.65,1577.39 2319.5,1578.5 Z"/></g>
</svg>
