<?xml version="1.0" encoding="UTF-8"?>
<!DOCTYPE svg PUBLIC "-//W3C//DTD SVG 1.1//EN" "http://www.w3.org/Graphics/SVG/1.1/DTD/svg11.dtd">
<svg xmlns="http://www.w3.org/2000/svg" version="1.1" width="3000px" height="2000px" style="shape-rendering:geometricPrecision; text-rendering:geometricPrecision; image-rendering:optimizeQuality; fill-rule:evenodd; clip-rule:evenodd" xmlns:xlink="http://www.w3.org/1999/xlink">
<g><path style="opacity:1" fill="#184266" d="M -0.5,-0.5 C 105.167,-0.5 210.833,-0.5 316.5,-0.5C 305.379,63.0492 282.212,121.716 247,175.5C 180.884,263.15 98.3836,282.483 -0.5,233.5C -0.5,155.5 -0.5,77.5 -0.5,-0.5 Z"/></g>
<g><path style="opacity:1" fill="#fefefe" d="M 316.5,-0.5 C 916.167,-0.5 1515.83,-0.5 2115.5,-0.5C 2266.78,56.19 2398.95,141.857 2512,256.5C 2545.98,292.8 2577.31,331.134 2606,371.5C 2626.94,403.44 2648.28,435.106 2670,466.5C 2688.49,492.578 2709.65,516.411 2733.5,538C 2802.01,595.31 2878.67,609.31 2963.5,580C 2975.87,575.644 2987.87,570.478 2999.5,564.5C 2999.5,588.5 2999.5,612.5 2999.5,636.5C 2862.25,644.283 2737.92,608.45 2626.5,529C 2604.72,514.944 2581.05,505.61 2555.5,501C 2518.45,496.784 2486.95,507.951 2461,534.5C 2438.36,560.119 2423.36,589.786 2416,623.5C 2406.37,670.775 2406.03,718.108 2415,765.5C 2433.27,840.098 2477.77,892.265 2548.5,922C 2606.82,944.124 2667.15,952.791 2729.5,948C 2814.31,945.131 2894.31,924.131 2969.5,885C 2979.39,878.94 2989.39,873.106 2999.5,867.5C 2999.5,1022.5 2999.5,1177.5 2999.5,1332.5C 2929.97,1326.84 2861.64,1333.34 2794.5,1352C 2735.02,1369.13 2684.52,1400.3 2643,1445.5C 2602.77,1494.15 2580.1,1550.15 2575,1613.5C 2570.16,1676.24 2576.16,1737.9 2593,1798.5C 2611.37,1869.22 2638.54,1936.22 2674.5,1999.5C 2031.5,1999.5 1388.5,1999.5 745.5,1999.5C 765.356,1966.78 779.856,1931.78 789,1894.5C 808.217,1795.12 774.05,1720.62 686.5,1671C 671.41,1663.12 656.076,1655.79 640.5,1649C 604.343,1635.39 568.343,1621.39 532.5,1607C 386.502,1540.23 267.336,1441.06 175,1309.5C 152.666,1276.17 131.333,1242.17 111,1207.5C 95.0542,1181.27 77.3876,1156.27 58,1132.5C 44.3721,1117.2 29.2054,1103.7 12.5,1092C 8.42346,1089.3 4.09012,1087.13 -0.5,1085.5C -0.5,801.5 -0.5,517.5 -0.5,233.5C 98.3836,282.483 180.884,263.15 247,175.5C 282.212,121.716 305.379,63.0492 316.5,-0.5 Z"/></g>
<g><path style="opacity:1" fill="#ffb34f" d="M 2115.5,-0.5 C 2410.17,-0.5 2704.83,-0.5 2999.5,-0.5C 2999.5,187.833 2999.5,376.167 2999.5,564.5C 2987.87,570.478 2975.87,575.644 2963.5,580C 2878.67,609.31 2802.01,595.31 2733.5,538C 2709.65,516.411 2688.49,492.578 2670,466.5C 2648.28,435.106 2626.94,403.44 2606,371.5C 2577.31,331.134 2545.98,292.8 2512,256.5C 2398.95,141.857 2266.78,56.19 2115.5,-0.5 Z"/></g>
<g><path style="opacity:1" fill="#ffb34f" d="M 1949.5,24.5 C 2079.42,20.4159 2194.75,58.9159 2295.5,140C 2342.21,176.007 2381.71,218.507 2414,267.5C 2480.2,375.411 2470.54,475.745 2385,568.5C 2359.47,594.506 2330.64,616.006 2298.5,633C 2269.38,647.024 2238.71,652.691 2206.5,650C 2164.35,641.515 2135.18,617.348 2119,577.5C 2115.8,568.908 2112.8,560.242 2110,551.5C 2103.67,524.5 2097.33,497.5 2091,470.5C 2064.17,378.79 2017.84,298.79 1952,230.5C 1930.62,210.626 1909.62,190.293 1889,169.5C 1879.9,159.068 1871.57,148.068 1864,136.5C 1838.06,85.966 1851.9,51.466 1905.5,33C 1920.06,28.9226 1934.73,26.0893 1949.5,24.5 Z"/></g>
<g><path style="opacity:1" fill="#ffb34f" d="M 2999.5,636.5 C 2999.5,713.5 2999.5,790.5 2999.5,867.5C 2989.39,873.106 2979.39,878.94 2969.5,885C 2894.31,924.131 2814.31,945.131 2729.5,948C 2667.15,952.791 2606.82,944.124 2548.5,922C 2477.77,892.265 2433.27,840.098 2415,765.5C 2406.03,718.108 2406.37,670.775 2416,623.5C 2423.36,589.786 2438.36,560.119 2461,534.5C 2486.95,507.951 2518.45,496.784 2555.5,501C 2581.05,505.61 2604.72,514.944 2626.5,529C 2737.92,608.45 2862.25,644.283 2999.5,636.5 Z"/></g>
<g><path style="opacity:1" fill="#363636" d="M 1949.5,697.5 C 1955.92,698.405 1960.08,702.072 1962,708.5C 1964.31,718.417 1963.48,728.084 1959.5,737.5C 1962.53,739.698 1965.7,741.698 1969,743.5C 1969.8,747.909 1968.8,751.909 1966,755.5C 1964.88,757.124 1963.38,758.124 1961.5,758.5C 1957.93,756.7 1954.27,755.534 1950.5,755C 1936.46,774.385 1918.79,789.385 1897.5,800C 1891.5,800.993 1889.33,798.493 1891,792.5C 1910.09,781.084 1927.09,767.084 1942,750.5C 1942.62,749.551 1942.45,748.718 1941.5,748C 1933.78,744.947 1927.95,739.781 1924,732.5C 1925.19,715.439 1933.69,703.773 1949.5,697.5 Z"/></g>
<g><path style="opacity:1" fill="#f8f8f8" d="M 1937.5,716.5 C 1948.46,717.136 1952.46,722.803 1949.5,733.5C 1944.06,731.03 1939.22,727.697 1935,723.5C 1934.33,722.167 1934.33,720.833 1935,719.5C 1936.04,718.627 1936.88,717.627 1937.5,716.5 Z"/></g>
<g><path style="opacity:1" fill="#373737" d="M 1069.5,737.5 C 1087.2,738.35 1098.7,747.35 1104,764.5C 1106.37,789.799 1094.87,801.633 1069.5,800C 1058.93,798.64 1052.43,792.807 1050,782.5C 1047.83,763.533 1054.33,748.533 1069.5,737.5 Z"/></g>
<g><path style="opacity:1" fill="#373737" d="M 1310.5,737.5 C 1321.17,737.25 1330.01,741.25 1337,749.5C 1345.94,760.803 1347.6,773.137 1342,786.5C 1332.56,799.274 1320.06,803.44 1304.5,799C 1297.14,796.305 1292.64,791.138 1291,783.5C 1288.44,768.403 1292.11,755.07 1302,743.5C 1304.76,741.219 1307.59,739.219 1310.5,737.5 Z"/></g>
<g><path style="opacity:1" fill="#373737" d="M 1026.5,737.5 C 1030.07,737.408 1031.24,739.074 1030,742.5C 1028.13,747.102 1026.47,751.768 1025,756.5C 1023.5,758 1022,759.5 1020.5,761C 997.399,774.3 974.232,787.467 951,800.5C 950.5,800.167 950,799.833 949.5,799.5C 947.461,793.654 948.461,788.488 952.5,784C 977.34,768.637 1002.01,753.137 1026.5,737.5 Z"/></g>
<g><path style="opacity:1" fill="#373737" d="M 2220.5,737.5 C 2224.07,737.408 2225.24,739.074 2224,742.5C 2222.51,746.787 2221.18,751.12 2220,755.5C 2218.5,757.667 2216.67,759.5 2214.5,761C 2192,773.748 2169.67,786.748 2147.5,800C 2145.63,800.711 2144.13,800.211 2143,798.5C 2142.33,795.167 2142.33,791.833 2143,788.5C 2145.17,786.333 2147.33,784.167 2149.5,782C 2173.57,767.642 2197.23,752.809 2220.5,737.5 Z"/></g>
<g><path style="opacity:1" fill="#fbfbfb" d="M 1065.5,757.5 C 1078.1,755.091 1087.94,759.091 1095,769.5C 1096.27,773.166 1095.1,775.666 1091.5,777C 1082.01,779.309 1072.68,778.975 1063.5,776C 1062.67,775.167 1061.83,774.333 1061,773.5C 1059.21,767.073 1060.71,761.74 1065.5,757.5 Z"/></g>
<g><path style="opacity:1" fill="#fbfbfb" d="M 1306.5,757.5 C 1318.36,755.489 1327.86,759.156 1335,768.5C 1336.3,770.365 1336.63,772.365 1336,774.5C 1333.44,776.189 1330.61,777.356 1327.5,778C 1320.11,778.801 1312.78,778.467 1305.5,777C 1298.75,770.179 1299.08,763.679 1306.5,757.5 Z"/></g>
<g><path style="opacity:1" fill="#363636" d="M 1582.5,837.5 C 1584.72,837.178 1586.56,837.845 1588,839.5C 1590.42,850.437 1594.59,860.604 1600.5,870C 1597.43,875.076 1593.6,879.576 1589,883.5C 1588.63,920.077 1583.96,956.077 1575,991.5C 1571.19,1003.45 1566.69,1015.11 1561.5,1026.5C 1568.24,1042.87 1571.07,1059.87 1570,1077.5C 1568.59,1082.57 1565.43,1086.07 1560.5,1088C 1537.22,1093.44 1513.89,1093.78 1490.5,1089C 1483.7,1079.72 1483.87,1070.56 1491,1061.5C 1497.43,1060.89 1503.93,1060.72 1510.5,1061C 1524.89,1052.45 1536.89,1041.28 1546.5,1027.5C 1523.54,984.05 1495.7,944.05 1463,907.5C 1460.71,910.58 1458.54,913.747 1456.5,917C 1455.17,917.667 1453.83,917.667 1452.5,917C 1442.27,907.436 1432.77,897.269 1424,886.5C 1423.07,884.091 1422.57,881.591 1422.5,879C 1423.63,867.716 1425.46,856.55 1428,845.5C 1428.52,844.484 1429.35,843.818 1430.5,843.5C 1432.61,844.054 1434.61,844.888 1436.5,846C 1484.9,894.895 1524.56,950.061 1555.5,1011.5C 1564.27,992.854 1569.43,973.187 1571,952.5C 1572.83,937.221 1573.66,921.887 1573.5,906.5C 1572.84,888.833 1572.68,871.167 1573,853.5C 1576.39,848.28 1579.56,842.947 1582.5,837.5 Z"/></g>
<g><path style="opacity:1" fill="#353535" d="M 918.5,838.5 C 920.124,838.36 921.29,839.027 922,840.5C 923.24,851.511 924.573,862.511 926,873.5C 929.787,923.809 933.12,974.143 936,1024.5C 942.111,1043.65 955.278,1051.82 975.5,1049C 993.76,1047.93 1008.43,1040.27 1019.5,1026C 1024.77,1024.75 1026.94,1026.92 1026,1032.5C 1030.98,1039.82 1037.48,1045.32 1045.5,1049C 1059.97,1049.75 1073.63,1046.75 1086.5,1040C 1092.05,1034.95 1097.71,1030.11 1103.5,1025.5C 1108.27,1034.7 1115.27,1042.2 1124.5,1048C 1142.81,1050.26 1159.47,1045.92 1174.5,1035C 1177.17,1032 1179.83,1029 1182.5,1026C 1184.13,1025.51 1185.8,1025.34 1187.5,1025.5C 1187.3,1027.99 1187.8,1030.32 1189,1032.5C 1193.98,1039.82 1200.48,1045.32 1208.5,1049C 1223.26,1049.3 1236.26,1044.63 1247.5,1035C 1253.78,1028.4 1259.61,1021.57 1265,1014.5C 1266.73,1014.73 1267.57,1015.73 1267.5,1017.5C 1266.42,1022.06 1264.76,1026.4 1262.5,1030.5C 1265.82,1036.13 1270.82,1039.3 1277.5,1040C 1291.5,1043.33 1303.33,1039.83 1313,1029.5C 1320.47,1019.23 1325.8,1007.89 1329,995.5C 1331.81,992.809 1333.65,993.476 1334.5,997.5C 1333.82,1001.91 1332.82,1006.24 1331.5,1010.5C 1332.22,1012.73 1333.55,1014.56 1335.5,1016C 1342.91,1021.14 1351.08,1024.3 1360,1025.5C 1362.3,1025.51 1364.47,1025.01 1366.5,1024C 1368.02,1016.7 1367.35,1009.53 1364.5,1002.5C 1366.14,997.893 1368.3,993.56 1371,989.5C 1372.04,987.415 1373.54,985.748 1375.5,984.5C 1377.77,986.713 1379.27,989.379 1380,992.5C 1382.13,1009.7 1380.13,1026.36 1374,1042.5C 1371.95,1047.21 1369.12,1051.38 1365.5,1055C 1347.53,1057.95 1332.2,1052.79 1319.5,1039.5C 1315.31,1049.86 1308.97,1058.69 1300.5,1066C 1287.07,1075.52 1273.4,1075.86 1259.5,1067C 1254.65,1063.41 1249.98,1059.57 1245.5,1055.5C 1224.73,1085.63 1201.73,1087.29 1176.5,1060.5C 1158.83,1077.72 1138.17,1082.89 1114.5,1076C 1107.12,1071.63 1100.62,1066.13 1095,1059.5C 1079.18,1075.92 1060.01,1082.08 1037.5,1078C 1028.52,1073.52 1020.52,1067.69 1013.5,1060.5C 994.591,1078.19 972.591,1083.69 947.5,1077C 934.357,1071.85 926.191,1062.35 923,1048.5C 919.719,1009.22 917.386,969.891 916,930.5C 913.403,907.85 909.903,885.35 905.5,863C 905.615,860.268 906.448,857.768 908,855.5C 911.511,849.805 915.011,844.139 918.5,838.5 Z"/></g>
<g><path style="opacity:1" fill="#363636" d="M 2120.5,838.5 C 2123.77,838.433 2125.27,840.099 2125,843.5C 2131.65,901.309 2135.65,959.309 2137,1017.5C 2138.16,1033.99 2146.66,1044.49 2162.5,1049C 2170.89,1049.83 2179.22,1049.5 2187.5,1048C 2192.83,1045.85 2197.16,1042.52 2200.5,1038C 2199.87,1035.86 2199.37,1033.7 2199,1031.5C 2195.93,1025.2 2192.77,1019.03 2189.5,1013C 2193.13,1004.9 2196.63,996.737 2200,988.5C 2202,985.833 2204,985.833 2206,988.5C 2215.33,1007.46 2217,1027.13 2211,1047.5C 2203.59,1073.53 2186.42,1084.03 2159.5,1079C 2136.26,1075.09 2124.43,1061.25 2124,1037.5C 2121.8,1000.17 2119.8,962.84 2118,925.5C 2114.9,904.501 2111.73,883.501 2108.5,862.5C 2108.67,860.833 2108.83,859.167 2109,857.5C 2113.36,851.444 2117.19,845.11 2120.5,838.5 Z"/></g>
<g><path style="opacity:1" fill="#363636" d="M 1650.5,848.5 C 1652.41,848.574 1653.58,849.574 1654,851.5C 1658.59,896.811 1662.92,942.144 1667,987.5C 1667.85,1009.86 1667.52,1032.19 1666,1054.5C 1664.29,1062.66 1661.96,1070.66 1659,1078.5C 1657.49,1080.96 1656.15,1080.96 1655,1078.5C 1654.74,1062.81 1654.08,1047.15 1653,1031.5C 1647.28,982.158 1641.44,932.825 1635.5,883.5C 1635.59,881.077 1636.09,878.744 1637,876.5C 1640.73,866.712 1645.23,857.379 1650.5,848.5 Z"/></g>
<g><path style="opacity:1" fill="#363636" d="M 1074.5,897.5 C 1085.38,899.602 1094.38,904.769 1101.5,913C 1096.51,922.507 1090.68,931.34 1084,939.5C 1075.02,934.012 1066.19,928.345 1057.5,922.5C 1063.42,914.311 1069.09,905.978 1074.5,897.5 Z"/></g>
<g><path style="opacity:1" fill="#363636" d="M 1003.5,918.5 C 1014.37,920.595 1023.37,925.761 1030.5,934C 1025.68,942.157 1020.85,950.323 1016,958.5C 1015.26,959.574 1014.26,960.241 1013,960.5C 1004.22,955.382 995.723,949.882 987.5,944C 992.673,935.342 998.007,926.842 1003.5,918.5 Z"/></g>
<g><path style="opacity:1" fill="#353535" d="M 1097.5,932.5 C 1108.08,934.624 1117.08,939.624 1124.5,947.5C 1119.16,956.841 1113.33,965.841 1107,974.5C 1101.15,970.576 1095.15,966.909 1089,963.5C 1084.5,969.841 1080,976.174 1075.5,982.5C 1067.34,976.917 1059,971.584 1050.5,966.5C 1049.42,965.635 1049.25,964.635 1050,963.5C 1055.62,955.754 1061.12,947.921 1066.5,940C 1073.58,941.283 1080.08,944.116 1086,948.5C 1090.09,943.314 1093.92,937.98 1097.5,932.5 Z"/></g>
<g><path style="opacity:1" fill="#353535" d="M 1179.5,932.5 C 1189.57,934.286 1198.41,938.62 1206,945.5C 1206.63,947.635 1206.3,949.635 1205,951.5C 1200.17,959 1195.33,966.5 1190.5,974C 1183.27,970.29 1176.1,966.123 1169,961.5C 1165.08,966.996 1161.42,972.663 1158,978.5C 1157.25,979.99 1156.09,980.99 1154.5,981.5C 1145.7,976.264 1137.04,970.764 1128.5,965C 1134.17,956.667 1139.83,948.333 1145.5,940C 1154.02,941.173 1161.52,944.673 1168,950.5C 1172.1,944.613 1175.94,938.613 1179.5,932.5 Z"/></g>
<g><path style="opacity:1" fill="#353535" d="M 2054.5,953.5 C 2056.9,953.393 2058.74,954.393 2060,956.5C 2073.28,977.861 2076.95,1000.86 2071,1025.5C 2069.03,1033.44 2065.2,1040.27 2059.5,1046C 2025.78,1064.43 1989.78,1075.77 1951.5,1080C 1924.83,1083.22 1898.16,1083.22 1871.5,1080C 1851.25,1076.96 1833.75,1068.46 1819,1054.5C 1806.9,1039.09 1804.23,1022.09 1811,1003.5C 1816.09,991.756 1823.43,981.756 1833,973.5C 1836.07,974.447 1837.07,976.447 1836,979.5C 1829.67,986.168 1825.5,994.002 1823.5,1003C 1826.06,1018.22 1834.06,1029.55 1847.5,1037C 1861.08,1043.65 1875.42,1047.65 1890.5,1049C 1939.51,1052.38 1987.17,1046.05 2033.5,1030C 2042.5,1026.5 2051.17,1022.33 2059.5,1017.5C 2059.83,1016.5 2060.17,1015.5 2060.5,1014.5C 2057.42,1003.68 2052.26,994.012 2045,985.5C 2045.21,974.017 2048.38,963.35 2054.5,953.5 Z"/></g>
<g><path style="opacity:1" fill="#363636" d="M 823.5,980.5 C 835.445,979.437 841.445,984.77 841.5,996.5C 841.73,1002.31 840.23,1007.64 837,1012.5C 835.883,1014.12 834.383,1015.12 832.5,1015.5C 827.721,1012.56 823.054,1009.4 818.5,1006C 811.615,1003.94 807.282,1006.27 805.5,1013C 805.871,1016.45 807.205,1019.45 809.5,1022C 820.729,1031.31 833.396,1033.97 847.5,1030C 852.833,1027.67 858.167,1025.33 863.5,1023C 865.81,1022.5 868.143,1022.34 870.5,1022.5C 870.475,1030.74 868.142,1038.24 863.5,1045C 841.825,1053.67 821.492,1064.67 802.5,1078C 798.639,1080.63 796.306,1079.8 795.5,1075.5C 795.577,1073.7 796.077,1072.03 797,1070.5C 801.133,1065.37 805.633,1060.53 810.5,1056C 802.072,1053.04 794.905,1048.2 789,1041.5C 786.411,1037.15 785.411,1032.48 786,1027.5C 793.201,1007.48 805.701,991.814 823.5,980.5 Z"/></g>
<g><path style="opacity:1" fill="#f4f4f4" d="M 1551.5,1041.5 C 1554.54,1047.36 1556.21,1053.69 1556.5,1060.5C 1549.16,1061.24 1541.82,1061.74 1534.5,1062C 1540.76,1055.58 1546.42,1048.75 1551.5,1041.5 Z"/></g>
<g><path style="opacity:1" fill="#184266" d="M 190.5,1049.5 C 207.233,1049.52 223.233,1053.02 238.5,1060C 261.889,1072.08 284.222,1085.75 305.5,1101C 398.376,1159.22 499.71,1184.55 609.5,1177C 635.589,1177.47 659.255,1185.14 680.5,1200C 699.937,1216.7 711.103,1237.87 714,1263.5C 716.469,1298.36 709.802,1331.36 694,1362.5C 634.578,1483.11 541.744,1519.61 415.5,1472C 350.575,1442.45 294.075,1401.28 246,1348.5C 202.912,1299.34 172.579,1243.01 155,1179.5C 148.014,1153.27 145.347,1126.6 147,1099.5C 149.753,1072.27 164.253,1055.6 190.5,1049.5 Z"/></g>
<g><path style="opacity:1" fill="#373737" d="M 867.5,1065.5 C 869.167,1065.5 870.833,1065.5 872.5,1065.5C 871.474,1071.27 869.974,1076.94 868,1082.5C 867.215,1084.29 866.049,1085.79 864.5,1087C 841.121,1101.02 817.455,1114.52 793.5,1127.5C 788.918,1121 789.918,1115.16 796.5,1110C 820.568,1095.64 844.234,1080.81 867.5,1065.5 Z"/></g>
<g><path style="opacity:1" fill="#184266" d="M -0.5,1085.5 C 4.09012,1087.13 8.42346,1089.3 12.5,1092C 29.2054,1103.7 44.3721,1117.2 58,1132.5C 77.3876,1156.27 95.0542,1181.27 111,1207.5C 131.333,1242.17 152.666,1276.17 175,1309.5C 267.336,1441.06 386.502,1540.23 532.5,1607C 568.343,1621.39 604.343,1635.39 640.5,1649C 656.076,1655.79 671.41,1663.12 686.5,1671C 774.05,1720.62 808.217,1795.12 789,1894.5C 779.856,1931.78 765.356,1966.78 745.5,1999.5C 496.833,1999.5 248.167,1999.5 -0.5,1999.5C -0.5,1694.83 -0.5,1390.17 -0.5,1085.5 Z"/></g>
<g><path style="opacity:1" fill="#363636" d="M 2193.5,1116.5 C 2204.03,1119.07 2212.7,1124.41 2219.5,1132.5C 2214.58,1142 2208.92,1151 2202.5,1159.5C 2193.8,1153.82 2185.13,1148.15 2176.5,1142.5C 2182.18,1133.8 2187.84,1125.14 2193.5,1116.5 Z"/></g>
<g><path style="opacity:1" fill="#353535" d="M 1942.5,1125.5 C 1953.51,1127.17 1962.51,1132.17 1969.5,1140.5C 1965.6,1147.96 1961.44,1155.29 1957,1162.5C 1955.96,1164.59 1954.46,1166.25 1952.5,1167.5C 1943.45,1162.32 1934.79,1156.65 1926.5,1150.5C 1932.1,1142.28 1937.44,1133.95 1942.5,1125.5 Z"/></g>
<g><path style="opacity:1" fill="#363636" d="M 1486.5,1126.5 C 1503.98,1124.14 1509.48,1131.14 1503,1147.5C 1501.41,1152.24 1498.58,1155.91 1494.5,1158.5C 1491.65,1155.81 1488.65,1153.31 1485.5,1151C 1481.83,1150.33 1478.17,1150.33 1474.5,1151C 1470.19,1153.31 1468.69,1156.81 1470,1161.5C 1479.29,1169.97 1490.29,1173.97 1503,1173.5C 1510.84,1172.21 1518.67,1171.38 1526.5,1171C 1527.43,1172.19 1528.1,1173.53 1528.5,1175C 1525.36,1178.57 1524.36,1182.57 1525.5,1187C 1524.54,1191.55 1523.37,1196.05 1522,1200.5C 1520.17,1203.67 1517.67,1206.17 1514.5,1208C 1492.07,1220.97 1469.57,1233.8 1447,1246.5C 1446.05,1246.09 1445.39,1245.43 1445,1244.5C 1443.29,1238.31 1444.79,1233.14 1449.5,1229C 1469,1216.75 1488.67,1204.75 1508.5,1193C 1492.79,1195.57 1477.79,1200.57 1463.5,1208C 1455.55,1209.05 1453.71,1206.22 1458,1199.5C 1461.63,1196.61 1465.13,1193.61 1468.5,1190.5C 1455.25,1183.28 1451.75,1172.61 1458,1158.5C 1463.86,1144.48 1473.36,1133.82 1486.5,1126.5 Z"/></g>
<g><path style="opacity:1" fill="#373737" d="M 1203.5,1183.5 C 1207.07,1183.41 1208.24,1185.07 1207,1188.5C 1205.51,1192.79 1204.18,1197.12 1203,1201.5C 1201.5,1203.67 1199.67,1205.5 1197.5,1207C 1175,1219.75 1152.67,1232.75 1130.5,1246C 1128.63,1246.71 1127.13,1246.21 1126,1244.5C 1125.33,1241.17 1125.33,1237.83 1126,1234.5C 1127.83,1232 1130,1229.83 1132.5,1228C 1156.57,1213.64 1180.23,1198.81 1203.5,1183.5 Z"/></g>
<g><path style="opacity:1" fill="#184266" d="M 2999.5,1332.5 C 2999.5,1554.83 2999.5,1777.17 2999.5,1999.5C 2891.17,1999.5 2782.83,1999.5 2674.5,1999.5C 2638.54,1936.22 2611.37,1869.22 2593,1798.5C 2576.16,1737.9 2570.16,1676.24 2575,1613.5C 2580.1,1550.15 2602.77,1494.15 2643,1445.5C 2684.52,1400.3 2735.02,1369.13 2794.5,1352C 2861.64,1333.34 2929.97,1326.84 2999.5,1332.5 Z"/></g>
<g><path style="opacity:1" fill="#184266" d="M 825.5,1385.5 C 904.458,1382.4 964.291,1414.4 1005,1481.5C 1029.42,1524.08 1045.08,1569.75 1052,1618.5C 1067.34,1706.76 1057.68,1792.09 1023,1874.5C 1007.86,1909.32 987.356,1940.48 961.5,1968C 918.832,2002.93 885.666,1995.43 862,1945.5C 859.803,1939.91 857.803,1934.24 856,1928.5C 848.391,1896.91 841.057,1865.24 834,1833.5C 806.94,1741.16 757.274,1663.49 685,1600.5C 672.699,1587.24 662.366,1572.57 654,1556.5C 641.177,1526.96 642.844,1498.29 659,1470.5C 674.399,1447.77 694.233,1429.94 718.5,1417C 752.51,1400.27 788.176,1389.77 825.5,1385.5 Z"/></g>
</svg>
