<?xml version="1.0" encoding="UTF-8"?>
<!DOCTYPE svg PUBLIC "-//W3C//DTD SVG 1.1//EN" "http://www.w3.org/Graphics/SVG/1.1/DTD/svg11.dtd">
<svg xmlns="http://www.w3.org/2000/svg" version="1.1" width="3000px" height="2000px" style="shape-rendering:geometricPrecision; text-rendering:geometricPrecision; image-rendering:optimizeQuality; fill-rule:evenodd; clip-rule:evenodd" xmlns:xlink="http://www.w3.org/1999/xlink">
<g><path style="opacity:1" fill="#feb24f" d="M -0.5,-0.5 C 33.1667,-0.5 66.8333,-0.5 100.5,-0.5C 177.752,59.8856 256.585,118.219 337,174.5C 352.096,215.836 359.096,258.503 358,302.5C 352.434,366.167 322.601,414.667 268.5,448C 231.716,469.487 192.383,484.487 150.5,493C 100.671,503.061 50.3377,508.894 -0.5,510.5C -0.5,340.167 -0.5,169.833 -0.5,-0.5 Z"/></g>
<g><path style="opacity:1" fill="#184266" d="M 100.5,-0.5 C 416.5,-0.5 732.5,-0.5 1048.5,-0.5C 1030.89,24.3468 1012.06,48.3468 992,71.5C 959.532,106.303 926.698,140.803 893.5,175C 845.377,221.141 792.71,261.141 735.5,295C 704.71,313.04 671.71,324.707 636.5,330C 619.635,332.059 603.301,330.059 587.5,324C 563.001,312.252 539.001,299.752 515.5,286.5C 460.681,256.266 407.681,223.266 356.5,187.5C 356.167,188 355.833,188.5 355.5,189C 402.668,348.394 346.668,451.06 187.5,497C 125.819,512.544 63.1519,520.71 -0.5,521.5C -0.5,517.833 -0.5,514.167 -0.5,510.5C 50.3377,508.894 100.671,503.061 150.5,493C 192.383,484.487 231.716,469.487 268.5,448C 322.601,414.667 352.434,366.167 358,302.5C 359.096,258.503 352.096,215.836 337,174.5C 256.585,118.219 177.752,59.8856 100.5,-0.5 Z"/></g>
<g><path style="opacity:1" fill="#fefefe" d="M 1048.5,-0.5 C 1464.5,-0.5 1880.5,-0.5 2296.5,-0.5C 2347.41,125.663 2404.58,248.997 2468,369.5C 2515.25,457.365 2569.59,540.365 2631,618.5C 2672.46,668.965 2718.3,715.132 2768.5,757C 2809.35,789.611 2853.68,816.945 2901.5,839C 2933.26,852.864 2965.93,864.031 2999.5,872.5C 2999.5,1073.17 2999.5,1273.83 2999.5,1474.5C 2939.21,1481.87 2881.21,1497.71 2825.5,1522C 2742.43,1558.18 2664.43,1602.51 2591.5,1655C 2550,1685.83 2513.83,1722 2483,1763.5C 2453.22,1805.5 2435.22,1852.16 2429,1903.5C 2426.49,1936.09 2429.66,1968.09 2438.5,1999.5C 1979.83,1999.5 1521.17,1999.5 1062.5,1999.5C 1080.22,1952.29 1094.05,1903.96 1104,1854.5C 1113.99,1800.3 1114.99,1745.97 1107,1691.5C 1095.04,1638.59 1075.04,1588.92 1047,1542.5C 979.905,1434.36 903.572,1333.03 818,1238.5C 769.152,1186.62 715.319,1141.12 656.5,1102C 527.861,1020.71 388.528,994.04 238.5,1022C 203.651,1028.25 169.318,1036.42 135.5,1046.5C 91.0489,1035 45.7156,1029.34 -0.5,1029.5C -0.5,869.833 -0.5,710.167 -0.5,550.5C 39.6512,565.972 81.3178,574.139 124.5,575C 187.092,575.82 249.092,570.154 310.5,558C 346.465,550.568 380.799,538.568 413.5,522C 491.211,480.194 527.044,415.027 521,326.5C 519.493,313.107 517.659,299.774 515.5,286.5C 539.001,299.752 563.001,312.252 587.5,324C 603.301,330.059 619.635,332.059 636.5,330C 671.71,324.707 704.71,313.04 735.5,295C 792.71,261.141 845.377,221.141 893.5,175C 926.698,140.803 959.532,106.303 992,71.5C 1012.06,48.3468 1030.89,24.3468 1048.5,-0.5 Z"/></g>
<g><path style="opacity:1" fill="#194266" d="M 2296.5,-0.5 C 2308.5,-0.5 2320.5,-0.5 2332.5,-0.5C 2382.56,112.283 2436.39,223.283 2494,332.5C 2542.6,422.761 2597.94,508.427 2660,589.5C 2710.65,654.822 2769.15,711.989 2835.5,761C 2885.52,796.507 2940.19,822.674 2999.5,839.5C 2999.5,850.5 2999.5,861.5 2999.5,872.5C 2965.93,864.031 2933.26,852.864 2901.5,839C 2853.68,816.945 2809.35,789.611 2768.5,757C 2718.3,715.132 2672.46,668.965 2631,618.5C 2569.59,540.365 2515.25,457.365 2468,369.5C 2404.58,248.997 2347.41,125.663 2296.5,-0.5 Z"/></g>
<g><path style="opacity:1" fill="#fefefe" d="M 2332.5,-0.5 C 2512.83,-0.5 2693.17,-0.5 2873.5,-0.5C 2910.89,60.5526 2952.89,118.219 2999.5,172.5C 2999.5,394.833 2999.5,617.167 2999.5,839.5C 2940.19,822.674 2885.52,796.507 2835.5,761C 2769.15,711.989 2710.65,654.822 2660,589.5C 2597.94,508.427 2542.6,422.761 2494,332.5C 2436.39,223.283 2382.56,112.283 2332.5,-0.5 Z"/></g>
<g><path style="opacity:1" fill="#ffb34f" d="M 2873.5,-0.5 C 2915.5,-0.5 2957.5,-0.5 2999.5,-0.5C 2999.5,57.1667 2999.5,114.833 2999.5,172.5C 2952.89,118.219 2910.89,60.5526 2873.5,-0.5 Z"/></g>
<g><path style="opacity:1" fill="#feb24f" d="M 515.5,286.5 C 517.659,299.774 519.493,313.107 521,326.5C 527.044,415.027 491.211,480.194 413.5,522C 380.799,538.568 346.465,550.568 310.5,558C 249.092,570.154 187.092,575.82 124.5,575C 81.3178,574.139 39.6512,565.972 -0.5,550.5C -0.5,540.833 -0.5,531.167 -0.5,521.5C 63.1519,520.71 125.819,512.544 187.5,497C 346.668,451.06 402.668,348.394 355.5,189C 355.833,188.5 356.167,188 356.5,187.5C 407.681,223.266 460.681,256.266 515.5,286.5 Z"/></g>
<g><path style="opacity:1" fill="#363636" d="M 1467.5,864.5 C 1462.31,864.821 1457.31,864.487 1452.5,863.5C 1469.33,854.848 1484,843.348 1496.5,829C 1483.38,820.594 1479.55,809.094 1485,794.5C 1488.91,783.419 1496.41,776.419 1507.5,773.5C 1515.89,774.876 1520.72,779.876 1522,788.5C 1522.33,798.358 1520.5,807.858 1516.5,817C 1519.41,820.053 1522.25,823.219 1525,826.5C 1525.79,832.724 1524.96,838.724 1522.5,844.5C 1517.17,841.167 1511.83,837.833 1506.5,834.5C 1497.6,844.9 1487.6,854.067 1476.5,862C 1473.57,863.145 1470.57,863.978 1467.5,864.5 Z"/></g>
<g><path style="opacity:1" fill="#f7f7f7" d="M 1495.5,791.5 C 1504.13,792.013 1508.79,796.679 1509.5,805.5C 1509.64,807.808 1508.97,809.808 1507.5,811.5C 1502.84,808.334 1498.67,804.667 1495,800.5C 1492.88,797.303 1493.05,794.303 1495.5,791.5 Z"/></g>
<g><path style="opacity:1" fill="#363636" d="M 1303.5,802.5 C 1304.65,802.791 1305.32,803.624 1305.5,805C 1303.84,811.337 1300.51,816.67 1295.5,821C 1275.24,828.976 1255.07,837.142 1235,845.5C 1234.72,838.232 1237.55,832.399 1243.5,828C 1263.64,819.573 1283.64,811.073 1303.5,802.5 Z"/></g>
<g><path style="opacity:1" fill="#373737" d="M 1840.5,802.5 C 1841.59,802.62 1842.25,803.287 1842.5,804.5C 1841.02,811.14 1837.69,816.64 1832.5,821C 1812.33,829.334 1791.99,837.167 1771.5,844.5C 1772.08,837.733 1775.08,832.233 1780.5,828C 1800.64,819.573 1820.64,811.073 1840.5,802.5 Z"/></g>
<g><path style="opacity:1" fill="#9e9e9e" d="M 1452.5,863.5 C 1457.31,864.487 1462.31,864.821 1467.5,864.5C 1462.02,865.652 1456.35,865.818 1450.5,865C 1451.04,864.283 1451.71,863.783 1452.5,863.5 Z"/></g>
<g><path style="opacity:1" fill="#353535" d="M 1721.5,871.5 C 1723.28,935.036 1725.78,998.703 1729,1062.5C 1729.54,1073.04 1734.71,1080.2 1744.5,1084C 1769.71,1087.03 1794.04,1083.69 1817.5,1074C 1822.2,1072.29 1826.04,1069.46 1829,1065.5C 1829.67,1064.5 1829.67,1063.5 1829,1062.5C 1823.02,1052.21 1817.85,1041.54 1813.5,1030.5C 1814.65,1016.22 1818.15,1002.56 1824,989.5C 1838.09,1010.75 1845.09,1034.09 1845,1059.5C 1841.39,1093.77 1822.89,1114.94 1789.5,1123C 1772.4,1127.73 1755.06,1129.06 1737.5,1127C 1726.35,1125.19 1718.18,1119.35 1713,1109.5C 1709.27,1099.84 1706.93,1089.84 1706,1079.5C 1701.77,1021.55 1698.77,963.55 1697,905.5C 1702.71,892.309 1710.87,880.976 1721.5,871.5 Z"/></g>
<g><path style="opacity:1" fill="#353535" d="M 1184.5,871.5 C 1187.06,933.996 1189.23,996.663 1191,1059.5C 1191.62,1073.11 1198.45,1081.61 1211.5,1085C 1230.37,1086.46 1249.04,1085.12 1267.5,1081C 1280.34,1077.67 1291.18,1071.17 1300,1061.5C 1300.7,1059.72 1301.2,1057.89 1301.5,1056C 1297.13,1008.23 1293.96,960.399 1292,912.5C 1299.2,899.44 1307.86,887.44 1318,876.5C 1320.17,933.829 1321.83,991.163 1323,1048.5C 1318.13,1089.38 1295.63,1114.54 1255.5,1124C 1235.62,1127.81 1215.62,1128.48 1195.5,1126C 1183.4,1121.57 1175.9,1113.07 1173,1100.5C 1169.3,1086.42 1167.3,1072.08 1167,1057.5C 1165.04,1014.15 1162.7,970.814 1160,927.5C 1159.33,920.167 1159.33,912.833 1160,905.5C 1165.67,892.333 1173.84,881 1184.5,871.5 Z"/></g>
<g><path style="opacity:1" fill="#353535" d="M 1638.5,992.5 C 1656.77,1020.68 1660.27,1050.68 1649,1082.5C 1636.84,1102.32 1620.01,1116.82 1598.5,1126C 1561.17,1141.54 1522.5,1146.21 1482.5,1140C 1452.73,1131.65 1440.89,1112.15 1447,1081.5C 1451.82,1060.52 1461.82,1042.52 1477,1027.5C 1477.67,1028.5 1477.67,1029.5 1477,1030.5C 1471.9,1039.27 1467.23,1048.27 1463,1057.5C 1458.32,1071.12 1461.82,1081.95 1473.5,1090C 1488.34,1097.03 1504,1100.2 1520.5,1099.5C 1550.35,1098.4 1579.35,1092.9 1607.5,1083C 1617.58,1078.88 1626.75,1073.38 1635,1066.5C 1635.27,1063.35 1634.61,1060.35 1633,1057.5C 1628.01,1047.51 1622.51,1037.84 1616.5,1028.5C 1621.31,1014.87 1628.64,1002.87 1638.5,992.5 Z"/></g>
<g><path style="opacity:1" fill="#1c4467" d="M 1062.5,1999.5 C 1053.17,1999.5 1043.83,1999.5 1034.5,1999.5C 1058.85,1938.1 1076.02,1874.76 1086,1809.5C 1095.82,1741.88 1087.82,1676.55 1062,1613.5C 1050.58,1586.66 1037.58,1560.66 1023,1535.5C 973.179,1451.36 917.512,1371.36 856,1295.5C 805.54,1234.37 748.706,1180.2 685.5,1133C 542.467,1031.4 385.467,1002.07 214.5,1045C 199.565,1048.61 184.898,1052.78 170.5,1057.5C 111.808,1075.17 54.8076,1097.17 -0.5,1123.5C -0.5,1115.17 -0.5,1106.83 -0.5,1098.5C 43.7378,1078.38 89.0711,1061.05 135.5,1046.5C 169.318,1036.42 203.651,1028.25 238.5,1022C 388.528,994.04 527.861,1020.71 656.5,1102C 715.319,1141.12 769.152,1186.62 818,1238.5C 903.572,1333.03 979.905,1434.36 1047,1542.5C 1075.04,1588.92 1095.04,1638.59 1107,1691.5C 1114.99,1745.97 1113.99,1800.3 1104,1854.5C 1094.05,1903.96 1080.22,1952.29 1062.5,1999.5 Z"/></g>
<g><path style="opacity:1" fill="#fefefe" d="M 1034.5,1999.5 C 922.167,1999.5 809.833,1999.5 697.5,1999.5C 714.248,1953.51 727.414,1906.51 737,1858.5C 754.993,1774.02 746.66,1692.36 712,1613.5C 696.708,1580.59 679.374,1548.92 660,1518.5C 607.279,1435.41 548.945,1356.41 485,1281.5C 432.24,1221.05 373.073,1168.22 307.5,1123C 272.208,1100.02 234.875,1080.69 195.5,1065C 187.414,1061.58 179.08,1059.08 170.5,1057.5C 184.898,1052.78 199.565,1048.61 214.5,1045C 385.467,1002.07 542.467,1031.4 685.5,1133C 748.706,1180.2 805.54,1234.37 856,1295.5C 917.512,1371.36 973.179,1451.36 1023,1535.5C 1037.58,1560.66 1050.58,1586.66 1062,1613.5C 1087.82,1676.55 1095.82,1741.88 1086,1809.5C 1076.02,1874.76 1058.85,1938.1 1034.5,1999.5 Z"/></g>
<g><path style="opacity:1" fill="#feb24f" d="M -0.5,1029.5 C 45.7156,1029.34 91.0489,1035 135.5,1046.5C 89.0711,1061.05 43.7378,1078.38 -0.5,1098.5C -0.5,1075.5 -0.5,1052.5 -0.5,1029.5 Z"/></g>
<g><path style="opacity:1" fill="#feb34f" d="M 170.5,1057.5 C 179.08,1059.08 187.414,1061.58 195.5,1065C 234.875,1080.69 272.208,1100.02 307.5,1123C 373.073,1168.22 432.24,1221.05 485,1281.5C 548.945,1356.41 607.279,1435.41 660,1518.5C 679.374,1548.92 696.708,1580.59 712,1613.5C 746.66,1692.36 754.993,1774.02 737,1858.5C 727.414,1906.51 714.248,1953.51 697.5,1999.5C 464.833,1999.5 232.167,1999.5 -0.5,1999.5C -0.5,1707.5 -0.5,1415.5 -0.5,1123.5C 54.8076,1097.17 111.808,1075.17 170.5,1057.5 Z"/></g>
<g><path style="opacity:1" fill="#363636" d="M 1799.5,1152.5 C 1807.82,1161.49 1815.82,1170.83 1823.5,1180.5C 1816.2,1189.47 1808.2,1197.8 1799.5,1205.5C 1791.24,1197.13 1783.58,1188.3 1776.5,1179C 1784.53,1170.42 1792.2,1161.58 1799.5,1152.5 Z"/></g>
<g><path style="opacity:1" fill="#363636" d="M 1554.5,1186.5 C 1556.02,1186.51 1557.18,1187.18 1558,1188.5C 1564.83,1196.83 1571.67,1205.17 1578.5,1213.5C 1570.47,1221.86 1562.47,1230.19 1554.5,1238.5C 1545.74,1230.41 1538.07,1221.41 1531.5,1211.5C 1539.56,1203.45 1547.22,1195.11 1554.5,1186.5 Z"/></g>
<g><path style="opacity:1" fill="#feb24f" d="M 2999.5,1474.5 C 2999.5,1495.83 2999.5,1517.17 2999.5,1538.5C 2936.4,1568.53 2877.07,1604.36 2821.5,1646C 2782.29,1675.54 2748.13,1710.04 2719,1749.5C 2692.01,1787.16 2674.01,1828.82 2665,1874.5C 2658.4,1916.86 2661.24,1958.53 2673.5,1999.5C 2595.17,1999.5 2516.83,1999.5 2438.5,1999.5C 2429.66,1968.09 2426.49,1936.09 2429,1903.5C 2435.22,1852.16 2453.22,1805.5 2483,1763.5C 2513.83,1722 2550,1685.83 2591.5,1655C 2664.43,1602.51 2742.43,1558.18 2825.5,1522C 2881.21,1497.71 2939.21,1481.87 2999.5,1474.5 Z"/></g>
<g><path style="opacity:1" fill="#1c4365" d="M 2999.5,1538.5 C 2999.5,1544.5 2999.5,1550.5 2999.5,1556.5C 2939.51,1587.37 2882.85,1623.2 2829.5,1664C 2804.04,1685.12 2780.21,1707.95 2758,1732.5C 2730.42,1764.82 2709.42,1801.15 2695,1841.5C 2678.27,1894.23 2678.44,1946.9 2695.5,1999.5C 2688.17,1999.5 2680.83,1999.5 2673.5,1999.5C 2661.24,1958.53 2658.4,1916.86 2665,1874.5C 2674.01,1828.82 2692.01,1787.16 2719,1749.5C 2748.13,1710.04 2782.29,1675.54 2821.5,1646C 2877.07,1604.36 2936.4,1568.53 2999.5,1538.5 Z"/></g>
<g><path style="opacity:1" fill="#feb24f" d="M 2999.5,1556.5 C 2999.5,1704.17 2999.5,1851.83 2999.5,1999.5C 2898.17,1999.5 2796.83,1999.5 2695.5,1999.5C 2678.44,1946.9 2678.27,1894.23 2695,1841.5C 2709.42,1801.15 2730.42,1764.82 2758,1732.5C 2780.21,1707.95 2804.04,1685.12 2829.5,1664C 2882.85,1623.2 2939.51,1587.37 2999.5,1556.5 Z"/></g>
</svg>
