<?xml version="1.0" encoding="UTF-8"?>
<!DOCTYPE svg PUBLIC "-//W3C//DTD SVG 1.1//EN" "http://www.w3.org/Graphics/SVG/1.1/DTD/svg11.dtd">
<svg xmlns="http://www.w3.org/2000/svg" version="1.1" width="3000px" height="2000px" style="shape-rendering:geometricPrecision; text-rendering:geometricPrecision; image-rendering:optimizeQuality; fill-rule:evenodd; clip-rule:evenodd" xmlns:xlink="http://www.w3.org/1999/xlink">
<g><path style="opacity:1" fill="#fefefe" d="M -0.5,-0.5 C 126.833,-0.5 254.167,-0.5 381.5,-0.5C 409.264,71.7542 453.931,131.254 515.5,178C 570.466,216.719 631.132,230.386 697.5,219C 725.009,212.571 750.009,201.071 772.5,184.5C 828.839,242.89 897.172,265.39 977.5,252C 996.268,246.781 1013.93,239.114 1030.5,229C 1033.04,227.618 1035.04,225.785 1036.5,223.5C 1051.31,250.438 1066.14,277.438 1081,304.5C 1093.18,325.658 1108.34,344.492 1126.5,361C 1176.64,400.828 1231.31,408.162 1290.5,383C 1302.2,377.158 1313.2,370.324 1323.5,362.5C 1359.81,425.151 1413.81,450.317 1485.5,438C 1507.71,432.169 1527.71,422.169 1545.5,408C 1599.09,361.329 1629.92,302.496 1638,231.5C 1639.37,215.186 1639.71,198.853 1639,182.5C 1635.09,146.346 1630.09,110.346 1624,74.5C 1620.79,49.5995 1619.29,24.5995 1619.5,-0.5C 1926.83,-0.5 2234.17,-0.5 2541.5,-0.5C 2539.43,16.8733 2535.6,33.8733 2530,50.5C 2517.19,87.7797 2500.86,123.446 2481,157.5C 2456.5,199.166 2431.5,240.499 2406,281.5C 2376.86,330.445 2350.86,381.112 2328,433.5C 2285.63,535.359 2264.8,641.525 2265.5,752C 2263.79,832.869 2274.29,912.035 2297,989.5C 2315.26,1048.02 2342.92,1101.35 2380,1149.5C 2392.62,1165.13 2405.62,1180.46 2419,1195.5C 2464.36,1240.53 2510.03,1285.2 2556,1329.5C 2595.71,1370.25 2628.05,1416.25 2653,1467.5C 2676.09,1518.53 2691.09,1571.86 2698,1627.5C 2704.96,1697.11 2705.29,1766.77 2699,1836.5C 2693.67,1891.14 2686.17,1945.48 2676.5,1999.5C 2102.83,1999.5 1529.17,1999.5 955.5,1999.5C 837.501,1939.65 759.001,1846.31 720,1719.5C 703.601,1665.12 691.268,1609.79 683,1553.5C 671.155,1466.59 657.822,1379.92 643,1293.5C 620.697,1166.26 581.364,1044.59 525,928.5C 469.312,819.746 400.312,720.413 318,630.5C 259.564,565.37 195.064,507.537 124.5,457C 85.0156,429.917 43.3489,406.417 -0.5,386.5C -0.5,257.5 -0.5,128.5 -0.5,-0.5 Z"/></g>
<g><path style="opacity:1" fill="#184266" d="M 381.5,-0.5 C 721.833,-0.5 1062.17,-0.5 1402.5,-0.5C 1408.39,31.1416 1414.23,62.8083 1420,94.5C 1432.66,180.601 1412.66,257.934 1360,326.5C 1348.6,339.398 1336.44,351.398 1323.5,362.5C 1313.2,370.324 1302.2,377.158 1290.5,383C 1231.31,408.162 1176.64,400.828 1126.5,361C 1108.34,344.492 1093.18,325.658 1081,304.5C 1066.14,277.438 1051.31,250.438 1036.5,223.5C 1013.67,182.166 982.336,148.666 942.5,123C 908.295,105.388 874.628,106.388 841.5,126C 835.221,129.946 829.221,134.279 823.5,139C 806.901,154.774 789.901,169.941 772.5,184.5C 750.009,201.071 725.009,212.571 697.5,219C 631.132,230.386 570.466,216.719 515.5,178C 453.931,131.254 409.264,71.7542 381.5,-0.5 Z"/></g>
<g><path style="opacity:1" fill="#feb34f" d="M 1402.5,-0.5 C 1474.83,-0.5 1547.17,-0.5 1619.5,-0.5C 1619.29,24.5995 1620.79,49.5995 1624,74.5C 1630.09,110.346 1635.09,146.346 1639,182.5C 1639.71,198.853 1639.37,215.186 1638,231.5C 1629.92,302.496 1599.09,361.329 1545.5,408C 1527.71,422.169 1507.71,432.169 1485.5,438C 1413.81,450.317 1359.81,425.151 1323.5,362.5C 1336.44,351.398 1348.6,339.398 1360,326.5C 1412.66,257.934 1432.66,180.601 1420,94.5C 1414.23,62.8083 1408.39,31.1416 1402.5,-0.5 Z"/></g>
<g><path style="opacity:1" fill="#184266" d="M 2541.5,-0.5 C 2694.17,-0.5 2846.83,-0.5 2999.5,-0.5C 2999.5,666.167 2999.5,1332.83 2999.5,1999.5C 2891.83,1999.5 2784.17,1999.5 2676.5,1999.5C 2686.17,1945.48 2693.67,1891.14 2699,1836.5C 2705.29,1766.77 2704.96,1697.11 2698,1627.5C 2691.09,1571.86 2676.09,1518.53 2653,1467.5C 2628.05,1416.25 2595.71,1370.25 2556,1329.5C 2510.03,1285.2 2464.36,1240.53 2419,1195.5C 2405.62,1180.46 2392.62,1165.13 2380,1149.5C 2342.92,1101.35 2315.26,1048.02 2297,989.5C 2274.29,912.035 2263.79,832.869 2265.5,752C 2264.8,641.525 2285.63,535.359 2328,433.5C 2350.86,381.112 2376.86,330.445 2406,281.5C 2431.5,240.499 2456.5,199.166 2481,157.5C 2500.86,123.446 2517.19,87.7797 2530,50.5C 2535.6,33.8733 2539.43,16.8733 2541.5,-0.5 Z"/></g>
<g><path style="opacity:1" fill="#feb24f" d="M 1036.5,223.5 C 1035.04,225.785 1033.04,227.618 1030.5,229C 1013.93,239.114 996.268,246.781 977.5,252C 897.172,265.39 828.839,242.89 772.5,184.5C 789.901,169.941 806.901,154.774 823.5,139C 829.221,134.279 835.221,129.946 841.5,126C 874.628,106.388 908.295,105.388 942.5,123C 982.336,148.666 1013.67,182.166 1036.5,223.5 Z"/></g>
<g><path style="opacity:1" fill="#ffb34f" d="M -0.5,386.5 C 43.3489,406.417 85.0156,429.917 124.5,457C 195.064,507.537 259.564,565.37 318,630.5C 400.312,720.413 469.312,819.746 525,928.5C 581.364,1044.59 620.697,1166.26 643,1293.5C 657.822,1379.92 671.155,1466.59 683,1553.5C 691.268,1609.79 703.601,1665.12 720,1719.5C 759.001,1846.31 837.501,1939.65 955.5,1999.5C 636.833,1999.5 318.167,1999.5 -0.5,1999.5C -0.5,1461.83 -0.5,924.167 -0.5,386.5 Z"/></g>
<g><path style="opacity:1" fill="#3a3a3a" d="M 1438.5,861.5 C 1440.17,861.5 1441.83,861.5 1443.5,861.5C 1443.5,866.5 1443.5,871.5 1443.5,876.5C 1419.52,879.331 1395.52,881.998 1371.5,884.5C 1371.5,880.5 1371.5,876.5 1371.5,872.5C 1394.01,869.137 1416.35,865.47 1438.5,861.5 Z"/></g>
<g><path style="opacity:1" fill="#353535" d="M 1406.5,901.5 C 1415.91,909.408 1424.91,917.908 1433.5,927C 1424.99,935.681 1416.32,944.181 1407.5,952.5C 1398.68,944.181 1390.01,935.681 1381.5,927C 1390.04,918.632 1398.37,910.132 1406.5,901.5 Z"/></g>
<g><path style="opacity:1" fill="#383838" d="M 1476.5,952.5 C 1476.24,948.4 1476.57,944.4 1477.5,940.5C 1490.91,938.321 1504.24,935.821 1517.5,933C 1515.26,932.023 1512.93,931.523 1510.5,931.5C 1510.5,925.167 1510.5,918.833 1510.5,912.5C 1515.7,911.038 1521.04,910.371 1526.5,910.5C 1533.56,910.747 1540.56,911.414 1547.5,912.5C 1547.5,923.167 1547.5,933.833 1547.5,944.5C 1523.78,946.756 1500.12,949.423 1476.5,952.5 Z"/></g>
<g><path style="opacity:1" fill="#353535" d="M 1309.5,921.5 C 1327.17,921.5 1344.83,921.5 1362.5,921.5C 1362.5,964.833 1362.5,1008.17 1362.5,1051.5C 1368.83,1051.5 1375.17,1051.5 1381.5,1051.5C 1381.5,1024.83 1381.5,998.167 1381.5,971.5C 1398.83,971.5 1416.17,971.5 1433.5,971.5C 1433.5,998.167 1433.5,1024.83 1433.5,1051.5C 1437.83,1051.5 1442.17,1051.5 1446.5,1051.5C 1446.17,1028.26 1446.51,1005.09 1447.5,982C 1458.45,978.512 1469.45,975.178 1480.5,972C 1512.5,971.5 1544.5,971.333 1576.5,971.5C 1576.5,998.167 1576.5,1024.83 1576.5,1051.5C 1580.83,1051.5 1585.17,1051.5 1589.5,1051.5C 1589.5,1008.17 1589.5,964.833 1589.5,921.5C 1606.83,921.5 1624.17,921.5 1641.5,921.5C 1641.5,977.833 1641.5,1034.17 1641.5,1090.5C 1530.83,1090.5 1420.17,1090.5 1309.5,1090.5C 1309.5,1034.17 1309.5,977.833 1309.5,921.5 Z"/></g>
<g><path style="opacity:1" fill="#fdfdfd" d="M 1524.5,921.5 C 1527.5,921.5 1530.5,921.5 1533.5,921.5C 1533.5,924.833 1533.5,928.167 1533.5,931.5C 1530.52,931.963 1527.52,932.296 1524.5,932.5C 1524.5,928.833 1524.5,925.167 1524.5,921.5 Z"/></g>
<g><path style="opacity:1" fill="#353535" d="M 1655.5,921.5 C 1672.83,921.5 1690.17,921.5 1707.5,921.5C 1707.5,977.833 1707.5,1034.17 1707.5,1090.5C 1690.17,1090.5 1672.83,1090.5 1655.5,1090.5C 1655.5,1034.17 1655.5,977.833 1655.5,921.5 Z"/></g>
<g><path style="opacity:1" fill="#343434" d="M 1956.5,921.5 C 1973.83,921.5 1991.17,921.5 2008.5,921.5C 2008.5,964.833 2008.5,1008.17 2008.5,1051.5C 2015.17,1051.5 2021.83,1051.5 2028.5,1051.5C 2028.5,1024.83 2028.5,998.167 2028.5,971.5C 2045.83,971.5 2063.17,971.5 2080.5,971.5C 2080.5,1011.17 2080.5,1050.83 2080.5,1090.5C 2039.17,1090.5 1997.83,1090.5 1956.5,1090.5C 1956.5,1034.17 1956.5,977.833 1956.5,921.5 Z"/></g>
<g><path style="opacity:1" fill="#383838" d="M 1298.5,929.5 C 1301.17,929.5 1303.83,929.5 1306.5,929.5C 1306.5,934.167 1306.5,938.833 1306.5,943.5C 1282.92,947.072 1259.25,950.072 1235.5,952.5C 1235.5,948.5 1235.5,944.5 1235.5,940.5C 1256.69,937.192 1277.69,933.525 1298.5,929.5 Z"/></g>
<g><path style="opacity:1" fill="#3a3a3a" d="M 2082.5,929.5 C 2085.17,929.5 2087.83,929.5 2090.5,929.5C 2090.5,934.5 2090.5,939.5 2090.5,944.5C 2066.41,946.511 2042.41,949.177 2018.5,952.5C 2018.5,948.5 2018.5,944.5 2018.5,940.5C 2040.03,937.246 2061.36,933.579 2082.5,929.5 Z"/></g>
<g><path style="opacity:1" fill="#959595" d="M 1477.5,940.5 C 1476.57,944.4 1476.24,948.4 1476.5,952.5C 1475.84,950.696 1475.5,948.696 1475.5,946.5C 1475.54,944.048 1476.21,942.048 1477.5,940.5 Z"/></g>
<g><path style="opacity:1" fill="#373737" d="M 1808.5,1001.5 C 1806.16,997.884 1805.82,993.884 1807.5,989.5C 1821.44,987.011 1835.44,984.844 1849.5,983C 1846.7,981.604 1843.7,980.77 1840.5,980.5C 1840.5,974.167 1840.5,967.833 1840.5,961.5C 1852.57,959.939 1864.57,960.272 1876.5,962.5C 1877.5,972.812 1877.83,983.145 1877.5,993.5C 1854.45,995.756 1831.45,998.423 1808.5,1001.5 Z"/></g>
<g><path style="opacity:1" fill="#343434" d="M 1141.5,981.5 C 1142.49,1021.76 1142.83,1062.09 1142.5,1102.5C 1125.83,1107.17 1109.17,1111.83 1092.5,1116.5C 1091.83,1081.17 1091.17,1045.83 1090.5,1010.5C 1083.5,1010.5 1076.5,1010.5 1069.5,1010.5C 1069.5,1046.17 1069.5,1081.83 1069.5,1117.5C 1019.17,1117.5 968.833,1117.5 918.5,1117.5C 918.5,1080.5 918.5,1043.5 918.5,1006.5C 935.767,1002.18 953.1,998.183 970.5,994.5C 970.5,1022.5 970.5,1050.5 970.5,1078.5C 986.325,1079.5 1002.32,1079.83 1018.5,1079.5C 1018.5,1047.83 1018.5,1016.17 1018.5,984.5C 1034.78,980.243 1051.11,976.076 1067.5,972C 1080.83,971.333 1094.17,971.333 1107.5,972C 1118.77,975.483 1130.1,978.65 1141.5,981.5 Z"/></g>
<g><path style="opacity:1" fill="#343434" d="M 1244.5,971.5 C 1261.83,971.5 1279.17,971.5 1296.5,971.5C 1296.5,1011.17 1296.5,1050.83 1296.5,1090.5C 1249.5,1090.5 1202.5,1090.5 1155.5,1090.5C 1155.5,1077.5 1155.5,1064.5 1155.5,1051.5C 1185.17,1051.5 1214.83,1051.5 1244.5,1051.5C 1244.5,1024.83 1244.5,998.167 1244.5,971.5 Z"/></g>
<g><path style="opacity:1" fill="#fafafa" d="M 1854.5,970.5 C 1857.5,970.5 1860.5,970.5 1863.5,970.5C 1863.5,973.833 1863.5,977.167 1863.5,980.5C 1860.52,980.963 1857.52,981.296 1854.5,981.5C 1854.5,977.833 1854.5,974.167 1854.5,970.5 Z"/></g>
<g><path style="opacity:1" fill="#343434" d="M 1790.5,971.5 C 1791.5,997.995 1791.83,1024.66 1791.5,1051.5C 1824.83,1051.5 1858.17,1051.5 1891.5,1051.5C 1891.5,1024.83 1891.5,998.167 1891.5,971.5C 1908.83,971.5 1926.17,971.5 1943.5,971.5C 1943.5,1011.17 1943.5,1050.83 1943.5,1090.5C 1875.5,1090.5 1807.5,1090.5 1739.5,1090.5C 1739.5,1055.17 1739.5,1019.83 1739.5,984.5C 1756.56,979.986 1773.56,975.653 1790.5,971.5 Z"/></g>
<g><path style="opacity:1" fill="#c8c8c8" d="M 1141.5,981.5 C 1142.83,1001.32 1143.5,1021.49 1143.5,1042C 1143.5,1062.34 1143.17,1082.5 1142.5,1102.5C 1142.83,1062.09 1142.49,1021.76 1141.5,981.5 Z"/></g>
<g><path style="opacity:1" fill="#888888" d="M 1018.5,984.5 C 1018.5,1016.17 1018.5,1047.83 1018.5,1079.5C 1002.32,1079.83 986.325,1079.5 970.5,1078.5C 986.167,1078.5 1001.83,1078.5 1017.5,1078.5C 1017.17,1047 1017.5,1015.66 1018.5,984.5 Z"/></g>
<g><path style="opacity:1" fill="#949494" d="M 1807.5,989.5 C 1805.82,993.884 1806.16,997.884 1808.5,1001.5C 1807.79,1002.4 1806.79,1002.74 1805.5,1002.5C 1804.9,997.706 1805.57,993.373 1807.5,989.5 Z"/></g>
<g><path style="opacity:1" fill="#585858" d="M 1090.5,1010.5 C 1091.17,1045.83 1091.83,1081.17 1092.5,1116.5C 1092.44,1117.04 1092.11,1117.38 1091.5,1117.5C 1090.5,1081.84 1090.17,1046.17 1090.5,1010.5 Z"/></g>
<g><path style="opacity:1" fill="#fcfcfc" d="M 1498.5,1010.5 C 1507.17,1010.5 1515.83,1010.5 1524.5,1010.5C 1524.5,1024.17 1524.5,1037.83 1524.5,1051.5C 1515.83,1051.5 1507.17,1051.5 1498.5,1051.5C 1498.5,1037.83 1498.5,1024.17 1498.5,1010.5 Z"/></g>
<g><path style="opacity:1" fill="#353535" d="M 1840.5,1106.5 C 1850.09,1114.42 1859.09,1123.09 1867.5,1132.5C 1858.86,1140.81 1850.19,1149.14 1841.5,1157.5C 1832.68,1149.18 1824.01,1140.68 1815.5,1132C 1824.04,1123.63 1832.37,1115.13 1840.5,1106.5 Z"/></g>
<g><path style="opacity:1" fill="#353535" d="M 2053.5,1106.5 C 2062.91,1114.41 2071.91,1122.91 2080.5,1132C 2071.99,1140.68 2063.32,1149.18 2054.5,1157.5C 2045.68,1149.18 2037.01,1140.68 2028.5,1132C 2037.04,1123.63 2045.37,1115.13 2053.5,1106.5 Z"/></g>
</svg>
