<?xml version="1.0" encoding="UTF-8"?>
<!DOCTYPE svg PUBLIC "-//W3C//DTD SVG 1.1//EN" "http://www.w3.org/Graphics/SVG/1.1/DTD/svg11.dtd">
<svg xmlns="http://www.w3.org/2000/svg" version="1.1" width="3000px" height="2000px" style="shape-rendering:geometricPrecision; text-rendering:geometricPrecision; image-rendering:optimizeQuality; fill-rule:evenodd; clip-rule:evenodd" xmlns:xlink="http://www.w3.org/1999/xlink">
<g><path style="opacity:1" fill="#fefefe" d="M -0.5,-0.5 C 788.5,-0.5 1577.5,-0.5 2366.5,-0.5C 2378.37,8.85803 2390.71,17.6914 2403.5,26C 2335.33,102.883 2323.83,187.717 2369,280.5C 2389.38,319.196 2414.04,354.863 2443,387.5C 2458.44,404.94 2474.6,421.773 2491.5,438C 2445.25,459.782 2401.25,485.115 2359.5,514C 2320.4,541.762 2288.23,575.928 2263,616.5C 2230.24,674.593 2225.58,734.926 2249,797.5C 2260.38,827.6 2275.38,855.6 2294,881.5C 2312.93,907.978 2333.76,932.978 2356.5,956.5C 2325.55,978.953 2298.71,1005.62 2276,1036.5C 2227.27,1107.56 2221.27,1182.23 2258,1260.5C 2273,1291.19 2291,1319.85 2312,1346.5C 2346.87,1389.21 2385.04,1428.88 2426.5,1465.5C 2387.74,1484.04 2349.74,1503.88 2312.5,1525C 2272.7,1548.23 2235.37,1574.9 2200.5,1605C 2169.15,1633.33 2142.65,1665.5 2121,1701.5C 2084.3,1767.02 2075.97,1836.02 2096,1908.5C 2105.91,1940.31 2119.07,1970.64 2135.5,1999.5C 1509.83,1999.5 884.167,1999.5 258.5,1999.5C 252.71,1977.96 246.21,1956.63 239,1935.5C 230.859,1913.05 217.692,1894.21 199.5,1879C 170.751,1858.39 141.418,1857.39 111.5,1876C 88.8214,1895.71 78.1548,1920.71 79.5,1951C 79.6667,1955.83 79.8333,1960.67 80,1965.5C 81.4181,1976.93 83.2514,1988.26 85.5,1999.5C 56.8333,1999.5 28.1667,1999.5 -0.5,1999.5C -0.5,1916.17 -0.5,1832.83 -0.5,1749.5C 28.1985,1751.23 52.0319,1741.56 71,1720.5C 89.6251,1692.72 90.2918,1664.39 73,1635.5C 54.6273,1608.72 30.1273,1589.72 -0.5,1578.5C -0.5,1495.83 -0.5,1413.17 -0.5,1330.5C 29.3673,1352.79 62.034,1357.62 97.5,1345C 120.741,1336.39 141.408,1323.72 159.5,1307C 191.607,1275.87 219.774,1241.71 244,1204.5C 256.205,1182.56 262.705,1159.06 263.5,1134C 260.604,1081.44 233.271,1050.44 181.5,1041C 154.03,1039.23 128.363,1045.23 104.5,1059C 86.4069,1069.65 70.2402,1082.82 56,1098.5C 36.9119,1120.39 18.0786,1142.39 -0.5,1164.5C -0.5,1065.5 -0.5,966.5 -0.5,867.5C 28.9694,837.198 54.4694,803.865 76,767.5C 91.3369,740.486 98.3369,711.486 97,680.5C 91.5463,640.388 69.713,613.888 31.5,601C 21.0403,598.1 10.3736,596.933 -0.5,597.5C -0.5,398.167 -0.5,198.833 -0.5,-0.5 Z"/></g>
<g><path style="opacity:1" fill="#184266" d="M 2366.5,-0.5 C 2427.17,-0.5 2487.83,-0.5 2548.5,-0.5C 2599.46,38.9891 2655.79,69.1558 2717.5,90C 2805.49,117.386 2886.49,104.053 2960.5,50C 2974.77,37.5683 2987.77,24.0683 2999.5,9.5C 2999.5,222.167 2999.5,434.833 2999.5,647.5C 2983.31,643.454 2967.31,638.787 2951.5,633.5C 2910.6,616.402 2872.27,594.902 2836.5,569C 2766.11,515.962 2701.28,456.462 2642,390.5C 2618.01,362.516 2596.35,332.849 2577,301.5C 2557.7,268.609 2545.37,233.276 2540,195.5C 2537.06,160.381 2542.56,126.715 2556.5,94.5C 2551.85,93.5089 2547.19,92.5089 2542.5,91.5C 2539.34,94.4669 2537.18,98.1336 2536,102.5C 2520.8,143.443 2518.47,185.11 2529,227.5C 2540.62,268.061 2558.62,305.394 2583,339.5C 2616.53,384.371 2654.36,425.538 2696.5,463C 2732.67,495.178 2770,525.845 2808.5,555C 2837.44,575.251 2867.44,593.917 2898.5,611C 2914.83,619.335 2931.5,626.835 2948.5,633.5C 2964.91,640.411 2981.91,645.745 2999.5,649.5C 2999.5,711.833 2999.5,774.167 2999.5,836.5C 2952.92,819.128 2904.92,813.628 2855.5,820C 2807.13,826.425 2760.46,839.092 2715.5,858C 2653.86,883.143 2595.86,914.477 2541.5,952C 2504.87,978.293 2474.04,1010.13 2449,1047.5C 2408.64,1113.17 2403.64,1181.5 2434,1252.5C 2449.94,1288.71 2470.27,1322.05 2495,1352.5C 2518.67,1381.17 2544.17,1408.34 2571.5,1434C 2612.37,1471.22 2654.71,1506.55 2698.5,1540C 2733.31,1565.6 2770.31,1587.77 2809.5,1606.5C 2869.15,1638.03 2932.48,1649.36 2999.5,1640.5C 2999.5,1760.17 2999.5,1879.83 2999.5,1999.5C 2795.83,1999.5 2592.17,1999.5 2388.5,1999.5C 2367.86,1964.53 2353.02,1927.2 2344,1887.5C 2331.05,1824.19 2340.72,1764.52 2373,1708.5C 2391.38,1676.3 2414.21,1647.47 2441.5,1622C 2469.98,1596.01 2500.31,1572.51 2532.5,1551.5C 2527.58,1547.46 2522.41,1543.79 2517,1540.5C 2458.53,1575.3 2409.2,1620.3 2369,1675.5C 2308.44,1766.93 2301.11,1862.59 2347,1962.5C 2353.19,1974.89 2359.36,1987.22 2365.5,1999.5C 2288.83,1999.5 2212.17,1999.5 2135.5,1999.5C 2119.07,1970.64 2105.91,1940.31 2096,1908.5C 2075.97,1836.02 2084.3,1767.02 2121,1701.5C 2142.65,1665.5 2169.15,1633.33 2200.5,1605C 2235.37,1574.9 2272.7,1548.23 2312.5,1525C 2349.74,1503.88 2387.74,1484.04 2426.5,1465.5C 2385.04,1428.88 2346.87,1389.21 2312,1346.5C 2291,1319.85 2273,1291.19 2258,1260.5C 2221.27,1182.23 2227.27,1107.56 2276,1036.5C 2298.71,1005.62 2325.55,978.953 2356.5,956.5C 2333.76,932.978 2312.93,907.978 2294,881.5C 2275.38,855.6 2260.38,827.6 2249,797.5C 2225.58,734.926 2230.24,674.593 2263,616.5C 2288.23,575.928 2320.4,541.762 2359.5,514C 2401.25,485.115 2445.25,459.782 2491.5,438C 2474.6,421.773 2458.44,404.94 2443,387.5C 2414.04,354.863 2389.38,319.196 2369,280.5C 2323.83,187.717 2335.33,102.883 2403.5,26C 2390.71,17.6914 2378.37,8.85803 2366.5,-0.5 Z"/></g>
<g><path style="opacity:1" fill="#f1ac50" d="M 2548.5,-0.5 C 2551.5,-0.5 2554.5,-0.5 2557.5,-0.5C 2610.93,43.5523 2671.26,75.0523 2738.5,94C 2819.98,112.378 2892.98,95.3776 2957.5,43C 2971.54,29.8025 2983.88,15.3025 2994.5,-0.5C 2996.17,-0.5 2997.83,-0.5 2999.5,-0.5C 2999.5,2.83333 2999.5,6.16667 2999.5,9.5C 2987.77,24.0683 2974.77,37.5683 2960.5,50C 2886.49,104.053 2805.49,117.386 2717.5,90C 2655.79,69.1558 2599.46,38.9891 2548.5,-0.5 Z"/></g>
<g><path style="opacity:1" fill="#184265" d="M 2557.5,-0.5 C 2703.17,-0.5 2848.83,-0.5 2994.5,-0.5C 2983.88,15.3025 2971.54,29.8025 2957.5,43C 2892.98,95.3776 2819.98,112.378 2738.5,94C 2671.26,75.0523 2610.93,43.5523 2557.5,-0.5 Z"/></g>
<g><path style="opacity:1" fill="#ffb34f" d="M 1991.5,0.5 C 2026.09,0.737722 2060.42,3.90439 2094.5,10C 2120.65,15.6543 2142.82,28.1543 2161,47.5C 2179.34,69.6658 2183.68,94.3324 2174,121.5C 2160.62,148.13 2139.12,163.963 2109.5,169C 2067.61,173.731 2026.27,170.731 1985.5,160C 1960.77,153.231 1940.27,140.064 1924,120.5C 1900.53,82.5049 1905.69,49.0049 1939.5,20C 1955.47,9.62458 1972.8,3.12458 1991.5,0.5 Z"/></g>
<g><path style="opacity:1" fill="#ffb34f" d="M 1675.5,33.5 C 1702.69,31.0616 1725.86,39.3949 1745,58.5C 1758.1,74.9064 1763.1,93.5731 1760,114.5C 1755.79,138.582 1745.46,159.582 1729,177.5C 1710.59,197.415 1690.76,215.582 1669.5,232C 1651.75,245.814 1631.75,254.814 1609.5,259C 1573.96,264.08 1547.46,251.247 1530,220.5C 1519.14,191.585 1521.8,163.919 1538,137.5C 1543.23,128.934 1549.23,120.934 1556,113.5C 1577.76,91.5637 1600.93,71.397 1625.5,53C 1641.07,43.3671 1657.74,36.8671 1675.5,33.5 Z"/></g>
<g><path style="opacity:1" fill="#f9b04f" d="M 2951.5,633.5 C 2950.5,633.5 2949.5,633.5 2948.5,633.5C 2931.5,626.835 2914.83,619.335 2898.5,611C 2867.44,593.917 2837.44,575.251 2808.5,555C 2770,525.845 2732.67,495.178 2696.5,463C 2654.36,425.538 2616.53,384.371 2583,339.5C 2558.62,305.394 2540.62,268.061 2529,227.5C 2518.47,185.11 2520.8,143.443 2536,102.5C 2537.18,98.1336 2539.34,94.4669 2542.5,91.5C 2547.19,92.5089 2551.85,93.5089 2556.5,94.5C 2542.56,126.715 2537.06,160.381 2540,195.5C 2545.37,233.276 2557.7,268.609 2577,301.5C 2596.35,332.849 2618.01,362.516 2642,390.5C 2701.28,456.462 2766.11,515.962 2836.5,569C 2872.27,594.902 2910.6,616.402 2951.5,633.5 Z"/></g>
<g><path style="opacity:1" fill="#ffb34f" d="M 303.5,236.5 C 330.881,234.791 354.048,243.791 373,263.5C 387.188,279.53 397.521,297.863 404,318.5C 413.164,345.332 420.164,372.665 425,400.5C 427.213,427.987 420.547,452.987 405,475.5C 375.931,506.56 343.431,510.727 307.5,488C 289.432,474.255 276.266,456.755 268,435.5C 257.183,408.232 248.85,380.232 243,351.5C 236.212,320.656 241.212,291.989 258,265.5C 269.574,250.133 284.741,240.467 303.5,236.5 Z"/></g>
<g><path style="opacity:1" fill="#fbb14f" d="M 2558.5,499.5 C 2562.37,502.602 2566.03,505.935 2569.5,509.5C 2539.77,530.054 2512.6,553.721 2488,580.5C 2461,611.836 2443,647.836 2434,688.5C 2427.88,733.767 2434.54,777.1 2454,818.5C 2464.32,839.817 2476.15,860.15 2489.5,879.5C 2485.2,882.231 2480.7,884.565 2476,886.5C 2444.8,844.407 2424.8,797.407 2416,745.5C 2411.38,696.226 2422.04,650.56 2448,608.5C 2464.85,581.697 2485.35,557.864 2509.5,537C 2525.45,523.87 2541.78,511.37 2558.5,499.5 Z"/></g>
<g><path style="opacity:1" fill="#ffb34f" d="M -0.5,597.5 C 10.3736,596.933 21.0403,598.1 31.5,601C 69.713,613.888 91.5463,640.388 97,680.5C 98.3369,711.486 91.3369,740.486 76,767.5C 54.4694,803.865 28.9694,837.198 -0.5,867.5C -0.5,777.5 -0.5,687.5 -0.5,597.5 Z"/></g>
<g><path style="opacity:1" fill="#d49d53" d="M 2948.5,633.5 C 2949.5,633.5 2950.5,633.5 2951.5,633.5C 2967.31,638.787 2983.31,643.454 2999.5,647.5C 2999.5,648.167 2999.5,648.833 2999.5,649.5C 2981.91,645.745 2964.91,640.411 2948.5,633.5 Z"/></g>
<g><path style="opacity:1" fill="#ffb34f" d="M 382.5,656.5 C 426.442,654.621 470.109,657.121 513.5,664C 543.012,670.234 568.179,684.068 589,705.5C 617.034,739.125 621.034,775.458 601,814.5C 581.041,843.752 553.541,861.919 518.5,869C 506.618,871.455 494.618,873.122 482.5,874C 456.823,874.64 431.156,874.306 405.5,873C 364.573,872.803 327.906,860.469 295.5,836C 257.615,801.243 249.781,760.743 272,714.5C 289.471,688.985 313.305,672.151 343.5,664C 356.475,660.619 369.475,658.119 382.5,656.5 Z"/></g>
<g><path style="opacity:1" fill="#363636" d="M 1410.5,799.5 C 1414.93,804.009 1418.09,809.342 1420,815.5C 1422.94,830.217 1419.1,842.717 1408.5,853C 1393.5,861.224 1383,857.391 1377,841.5C 1375.16,830.884 1377.32,821.217 1383.5,812.5C 1384.83,813.167 1385.83,814.167 1386.5,815.5C 1383.2,826.522 1387.2,832.855 1398.5,834.5C 1404.77,834.644 1409.77,832.311 1413.5,827.5C 1410.39,822.23 1406.73,817.397 1402.5,813C 1405.3,808.571 1407.96,804.071 1410.5,799.5 Z"/></g>
<g><path style="opacity:1" fill="#fab04f" d="M 2999.5,836.5 C 2999.5,838.5 2999.5,840.5 2999.5,842.5C 2952.69,826.036 2904.69,821.536 2855.5,829C 2812.48,836.341 2770.81,848.341 2730.5,865C 2669.81,890.334 2612.48,921.334 2558.5,958C 2408.96,1067.16 2391.13,1195 2505,1341.5C 2565.64,1415.48 2633.48,1481.98 2708.5,1541C 2741.04,1566.11 2775.71,1587.94 2812.5,1606.5C 2811.5,1606.5 2810.5,1606.5 2809.5,1606.5C 2770.31,1587.77 2733.31,1565.6 2698.5,1540C 2654.71,1506.55 2612.37,1471.22 2571.5,1434C 2544.17,1408.34 2518.67,1381.17 2495,1352.5C 2470.27,1322.05 2449.94,1288.71 2434,1252.5C 2403.64,1181.5 2408.64,1113.17 2449,1047.5C 2474.04,1010.13 2504.87,978.293 2541.5,952C 2595.86,914.477 2653.86,883.143 2715.5,858C 2760.46,839.092 2807.13,826.425 2855.5,820C 2904.92,813.628 2952.92,819.128 2999.5,836.5 Z"/></g>
<g><path style="opacity:1" fill="#184265" d="M 2999.5,842.5 C 2999.5,1055.83 2999.5,1269.17 2999.5,1482.5C 2992.07,1493.85 2984.73,1505.35 2977.5,1517C 2985.06,1524.4 2992.4,1531.9 2999.5,1539.5C 2999.5,1572.17 2999.5,1604.83 2999.5,1637.5C 2964.01,1643.49 2928.67,1642.65 2893.5,1635C 2865.46,1628.38 2838.46,1618.88 2812.5,1606.5C 2775.71,1587.94 2741.04,1566.11 2708.5,1541C 2633.48,1481.98 2565.64,1415.48 2505,1341.5C 2391.13,1195 2408.96,1067.16 2558.5,958C 2612.48,921.334 2669.81,890.334 2730.5,865C 2770.81,848.341 2812.48,836.341 2855.5,829C 2904.69,821.536 2952.69,826.036 2999.5,842.5 Z"/></g>
<g><path style="opacity:1" fill="#363636" d="M 1933.5,883.5 C 1947.97,883.135 1954.13,890.135 1952,904.5C 1951.2,909.394 1949.7,914.061 1947.5,918.5C 1951.83,919.368 1956.16,919.535 1960.5,919C 1957.61,925.663 1955.11,932.497 1953,939.5C 1946.83,940.889 1940.83,940.222 1935,937.5C 1917.24,952.934 1900.4,951.767 1884.5,934C 1896.41,930.522 1908.41,927.355 1920.5,924.5C 1915.93,912.659 1917.1,901.326 1924,890.5C 1926.79,887.535 1929.96,885.202 1933.5,883.5 Z"/></g>
<g><path style="opacity:1" fill="#353535" d="M 1428.5,888.5 C 1429.68,888.281 1430.68,888.614 1431.5,889.5C 1426.99,904.547 1422.32,919.547 1417.5,934.5C 1404.2,936.855 1390.87,939.355 1377.5,942C 1373.39,943.027 1369.39,944.36 1365.5,946C 1374.25,959.3 1386.42,967.8 1402,971.5C 1414.79,969.207 1427.62,968.207 1440.5,968.5C 1434.3,984.422 1428.3,1000.42 1422.5,1016.5C 1375.91,1022.16 1329.24,1027.32 1282.5,1032C 1276.68,1050.48 1267.84,1067.31 1256,1082.5C 1236.04,1104.71 1211.87,1110.88 1183.5,1101C 1169.8,1097.11 1157.3,1090.94 1146,1082.5C 1145.41,1081.52 1145.74,1080.85 1147,1080.5C 1188.49,1068.34 1228.66,1052.84 1267.5,1034C 1274.46,1020.58 1281.29,1007.08 1288,993.5C 1292.62,986.438 1299.12,982.272 1307.5,981C 1317.09,980.126 1326.59,978.959 1336,977.5C 1336.28,971.784 1336.95,966.117 1338,960.5C 1345.76,940.46 1356.93,922.627 1371.5,907C 1389.46,897.291 1408.46,891.124 1428.5,888.5 Z"/></g>
<g><path style="opacity:1" fill="#353535" d="M 1634.5,894.5 C 1636.83,895.655 1637.99,897.655 1638,900.5C 1644.7,934.517 1647.37,968.851 1646,1003.5C 1641.53,1024.9 1633.53,1044.9 1622,1063.5C 1613.05,1075.12 1602.21,1084.62 1589.5,1092C 1573.39,1101.7 1556.06,1108.04 1537.5,1111C 1525.36,1111.92 1513.69,1109.92 1502.5,1105C 1485.72,1097.78 1470.06,1088.78 1455.5,1078C 1450.17,1074 1445.5,1069.33 1441.5,1064C 1473.83,1062.23 1505.83,1058.06 1537.5,1051.5C 1538.65,1048.89 1538.82,1046.23 1538,1043.5C 1532.05,1014.87 1523.55,987.035 1512.5,960C 1520.86,941.11 1532.52,924.61 1547.5,910.5C 1552.7,924.342 1556.2,938.676 1558,953.5C 1561.49,975.373 1562.83,997.373 1562,1019.5C 1557.93,1029.21 1553.76,1038.87 1549.5,1048.5C 1550.17,1048.83 1550.83,1049.17 1551.5,1049.5C 1574.36,1044.45 1597.03,1038.78 1619.5,1032.5C 1615.78,1001.3 1608.45,970.968 1597.5,941.5C 1607.25,923.755 1619.58,908.089 1634.5,894.5 Z"/></g>
<g><path style="opacity:1" fill="#353535" d="M 2088.5,899.5 C 2089.93,899.881 2090.76,900.881 2091,902.5C 2091.75,951.425 2088.58,1000.09 2081.5,1048.5C 2099.29,1046.84 2116.96,1044.34 2134.5,1041C 2138.49,1030.85 2141.16,1020.35 2142.5,1009.5C 2146.17,1009.5 2149.83,1009.5 2153.5,1009.5C 2150.61,1036.61 2143.61,1062.61 2132.5,1087.5C 2127.65,1089.44 2122.65,1090.94 2117.5,1092C 2097.57,1095.16 2077.57,1097.66 2057.5,1099.5C 2055.75,1044.42 2052.92,989.422 2049,934.5C 2060.82,921.168 2073.99,909.501 2088.5,899.5 Z"/></g>
<g><path style="opacity:1" fill="#343434" d="M 1133.5,901.5 C 1134.5,901.414 1135.33,901.748 1136,902.5C 1137.06,912.296 1137.56,922.129 1137.5,932C 1137.13,971.378 1134.29,1010.54 1129,1049.5C 1122.12,1065.97 1114.96,1082.3 1107.5,1098.5C 1105.19,1097.79 1103.02,1096.79 1101,1095.5C 1100.65,1067.49 1099.98,1039.49 1099,1011.5C 1097.04,986.517 1095.7,961.517 1095,936.5C 1106.16,922.837 1118.99,911.17 1133.5,901.5 Z"/></g>
<g><path style="opacity:1" fill="#353535" d="M 1713.5,900.5 C 1715.05,901.23 1715.88,902.563 1716,904.5C 1717.2,952.675 1714.87,1000.67 1709,1048.5C 1701.76,1065.32 1694.26,1081.98 1686.5,1098.5C 1684.36,1097.4 1682.19,1096.4 1680,1095.5C 1679.67,1072.5 1679.33,1049.5 1679,1026.5C 1677.41,996.47 1675.74,966.47 1674,936.5C 1685.51,922.476 1698.68,910.476 1713.5,900.5 Z"/></g>
<g><path style="opacity:1" fill="#f1f1f1" d="M 1927.5,905.5 C 1937.44,904.637 1942.11,909.304 1941.5,919.5C 1933.9,919.037 1928.23,915.537 1924.5,909C 1925.07,907.401 1926.07,906.234 1927.5,905.5 Z"/></g>
<g><path style="opacity:1" fill="#373737" d="M 1274.5,940.5 C 1275.79,944.267 1276.46,948.267 1276.5,952.5C 1254.86,959.738 1233.36,967.404 1212,975.5C 1211.01,973.222 1210.18,970.889 1209.5,968.5C 1210.09,967.201 1211.09,966.368 1212.5,966C 1233.37,957.723 1254.04,949.223 1274.5,940.5 Z"/></g>
<g><path style="opacity:1" fill="#373737" d="M 2169.5,941.5 C 2170.79,943.048 2171.46,945.048 2171.5,947.5C 2171.17,949.5 2170.83,951.5 2170.5,953.5C 2149.42,960.97 2128.42,968.637 2107.5,976.5C 2106.03,973.677 2105.69,970.844 2106.5,968C 2127.8,959.629 2148.8,950.796 2169.5,941.5 Z"/></g>
<g><path style="opacity:1" fill="#353535" d="M 1043.5,958.5 C 1050.86,963.363 1056.69,969.697 1061,977.5C 1066.59,985.848 1069.76,995.015 1070.5,1005C 1067.78,1027 1060.78,1047.5 1049.5,1066.5C 1038.62,1075.2 1026.62,1082.03 1013.5,1087C 974.621,1101.42 934.621,1106.09 893.5,1101C 874.123,1098.23 858.29,1089.4 846,1074.5C 838.061,1062.6 837.061,1050.26 843,1037.5C 855.361,1010.31 872.528,986.645 894.5,966.5C 897.843,975.895 899.677,985.562 900,995.5C 889.075,1003.75 878.742,1012.75 869,1022.5C 872.237,1030.42 877.737,1036.59 885.5,1041C 896.728,1047.14 908.728,1050.81 921.5,1052C 958.929,1054.71 995.596,1050.71 1031.5,1040C 1035.76,1038.87 1039.76,1037.2 1043.5,1035C 1033.77,1020.76 1022.1,1008.26 1008.5,997.5C 1019.82,984.182 1031.49,971.182 1043.5,958.5 Z"/></g>
<g><path style="opacity:1" fill="#353535" d="M 1997.5,958.5 C 2021.96,976.721 2029.46,1000.39 2020,1029.5C 2016.41,1042.61 2011.08,1054.94 2004,1066.5C 1993.15,1075.51 1980.98,1082.35 1967.5,1087C 1928.63,1101.42 1888.63,1106.09 1847.5,1101C 1826.55,1097.79 1810.05,1087.62 1798,1070.5C 1794.6,1062.83 1793.27,1054.83 1794,1046.5C 1806.37,1015.76 1824.71,989.096 1849,966.5C 1851.86,975.714 1853.86,985.047 1855,994.5C 1846.83,1001.33 1838.67,1008.17 1830.5,1015C 1827.57,1017.42 1825.23,1020.26 1823.5,1023.5C 1829.41,1033.99 1838.08,1041.49 1849.5,1046C 1859.2,1049.51 1869.2,1051.51 1879.5,1052C 1909.49,1053.74 1939.16,1051.41 1968.5,1045C 1978.02,1042.61 1987.35,1039.61 1996.5,1036C 1997.53,1034.49 1997.37,1032.99 1996,1031.5C 1985.87,1019.03 1974.7,1007.53 1962.5,997C 1974.76,984.575 1986.43,971.742 1997.5,958.5 Z"/></g>
<g><path style="opacity:1" fill="#ffb34f" d="M -0.5,1330.5 C -0.5,1275.17 -0.5,1219.83 -0.5,1164.5C 18.0786,1142.39 36.9119,1120.39 56,1098.5C 70.2402,1082.82 86.4069,1069.65 104.5,1059C 128.363,1045.23 154.03,1039.23 181.5,1041C 233.271,1050.44 260.604,1081.44 263.5,1134C 262.705,1159.06 256.205,1182.56 244,1204.5C 219.774,1241.71 191.607,1275.87 159.5,1307C 141.408,1323.72 120.741,1336.39 97.5,1345C 62.034,1357.62 29.3673,1352.79 -0.5,1330.5 Z"/></g>
<g><path style="opacity:1" fill="#ffb34f" d="M 544.5,1088.5 C 574.754,1087.06 602.087,1095.23 626.5,1113C 662.035,1141.52 692.202,1174.69 717,1212.5C 732.043,1236.39 738.709,1262.39 737,1290.5C 731.998,1330.5 709.832,1355 670.5,1364C 643.957,1367.24 619.291,1361.91 596.5,1348C 580.872,1338.05 566.705,1326.22 554,1312.5C 540.901,1297.31 527.568,1282.31 514,1267.5C 493.275,1244.03 480.609,1216.7 476,1185.5C 472.193,1149.29 485.027,1120.79 514.5,1100C 524.07,1094.7 534.07,1090.87 544.5,1088.5 Z"/></g>
<g><path style="opacity:1" fill="#353535" d="M 2117.5,1113.5 C 2119.02,1113.51 2120.18,1114.18 2121,1115.5C 2126.42,1125.35 2132.59,1134.68 2139.5,1143.5C 2130.57,1149.88 2121.41,1155.88 2112,1161.5C 2102.07,1154.01 2094.24,1144.68 2088.5,1133.5C 2098.41,1127.06 2108.07,1120.39 2117.5,1113.5 Z"/></g>
<g><path style="opacity:1" fill="#363636" d="M 1570.5,1118.5 C 1576.18,1118.33 1581.84,1118.5 1587.5,1119C 1592.51,1119.58 1597.18,1121.08 1601.5,1123.5C 1597.37,1130.92 1593.37,1138.42 1589.5,1146C 1580.55,1142.78 1571.21,1141.45 1561.5,1142C 1555.77,1143.92 1555.1,1146.92 1559.5,1151C 1568.36,1155.27 1577.69,1156.61 1587.5,1155C 1592.8,1154.34 1597.97,1153.17 1603,1151.5C 1604.97,1151.47 1606.47,1152.3 1607.5,1154C 1601.5,1160.67 1595.5,1167.33 1589.5,1174C 1573.58,1178.65 1557.58,1182.65 1541.5,1186C 1539.74,1185.28 1538.91,1184.11 1539,1182.5C 1544.78,1177.37 1550.61,1172.37 1556.5,1167.5C 1543.51,1154.4 1543.18,1140.9 1555.5,1127C 1560.04,1123.12 1565.04,1120.29 1570.5,1118.5 Z"/></g>
<g><path style="opacity:1" fill="#363636" d="M 954.5,1122.5 C 956.592,1122.56 958.092,1123.56 959,1125.5C 964.335,1134.84 970.168,1143.84 976.5,1152.5C 967.61,1158.87 958.443,1164.87 949,1170.5C 939.488,1162.97 931.988,1153.81 926.5,1143C 926.645,1142.23 926.978,1141.56 927.5,1141C 936.913,1135.3 945.913,1129.14 954.5,1122.5 Z"/></g>
<g><path style="opacity:1" fill="#353535" d="M 1909.5,1122.5 C 1910.5,1122.41 1911.33,1122.75 1912,1123.5C 1917.67,1133.51 1923.83,1143.17 1930.5,1152.5C 1922.09,1159.07 1913.26,1165.07 1904,1170.5C 1900.1,1168.61 1896.77,1165.94 1894,1162.5C 1888.88,1156.42 1884.38,1149.92 1880.5,1143C 1890.05,1135.94 1899.72,1129.11 1909.5,1122.5 Z"/></g>
<g><path style="opacity:1" fill="#383838" d="M 984.5,1175.5 C 986.322,1179.29 986.656,1183.29 985.5,1187.5C 963.874,1195.37 942.207,1203.04 920.5,1210.5C 919.477,1207.61 919.477,1204.77 920.5,1202C 942.055,1193.43 963.388,1184.6 984.5,1175.5 Z"/></g>
<g><path style="opacity:1" fill="#373737" d="M 1596.5,1179.5 C 1597.82,1183.57 1597.82,1187.73 1596.5,1192C 1575.17,1199.61 1553.84,1207.11 1532.5,1214.5C 1531.48,1211.61 1531.48,1208.77 1532.5,1206C 1554.05,1197.43 1575.39,1188.6 1596.5,1179.5 Z"/></g>
<g><path style="opacity:1" fill="#ffb34f" d="M 404.5,1461.5 C 444.946,1461.44 471.113,1480.77 483,1519.5C 487.823,1541.29 488.823,1563.29 486,1585.5C 483.065,1608.11 478.732,1630.45 473,1652.5C 466.219,1676.92 453.386,1697.42 434.5,1714C 411.662,1730.58 386.996,1733.92 360.5,1724C 334.345,1709.57 319.179,1687.41 315,1657.5C 313.46,1642.87 313.127,1628.2 314,1613.5C 317.352,1590.05 321.352,1566.72 326,1543.5C 332.871,1515.33 347.704,1492.5 370.5,1475C 380.965,1467.92 392.299,1463.42 404.5,1461.5 Z"/></g>
<g><path style="opacity:1" fill="#fcfdfd" d="M 2999.5,1482.5 C 2999.5,1501.5 2999.5,1520.5 2999.5,1539.5C 2992.4,1531.9 2985.06,1524.4 2977.5,1517C 2984.73,1505.35 2992.07,1493.85 2999.5,1482.5 Z"/></g>
<g><path style="opacity:1" fill="#fcb14f" d="M 2388.5,1999.5 C 2380.83,1999.5 2373.17,1999.5 2365.5,1999.5C 2359.36,1987.22 2353.19,1974.89 2347,1962.5C 2301.11,1862.59 2308.44,1766.93 2369,1675.5C 2409.2,1620.3 2458.53,1575.3 2517,1540.5C 2522.41,1543.79 2527.58,1547.46 2532.5,1551.5C 2500.31,1572.51 2469.98,1596.01 2441.5,1622C 2414.21,1647.47 2391.38,1676.3 2373,1708.5C 2340.72,1764.52 2331.05,1824.19 2344,1887.5C 2353.02,1927.2 2367.86,1964.53 2388.5,1999.5 Z"/></g>
<g><path style="opacity:1" fill="#ffb34f" d="M -0.5,1578.5 C 30.1273,1589.72 54.6273,1608.72 73,1635.5C 90.2918,1664.39 89.6251,1692.72 71,1720.5C 52.0319,1741.56 28.1985,1751.23 -0.5,1749.5C -0.5,1692.5 -0.5,1635.5 -0.5,1578.5 Z"/></g>
<g><path style="opacity:1" fill="#e7a751" d="M 2809.5,1606.5 C 2810.5,1606.5 2811.5,1606.5 2812.5,1606.5C 2838.46,1618.88 2865.46,1628.38 2893.5,1635C 2928.67,1642.65 2964.01,1643.49 2999.5,1637.5C 2999.5,1638.5 2999.5,1639.5 2999.5,1640.5C 2932.48,1649.36 2869.15,1638.03 2809.5,1606.5 Z"/></g>
<g><path style="opacity:1" fill="#ffb34f" d="M 258.5,1999.5 C 200.833,1999.5 143.167,1999.5 85.5,1999.5C 83.2514,1988.26 81.4181,1976.93 80,1965.5C 79.8333,1960.67 79.6667,1955.83 79.5,1951C 78.1548,1920.71 88.8214,1895.71 111.5,1876C 141.418,1857.39 170.751,1858.39 199.5,1879C 217.692,1894.21 230.859,1913.05 239,1935.5C 246.21,1956.63 252.71,1977.96 258.5,1999.5 Z"/></g>
</svg>
