<?xml version="1.0" encoding="UTF-8"?>
<!DOCTYPE svg PUBLIC "-//W3C//DTD SVG 1.1//EN" "http://www.w3.org/Graphics/SVG/1.1/DTD/svg11.dtd">
<svg xmlns="http://www.w3.org/2000/svg" version="1.1" width="3000px" height="2000px" style="shape-rendering:geometricPrecision; text-rendering:geometricPrecision; image-rendering:optimizeQuality; fill-rule:evenodd; clip-rule:evenodd" xmlns:xlink="http://www.w3.org/1999/xlink">
<g><path style="opacity:1" fill="#184266" d="M -0.5,-0.5 C 72.5,-0.5 145.5,-0.5 218.5,-0.5C 216.758,77.5809 228.258,153.581 253,227.5C 272.544,281.618 300.544,330.618 337,374.5C 378.542,421.378 422.209,466.378 468,509.5C 493.822,535.98 518.155,563.647 541,592.5C 593.251,662.506 626.918,740.839 642,827.5C 677.414,1036.3 644.747,1233.63 544,1419.5C 507.089,1483.67 468.423,1546.67 428,1608.5C 405.25,1645 385.917,1683.33 370,1723.5C 343.224,1798.83 344.224,1873.83 373,1948.5C 379.769,1966.04 387.603,1983.04 396.5,1999.5C 264.167,1999.5 131.833,1999.5 -0.5,1999.5C -0.5,1332.83 -0.5,666.167 -0.5,-0.5 Z"/></g>
<g><path style="opacity:1" fill="#fefefe" d="M 218.5,-0.5 C 1138.17,-0.5 2057.83,-0.5 2977.5,-0.5C 2861.19,21.1648 2753.86,64.6648 2655.5,130C 2562.05,197.105 2488.22,281.272 2434,382.5C 2383.24,476.202 2354.24,576.202 2347,682.5C 2341.68,768.952 2356.68,851.619 2392,930.5C 2423.33,995.171 2467.83,1049 2525.5,1092C 2587.68,1138.28 2655.01,1176.11 2727.5,1205.5C 2717.92,1217.92 2707.75,1229.92 2697,1241.5C 2647.71,1291.46 2597.21,1339.96 2545.5,1387C 2509.03,1422.12 2475.53,1459.62 2445,1499.5C 2365.33,1607.23 2338.83,1727.06 2365.5,1859C 2375.54,1908.29 2392.2,1955.12 2415.5,1999.5C 1742.5,1999.5 1069.5,1999.5 396.5,1999.5C 387.603,1983.04 379.769,1966.04 373,1948.5C 344.224,1873.83 343.224,1798.83 370,1723.5C 385.917,1683.33 405.25,1645 428,1608.5C 468.423,1546.67 507.089,1483.67 544,1419.5C 644.747,1233.63 677.414,1036.3 642,827.5C 626.918,740.839 593.251,662.506 541,592.5C 518.155,563.647 493.822,535.98 468,509.5C 422.209,466.378 378.542,421.378 337,374.5C 300.544,330.618 272.544,281.618 253,227.5C 228.258,153.581 216.758,77.5809 218.5,-0.5 Z"/></g>
<g><path style="opacity:1" fill="#184266" d="M 2977.5,-0.5 C 2984.83,-0.5 2992.17,-0.5 2999.5,-0.5C 2999.5,460.167 2999.5,920.833 2999.5,1381.5C 2959.07,1332.89 2911.07,1293.72 2855.5,1264C 2813.52,1242.85 2770.85,1223.35 2727.5,1205.5C 2655.01,1176.11 2587.68,1138.28 2525.5,1092C 2467.83,1049 2423.33,995.171 2392,930.5C 2356.68,851.619 2341.68,768.952 2347,682.5C 2354.24,576.202 2383.24,476.202 2434,382.5C 2488.22,281.272 2562.05,197.105 2655.5,130C 2753.86,64.6648 2861.19,21.1648 2977.5,-0.5 Z"/></g>
<g><path style="opacity:1" fill="#353535" d="M 977.5,657.5 C 977.831,684.339 977.498,711.005 976.5,737.5C 971.631,731.643 965.297,728.643 957.5,728.5C 959.341,714.857 955.508,703.191 946,693.5C 945.503,691.19 945.337,688.857 945.5,686.5C 951.85,684.673 957.016,681.006 961,675.5C 964.003,668.831 968.169,662.998 973.5,658C 974.793,657.51 976.127,657.343 977.5,657.5 Z"/></g>
<g><path style="opacity:1" fill="#686868" d="M 977.5,657.5 C 978.664,684.664 978.83,711.997 978,739.5C 977.283,738.956 976.783,738.289 976.5,737.5C 977.498,711.005 977.831,684.339 977.5,657.5 Z"/></g>
<g><path style="opacity:1" fill="#353535" d="M 1521.5,657.5 C 1521.83,685.672 1521.5,713.672 1520.5,741.5C 1515.62,734.722 1508.95,731.055 1500.5,730.5C 1500.67,723.825 1500.5,717.158 1500,710.5C 1498.52,703.522 1495.02,697.855 1489.5,693.5C 1488.53,691.257 1488.19,688.924 1488.5,686.5C 1494.2,684.983 1499.03,681.983 1503,677.5C 1506.64,670.39 1511.14,663.89 1516.5,658C 1518.13,657.506 1519.8,657.34 1521.5,657.5 Z"/></g>
<g><path style="opacity:1" fill="#cfcfcf" d="M 1521.5,657.5 C 1522.66,685.997 1522.83,714.664 1522,743.5C 1521.28,742.956 1520.78,742.289 1520.5,741.5C 1521.5,713.672 1521.83,685.672 1521.5,657.5 Z"/></g>
<g><path style="opacity:1" fill="#353535" d="M 1554.5,657.5 C 1559.03,657.496 1562.53,659.496 1565,663.5C 1568.71,675.045 1576.21,682.712 1587.5,686.5C 1587.81,688.924 1587.47,691.257 1586.5,693.5C 1576.86,702.745 1573.2,714.078 1575.5,727.5C 1566.75,727.626 1559.91,731.293 1555,738.5C 1554.5,711.502 1554.33,684.502 1554.5,657.5 Z"/></g>
<g><path style="opacity:1" fill="#d2d2d2" d="M 2051.5,657.5 C 2051.17,684.672 2051.5,711.672 2052.5,738.5C 2052.44,739.043 2052.11,739.376 2051.5,739.5C 2050.17,712.003 2050.17,684.67 2051.5,657.5 Z"/></g>
<g><path style="opacity:1" fill="#353535" d="M 2051.5,657.5 C 2055.66,657.143 2058.83,658.81 2061,662.5C 2064.05,669.444 2068.22,675.611 2073.5,681C 2076.64,683.904 2080.31,685.738 2084.5,686.5C 2084.81,688.924 2084.47,691.257 2083.5,693.5C 2078.97,697.206 2075.8,701.873 2074,707.5C 2072.67,714.092 2072.17,720.759 2072.5,727.5C 2063.75,727.539 2057.08,731.206 2052.5,738.5C 2051.5,711.672 2051.17,684.672 2051.5,657.5 Z"/></g>
<g><path style="opacity:1" fill="#393939" d="M 1299.5,660.5 C 1309.77,659.217 1316.27,663.551 1319,673.5C 1324.22,696.308 1315.38,706.142 1292.5,703C 1286.48,700.288 1283.81,695.621 1284.5,689C 1284.68,676.79 1289.68,667.29 1299.5,660.5 Z"/></g>
<g><path style="opacity:1" fill="#fbfbfb" d="M 1296.5,671.5 C 1306.15,670.488 1312.15,674.655 1314.5,684C 1314.3,686.406 1313.3,688.406 1311.5,690C 1306.25,691.506 1300.92,691.839 1295.5,691C 1290.57,688.647 1288.74,684.814 1290,679.5C 1291.3,676.039 1293.47,673.372 1296.5,671.5 Z"/></g>
<g><path style="opacity:1" fill="#393939" d="M 1176.5,723.5 C 1188.9,723.232 1193.4,729.232 1190,741.5C 1187.97,744.561 1186.8,747.895 1186.5,751.5C 1189.25,751.187 1191.91,751.52 1194.5,752.5C 1192.71,755.251 1191.04,758.084 1189.5,761C 1185.52,760.54 1181.52,760.207 1177.5,760C 1170.98,769.692 1161.98,775.526 1150.5,777.5C 1145.96,776.565 1141.96,774.565 1138.5,771.5C 1150.98,768.757 1162.32,763.59 1172.5,756C 1164.24,750.049 1162.4,742.549 1167,733.5C 1169.7,729.639 1172.86,726.306 1176.5,723.5 Z"/></g>
<g><path style="opacity:1" fill="#373737" d="M 1301.5,725.5 C 1314.83,724.995 1321.33,731.328 1321,744.5C 1317.12,755.358 1309.62,759.191 1298.5,756C 1289.22,749.497 1287.39,741.33 1293,731.5C 1295.64,729.109 1298.47,727.109 1301.5,725.5 Z"/></g>
<g><path style="opacity:1" fill="#363636" d="M 947.5,733.5 C 964.364,732.189 974.531,739.856 978,756.5C 978.667,822.5 978.667,888.5 978,954.5C 974.5,975.333 962.333,987.5 941.5,991C 898.168,991.5 854.835,991.667 811.5,991.5C 811.298,989.011 811.798,986.677 813,984.5C 818.077,980.376 823.577,976.876 829.5,974C 834.539,970.138 838.206,965.304 840.5,959.5C 842.765,958.353 845.098,958.186 847.5,959C 852.777,965.1 859.444,968.767 867.5,970C 892.167,970.667 916.833,970.667 941.5,970C 949.333,967.5 954.5,962.333 957,954.5C 957.667,888.833 957.667,823.167 957,757.5C 953.193,747.218 947.026,745.718 938.5,753C 932.211,762.267 930.378,761.434 933,750.5C 935.914,743.094 940.747,737.428 947.5,733.5 Z"/></g>
<g><path style="opacity:1" fill="#f0f0f0" d="M 1172.5,732.5 C 1176.56,732.724 1179.39,734.724 1181,738.5C 1181.87,741.379 1181.54,744.045 1180,746.5C 1177.67,744.833 1175.33,743.167 1173,741.5C 1171.28,738.546 1171.11,735.546 1172.5,732.5 Z"/></g>
<g><path style="opacity:1" fill="#343434" d="M 1575.5,760.5 C 1574.17,809.335 1574.17,858.335 1575.5,907.5C 1576.11,907.376 1576.44,907.043 1576.5,906.5C 1581.01,904.16 1584.34,900.66 1586.5,896C 1588.81,895.503 1591.14,895.337 1593.5,895.5C 1594.66,901.957 1597.99,907.124 1603.5,911C 1610.21,914.384 1616.38,918.55 1622,923.5C 1622.49,925.134 1622.66,926.801 1622.5,928.5C 1599.83,928.5 1577.17,928.5 1554.5,928.5C 1554.02,869.462 1554.52,810.462 1556,751.5C 1562.88,733.763 1574.72,729.263 1591.5,738C 1596.4,743.464 1599.73,749.797 1601.5,757C 1601.39,758.28 1600.72,759.113 1599.5,759.5C 1595.85,753.676 1590.68,750.009 1584,748.5C 1578.35,750.345 1575.51,754.345 1575.5,760.5 Z"/></g>
<g><path style="opacity:1" fill="#363636" d="M 2072.5,907.5 C 2082.65,908.494 2092.99,908.828 2103.5,908.5C 2103.5,915.167 2103.5,921.833 2103.5,928.5C 2086.17,928.5 2068.83,928.5 2051.5,928.5C 2051.33,870.499 2051.5,812.499 2052,754.5C 2055.8,738.858 2065.63,732.025 2081.5,734C 2090.53,739.027 2096.2,746.694 2098.5,757C 2098.39,758.28 2097.72,759.113 2096.5,759.5C 2094.29,756.946 2091.96,754.446 2089.5,752C 2081.83,746.194 2076.33,747.694 2073,756.5C 2072.5,806.832 2072.33,857.166 2072.5,907.5 Z"/></g>
<g><path style="opacity:1" fill="#373737" d="M 1474.5,928.5 C 1474.5,921.833 1474.5,915.167 1474.5,908.5C 1483.35,908.826 1492.02,908.493 1500.5,907.5C 1500.67,858.499 1500.5,809.499 1500,760.5C 1499.24,755.567 1496.4,752.901 1491.5,752.5C 1488.57,752.466 1485.9,753.299 1483.5,755C 1481.04,757.446 1478.71,759.946 1476.5,762.5C 1475.22,756.172 1476.72,750.505 1481,745.5C 1490.36,734.843 1500.86,733.677 1512.5,742C 1517.04,746.585 1519.88,752.085 1521,758.5C 1521.5,815.166 1521.67,871.832 1521.5,928.5C 1505.83,928.5 1490.17,928.5 1474.5,928.5 Z"/></g>
<g><path style="opacity:1" fill="#393939" d="M 1886.5,748.5 C 1892.2,747.436 1896.37,749.436 1899,754.5C 1900.35,761.629 1899.19,768.295 1895.5,774.5C 1897.57,776.83 1900.24,777.997 1903.5,778C 1902.04,780.421 1900.71,782.921 1899.5,785.5C 1898.5,785.833 1897.5,786.167 1896.5,786.5C 1893.49,785.652 1890.49,785.152 1887.5,785C 1881.96,791.881 1875.3,797.215 1867.5,801C 1864.47,801.361 1861.47,801.861 1858.5,802.5C 1855.05,801.277 1851.72,799.777 1848.5,798C 1847.17,797.333 1847.17,796.667 1848.5,796C 1860.15,793.451 1870.98,788.951 1881,782.5C 1881.67,781.833 1881.67,781.167 1881,780.5C 1871.69,772.602 1871.02,763.935 1879,754.5C 1881.48,752.361 1883.98,750.361 1886.5,748.5 Z"/></g>
<g><path style="opacity:1" fill="#393939" d="M 2176.5,753.5 C 2177.55,753.351 2178.55,753.517 2179.5,754C 2177.81,758.375 2175.15,762.042 2171.5,765C 2158.07,771.561 2144.4,777.227 2130.5,782C 2132.72,776.443 2136.39,772.11 2141.5,769C 2153.39,764.101 2165.06,758.934 2176.5,753.5 Z"/></g>
<g><path style="opacity:1" fill="#f5f5f5" d="M 1880.5,758.5 C 1885.13,757.458 1888.3,759.125 1890,763.5C 1890.75,766.303 1890.42,768.97 1889,771.5C 1886.67,769.833 1884.33,768.167 1882,766.5C 1880.75,763.986 1880.25,761.32 1880.5,758.5 Z"/></g>
<g><path style="opacity:1" fill="#383838" d="M 1049.5,758.5 C 1060.89,759.056 1067.39,765.056 1069,776.5C 1070.99,796.173 1062.16,804.673 1042.5,802C 1039.44,800.939 1036.94,799.106 1035,796.5C 1030.91,780.265 1035.74,767.599 1049.5,758.5 Z"/></g>
<g><path style="opacity:1" fill="#7d7d7d" d="M 1575.5,760.5 C 1575.17,809.336 1575.5,858.003 1576.5,906.5C 1576.44,907.043 1576.11,907.376 1575.5,907.5C 1574.17,858.335 1574.17,809.335 1575.5,760.5 Z"/></g>
<g><path style="opacity:1" fill="#f9f9f9" d="M 1045.5,769.5 C 1055.06,769.226 1061.06,773.726 1063.5,783C 1063.39,784.895 1062.72,786.562 1061.5,788C 1053.98,791.72 1046.81,791.22 1040,786.5C 1038.54,783.634 1038.21,780.634 1039,777.5C 1040.65,774.354 1042.82,771.688 1045.5,769.5 Z"/></g>
<g><path style="opacity:1" fill="#393939" d="M 1440.5,773.5 C 1441.24,773.369 1441.91,773.536 1442.5,774C 1440.23,778.537 1437.23,782.537 1433.5,786C 1419.93,792.038 1406.43,798.205 1393,804.5C 1394.07,798.068 1397.57,793.235 1403.5,790C 1416.14,784.962 1428.48,779.462 1440.5,773.5 Z"/></g>
<g><path style="opacity:1" fill="#353535" d="M 1462.5,907.5 C 1465.96,908.482 1469.63,908.815 1473.5,908.5C 1473.5,915.167 1473.5,921.833 1473.5,928.5C 1431.17,928.5 1388.83,928.5 1346.5,928.5C 1346.39,961.778 1330.05,974.944 1297.5,968C 1287.68,963.513 1281.51,956.013 1279,945.5C 1277.87,939.888 1277.37,934.221 1277.5,928.5C 1266.17,928.5 1254.83,928.5 1243.5,928.5C 1243.5,921.833 1243.5,915.167 1243.5,908.5C 1261.5,908.5 1279.5,908.5 1297.5,908.5C 1297.33,917.173 1297.5,925.84 1298,934.5C 1302.21,950.681 1310.54,953.348 1323,942.5C 1324.55,939.688 1325.38,936.688 1325.5,933.5C 1326.5,918.009 1326.83,902.342 1326.5,886.5C 1305.5,886.5 1284.5,886.5 1263.5,886.5C 1262.4,870.871 1263.9,855.537 1268,840.5C 1273.29,828.542 1281.46,819.042 1292.5,812C 1304.71,805.728 1317.04,799.728 1329.5,794C 1333.26,790.914 1336.26,787.248 1338.5,783C 1341.48,782.502 1344.48,782.335 1347.5,782.5C 1347.5,824.167 1347.5,865.833 1347.5,907.5C 1358.17,907.5 1368.83,907.5 1379.5,907.5C 1379.21,883.569 1389.21,865.402 1409.5,853C 1421.2,847.326 1432.87,841.66 1444.5,836C 1448.75,833.173 1452.08,829.506 1454.5,825C 1457.15,824.503 1459.81,824.336 1462.5,824.5C 1462.5,852.167 1462.5,879.833 1462.5,907.5 Z"/></g>
<g><path style="opacity:1" fill="#353535" d="M 2104.5,928.5 C 2104.5,921.833 2104.5,915.167 2104.5,908.5C 2115.5,908.5 2126.5,908.5 2137.5,908.5C 2137.18,915.687 2137.51,922.687 2138.5,929.5C 2137.86,939.59 2142.2,946.256 2151.5,949.5C 2160.5,947.994 2165.67,942.661 2167,933.5C 2167.67,909.5 2167.67,885.5 2167,861.5C 2166.1,852.356 2162.1,845.023 2155,839.5C 2154.5,837.19 2154.34,834.857 2154.5,832.5C 2160.2,830.983 2165.03,827.983 2169,823.5C 2172.64,816.39 2177.14,809.89 2182.5,804C 2184.13,803.506 2185.8,803.34 2187.5,803.5C 2187.67,848.168 2187.5,892.835 2187,937.5C 2184.95,959.054 2173.11,970.054 2151.5,970.5C 2134.05,969.37 2123.22,960.37 2119,943.5C 2117.84,938.566 2117.34,933.566 2117.5,928.5C 2113.17,928.5 2108.83,928.5 2104.5,928.5 Z"/></g>
<g><path style="opacity:1" fill="#fcfcfc" d="M 1325.5,818.5 C 1326.5,833.991 1326.83,849.658 1326.5,865.5C 1312.5,865.5 1298.5,865.5 1284.5,865.5C 1284.88,848.638 1292.21,835.805 1306.5,827C 1312.92,824.117 1319.26,821.283 1325.5,818.5 Z"/></g>
<g><path style="opacity:1" fill="#353535" d="M 1224.5,907.5 C 1230.31,908.49 1236.31,908.823 1242.5,908.5C 1242.5,915.167 1242.5,921.833 1242.5,928.5C 1225.98,931.119 1210.98,927.619 1197.5,918C 1191.04,913.21 1184.87,908.043 1179,902.5C 1171.45,909.048 1163.62,915.215 1155.5,921C 1148.62,924.738 1141.28,927.072 1133.5,928C 1120.17,928.5 1106.84,928.667 1093.5,928.5C 1094.79,950.332 1089.96,970.665 1079,989.5C 1066.81,1004.51 1050.98,1011.84 1031.5,1011.5C 1031.5,1009.17 1031.5,1006.83 1031.5,1004.5C 1041.63,1003.35 1049.8,998.681 1056,990.5C 1068.62,971.79 1074.46,951.123 1073.5,928.5C 1052.5,928.5 1031.5,928.5 1010.5,928.5C 1010.33,918.494 1010.5,908.494 1011,898.5C 1013.33,879.991 1022.17,865.491 1037.5,855C 1049.44,848.199 1061.77,842.199 1074.5,837C 1079.22,833.951 1082.88,829.951 1085.5,825C 1088.48,824.502 1091.48,824.335 1094.5,824.5C 1094.5,852.167 1094.5,879.833 1094.5,907.5C 1108.84,907.667 1123.17,907.5 1137.5,907C 1147.55,902.633 1156.22,896.3 1163.5,888C 1152.03,881.51 1140.03,876.176 1127.5,872C 1126.29,858.64 1130.12,846.807 1139,836.5C 1147.89,828.311 1157.05,820.478 1166.5,813C 1171.03,808.801 1175.2,804.301 1179,799.5C 1187.24,809.746 1196.74,818.58 1207.5,826C 1219.16,834.828 1226.66,846.328 1230,860.5C 1230.5,864.486 1230.67,868.486 1230.5,872.5C 1223.09,874.692 1215.76,877.192 1208.5,880C 1203.3,882.094 1198.63,884.928 1194.5,888.5C 1202.45,898.128 1212.45,904.461 1224.5,907.5 Z"/></g>
<g><path style="opacity:1" fill="#353535" d="M 2013.5,824.5 C 2015.17,824.5 2016.83,824.5 2018.5,824.5C 2018.67,862.501 2018.5,900.501 2018,938.5C 2016.48,962.017 2003.98,972.517 1980.5,970C 1968.33,967.167 1960.83,959.667 1958,947.5C 1957.1,941.194 1956.6,934.861 1956.5,928.5C 1886.83,928.5 1817.17,928.5 1747.5,928.5C 1747.14,924.336 1748.81,921.169 1752.5,919C 1759.61,915.363 1766.11,910.863 1772,905.5C 1774.32,902.52 1775.82,899.187 1776.5,895.5C 1778.86,895.337 1781.19,895.503 1783.5,896C 1789,901.752 1795.67,905.419 1803.5,907C 1861.17,907.5 1918.83,907.667 1976.5,907.5C 1976.33,916.506 1976.5,925.506 1977,934.5C 1976.75,940.837 1979.25,945.67 1984.5,949C 1992.21,949.97 1996.38,946.47 1997,938.5C 1997.67,918.167 1997.67,897.833 1997,877.5C 1995.02,870.858 1991.52,865.191 1986.5,860.5C 1985.53,858.257 1985.19,855.924 1985.5,853.5C 1991.2,851.983 1996.03,848.983 2000,844.5C 2003.77,837.286 2008.27,830.62 2013.5,824.5 Z"/></g>
<g><path style="opacity:1" fill="#fcfcfc" d="M 1177.5,828.5 C 1178.92,828.709 1180.26,829.209 1181.5,830C 1186.21,834.38 1191.21,838.38 1196.5,842C 1201.44,846.105 1205.44,850.938 1208.5,856.5C 1198.24,861.631 1188.24,867.298 1178.5,873.5C 1168.95,867.224 1158.95,861.724 1148.5,857C 1150.78,853.053 1153.45,849.387 1156.5,846C 1163.69,840.302 1170.69,834.469 1177.5,828.5 Z"/></g>
<g><path style="opacity:1" fill="#9a9a9a" d="M 1440.5,861.5 C 1440.56,860.957 1440.89,860.624 1441.5,860.5C 1442.83,876.328 1442.83,891.995 1441.5,907.5C 1441.83,891.991 1441.5,876.658 1440.5,861.5 Z"/></g>
<g><path style="opacity:1" fill="#fdfdfd" d="M 1071.5,861.5 C 1072.5,876.658 1072.83,891.991 1072.5,907.5C 1058.83,907.5 1045.17,907.5 1031.5,907.5C 1031.72,891.55 1038.39,879.05 1051.5,870C 1057.81,866.345 1064.48,863.512 1071.5,861.5 Z"/></g>
<g><path style="opacity:1" fill="#bfbfbf" d="M 1071.5,861.5 C 1071.56,860.957 1071.89,860.624 1072.5,860.5C 1073.83,876.328 1073.83,891.995 1072.5,907.5C 1072.83,891.991 1072.5,876.658 1071.5,861.5 Z"/></g>
<g><path style="opacity:1" fill="#fdfdfd" d="M 1440.5,861.5 C 1441.5,876.658 1441.83,891.991 1441.5,907.5C 1427.83,907.5 1414.17,907.5 1400.5,907.5C 1401.19,888.304 1410.19,874.471 1427.5,866C 1431.85,864.486 1436.19,862.986 1440.5,861.5 Z"/></g>
<g><path style="opacity:1" fill="#cecece" d="M 1263.5,886.5 C 1284.5,886.5 1305.5,886.5 1326.5,886.5C 1326.83,902.342 1326.5,918.009 1325.5,933.5C 1325.5,918.167 1325.5,902.833 1325.5,887.5C 1304.66,887.831 1283.99,887.497 1263.5,886.5 Z"/></g>
<g><path style="opacity:1" fill="#626262" d="M 1224.5,907.5 C 1249.01,907.169 1273.34,907.502 1297.5,908.5C 1279.5,908.5 1261.5,908.5 1243.5,908.5C 1243.5,915.167 1243.5,921.833 1243.5,928.5C 1243.17,928.5 1242.83,928.5 1242.5,928.5C 1242.5,921.833 1242.5,915.167 1242.5,908.5C 1236.31,908.823 1230.31,908.49 1224.5,907.5 Z"/></g>
<g><path style="opacity:1" fill="#666666" d="M 1462.5,907.5 C 1475.17,907.5 1487.83,907.5 1500.5,907.5C 1492.02,908.493 1483.35,908.826 1474.5,908.5C 1474.5,915.167 1474.5,921.833 1474.5,928.5C 1474.17,928.5 1473.83,928.5 1473.5,928.5C 1473.5,921.833 1473.5,915.167 1473.5,908.5C 1469.63,908.815 1465.96,908.482 1462.5,907.5 Z"/></g>
<g><path style="opacity:1" fill="#646464" d="M 2072.5,907.5 C 2094.5,907.5 2116.5,907.5 2138.5,907.5C 2138.5,914.833 2138.5,922.167 2138.5,929.5C 2137.51,922.687 2137.18,915.687 2137.5,908.5C 2126.5,908.5 2115.5,908.5 2104.5,908.5C 2104.5,915.167 2104.5,921.833 2104.5,928.5C 2104.17,928.5 2103.83,928.5 2103.5,928.5C 2103.5,921.833 2103.5,915.167 2103.5,908.5C 2092.99,908.828 2082.65,908.494 2072.5,907.5 Z"/></g>
<g><path style="opacity:1" fill="#363636" d="M 1888.5,949.5 C 1902.84,948.679 1909.68,955.346 1909,969.5C 1904.86,979.006 1897.7,982.506 1887.5,980C 1878.65,975.15 1875.82,967.984 1879,958.5C 1881.41,954.592 1884.57,951.592 1888.5,949.5 Z"/></g>
<g><path style="opacity:1" fill="#363636" d="M 2151.5,991.5 C 2169.21,991.607 2175.05,999.94 2169,1016.5C 2163.21,1022.48 2156.38,1023.98 2148.5,1021C 2139.13,1013.25 2138.13,1004.59 2145.5,995C 2147.43,993.541 2149.43,992.375 2151.5,991.5 Z"/></g>
<g><path style="opacity:1" fill="#3a3a3a" d="M 1513.5,999.5 C 1514.38,999.369 1515.04,999.702 1515.5,1000.5C 1513.76,1004.41 1511.42,1007.91 1508.5,1011C 1494.59,1017.81 1480.59,1023.64 1466.5,1028.5C 1469.01,1022.61 1473.01,1018.11 1478.5,1015C 1490.39,1010.1 1502.06,1004.93 1513.5,999.5 Z"/></g>
<g><path style="opacity:1" fill="#383838" d="M 915.5,1010.5 C 916.239,1010.37 916.906,1010.54 917.5,1011C 915.654,1015.85 912.654,1019.85 908.5,1023C 895.377,1028.98 882.21,1034.81 869,1040.5C 869.787,1035.44 872.287,1031.28 876.5,1028C 889.59,1022.12 902.59,1016.28 915.5,1010.5 Z"/></g>
<g><path style="opacity:1" fill="#393939" d="M 1319.5,1050.5 C 1329.71,1049.86 1336.21,1054.53 1339,1064.5C 1342.36,1089.15 1332.19,1097.98 1308.5,1091C 1306.38,1089.27 1304.88,1087.1 1304,1084.5C 1302.44,1069.96 1307.61,1058.63 1319.5,1050.5 Z"/></g>
<g><path style="opacity:1" fill="#353535" d="M 1501.5,1050.5 C 1502.49,1056.64 1502.82,1062.98 1502.5,1069.5C 1495.75,1068.29 1489.92,1069.96 1485,1074.5C 1483.71,1078.58 1484.87,1081.75 1488.5,1084C 1495.86,1084.17 1503.19,1084.67 1510.5,1085.5C 1508.39,1090.05 1506.06,1094.39 1503.5,1098.5C 1486.66,1098.83 1469.99,1098.5 1453.5,1097.5C 1455.05,1093.4 1456.88,1089.4 1459,1085.5C 1460.7,1084.59 1462.53,1084.26 1464.5,1084.5C 1463.15,1076.07 1465.48,1068.9 1471.5,1063C 1481.74,1059.5 1491.74,1055.34 1501.5,1050.5 Z"/></g>
<g><path style="opacity:1" fill="#9d9d9d" d="M 1501.5,1050.5 C 1501.56,1049.96 1501.89,1049.62 1502.5,1049.5C 1503.82,1056.32 1503.82,1062.99 1502.5,1069.5C 1502.82,1062.98 1502.49,1056.64 1501.5,1050.5 Z"/></g>
<g><path style="opacity:1" fill="#343434" d="M 1196.5,1057.5 C 1196.83,1085.34 1196.5,1113.01 1195.5,1140.5C 1190.76,1134.3 1184.43,1130.96 1176.5,1130.5C 1178.77,1116.14 1174.93,1103.81 1165,1093.5C 1164.5,1091.19 1164.34,1088.86 1164.5,1086.5C 1170.85,1084.67 1176.02,1081.01 1180,1075.5C 1183,1068.83 1187.17,1063 1192.5,1058C 1193.79,1057.51 1195.13,1057.34 1196.5,1057.5 Z"/></g>
<g><path style="opacity:1" fill="#686868" d="M 1196.5,1057.5 C 1197.66,1085.66 1197.83,1114 1197,1142.5C 1196.28,1141.96 1195.78,1141.29 1195.5,1140.5C 1196.5,1113.01 1196.83,1085.34 1196.5,1057.5 Z"/></g>
<g><path style="opacity:1" fill="#fcfcfc" d="M 1315.5,1061.5 C 1325.41,1060.4 1331.41,1064.74 1333.5,1074.5C 1333.56,1076.48 1332.9,1078.15 1331.5,1079.5C 1328.38,1081.01 1325.04,1081.68 1321.5,1081.5C 1311.34,1082.17 1307.51,1077.5 1310,1067.5C 1312.04,1065.63 1313.87,1063.63 1315.5,1061.5 Z"/></g>
<g><path style="opacity:1" fill="#989898" d="M 1453.5,1097.5 C 1469.99,1098.5 1486.66,1098.83 1503.5,1098.5C 1486.66,1099.83 1469.66,1099.83 1452.5,1098.5C 1452.62,1097.89 1452.96,1097.56 1453.5,1097.5 Z"/></g>
<g><path style="opacity:1" fill="#353535" d="M 1213.5,1328.5 C 1213.5,1321.83 1213.5,1315.17 1213.5,1308.5C 1237.01,1308.83 1260.34,1308.5 1283.5,1307.5C 1259.95,1286.03 1250.79,1259.36 1256,1227.5C 1257.98,1216.88 1261.64,1206.88 1267,1197.5C 1275.58,1184.67 1283.92,1171.67 1292,1158.5C 1294.9,1145.03 1289.4,1137.2 1275.5,1135C 1269.5,1134.33 1263.5,1134.33 1257.5,1135C 1252.5,1137.33 1248.83,1141 1246.5,1146C 1241.69,1146 1238.86,1143.5 1238,1138.5C 1237.24,1136.19 1237.74,1134.19 1239.5,1132.5C 1231.13,1129.48 1223.46,1125.15 1216.5,1119.5C 1215.57,1118.31 1215.24,1116.98 1215.5,1115.5C 1237.19,1115.12 1258.86,1115.62 1280.5,1117C 1306.77,1118.72 1317.94,1132.56 1314,1158.5C 1312.59,1163.74 1310.59,1168.74 1308,1173.5C 1300.91,1184.67 1293.58,1195.67 1286,1206.5C 1268.4,1237.43 1272.57,1264.93 1298.5,1289C 1318.92,1307.94 1342.25,1312.6 1368.5,1303C 1370.83,1300.67 1373.17,1298.33 1375.5,1296C 1377.81,1295.5 1380.14,1295.34 1382.5,1295.5C 1383.66,1301.96 1386.99,1307.12 1392.5,1311C 1399.21,1314.38 1405.38,1318.55 1411,1323.5C 1411.49,1325.13 1411.66,1326.8 1411.5,1328.5C 1345.5,1328.5 1279.5,1328.5 1213.5,1328.5 Z"/></g>
<g><path style="opacity:1" fill="#353535" d="M 1197.5,1307.5 C 1202.31,1308.49 1207.31,1308.82 1212.5,1308.5C 1212.5,1315.17 1212.5,1321.83 1212.5,1328.5C 1160.17,1328.5 1107.83,1328.5 1055.5,1328.5C 1055.16,1316.46 1055.66,1304.46 1057,1292.5C 1059.67,1278.51 1066.5,1267.01 1077.5,1258C 1090.67,1248.83 1101.83,1237.67 1111,1224.5C 1113.56,1220.06 1115.56,1215.39 1117,1210.5C 1117.67,1198.5 1117.67,1186.5 1117,1174.5C 1115.13,1167.09 1111.46,1160.75 1106,1155.5C 1105.19,1153.42 1105.36,1151.42 1106.5,1149.5C 1111.8,1147.26 1116.3,1143.93 1120,1139.5C 1123.34,1133.49 1127.17,1127.82 1131.5,1122.5C 1133.51,1120.83 1135.84,1120.16 1138.5,1120.5C 1138.5,1182.83 1138.5,1245.17 1138.5,1307.5C 1151.17,1307.5 1163.83,1307.5 1176.5,1307.5C 1176.67,1258.5 1176.5,1209.5 1176,1160.5C 1173.54,1152.43 1168.37,1150.26 1160.5,1154C 1157.65,1157.02 1154.65,1159.85 1151.5,1162.5C 1151.2,1150.6 1156.54,1142.1 1167.5,1137C 1184.32,1135.8 1194.15,1143.63 1197,1160.5C 1197.5,1209.5 1197.67,1258.5 1197.5,1307.5 Z"/></g>
<g><path style="opacity:1" fill="#343434" d="M 1486.5,1177.5 C 1485.17,1220.67 1485.17,1264 1486.5,1307.5C 1487.11,1307.38 1487.44,1307.04 1487.5,1306.5C 1491.98,1304.18 1495.32,1300.68 1497.5,1296C 1499.58,1295.19 1501.58,1295.36 1503.5,1296.5C 1505.82,1302.33 1509.49,1307.16 1514.5,1311C 1521.1,1314.55 1527.27,1318.71 1533,1323.5C 1533.49,1325.13 1533.66,1326.8 1533.5,1328.5C 1510.83,1328.5 1488.17,1328.5 1465.5,1328.5C 1465.5,1259.17 1465.5,1189.83 1465.5,1120.5C 1469.66,1120.14 1472.83,1121.81 1475,1125.5C 1479.02,1134.85 1485.19,1142.35 1493.5,1148C 1495.02,1149.01 1496.69,1149.51 1498.5,1149.5C 1498.66,1151.53 1498.5,1153.53 1498,1155.5C 1491.25,1161.33 1487.42,1168.66 1486.5,1177.5 Z"/></g>
<g><path style="opacity:1" fill="#383838" d="M 1742.5,1147.5 C 1753.44,1147.93 1759.94,1153.6 1762,1164.5C 1763.7,1187.47 1753.53,1195.64 1731.5,1189C 1729.62,1187.46 1728.12,1185.62 1727,1183.5C 1724.29,1167.94 1729.45,1155.94 1742.5,1147.5 Z"/></g>
<g><path style="opacity:1" fill="#f8f8f8" d="M 1739.5,1158.5 C 1748.54,1158.7 1754.21,1163.2 1756.5,1172C 1756.39,1173.9 1755.72,1175.56 1754.5,1177C 1746.98,1180.72 1739.81,1180.22 1733,1175.5C 1730.14,1167.9 1732.3,1162.23 1739.5,1158.5 Z"/></g>
<g><path style="opacity:1" fill="#7d7d7d" d="M 1486.5,1177.5 C 1486.17,1220.67 1486.5,1263.67 1487.5,1306.5C 1487.44,1307.04 1487.11,1307.38 1486.5,1307.5C 1485.17,1264 1485.17,1220.67 1486.5,1177.5 Z"/></g>
<g><path style="opacity:1" fill="#feb34f" d="M 2727.5,1205.5 C 2770.85,1223.35 2813.52,1242.85 2855.5,1264C 2911.07,1293.72 2959.07,1332.89 2999.5,1381.5C 2999.5,1587.5 2999.5,1793.5 2999.5,1999.5C 2804.83,1999.5 2610.17,1999.5 2415.5,1999.5C 2392.2,1955.12 2375.54,1908.29 2365.5,1859C 2338.83,1727.06 2365.33,1607.23 2445,1499.5C 2475.53,1459.62 2509.03,1422.12 2545.5,1387C 2597.21,1339.96 2647.71,1291.46 2697,1241.5C 2707.75,1229.92 2717.92,1217.92 2727.5,1205.5 Z"/></g>
<g><path style="opacity:1" fill="#363636" d="M 1740.5,1213.5 C 1756.68,1213.21 1762.84,1220.88 1759,1236.5C 1754.15,1244.06 1747.32,1246.56 1738.5,1244C 1729.43,1238.11 1727.26,1230.28 1732,1220.5C 1734.44,1217.55 1737.27,1215.21 1740.5,1213.5 Z"/></g>
<g><path style="opacity:1" fill="#353535" d="M 1789.5,1390.5 C 1747.17,1390.5 1704.83,1390.5 1662.5,1390.5C 1662.5,1389.17 1662.5,1387.83 1662.5,1386.5C 1663.96,1384.54 1665.63,1382.7 1667.5,1381C 1678.24,1376.81 1686.24,1369.65 1691.5,1359.5C 1693.76,1358.35 1696.1,1358.19 1698.5,1359C 1703.64,1365.24 1710.31,1368.91 1718.5,1370C 1742.83,1370.67 1767.17,1370.67 1791.5,1370C 1799.37,1367.47 1804.53,1362.3 1807,1354.5C 1807.67,1334.83 1807.67,1315.17 1807,1295.5C 1804.85,1288.53 1801.19,1282.53 1796,1277.5C 1795.19,1275.42 1795.36,1273.42 1796.5,1271.5C 1802.33,1269.18 1807.16,1265.51 1811,1260.5C 1814.5,1254.16 1818.5,1248.16 1823,1242.5C 1824.7,1241.59 1826.53,1241.26 1828.5,1241.5C 1828.5,1263.5 1828.5,1285.5 1828.5,1307.5C 1839.17,1307.5 1849.83,1307.5 1860.5,1307.5C 1860.21,1283.56 1870.21,1265.4 1890.5,1253C 1902.08,1247.05 1913.74,1241.38 1925.5,1236C 1929.75,1233.58 1932.75,1230.08 1934.5,1225.5C 1937.43,1224.52 1940.43,1224.18 1943.5,1224.5C 1943.5,1259.17 1943.5,1293.83 1943.5,1328.5C 1905.17,1328.5 1866.83,1328.5 1828.5,1328.5C 1828.67,1338.51 1828.5,1348.51 1828,1358.5C 1822.91,1378.46 1810.08,1389.13 1789.5,1390.5 Z"/></g>
<g><path style="opacity:1" fill="#5b5b5b" d="M 1116.5,1248.5 C 1116.56,1247.96 1116.89,1247.62 1117.5,1247.5C 1118.83,1267.66 1118.83,1287.66 1117.5,1307.5C 1117.83,1287.66 1117.5,1267.99 1116.5,1248.5 Z"/></g>
<g><path style="opacity:1" fill="#fdfdfd" d="M 1116.5,1248.5 C 1117.5,1267.99 1117.83,1287.66 1117.5,1307.5C 1103.83,1307.5 1090.17,1307.5 1076.5,1307.5C 1076.5,1305.17 1076.5,1302.83 1076.5,1300.5C 1076.73,1292.7 1079.23,1285.7 1084,1279.5C 1092.2,1271.63 1100.7,1264.13 1109.5,1257C 1112.2,1254.41 1114.53,1251.58 1116.5,1248.5 Z"/></g>
<g><path style="opacity:1" fill="#fdfdfd" d="M 1921.5,1261.5 C 1922.5,1276.66 1922.83,1291.99 1922.5,1307.5C 1908.83,1307.5 1895.17,1307.5 1881.5,1307.5C 1881.82,1290.02 1889.49,1276.85 1904.5,1268C 1909.98,1265.26 1915.64,1263.09 1921.5,1261.5 Z"/></g>
<g><path style="opacity:1" fill="#979797" d="M 1921.5,1261.5 C 1921.56,1260.96 1921.89,1260.62 1922.5,1260.5C 1923.83,1276.33 1923.83,1291.99 1922.5,1307.5C 1922.83,1291.99 1922.5,1276.66 1921.5,1261.5 Z"/></g>
<g><path style="opacity:1" fill="#696969" d="M 1076.5,1300.5 C 1076.5,1302.83 1076.5,1305.17 1076.5,1307.5C 1090.17,1307.5 1103.83,1307.5 1117.5,1307.5C 1103.68,1308.5 1089.68,1308.83 1075.5,1308.5C 1075.19,1305.61 1075.53,1302.95 1076.5,1300.5 Z"/></g>
<g><path style="opacity:1" fill="#626262" d="M 1197.5,1307.5 C 1226.17,1307.5 1254.83,1307.5 1283.5,1307.5C 1260.34,1308.5 1237.01,1308.83 1213.5,1308.5C 1213.5,1315.17 1213.5,1321.83 1213.5,1328.5C 1213.17,1328.5 1212.83,1328.5 1212.5,1328.5C 1212.5,1321.83 1212.5,1315.17 1212.5,1308.5C 1207.31,1308.82 1202.31,1308.49 1197.5,1307.5 Z"/></g>
<g><path style="opacity:1" fill="#393939" d="M 1115.5,1347.5 C 1116.24,1347.37 1116.91,1347.54 1117.5,1348C 1115.23,1352.54 1112.23,1356.54 1108.5,1360C 1094.93,1366.04 1081.43,1372.2 1068,1378.5C 1069.07,1372.07 1072.57,1367.24 1078.5,1364C 1091.14,1358.96 1103.48,1353.46 1115.5,1347.5 Z"/></g>
<g><path style="opacity:1" fill="#393939" d="M 1202.5,1347.5 C 1202.28,1352.41 1199.95,1356.57 1195.5,1360C 1181.93,1366.04 1168.43,1372.2 1155,1378.5C 1155.88,1372.93 1158.72,1368.43 1163.5,1365C 1176.73,1359.43 1189.73,1353.6 1202.5,1347.5 Z"/></g>
<g><path style="opacity:1" fill="#393939" d="M 1921.5,1347.5 C 1922.04,1347.56 1922.38,1347.89 1922.5,1348.5C 1920.47,1353.75 1917.13,1357.92 1912.5,1361C 1900.5,1366.33 1888.5,1371.67 1876.5,1377C 1875.36,1377.75 1874.36,1377.58 1873.5,1376.5C 1875.44,1371.77 1878.44,1367.94 1882.5,1365C 1895.59,1359.12 1908.59,1353.28 1921.5,1347.5 Z"/></g>
<g><path style="opacity:1" fill="#363636" d="M 1270.5,1349.5 C 1284.83,1348.66 1291.66,1355.33 1291,1369.5C 1284.61,1381.13 1275.78,1383.46 1264.5,1376.5C 1256.38,1365.26 1258.38,1356.26 1270.5,1349.5 Z"/></g>
<g><path style="opacity:1" fill="#676767" d="M 1662.5,1386.5 C 1662.5,1387.83 1662.5,1389.17 1662.5,1390.5C 1704.83,1390.5 1747.17,1390.5 1789.5,1390.5C 1747,1391.5 1704.34,1391.83 1661.5,1391.5C 1661.22,1389.59 1661.55,1387.92 1662.5,1386.5 Z"/></g>
</svg>
