<?xml version="1.0" encoding="UTF-8"?>
<!DOCTYPE svg PUBLIC "-//W3C//DTD SVG 1.1//EN" "http://www.w3.org/Graphics/SVG/1.1/DTD/svg11.dtd">
<svg xmlns="http://www.w3.org/2000/svg" version="1.1" width="3000px" height="2000px" style="shape-rendering:geometricPrecision; text-rendering:geometricPrecision; image-rendering:optimizeQuality; fill-rule:evenodd; clip-rule:evenodd" xmlns:xlink="http://www.w3.org/1999/xlink">
<g><path style="opacity:1" fill="#184266" d="M -0.5,-0.5 C 115.833,-0.5 232.167,-0.5 348.5,-0.5C 376.971,80.2227 360.638,150.389 299.5,210C 281.634,225.871 262.634,240.204 242.5,253C 213.833,270.333 185.167,287.667 156.5,305C 98.761,343.251 46.4277,388.084 -0.5,439.5C -0.5,292.833 -0.5,146.167 -0.5,-0.5 Z"/></g>
<g><path style="opacity:1" fill="#fefefe" d="M 348.5,-0.5 C 365.833,-0.5 383.167,-0.5 400.5,-0.5C 399.208,79.1421 379.375,153.809 341,223.5C 324.991,249.523 307.991,274.856 290,299.5C 280.588,314.655 274.254,330.988 271,348.5C 268.175,380.334 278.341,407.168 301.5,429C 329.882,452.513 362.548,466.18 399.5,470C 433.786,475.377 467.786,474.044 501.5,466C 554.453,450.382 592.62,417.549 616,367.5C 636.8,319.041 646.3,268.374 644.5,215.5C 645.7,138.968 628.366,66.9676 592.5,-0.5C 972.833,-0.5 1353.17,-0.5 1733.5,-0.5C 1717.66,23.8452 1711.16,50.5119 1714,79.5C 1720.28,110.79 1738.45,131.956 1768.5,143C 1793.91,151.022 1819.91,153.688 1846.5,151C 1859.87,149.7 1873.2,148.033 1886.5,146C 2006.25,120.987 2125.91,95.6537 2245.5,70C 2260.74,67.0154 2276.07,64.682 2291.5,63C 2313.37,61.4209 2335.04,62.7542 2356.5,67C 2402.71,81.2142 2428.54,112.381 2434,160.5C 2435.58,212.843 2421.91,260.843 2393,304.5C 2372.28,334.226 2351.94,364.226 2332,394.5C 2320.24,413.445 2310.57,433.445 2303,454.5C 2282.65,531.441 2303.81,594.275 2366.5,643C 2415.92,678.083 2468.92,684.416 2525.5,662C 2533.5,658.667 2541.5,655.333 2549.5,652C 2585.05,633.122 2621.05,615.122 2657.5,598C 2715.97,573.348 2772.97,576.348 2828.5,607C 2878.74,637.575 2915.9,679.742 2940,733.5C 2959.9,782.905 2971.24,834.238 2974,887.5C 2975.74,934.991 2975.91,982.491 2974.5,1030C 2974.39,1049.21 2975.06,1068.37 2976.5,1087.5C 2959.91,1086.98 2944.57,1091.15 2930.5,1100C 2913.2,1111.63 2897.36,1125.13 2883,1140.5C 2868.33,1157.17 2853.67,1173.83 2839,1190.5C 2766.23,1267.18 2678.73,1320.01 2576.5,1349C 2545.89,1355.07 2516.22,1364.07 2487.5,1376C 2437.87,1400.75 2415.37,1440.91 2420,1496.5C 2426.23,1535.29 2441.9,1569.62 2467,1599.5C 2493.96,1633.85 2526.13,1662.02 2563.5,1684C 2623.16,1715.91 2684.83,1720.24 2748.5,1697C 2792.97,1678.61 2832.64,1652.94 2867.5,1620C 2922.19,1566.76 2966.19,1505.92 2999.5,1437.5C 2999.5,1467.17 2999.5,1496.83 2999.5,1526.5C 2937.15,1642.2 2855.82,1743.03 2755.5,1829C 2720.63,1857.21 2684.63,1883.88 2647.5,1909C 2617.38,1930.68 2589.21,1954.85 2563,1981.5C 2557.57,1987.09 2552.74,1993.09 2548.5,1999.5C 2531.5,1999.5 2514.5,1999.5 2497.5,1999.5C 2504.62,1980.26 2513.12,1961.59 2523,1943.5C 2534,1924.83 2545,1906.17 2556,1887.5C 2568.42,1865.9 2577.09,1842.9 2582,1818.5C 2586.18,1780.05 2574.35,1747.55 2546.5,1721C 2512.21,1693.21 2472.88,1677.54 2428.5,1674C 2385.87,1668.55 2343.87,1671.55 2302.5,1683C 2229.37,1706.79 2179.87,1754.96 2154,1827.5C 2143.31,1858.26 2136.98,1889.93 2135,1922.5C 2134.28,1948.18 2134.44,1973.84 2135.5,1999.5C 1899.17,1999.5 1662.83,1999.5 1426.5,1999.5C 1431.5,1986.5 1437.33,1973.83 1444,1961.5C 1457.27,1938.57 1470.94,1915.9 1485,1893.5C 1500.26,1867.05 1509.93,1838.72 1514,1808.5C 1518.89,1768.77 1505.05,1737.6 1472.5,1715C 1454.57,1705.43 1435.41,1700.59 1415,1700.5C 1388.86,1701.41 1363.36,1705.91 1338.5,1714C 1321.85,1719.55 1305.52,1725.88 1289.5,1733C 1175.17,1783.33 1060.83,1833.67 946.5,1884C 924.666,1893.39 902.332,1901.39 879.5,1908C 857.536,1913.87 835.203,1915.87 812.5,1914C 766.973,1906.8 736.14,1881.64 720,1838.5C 711.092,1810.86 707.759,1782.52 710,1753.5C 711.884,1727.75 717.217,1702.75 726,1678.5C 738.609,1646.67 751.609,1615.01 765,1583.5C 779.238,1550.12 788.572,1515.46 793,1479.5C 796.997,1420.34 776.831,1371.17 732.5,1332C 687.2,1293.01 634.866,1277.68 575.5,1286C 549.097,1292.04 524.764,1302.7 502.5,1318C 489.989,1326.76 477.656,1335.76 465.5,1345C 435.77,1371.02 404.77,1395.36 372.5,1418C 345.798,1434.9 316.798,1445.9 285.5,1451C 239.644,1454.82 196.31,1446.16 155.5,1425C 98.3333,1394.5 54.5,1350.67 24,1293.5C 15.2408,1276.65 7.07409,1259.65 -0.5,1242.5C -0.5,1112.5 -0.5,982.5 -0.5,852.5C 40.4511,811.743 87.1177,778.91 139.5,754C 161.497,743.889 184.164,735.556 207.5,729C 240.765,721.723 274.099,714.723 307.5,708C 365.662,689.454 389.496,649.954 379,589.5C 374.235,568.306 365.902,548.639 354,530.5C 333.692,499.383 308.525,472.883 278.5,451C 219.956,414.54 159.289,410.874 96.5,440C 60.297,457.088 27.9637,479.588 -0.5,507.5C -0.5,484.833 -0.5,462.167 -0.5,439.5C 46.4277,388.084 98.761,343.251 156.5,305C 185.167,287.667 213.833,270.333 242.5,253C 262.634,240.204 281.634,225.871 299.5,210C 360.638,150.389 376.971,80.2227 348.5,-0.5 Z"/></g>
<g><path style="opacity:1" fill="#184266" d="M 400.5,-0.5 C 464.5,-0.5 528.5,-0.5 592.5,-0.5C 628.366,66.9676 645.7,138.968 644.5,215.5C 646.3,268.374 636.8,319.041 616,367.5C 592.62,417.549 554.453,450.382 501.5,466C 467.786,474.044 433.786,475.377 399.5,470C 362.548,466.18 329.882,452.513 301.5,429C 278.341,407.168 268.175,380.334 271,348.5C 274.254,330.988 280.588,314.655 290,299.5C 307.991,274.856 324.991,249.523 341,223.5C 379.375,153.809 399.208,79.1421 400.5,-0.5 Z"/></g>
<g><path style="opacity:1" fill="#ffb34f" d="M 1733.5,-0.5 C 2155.5,-0.5 2577.5,-0.5 2999.5,-0.5C 2999.5,395.5 2999.5,791.5 2999.5,1187.5C 2992.67,1172.85 2987.51,1157.52 2984,1141.5C 2980.74,1123.6 2978.24,1105.6 2976.5,1087.5C 2975.06,1068.37 2974.39,1049.21 2974.5,1030C 2975.91,982.491 2975.74,934.991 2974,887.5C 2971.24,834.238 2959.9,782.905 2940,733.5C 2915.9,679.742 2878.74,637.575 2828.5,607C 2772.97,576.348 2715.97,573.348 2657.5,598C 2621.05,615.122 2585.05,633.122 2549.5,652C 2541.5,655.333 2533.5,658.667 2525.5,662C 2468.92,684.416 2415.92,678.083 2366.5,643C 2303.81,594.275 2282.65,531.441 2303,454.5C 2310.57,433.445 2320.24,413.445 2332,394.5C 2351.94,364.226 2372.28,334.226 2393,304.5C 2421.91,260.843 2435.58,212.843 2434,160.5C 2428.54,112.381 2402.71,81.2142 2356.5,67C 2335.04,62.7542 2313.37,61.4209 2291.5,63C 2276.07,64.682 2260.74,67.0154 2245.5,70C 2125.91,95.6537 2006.25,120.987 1886.5,146C 1873.2,148.033 1859.87,149.7 1846.5,151C 1819.91,153.688 1793.91,151.022 1768.5,143C 1738.45,131.956 1720.28,110.79 1714,79.5C 1711.16,50.5119 1717.66,23.8452 1733.5,-0.5 Z"/></g>
<g><path style="opacity:1" fill="#184266" d="M -0.5,852.5 C -0.5,737.5 -0.5,622.5 -0.5,507.5C 27.9637,479.588 60.297,457.088 96.5,440C 159.289,410.874 219.956,414.54 278.5,451C 308.525,472.883 333.692,499.383 354,530.5C 365.902,548.639 374.235,568.306 379,589.5C 389.496,649.954 365.662,689.454 307.5,708C 274.099,714.723 240.765,721.723 207.5,729C 184.164,735.556 161.497,743.889 139.5,754C 87.1177,778.91 40.4511,811.743 -0.5,852.5 Z"/></g>
<g><path style="opacity:1" fill="#373737" d="M 1465.5,700.5 C 1486.24,699.72 1493.41,709.054 1487,728.5C 1478.3,738.915 1467.8,741.082 1455.5,735C 1445.58,723.767 1446.58,713.433 1458.5,704C 1461.07,703.102 1463.4,701.935 1465.5,700.5 Z"/></g>
<g><path style="opacity:1" fill="#f2f2f2" d="M 1467.5,711.5 C 1477.63,711.92 1479.96,716.42 1474.5,725C 1463,729.5 1459.5,726 1464,714.5C 1465.52,713.837 1466.69,712.837 1467.5,711.5 Z"/></g>
<g><path style="opacity:1" fill="#353535" d="M 1465.5,750.5 C 1485.92,750.323 1492.08,759.656 1484,778.5C 1478.21,785.033 1471.04,787.2 1462.5,785C 1457.57,783.073 1454.41,779.573 1453,774.5C 1450.89,763.136 1455.06,755.136 1465.5,750.5 Z"/></g>
<g><path style="opacity:1" fill="#353535" d="M 1794.5,751.5 C 1804.46,751.07 1811.63,755.403 1816,764.5C 1817.21,767.768 1817.55,771.101 1817,774.5C 1803.38,785.351 1793.38,799.017 1787,815.5C 1782.27,827.694 1777.94,840.027 1774,852.5C 1766.88,880.419 1758.88,908.086 1750,935.5C 1742.91,955.557 1731.08,972.057 1714.5,985C 1698.31,995.798 1680.65,999.798 1661.5,997C 1650.24,992.741 1642.74,984.908 1639,973.5C 1619.05,998.056 1593.55,1007.22 1562.5,1001C 1552.87,996.703 1545.03,990.203 1539,981.5C 1528.72,994.601 1515.22,1000.1 1498.5,998C 1485.42,995.589 1476.58,988.089 1472,975.5C 1470.66,970.817 1469.33,966.15 1468,961.5C 1441.14,998.674 1404.64,1015.51 1358.5,1012C 1330.98,1010.66 1309.48,998.83 1294,976.5C 1290.66,969.484 1288.33,962.15 1287,954.5C 1269.68,974.462 1248.52,988.962 1223.5,998C 1182.66,1012.99 1140.99,1015.99 1098.5,1007C 1080.45,1001.92 1065.28,992.418 1053,978.5C 1050.23,973.961 1047.73,969.294 1045.5,964.5C 1038.31,985.231 1029.48,1005.23 1019,1024.5C 998.619,1057.27 969.119,1073.11 930.5,1072C 927.634,1068.06 927.968,1064.39 931.5,1061C 951.38,1056.81 968.213,1047.31 982,1032.5C 1001.2,1007.76 1014.2,980.096 1021,949.5C 1013.97,962.195 1004.47,972.695 992.5,981C 977.563,988.978 962.563,989.311 947.5,982C 938.917,975.724 934.084,967.224 933,956.5C 931.265,917.806 945.432,886.306 975.5,862C 1004.88,840.869 1036.54,836.869 1070.5,850C 1077.81,852.984 1084.31,857.15 1090,862.5C 1090,871.694 1085.5,877.694 1076.5,880.5C 1037.86,855.703 1006.36,862.703 982,901.5C 972.747,916.582 968.414,932.915 969,950.5C 971.565,962.698 978.398,966.198 989.5,961C 996.626,956.208 1002.79,950.375 1008,943.5C 1020.18,924.463 1029.68,904.13 1036.5,882.5C 1045.76,879.375 1054.76,880.209 1063.5,885C 1065.8,886.135 1067.14,887.968 1067.5,890.5C 1062.26,906.987 1057.59,923.653 1053.5,940.5C 1055.04,950.728 1060.04,958.895 1068.5,965C 1083.1,974.313 1099.1,979.646 1116.5,981C 1139.44,982.441 1162.1,980.774 1184.5,976C 1167.17,961.171 1157.33,942.338 1155,919.5C 1154.42,910.447 1154.42,901.447 1155,892.5C 1148.91,895.462 1142.74,898.295 1136.5,901C 1133.97,901.896 1131.81,901.396 1130,899.5C 1130.16,889.697 1131.49,880.03 1134,870.5C 1148.61,860.782 1164.44,853.616 1181.5,849C 1204.46,842.904 1227.79,840.238 1251.5,841C 1264.48,840.773 1276.81,843.44 1288.5,849C 1300.21,856.57 1306.71,867.403 1308,881.5C 1308.49,893.607 1307.49,905.607 1305,917.5C 1290.16,953.706 1302,975.873 1340.5,984C 1379.18,987.218 1412.34,975.385 1440,948.5C 1449.24,938.347 1455.57,926.68 1459,913.5C 1453.07,924.181 1445.57,933.681 1436.5,942C 1420.39,953.733 1403.39,955.4 1385.5,947C 1376.92,940.724 1372.08,932.224 1371,921.5C 1369.7,883.6 1383.53,852.433 1412.5,828C 1442.74,805.187 1475.4,801.187 1510.5,816C 1516.56,818.906 1522.23,822.406 1527.5,826.5C 1528.46,836.2 1524.13,842.533 1514.5,845.5C 1475.89,820.762 1444.39,827.762 1420,866.5C 1410.85,881.628 1406.51,897.961 1407,915.5C 1409.48,927.654 1416.31,931.154 1427.5,926C 1438.42,918.642 1446.92,909.142 1453,897.5C 1461.66,881.524 1468.66,864.857 1474,847.5C 1483.46,844.354 1492.62,845.188 1501.5,850C 1503.8,851.135 1505.14,852.968 1505.5,855.5C 1497.63,883.64 1489.13,911.64 1480,939.5C 1477.84,951.726 1481.01,962.226 1489.5,971C 1508.68,977.335 1522.51,971.168 1531,952.5C 1532.62,929.631 1539.46,908.464 1551.5,889C 1561.93,885.161 1572.59,884.494 1583.5,887C 1584.57,887.739 1585.24,888.739 1585.5,890C 1576.21,907.378 1570.87,925.878 1569.5,945.5C 1569.04,955.477 1571.21,964.81 1576,973.5C 1582.82,980.891 1590.32,981.391 1598.5,975C 1608.69,966.467 1615.19,955.633 1618,942.5C 1623.32,924.545 1622.65,906.878 1616,889.5C 1610.96,880.227 1603.13,875.394 1592.5,875C 1584.13,874.377 1575.8,874.71 1567.5,876C 1560.16,878.003 1552.83,879.669 1545.5,881C 1544.3,880.097 1543.47,878.931 1543,877.5C 1540.53,869.62 1543.03,864.12 1550.5,861C 1570.05,852.848 1590.38,849.848 1611.5,852C 1643.26,858.938 1659.59,878.771 1660.5,911.5C 1660.33,926.53 1657.16,940.864 1651,954.5C 1652.97,969.264 1661.47,975.431 1676.5,973C 1682.35,971.409 1687.68,968.742 1692.5,965C 1704.72,952.403 1713.22,937.569 1718,920.5C 1726.87,889.124 1735.87,857.791 1745,826.5C 1751.13,805.753 1760.13,786.419 1772,768.5C 1778.26,760.979 1785.76,755.312 1794.5,751.5 Z"/></g>
<g><path style="opacity:1" fill="#363636" d="M 1230.5,759.5 C 1249.35,760.879 1253.52,769.545 1243,785.5C 1231.42,799.709 1216.59,806.376 1198.5,805.5C 1195.96,802.961 1195.13,799.961 1196,796.5C 1202.44,793.682 1208.94,790.848 1215.5,788C 1218.48,786.016 1221.15,783.683 1223.5,781C 1219.17,771.524 1221.5,764.357 1230.5,759.5 Z"/></g>
<g><path style="opacity:1" fill="#373737" d="M 1017.5,769.5 C 1037.52,769.268 1044.69,778.602 1039,797.5C 1029.07,808.537 1017.91,810.204 1005.5,802.5C 999.021,794.332 998.855,785.999 1005,777.5C 1008.67,773.923 1012.84,771.256 1017.5,769.5 Z"/></g>
<g><path style="opacity:1" fill="#363636" d="M 2102.5,771.5 C 2119.34,770.886 2124.51,778.219 2118,793.5C 2106.73,809.719 2091.23,817.886 2071.5,818C 2068.21,815.588 2067.04,812.421 2068,808.5C 2073.54,805.428 2079.37,802.928 2085.5,801C 2089.45,798.72 2093.11,796.053 2096.5,793C 2091.6,783.95 2093.6,776.784 2102.5,771.5 Z"/></g>
<g><path style="opacity:1" fill="#353535" d="M 896.5,772.5 C 905.842,772.221 914.842,773.721 923.5,777C 925.448,778.439 926.781,780.272 927.5,782.5C 919.232,803.805 912.065,825.472 906,847.5C 896.496,883.178 886.83,918.845 877,954.5C 868.952,978.216 853.119,994.382 829.5,1003C 797.798,1014.08 765.465,1016.42 732.5,1010C 689.674,997.153 669.508,968.32 672,923.5C 679.603,887.23 701.436,864.73 737.5,856C 754.68,853.751 771.68,854.751 788.5,859C 790.333,859.5 791.5,860.667 792,862.5C 793.754,869.915 791.588,875.748 785.5,880C 758.545,874.771 736.378,882.604 719,903.5C 705.405,924.989 705.071,946.656 718,968.5C 731.473,983.776 748.473,991.11 769,990.5C 789.103,990.152 807.603,984.652 824.5,974C 834.875,966.755 841.375,956.921 844,944.5C 854.368,901.654 865.368,858.987 877,816.5C 881.502,802.499 886.835,788.832 893,775.5C 894.145,774.364 895.312,773.364 896.5,772.5 Z"/></g>
<g><path style="opacity:1" fill="#353535" d="M 1861.5,772.5 C 1871.36,771.896 1880.69,773.729 1889.5,778C 1892.09,779.525 1892.92,781.692 1892,784.5C 1884.8,801.421 1878.8,818.755 1874,836.5C 1860.29,887.579 1846.29,938.579 1832,989.5C 1829.13,992.463 1825.63,994.296 1821.5,995C 1814.43,995.839 1807.43,995.506 1800.5,994C 1796.03,992.226 1794.19,989.06 1795,984.5C 1801.33,963.505 1807.66,942.505 1814,921.5C 1823.06,884.591 1833.06,847.924 1844,811.5C 1848.11,799.277 1852.78,787.277 1858,775.5C 1859.15,774.364 1860.31,773.364 1861.5,772.5 Z"/></g>
<g><path style="opacity:1" fill="#353535" d="M 2238.5,772.5 C 2247.84,772.221 2256.84,773.721 2265.5,777C 2267.45,778.439 2268.78,780.272 2269.5,782.5C 2262.24,800.106 2256.08,818.106 2251,836.5C 2241.33,871.841 2231.66,907.174 2222,942.5C 2219.88,952.459 2222.05,961.292 2228.5,969C 2244.66,978.088 2258.16,974.921 2269,959.5C 2270.53,956.583 2271.86,953.583 2273,950.5C 2281.01,920.49 2289.01,890.49 2297,860.5C 2298.95,858.106 2301.45,856.606 2304.5,856C 2314.12,853.91 2323.62,854.076 2333,856.5C 2333.67,858.833 2333.67,861.167 2333,863.5C 2324.12,897.364 2314.45,931.031 2304,964.5C 2288.28,995.076 2263.78,1005.91 2230.5,997C 2214.5,988.849 2206.83,975.683 2207.5,957.5C 2191.32,960.143 2184.15,953.477 2186,937.5C 2197.54,895.491 2209.2,853.491 2221,811.5C 2225.11,799.277 2229.78,787.277 2235,775.5C 2236.15,774.364 2237.31,773.364 2238.5,772.5 Z"/></g>
<g><path style="opacity:1" fill="#f4f4f4" d="M 1019.5,780.5 C 1028.33,780.637 1031,784.637 1027.5,792.5C 1024.11,796.477 1020.11,797.311 1015.5,795C 1012.11,788.918 1013.44,784.085 1019.5,780.5 Z"/></g>
<g><path style="opacity:1" fill="#373737" d="M 1625.5,788.5 C 1633.42,788.635 1636.25,792.635 1634,800.5C 1633.05,802.57 1631.55,804.07 1629.5,805C 1607.94,808.565 1586.44,812.398 1565,816.5C 1563.01,815.846 1561.68,814.513 1561,812.5C 1559.35,807.063 1560.85,802.897 1565.5,800C 1585.67,796.386 1605.67,792.553 1625.5,788.5 Z"/></g>
<g><path style="opacity:1" fill="#373737" d="M 2345.5,795.5 C 2354.57,794.595 2357.73,798.595 2355,807.5C 2354.17,809.667 2352.67,811.167 2350.5,812C 2329.07,815.294 2307.73,819.128 2286.5,823.5C 2284.23,823.069 2282.73,821.736 2282,819.5C 2280.63,814.563 2281.8,810.396 2285.5,807C 2305.67,803.386 2325.67,799.553 2345.5,795.5 Z"/></g>
<g><path style="opacity:1" fill="#353535" d="M 2016.5,854.5 C 2030,854.484 2043.34,855.984 2056.5,859C 2058.33,859.5 2059.5,860.667 2060,862.5C 2061.52,868.877 2060.02,874.377 2055.5,879C 2053.97,879.923 2052.3,880.423 2050.5,880.5C 2012.71,874.965 1988.21,890.298 1977,926.5C 1973.28,955.902 1985.11,976.069 2012.5,987C 2042.95,994.082 2070.95,988.749 2096.5,971C 2102.59,965.581 2107.09,959.081 2110,951.5C 2118.49,921.216 2126.82,890.882 2135,860.5C 2138.15,857.333 2141.99,855.499 2146.5,855C 2153.5,854.333 2160.5,854.333 2167.5,855C 2170.05,855.436 2171.38,856.936 2171.5,859.5C 2162.39,894.338 2152.56,929.005 2142,963.5C 2133.78,980.056 2121.28,992.223 2104.5,1000C 2067.25,1015.14 2029.25,1017.48 1990.5,1007C 1953.91,991.357 1937.08,963.523 1940,923.5C 1949.31,882.351 1974.81,859.351 2016.5,854.5 Z"/></g>
<g><path style="opacity:1" fill="#fdfdfd" d="M 1223.5,873.5 C 1235.29,872.902 1246.96,873.735 1258.5,876C 1273.37,881.904 1279.2,892.738 1276,908.5C 1273.1,923.737 1265.6,936.237 1253.5,946C 1242.03,954.824 1229.53,961.99 1216,967.5C 1195.25,953.012 1184.75,933.012 1184.5,907.5C 1184.65,898.29 1185.98,889.29 1188.5,880.5C 1200.23,877.761 1211.9,875.427 1223.5,873.5 Z"/></g>
<g><path style="opacity:1" fill="#363636" d="M 2240.5,1027.5 C 2252.54,1026.06 2259.54,1031.22 2261.5,1043C 2260.14,1057.68 2252.14,1064.34 2237.5,1063C 2225.43,1056.78 2222.6,1047.61 2229,1035.5C 2232.48,1032.16 2236.32,1029.49 2240.5,1027.5 Z"/></g>
<g><path style="opacity:1" fill="#353535" d="M 2029.5,1039.5 C 2048.2,1038.27 2055.03,1046.6 2050,1064.5C 2043.24,1074.31 2034.41,1076.81 2023.5,1072C 2015.77,1064.45 2014.6,1055.95 2020,1046.5C 2022.79,1043.53 2025.96,1041.2 2029.5,1039.5 Z"/></g>
<g><path style="opacity:1" fill="#363636" d="M 794.5,1039.5 C 802.819,1039.34 805.652,1043.34 803,1051.5C 802.167,1053.67 800.667,1055.17 798.5,1056C 777.01,1059.91 755.51,1063.75 734,1067.5C 732.739,1067.24 731.739,1066.57 731,1065.5C 729.632,1062.26 729.299,1058.93 730,1055.5C 730.833,1053.33 732.333,1051.83 734.5,1051C 754.743,1047.69 774.743,1043.85 794.5,1039.5 Z"/></g>
<g><path style="opacity:1" fill="#184266" d="M 2976.5,1087.5 C 2978.24,1105.6 2980.74,1123.6 2984,1141.5C 2987.51,1157.52 2992.67,1172.85 2999.5,1187.5C 2999.5,1270.83 2999.5,1354.17 2999.5,1437.5C 2966.19,1505.92 2922.19,1566.76 2867.5,1620C 2832.64,1652.94 2792.97,1678.61 2748.5,1697C 2684.83,1720.24 2623.16,1715.91 2563.5,1684C 2526.13,1662.02 2493.96,1633.85 2467,1599.5C 2441.9,1569.62 2426.23,1535.29 2420,1496.5C 2415.37,1440.91 2437.87,1400.75 2487.5,1376C 2516.22,1364.07 2545.89,1355.07 2576.5,1349C 2678.73,1320.01 2766.23,1267.18 2839,1190.5C 2853.67,1173.83 2868.33,1157.17 2883,1140.5C 2897.36,1125.13 2913.2,1111.63 2930.5,1100C 2944.57,1091.15 2959.91,1086.98 2976.5,1087.5 Z"/></g>
<g><path style="opacity:1" fill="#363636" d="M 1325.5,1168.5 C 1342.9,1169.97 1347.07,1178.31 1338,1193.5C 1327.21,1206.48 1313.38,1214.15 1296.5,1216.5C 1290.75,1215.01 1288.58,1211.34 1290,1205.5C 1297.2,1202.54 1304.36,1199.37 1311.5,1196C 1313.24,1194.38 1315.07,1192.88 1317,1191.5C 1313.1,1181.3 1315.94,1173.64 1325.5,1168.5 Z"/></g>
<g><path style="opacity:1" fill="#373737" d="M 1547.5,1177.5 C 1556.1,1178.02 1558.6,1182.35 1555,1190.5C 1553.83,1191.67 1552.67,1192.83 1551.5,1194C 1529.84,1196.96 1508.34,1200.79 1487,1205.5C 1485.39,1204.9 1484.06,1203.9 1483,1202.5C 1482.33,1199.17 1482.33,1195.83 1483,1192.5C 1483.5,1190.67 1484.67,1189.5 1486.5,1189C 1507.01,1185.36 1527.34,1181.53 1547.5,1177.5 Z"/></g>
<g><path style="opacity:1" fill="#363636" d="M 1739.5,1187.5 C 1748.1,1188.02 1750.6,1192.35 1747,1200.5C 1746.5,1202.33 1745.33,1203.5 1743.5,1204C 1721.94,1207.56 1700.44,1211.4 1679,1215.5C 1677.01,1214.85 1675.68,1213.51 1675,1211.5C 1673.35,1206.06 1674.85,1201.9 1679.5,1199C 1699.67,1195.39 1719.67,1191.55 1739.5,1187.5 Z"/></g>
<g><path style="opacity:1" fill="#353535" d="M 1524.5,1239.5 C 1540.33,1238.72 1556,1239.88 1571.5,1243C 1594.25,1248.96 1605.58,1263.79 1605.5,1287.5C 1605.22,1305.33 1601.38,1322.33 1594,1338.5C 1591.84,1350.73 1595.01,1361.23 1603.5,1370C 1618.07,1376.48 1630.23,1373.32 1640,1360.5C 1641.92,1357.66 1643.59,1354.66 1645,1351.5C 1646.62,1328.63 1653.46,1307.46 1665.5,1288C 1675.6,1284.2 1685.93,1283.53 1696.5,1286C 1698.18,1286.35 1699.18,1287.35 1699.5,1289C 1690.21,1306.38 1684.87,1324.88 1683.5,1344.5C 1683.04,1354.48 1685.21,1363.81 1690,1372.5C 1696.82,1379.89 1704.32,1380.39 1712.5,1374C 1724.47,1363.23 1731.64,1349.73 1734,1333.5C 1737.08,1318.05 1735.75,1303.05 1730,1288.5C 1725.41,1280.59 1718.58,1275.76 1709.5,1274C 1700.13,1273.32 1690.8,1273.65 1681.5,1275C 1674.19,1277.06 1666.86,1278.73 1659.5,1280C 1658.3,1279.1 1657.47,1277.93 1657,1276.5C 1655.53,1270.92 1656.7,1266.09 1660.5,1262C 1686.35,1249.65 1713.01,1247.32 1740.5,1255C 1763.59,1266.82 1774.92,1285.82 1774.5,1312C 1773.47,1349.96 1756.47,1377.96 1723.5,1396C 1709.38,1402.38 1694.71,1404.04 1679.5,1401C 1668.37,1397.18 1659.53,1390.35 1653,1380.5C 1641.23,1395.24 1626.06,1400.41 1607.5,1396C 1595.86,1391.69 1588.36,1383.53 1585,1371.5C 1583.61,1366.24 1582.61,1360.91 1582,1355.5C 1568.33,1371.43 1551.83,1383.59 1532.5,1392C 1485.82,1412.41 1437.82,1416.41 1388.5,1404C 1373.1,1398.73 1360.27,1389.9 1350,1377.5C 1344.48,1368.62 1341.15,1358.95 1340,1348.5C 1326.94,1373.57 1306.77,1389.73 1279.5,1397C 1261.91,1401.29 1246.75,1397.12 1234,1384.5C 1224.79,1370.76 1222.12,1355.76 1226,1339.5C 1238.58,1295.92 1266.41,1267.09 1309.5,1253C 1331.9,1247.79 1352.9,1251.12 1372.5,1263C 1376.3,1265.8 1379.8,1268.96 1383,1272.5C 1381.43,1280.92 1376.6,1286.92 1368.5,1290.5C 1334.95,1266.77 1305.45,1271.11 1280,1303.5C 1268.77,1318.53 1262.27,1335.36 1260.5,1354C 1260.55,1372.34 1268.55,1376.67 1284.5,1367C 1297.34,1356.5 1307.17,1343.66 1314,1328.5C 1319.45,1316.8 1324.12,1304.8 1328,1292.5C 1330.65,1290.06 1333.82,1289.06 1337.5,1289.5C 1345.73,1289.52 1352.9,1292.19 1359,1297.5C 1356.95,1307.69 1353.95,1317.69 1350,1327.5C 1347.98,1344.29 1354.15,1357.13 1368.5,1366C 1392.63,1378.52 1418.3,1383.19 1445.5,1380C 1457.69,1379.48 1469.69,1377.81 1481.5,1375C 1463.29,1359.41 1453.46,1339.58 1452,1315.5C 1451.43,1307.45 1451.43,1299.45 1452,1291.5C 1445.91,1294.46 1439.74,1297.3 1433.5,1300C 1430.97,1300.9 1428.81,1300.4 1427,1298.5C 1427.26,1288.7 1428.6,1279.03 1431,1269.5C 1446.72,1258.89 1463.89,1251.39 1482.5,1247C 1496.5,1243.7 1510.5,1241.2 1524.5,1239.5 Z"/></g>
<g><path style="opacity:1" fill="#ffb34f" d="M -0.5,1242.5 C 7.07409,1259.65 15.2408,1276.65 24,1293.5C 54.5,1350.67 98.3333,1394.5 155.5,1425C 196.31,1446.16 239.644,1454.82 285.5,1451C 316.798,1445.9 345.798,1434.9 372.5,1418C 404.77,1395.36 435.77,1371.02 465.5,1345C 477.656,1335.76 489.989,1326.76 502.5,1318C 524.764,1302.7 549.097,1292.04 575.5,1286C 634.866,1277.68 687.2,1293.01 732.5,1332C 776.831,1371.17 796.997,1420.34 793,1479.5C 788.572,1515.46 779.238,1550.12 765,1583.5C 751.609,1615.01 738.609,1646.67 726,1678.5C 717.217,1702.75 711.884,1727.75 710,1753.5C 707.759,1782.52 711.092,1810.86 720,1838.5C 736.14,1881.64 766.973,1906.8 812.5,1914C 835.203,1915.87 857.536,1913.87 879.5,1908C 902.332,1901.39 924.666,1893.39 946.5,1884C 1060.83,1833.67 1175.17,1783.33 1289.5,1733C 1305.52,1725.88 1321.85,1719.55 1338.5,1714C 1363.36,1705.91 1388.86,1701.41 1415,1700.5C 1435.41,1700.59 1454.57,1705.43 1472.5,1715C 1505.05,1737.6 1518.89,1768.77 1514,1808.5C 1509.93,1838.72 1500.26,1867.05 1485,1893.5C 1470.94,1915.9 1457.27,1938.57 1444,1961.5C 1437.33,1973.83 1431.5,1986.5 1426.5,1999.5C 950.833,1999.5 475.167,1999.5 -0.5,1999.5C -0.5,1747.17 -0.5,1494.83 -0.5,1242.5 Z"/></g>
<g><path style="opacity:1" fill="#fdfdfd" d="M 1519.5,1272.5 C 1529.17,1272.33 1538.84,1272.5 1548.5,1273C 1564.05,1275.71 1572.39,1284.88 1573.5,1300.5C 1572.59,1318.82 1564.92,1333.65 1550.5,1345C 1539.03,1353.82 1526.53,1360.99 1513,1366.5C 1492.25,1352.01 1481.75,1332.01 1481.5,1306.5C 1481.65,1297.29 1482.98,1288.29 1485.5,1279.5C 1496.85,1276.63 1508.18,1274.3 1519.5,1272.5 Z"/></g>
<g><path style="opacity:1" fill="#184266" d="M 2999.5,1526.5 C 2999.5,1684.17 2999.5,1841.83 2999.5,1999.5C 2849.17,1999.5 2698.83,1999.5 2548.5,1999.5C 2552.74,1993.09 2557.57,1987.09 2563,1981.5C 2589.21,1954.85 2617.38,1930.68 2647.5,1909C 2684.63,1883.88 2720.63,1857.21 2755.5,1829C 2855.82,1743.03 2937.15,1642.2 2999.5,1526.5 Z"/></g>
<g><path style="opacity:1" fill="#184266" d="M 2497.5,1999.5 C 2376.83,1999.5 2256.17,1999.5 2135.5,1999.5C 2134.44,1973.84 2134.28,1948.18 2135,1922.5C 2136.98,1889.93 2143.31,1858.26 2154,1827.5C 2179.87,1754.96 2229.37,1706.79 2302.5,1683C 2343.87,1671.55 2385.87,1668.55 2428.5,1674C 2472.88,1677.54 2512.21,1693.21 2546.5,1721C 2574.35,1747.55 2586.18,1780.05 2582,1818.5C 2577.09,1842.9 2568.42,1865.9 2556,1887.5C 2545,1906.17 2534,1924.83 2523,1943.5C 2513.12,1961.59 2504.62,1980.26 2497.5,1999.5 Z"/></g>
</svg>
