<?xml version="1.0" encoding="UTF-8"?>
<!DOCTYPE svg PUBLIC "-//W3C//DTD SVG 1.1//EN" "http://www.w3.org/Graphics/SVG/1.1/DTD/svg11.dtd">
<svg xmlns="http://www.w3.org/2000/svg" version="1.1" width="3000px" height="2000px" style="shape-rendering:geometricPrecision; text-rendering:geometricPrecision; image-rendering:optimizeQuality; fill-rule:evenodd; clip-rule:evenodd" xmlns:xlink="http://www.w3.org/1999/xlink">
<g><path style="opacity:1" fill="#fdb24f" d="M -0.5,-0.5 C 17.8333,-0.5 36.1667,-0.5 54.5,-0.5C 36.9941,11.4254 18.6608,22.0921 -0.5,31.5C -0.5,20.8333 -0.5,10.1667 -0.5,-0.5 Z"/></g>
<g><path style="opacity:1" fill="#184265" d="M 54.5,-0.5 C 165.167,-0.5 275.833,-0.5 386.5,-0.5C 366.595,53.1526 339.762,102.819 306,148.5C 290.234,167.601 273.068,185.434 254.5,202C 223.015,227.241 191.348,252.241 159.5,277C 106.004,323.143 62.1705,376.977 28,438.5C 18.2161,456.403 8.71615,474.403 -0.5,492.5C -0.5,338.833 -0.5,185.167 -0.5,31.5C 18.6608,22.0921 36.9941,11.4254 54.5,-0.5 Z"/></g>
<g><path style="opacity:1" fill="#fdb24f" d="M 386.5,-0.5 C 401.5,-0.5 416.5,-0.5 431.5,-0.5C 408.849,65.2092 376.682,125.543 335,180.5C 309.747,209.754 281.914,236.254 251.5,260C 217.426,284.062 185.093,310.395 154.5,339C 116.146,378.684 83.9789,422.85 58,471.5C 36.2614,512.967 16.7614,555.3 -0.5,598.5C -0.5,563.167 -0.5,527.833 -0.5,492.5C 8.71615,474.403 18.2161,456.403 28,438.5C 62.1705,376.977 106.004,323.143 159.5,277C 191.348,252.241 223.015,227.241 254.5,202C 273.068,185.434 290.234,167.601 306,148.5C 339.762,102.819 366.595,53.1526 386.5,-0.5 Z"/></g>
<g><path style="opacity:1" fill="#184266" d="M 431.5,-0.5 C 689.5,-0.5 947.5,-0.5 1205.5,-0.5C 1168.52,156.824 1095.02,293.824 985,410.5C 923.585,473.907 852.752,524.074 772.5,561C 732.445,577.463 691.445,591.129 649.5,602C 600.076,613.44 551.742,628.44 504.5,647C 438.147,676.106 380.647,717.606 332,771.5C 298.665,808.49 267.998,847.49 240,888.5C 194.84,957.322 148.506,1025.32 101,1092.5C 81.1314,1118.71 60.1314,1144.04 38,1168.5C 25.6012,1181.4 12.7679,1193.73 -0.5,1205.5C -0.5,1003.17 -0.5,800.833 -0.5,598.5C 16.7614,555.3 36.2614,512.967 58,471.5C 83.9789,422.85 116.146,378.684 154.5,339C 185.093,310.395 217.426,284.062 251.5,260C 281.914,236.254 309.747,209.754 335,180.5C 376.682,125.543 408.849,65.2092 431.5,-0.5 Z"/></g>
<g><path style="opacity:1" fill="#fefefe" d="M 1205.5,-0.5 C 1363.17,-0.5 1520.83,-0.5 1678.5,-0.5C 1735.36,17.5209 1777.86,52.8542 1806,105.5C 1812.86,117.888 1819.19,130.554 1825,143.5C 1839.89,179.275 1854.22,215.275 1868,251.5C 1885.33,295.205 1909,334.872 1939,370.5C 1965.83,400.17 1998.66,420.003 2037.5,430C 2045.77,431.697 2054.11,433.031 2062.5,434C 2263.12,431.436 2458.12,397.103 2647.5,331C 2770.03,288.229 2887.37,234.396 2999.5,169.5C 2999.5,433.5 2999.5,697.5 2999.5,961.5C 2953.33,927.903 2903.33,900.737 2849.5,880C 2712.3,830.706 2577.97,837.372 2446.5,900C 2320.01,965.759 2234.84,1066.59 2191,1202.5C 2171.83,1268.52 2165.17,1335.85 2171,1404.5C 2177.42,1468.79 2186.09,1532.79 2197,1596.5C 2207.17,1657.75 2211.51,1719.42 2210,1781.5C 2206.83,1840.85 2191.5,1896.85 2164,1949.5C 2154.74,1966.57 2144.9,1983.24 2134.5,1999.5C 1775.83,1999.5 1417.17,1999.5 1058.5,1999.5C 1062.18,1949.36 1051.68,1902.36 1027,1858.5C 1004.19,1820.11 976.019,1785.94 942.5,1756C 893.262,1713.02 838.595,1678.02 778.5,1651C 716.559,1621.93 651.559,1603.93 583.5,1597C 535.55,1593.59 487.884,1595.93 440.5,1604C 424.487,1606.91 408.487,1609.91 392.5,1613C 329.006,1627.71 265.673,1643.04 202.5,1659C 157.095,1669.81 111.095,1676.48 64.5,1679C 42.7821,1679.98 21.1155,1679.48 -0.5,1677.5C -0.5,1520.17 -0.5,1362.83 -0.5,1205.5C 12.7679,1193.73 25.6012,1181.4 38,1168.5C 60.1314,1144.04 81.1314,1118.71 101,1092.5C 148.506,1025.32 194.84,957.322 240,888.5C 267.998,847.49 298.665,808.49 332,771.5C 380.647,717.606 438.147,676.106 504.5,647C 551.742,628.44 600.076,613.44 649.5,602C 691.445,591.129 732.445,577.463 772.5,561C 852.752,524.074 923.585,473.907 985,410.5C 1095.02,293.824 1168.52,156.824 1205.5,-0.5 Z"/></g>
<g><path style="opacity:1" fill="#ffb350" d="M 1678.5,-0.5 C 1705.5,-0.5 1732.5,-0.5 1759.5,-0.5C 1788.39,21.2219 1812.22,47.5552 1831,78.5C 1841.12,96.3965 1850.45,114.73 1859,133.5C 1876.28,177.327 1893.94,220.993 1912,264.5C 1928.65,301.981 1951.82,334.814 1981.5,363C 2004.57,382.702 2031.23,394.702 2061.5,399C 2133.9,399.456 2205.9,394.456 2277.5,384C 2535.22,346.154 2775.89,260.988 2999.5,128.5C 2999.5,142.167 2999.5,155.833 2999.5,169.5C 2887.37,234.396 2770.03,288.229 2647.5,331C 2458.12,397.103 2263.12,431.436 2062.5,434C 2054.11,433.031 2045.77,431.697 2037.5,430C 1998.66,420.003 1965.83,400.17 1939,370.5C 1909,334.872 1885.33,295.205 1868,251.5C 1854.22,215.275 1839.89,179.275 1825,143.5C 1819.19,130.554 1812.86,117.888 1806,105.5C 1777.86,52.8542 1735.36,17.5209 1678.5,-0.5 Z"/></g>
<g><path style="opacity:1" fill="#fffefe" d="M 1759.5,-0.5 C 1863.5,-0.5 1967.5,-0.5 2071.5,-0.5C 2118.85,46.0387 2173.51,81.872 2235.5,107C 2336.78,146.988 2441.12,157.322 2548.5,138C 2624.1,125.132 2696.77,102.799 2766.5,71C 2814.19,49.9893 2860.19,26.1559 2904.5,-0.5C 2936.17,-0.5 2967.83,-0.5 2999.5,-0.5C 2999.5,42.5 2999.5,85.5 2999.5,128.5C 2775.89,260.988 2535.22,346.154 2277.5,384C 2205.9,394.456 2133.9,399.456 2061.5,399C 2031.23,394.702 2004.57,382.702 1981.5,363C 1951.82,334.814 1928.65,301.981 1912,264.5C 1893.94,220.993 1876.28,177.327 1859,133.5C 1850.45,114.73 1841.12,96.3965 1831,78.5C 1812.22,47.5552 1788.39,21.2219 1759.5,-0.5 Z"/></g>
<g><path style="opacity:1" fill="#ffb350" d="M 2071.5,-0.5 C 2088.83,-0.5 2106.17,-0.5 2123.5,-0.5C 2177.08,43.7966 2237.75,75.2966 2305.5,94C 2358.53,108.61 2412.53,114.276 2467.5,111C 2517.7,108.893 2567.04,101.226 2615.5,88C 2691.13,67.0078 2763.13,37.5078 2831.5,-0.5C 2855.83,-0.5 2880.17,-0.5 2904.5,-0.5C 2860.19,26.1559 2814.19,49.9893 2766.5,71C 2696.77,102.799 2624.1,125.132 2548.5,138C 2441.12,157.322 2336.78,146.988 2235.5,107C 2173.51,81.872 2118.85,46.0387 2071.5,-0.5 Z"/></g>
<g><path style="opacity:1" fill="#fffefe" d="M 2123.5,-0.5 C 2359.5,-0.5 2595.5,-0.5 2831.5,-0.5C 2763.13,37.5078 2691.13,67.0078 2615.5,88C 2567.04,101.226 2517.7,108.893 2467.5,111C 2412.53,114.276 2358.53,108.61 2305.5,94C 2237.75,75.2966 2177.08,43.7966 2123.5,-0.5 Z"/></g>
<g><path style="opacity:1" fill="#373737" d="M 1647.5,479.5 C 1650.09,480.254 1651.92,481.921 1653,484.5C 1660.74,499.201 1660.07,513.535 1651,527.5C 1639.89,539.03 1628.56,539.363 1617,528.5C 1611.34,515.635 1612.68,503.635 1621,492.5C 1622.5,492.667 1623.33,493.5 1623.5,495C 1621.75,509.903 1628.41,515.903 1643.5,513C 1645.75,511.623 1647.92,510.123 1650,508.5C 1650.67,507.167 1650.67,505.833 1650,504.5C 1646.85,500.346 1643.35,496.513 1639.5,493C 1641.98,488.362 1644.65,483.862 1647.5,479.5 Z"/></g>
<g><path style="opacity:1" fill="#363636" d="M 1521.5,516.5 C 1529.61,515.248 1535.44,518.248 1539,525.5C 1539.67,530.5 1539.67,535.5 1539,540.5C 1537.83,544.531 1536.66,548.531 1535.5,552.5C 1539.6,552.142 1543.6,552.142 1547.5,552.5C 1545.02,559.28 1542.35,565.947 1539.5,572.5C 1533.67,573.672 1528,573.005 1522.5,570.5C 1517.01,575.481 1510.68,578.981 1503.5,581C 1490.96,580.733 1480.29,576.066 1471.5,567C 1483.43,563.845 1495.43,561.012 1507.5,558.5C 1504.19,551.066 1503.69,543.399 1506,535.5C 1507.73,531.047 1509.73,526.714 1512,522.5C 1514.84,519.837 1518.01,517.837 1521.5,516.5 Z"/></g>
<g><path style="opacity:1" fill="#383838" d="M 1774.5,523.5 C 1775.79,527.267 1776.46,531.267 1776.5,535.5C 1754.86,542.738 1733.36,550.404 1712,558.5C 1710.86,556.321 1710.02,553.988 1709.5,551.5C 1710.09,550.201 1711.09,549.368 1712.5,549C 1733.37,540.723 1754.04,532.223 1774.5,523.5 Z"/></g>
<g><path style="opacity:1" fill="#f3f3f3" d="M 1514.5,538.5 C 1524.78,537.448 1529.45,542.115 1528.5,552.5C 1520.69,552.1 1515.03,548.433 1511.5,541.5C 1512.77,540.712 1513.77,539.712 1514.5,538.5 Z"/></g>
<g><path style="opacity:1" fill="#363636" d="M 1635.5,571.5 C 1636.82,571.33 1637.99,571.663 1639,572.5C 1644.67,582.505 1650.83,592.172 1657.5,601.5C 1648.5,607.5 1639.5,613.5 1630.5,619.5C 1620.84,612.005 1613.17,602.838 1607.5,592C 1616.63,584.93 1625.96,578.097 1635.5,571.5 Z"/></g>
<g><path style="opacity:1" fill="#353535" d="M 1733.5,582.5 C 1745.06,581.321 1756.06,583.154 1766.5,588C 1769,589.167 1770.83,591 1772,593.5C 1773.42,624.267 1762.92,650.1 1740.5,671C 1731.31,675.842 1721.65,679.508 1711.5,682C 1681.71,687.732 1651.71,692.065 1621.5,695C 1614.38,695.872 1607.38,697.206 1600.5,699C 1618.84,700.901 1636.84,704.401 1654.5,709.5C 1655.12,722.36 1653.62,735.027 1650,747.5C 1647.4,755.975 1644.4,764.308 1641,772.5C 1639.29,776.873 1636.79,780.707 1633.5,784C 1615.81,794.787 1596.81,802.454 1576.5,807C 1558.81,810.41 1540.98,812.576 1523,813.5C 1510.56,814.122 1498.73,811.789 1487.5,806.5C 1461.74,819.329 1434.4,825.996 1405.5,826.5C 1404.35,826.818 1403.52,827.484 1403,828.5C 1398.23,855.23 1385.39,877.063 1364.5,894C 1346.55,904.713 1327.55,907.047 1307.5,901C 1292.77,896.969 1279.44,890.303 1267.5,881C 1305.07,868.92 1342.07,855.253 1378.5,840C 1379.06,839.275 1379.39,838.442 1379.5,837.5C 1378.51,834.218 1377.85,830.885 1377.5,827.5C 1366.05,828.051 1354.71,827.218 1343.5,825C 1332.67,819.353 1330.5,811.186 1337,800.5C 1346.06,781.871 1359.56,767.371 1377.5,757C 1385.45,753.803 1391.95,755.636 1397,762.5C 1399.59,767.181 1401.76,772.015 1403.5,777C 1420.22,776.239 1436.89,774.739 1453.5,772.5C 1453.76,757.708 1457.26,743.708 1464,730.5C 1468.41,722.005 1473.08,713.672 1478,705.5C 1488.54,693.567 1501.71,689.067 1517.5,692C 1536.67,695.161 1545.17,706.327 1543,725.5C 1541.41,739.019 1537.24,751.686 1530.5,763.5C 1564.05,762.789 1597.05,757.956 1629.5,749C 1605.19,742.979 1580.52,739.146 1555.5,737.5C 1562.55,710.578 1573.55,685.411 1588.5,662C 1605.8,654.122 1623.8,648.455 1642.5,645C 1661.74,641.678 1681.08,639.178 1700.5,637.5C 1699.12,631.143 1699.29,624.81 1701,618.5C 1703.41,610.937 1706.41,603.603 1710,596.5C 1716.25,589.129 1724.08,584.462 1733.5,582.5 Z"/></g>
<g><path style="opacity:1" fill="#353535" d="M 1511.5,619.5 C 1513.02,619.511 1514.18,620.177 1515,621.5C 1520.42,631.348 1526.59,640.681 1533.5,649.5C 1524.57,655.879 1515.41,661.879 1506,667.5C 1496.07,660.011 1488.24,650.678 1482.5,639.5C 1492.41,633.058 1502.07,626.391 1511.5,619.5 Z"/></g>
<g><path style="opacity:1" fill="#383838" d="M 1263.5,631.5 C 1265.12,632.589 1265.95,634.256 1266,636.5C 1266.76,638.769 1266.59,640.936 1265.5,643C 1243.89,650.813 1222.23,658.313 1200.5,665.5C 1199.8,662.756 1199.8,660.089 1200.5,657.5C 1221.7,649.057 1242.7,640.39 1263.5,631.5 Z"/></g>
<g><path style="opacity:1" fill="#373737" d="M 1381.5,666.5 C 1384.09,667.254 1385.92,668.921 1387,671.5C 1394.74,686.201 1394.07,700.535 1385,714.5C 1373.89,726.03 1362.56,726.363 1351,715.5C 1345.34,702.635 1346.68,690.635 1355,679.5C 1356.5,679.667 1357.33,680.5 1357.5,682C 1355.75,696.903 1362.41,702.903 1377.5,700C 1379.75,698.623 1381.92,697.123 1384,695.5C 1384.67,694.167 1384.67,692.833 1384,691.5C 1380.85,687.346 1377.35,683.513 1373.5,680C 1375.98,675.362 1378.65,670.862 1381.5,666.5 Z"/></g>
<g><path style="opacity:1" fill="#373737" d="M 1986.5,684.5 C 2001.29,684.374 2007.46,691.707 2005,706.5C 2003.65,710.9 2002.15,715.233 2000.5,719.5C 2004.46,720.367 2008.46,720.367 2012.5,719.5C 2010.52,726.952 2007.85,734.119 2004.5,741C 1998.71,742.038 1993.21,741.205 1988,738.5C 1983.84,741.318 1979.68,744.152 1975.5,747C 1968.48,750.254 1961.48,750.254 1954.5,747C 1948.46,744.29 1942.96,740.79 1938,736.5C 1937.31,735.668 1937.48,735.002 1938.5,734.5C 1949.7,731.598 1960.87,728.598 1972,725.5C 1967.85,713.06 1969.68,701.393 1977.5,690.5C 1980.39,688.228 1983.39,686.228 1986.5,684.5 Z"/></g>
<g><path style="opacity:1" fill="#353535" d="M 1236.5,690.5 C 1243.6,700.514 1250.6,710.68 1257.5,721C 1248.42,727.291 1239.25,733.457 1230,739.5C 1220.4,731.461 1212.56,721.961 1206.5,711C 1216.68,704.304 1226.68,697.47 1236.5,690.5 Z"/></g>
<g><path style="opacity:1" fill="#353535" d="M 2140.5,700.5 C 2141.5,700.5 2142.5,700.5 2143.5,700.5C 2144.21,750.374 2141.21,800.04 2134.5,849.5C 2152.26,848.324 2169.76,845.657 2187,841.5C 2187.95,841.095 2188.61,840.428 2189,839.5C 2191.38,829.861 2193.55,820.195 2195.5,810.5C 2199.17,810.5 2202.83,810.5 2206.5,810.5C 2203.44,837.895 2196.11,864.062 2184.5,889C 2160.2,895.2 2135.53,899.033 2110.5,900.5C 2108.04,845.465 2105.21,790.465 2102,735.5C 2113.18,721.808 2126.02,710.141 2140.5,700.5 Z"/></g>
<g><path style="opacity:1" fill="#353535" d="M 1081.5,700.5 C 1082.93,700.881 1083.76,701.881 1084,703.5C 1084.57,752.413 1081.41,801.08 1074.5,849.5C 1092.1,848.23 1109.43,845.397 1126.5,841C 1128.66,840.086 1130.66,838.919 1132.5,837.5C 1134.47,832.573 1136.13,827.573 1137.5,822.5C 1141.14,823.114 1144.8,823.448 1148.5,823.5C 1146.51,830.452 1145.01,837.452 1144,844.5C 1150.78,843.292 1157.61,842.292 1164.5,841.5C 1170.01,823.124 1177.18,805.457 1186,788.5C 1201.05,766.595 1221.55,758.428 1247.5,764C 1255.88,768.249 1260.72,775.082 1262,784.5C 1264.38,811.033 1258.71,835.7 1245,858.5C 1237.59,866.457 1228.76,872.29 1218.5,876C 1199.9,882.257 1180.9,886.757 1161.5,889.5C 1160.04,895.213 1158.37,900.88 1156.5,906.5C 1153.3,906.823 1149.96,906.823 1146.5,906.5C 1147.03,901.4 1148.03,896.4 1149.5,891.5C 1136.92,893.655 1124.26,894.989 1111.5,895.5C 1112.35,892.84 1112.85,890.174 1113,887.5C 1106.89,890.983 1100.39,893.483 1093.5,895C 1079.2,897.108 1064.87,898.941 1050.5,900.5C 1049.76,877.834 1048.93,855.167 1048,832.5C 1045.87,800.149 1043.87,767.815 1042,735.5C 1053.82,722.168 1066.99,710.501 1081.5,700.5 Z"/></g>
<g><path style="opacity:1" fill="#f5f5f5" d="M 1980.5,706.5 C 1990.3,705.973 1994.64,710.639 1993.5,720.5C 1986,719.589 1980.33,715.922 1976.5,709.5C 1977.9,708.479 1979.23,707.479 1980.5,706.5 Z"/></g>
<g><path style="opacity:1" fill="#353535" d="M 941.5,724.5 C 942.833,724.5 944.167,724.5 945.5,724.5C 943.5,735.832 941.5,747.165 939.5,758.5C 919.803,762.341 900.137,766.341 880.5,770.5C 881.532,760.093 883.532,749.926 886.5,740C 905.115,735.331 923.448,730.164 941.5,724.5 Z"/></g>
<g><path style="opacity:1" fill="#f9f9f9" d="M 1486.5,736.5 C 1498.44,735.07 1509.44,737.57 1519.5,744C 1513.44,750.731 1506.27,755.898 1498,759.5C 1488.32,756.423 1481.49,750.256 1477.5,741C 1480.3,739.055 1483.3,737.555 1486.5,736.5 Z"/></g>
<g><path style="opacity:1" fill="#383838" d="M 2222.5,742.5 C 2223.79,744.048 2224.46,746.048 2224.5,748.5C 2224.17,750.5 2223.83,752.5 2223.5,754.5C 2202.28,762.073 2181.11,769.74 2160,777.5C 2158.41,774.693 2157.91,771.86 2158.5,769C 2180.05,760.434 2201.39,751.6 2222.5,742.5 Z"/></g>
<g><path style="opacity:1" fill="#353535" d="M 990.5,759.5 C 1003.76,769.324 1012.6,782.324 1017,798.5C 1016.73,821.99 1010.73,843.99 999,864.5C 994.421,870.074 988.921,874.574 982.5,878C 937.496,899.75 890.163,907.75 840.5,902C 822.001,898.836 806.501,890.336 794,876.5C 786.244,864.76 784.91,852.426 790,839.5C 802.423,812 819.757,788 842,767.5C 844.856,776.714 846.856,786.047 848,795.5C 837.075,803.754 826.742,812.754 817,822.5C 816.262,825.212 816.929,827.545 819,829.5C 826.658,839.135 836.491,845.635 848.5,849C 868.272,853.303 888.272,854.636 908.5,853C 936.676,852.167 963.843,846.667 990,836.5C 990.315,835.092 989.982,833.759 989,832.5C 978.868,820.034 967.701,808.534 955.5,798C 967.765,785.575 979.431,772.742 990.5,759.5 Z"/></g>
<g><path style="opacity:1" fill="#353535" d="M 2050.5,759.5 C 2054.4,761.893 2057.9,764.893 2061,768.5C 2068.19,777.871 2073.52,788.205 2077,799.5C 2076.19,821.731 2070.52,842.731 2060,862.5C 2055.01,869.75 2048.51,875.25 2040.5,879C 1996,899.862 1949.33,907.528 1900.5,902C 1881.12,899.235 1865.29,890.401 1853,875.5C 1849.11,868.276 1846.61,860.609 1845.5,852.5C 1851.43,833.646 1860.26,816.313 1872,800.5C 1880.94,788.73 1890.77,777.73 1901.5,767.5C 1904.21,776.572 1906.54,785.739 1908.5,795C 1897.07,803.755 1886.24,813.255 1876,823.5C 1879.24,831.419 1884.74,837.586 1892.5,842C 1904.04,848.301 1916.37,851.968 1929.5,853C 1963.31,855.109 1996.64,852.109 2029.5,844C 2036.49,841.892 2043.33,839.392 2050,836.5C 2049.96,834.721 2049.29,833.055 2048,831.5C 2038.35,819.351 2027.52,808.351 2015.5,798.5C 2026.82,785.182 2038.49,772.182 2050.5,759.5 Z"/></g>
<g><path style="opacity:1" fill="#fafafa" d="M 1215.5,812.5 C 1223.84,812.334 1232.17,812.5 1240.5,813C 1242.9,813.795 1245.07,814.962 1247,816.5C 1247.63,818.903 1246.8,820.737 1244.5,822C 1223.67,830.793 1202,836.626 1179.5,839.5C 1178.83,839.167 1178.17,838.833 1177.5,838.5C 1178.79,833.104 1181.12,828.271 1184.5,824C 1194.33,818.451 1204.66,814.618 1215.5,812.5 Z"/></g>
<g><path style="opacity:1" fill="#184266" d="M 2999.5,961.5 C 2999.5,1152.17 2999.5,1342.83 2999.5,1533.5C 2971.88,1535.89 2944.21,1536.73 2916.5,1536C 2875.27,1532.89 2835.94,1522.55 2798.5,1505C 2755.23,1482.87 2711.57,1461.53 2667.5,1441C 2563.79,1396.72 2470.12,1412.05 2386.5,1487C 2338.22,1533.96 2300.06,1588.13 2272,1649.5C 2243.78,1710.82 2224.45,1774.82 2214,1841.5C 2208.6,1878.02 2207.27,1914.69 2210,1951.5C 2211.58,1967.54 2213.41,1983.54 2215.5,1999.5C 2188.5,1999.5 2161.5,1999.5 2134.5,1999.5C 2144.9,1983.24 2154.74,1966.57 2164,1949.5C 2191.5,1896.85 2206.83,1840.85 2210,1781.5C 2211.51,1719.42 2207.17,1657.75 2197,1596.5C 2186.09,1532.79 2177.42,1468.79 2171,1404.5C 2165.17,1335.85 2171.83,1268.52 2191,1202.5C 2234.84,1066.59 2320.01,965.759 2446.5,900C 2577.97,837.372 2712.3,830.706 2849.5,880C 2903.33,900.737 2953.33,927.903 2999.5,961.5 Z"/></g>
<g><path style="opacity:1" fill="#353535" d="M 2170.5,914.5 C 2171.5,914.414 2172.33,914.748 2173,915.5C 2178.67,925.505 2184.83,935.172 2191.5,944.5C 2183.01,951.245 2174.01,957.245 2164.5,962.5C 2154.69,955.013 2147.02,945.68 2141.5,934.5C 2151.21,927.775 2160.87,921.109 2170.5,914.5 Z"/></g>
<g><path style="opacity:1" fill="#383838" d="M 930.5,914.5 C 932.045,915.23 932.878,916.563 933,918.5C 933.769,921.099 933.602,923.599 932.5,926C 910.998,934.089 889.332,941.589 867.5,948.5C 867.167,945.833 866.833,943.167 866.5,940.5C 888.138,932.403 909.471,923.736 930.5,914.5 Z"/></g>
<g><path style="opacity:1" fill="#363636" d="M 1961.5,923.5 C 1963.59,923.561 1965.09,924.561 1966,926.5C 1971.34,935.841 1977.17,944.841 1983.5,953.5C 1974.61,959.866 1965.44,965.866 1956,971.5C 1946.49,963.974 1938.99,954.808 1933.5,944C 1933.64,943.228 1933.98,942.561 1934.5,942C 1943.91,936.305 1952.91,930.138 1961.5,923.5 Z"/></g>
<g><path style="opacity:1" fill="#383838" d="M 1671.5,1003.5 C 1673.13,1007.32 1673.46,1011.32 1672.5,1015.5C 1650.97,1023.62 1629.47,1030.95 1608,1037.5C 1607.69,1035.44 1607.19,1033.44 1606.5,1031.5C 1606.71,1030.91 1607.04,1030.41 1607.5,1030C 1629.04,1021.39 1650.37,1012.56 1671.5,1003.5 Z"/></g>
<g><path style="opacity:1" fill="#363636" d="M 1643.5,1048.5 C 1653.43,1048.02 1663.1,1049.35 1672.5,1052.5C 1668.89,1061.05 1664.73,1069.38 1660,1077.5C 1650.65,1072.39 1640.82,1070.89 1630.5,1073C 1627.07,1075.37 1626.73,1078.03 1629.5,1081C 1633.23,1083.13 1637.23,1084.47 1641.5,1085C 1649.17,1085.67 1656.83,1085.67 1664.5,1085C 1668.13,1083.51 1671.79,1082.51 1675.5,1082C 1677.26,1082.72 1678.09,1083.89 1678,1085.5C 1671.82,1091.38 1665.99,1097.55 1660.5,1104C 1644.88,1108.32 1629.21,1112.49 1613.5,1116.5C 1610.98,1116.16 1609.82,1114.83 1610,1112.5C 1616.3,1108.03 1622.13,1103.03 1627.5,1097.5C 1613.71,1082.89 1614.38,1068.72 1629.5,1055C 1633.88,1051.97 1638.54,1049.81 1643.5,1048.5 Z"/></g>
<g><path style="opacity:1" fill="#373737" d="M 1505.5,1054.5 C 1508.09,1055.25 1509.92,1056.92 1511,1059.5C 1518.74,1074.2 1518.07,1088.53 1509,1102.5C 1497.89,1114.03 1486.56,1114.36 1475,1103.5C 1469.34,1090.64 1470.68,1078.64 1479,1067.5C 1480.5,1067.67 1481.33,1068.5 1481.5,1070C 1479.75,1084.9 1486.41,1090.9 1501.5,1088C 1503.75,1086.62 1505.92,1085.12 1508,1083.5C 1508.67,1082.17 1508.67,1080.83 1508,1079.5C 1504.85,1075.35 1501.35,1071.51 1497.5,1068C 1499.98,1063.36 1502.65,1058.86 1505.5,1054.5 Z"/></g>
<g><path style="opacity:1" fill="#353535" d="M 1752.5,1094.5 C 1754.83,1095.65 1755.99,1097.65 1756,1100.5C 1762.64,1134.19 1765.31,1168.19 1764,1202.5C 1759.18,1227.8 1749.18,1250.8 1734,1271.5C 1708.16,1296.34 1677.33,1309.5 1641.5,1311C 1616.43,1304.8 1593.76,1293.8 1573.5,1278C 1568.17,1274 1563.5,1269.33 1559.5,1264C 1574.86,1262.96 1590.19,1261.63 1605.5,1260C 1622.77,1256.95 1640.1,1254.45 1657.5,1252.5C 1651.63,1220.74 1642.63,1189.9 1630.5,1160C 1639.27,1141.41 1650.94,1124.91 1665.5,1110.5C 1670.7,1124.34 1674.2,1138.68 1676,1153.5C 1679.49,1175.37 1680.83,1197.37 1680,1219.5C 1675.93,1229.21 1671.76,1238.87 1667.5,1248.5C 1668,1248.83 1668.5,1249.17 1669,1249.5C 1692.06,1244.53 1714.89,1238.86 1737.5,1232.5C 1733.78,1201.3 1726.45,1170.97 1715.5,1141.5C 1725.25,1123.76 1737.58,1108.09 1752.5,1094.5 Z"/></g>
<g><path style="opacity:1" fill="#343434" d="M 1311.5,1099.5 C 1313.12,1100.59 1313.95,1102.26 1314,1104.5C 1314.53,1152.7 1311.7,1200.7 1305.5,1248.5C 1317.77,1246.59 1330.1,1245.26 1342.5,1244.5C 1346.09,1225.91 1352.92,1208.58 1363,1192.5C 1366.74,1187.42 1371.57,1183.92 1377.5,1182C 1387.66,1178.92 1397.99,1176.58 1408.5,1175C 1455.73,1171.29 1502.23,1163.45 1548,1151.5C 1550.78,1153.05 1552.62,1155.39 1553.5,1158.5C 1547.57,1175.79 1541.74,1193.12 1536,1210.5C 1534.99,1211.66 1533.66,1212.32 1532,1212.5C 1529.81,1212.21 1527.65,1211.88 1525.5,1211.5C 1526.5,1206.17 1527.5,1200.83 1528.5,1195.5C 1487.78,1210.68 1445.78,1220.51 1402.5,1225C 1404.79,1227.75 1405.79,1230.92 1405.5,1234.5C 1401.53,1254.96 1391.53,1271.79 1375.5,1285C 1344.3,1292.79 1312.64,1297.63 1280.5,1299.5C 1279.15,1244.73 1276.31,1190.06 1272,1135.5C 1283.51,1121.48 1296.68,1109.48 1311.5,1099.5 Z"/></g>
<g><path style="opacity:1" fill="#353535" d="M 1831.5,1100.5 C 1833.05,1101.23 1833.88,1102.56 1834,1104.5C 1835.54,1152.69 1833.2,1200.69 1827,1248.5C 1819.76,1265.32 1812.26,1281.98 1804.5,1298.5C 1802.36,1297.4 1800.19,1296.4 1798,1295.5C 1797.67,1272.5 1797.33,1249.5 1797,1226.5C 1795.2,1196.48 1793.53,1166.48 1792,1136.5C 1803.51,1122.48 1816.68,1110.48 1831.5,1100.5 Z"/></g>
<g><path style="opacity:1" fill="#383838" d="M 1422.5,1118.5 C 1423.79,1120.05 1424.46,1122.05 1424.5,1124.5C 1424.17,1126.5 1423.83,1128.5 1423.5,1130.5C 1402.28,1138.07 1381.11,1145.74 1360,1153.5C 1358.41,1150.69 1357.91,1147.86 1358.5,1145C 1380.05,1136.43 1401.39,1127.6 1422.5,1118.5 Z"/></g>
<g><path style="opacity:1" fill="#353535" d="M 1203.5,1197.5 C 1219.19,1195.77 1234.19,1198.11 1248.5,1204.5C 1242.09,1217.66 1235.42,1230.66 1228.5,1243.5C 1215.8,1237.74 1202.46,1235.24 1188.5,1236C 1185.3,1236.85 1182.47,1238.35 1180,1240.5C 1179.33,1242.5 1179.33,1244.5 1180,1246.5C 1187.79,1252.54 1196.62,1256.04 1206.5,1257C 1221.84,1257.64 1236.51,1254.81 1250.5,1248.5C 1252.5,1250.83 1254.5,1253.17 1256.5,1255.5C 1247.31,1265.52 1238.31,1275.68 1229.5,1286C 1208.5,1291.67 1187.5,1297.33 1166.5,1303C 1163.2,1304 1159.87,1304.33 1156.5,1304C 1154.61,1302.05 1153.45,1299.88 1153,1297.5C 1162.01,1289.99 1170.84,1282.32 1179.5,1274.5C 1163.88,1261.13 1160.05,1244.8 1168,1225.5C 1175.34,1210.31 1187.17,1200.98 1203.5,1197.5 Z"/></g>
<g><path style="opacity:1" fill="#383838" d="M 1230.5,1302.5 C 1231.79,1304.05 1232.46,1306.05 1232.5,1308.5C 1232.17,1310.5 1231.83,1312.5 1231.5,1314.5C 1210.28,1322.07 1189.11,1329.74 1168,1337.5C 1166.41,1334.69 1165.91,1331.86 1166.5,1329C 1188.05,1320.43 1209.39,1311.6 1230.5,1302.5 Z"/></g>
<g><path style="opacity:1" fill="#fdb24f" d="M 2999.5,1533.5 C 2999.5,1545.17 2999.5,1556.83 2999.5,1568.5C 2925.39,1579.2 2854.39,1569.03 2786.5,1538C 2752.22,1521.53 2718.22,1504.53 2684.5,1487C 2656.21,1472.57 2626.54,1461.9 2595.5,1455C 2547.85,1446.23 2502.85,1453.57 2460.5,1477C 2415.18,1504.99 2377.68,1541.15 2348,1585.5C 2289.85,1675.29 2255.51,1773.62 2245,1880.5C 2242.94,1908.19 2243.27,1935.86 2246,1963.5C 2247.9,1975.46 2249.4,1987.46 2250.5,1999.5C 2238.83,1999.5 2227.17,1999.5 2215.5,1999.5C 2213.41,1983.54 2211.58,1967.54 2210,1951.5C 2207.27,1914.69 2208.6,1878.02 2214,1841.5C 2224.45,1774.82 2243.78,1710.82 2272,1649.5C 2300.06,1588.13 2338.22,1533.96 2386.5,1487C 2470.12,1412.05 2563.79,1396.72 2667.5,1441C 2711.57,1461.53 2755.23,1482.87 2798.5,1505C 2835.94,1522.55 2875.27,1532.89 2916.5,1536C 2944.21,1536.73 2971.88,1535.89 2999.5,1533.5 Z"/></g>
<g><path style="opacity:1" fill="#184265" d="M 2999.5,1568.5 C 2999.5,1645.17 2999.5,1721.83 2999.5,1798.5C 2965.23,1794.62 2931.9,1786.79 2899.5,1775C 2879.5,1766.33 2859.5,1757.67 2839.5,1749C 2775.67,1723.26 2715,1729.26 2657.5,1767C 2602.61,1805.23 2567.44,1857.07 2552,1922.5C 2545.98,1947.81 2542.81,1973.47 2542.5,1999.5C 2445.17,1999.5 2347.83,1999.5 2250.5,1999.5C 2249.4,1987.46 2247.9,1975.46 2246,1963.5C 2243.27,1935.86 2242.94,1908.19 2245,1880.5C 2255.51,1773.62 2289.85,1675.29 2348,1585.5C 2377.68,1541.15 2415.18,1504.99 2460.5,1477C 2502.85,1453.57 2547.85,1446.23 2595.5,1455C 2626.54,1461.9 2656.21,1472.57 2684.5,1487C 2718.22,1504.53 2752.22,1521.53 2786.5,1538C 2854.39,1569.03 2925.39,1579.2 2999.5,1568.5 Z"/></g>
<g><path style="opacity:1" fill="#ffb350" d="M 1058.5,1999.5 C 1046.83,1999.5 1035.17,1999.5 1023.5,1999.5C 1026.96,1963.6 1021.13,1929.27 1006,1896.5C 985.526,1853.34 957.359,1815.84 921.5,1784C 837.742,1711.62 741.409,1663.29 632.5,1639C 581.448,1629.58 530.115,1627.91 478.5,1634C 450.645,1637.48 422.979,1642.14 395.5,1648C 342.345,1660.21 289.345,1673.21 236.5,1687C 201.467,1695.41 166.134,1702.41 130.5,1708C 86.9806,1714.29 43.3139,1715.79 -0.5,1712.5C -0.5,1700.83 -0.5,1689.17 -0.5,1677.5C 21.1155,1679.48 42.7821,1679.98 64.5,1679C 111.095,1676.48 157.095,1669.81 202.5,1659C 265.673,1643.04 329.006,1627.71 392.5,1613C 408.487,1609.91 424.487,1606.91 440.5,1604C 487.884,1595.93 535.55,1593.59 583.5,1597C 651.559,1603.93 716.559,1621.93 778.5,1651C 838.595,1678.02 893.262,1713.02 942.5,1756C 976.019,1785.94 1004.19,1820.11 1027,1858.5C 1051.68,1902.36 1062.18,1949.36 1058.5,1999.5 Z"/></g>
<g><path style="opacity:1" fill="#fffefe" d="M 1023.5,1999.5 C 899.167,1999.5 774.833,1999.5 650.5,1999.5C 622.652,1971.72 589.986,1951.22 552.5,1938C 498.249,1920.26 442.583,1912.93 385.5,1916C 341.616,1919.89 297.949,1925.56 254.5,1933C 189.5,1948 123.834,1959 57.5,1966C 38.1794,1967.03 18.8461,1967.53 -0.5,1967.5C -0.5,1882.5 -0.5,1797.5 -0.5,1712.5C 43.3139,1715.79 86.9806,1714.29 130.5,1708C 166.134,1702.41 201.467,1695.41 236.5,1687C 289.345,1673.21 342.345,1660.21 395.5,1648C 422.979,1642.14 450.645,1637.48 478.5,1634C 530.115,1627.91 581.448,1629.58 632.5,1639C 741.409,1663.29 837.742,1711.62 921.5,1784C 957.359,1815.84 985.526,1853.34 1006,1896.5C 1021.13,1929.27 1026.96,1963.6 1023.5,1999.5 Z"/></g>
<g><path style="opacity:1" fill="#fdb24f" d="M 2999.5,1798.5 C 2999.5,1810.17 2999.5,1821.83 2999.5,1833.5C 2967.53,1830.61 2936.19,1824.44 2905.5,1815C 2879.49,1805.16 2853.82,1794.49 2828.5,1783C 2779.05,1762.44 2731.05,1765.44 2684.5,1792C 2636.89,1821.64 2605.06,1863.47 2589,1917.5C 2581.24,1944.26 2577.4,1971.59 2577.5,1999.5C 2565.83,1999.5 2554.17,1999.5 2542.5,1999.5C 2542.81,1973.47 2545.98,1947.81 2552,1922.5C 2567.44,1857.07 2602.61,1805.23 2657.5,1767C 2715,1729.26 2775.67,1723.26 2839.5,1749C 2859.5,1757.67 2879.5,1766.33 2899.5,1775C 2931.9,1786.79 2965.23,1794.62 2999.5,1798.5 Z"/></g>
<g><path style="opacity:1" fill="#184265" d="M 2999.5,1833.5 C 2999.5,1888.83 2999.5,1944.17 2999.5,1999.5C 2858.83,1999.5 2718.17,1999.5 2577.5,1999.5C 2577.4,1971.59 2581.24,1944.26 2589,1917.5C 2605.06,1863.47 2636.89,1821.64 2684.5,1792C 2731.05,1765.44 2779.05,1762.44 2828.5,1783C 2853.82,1794.49 2879.49,1805.16 2905.5,1815C 2936.19,1824.44 2967.53,1830.61 2999.5,1833.5 Z"/></g>
<g><path style="opacity:1" fill="#ffb350" d="M 650.5,1999.5 C 632.5,1999.5 614.5,1999.5 596.5,1999.5C 585.554,1991.68 573.887,1984.85 561.5,1979C 512.206,1958.05 460.706,1948.22 407,1949.5C 359.127,1951.7 311.627,1957.2 264.5,1966C 201.473,1979.74 138.139,1990.9 74.5,1999.5C 49.5,1999.5 24.5,1999.5 -0.5,1999.5C -0.5,1988.83 -0.5,1978.17 -0.5,1967.5C 18.8461,1967.53 38.1794,1967.03 57.5,1966C 123.834,1959 189.5,1948 254.5,1933C 297.949,1925.56 341.616,1919.89 385.5,1916C 442.583,1912.93 498.249,1920.26 552.5,1938C 589.986,1951.22 622.652,1971.72 650.5,1999.5 Z"/></g>
<g><path style="opacity:1" fill="#fffefd" d="M 596.5,1999.5 C 422.5,1999.5 248.5,1999.5 74.5,1999.5C 138.139,1990.9 201.473,1979.74 264.5,1966C 311.627,1957.2 359.127,1951.7 407,1949.5C 460.706,1948.22 512.206,1958.05 561.5,1979C 573.887,1984.85 585.554,1991.68 596.5,1999.5 Z"/></g>
</svg>
