<?xml version="1.0" encoding="UTF-8"?>
<!DOCTYPE svg PUBLIC "-//W3C//DTD SVG 1.1//EN" "http://www.w3.org/Graphics/SVG/1.1/DTD/svg11.dtd">
<svg xmlns="http://www.w3.org/2000/svg" version="1.1" width="3000px" height="2000px" style="shape-rendering:geometricPrecision; text-rendering:geometricPrecision; image-rendering:optimizeQuality; fill-rule:evenodd; clip-rule:evenodd" xmlns:xlink="http://www.w3.org/1999/xlink">
<g><path style="opacity:1" fill="#ffb34f" d="M -0.5,-0.5 C 575.5,-0.5 1151.5,-0.5 1727.5,-0.5C 1697.14,24.0127 1667.47,49.5127 1638.5,76C 1576.83,136.333 1515.83,197.333 1455.5,259C 1408.46,304.479 1358.46,346.145 1305.5,384C 1208.39,450.705 1102.05,497.038 986.5,523C 879.25,545.962 770.75,556.796 661,555.5C 469.886,556.568 285.72,521.734 108.5,451C 71.755,435.699 35.4216,419.532 -0.5,402.5C -0.5,268.167 -0.5,133.833 -0.5,-0.5 Z"/></g>
<g><path style="opacity:1" fill="#fefefe" d="M 1727.5,-0.5 C 1912.83,-0.5 2098.17,-0.5 2283.5,-0.5C 2258.45,36.6043 2238.95,76.6043 2225,119.5C 2209.31,174.924 2211.65,229.591 2232,283.5C 2256.37,351.339 2295.21,409.339 2348.5,457.5C 2382.99,504.93 2428.32,537.43 2484.5,555C 2543.83,571.832 2599.5,563.832 2651.5,531C 2670.46,516.38 2689.12,501.38 2707.5,486C 2752.99,455.391 2796.66,457.724 2838.5,493C 2864.53,515.354 2885.7,541.521 2902,571.5C 2916.33,600.833 2930.67,630.167 2945,659.5C 2956.65,683.154 2972.15,703.988 2991.5,722C 2994.07,724.08 2996.73,725.913 2999.5,727.5C 2999.5,1061.5 2999.5,1395.5 2999.5,1729.5C 2941.7,1732.03 2885.7,1723.2 2831.5,1703C 2775.66,1681.08 2722.32,1654.41 2671.5,1623C 2611.5,1585.33 2551.5,1547.67 2491.5,1510C 2409.94,1459.05 2324.28,1415.72 2234.5,1380C 2071.95,1319.4 1903.95,1293.73 1730.5,1303C 1640.51,1305.52 1552.51,1319.85 1466.5,1346C 1363.14,1379.32 1271.14,1431.65 1190.5,1503C 1174.83,1517.33 1159.17,1531.67 1143.5,1546C 1096.53,1593.97 1049.19,1641.64 1001.5,1689C 957.965,1731.22 910.965,1768.89 860.5,1802C 774.232,1854.87 680.899,1888.54 580.5,1903C 502.488,1913.46 424.154,1916.79 345.5,1913C 229.028,1905.73 113.695,1890.23 -0.5,1866.5C -0.5,1378.5 -0.5,890.5 -0.5,402.5C 35.4216,419.532 71.755,435.699 108.5,451C 285.72,521.734 469.886,556.568 661,555.5C 770.75,556.796 879.25,545.962 986.5,523C 1102.05,497.038 1208.39,450.705 1305.5,384C 1358.46,346.145 1408.46,304.479 1455.5,259C 1515.83,197.333 1576.83,136.333 1638.5,76C 1667.47,49.5127 1697.14,24.0127 1727.5,-0.5 Z"/></g>
<g><path style="opacity:1" fill="#184266" d="M 2283.5,-0.5 C 2522.17,-0.5 2760.83,-0.5 2999.5,-0.5C 2999.5,217.167 2999.5,434.833 2999.5,652.5C 2989.09,639.904 2979.59,626.57 2971,612.5C 2955.75,584.993 2940.75,557.326 2926,529.5C 2902.21,487.041 2870.05,452.208 2829.5,425C 2793.81,404.472 2758.15,404.472 2722.5,425C 2716.16,428.504 2710.16,432.504 2704.5,437C 2687.98,451.432 2671.64,466.099 2655.5,481C 2605.84,520.17 2549.5,535.17 2486.5,526C 2433.53,516.682 2387.53,493.849 2348.5,457.5C 2295.21,409.339 2256.37,351.339 2232,283.5C 2211.65,229.591 2209.31,174.924 2225,119.5C 2238.95,76.6043 2258.45,36.6043 2283.5,-0.5 Z"/></g>
<g><path style="opacity:1" fill="#feb24f" d="M 2999.5,652.5 C 2999.5,677.5 2999.5,702.5 2999.5,727.5C 2996.73,725.913 2994.07,724.08 2991.5,722C 2972.15,703.988 2956.65,683.154 2945,659.5C 2930.67,630.167 2916.33,600.833 2902,571.5C 2885.7,541.521 2864.53,515.354 2838.5,493C 2796.66,457.724 2752.99,455.391 2707.5,486C 2689.12,501.38 2670.46,516.38 2651.5,531C 2599.5,563.832 2543.83,571.832 2484.5,555C 2428.32,537.43 2382.99,504.93 2348.5,457.5C 2387.53,493.849 2433.53,516.682 2486.5,526C 2549.5,535.17 2605.84,520.17 2655.5,481C 2671.64,466.099 2687.98,451.432 2704.5,437C 2710.16,432.504 2716.16,428.504 2722.5,425C 2758.15,404.472 2793.81,404.472 2829.5,425C 2870.05,452.208 2902.21,487.041 2926,529.5C 2940.75,557.326 2955.75,584.993 2971,612.5C 2979.59,626.57 2989.09,639.904 2999.5,652.5 Z"/></g>
<g><path style="opacity:1" fill="#373737" d="M 1801.5,697.5 C 1805.35,697.178 1808.52,698.511 1811,701.5C 1815.76,708.112 1817.42,715.446 1816,723.5C 1814.91,728.021 1813.74,732.521 1812.5,737C 1812.64,737.772 1812.98,738.439 1813.5,739C 1817.54,740.165 1820.54,742.499 1822.5,746C 1821.42,749.662 1819.92,753.162 1818,756.5C 1817.04,757.894 1815.71,758.561 1814,758.5C 1810.43,757.107 1806.93,755.94 1803.5,755C 1788.98,774.247 1770.98,789.247 1749.5,800C 1743.78,800.903 1741.78,798.57 1743.5,793C 1763.23,781.278 1780.56,766.612 1795.5,749C 1773.12,738.797 1770.45,724.63 1787.5,706.5C 1791.59,702.465 1796.25,699.465 1801.5,697.5 Z"/></g>
<g><path style="opacity:1" fill="#f3f3f3" d="M 1790.5,716.5 C 1800.76,717.757 1804.76,723.424 1802.5,733.5C 1796.57,731.288 1791.4,727.955 1787,723.5C 1786.99,720.65 1788.16,718.317 1790.5,716.5 Z"/></g>
<g><path style="opacity:1" fill="#373737" d="M 1257.5,737.5 C 1262.41,737.063 1267.08,737.896 1271.5,740C 1290.72,752.373 1295.55,768.873 1286,789.5C 1273.74,801.446 1259.91,803.612 1244.5,796C 1240.33,792.835 1237.83,788.668 1237,783.5C 1234.41,768.951 1237.74,755.951 1247,744.5C 1250.04,741.246 1253.54,738.913 1257.5,737.5 Z"/></g>
<g><path style="opacity:1" fill="#363636" d="M 1387.5,737.5 C 1388.5,737.414 1389.33,737.748 1390,738.5C 1390.33,740.847 1390.17,743.181 1389.5,745.5C 1392.37,745.085 1394.53,746.085 1396,748.5C 1396.31,762.245 1393.31,775.245 1387,787.5C 1377.47,800.013 1367.3,800.68 1356.5,789.5C 1349.89,800.472 1340.22,804.972 1327.5,803C 1324.69,801.023 1322.02,798.856 1319.5,796.5C 1310.46,802.985 1306.96,800.652 1309,789.5C 1310.64,786.689 1312.81,784.356 1315.5,782.5C 1317.37,774.424 1319.54,766.424 1322,758.5C 1323.22,753.916 1326.06,751.75 1330.5,752C 1331,752.5 1331.5,753 1332,753.5C 1332.37,758.407 1331.87,763.24 1330.5,768C 1330.83,769.5 1331.17,771 1331.5,772.5C 1338.67,767.749 1346,763.249 1353.5,759C 1355.87,755.929 1357.87,752.596 1359.5,749C 1362.3,748.871 1364.97,749.204 1367.5,750C 1374.34,745.97 1381.01,741.804 1387.5,737.5 Z"/></g>
<g><path style="opacity:1" fill="#373737" d="M 2073.5,737.5 C 2074.5,737.5 2075.5,737.5 2076.5,737.5C 2076.29,745.962 2073.63,753.462 2068.5,760C 2045.23,773.886 2021.73,787.386 1998,800.5C 1997.23,800.355 1996.56,800.022 1996,799.5C 1994.24,792.991 1995.74,787.491 2000.5,783C 2024.9,767.808 2049.23,752.642 2073.5,737.5 Z"/></g>
<g><path style="opacity:1" fill="#fbfbfb" d="M 1252.5,757.5 C 1264.15,755.744 1273.65,759.411 1281,768.5C 1282.3,770.365 1282.63,772.365 1282,774.5C 1279.35,776.053 1276.51,777.22 1273.5,778C 1266.09,778.89 1258.75,778.557 1251.5,777C 1246.78,773.702 1245.28,769.202 1247,763.5C 1248.36,760.977 1250.19,758.977 1252.5,757.5 Z"/></g>
<g><path style="opacity:1" fill="#f0f0f0" d="M 1385.5,755.5 C 1386.06,764.129 1381.89,769.129 1373,770.5C 1371.56,770.441 1370.23,770.108 1369,769.5C 1368.31,768.668 1368.48,768.002 1369.5,767.5C 1375.77,764.535 1381.11,760.535 1385.5,755.5 Z"/></g>
<g><path style="opacity:1" fill="#363636" d="M 1973.5,838.5 C 1975.41,838.574 1976.58,839.574 1977,841.5C 1983.48,899.997 1987.81,958.664 1990,1017.5C 1990.62,1033.93 1998.79,1044.43 2014.5,1049C 2024.79,1050.37 2034.79,1049.37 2044.5,1046C 2047.86,1043.63 2050.86,1040.97 2053.5,1038C 2051.19,1030.22 2047.69,1023.05 2043,1016.5C 2042.35,1013.41 2042.68,1010.41 2044,1007.5C 2046.67,1001.5 2049.33,995.5 2052,989.5C 2054.21,985.664 2056.55,985.664 2059,989.5C 2068.26,1010.84 2068.93,1032.5 2061,1054.5C 2057.17,1066.33 2049.33,1074.17 2037.5,1078C 2023.85,1080.73 2010.52,1079.73 1997.5,1075C 1987.27,1069.42 1980.77,1060.92 1978,1049.5C 1975,1010.21 1972.67,970.878 1971,931.5C 1968.37,908.373 1964.87,885.373 1960.5,862.5C 1963.77,853.97 1968.1,845.97 1973.5,838.5 Z"/></g>
<g><path style="opacity:1" fill="#353535" d="M 1422.5,842.5 C 1424.29,842.215 1425.95,842.548 1427.5,843.5C 1430.06,849.621 1432.89,855.621 1436,861.5C 1439.45,865.108 1442.28,869.108 1444.5,873.5C 1441.9,877.944 1439.07,882.278 1436,886.5C 1435.83,888.167 1435.67,889.833 1435.5,891.5C 1438.6,918.177 1441.77,944.843 1445,971.5C 1447.91,991.533 1447.91,1011.53 1445,1031.5C 1441.8,1044.79 1436.46,1057.12 1429,1068.5C 1419.08,1080.57 1407.24,1083.07 1393.5,1076C 1386.41,1071.58 1379.91,1066.41 1374,1060.5C 1357.16,1076.76 1337,1082.93 1313.5,1079C 1294.76,1072.38 1279.26,1061.21 1267,1045.5C 1251.34,1060.08 1233.51,1071.25 1213.5,1079C 1205.34,1080.9 1197.68,1079.57 1190.5,1075C 1186.3,1071.8 1182.47,1068.3 1179,1064.5C 1128.6,1096.56 1073.44,1110.39 1013.5,1106C 999.892,1104.62 986.558,1101.95 973.5,1098C 944.317,1087.8 931.15,1067.3 934,1036.5C 937.262,1024.3 941.928,1012.64 948,1001.5C 950.032,998.475 952.365,995.808 955,993.5C 957.058,994.058 958.225,995.391 958.5,997.5C 955.505,1002.68 952.671,1008.02 950,1013.5C 946.482,1021.65 946.815,1029.65 951,1037.5C 957.346,1050.18 967.18,1059.01 980.5,1064C 992.417,1068.58 1004.75,1071.25 1017.5,1072C 1056.52,1074.47 1094.86,1070.47 1132.5,1060C 1143.85,1056.44 1154.85,1052.11 1165.5,1047C 1170.54,1041.41 1173.88,1034.91 1175.5,1027.5C 1179.19,1024.46 1182.02,1025.13 1184,1029.5C 1183.35,1038.51 1187.19,1044.67 1195.5,1048C 1213.81,1050.92 1230.48,1046.92 1245.5,1036C 1236.82,1028.77 1226.82,1024.43 1215.5,1023C 1214.03,1018.97 1214.53,1015.13 1217,1011.5C 1240,979.605 1267.84,974.771 1300.5,997C 1314.83,1007.13 1315.16,1017.79 1301.5,1029C 1297.17,1032 1292.83,1035 1288.5,1038C 1299.15,1046.92 1311.48,1050.75 1325.5,1049.5C 1339.56,1049.45 1352.89,1046.29 1365.5,1040C 1371.66,1035.61 1377.33,1030.78 1382.5,1025.5C 1387.82,1035.65 1395.82,1043.48 1406.5,1049C 1417.9,1050.43 1427.06,1046.59 1434,1037.5C 1435.08,1034.29 1435.58,1030.95 1435.5,1027.5C 1429.69,972.877 1423.03,918.377 1415.5,864C 1416.84,856.488 1419.18,849.322 1422.5,842.5 Z"/></g>
<g><path style="opacity:1" fill="#373737" d="M 1502.5,848.5 C 1505.35,848.809 1506.85,850.475 1507,853.5C 1511.63,902.147 1515.97,950.813 1520,999.5C 1521.28,1020.62 1520.28,1041.62 1517,1062.5C 1515.33,1067.5 1513.67,1072.5 1512,1077.5C 1510.03,1081.22 1508.37,1081.22 1507,1077.5C 1506.82,1060.48 1506.15,1043.48 1505,1026.5C 1499.72,979.462 1494.22,932.462 1488.5,885.5C 1488.48,882.076 1488.98,878.743 1490,875.5C 1493.7,866.224 1497.86,857.224 1502.5,848.5 Z"/></g>
<g><path style="opacity:1" fill="#353535" d="M 1077.5,911.5 C 1085.64,912.737 1092.98,915.903 1099.5,921C 1101.35,922.684 1103.02,924.517 1104.5,926.5C 1099.16,935.841 1093.33,944.841 1087,953.5C 1080.48,949.242 1073.82,945.242 1067,941.5C 1065.74,941.759 1064.74,942.426 1064,943.5C 1060.71,949.785 1056.71,955.452 1052,960.5C 1043.06,955.618 1034.56,950.118 1026.5,944C 1031.66,934.828 1037.66,926.328 1044.5,918.5C 1052.1,920.382 1058.93,923.715 1065,928.5C 1069.64,923.253 1073.8,917.586 1077.5,911.5 Z"/></g>
<g><path style="opacity:1" fill="#353535" d="M 1364.5,918.5 C 1372.58,920.402 1379.91,923.902 1386.5,929C 1388.45,930.439 1389.78,932.272 1390.5,934.5C 1385.82,943.885 1380.15,952.551 1373.5,960.5C 1364.7,955.264 1356.04,949.764 1347.5,944C 1353.3,935.557 1358.97,927.057 1364.5,918.5 Z"/></g>
<g><path style="opacity:1" fill="#353535" d="M 1906.5,953.5 C 1907.55,953.351 1908.55,953.517 1909.5,954C 1917.67,962.515 1922.51,972.682 1924,984.5C 1927.49,1003.47 1925.49,1021.8 1918,1039.5C 1912.38,1045.91 1905.55,1050.74 1897.5,1054C 1837.43,1080.38 1775.1,1088.04 1710.5,1077C 1694.1,1072.59 1680.27,1064.09 1669,1051.5C 1659.24,1038.03 1656.91,1023.37 1662,1007.5C 1667.01,994.026 1674.85,982.693 1685.5,973.5C 1687.61,973.775 1688.94,974.942 1689.5,977C 1686.68,981.156 1683.85,985.323 1681,989.5C 1674.46,1001.42 1675.46,1012.75 1684,1023.5C 1693.91,1034.38 1706.07,1041.54 1720.5,1045C 1772.67,1053.15 1824,1049.49 1874.5,1034C 1887.52,1029.66 1900.02,1024.16 1912,1017.5C 1910.91,1005.65 1906.24,995.312 1898,986.5C 1897.11,980.311 1897.77,974.311 1900,968.5C 1902.18,963.479 1904.35,958.479 1906.5,953.5 Z"/></g>
<g><path style="opacity:1" fill="#363636" d="M 2045.5,1116.5 C 2056.22,1119.02 2065.22,1124.36 2072.5,1132.5C 2067.08,1141.67 2061.42,1150.67 2055.5,1159.5C 2046.22,1154.38 2037.56,1148.54 2029.5,1142C 2034.96,1133.57 2040.3,1125.07 2045.5,1116.5 Z"/></g>
<g><path style="opacity:1" fill="#363636" d="M 1795.5,1125.5 C 1806.16,1127.49 1815.16,1132.49 1822.5,1140.5C 1817.17,1149.96 1811.34,1158.96 1805,1167.5C 1796.19,1162.19 1787.69,1156.52 1779.5,1150.5C 1784.58,1142.01 1789.91,1133.67 1795.5,1125.5 Z"/></g>
<g><path style="opacity:1" fill="#373737" d="M 1115.5,1183.5 C 1117.95,1183.08 1119.28,1184.08 1119.5,1186.5C 1118.1,1191.2 1116.6,1195.86 1115,1200.5C 1113.88,1202.62 1112.38,1204.46 1110.5,1206C 1087.23,1219.89 1063.73,1233.39 1040,1246.5C 1036.13,1240.1 1036.96,1234.26 1042.5,1229C 1067.23,1214.31 1091.57,1199.14 1115.5,1183.5 Z"/></g>
<g><path style="opacity:1" fill="#184266" d="M 2999.5,1729.5 C 2999.5,1819.5 2999.5,1909.5 2999.5,1999.5C 1999.5,1999.5 999.5,1999.5 -0.5,1999.5C -0.5,1955.17 -0.5,1910.83 -0.5,1866.5C 113.695,1890.23 229.028,1905.73 345.5,1913C 424.154,1916.79 502.488,1913.46 580.5,1903C 680.899,1888.54 774.232,1854.87 860.5,1802C 910.965,1768.89 957.965,1731.22 1001.5,1689C 1049.19,1641.64 1096.53,1593.97 1143.5,1546C 1159.17,1531.67 1174.83,1517.33 1190.5,1503C 1271.14,1431.65 1363.14,1379.32 1466.5,1346C 1552.51,1319.85 1640.51,1305.52 1730.5,1303C 1903.95,1293.73 2071.95,1319.4 2234.5,1380C 2324.28,1415.72 2409.94,1459.05 2491.5,1510C 2551.5,1547.67 2611.5,1585.33 2671.5,1623C 2722.32,1654.41 2775.66,1681.08 2831.5,1703C 2885.7,1723.2 2941.7,1732.03 2999.5,1729.5 Z"/></g>
</svg>
