<?xml version="1.0" encoding="UTF-8"?>
<!DOCTYPE svg PUBLIC "-//W3C//DTD SVG 1.1//EN" "http://www.w3.org/Graphics/SVG/1.1/DTD/svg11.dtd">
<svg xmlns="http://www.w3.org/2000/svg" version="1.1" width="3000px" height="2000px" style="shape-rendering:geometricPrecision; text-rendering:geometricPrecision; image-rendering:optimizeQuality; fill-rule:evenodd; clip-rule:evenodd" xmlns:xlink="http://www.w3.org/1999/xlink">
<g><path style="opacity:1" fill="#feb24f" d="M -0.5,-0.5 C 270.833,-0.5 542.167,-0.5 813.5,-0.5C 815.907,129.906 760.574,226.739 647.5,290C 593.532,318.545 536.532,338.545 476.5,350C 359.377,371.83 241.377,378.83 122.5,371C 80.7025,367.035 39.7025,359.202 -0.5,347.5C -0.5,231.5 -0.5,115.5 -0.5,-0.5 Z"/></g>
<g><path style="opacity:1" fill="#1c4365" d="M 813.5,-0.5 C 821.5,-0.5 829.5,-0.5 837.5,-0.5C 840.572,133.9 784.906,235.4 670.5,304C 611.242,336.643 548.242,358.977 481.5,371C 368.261,391.26 254.261,397.26 139.5,389C 91.9627,384.126 45.296,374.959 -0.5,361.5C -0.5,356.833 -0.5,352.167 -0.5,347.5C 39.7025,359.202 80.7025,367.035 122.5,371C 241.377,378.83 359.377,371.83 476.5,350C 536.532,338.545 593.532,318.545 647.5,290C 760.574,226.739 815.907,129.906 813.5,-0.5 Z"/></g>
<g><path style="opacity:1" fill="#feb24f" d="M 837.5,-0.5 C 914.833,-0.5 992.167,-0.5 1069.5,-0.5C 1082.19,56.2786 1085.69,113.612 1080,171.5C 1068.65,252.717 1031.49,319.217 968.5,371C 926.739,403.721 880.406,428.388 829.5,445C 811.489,450.616 793.489,456.116 775.5,461.5C 803.54,529.993 822.04,600.993 831,674.5C 836.164,722.7 833.164,770.366 822,817.5C 801.642,887.838 761.808,944.338 702.5,987C 672.609,1007.95 640.609,1025.28 606.5,1039C 541.853,1063.1 475.186,1078.77 406.5,1086C 369.871,1089.61 333.204,1092.77 296.5,1095.5C 329.08,1167.74 352.913,1242.74 368,1320.5C 377.882,1377.18 377.882,1433.85 368,1490.5C 349.308,1568.75 307.141,1630.92 241.5,1677C 223.41,1689.56 204.41,1700.73 184.5,1710.5C 228.418,1776.97 267.251,1846.64 301,1919.5C 313.455,1946.07 325.622,1972.74 337.5,1999.5C 269.167,1999.5 200.833,1999.5 132.5,1999.5C 96.2536,1900.34 51.9203,1805.01 -0.5,1713.5C -0.5,1448.17 -0.5,1182.83 -0.5,917.5C 38.3853,998.977 68.8853,1083.64 91,1171.5C 100.876,1213.76 106.043,1256.6 106.5,1300C 108.289,1390.2 76.9557,1466.37 12.5,1528.5C 18.6176,1532.78 24.6176,1537.28 30.5,1542C 31.5,1542.67 32.5,1542.67 33.5,1542C 100.502,1475.43 132.835,1394.6 130.5,1299.5C 128.691,1237.34 118.191,1176.67 99,1117.5C 72.6496,1037.14 39.4829,959.811 -0.5,885.5C -0.5,710.833 -0.5,536.167 -0.5,361.5C 45.296,374.959 91.9627,384.126 139.5,389C 254.261,397.26 368.261,391.26 481.5,371C 548.242,358.977 611.242,336.643 670.5,304C 784.906,235.4 840.572,133.9 837.5,-0.5 Z"/></g>
<g><path style="opacity:1" fill="#fefefe" d="M 1069.5,-0.5 C 1624.5,-0.5 2179.5,-0.5 2734.5,-0.5C 2747.1,35.2249 2768.77,64.0582 2799.5,86C 2842.75,111.639 2884.08,108.972 2923.5,78C 2945.93,56.6349 2958.93,30.4683 2962.5,-0.5C 2974.83,-0.5 2987.17,-0.5 2999.5,-0.5C 2999.5,108.833 2999.5,218.167 2999.5,327.5C 2961.43,325.52 2923.43,326.354 2885.5,330C 2842.7,335.078 2804.7,351.078 2771.5,378C 2719.47,428.404 2710.64,485.57 2745,549.5C 2768.41,584.154 2799.91,608.654 2839.5,623C 2867.05,632.637 2895.38,638.304 2924.5,640C 2949.49,641.146 2974.49,641.646 2999.5,641.5C 2999.5,930.5 2999.5,1219.5 2999.5,1508.5C 2964.64,1488.75 2929.64,1488.58 2894.5,1508C 2863.3,1527.55 2841.46,1554.71 2829,1589.5C 2825.87,1597.7 2823.2,1606.03 2821,1614.5C 2811.8,1657.09 2805.63,1700.09 2802.5,1743.5C 2801.73,1780.33 2811.89,1813.67 2833,1843.5C 2865.47,1881.54 2905.3,1892.04 2952.5,1875C 2971.14,1867.02 2986.81,1855.19 2999.5,1839.5C 2999.5,1892.83 2999.5,1946.17 2999.5,1999.5C 2112.17,1999.5 1224.83,1999.5 337.5,1999.5C 325.622,1972.74 313.455,1946.07 301,1919.5C 267.251,1846.64 228.418,1776.97 184.5,1710.5C 204.41,1700.73 223.41,1689.56 241.5,1677C 307.141,1630.92 349.308,1568.75 368,1490.5C 377.882,1433.85 377.882,1377.18 368,1320.5C 352.913,1242.74 329.08,1167.74 296.5,1095.5C 333.204,1092.77 369.871,1089.61 406.5,1086C 475.186,1078.77 541.853,1063.1 606.5,1039C 640.609,1025.28 672.609,1007.95 702.5,987C 761.808,944.338 801.642,887.838 822,817.5C 833.164,770.366 836.164,722.7 831,674.5C 822.04,600.993 803.54,529.993 775.5,461.5C 793.489,456.116 811.489,450.616 829.5,445C 880.406,428.388 926.739,403.721 968.5,371C 1031.49,319.217 1068.65,252.717 1080,171.5C 1085.69,113.612 1082.19,56.2786 1069.5,-0.5 Z"/></g>
<g><path style="opacity:1" fill="#184266" d="M 2734.5,-0.5 C 2810.5,-0.5 2886.5,-0.5 2962.5,-0.5C 2958.93,30.4683 2945.93,56.6349 2923.5,78C 2884.08,108.972 2842.75,111.639 2799.5,86C 2768.77,64.0582 2747.1,35.2249 2734.5,-0.5 Z"/></g>
<g><path style="opacity:1" fill="#184266" d="M 2336.5,241.5 C 2387.11,236.746 2428.94,253.412 2462,291.5C 2488.34,329.55 2496.34,371.216 2486,416.5C 2478.07,450.694 2464.4,482.361 2445,511.5C 2414.06,559.134 2378.56,603.301 2338.5,644C 2308.77,671.34 2274.1,689.674 2234.5,699C 2183.04,708.624 2139.54,694.457 2104,656.5C 2077.47,622.419 2066.81,583.752 2072,540.5C 2076.92,505.732 2088.59,473.399 2107,443.5C 2133.79,404.041 2162.12,365.707 2192,328.5C 2215.29,300.639 2242.79,278.139 2274.5,261C 2294.32,251.335 2314.99,244.835 2336.5,241.5 Z"/></g>
<g><path style="opacity:1" fill="#184266" d="M 2999.5,327.5 C 2999.5,432.167 2999.5,536.833 2999.5,641.5C 2974.49,641.646 2949.49,641.146 2924.5,640C 2895.38,638.304 2867.05,632.637 2839.5,623C 2799.91,608.654 2768.41,584.154 2745,549.5C 2710.64,485.57 2719.47,428.404 2771.5,378C 2804.7,351.078 2842.7,335.078 2885.5,330C 2923.43,326.354 2961.43,325.52 2999.5,327.5 Z"/></g>
<g><path style="opacity:1" fill="#1c4365" d="M 549.5,490.5 C 557.167,490.5 564.833,490.5 572.5,490.5C 587.558,552.19 591.058,614.523 583,677.5C 569.178,760.343 529.345,827.509 463.5,879C 417.353,913.573 366.353,938.906 310.5,955C 289.032,961.45 267.365,967.117 245.5,972C 243.231,972.758 241.064,972.591 239,971.5C 235.6,965.371 232.766,959.037 230.5,952.5C 291.06,941.035 348.394,920.535 402.5,891C 519.629,821.596 573.129,718.429 563,581.5C 560.707,550.814 556.207,520.481 549.5,490.5 Z"/></g>
<g><path style="opacity:1" fill="#363636" d="M 1803.5,773.5 C 1811.41,772.873 1816.91,776.206 1820,783.5C 1821.46,789.097 1821.79,794.763 1821,800.5C 1819.17,806 1817.33,811.5 1815.5,817C 1818.29,819.794 1821.13,822.627 1824,825.5C 1824.56,831.906 1824.06,838.239 1822.5,844.5C 1816.67,841.419 1811,838.085 1805.5,834.5C 1797.6,843.238 1789.26,851.404 1780.5,859C 1771.51,864.228 1761.84,865.895 1751.5,864C 1767.71,855.13 1782.21,843.964 1795,830.5C 1795.67,829.833 1795.67,829.167 1795,828.5C 1784.44,822.037 1780.44,812.704 1783,800.5C 1785.56,788.125 1792.39,779.125 1803.5,773.5 Z"/></g>
<g><path style="opacity:1" fill="#f8f8f8" d="M 1794.5,791.5 C 1803.21,791.708 1807.88,796.208 1808.5,805C 1808.66,807.47 1807.99,809.636 1806.5,811.5C 1800.03,807.696 1795.36,802.363 1792.5,795.5C 1792.75,793.927 1793.42,792.594 1794.5,791.5 Z"/></g>
<g><path style="opacity:1" fill="#363636" d="M 1106.5,796.5 C 1127.91,795.567 1139.24,805.9 1140.5,827.5C 1139.64,842.044 1132.64,852.544 1119.5,859C 1097.55,866.045 1085.88,858.211 1084.5,835.5C 1084.89,818.365 1092.22,805.365 1106.5,796.5 Z"/></g>
<g><path style="opacity:1" fill="#363636" d="M 1368.5,802.5 C 1369.59,802.62 1370.25,803.287 1370.5,804.5C 1369.02,811.14 1365.69,816.64 1360.5,821C 1340.33,829.334 1319.99,837.167 1299.5,844.5C 1300,837.677 1303,832.177 1308.5,828C 1328.64,819.573 1348.64,811.073 1368.5,802.5 Z"/></g>
<g><path style="opacity:1" fill="#373737" d="M 2139.5,802.5 C 2140.65,802.791 2141.32,803.624 2141.5,805C 2139.96,811.414 2136.62,816.748 2131.5,821C 2111.26,829.037 2091.09,837.204 2071,845.5C 2070.72,838.232 2073.55,832.399 2079.5,828C 2099.71,819.724 2119.71,811.224 2139.5,802.5 Z"/></g>
<g><path style="opacity:1" fill="#f9f9f9" d="M 1101.5,813.5 C 1113.19,813.603 1121.69,818.937 1127,829.5C 1128.95,835.547 1126.79,839.047 1120.5,840C 1112.54,841.132 1104.87,840.132 1097.5,837C 1091.83,831.948 1090.99,826.114 1095,819.5C 1097.06,817.266 1099.23,815.266 1101.5,813.5 Z"/></g>
<g><path style="opacity:1" fill="#353535" d="M 2020.5,871.5 C 2023.03,930.663 2025.2,989.997 2027,1049.5C 2026.36,1079.51 2040.86,1091.34 2070.5,1085C 2090.22,1084.06 2108.56,1078.73 2125.5,1069C 2127.01,1067.65 2128.01,1065.98 2128.5,1064C 2122.72,1052.61 2117.39,1041.11 2112.5,1029.5C 2114.53,1015.78 2118.03,1002.45 2123,989.5C 2137.9,1011.21 2144.9,1035.21 2144,1061.5C 2138.94,1095.89 2119.44,1116.72 2085.5,1124C 2066.87,1128.09 2048.21,1128.43 2029.5,1125C 2018.31,1120.47 2011.47,1112.31 2009,1100.5C 2006.53,1090.29 2004.86,1079.95 2004,1069.5C 2000.67,1015.18 1998,960.849 1996,906.5C 1998.55,899.724 2001.89,893.391 2006,887.5C 2010.67,881.997 2015.5,876.664 2020.5,871.5 Z"/></g>
<g><path style="opacity:1" fill="#353535" d="M 1123.5,877.5 C 1124.17,883.167 1124.83,888.833 1125.5,894.5C 1126.42,958.17 1127.59,1021.84 1129,1085.5C 1135.26,1066.14 1144.76,1048.64 1157.5,1033C 1183.4,1018.62 1210.73,1014.62 1239.5,1021C 1242.96,1023.46 1246.13,1026.3 1249,1029.5C 1250.05,1036.89 1249.21,1044.06 1246.5,1051C 1242.51,1062.98 1237.17,1074.32 1230.5,1085C 1255.13,1083.23 1279.13,1078.23 1302.5,1070C 1308.17,1067.82 1313.17,1064.65 1317.5,1060.5C 1317.83,1060.83 1318.17,1061.17 1318.5,1061.5C 1316.72,1069.15 1315.06,1076.82 1313.5,1084.5C 1329.51,1083.27 1344.84,1079.43 1359.5,1073C 1362.77,1071.39 1365.77,1069.39 1368.5,1067C 1365.83,1063 1362.5,1059.67 1358.5,1057C 1349.53,1052.84 1340.19,1050.01 1330.5,1048.5C 1332.27,1035.7 1335.93,1023.54 1341.5,1012C 1354.7,1009.45 1367.7,1006.12 1380.5,1002C 1393.24,999.776 1405.91,1000.11 1418.5,1003C 1435.09,1009.34 1441.26,1021.18 1437,1038.5C 1430.12,1052.91 1420.79,1065.58 1409,1076.5C 1408.61,1078.08 1409.11,1079.41 1410.5,1080.5C 1416.41,1083.69 1422.74,1085.19 1429.5,1085C 1446.23,1085.85 1462.89,1085.18 1479.5,1083C 1495.85,1080.41 1509.69,1073.24 1521,1061.5C 1521.81,1059.58 1522.31,1057.58 1522.5,1055.5C 1518.76,1007.85 1515.6,960.187 1513,912.5C 1520.2,899.44 1528.86,887.44 1539,876.5C 1540.95,931.164 1542.79,985.831 1544.5,1040.5C 1543.63,1080.77 1524.3,1107.61 1486.5,1121C 1457.41,1129.66 1428.08,1130.66 1398.5,1124C 1395.26,1122.64 1392.76,1120.47 1391,1117.5C 1388.43,1111.26 1385.6,1105.26 1382.5,1099.5C 1351.76,1120.35 1317.76,1130.02 1280.5,1128.5C 1280.58,1124.21 1281.24,1120.04 1282.5,1116C 1257.49,1123.5 1231.82,1127.34 1205.5,1127.5C 1207,1120.84 1208.17,1114.17 1209,1107.5C 1197.35,1116.74 1184.18,1122.91 1169.5,1126C 1155.66,1128.87 1141.66,1130.21 1127.5,1130C 1124.2,1137.43 1121.04,1144.93 1118,1152.5C 1116.52,1155.99 1114.52,1156.33 1112,1153.5C 1109.53,1147.42 1108.86,1141.08 1110,1134.5C 1110.66,1132.19 1111.16,1129.85 1111.5,1127.5C 1094.5,1127.5 1077.5,1127.5 1060.5,1127.5C 1061.07,1141.9 1057.57,1155.23 1050,1167.5C 1025.57,1207.48 989.736,1228.65 942.5,1231C 922.82,1232.92 903.487,1231.25 884.5,1226C 873.869,1221.69 864.203,1215.85 855.5,1208.5C 853.833,1209.17 852.167,1209.83 850.5,1210.5C 850.101,1207.58 849.934,1204.58 850,1201.5C 845.021,1193.9 842.021,1185.56 841,1176.5C 839.053,1159.24 841.386,1142.57 848,1126.5C 856.049,1108.73 865.383,1091.73 876,1075.5C 881.789,1068.54 888.956,1064.04 897.5,1062C 882.864,1078.09 871.364,1096.25 863,1116.5C 859.69,1127.94 858.69,1139.61 860,1151.5C 864.959,1165.46 874.293,1175.12 888,1180.5C 899.103,1176.87 909.936,1172.53 920.5,1167.5C 920.267,1176.3 916.267,1183.13 908.5,1188C 949.772,1195.48 987.439,1187.15 1021.5,1163C 1028.79,1156.72 1034.96,1149.55 1040,1141.5C 1040.23,1137.87 1039.07,1134.7 1036.5,1132C 1023.83,1131.4 1011.16,1130.73 998.5,1130C 985.43,1123.86 980.096,1113.52 982.5,1099C 982.668,1075.12 992.001,1055.79 1010.5,1041C 1028.03,1035.34 1040.86,1040.84 1049,1057.5C 1052.98,1066.62 1056.81,1075.79 1060.5,1085C 1074.82,1084.82 1089.15,1084.66 1103.5,1084.5C 1099.65,1029.52 1096.48,974.524 1094,919.5C 1100.94,903.403 1110.78,889.403 1123.5,877.5 Z"/></g>
<g><path style="opacity:1" fill="#353535" d="M 1616.5,876.5 C 1619.19,946.985 1620.69,1017.65 1621,1088.5C 1615.67,1101.16 1608.34,1112.5 1599,1122.5C 1593.63,1054.89 1589.63,987.227 1587,919.5C 1594.29,903.384 1604.12,889.051 1616.5,876.5 Z"/></g>
<g><path style="opacity:1" fill="#184266" d="M 2580.5,883.5 C 2618.64,881.273 2652.97,891.439 2683.5,914C 2724.13,951.654 2738.97,997.821 2728,1052.5C 2720.36,1088.43 2705.69,1121.1 2684,1150.5C 2651.87,1194.98 2615.7,1236.15 2575.5,1274C 2555.06,1291.42 2532.73,1306.09 2508.5,1318C 2480.15,1330.67 2450.48,1336 2419.5,1334C 2350.22,1322.05 2310.72,1281.22 2301,1211.5C 2298.43,1178.35 2304.1,1146.68 2318,1116.5C 2328.07,1094.67 2340.41,1074.34 2355,1055.5C 2381.05,1023.42 2408.05,992.087 2436,961.5C 2466.68,929.071 2503.18,905.571 2545.5,891C 2557.12,887.706 2568.78,885.206 2580.5,883.5 Z"/></g>
<g><path style="opacity:1" fill="#1c4365" d="M -0.5,885.5 C 39.4829,959.811 72.6496,1037.14 99,1117.5C 118.191,1176.67 128.691,1237.34 130.5,1299.5C 132.835,1394.6 100.502,1475.43 33.5,1542C 32.5,1542.67 31.5,1542.67 30.5,1542C 24.6176,1537.28 18.6176,1532.78 12.5,1528.5C 76.9557,1466.37 108.289,1390.2 106.5,1300C 106.043,1256.6 100.876,1213.76 91,1171.5C 68.8853,1083.64 38.3853,998.977 -0.5,917.5C -0.5,906.833 -0.5,896.167 -0.5,885.5 Z"/></g>
<g><path style="opacity:1" fill="#707070" d="M 1123.5,877.5 C 1123.56,876.957 1123.89,876.624 1124.5,876.5C 1125.5,882.463 1125.83,888.463 1125.5,894.5C 1124.83,888.833 1124.17,883.167 1123.5,877.5 Z"/></g>
<g><path style="opacity:1" fill="#353535" d="M 1012.5,941.5 C 1022.4,950.737 1032.07,960.404 1041.5,970.5C 1033.22,980.287 1024.38,989.62 1015,998.5C 1004.71,990.259 995.548,980.925 987.5,970.5C 996.23,961.109 1004.56,951.442 1012.5,941.5 Z"/></g>
<g><path style="opacity:1" fill="#353535" d="M 1937.5,992.5 C 1953.26,1015.9 1958.43,1041.56 1953,1069.5C 1946.13,1090.71 1932.97,1106.88 1913.5,1118C 1873.53,1138.53 1831.2,1146.19 1786.5,1141C 1768.55,1138.79 1755.72,1129.63 1748,1113.5C 1742.7,1091.98 1745.7,1071.65 1757,1052.5C 1762.06,1044.1 1767.9,1036.27 1774.5,1029C 1775.33,1028.31 1776,1028.48 1776.5,1029.5C 1770.53,1039.77 1765.37,1050.44 1761,1061.5C 1758.56,1072.1 1761.39,1080.93 1769.5,1088C 1781.83,1095.07 1795.17,1098.74 1809.5,1099C 1844.65,1099.48 1878.65,1093.48 1911.5,1081C 1919.54,1076.95 1927.04,1072.12 1934,1066.5C 1934.48,1064.09 1934.15,1061.75 1933,1059.5C 1927.84,1048.71 1922.34,1038.21 1916.5,1028C 1920.58,1014.34 1927.58,1002.5 1937.5,992.5 Z"/></g>
<g><path style="opacity:1" fill="#fcfcfc" d="M 1188.5,1052.5 C 1196.84,1052.33 1205.17,1052.5 1213.5,1053C 1219,1054.66 1222.66,1058.16 1224.5,1063.5C 1223.1,1066.41 1221.1,1068.91 1218.5,1071C 1208.73,1077.37 1198.06,1081.37 1186.5,1083C 1171.89,1084.83 1157.23,1085.66 1142.5,1085.5C 1142.88,1081.4 1144.38,1077.73 1147,1074.5C 1152.84,1067.5 1160.01,1062.33 1168.5,1059C 1175.27,1056.81 1181.94,1054.65 1188.5,1052.5 Z"/></g>
<g><path style="opacity:1" fill="#363636" d="M 2098.5,1152.5 C 2107.4,1160.9 2115.4,1170.24 2122.5,1180.5C 2115.22,1189.29 2107.38,1197.62 2099,1205.5C 2090.66,1197.3 2083.16,1188.47 2076.5,1179C 2084.05,1170.29 2091.39,1161.45 2098.5,1152.5 Z"/></g>
<g><path style="opacity:1" fill="#363636" d="M 1853.5,1186.5 C 1855.37,1186.86 1856.87,1187.86 1858,1189.5C 1864.69,1197.36 1871.19,1205.36 1877.5,1213.5C 1870.2,1222.47 1862.2,1230.8 1853.5,1238.5C 1845.25,1230.17 1837.59,1221.34 1830.5,1212C 1838.37,1203.63 1846.04,1195.13 1853.5,1186.5 Z"/></g>
<g><path style="opacity:1" fill="#184266" d="M 2999.5,1508.5 C 2999.5,1618.83 2999.5,1729.17 2999.5,1839.5C 2986.81,1855.19 2971.14,1867.02 2952.5,1875C 2905.3,1892.04 2865.47,1881.54 2833,1843.5C 2811.89,1813.67 2801.73,1780.33 2802.5,1743.5C 2805.63,1700.09 2811.8,1657.09 2821,1614.5C 2823.2,1606.03 2825.87,1597.7 2829,1589.5C 2841.46,1554.71 2863.3,1527.55 2894.5,1508C 2929.64,1488.58 2964.64,1488.75 2999.5,1508.5 Z"/></g>
<g><path style="opacity:1" fill="#184266" d="M 2199.5,1621.5 C 2233.62,1620.03 2266.29,1626.2 2297.5,1640C 2326.41,1652.79 2355.07,1666.12 2383.5,1680C 2410.02,1694.52 2432.19,1714.02 2450,1738.5C 2466.69,1762.59 2474.02,1789.26 2472,1818.5C 2462.52,1869.64 2432.02,1899.81 2380.5,1909C 2344.43,1912.99 2309.77,1907.65 2276.5,1893C 2237.88,1878.36 2201.21,1860.02 2166.5,1838C 2134.65,1816.48 2113.15,1787.32 2102,1750.5C 2091.88,1693.22 2113.38,1653.06 2166.5,1630C 2177.36,1626.09 2188.36,1623.26 2199.5,1621.5 Z"/></g>
<g><path style="opacity:1" fill="#1d4365" d="M -0.5,1713.5 C 51.9203,1805.01 96.2536,1900.34 132.5,1999.5C 125.167,1999.5 117.833,1999.5 110.5,1999.5C 80.0829,1908.67 43.0829,1820.67 -0.5,1735.5C -0.5,1728.17 -0.5,1720.83 -0.5,1713.5 Z"/></g>
<g><path style="opacity:1" fill="#feb24f" d="M -0.5,1735.5 C 43.0829,1820.67 80.0829,1908.67 110.5,1999.5C 73.5,1999.5 36.5,1999.5 -0.5,1999.5C -0.5,1911.5 -0.5,1823.5 -0.5,1735.5 Z"/></g>
</svg>
