<?xml version="1.0" encoding="UTF-8"?>
<!DOCTYPE svg PUBLIC "-//W3C//DTD SVG 1.1//EN" "http://www.w3.org/Graphics/SVG/1.1/DTD/svg11.dtd">
<svg xmlns="http://www.w3.org/2000/svg" version="1.1" width="3000px" height="2000px" style="shape-rendering:geometricPrecision; text-rendering:geometricPrecision; image-rendering:optimizeQuality; fill-rule:evenodd; clip-rule:evenodd" xmlns:xlink="http://www.w3.org/1999/xlink">
<g><path style="opacity:1" fill="#fefefe" d="M -0.5,-0.5 C 17.1667,-0.5 34.8333,-0.5 52.5,-0.5C 81.6792,22.2554 114.346,38.4221 150.5,48C 198.978,58.0599 240.145,45.2265 274,9.5C 276.437,6.28038 278.603,2.94704 280.5,-0.5C 396.833,-0.5 513.167,-0.5 629.5,-0.5C 688.012,27.3697 749.679,38.5363 814.5,33C 847.82,28.6205 878.486,17.4538 906.5,-0.5C 1116.5,-0.5 1326.5,-0.5 1536.5,-0.5C 1536.81,64.0824 1553.31,124.082 1586,179.5C 1616.86,226.682 1658.36,261.182 1710.5,283C 1764.23,304.317 1820.06,314.15 1878,312.5C 1955.35,311.192 2030.85,298.692 2104.5,275C 2198.28,246.011 2284.94,203.344 2364.5,147C 2419.72,106.947 2464.72,57.7804 2499.5,-0.5C 2666.17,-0.5 2832.83,-0.5 2999.5,-0.5C 2999.5,87.5 2999.5,175.5 2999.5,263.5C 2963.45,281.186 2930.45,303.353 2900.5,330C 2859.67,366.815 2823.17,407.315 2791,451.5C 2743.65,517.498 2701.31,586.831 2664,659.5C 2620.87,744.098 2578.53,829.098 2537,914.5C 2518.08,949.341 2499.41,984.341 2481,1019.5C 2472.39,1039.05 2464.06,1058.72 2456,1078.5C 2435.14,1134.76 2414.47,1191.09 2394,1247.5C 2375.61,1296.34 2353.94,1343.67 2329,1389.5C 2311.74,1420.78 2289.91,1448.61 2263.5,1473C 2237.47,1494.7 2207.8,1509.36 2174.5,1517C 2136.99,1525.55 2098.99,1529.88 2060.5,1530C 2032.17,1530.67 2003.83,1530.67 1975.5,1530C 1933.51,1528.21 1891.51,1526.71 1849.5,1525.5C 1822.41,1525.45 1795.41,1526.95 1768.5,1530C 1753.7,1532.36 1739.37,1536.36 1725.5,1542C 1673.7,1565.21 1627.03,1595.88 1585.5,1634C 1506.24,1712.46 1477.74,1806.63 1500,1916.5C 1506.19,1944.93 1514.69,1972.59 1525.5,1999.5C 1265.17,1999.5 1004.83,1999.5 744.5,1999.5C 785.369,1958.7 821.202,1914.03 852,1865.5C 927.216,1741.83 934.549,1614.17 874,1482.5C 848.525,1428.84 817.525,1378.84 781,1332.5C 763.031,1312.78 743.198,1295.28 721.5,1280C 706.101,1269.61 690.435,1259.61 674.5,1250C 629.658,1226.08 584.658,1202.41 539.5,1179C 513.167,1163.33 486.833,1147.67 460.5,1132C 420.091,1112.29 379.091,1093.96 337.5,1077C 304.632,1062.57 273.299,1045.57 243.5,1026C 203.571,997.08 172.738,960.58 151,916.5C 142.084,898.084 133.751,879.417 126,860.5C 112.388,822.94 99.0546,785.274 86,747.5C 71.6294,704.761 51.9627,664.761 27,627.5C 18.7223,615.726 9.55563,604.726 -0.5,594.5C -0.5,519.167 -0.5,443.833 -0.5,368.5C 53.1995,350.623 84.3662,313.623 93,257.5C 96.1438,226.882 92.1438,197.215 81,168.5C 62.2523,123.269 35.0856,83.9359 -0.5,50.5C -0.5,33.5 -0.5,16.5 -0.5,-0.5 Z"/></g>
<g><path style="opacity:1" fill="#ffb34f" d="M 52.5,-0.5 C 128.5,-0.5 204.5,-0.5 280.5,-0.5C 278.603,2.94704 276.437,6.28038 274,9.5C 240.145,45.2265 198.978,58.0599 150.5,48C 114.346,38.4221 81.6792,22.2554 52.5,-0.5 Z"/></g>
<g><path style="opacity:1" fill="#ffb34f" d="M 629.5,-0.5 C 721.833,-0.5 814.167,-0.5 906.5,-0.5C 878.486,17.4538 847.82,28.6205 814.5,33C 749.679,38.5363 688.012,27.3697 629.5,-0.5 Z"/></g>
<g><path style="opacity:1" fill="#184266" d="M 1536.5,-0.5 C 1857.5,-0.5 2178.5,-0.5 2499.5,-0.5C 2464.72,57.7804 2419.72,106.947 2364.5,147C 2284.94,203.344 2198.28,246.011 2104.5,275C 2030.85,298.692 1955.35,311.192 1878,312.5C 1820.06,314.15 1764.23,304.317 1710.5,283C 1658.36,261.182 1616.86,226.682 1586,179.5C 1553.31,124.082 1536.81,64.0824 1536.5,-0.5 Z"/></g>
<g><path style="opacity:1" fill="#ffb34f" d="M -0.5,50.5 C 35.0856,83.9359 62.2523,123.269 81,168.5C 92.1438,197.215 96.1438,226.882 93,257.5C 84.3662,313.623 53.1995,350.623 -0.5,368.5C -0.5,262.5 -0.5,156.5 -0.5,50.5 Z"/></g>
<g><path style="opacity:1" fill="#ffb34f" d="M 461.5,64.5 C 522.647,61.2735 578.647,76.4401 629.5,110C 665.463,136.429 691.963,170.263 709,211.5C 727.129,267.201 721.129,320.201 691,370.5C 652.994,429.128 600.161,467.961 532.5,487C 436.863,508.896 356.03,483.73 290,411.5C 253.607,365.969 237.94,313.969 243,255.5C 256.904,165.928 306.737,106.428 392.5,77C 415.12,69.9066 438.12,65.7399 461.5,64.5 Z"/></g>
<g><path style="opacity:1" fill="#184266" d="M 2999.5,263.5 C 2999.5,842.167 2999.5,1420.83 2999.5,1999.5C 2991.17,1999.5 2982.83,1999.5 2974.5,1999.5C 2992.1,1940.31 2987.94,1882.64 2962,1826.5C 2942.72,1785.9 2917.22,1749.73 2885.5,1718C 2793.52,1631.37 2684.19,1582.7 2557.5,1572C 2471.55,1566.24 2391.22,1584.57 2316.5,1627C 2232.48,1680.65 2201.31,1756.48 2223,1854.5C 2238.43,1908.71 2264.26,1957.05 2300.5,1999.5C 2232.17,1999.5 2163.83,1999.5 2095.5,1999.5C 2061.44,1929.91 2014.1,1870.75 1953.5,1822C 1899.06,1780.14 1838.06,1765.47 1770.5,1778C 1719.17,1794 1686,1827.83 1671,1879.5C 1661.34,1921.09 1665.84,1961.09 1684.5,1999.5C 1631.5,1999.5 1578.5,1999.5 1525.5,1999.5C 1514.69,1972.59 1506.19,1944.93 1500,1916.5C 1477.74,1806.63 1506.24,1712.46 1585.5,1634C 1627.03,1595.88 1673.7,1565.21 1725.5,1542C 1739.37,1536.36 1753.7,1532.36 1768.5,1530C 1795.41,1526.95 1822.41,1525.45 1849.5,1525.5C 1891.51,1526.71 1933.51,1528.21 1975.5,1530C 2003.83,1530.67 2032.17,1530.67 2060.5,1530C 2098.99,1529.88 2136.99,1525.55 2174.5,1517C 2207.8,1509.36 2237.47,1494.7 2263.5,1473C 2289.91,1448.61 2311.74,1420.78 2329,1389.5C 2353.94,1343.67 2375.61,1296.34 2394,1247.5C 2414.47,1191.09 2435.14,1134.76 2456,1078.5C 2464.06,1058.72 2472.39,1039.05 2481,1019.5C 2499.41,984.341 2518.08,949.341 2537,914.5C 2578.53,829.098 2620.87,744.098 2664,659.5C 2701.31,586.831 2743.65,517.498 2791,451.5C 2823.17,407.315 2859.67,366.815 2900.5,330C 2930.45,303.353 2963.45,281.186 2999.5,263.5 Z"/></g>
<g><path style="opacity:1" fill="#184266" d="M -0.5,594.5 C 9.55563,604.726 18.7223,615.726 27,627.5C 51.9627,664.761 71.6294,704.761 86,747.5C 99.0546,785.274 112.388,822.94 126,860.5C 133.751,879.417 142.084,898.084 151,916.5C 172.738,960.58 203.571,997.08 243.5,1026C 273.299,1045.57 304.632,1062.57 337.5,1077C 379.091,1093.96 420.091,1112.29 460.5,1132C 486.833,1147.67 513.167,1163.33 539.5,1179C 584.658,1202.41 629.658,1226.08 674.5,1250C 690.435,1259.61 706.101,1269.61 721.5,1280C 743.198,1295.28 763.031,1312.78 781,1332.5C 817.525,1378.84 848.525,1428.84 874,1482.5C 934.549,1614.17 927.216,1741.83 852,1865.5C 821.202,1914.03 785.369,1958.7 744.5,1999.5C 575.833,1999.5 407.167,1999.5 238.5,1999.5C 291.818,1924.02 296.651,1845.36 253,1763.5C 217.543,1705.71 170.043,1660.54 110.5,1628C 75.3844,1608.68 38.3844,1594.18 -0.5,1584.5C -0.5,1254.5 -0.5,924.5 -0.5,594.5 Z"/></g>
<g><path style="opacity:1" fill="#373737" d="M 1819.5,841.5 C 1823.92,841.305 1828.25,841.805 1832.5,843C 1840.77,850.802 1843.6,860.302 1841,871.5C 1839.25,880.488 1834.42,887.321 1826.5,892C 1807.41,898.784 1787.75,902.951 1767.5,904.5C 1767.28,903.325 1767.61,902.325 1768.5,901.5C 1771.3,899.862 1773.97,898.029 1776.5,896C 1791.96,893.737 1806.62,889.07 1820.5,882C 1821.67,880.833 1822.83,879.667 1824,878.5C 1823.97,876.583 1823.14,874.916 1821.5,873.5C 1810.44,869.052 1806.61,861.052 1810,849.5C 1812.77,846.217 1815.94,843.55 1819.5,841.5 Z"/></g>
<g><path style="opacity:1" fill="#373737" d="M 1600.5,844.5 C 1600.79,850.259 1600.45,855.925 1599.5,861.5C 1577.55,867.422 1555.55,873.089 1533.5,878.5C 1534.05,873.518 1534.39,868.518 1534.5,863.5C 1556.49,857.169 1578.49,850.836 1600.5,844.5 Z"/></g>
<g><path style="opacity:1" fill="#a8a8a8" d="M 1600.5,844.5 C 1601.16,847.146 1601.5,849.979 1601.5,853C 1601.48,856.252 1600.81,859.085 1599.5,861.5C 1600.45,855.925 1600.79,850.259 1600.5,844.5 Z"/></g>
<g><path style="opacity:1" fill="#383838" d="M 2091.5,844.5 C 2092.83,844.5 2094.17,844.5 2095.5,844.5C 2095.5,850.167 2095.5,855.833 2095.5,861.5C 2073.22,867.29 2050.89,872.957 2028.5,878.5C 2028.2,873.57 2028.53,868.737 2029.5,864C 2050.38,857.787 2071.05,851.287 2091.5,844.5 Z"/></g>
<g><path style="opacity:1" fill="#3b3b3b" d="M 1079.5,848.5 C 1087.69,847.195 1092.86,850.528 1095,858.5C 1098.09,875.741 1090.93,885.241 1073.5,887C 1061.46,889.26 1056.3,884.427 1058,872.5C 1061.9,861.44 1069.07,853.44 1079.5,848.5 Z"/></g>
<g><path style="opacity:1" fill="#3a3a3a" d="M 1387.5,848.5 C 1398.42,848.091 1403.76,853.424 1403.5,864.5C 1403.29,878.214 1396.29,885.714 1382.5,887C 1370.1,889.592 1364.6,884.759 1366,872.5C 1369.87,861.465 1377.04,853.465 1387.5,848.5 Z"/></g>
<g><path style="opacity:1" fill="#fbfbfb" d="M 1079.5,854.5 C 1082.97,853.875 1085.8,854.875 1088,857.5C 1092.86,874.646 1086.36,882.479 1068.5,881C 1067.33,880.5 1066.5,879.667 1066,878.5C 1064.83,873.06 1065.83,868.06 1069,863.5C 1072.1,859.886 1075.6,856.886 1079.5,854.5 Z"/></g>
<g><path style="opacity:1" fill="#363636" d="M 1154.5,973.5 C 1151.5,974.167 1148.5,974.833 1145.5,975.5C 1164.16,992.999 1184.16,1008.83 1205.5,1023C 1213.67,1029.83 1221.17,1037.33 1228,1045.5C 1228.67,1055.17 1228.67,1064.83 1228,1074.5C 1226.86,1078.24 1225.53,1081.91 1224,1085.5C 1193.15,1118.39 1156.32,1127.56 1113.5,1113C 1108.07,1107.97 1104.9,1101.8 1104,1094.5C 1100.3,1104.09 1094.13,1111.59 1085.5,1117C 1070.83,1119 1056.17,1119 1041.5,1117C 1033.82,1113.66 1027.65,1108.49 1023,1101.5C 1016.92,1088.92 1012.25,1075.92 1009,1062.5C 1003.6,1075.59 995.43,1086.75 984.5,1096C 967.553,1110.93 948.553,1122.6 927.5,1131C 906.821,1137.76 894.654,1130.59 891,1109.5C 889.581,1096.85 890.915,1084.52 895,1072.5C 900.274,1058.62 907.108,1045.62 915.5,1033.5C 916.614,1034.72 916.781,1036.06 916,1037.5C 908.831,1051.01 902.831,1065.01 898,1079.5C 897.333,1086.83 897.333,1094.17 898,1101.5C 899.927,1106.43 903.427,1109.59 908.5,1111C 913.5,1111.67 918.5,1111.67 923.5,1111C 956.746,1098.8 983.579,1078.3 1004,1049.5C 1005.49,1044.59 1005.83,1039.59 1005,1034.5C 997.795,1011.55 989.795,988.886 981,966.5C 980.779,958.375 981.779,950.375 984,942.5C 991.233,952.965 996.899,964.299 1001,976.5C 1011.72,1006.76 1019.39,1037.76 1024,1069.5C 1027.19,1081.68 1034.35,1090.51 1045.5,1096C 1059.14,1097.39 1072.81,1097.72 1086.5,1097C 1090.45,1096.47 1093.61,1094.63 1096,1091.5C 1099.35,1084.79 1103.69,1078.79 1109,1073.5C 1108.77,1078.92 1109.94,1083.92 1112.5,1088.5C 1116.45,1091.95 1120.78,1094.79 1125.5,1097C 1141.5,1097.67 1157.5,1097.67 1173.5,1097C 1192.27,1090.62 1209.27,1081.12 1224.5,1068.5C 1225.64,1066.58 1225.81,1064.58 1225,1062.5C 1198.26,1040.55 1171.43,1018.71 1144.5,997C 1135.83,990.509 1128.83,982.675 1123.5,973.5C 1120.57,960.508 1122.74,948.508 1130,937.5C 1146.76,924.527 1164.93,913.694 1184.5,905C 1230.63,882.291 1278.96,865.958 1329.5,856C 1339.52,855.168 1349.52,855.334 1359.5,856.5C 1364.12,861.252 1365.62,866.918 1364,873.5C 1362.86,881.393 1360.19,888.727 1356,895.5C 1345.58,912.927 1333.25,928.927 1319,943.5C 1318.54,938.396 1319.87,933.729 1323,929.5C 1330.75,917.66 1338.75,905.993 1347,894.5C 1349.79,889.908 1352.29,885.241 1354.5,880.5C 1354.54,877.699 1353.2,875.865 1350.5,875C 1341.17,874.333 1331.83,874.333 1322.5,875C 1277.05,885.816 1233.05,900.816 1190.5,920C 1170.2,929.144 1150.87,939.811 1132.5,952C 1130.77,953.389 1129.44,955.056 1128.5,957C 1136.66,963.249 1145.32,968.749 1154.5,973.5 Z"/></g>
<g><path style="opacity:1" fill="#f9f9f9" d="M 1387.5,854.5 C 1390.97,853.875 1393.8,854.875 1396,857.5C 1400.35,874.825 1393.52,882.658 1375.5,881C 1371.78,876.397 1371.61,871.564 1375,866.5C 1378.38,861.623 1382.54,857.623 1387.5,854.5 Z"/></g>
<g><path style="opacity:1" fill="#f5f5f5" d="M 1823.5,856.5 C 1830.61,858.844 1832.44,863.511 1829,870.5C 1827.08,866.742 1824.58,863.409 1821.5,860.5C 1822.18,859.14 1822.85,857.807 1823.5,856.5 Z"/></g>
<g><path style="opacity:1" fill="#3a3a3a" d="M 1590.5,876.5 C 1598.28,886.045 1598.28,895.545 1590.5,905C 1587.76,905.803 1585.09,906.803 1582.5,908C 1578.4,909.147 1574.9,908.314 1572,905.5C 1571.67,901.5 1571.33,897.5 1571,893.5C 1566.35,900.489 1560.18,905.656 1552.5,909C 1541.09,911.314 1534.75,906.814 1533.5,895.5C 1534.25,889.505 1536.08,883.838 1539,878.5C 1539.33,878.833 1539.67,879.167 1540,879.5C 1540.33,885.5 1540.67,891.5 1541,897.5C 1544.6,900.384 1548.76,901.218 1553.5,900C 1560.33,895.833 1565.83,890.333 1570,883.5C 1571.97,882.36 1573.81,881.027 1575.5,879.5C 1576.81,880.912 1577.64,882.579 1578,884.5C 1578.5,889.508 1579,894.508 1579.5,899.5C 1585.31,900.348 1589.14,898.015 1591,892.5C 1591.43,887.154 1591.27,881.82 1590.5,876.5 Z"/></g>
<g><path style="opacity:1" fill="#373737" d="M 1970.5,884.5 C 1974.37,887.884 1977.54,891.884 1980,896.5C 1985.04,907.672 1988.38,919.339 1990,931.5C 1990.33,970.167 1990.67,1008.83 1991,1047.5C 1991.23,1060.42 1994.56,1072.42 2001,1083.5C 2004.87,1087.7 2009.03,1091.53 2013.5,1095C 2016.6,1096.76 2019.93,1097.59 2023.5,1097.5C 2037.49,1096.76 2051.49,1096.26 2065.5,1096C 2075.37,1093.07 2084.37,1088.57 2092.5,1082.5C 2093.61,1081.28 2093.78,1079.94 2093,1078.5C 2084.76,1068.35 2076.76,1058.01 2069,1047.5C 2064.71,1040.59 2060.71,1033.59 2057,1026.5C 2057,1019.8 2057.67,1013.13 2059,1006.5C 2066.83,1013 2074.67,1019.5 2082.5,1026C 2079.52,1026.5 2076.52,1026.66 2073.5,1026.5C 2073.34,1027.87 2073.51,1029.21 2074,1030.5C 2080.67,1038.5 2087.33,1046.5 2094,1054.5C 2096.48,1057.79 2098.14,1061.46 2099,1065.5C 2102.26,1080.88 2098.09,1093.72 2086.5,1104C 2080,1109.09 2073,1113.42 2065.5,1117C 2012.56,1131.32 1984.06,1111.48 1980,1057.5C 1979.26,1017.48 1978.26,977.48 1977,937.5C 1976.46,934.471 1975.79,931.471 1975,928.5C 1971.44,920.536 1967.27,913.036 1962.5,906C 1964.76,898.656 1967.42,891.489 1970.5,884.5 Z"/></g>
<g><path style="opacity:1" fill="#383838" d="M 1672.5,884.5 C 1680.65,899.463 1688.31,914.796 1695.5,930.5C 1695,931.521 1694.33,931.688 1693.5,931C 1690.42,928.71 1687.25,926.543 1684,924.5C 1683.83,925.833 1683.67,927.167 1683.5,928.5C 1688.33,967.833 1693.17,1007.17 1698,1046.5C 1698.67,1064.17 1698.67,1081.83 1698,1099.5C 1696.19,1105.11 1694.69,1110.77 1693.5,1116.5C 1692.5,1116.5 1691.5,1116.5 1690.5,1116.5C 1690.75,1101.81 1690.25,1087.14 1689,1072.5C 1682.78,1018.83 1676.44,965.16 1670,911.5C 1669.16,909.162 1668.33,906.828 1667.5,904.5C 1668.86,897.735 1670.52,891.069 1672.5,884.5 Z"/></g>
<g><path style="opacity:1" fill="#9d9d9d" d="M 1154.5,973.5 C 1155.04,973.56 1155.38,973.893 1155.5,974.5C 1152.23,975.487 1148.9,975.82 1145.5,975.5C 1148.5,974.833 1151.5,974.167 1154.5,973.5 Z"/></g>
<g><path style="opacity:1" fill="#373737" d="M 1581.5,985.5 C 1589.77,989.3 1597.77,993.633 1605.5,998.5C 1605.29,1005.69 1603.62,1012.69 1600.5,1019.5C 1592.68,1015.76 1585.01,1011.76 1577.5,1007.5C 1577.17,1006.67 1576.83,1005.83 1576.5,1005C 1578.27,998.512 1579.94,992.012 1581.5,985.5 Z"/></g>
<g><path style="opacity:1" fill="#373737" d="M 1551.5,997.5 C 1559.85,1001.43 1568.02,1005.76 1576,1010.5C 1574.64,1017.59 1572.64,1024.59 1570,1031.5C 1561.56,1027.03 1553.39,1022.2 1545.5,1017C 1547.42,1010.42 1549.42,1003.92 1551.5,997.5 Z"/></g>
<g><path style="opacity:1" fill="#373737" d="M 1790.5,1018.5 C 1791.62,1020.29 1791.79,1022.29 1791,1024.5C 1786.07,1035.61 1781.74,1046.94 1778,1058.5C 1777.33,1063.83 1777.33,1069.17 1778,1074.5C 1780.67,1079.17 1783.33,1083.83 1786,1088.5C 1790.75,1091.79 1795.58,1094.96 1800.5,1098C 1847.62,1104.5 1893.62,1099.84 1938.5,1084C 1942.76,1082.38 1946.43,1080.05 1949.5,1077C 1946.47,1068.1 1942.47,1059.6 1937.5,1051.5C 1940.17,1045.49 1942.84,1039.49 1945.5,1033.5C 1949.86,1041.56 1953.7,1049.9 1957,1058.5C 1962.62,1075.11 1958.12,1087.94 1943.5,1097C 1929.4,1104.61 1914.4,1109.61 1898.5,1112C 1868.1,1118.32 1837.44,1119.99 1806.5,1117C 1792.69,1115.5 1781.52,1109.34 1773,1098.5C 1767.78,1081.61 1768.45,1064.94 1775,1048.5C 1780.43,1038.63 1785.6,1028.63 1790.5,1018.5 Z"/></g>
<g><path style="opacity:1" fill="#363636" d="M 1626.5,880.5 C 1635.01,895.016 1642.68,910.182 1649.5,926C 1649.33,926.5 1649.17,927 1649,927.5C 1645.33,925.167 1641.67,922.833 1638,920.5C 1642.58,960.794 1647.24,1001.13 1652,1041.5C 1652.67,1056.5 1652.67,1071.5 1652,1086.5C 1647.03,1108.16 1633.37,1118.83 1611,1118.5C 1593.36,1119.55 1583.02,1111.55 1580,1094.5C 1577.51,1100.16 1574.51,1105.49 1571,1110.5C 1568.11,1113.06 1564.94,1115.22 1561.5,1117C 1548.87,1118.32 1536.2,1118.82 1523.5,1118.5C 1522.89,1128.96 1521.39,1139.3 1519,1149.5C 1511.58,1160.26 1502.75,1169.76 1492.5,1178C 1485.22,1182.95 1478.22,1188.28 1471.5,1194C 1454.88,1205.21 1436.88,1213.54 1417.5,1219C 1380.2,1225.61 1357.7,1210.44 1350,1173.5C 1348.35,1155.57 1349.68,1137.9 1354,1120.5C 1355.05,1118.91 1356.21,1117.41 1357.5,1116C 1358.5,1115.33 1359.5,1115.33 1360.5,1116C 1358.42,1119.24 1356.92,1122.74 1356,1126.5C 1353.17,1140.44 1352.84,1154.44 1355,1168.5C 1366.24,1191.54 1384.74,1201.71 1410.5,1199C 1428.48,1194.85 1445.48,1188.18 1461.5,1179C 1480.77,1166.74 1498.61,1152.57 1515,1136.5C 1516.2,1130.46 1515.36,1124.79 1512.5,1119.5C 1498.51,1118.67 1484.51,1118.17 1470.5,1118C 1466.31,1116.47 1463.47,1113.64 1462,1109.5C 1458.09,1092.49 1463.59,1079.66 1478.5,1071C 1483.56,1070.34 1488.56,1070.67 1493.5,1072C 1504.43,1078.92 1512.43,1088.26 1517.5,1100C 1522.82,1100.5 1528.16,1100.67 1533.5,1100.5C 1533.5,1099.5 1533.5,1098.5 1533.5,1097.5C 1543.17,1097.67 1552.84,1097.5 1562.5,1097C 1564.5,1096.33 1566.5,1095.67 1568.5,1095C 1572.95,1089.94 1576.78,1084.44 1580,1078.5C 1582,1076.5 1584,1074.5 1586,1072.5C 1586.11,1077.61 1586.78,1082.61 1588,1087.5C 1591.04,1090.93 1594.54,1093.77 1598.5,1096C 1608.45,1097.53 1618.45,1097.86 1628.5,1097C 1635.93,1095.55 1641.09,1091.38 1644,1084.5C 1643.8,1074.16 1643.13,1063.83 1642,1053.5C 1635.76,1005.25 1630.09,956.914 1625,908.5C 1624.02,905.88 1622.85,903.38 1621.5,901C 1623.48,894.224 1625.15,887.391 1626.5,880.5 Z"/></g>
<g><path style="opacity:1" fill="#f3f3f3" d="M 1479.5,1090.5 C 1486.71,1090.34 1492.38,1093.34 1496.5,1099.5C 1489.42,1100.92 1482.42,1100.76 1475.5,1099C 1474.83,1098 1474.17,1097 1473.5,1096C 1474.77,1093.22 1476.77,1091.39 1479.5,1090.5 Z"/></g>
<g><path style="opacity:1" fill="#363636" d="M 1141.5,1158.5 C 1139.56,1154.29 1138.9,1149.62 1139.5,1144.5C 1161.44,1137.63 1183.44,1130.96 1205.5,1124.5C 1205.5,1130.17 1205.5,1135.83 1205.5,1141.5C 1184.1,1146.85 1162.76,1152.52 1141.5,1158.5 Z"/></g>
<g><path style="opacity:1" fill="#373737" d="M 955.5,1124.5 C 956.5,1124.5 957.5,1124.5 958.5,1124.5C 958.5,1130.17 958.5,1135.83 958.5,1141.5C 936.194,1146.95 914.027,1152.95 892,1159.5C 891.171,1154.47 891.338,1149.47 892.5,1144.5C 913.608,1137.8 934.608,1131.13 955.5,1124.5 Z"/></g>
<g><path style="opacity:1" fill="#383838" d="M 1853.5,1130.5 C 1858.79,1134.62 1863.96,1138.96 1869,1143.5C 1869.67,1144.5 1869.67,1145.5 1869,1146.5C 1866.29,1149.04 1863.79,1151.71 1861.5,1154.5C 1855.75,1150.29 1850.42,1145.63 1845.5,1140.5C 1847.81,1136.86 1850.48,1133.53 1853.5,1130.5 Z"/></g>
<g><path style="opacity:1" fill="#373737" d="M 1095.5,1138.5 C 1101.93,1141.22 1108.27,1144.22 1114.5,1147.5C 1114.93,1155.13 1113.43,1162.47 1110,1169.5C 1103.26,1166.21 1096.76,1162.55 1090.5,1158.5C 1092.38,1151.87 1094.05,1145.21 1095.5,1138.5 Z"/></g>
<g><path style="opacity:1" fill="#383838" d="M 1064.5,1143.5 C 1072.05,1145.94 1079.05,1149.44 1085.5,1154C 1084.19,1161.1 1082.19,1167.93 1079.5,1174.5C 1073.41,1171.04 1067.25,1167.71 1061,1164.5C 1061.83,1157.5 1062.99,1150.5 1064.5,1143.5 Z"/></g>
<g><path style="opacity:1" fill="#373737" d="M 2073.5,1143.5 C 2082.37,1147.76 2090.71,1152.76 2098.5,1158.5C 2096.62,1164.8 2094.96,1171.13 2093.5,1177.5C 2084.8,1174.32 2076.47,1170.32 2068.5,1165.5C 2068.88,1158 2070.54,1150.67 2073.5,1143.5 Z"/></g>
<g><path style="opacity:1" fill="#9e9e9e" d="M 1139.5,1144.5 C 1138.9,1149.62 1139.56,1154.29 1141.5,1158.5C 1140.79,1159.4 1139.79,1159.74 1138.5,1159.5C 1138.18,1154.31 1138.51,1149.31 1139.5,1144.5 Z"/></g>
<g><path style="opacity:1" fill="#feb24f" d="M 2974.5,1999.5 C 2749.83,1999.5 2525.17,1999.5 2300.5,1999.5C 2264.26,1957.05 2238.43,1908.71 2223,1854.5C 2201.31,1756.48 2232.48,1680.65 2316.5,1627C 2391.22,1584.57 2471.55,1566.24 2557.5,1572C 2684.19,1582.7 2793.52,1631.37 2885.5,1718C 2917.22,1749.73 2942.72,1785.9 2962,1826.5C 2987.94,1882.64 2992.1,1940.31 2974.5,1999.5 Z"/></g>
<g><path style="opacity:1" fill="#feb24f" d="M -0.5,1584.5 C 38.3844,1594.18 75.3844,1608.68 110.5,1628C 170.043,1660.54 217.543,1705.71 253,1763.5C 296.651,1845.36 291.818,1924.02 238.5,1999.5C 158.833,1999.5 79.1667,1999.5 -0.5,1999.5C -0.5,1861.17 -0.5,1722.83 -0.5,1584.5 Z"/></g>
<g><path style="opacity:1" fill="#feb24f" d="M 2095.5,1999.5 C 1958.5,1999.5 1821.5,1999.5 1684.5,1999.5C 1665.84,1961.09 1661.34,1921.09 1671,1879.5C 1686,1827.83 1719.17,1794 1770.5,1778C 1838.06,1765.47 1899.06,1780.14 1953.5,1822C 2014.1,1870.75 2061.44,1929.91 2095.5,1999.5 Z"/></g>
</svg>
