<?xml version="1.0" encoding="UTF-8"?>
<!DOCTYPE svg PUBLIC "-//W3C//DTD SVG 1.1//EN" "http://www.w3.org/Graphics/SVG/1.1/DTD/svg11.dtd">
<svg xmlns="http://www.w3.org/2000/svg" version="1.1" width="3000px" height="2000px" style="shape-rendering:geometricPrecision; text-rendering:geometricPrecision; image-rendering:optimizeQuality; fill-rule:evenodd; clip-rule:evenodd" xmlns:xlink="http://www.w3.org/1999/xlink">
<g><path style="opacity:1" fill="#184266" d="M -0.5,-0.5 C 99.1667,-0.5 198.833,-0.5 298.5,-0.5C 321.569,20.0601 346.235,38.5601 372.5,55C 420.122,80.9097 470.789,97.9097 524.5,106C 561.065,111.803 597.732,116.803 634.5,121C 678.122,126.324 721.122,134.658 763.5,146C 823.457,164.128 875.791,194.795 920.5,238C 953.548,269.69 982.048,304.857 1006,343.5C 1011.96,353.083 1017.12,363.083 1021.5,373.5C 1011.42,434.245 990.918,491.245 960,544.5C 931.666,592.513 898.332,636.847 860,677.5C 823.665,716.175 785.165,752.342 744.5,786C 673.657,843.418 600.323,897.418 524.5,948C 455.103,993.727 385.436,1039.06 315.5,1084C 267.119,1119.89 219.786,1157.05 173.5,1195.5C 115.838,1203.48 57.8384,1207.15 -0.5,1206.5C -0.5,1164.83 -0.5,1123.17 -0.5,1081.5C 112.519,1086.97 223.186,1073.47 331.5,1041C 392.382,1023.32 445.882,993.158 492,950.5C 518.908,922.009 541.908,890.676 561,856.5C 581.08,820.005 601.413,783.672 622,747.5C 638.113,720.707 657.28,696.207 679.5,674C 697.545,658.953 715.878,644.287 734.5,630C 774.907,592.946 791.074,547.112 783,492.5C 774.338,445.339 751.838,406.172 715.5,375C 677.17,344.333 634.17,322.333 586.5,309C 563.91,303.352 541.243,298.019 518.5,293C 468.02,284.879 418.02,274.546 368.5,262C 329.763,251.129 294.096,234.129 261.5,211C 254.039,205.207 246.872,199.041 240,192.5C 225.57,175.4 210.403,158.9 194.5,143C 147.822,103.433 93.6549,83.6 32,83.5C 21.1337,83.7643 10.3004,84.431 -0.5,85.5C -0.5,56.8333 -0.5,28.1667 -0.5,-0.5 Z"/></g>
<g><path style="opacity:1" fill="#feb250" d="M 298.5,-0.5 C 312.5,-0.5 326.5,-0.5 340.5,-0.5C 387.522,38.8345 441.522,64.0012 502.5,75C 550.269,83.5302 598.269,90.5302 646.5,96C 690.236,101.245 733.236,109.912 775.5,122C 825.834,137.493 871.168,161.827 911.5,195C 956.404,232.766 994.404,276.266 1025.5,325.5C 1055.88,371.962 1072.88,422.962 1076.5,478.5C 1075.6,534.786 1054.27,581.619 1012.5,619C 984.738,641.714 955.738,662.714 925.5,682C 899.546,699.615 876.379,720.449 856,744.5C 841.968,764.233 829.968,785.233 820,807.5C 805.275,843.675 790.941,880.008 777,916.5C 762.328,953.538 742.328,987.205 717,1017.5C 674.26,1061.31 624.427,1094.81 567.5,1118C 428.269,1177.28 283.269,1213.78 132.5,1227.5C 129.941,1227.2 127.607,1227.53 125.5,1228.5C 83.5646,1231.69 41.5646,1233.35 -0.5,1233.5C -0.5,1224.5 -0.5,1215.5 -0.5,1206.5C 57.8384,1207.15 115.838,1203.48 173.5,1195.5C 300.766,1180.2 423.766,1148.37 542.5,1100C 579.68,1085.09 614.68,1066.42 647.5,1044C 695.91,1009.07 730.743,963.569 752,907.5C 767.226,866.382 783.56,825.715 801,785.5C 819.335,745.326 845.502,711.159 879.5,683C 905.614,663.555 932.28,644.888 959.5,627C 978.811,613.366 996.645,597.866 1013,580.5C 1042.17,545.038 1053.84,504.372 1048,458.5C 1043.94,428.553 1035.1,400.219 1021.5,373.5C 1017.12,363.083 1011.96,353.083 1006,343.5C 982.048,304.857 953.548,269.69 920.5,238C 875.791,194.795 823.457,164.128 763.5,146C 721.122,134.658 678.122,126.324 634.5,121C 597.732,116.803 561.065,111.803 524.5,106C 470.789,97.9097 420.122,80.9097 372.5,55C 346.235,38.5601 321.569,20.0601 298.5,-0.5 Z"/></g>
<g><path style="opacity:1" fill="#184266" d="M 340.5,-0.5 C 538.833,-0.5 737.167,-0.5 935.5,-0.5C 975.457,68.533 1003.29,142.2 1019,220.5C 1024.79,255.441 1026.96,290.441 1025.5,325.5C 994.404,276.266 956.404,232.766 911.5,195C 871.168,161.827 825.834,137.493 775.5,122C 733.236,109.912 690.236,101.245 646.5,96C 598.269,90.5302 550.269,83.5302 502.5,75C 441.522,64.0012 387.522,38.8345 340.5,-0.5 Z"/></g>
<g><path style="opacity:1" fill="#fefefe" d="M 935.5,-0.5 C 1623.5,-0.5 2311.5,-0.5 2999.5,-0.5C 2999.5,76.5 2999.5,153.5 2999.5,230.5C 2828.63,278.476 2684.13,368.142 2566,499.5C 2501.21,571.753 2451.88,653.753 2418,745.5C 2366.17,895.994 2377.84,1041.33 2453,1181.5C 2493.2,1255.61 2541.04,1324.28 2596.5,1387.5C 2568.55,1399.21 2540.22,1410.04 2511.5,1420C 2438.26,1442.98 2364.93,1465.64 2291.5,1488C 2231.14,1507.23 2173.14,1531.89 2117.5,1562C 1990.53,1635.03 1907.7,1742.53 1869,1884.5C 1858.61,1922.17 1852.11,1960.5 1849.5,1999.5C 1232.83,1999.5 616.167,1999.5 -0.5,1999.5C -0.5,1772.5 -0.5,1545.5 -0.5,1318.5C 45.6306,1292.35 89.2972,1262.69 130.5,1229.5C 131.5,1229.17 132.167,1228.5 132.5,1227.5C 283.269,1213.78 428.269,1177.28 567.5,1118C 624.427,1094.81 674.26,1061.31 717,1017.5C 742.328,987.205 762.328,953.538 777,916.5C 790.941,880.008 805.275,843.675 820,807.5C 829.968,785.233 841.968,764.233 856,744.5C 876.379,720.449 899.546,699.615 925.5,682C 955.738,662.714 984.738,641.714 1012.5,619C 1054.27,581.619 1075.6,534.786 1076.5,478.5C 1072.88,422.962 1055.88,371.962 1025.5,325.5C 1026.96,290.441 1024.79,255.441 1019,220.5C 1003.29,142.2 975.457,68.533 935.5,-0.5 Z"/></g>
<g><path style="opacity:1" fill="#fcb14f" d="M -0.5,1081.5 C -0.5,1072.5 -0.5,1063.5 -0.5,1054.5C 60.8058,1058.48 121.806,1055.65 182.5,1046C 239.117,1038.21 294.451,1025.21 348.5,1007C 417.254,983.54 472.088,942.04 513,882.5C 521.729,869.433 530.062,856.099 538,842.5C 558.08,806.005 578.413,769.672 599,733.5C 617.744,703.073 639.911,675.24 665.5,650C 683.349,636.241 701.015,622.241 718.5,608C 745.578,583.627 758.578,553.127 757.5,516.5C 757.373,485.951 748.873,457.951 732,432.5C 702.379,392.751 664.212,364.251 617.5,347C 587.463,336.157 556.797,327.49 525.5,321C 483.791,313.155 442.124,305.155 400.5,297C 360.404,288.635 322.071,275.302 285.5,257C 262.563,244.699 241.563,229.699 222.5,212C 205.509,192.676 187.842,174.009 169.5,156C 119.054,118.054 62.3878,103.554 -0.5,112.5C -0.5,103.5 -0.5,94.5 -0.5,85.5C 10.3004,84.431 21.1337,83.7643 32,83.5C 93.6549,83.6 147.822,103.433 194.5,143C 210.403,158.9 225.57,175.4 240,192.5C 246.872,199.041 254.039,205.207 261.5,211C 294.096,234.129 329.763,251.129 368.5,262C 418.02,274.546 468.02,284.879 518.5,293C 541.243,298.019 563.91,303.352 586.5,309C 634.17,322.333 677.17,344.333 715.5,375C 751.838,406.172 774.338,445.339 783,492.5C 791.074,547.112 774.907,592.946 734.5,630C 715.878,644.287 697.545,658.953 679.5,674C 657.28,696.207 638.113,720.707 622,747.5C 601.413,783.672 581.08,820.005 561,856.5C 541.908,890.676 518.908,922.009 492,950.5C 445.882,993.158 392.382,1023.32 331.5,1041C 223.186,1073.47 112.519,1086.97 -0.5,1081.5 Z"/></g>
<g><path style="opacity:1" fill="#184265" d="M -0.5,1054.5 C -0.5,1000.5 -0.5,946.5 -0.5,892.5C 40.0728,898.179 79.4061,893.345 117.5,878C 169.518,856.158 221.185,833.491 272.5,810C 322.311,788.285 367.977,760.285 409.5,726C 433.433,704.755 453.6,680.588 470,653.5C 480.606,635.353 488.272,616.02 493,595.5C 501.143,551.626 485.643,519.459 446.5,499C 429.463,491.991 411.796,487.324 393.5,485C 351.498,484.031 309.498,483.031 267.5,482C 230.744,479.639 197.41,467.972 167.5,447C 148.526,428.359 129.859,409.359 111.5,390C 79.2186,362.729 41.8853,347.229 -0.5,343.5C -0.5,266.5 -0.5,189.5 -0.5,112.5C 62.3878,103.554 119.054,118.054 169.5,156C 187.842,174.009 205.509,192.676 222.5,212C 241.563,229.699 262.563,244.699 285.5,257C 322.071,275.302 360.404,288.635 400.5,297C 442.124,305.155 483.791,313.155 525.5,321C 556.797,327.49 587.463,336.157 617.5,347C 664.212,364.251 702.379,392.751 732,432.5C 748.873,457.951 757.373,485.951 757.5,516.5C 758.578,553.127 745.578,583.627 718.5,608C 701.015,622.241 683.349,636.241 665.5,650C 639.911,675.24 617.744,703.073 599,733.5C 578.413,769.672 558.08,806.005 538,842.5C 530.062,856.099 521.729,869.433 513,882.5C 472.088,942.04 417.254,983.54 348.5,1007C 294.451,1025.21 239.117,1038.21 182.5,1046C 121.806,1055.65 60.8058,1058.48 -0.5,1054.5 Z"/></g>
<g><path style="opacity:1" fill="#184266" d="M 2999.5,230.5 C 2999.5,820.167 2999.5,1409.83 2999.5,1999.5C 2933.5,1999.5 2867.5,1999.5 2801.5,1999.5C 2805.85,1946.59 2807.35,1893.59 2806,1840.5C 2803.84,1777.55 2792.84,1716.21 2773,1656.5C 2759.2,1617.06 2741.2,1579.73 2719,1544.5C 2704.4,1522.31 2689.07,1500.64 2673,1479.5C 2647.73,1448.62 2622.23,1417.95 2596.5,1387.5C 2541.04,1324.28 2493.2,1255.61 2453,1181.5C 2377.84,1041.33 2366.17,895.994 2418,745.5C 2451.88,653.753 2501.21,571.753 2566,499.5C 2684.13,368.142 2828.63,278.476 2999.5,230.5 Z"/></g>
<g><path style="opacity:1" fill="#fcb14f" d="M -0.5,343.5 C 41.8853,347.229 79.2186,362.729 111.5,390C 129.859,409.359 148.526,428.359 167.5,447C 197.41,467.972 230.744,479.639 267.5,482C 309.498,483.031 351.498,484.031 393.5,485C 411.796,487.324 429.463,491.991 446.5,499C 485.643,519.459 501.143,551.626 493,595.5C 488.272,616.02 480.606,635.353 470,653.5C 453.6,680.588 433.433,704.755 409.5,726C 367.977,760.285 322.311,788.285 272.5,810C 221.185,833.491 169.518,856.158 117.5,878C 79.4061,893.345 40.0728,898.179 -0.5,892.5C -0.5,883.167 -0.5,873.833 -0.5,864.5C 4.66059,866.289 9.99393,867.456 15.5,868C 46.8717,870.12 77.205,865.453 106.5,854C 156.735,832.55 206.735,810.55 256.5,788C 293.237,771.472 328.237,752.139 361.5,730C 397.608,705.228 426.775,674.062 449,636.5C 460.46,616.653 466.96,595.32 468.5,572.5C 467.732,552.795 459.066,537.629 442.5,527C 423.359,517.237 403.026,511.903 381.5,511C 344.823,510.814 308.156,510.147 271.5,509C 234.522,506.758 199.855,496.758 167.5,479C 160.324,474.245 153.324,469.245 146.5,464C 127.499,445.332 108.832,426.332 90.5,407C 63.871,385.949 33.5376,373.782 -0.5,370.5C -0.5,361.5 -0.5,352.5 -0.5,343.5 Z"/></g>
<g><path style="opacity:1" fill="#184265" d="M -0.5,370.5 C 33.5376,373.782 63.871,385.949 90.5,407C 108.832,426.332 127.499,445.332 146.5,464C 153.324,469.245 160.324,474.245 167.5,479C 199.855,496.758 234.522,506.758 271.5,509C 308.156,510.147 344.823,510.814 381.5,511C 403.026,511.903 423.359,517.237 442.5,527C 459.066,537.629 467.732,552.795 468.5,572.5C 466.96,595.32 460.46,616.653 449,636.5C 426.775,674.062 397.608,705.228 361.5,730C 328.237,752.139 293.237,771.472 256.5,788C 206.735,810.55 156.735,832.55 106.5,854C 77.205,865.453 46.8717,870.12 15.5,868C 9.99393,867.456 4.66059,866.289 -0.5,864.5C -0.5,699.833 -0.5,535.167 -0.5,370.5 Z"/></g>
<g><path style="opacity:1" fill="#fefefe" d="M 1021.5,373.5 C 1035.1,400.219 1043.94,428.553 1048,458.5C 1053.84,504.372 1042.17,545.038 1013,580.5C 996.645,597.866 978.811,613.366 959.5,627C 932.28,644.888 905.614,663.555 879.5,683C 845.502,711.159 819.335,745.326 801,785.5C 783.56,825.715 767.226,866.382 752,907.5C 730.743,963.569 695.91,1009.07 647.5,1044C 614.68,1066.42 579.68,1085.09 542.5,1100C 423.766,1148.37 300.766,1180.2 173.5,1195.5C 219.786,1157.05 267.119,1119.89 315.5,1084C 385.436,1039.06 455.103,993.727 524.5,948C 600.323,897.418 673.657,843.418 744.5,786C 785.165,752.342 823.665,716.175 860,677.5C 898.332,636.847 931.666,592.513 960,544.5C 990.918,491.245 1011.42,434.245 1021.5,373.5 Z"/></g>
<g><path style="opacity:1" fill="#353535" d="M 1005.5,828.5 C 1005.83,861.004 1005.5,893.338 1004.5,925.5C 1003.05,922.215 1000.72,919.715 997.5,918C 992.112,915.369 986.445,913.869 980.5,913.5C 983.489,896.969 978.989,882.969 967,871.5C 966.503,868.854 966.336,866.187 966.5,863.5C 974.515,860.991 981.015,856.324 986,849.5C 989.279,841.557 994.112,834.723 1000.5,829C 1002.13,828.506 1003.8,828.34 1005.5,828.5 Z"/></g>
<g><path style="opacity:1" fill="#979797" d="M 1005.5,828.5 C 1006.66,861.331 1006.83,894.331 1006,927.5C 1005.28,926.956 1004.78,926.289 1004.5,925.5C 1005.5,893.338 1005.83,861.004 1005.5,828.5 Z"/></g>
<g><path style="opacity:1" fill="#343434" d="M 1394.5,828.5 C 1394.83,862.337 1394.5,896.004 1393.5,929.5C 1388.05,921.414 1380.39,917.081 1370.5,916.5C 1373.15,898.947 1368.31,883.947 1356,871.5C 1355.5,868.854 1355.34,866.187 1355.5,863.5C 1363.51,860.991 1370.01,856.324 1375,849.5C 1378.28,841.557 1383.11,834.723 1389.5,829C 1391.13,828.506 1392.8,828.34 1394.5,828.5 Z"/></g>
<g><path style="opacity:1" fill="#aaaaaa" d="M 1394.5,828.5 C 1395.66,862.664 1395.83,896.998 1395,931.5C 1394.28,930.956 1393.78,930.289 1393.5,929.5C 1394.5,896.004 1394.83,862.337 1394.5,828.5 Z"/></g>
<g><path style="opacity:1" fill="#9b9b9b" d="M 1434.5,828.5 C 1434.17,861.004 1434.5,893.338 1435.5,925.5C 1435.22,926.289 1434.72,926.956 1434,927.5C 1433.17,894.331 1433.34,861.331 1434.5,828.5 Z"/></g>
<g><path style="opacity:1" fill="#353535" d="M 1434.5,828.5 C 1436.53,828.338 1438.53,828.505 1440.5,829C 1446.12,835.062 1450.62,841.896 1454,849.5C 1457.5,853 1461,856.5 1464.5,860C 1467.07,862.287 1470.07,863.453 1473.5,863.5C 1473.66,866.187 1473.5,868.854 1473,871.5C 1461.13,882.591 1456.3,896.258 1458.5,912.5C 1448.58,912.958 1440.91,917.291 1435.5,925.5C 1434.5,893.338 1434.17,861.004 1434.5,828.5 Z"/></g>
<g><path style="opacity:1" fill="#353535" d="M 2029.5,828.5 C 2034.54,828.015 2038.38,830.015 2041,834.5C 2044.59,840.002 2047.92,845.669 2051,851.5C 2055.81,857.142 2061.64,861.142 2068.5,863.5C 2068.66,866.187 2068.5,868.854 2068,871.5C 2056.62,882.806 2052.12,896.473 2054.5,912.5C 2043.77,912.736 2035.61,917.403 2030,926.5C 2029.5,893.835 2029.33,861.168 2029.5,828.5 Z"/></g>
<g><path style="opacity:1" fill="#393939" d="M 1328.5,917.5 C 1329.04,917.56 1329.38,917.893 1329.5,918.5C 1327.12,923.43 1324.12,927.93 1320.5,932C 1303.62,939.948 1286.62,947.281 1269.5,954C 1272.19,948.29 1275.86,943.29 1280.5,939C 1296.64,931.907 1312.64,924.741 1328.5,917.5 Z"/></g>
<g><path style="opacity:1" fill="#353535" d="M 970.5,919.5 C 990.052,918.219 1001.55,927.219 1005,946.5C 1005.67,1027.5 1005.67,1108.5 1005,1189.5C 999.696,1212.14 985.529,1224.97 962.5,1228C 910.501,1228.5 858.501,1228.67 806.5,1228.5C 806.337,1226.14 806.503,1223.81 807,1221.5C 814.905,1215.46 823.072,1209.8 831.5,1204.5C 836.323,1200.51 839.323,1195.51 840.5,1189.5C 843.518,1189.34 846.518,1189.5 849.5,1190C 855.292,1196.9 862.626,1201.23 871.5,1203C 901.5,1203.67 931.5,1203.67 961.5,1203C 969.451,1200.71 975.285,1195.88 979,1188.5C 980.655,1108.21 980.989,1027.88 980,947.5C 976.611,938.058 970.445,935.891 961.5,941C 957.984,944.349 954.651,947.849 951.5,951.5C 950.119,951 949.453,950 949.5,948.5C 951.653,935.056 958.653,925.389 970.5,919.5 Z"/></g>
<g><path style="opacity:1" fill="#343434" d="M 1456.5,919.5 C 1471.25,917.949 1481.41,923.949 1487,937.5C 1488.68,941.716 1489.85,946.049 1490.5,950.5C 1486.19,948.711 1482.52,945.877 1479.5,942C 1467.87,934.808 1461.03,937.975 1459,951.5C 1458.5,1010.17 1458.33,1068.83 1458.5,1127.5C 1460.31,1127.51 1461.98,1127.01 1463.5,1126C 1466.98,1122.7 1469.98,1119.03 1472.5,1115C 1475.15,1114.5 1477.81,1114.34 1480.5,1114.5C 1482.86,1121.36 1486.86,1127.19 1492.5,1132C 1500.78,1136.06 1508.28,1141.22 1515,1147.5C 1515.5,1149.47 1515.66,1151.47 1515.5,1153.5C 1488.5,1153.5 1461.5,1153.5 1434.5,1153.5C 1434.33,1084.5 1434.5,1015.5 1435,946.5C 1436.88,933.136 1444.05,924.136 1456.5,919.5 Z"/></g>
<g><path style="opacity:1" fill="#383838" d="M 1832.5,937.5 C 1839.35,936.672 1844.18,939.339 1847,945.5C 1848.65,954.117 1847.15,962.117 1842.5,969.5C 1842.71,970.086 1843.04,970.586 1843.5,971C 1846.42,971.988 1849.42,972.654 1852.5,973C 1850.71,976.088 1849.04,979.254 1847.5,982.5C 1842.73,983.843 1838.23,983.176 1834,980.5C 1829.5,986.333 1824.33,991.5 1818.5,996C 1807.23,1004.7 1796.23,1004.53 1785.5,995.5C 1800.46,992.019 1814.12,985.853 1826.5,977C 1814.95,968.377 1813.45,958.21 1822,946.5C 1825.1,942.886 1828.6,939.886 1832.5,937.5 Z"/></g>
<g><path style="opacity:1" fill="#383838" d="M 2182.5,942.5 C 2181.94,948.106 2179.27,952.939 2174.5,957C 2158.04,964.645 2141.54,972.145 2125,979.5C 2126.4,973.395 2129.57,968.229 2134.5,964C 2150.71,957.058 2166.71,949.891 2182.5,942.5 Z"/></g>
<g><path style="opacity:1" fill="#f7f7f7" d="M 1825.5,949.5 C 1835.55,950.586 1838.72,955.92 1835,965.5C 1831.02,963.183 1827.68,960.183 1825,956.5C 1824.3,954.071 1824.46,951.738 1825.5,949.5 Z"/></g>
<g><path style="opacity:1" fill="#393939" d="M 1172.5,956.5 C 1173.04,956.56 1173.38,956.893 1173.5,957.5C 1171.12,962.43 1168.12,966.93 1164.5,971C 1147.5,978.672 1130.5,986.006 1113.5,993C 1116.34,985.828 1121,980.162 1127.5,976C 1142.72,969.768 1157.72,963.268 1172.5,956.5 Z"/></g>
<g><path style="opacity:1" fill="#353535" d="M 2052.5,919.5 C 2071.35,919.34 2082.35,928.673 2085.5,947.5C 2085.52,949.067 2085.02,950.4 2084,951.5C 2079.67,944.174 2073.34,939.84 2065,938.5C 2062.74,938.439 2060.74,939.106 2059,940.5C 2057.09,943.215 2055.76,946.215 2055,949.5C 2054.5,1009.17 2054.33,1068.83 2054.5,1128.5C 2080.83,1128.5 2107.17,1128.5 2133.5,1128.5C 2133.33,1138.84 2133.5,1149.17 2134,1159.5C 2135.02,1167.85 2139.19,1174.01 2146.5,1178C 2156.71,1178.81 2163.54,1174.31 2167,1164.5C 2168.63,1133.54 2168.96,1102.54 2168,1071.5C 2166.19,1061.54 2161.52,1053.2 2154,1046.5C 2153.5,1043.85 2153.34,1041.19 2153.5,1038.5C 2158.37,1037.48 2162.7,1035.32 2166.5,1032C 2172.2,1025.44 2177.03,1018.27 2181,1010.5C 2183.17,1008.33 2185.33,1006.17 2187.5,1004C 2189.47,1003.5 2191.47,1003.34 2193.5,1003.5C 2193.67,1055.17 2193.5,1106.83 2193,1158.5C 2189.57,1194.8 2170.07,1208.97 2134.5,1201C 2121.53,1195.35 2113.7,1185.52 2111,1171.5C 2109.76,1165.57 2109.26,1159.57 2109.5,1153.5C 2082.83,1153.5 2056.17,1153.5 2029.5,1153.5C 2029.33,1084.83 2029.5,1016.17 2030,947.5C 2032.32,933.71 2039.82,924.377 2052.5,919.5 Z"/></g>
<g><path style="opacity:1" fill="#353535" d="M 1359.5,923.5 C 1378.48,922.087 1389.98,930.754 1394,949.5C 1394.5,1017.5 1394.67,1085.5 1394.5,1153.5C 1286.16,1153.17 1177.83,1153.5 1069.5,1154.5C 1072.69,1161.36 1077.35,1167.02 1083.5,1171.5C 1084.48,1174.09 1084.81,1176.75 1084.5,1179.5C 1071.88,1184.62 1063.05,1193.62 1058,1206.5C 1055.72,1208.91 1053.55,1211.41 1051.5,1214C 1049.19,1214.5 1046.86,1214.66 1044.5,1214.5C 1044.5,1185.83 1044.5,1157.17 1044.5,1128.5C 1102.83,1128.5 1161.17,1128.5 1219.5,1128.5C 1219.67,1107.5 1219.5,1086.5 1219,1065.5C 1216.05,1053.02 1209.38,1050.35 1199,1057.5C 1198,1059.5 1197,1061.5 1196,1063.5C 1194.62,1076.79 1194.12,1090.12 1194.5,1103.5C 1144.5,1103.5 1094.5,1103.5 1044.5,1103.5C 1044.5,1074.83 1044.5,1046.17 1044.5,1017.5C 1046.86,1017.34 1049.19,1017.5 1051.5,1018C 1057.18,1024.02 1061.68,1030.85 1065,1038.5C 1070.11,1045.29 1076.61,1049.95 1084.5,1052.5C 1084.81,1055.25 1084.48,1057.91 1083.5,1060.5C 1076.42,1064.68 1071.75,1070.68 1069.5,1078.5C 1102.83,1078.5 1136.17,1078.5 1169.5,1078.5C 1169.13,1065.41 1171.96,1053.07 1178,1041.5C 1188.02,1030.16 1200.52,1025.99 1215.5,1029C 1232.77,1032.94 1242.27,1043.77 1244,1061.5C 1244.5,1083.83 1244.67,1106.16 1244.5,1128.5C 1262.17,1128.5 1279.83,1128.5 1297.5,1128.5C 1297.67,1100.83 1297.5,1073.16 1297,1045.5C 1294.75,1036.33 1290.42,1028.33 1284,1021.5C 1282.21,1015.44 1284.37,1011.94 1290.5,1011C 1294.3,1008.2 1297.8,1005.04 1301,1001.5C 1305.06,993.217 1310.22,985.717 1316.5,979C 1318.47,978.505 1320.47,978.338 1322.5,978.5C 1322.5,1028.5 1322.5,1078.5 1322.5,1128.5C 1338.5,1128.5 1354.5,1128.5 1370.5,1128.5C 1370.67,1070.5 1370.5,1012.5 1370,954.5C 1366.97,941.781 1359.81,938.948 1348.5,946C 1346.02,949.313 1343.35,952.48 1340.5,955.5C 1339.12,955 1338.45,954 1338.5,952.5C 1340.65,939.056 1347.65,929.389 1359.5,923.5 Z"/></g>
<g><path style="opacity:1" fill="#343434" d="M 1984.5,1028.5 C 1986.5,1028.5 1988.5,1028.5 1990.5,1028.5C 1990.67,1074.17 1990.5,1119.83 1990,1165.5C 1987.71,1194.24 1972.21,1206.74 1943.5,1203C 1932.06,1200.21 1924.22,1193.38 1920,1182.5C 1917.33,1173 1915.83,1163.33 1915.5,1153.5C 1832.17,1153.5 1748.83,1153.5 1665.5,1153.5C 1665.34,1151.47 1665.5,1149.47 1666,1147.5C 1672.72,1141.22 1680.22,1136.06 1688.5,1132C 1694.14,1127.19 1698.14,1121.36 1700.5,1114.5C 1703.52,1114.34 1706.52,1114.5 1709.5,1115C 1715.81,1121.66 1723.48,1125.99 1732.5,1128C 1801.83,1128.5 1871.17,1128.67 1940.5,1128.5C 1940.33,1139.17 1940.5,1149.84 1941,1160.5C 1940.83,1167.01 1942.99,1172.51 1947.5,1177C 1953.27,1179.7 1958.1,1178.53 1962,1173.5C 1963.89,1169.39 1964.89,1165.06 1965,1160.5C 1965.67,1138.5 1965.67,1116.5 1965,1094.5C 1962.99,1085.48 1958.66,1077.81 1952,1071.5C 1950.21,1065.44 1952.37,1061.94 1958.5,1061C 1966.93,1054.97 1973.1,1047.14 1977,1037.5C 1979.51,1034.47 1982.01,1031.47 1984.5,1028.5 Z"/></g>
<g><path style="opacity:1" fill="#363636" d="M 1292.5,1178.5 C 1308.98,1178.14 1316.81,1186.14 1316,1202.5C 1309.68,1215.94 1299.85,1219.44 1286.5,1213C 1274.29,1199.01 1276.29,1187.51 1292.5,1178.5 Z"/></g>
<g><path style="opacity:1" fill="#363636" d="M 1835.5,1178.5 C 1852.01,1178.17 1859.84,1186.17 1859,1202.5C 1853.79,1214.35 1844.96,1218.52 1832.5,1215C 1821.4,1207.72 1818.9,1198.22 1825,1186.5C 1827.94,1182.96 1831.44,1180.3 1835.5,1178.5 Z"/></g>
<g><path style="opacity:1" fill="#857b66" d="M 125.5,1228.5 C 127.607,1227.53 129.941,1227.2 132.5,1227.5C 132.167,1228.5 131.5,1229.17 130.5,1229.5C 129.081,1228.55 127.415,1228.22 125.5,1228.5 Z"/></g>
<g><path style="opacity:1" fill="#1a4266" d="M 125.5,1228.5 C 127.415,1228.22 129.081,1228.55 130.5,1229.5C 89.2972,1262.69 45.6306,1292.35 -0.5,1318.5C -0.5,1290.17 -0.5,1261.83 -0.5,1233.5C 41.5646,1233.35 83.5646,1231.69 125.5,1228.5 Z"/></g>
<g><path style="opacity:1" fill="#363636" d="M 2150.5,1228.5 C 2166.98,1228.14 2174.81,1236.14 2174,1252.5C 2168.79,1264.35 2159.96,1268.52 2147.5,1265C 2136.61,1258.33 2133.78,1249.16 2139,1237.5C 2142.18,1233.46 2146.02,1230.46 2150.5,1228.5 Z"/></g>
<g><path style="opacity:1" fill="#383838" d="M 931.5,1251.5 C 932.239,1251.37 932.906,1251.54 933.5,1252C 930.943,1257.22 927.609,1261.89 923.5,1266C 907.618,1273.44 891.618,1280.61 875.5,1287.5C 876.09,1281.84 878.757,1277.01 883.5,1273C 899.643,1265.91 915.643,1258.74 931.5,1251.5 Z"/></g>
<g><path style="opacity:1" fill="#feb24f" d="M 2596.5,1387.5 C 2622.23,1417.95 2647.73,1448.62 2673,1479.5C 2689.07,1500.64 2704.4,1522.31 2719,1544.5C 2741.2,1579.73 2759.2,1617.06 2773,1656.5C 2792.84,1716.21 2803.84,1777.55 2806,1840.5C 2807.35,1893.59 2805.85,1946.59 2801.5,1999.5C 2484.17,1999.5 2166.83,1999.5 1849.5,1999.5C 1852.11,1960.5 1858.61,1922.17 1869,1884.5C 1907.7,1742.53 1990.53,1635.03 2117.5,1562C 2173.14,1531.89 2231.14,1507.23 2291.5,1488C 2364.93,1465.64 2438.26,1442.98 2511.5,1420C 2540.22,1410.04 2568.55,1399.21 2596.5,1387.5 Z"/></g>
</svg>
