<?xml version="1.0" encoding="UTF-8"?>
<!DOCTYPE svg PUBLIC "-//W3C//DTD SVG 1.1//EN" "http://www.w3.org/Graphics/SVG/1.1/DTD/svg11.dtd">
<svg xmlns="http://www.w3.org/2000/svg" version="1.1" width="3000px" height="2000px" style="shape-rendering:geometricPrecision; text-rendering:geometricPrecision; image-rendering:optimizeQuality; fill-rule:evenodd; clip-rule:evenodd" xmlns:xlink="http://www.w3.org/1999/xlink">
<g><path style="opacity:1" fill="#feb24f" d="M -0.5,-0.5 C 193.167,-0.5 386.833,-0.5 580.5,-0.5C 565.249,105.504 540.083,209.171 505,310.5C 485.276,367.612 458.943,421.278 426,471.5C 400.232,508.605 368.065,538.772 329.5,562C 297.883,578.821 264.216,588.321 228.5,590.5C 230.153,596.778 231.653,603.111 233,609.5C 283.514,606.884 329.014,590.384 369.5,560C 402.202,533.73 429.702,502.896 452,467.5C 479.377,422.072 501.377,374.072 518,323.5C 545.939,234.551 566.606,143.884 580,51.5C 582.296,34.2077 584.129,16.8743 585.5,-0.5C 726.167,-0.5 866.833,-0.5 1007.5,-0.5C 1062.8,42.5125 1122.46,79.0125 1186.5,109C 1228.99,128.039 1273.33,140.373 1319.5,146C 1411.85,153.898 1489.01,123.731 1551,55.5C 1566.06,37.6948 1579.9,19.0281 1592.5,-0.5C 1654.5,-0.5 1716.5,-0.5 1778.5,-0.5C 1761.51,60.6344 1738.35,119.301 1709,175.5C 1683.26,224.251 1648.43,265.417 1604.5,299C 1549.59,335.454 1489.26,349.788 1423.5,342C 1375.37,335.623 1329.54,321.79 1286,300.5C 1269.51,352.48 1247.84,402.146 1221,449.5C 1136.05,590.945 1014.88,635.111 857.5,582C 806.526,562.68 758.193,538.347 712.5,509C 688.548,493.445 665.048,477.278 642,460.5C 641.055,460.905 640.388,461.572 640,462.5C 623.702,521.731 601.702,578.731 574,633.5C 551.625,676.214 522.792,714.048 487.5,747C 437.679,788.881 380.013,809.381 314.5,808.5C 290.463,808.197 266.796,805.197 243.5,799.5C 241.566,825.976 238.399,852.309 234,878.5C 218.244,968.191 195.911,1056.19 167,1142.5C 146.695,1202.45 118.028,1257.79 81,1308.5C 58.3864,1338.36 31.2198,1363.02 -0.5,1382.5C -0.5,1281.17 -0.5,1179.83 -0.5,1078.5C 25.977,1036.87 47.1437,992.54 63,945.5C 103.183,824.602 128.183,700.602 138,573.5C 139.363,536.09 138.363,498.756 135,461.5C 133.822,451.403 132.322,441.403 130.5,431.5C 117.994,351.636 82.3274,284.47 23.5,230C 15.9093,223.235 7.90928,217.069 -0.5,211.5C -0.5,140.833 -0.5,70.1667 -0.5,-0.5 Z"/></g>
<g><path style="opacity:1" fill="#1e4365" d="M 580.5,-0.5 C 582.167,-0.5 583.833,-0.5 585.5,-0.5C 584.129,16.8743 582.296,34.2077 580,51.5C 566.606,143.884 545.939,234.551 518,323.5C 501.377,374.072 479.377,422.072 452,467.5C 429.702,502.896 402.202,533.73 369.5,560C 329.014,590.384 283.514,606.884 233,609.5C 231.653,603.111 230.153,596.778 228.5,590.5C 264.216,588.321 297.883,578.821 329.5,562C 368.065,538.772 400.232,508.605 426,471.5C 458.943,421.278 485.276,367.612 505,310.5C 540.083,209.171 565.249,105.504 580.5,-0.5 Z"/></g>
<g><path style="opacity:1" fill="#1d4365" d="M 1007.5,-0.5 C 1016.83,-0.5 1026.17,-0.5 1035.5,-0.5C 1096.54,45.202 1163.21,81.3687 1235.5,108C 1279,122.596 1323.67,128.596 1369.5,126C 1424.42,121.529 1472.42,101.196 1513.5,65C 1534.66,45.0892 1553.33,23.2559 1569.5,-0.5C 1577.17,-0.5 1584.83,-0.5 1592.5,-0.5C 1579.9,19.0281 1566.06,37.6948 1551,55.5C 1489.01,123.731 1411.85,153.898 1319.5,146C 1273.33,140.373 1228.99,128.039 1186.5,109C 1122.46,79.0125 1062.8,42.5125 1007.5,-0.5 Z"/></g>
<g><path style="opacity:1" fill="#feb24f" d="M 1035.5,-0.5 C 1213.5,-0.5 1391.5,-0.5 1569.5,-0.5C 1553.33,23.2559 1534.66,45.0892 1513.5,65C 1472.42,101.196 1424.42,121.529 1369.5,126C 1323.67,128.596 1279,122.596 1235.5,108C 1163.21,81.3687 1096.54,45.202 1035.5,-0.5 Z"/></g>
<g><path style="opacity:1" fill="#fefefe" d="M 1778.5,-0.5 C 2096.5,-0.5 2414.5,-0.5 2732.5,-0.5C 2728.61,12.6971 2726.94,26.1971 2727.5,40C 2727.35,58.0353 2729.19,75.8686 2733,93.5C 2742.33,135.491 2755.66,176.158 2773,215.5C 2788.39,247.557 2811.89,271.723 2843.5,288C 2890.85,305.715 2931.02,295.548 2964,257.5C 2985.96,226.011 2995.29,191.011 2992,152.5C 2990.88,141.418 2989.21,130.418 2987,119.5C 2976.94,78.5658 2964.1,38.5658 2948.5,-0.5C 2965.5,-0.5 2982.5,-0.5 2999.5,-0.5C 2999.5,172.5 2999.5,345.5 2999.5,518.5C 2976.16,518.472 2952.82,518.972 2929.5,520C 2894.53,522.437 2861.53,531.77 2830.5,548C 2795.88,566.618 2772.05,594.452 2759,631.5C 2746.2,688.769 2761.7,736.936 2805.5,776C 2844.91,807.257 2889.91,824.59 2940.5,828C 2960.12,829.936 2979.79,830.769 2999.5,830.5C 2999.5,1113.5 2999.5,1396.5 2999.5,1679.5C 2973.27,1672.97 2948.27,1676.14 2924.5,1689C 2896.62,1705.21 2876.12,1728.04 2863,1757.5C 2856.07,1772.97 2850.73,1788.97 2847,1805.5C 2841.51,1836.78 2836.51,1868.11 2832,1899.5C 2828.24,1934.18 2833.07,1967.51 2846.5,1999.5C 2732.17,1999.5 2617.83,1999.5 2503.5,1999.5C 2505.1,1963.81 2494.27,1932.48 2471,1905.5C 2454.13,1887.29 2434.97,1872.12 2413.5,1860C 2384.19,1845.51 2354.53,1831.85 2324.5,1819C 2294.05,1806.51 2262.38,1801.51 2229.5,1804C 2187.92,1809.51 2158.09,1831.01 2140,1868.5C 2128.4,1902.87 2132.06,1935.54 2151,1966.5C 2158.53,1978.53 2167.36,1989.53 2177.5,1999.5C 1893.17,1999.5 1608.83,1999.5 1324.5,1999.5C 1344.93,1988.79 1364.93,1977.29 1384.5,1965C 1409.76,1947.07 1429.26,1924.24 1443,1896.5C 1462.07,1849.43 1453.24,1808.6 1416.5,1774C 1393.5,1757.28 1367.67,1748.78 1339,1748.5C 1320.42,1748.74 1302.26,1751.57 1284.5,1757C 1235.83,1774.83 1190.17,1798.17 1147.5,1827C 1128.18,1841.99 1112.01,1859.82 1099,1880.5C 1076.19,1921.98 1078.69,1961.65 1106.5,1999.5C 1024.17,1999.5 941.833,1999.5 859.5,1999.5C 843.704,1962.2 818.704,1932.7 784.5,1911C 729.854,1882.87 678.854,1888.2 631.5,1927C 609.714,1947.07 594.38,1971.24 585.5,1999.5C 451.167,1999.5 316.833,1999.5 182.5,1999.5C 234.4,1983.43 265.9,1948.76 277,1895.5C 282.47,1856.38 274.803,1820.05 254,1786.5C 234.966,1756.46 210.799,1731.3 181.5,1711C 146.16,1688.66 110.16,1667.33 73.5,1647C 50.0691,1634.25 25.4024,1624.75 -0.5,1618.5C -0.5,1539.83 -0.5,1461.17 -0.5,1382.5C 31.2198,1363.02 58.3864,1338.36 81,1308.5C 118.028,1257.79 146.695,1202.45 167,1142.5C 195.911,1056.19 218.244,968.191 234,878.5C 238.399,852.309 241.566,825.976 243.5,799.5C 266.796,805.197 290.463,808.197 314.5,808.5C 380.013,809.381 437.679,788.881 487.5,747C 522.792,714.048 551.625,676.214 574,633.5C 601.702,578.731 623.702,521.731 640,462.5C 640.388,461.572 641.055,460.905 642,460.5C 665.048,477.278 688.548,493.445 712.5,509C 758.193,538.347 806.526,562.68 857.5,582C 1014.88,635.111 1136.05,590.945 1221,449.5C 1247.84,402.146 1269.51,352.48 1286,300.5C 1329.54,321.79 1375.37,335.623 1423.5,342C 1489.26,349.788 1549.59,335.454 1604.5,299C 1648.43,265.417 1683.26,224.251 1709,175.5C 1738.35,119.301 1761.51,60.6344 1778.5,-0.5 Z"/></g>
<g><path style="opacity:1" fill="#184266" d="M 2732.5,-0.5 C 2804.5,-0.5 2876.5,-0.5 2948.5,-0.5C 2964.1,38.5658 2976.94,78.5658 2987,119.5C 2989.21,130.418 2990.88,141.418 2992,152.5C 2995.29,191.011 2985.96,226.011 2964,257.5C 2931.02,295.548 2890.85,305.715 2843.5,288C 2811.89,271.723 2788.39,247.557 2773,215.5C 2755.66,176.158 2742.33,135.491 2733,93.5C 2729.19,75.8686 2727.35,58.0353 2727.5,40C 2726.94,26.1971 2728.61,12.6971 2732.5,-0.5 Z"/></g>
<g><path style="opacity:1" fill="#1d4365" d="M 1122.5,201.5 C 1128.37,204.368 1133.7,208.034 1138.5,212.5C 1114.19,264.617 1080.52,309.784 1037.5,348C 995.697,382.169 947.697,401.503 893.5,406C 867.711,407.381 842.045,406.381 816.5,403C 764.022,393.566 714.689,375.732 668.5,349.5C 669.715,343.7 671.215,338.033 673,332.5C 724.877,360.57 780.043,378.403 838.5,386C 925.536,393.778 998.369,365.612 1057,301.5C 1083.08,271.016 1104.92,237.683 1122.5,201.5 Z"/></g>
<g><path style="opacity:1" fill="#2e4964" d="M -0.5,211.5 C 7.90928,217.069 15.9093,223.235 23.5,230C 82.3274,284.47 117.994,351.636 130.5,431.5C 129.596,432.209 129.263,433.209 129.5,434.5C 119.531,369.905 93.3642,312.905 51,263.5C 35.4316,246.75 18.265,232.083 -0.5,219.5C -0.5,216.833 -0.5,214.167 -0.5,211.5 Z"/></g>
<g><path style="opacity:1" fill="#feb24f" d="M -0.5,219.5 C 18.265,232.083 35.4316,246.75 51,263.5C 93.3642,312.905 119.531,369.905 129.5,434.5C 138.37,503.321 137.204,571.987 126,640.5C 109.904,732.884 86.9039,823.55 57,912.5C 41.6095,957.273 22.4429,1000.27 -0.5,1041.5C -0.5,767.5 -0.5,493.5 -0.5,219.5 Z"/></g>
<g><path style="opacity:1" fill="#214465" d="M 130.5,431.5 C 132.322,441.403 133.822,451.403 135,461.5C 138.363,498.756 139.363,536.09 138,573.5C 128.183,700.602 103.183,824.602 63,945.5C 47.1437,992.54 25.977,1036.87 -0.5,1078.5C -0.5,1066.17 -0.5,1053.83 -0.5,1041.5C 22.4429,1000.27 41.6095,957.273 57,912.5C 86.9039,823.55 109.904,732.884 126,640.5C 137.204,571.987 138.37,503.321 129.5,434.5C 129.263,433.209 129.596,432.209 130.5,431.5 Z"/></g>
<g><path style="opacity:1" fill="#184266" d="M 2367.5,433.5 C 2406.7,429.963 2442.03,439.797 2473.5,463C 2505.44,491.959 2521.44,528.126 2521.5,571.5C 2519.32,611.213 2508.15,648.213 2488,682.5C 2454.75,737.105 2415.58,787.272 2370.5,833C 2336.48,864.341 2296.48,883.341 2250.5,890C 2193.6,892.975 2150.77,870.141 2122,821.5C 2103.97,782.424 2100.64,742.091 2112,700.5C 2118.53,678.435 2127.53,657.435 2139,637.5C 2165.96,597.256 2194.62,558.256 2225,520.5C 2250.76,489.222 2281.92,465.056 2318.5,448C 2334.4,441.194 2350.74,436.361 2367.5,433.5 Z"/></g>
<g><path style="opacity:1" fill="#184266" d="M 2999.5,518.5 C 2999.5,622.5 2999.5,726.5 2999.5,830.5C 2979.79,830.769 2960.12,829.936 2940.5,828C 2889.91,824.59 2844.91,807.257 2805.5,776C 2761.7,736.936 2746.2,688.769 2759,631.5C 2772.05,594.452 2795.88,566.618 2830.5,548C 2861.53,531.77 2894.53,522.437 2929.5,520C 2952.82,518.972 2976.16,518.472 2999.5,518.5 Z"/></g>
<g><path style="opacity:1" fill="#3c3c3c" d="M 1225.5,611.5 C 1226.97,614.655 1226.3,617.489 1223.5,620C 1212.67,625.914 1202,632.081 1191.5,638.5C 1190.31,635.027 1191.31,632.194 1194.5,630C 1204.9,623.807 1215.23,617.641 1225.5,611.5 Z"/></g>
<g><path style="opacity:1" fill="#3a3a3a" d="M 1758.5,625.5 C 1767.1,624.936 1770.6,628.936 1769,637.5C 1768.37,640.393 1767.54,643.226 1766.5,646C 1769.59,650.384 1770.25,655.218 1768.5,660.5C 1765.91,658.957 1763.41,657.291 1761,655.5C 1756.04,661.465 1750.21,666.298 1743.5,670C 1740.83,670.667 1738.17,670.667 1735.5,670C 1734.17,669.333 1734.17,668.667 1735.5,668C 1742.62,664.02 1749.12,659.186 1755,653.5C 1755.67,652.833 1755.67,652.167 1755,651.5C 1748.89,646.426 1747.89,640.426 1752,633.5C 1753.95,630.58 1756.11,627.913 1758.5,625.5 Z"/></g>
<g><path style="opacity:1" fill="#ededed" d="M 1755.5,634.5 C 1761.37,635.203 1763.53,638.536 1762,644.5C 1757.54,642.561 1755.38,639.228 1755.5,634.5 Z"/></g>
<g><path style="opacity:1" fill="#3b3b3b" d="M 1935.5,661.5 C 1936.68,665.139 1935.68,668.306 1932.5,671C 1922.04,676.633 1911.71,682.466 1901.5,688.5C 1900.31,685.027 1901.31,682.194 1904.5,680C 1914.9,673.807 1925.23,667.641 1935.5,661.5 Z"/></g>
<g><path style="opacity:1" fill="#3c3c3c" d="M 1578.5,663.5 C 1579.66,666.57 1578.99,669.404 1576.5,672C 1565.59,678.04 1554.75,684.207 1544,690.5C 1543.44,686.447 1544.94,683.28 1548.5,681C 1558.73,675.392 1568.73,669.559 1578.5,663.5 Z"/></g>
<g><path style="opacity:1" fill="#343434" d="M 1885.5,888.5 C 1896.32,889.495 1907.32,889.828 1918.5,889.5C 1918.5,858.833 1918.5,828.167 1918.5,797.5C 1933.96,795.365 1946.96,788.698 1957.5,777.5C 1958.5,809.662 1958.83,841.996 1958.5,874.5C 1958.34,877.518 1958.5,880.518 1959,883.5C 1968,878.167 1977,872.833 1986,867.5C 1986.93,870.85 1986.1,873.683 1983.5,876C 1975.66,880.753 1967.66,885.253 1959.5,889.5C 1958.5,896.134 1958.17,902.8 1958.5,909.5C 1920.83,909.5 1883.17,909.5 1845.5,909.5C 1845.33,827.499 1845.5,745.499 1846,663.5C 1856.67,674.252 1869.5,680.918 1884.5,683.5C 1885.5,751.83 1885.83,820.163 1885.5,888.5 Z"/></g>
<g><path style="opacity:1" fill="#383838" d="M 1435.5,681.5 C 1448.15,680.815 1454.82,686.815 1455.5,699.5C 1455.21,712.452 1448.71,719.785 1436,721.5C 1426.11,720.598 1421.61,715.098 1422.5,705C 1422.33,694.496 1426.66,686.663 1435.5,681.5 Z"/></g>
<g><path style="opacity:1" fill="#fafafa" d="M 1430.5,692.5 C 1437.88,691.793 1443.71,694.46 1448,700.5C 1449.27,704.166 1448.1,706.666 1444.5,708C 1439.38,708.888 1434.38,708.555 1429.5,707C 1425.38,701.888 1425.71,697.055 1430.5,692.5 Z"/></g>
<g><path style="opacity:1" fill="#353535" d="M 1074.5,725.5 C 1081.84,725.334 1089.17,725.5 1096.5,726C 1097,726.5 1097.5,727 1098,727.5C 1099.55,734.418 1099.88,741.418 1099,748.5C 1098.63,749.416 1098.13,750.25 1097.5,751C 1093.45,752.101 1089.28,752.601 1085,752.5C 1081.5,752.333 1078,752.167 1074.5,752C 1074,751.5 1073.5,751 1073,750.5C 1071.41,743.274 1071.07,735.94 1072,728.5C 1072.7,727.309 1073.53,726.309 1074.5,725.5 Z"/></g>
<g><path style="opacity:1" fill="#353535" d="M 1107.5,725.5 C 1114.84,725.334 1122.17,725.5 1129.5,726C 1130,726.5 1130.5,727 1131,727.5C 1132.55,734.418 1132.88,741.418 1132,748.5C 1131.63,749.416 1131.13,750.25 1130.5,751C 1126.45,752.101 1122.28,752.601 1118,752.5C 1114.5,752.333 1111,752.167 1107.5,752C 1106.69,751.692 1106.03,751.192 1105.5,750.5C 1104.37,743.217 1104.2,735.883 1105,728.5C 1105.7,727.309 1106.53,726.309 1107.5,725.5 Z"/></g>
<g><path style="opacity:1" fill="#373737" d="M 1216.5,726.5 C 1223.51,726.334 1230.51,726.5 1237.5,727C 1238.33,727.833 1239.17,728.667 1240,729.5C 1240.67,736.833 1240.67,744.167 1240,751.5C 1239.5,752 1239,752.5 1238.5,753C 1231.27,754.594 1223.94,754.928 1216.5,754C 1215.33,752.833 1214.17,751.667 1213,750.5C 1212.33,743.833 1212.33,737.167 1213,730.5C 1213.69,728.65 1214.86,727.316 1216.5,726.5 Z"/></g>
<g><path style="opacity:1" fill="#343434" d="M 1791.5,888.5 C 1792.17,859.931 1792.84,831.264 1793.5,802.5C 1809.02,800.839 1821.85,794.172 1832,782.5C 1832.5,824.499 1832.67,866.499 1832.5,908.5C 1790.17,908.5 1747.83,908.5 1705.5,908.5C 1705.5,868.167 1705.5,827.833 1705.5,787.5C 1706.92,778.82 1711.58,772.653 1719.5,769C 1731.96,765.478 1744.63,763.478 1757.5,763C 1752.72,765.45 1748.88,768.95 1746,773.5C 1745.5,811.832 1745.33,850.165 1745.5,888.5C 1760.83,888.5 1776.17,888.5 1791.5,888.5 Z"/></g>
<g><path style="opacity:1" fill="#343434" d="M 1074.5,775.5 C 1098.83,775.5 1123.17,775.5 1147.5,775.5C 1147.17,813.337 1147.5,851.004 1148.5,888.5C 1158.83,888.5 1169.17,888.5 1179.5,888.5C 1179.33,855.165 1179.5,821.832 1180,788.5C 1182.2,785.96 1184.7,783.793 1187.5,782C 1210.58,775.911 1233.91,774.911 1257.5,779C 1261.5,780.333 1265.5,781.667 1269.5,783C 1272.33,784.5 1274.5,786.667 1276,789.5C 1276.5,829.499 1276.67,869.499 1276.5,909.5C 1201.5,909.5 1126.5,909.5 1051.5,909.5C 1051.33,868.832 1051.5,828.165 1052,787.5C 1057.28,779.444 1064.78,775.444 1074.5,775.5 Z"/></g>
<g><path style="opacity:1" fill="#737373" d="M 1074.5,775.5 C 1098.99,774.502 1123.66,774.169 1148.5,774.5C 1148.5,812.5 1148.5,850.5 1148.5,888.5C 1147.5,851.004 1147.17,813.337 1147.5,775.5C 1123.17,775.5 1098.83,775.5 1074.5,775.5 Z"/></g>
<g><path style="opacity:1" fill="#343434" d="M 1366.5,777.5 C 1367.5,814.663 1367.83,851.996 1367.5,889.5C 1390.84,889.833 1414.18,889.5 1437.5,888.5C 1437.38,887.893 1437.04,887.56 1436.5,887.5C 1429.59,875.03 1418.93,868.03 1404.5,866.5C 1404.33,840.498 1404.5,814.498 1405,788.5C 1409.99,783.09 1416.15,779.923 1423.5,779C 1440.79,777.421 1458.13,777.088 1475.5,778C 1481.96,779.198 1488.29,780.864 1494.5,783C 1497.73,784.563 1499.9,787.063 1501,790.5C 1501.5,815.831 1501.67,841.164 1501.5,866.5C 1486.94,868.232 1475.94,875.399 1468.5,888C 1489.83,888.5 1511.16,888.667 1532.5,888.5C 1532.5,851.833 1532.5,815.167 1532.5,778.5C 1560.17,778.333 1587.84,778.5 1615.5,779C 1622.02,779.854 1626.52,783.354 1629,789.5C 1629.5,829.499 1629.67,869.499 1629.5,909.5C 1542.5,909.5 1455.5,909.5 1368.5,909.5C 1369.06,921.556 1363.73,929.723 1352.5,934C 1344.2,936.745 1335.7,938.578 1327,939.5C 1312.02,937.809 1297.19,935.309 1282.5,932C 1295.77,932.678 1308.43,930.345 1320.5,925C 1324.33,922.512 1326.49,919.012 1327,914.5C 1327.33,875.167 1327.67,835.833 1328,796.5C 1343.06,794.551 1355.9,788.218 1366.5,777.5 Z"/></g>
<g><path style="opacity:1" fill="#7d7d7d" d="M 1366.5,777.5 C 1366.56,776.957 1366.89,776.624 1367.5,776.5C 1368.5,813.827 1368.83,851.161 1368.5,888.5C 1391.34,888.831 1414.01,888.497 1436.5,887.5C 1437.04,887.56 1437.38,887.893 1437.5,888.5C 1414.18,889.5 1390.84,889.833 1367.5,889.5C 1367.83,851.996 1367.5,814.663 1366.5,777.5 Z"/></g>
<g><path style="opacity:1" fill="#c5c5c5" d="M 1957.5,777.5 C 1957.56,776.957 1957.89,776.624 1958.5,776.5C 1959.83,809.331 1959.83,841.998 1958.5,874.5C 1958.83,841.996 1958.5,809.662 1957.5,777.5 Z"/></g>
<g><path style="opacity:1" fill="#fdfdfd" d="M 1101.5,790.5 C 1103.5,790.5 1105.5,790.5 1107.5,790.5C 1107.5,823.5 1107.5,856.5 1107.5,889.5C 1102.17,889.5 1096.83,889.5 1091.5,889.5C 1091.33,858.832 1091.5,828.165 1092,797.5C 1092.37,796.584 1092.87,795.75 1093.5,795C 1096.19,793.395 1098.86,791.895 1101.5,790.5 Z"/></g>
<g><path style="opacity:1" fill="#fcfcfc" d="M 1236.5,888.5 C 1231.17,888.5 1225.83,888.5 1220.5,888.5C 1220.5,856.5 1220.5,824.5 1220.5,792.5C 1220.61,791.883 1220.94,791.383 1221.5,791C 1225.83,790.333 1230.17,790.333 1234.5,791C 1235,791.5 1235.5,792 1236,792.5C 1236.5,824.498 1236.67,856.498 1236.5,888.5 Z"/></g>
<g><path style="opacity:1" fill="#fefefe" d="M 1460.5,888.5 C 1455.5,888.5 1450.5,888.5 1445.5,888.5C 1445.5,856.833 1445.5,825.167 1445.5,793.5C 1447.46,791.983 1449.8,791.316 1452.5,791.5C 1455.25,791.353 1457.75,792.02 1460,793.5C 1460.5,825.165 1460.67,856.832 1460.5,888.5 Z"/></g>
<g><path style="opacity:1" fill="#cecece" d="M 1580.5,792.5 C 1578.17,792.5 1575.83,792.5 1573.5,792.5C 1573.5,824.5 1573.5,856.5 1573.5,888.5C 1573.17,888.5 1572.83,888.5 1572.5,888.5C 1572.5,856.167 1572.5,823.833 1572.5,791.5C 1575.39,791.194 1578.05,791.527 1580.5,792.5 Z"/></g>
<g><path style="opacity:1" fill="#fefefe" d="M 1580.5,792.5 C 1584.31,793.063 1586.98,795.063 1588.5,798.5C 1588.5,828.5 1588.5,858.5 1588.5,888.5C 1583.5,888.5 1578.5,888.5 1573.5,888.5C 1573.5,856.5 1573.5,824.5 1573.5,792.5C 1575.83,792.5 1578.17,792.5 1580.5,792.5 Z"/></g>
<g><path style="opacity:1" fill="#808080" d="M 1220.5,792.5 C 1220.5,824.5 1220.5,856.5 1220.5,888.5C 1225.83,888.5 1231.17,888.5 1236.5,888.5C 1231.02,889.489 1225.36,889.822 1219.5,889.5C 1219.17,856.996 1219.5,824.662 1220.5,792.5 Z"/></g>
<g><path style="opacity:1" fill="#c6c6c6" d="M 1445.5,793.5 C 1445.5,825.167 1445.5,856.833 1445.5,888.5C 1450.5,888.5 1455.5,888.5 1460.5,888.5C 1455.36,889.488 1450.03,889.821 1444.5,889.5C 1444.17,857.329 1444.5,825.329 1445.5,793.5 Z"/></g>
<g><path style="opacity:1" fill="#979797" d="M 1588.5,798.5 C 1589.5,828.662 1589.83,858.995 1589.5,889.5C 1583.64,889.822 1577.98,889.489 1572.5,888.5C 1572.83,888.5 1573.17,888.5 1573.5,888.5C 1578.5,888.5 1583.5,888.5 1588.5,888.5C 1588.5,858.5 1588.5,828.5 1588.5,798.5 Z"/></g>
<g><path style="opacity:1" fill="#979797" d="M 1793.5,802.5 C 1792.84,831.264 1792.17,859.931 1791.5,888.5C 1790.84,859.481 1791.51,830.814 1793.5,802.5 Z"/></g>
<g><path style="opacity:1" fill="#939393" d="M 1918.5,797.5 C 1918.5,828.167 1918.5,858.833 1918.5,889.5C 1907.32,889.828 1896.32,889.495 1885.5,888.5C 1896.17,888.5 1906.83,888.5 1917.5,888.5C 1917.17,857.995 1917.5,827.662 1918.5,797.5 Z"/></g>
<g><path style="opacity:1" fill="#6f6f6f" d="M 1705.5,787.5 C 1705.5,827.833 1705.5,868.167 1705.5,908.5C 1747.83,908.5 1790.17,908.5 1832.5,908.5C 1790,909.499 1747.34,909.832 1704.5,909.5C 1704.17,868.663 1704.5,827.997 1705.5,787.5 Z"/></g>
<g><path style="opacity:1" fill="#363636" d="M 1756.5,927.5 C 1763.17,927.334 1769.84,927.5 1776.5,928C 1777.93,928.465 1779.1,929.299 1780,930.5C 1780.67,937.833 1780.67,945.167 1780,952.5C 1779.17,953.333 1778.33,954.167 1777.5,955C 1770.17,955.667 1762.83,955.667 1755.5,955C 1755,954.5 1754.5,954 1754,953.5C 1752.41,946.274 1752.07,938.94 1753,931.5C 1754.1,930.051 1755.27,928.718 1756.5,927.5 Z"/></g>
<g><path style="opacity:1" fill="#353535" d="M 1906.5,928.5 C 1913.84,928.334 1921.17,928.5 1928.5,929C 1929.31,929.308 1929.97,929.808 1930.5,930.5C 1931.82,938.363 1931.82,946.197 1930.5,954C 1922.6,955.601 1914.6,955.934 1906.5,955C 1905.67,954.167 1904.83,953.333 1904,952.5C 1903.33,946.167 1903.33,939.833 1904,933.5C 1904.37,931.548 1905.2,929.882 1906.5,928.5 Z"/></g>
<g><path style="opacity:1" fill="#3b3b3b" d="M 1125.5,957.5 C 1126.72,961.961 1125.38,965.795 1121.5,969C 1108.96,976.367 1096.29,983.533 1083.5,990.5C 1082.01,986.628 1083.01,983.461 1086.5,981C 1099.67,973.303 1112.67,965.47 1125.5,957.5 Z"/></g>
<g><path style="opacity:1" fill="#3d3d3d" d="M 1130.5,981.5 C 1131.59,981.62 1132.25,982.287 1132.5,983.5C 1132.13,985.459 1131.46,987.293 1130.5,989C 1119.5,995.167 1108.5,1001.33 1097.5,1007.5C 1096.74,1004.79 1097.4,1002.29 1099.5,1000C 1109.9,993.807 1120.23,987.641 1130.5,981.5 Z"/></g>
<g><path style="opacity:1" fill="#343434" d="M 1419.5,982.5 C 1420.5,1064.33 1420.83,1146.33 1420.5,1228.5C 1382.33,1228.83 1344.33,1228.5 1306.5,1227.5C 1313.18,1222.34 1318.85,1216.18 1323.5,1209C 1342.5,1208.5 1361.5,1208.33 1380.5,1208.5C 1380.5,1139.5 1380.5,1070.5 1380.5,1001.5C 1395.73,999.546 1408.73,993.213 1419.5,982.5 Z"/></g>
<g><path style="opacity:1" fill="#343434" d="M 1056.5,982.5 C 1057.33,1068.67 1057.83,1155 1058,1241.5C 1060.35,1246.86 1063.85,1251.36 1068.5,1255C 1053.7,1256.4 1039.7,1253.73 1026.5,1247C 1022.51,1244.01 1019.68,1240.18 1018,1235.5C 1017.5,1157.83 1017.33,1080.17 1017.5,1002.5C 1033.18,1000.83 1046.18,994.163 1056.5,982.5 Z"/></g>
<g><path style="opacity:1" fill="#343434" d="M 1473.5,982.5 C 1474.33,1068.67 1474.83,1155 1475,1241.5C 1477.35,1246.86 1480.85,1251.36 1485.5,1255C 1470.7,1256.42 1456.7,1253.76 1443.5,1247C 1439.03,1243.88 1436.2,1239.71 1435,1234.5C 1434.5,1157.17 1434.33,1079.83 1434.5,1002.5C 1450.18,1000.83 1463.18,994.163 1473.5,982.5 Z"/></g>
<g><path style="opacity:1" fill="#636363" d="M 1704.5,984.5 C 1703.5,1066 1703.17,1147.66 1703.5,1229.5C 1702.33,1147.33 1702.17,1065 1703,982.5C 1703.72,983.044 1704.22,983.711 1704.5,984.5 Z"/></g>
<g><path style="opacity:1" fill="#989898" d="M 1998.5,983.5 C 1998.56,982.957 1998.89,982.624 1999.5,982.5C 2000.5,1057.83 2000.83,1133.16 2000.5,1208.5C 2011.83,1208.5 2023.17,1208.5 2034.5,1208.5C 2023.01,1209.49 2011.35,1209.83 1999.5,1209.5C 1999.83,1134 1999.5,1058.66 1998.5,983.5 Z"/></g>
<g><path style="opacity:1" fill="#3b3b3b" d="M 2081.5,981.5 C 2082.68,985.139 2081.68,988.306 2078.5,991C 2068.17,996.833 2057.83,1002.67 2047.5,1008.5C 2046.2,1005.57 2046.87,1003.07 2049.5,1001C 2060.4,994.726 2071.06,988.226 2081.5,981.5 Z"/></g>
<g><path style="opacity:1" fill="#343434" d="M 1704.5,984.5 C 1715.07,995.12 1727.74,1001.45 1742.5,1003.5C 1742.5,1072.17 1742.5,1140.83 1742.5,1209.5C 1753.68,1209.83 1764.68,1209.49 1775.5,1208.5C 1775.5,1171.83 1775.5,1135.17 1775.5,1098.5C 1803.5,1098.33 1831.5,1098.5 1859.5,1099C 1865.63,1099.64 1869.79,1102.81 1872,1108.5C 1872.5,1148.83 1872.67,1189.17 1872.5,1229.5C 1816.17,1229.5 1759.83,1229.5 1703.5,1229.5C 1703.17,1147.66 1703.5,1066 1704.5,984.5 Z"/></g>
<g><path style="opacity:1" fill="#3a3a3a" d="M 1821.5,983.5 C 1822.97,986.655 1822.3,989.489 1819.5,992C 1809.17,997.833 1798.83,1003.67 1788.5,1009.5C 1786.95,1006.43 1787.61,1003.93 1790.5,1002C 1800.9,995.807 1811.23,989.641 1821.5,983.5 Z"/></g>
<g><path style="opacity:1" fill="#343434" d="M 1925.5,1003.5 C 1925.5,1072.17 1925.5,1140.83 1925.5,1209.5C 1928.5,1209.5 1931.5,1209.5 1934.5,1209.5C 1943.17,1209.5 1951.83,1209.5 1960.5,1209.5C 1960.17,1140.43 1960.5,1071.43 1961.5,1002.5C 1976.25,1000.63 1988.58,994.294 1998.5,983.5C 1999.5,1058.66 1999.83,1134 1999.5,1209.5C 2011.35,1209.83 2023.01,1209.49 2034.5,1208.5C 2034.33,1175.83 2034.5,1143.16 2035,1110.5C 2036.88,1105.63 2040.38,1102.46 2045.5,1101C 2050.17,1100 2054.83,1099 2059.5,1098C 2074.5,1097.33 2089.5,1097.33 2104.5,1098C 2113.16,1098.83 2121.16,1101.49 2128.5,1106C 2129.21,1107.25 2130.04,1108.42 2131,1109.5C 2131.5,1127.5 2131.67,1145.5 2131.5,1163.5C 2116.04,1165.08 2103.04,1171.41 2092.5,1182.5C 2091.83,1159.83 2091.17,1137.17 2090.5,1114.5C 2088.19,1112.95 2085.53,1112.29 2082.5,1112.5C 2080.5,1112.67 2078.5,1112.83 2076.5,1113C 2075.75,1113.67 2075.41,1114.5 2075.5,1115.5C 2074.5,1146.66 2074.17,1178 2074.5,1209.5C 2093.5,1209.5 2112.5,1209.5 2131.5,1209.5C 2131.5,1216.17 2131.5,1222.83 2131.5,1229.5C 2049.5,1229.5 1967.5,1229.5 1885.5,1229.5C 1885.33,1147.5 1885.5,1065.5 1886,983.5C 1897.02,994.594 1910.19,1001.26 1925.5,1003.5 Z"/></g>
<g><path style="opacity:1" fill="#3b3b3b" d="M 1355.5,987.5 C 1356.73,992.025 1355.4,995.859 1351.5,999C 1338.67,1005.91 1326,1013.08 1313.5,1020.5C 1312.34,1016.17 1313.67,1012.67 1317.5,1010C 1330.39,1002.73 1343.06,995.226 1355.5,987.5 Z"/></g>
<g><path style="opacity:1" fill="#383838" d="M 1221.5,1001.5 C 1237.05,1001.89 1243.89,1009.89 1242,1025.5C 1238.19,1037.65 1230.03,1042.82 1217.5,1041C 1213.23,1039.73 1210.73,1036.9 1210,1032.5C 1208.64,1024.47 1209.64,1016.8 1213,1009.5C 1215.16,1006.02 1217.99,1003.36 1221.5,1001.5 Z"/></g>
<g><path style="opacity:1" fill="#6c6c6c" d="M 1742.5,1003.5 C 1743.5,1071.66 1743.83,1140 1743.5,1208.5C 1754.17,1208.5 1764.83,1208.5 1775.5,1208.5C 1764.68,1209.49 1753.68,1209.83 1742.5,1209.5C 1742.5,1140.83 1742.5,1072.17 1742.5,1003.5 Z"/></g>
<g><path style="opacity:1" fill="#929292" d="M 1925.5,1003.5 C 1926.5,1071.66 1926.83,1140 1926.5,1208.5C 1929.17,1208.5 1931.83,1208.5 1934.5,1208.5C 1934.5,1208.83 1934.5,1209.17 1934.5,1209.5C 1931.5,1209.5 1928.5,1209.5 1925.5,1209.5C 1925.5,1140.83 1925.5,1072.17 1925.5,1003.5 Z"/></g>
<g><path style="opacity:1" fill="#686868" d="M 1961.5,1002.5 C 1960.5,1071.43 1960.17,1140.43 1960.5,1209.5C 1951.83,1209.5 1943.17,1209.5 1934.5,1209.5C 1934.5,1209.17 1934.5,1208.83 1934.5,1208.5C 1942.83,1208.5 1951.17,1208.5 1959.5,1208.5C 1958.84,1139.49 1959.5,1070.83 1961.5,1002.5 Z"/></g>
<g><path style="opacity:1" fill="#343434" d="M 1363.5,1007.5 C 1364.5,1070.66 1364.83,1134 1364.5,1197.5C 1351.17,1197.5 1337.83,1197.5 1324.5,1197.5C 1324.17,1140.83 1324.5,1084.16 1325.5,1027.5C 1340.5,1025 1353.17,1018.34 1363.5,1007.5 Z"/></g>
<g><path style="opacity:1" fill="#fafafa" d="M 1217.5,1012.5 C 1225.07,1012.2 1230.9,1015.2 1235,1021.5C 1235.93,1025.25 1234.43,1027.42 1230.5,1028C 1225.71,1028.88 1221.05,1028.55 1216.5,1027C 1213.61,1024.09 1212.77,1020.59 1214,1016.5C 1214.69,1014.65 1215.86,1013.32 1217.5,1012.5 Z"/></g>
<g><path style="opacity:1" fill="#696969" d="M 1306.5,1227.5 C 1344.33,1228.5 1382.33,1228.83 1420.5,1228.5C 1420.83,1146.33 1420.5,1064.33 1419.5,982.5C 1419.78,981.711 1420.28,981.044 1421,980.5C 1421.5,1063.5 1421.67,1146.5 1421.5,1229.5C 1382.5,1229.67 1343.5,1229.5 1304.5,1229C 1305.04,1228.28 1305.71,1227.78 1306.5,1227.5 Z"/></g>
<g><path style="opacity:1" fill="#383838" d="M 1601.5,1045.5 C 1607.84,1045.33 1614.18,1045.5 1620.5,1046C 1622.33,1046.27 1623.83,1047.11 1625,1048.5C 1625.81,1056.41 1625.65,1064.25 1624.5,1072C 1620.28,1073.1 1615.95,1073.6 1611.5,1073.5C 1607.83,1073.33 1604.17,1073.17 1600.5,1073C 1600,1072.5 1599.5,1072 1599,1071.5C 1597.41,1064.61 1597.08,1057.61 1598,1050.5C 1599,1048.68 1600.16,1047.01 1601.5,1045.5 Z"/></g>
<g><path style="opacity:1" fill="#363636" d="M 1633.5,1045.5 C 1640.17,1045.33 1646.84,1045.5 1653.5,1046C 1654.5,1046.83 1655.5,1047.67 1656.5,1048.5C 1657.63,1055.78 1657.8,1063.12 1657,1070.5C 1656.17,1071.33 1655.33,1072.17 1654.5,1073C 1647.17,1073.67 1639.83,1073.67 1632.5,1073C 1631.67,1072.17 1630.83,1071.33 1630,1070.5C 1629.33,1063.5 1629.33,1056.5 1630,1049.5C 1630.69,1047.65 1631.86,1046.32 1633.5,1045.5 Z"/></g>
<g><path style="opacity:1" fill="#184266" d="M 2608.5,1071.5 C 2649.07,1067.8 2685.07,1078.63 2716.5,1104C 2750.7,1136.94 2764.87,1177.11 2759,1224.5C 2754.54,1257.55 2743.54,1288.22 2726,1316.5C 2688.07,1373.45 2643.24,1424.61 2591.5,1470C 2562,1493.41 2528.67,1508.75 2491.5,1516C 2442.25,1523.92 2400.41,1510.08 2366,1474.5C 2340.79,1443.03 2329.79,1407.03 2333,1366.5C 2337.54,1329.1 2350.21,1294.77 2371,1263.5C 2406.49,1215.33 2445.66,1170.16 2488.5,1128C 2515.05,1104.55 2545.38,1087.55 2579.5,1077C 2589.18,1074.43 2598.84,1072.6 2608.5,1071.5 Z"/></g>
<g><path style="opacity:1" fill="#353535" d="M 963.5,1208.5 C 964.174,1179.93 964.841,1151.26 965.5,1122.5C 980.766,1120.45 993.599,1113.78 1004,1102.5C 1004.5,1126.83 1004.67,1151.16 1004.5,1175.5C 1003.5,1192.99 1003.17,1210.66 1003.5,1228.5C 961.5,1228.5 919.5,1228.5 877.5,1228.5C 877.5,1187.83 877.5,1147.17 877.5,1106.5C 878.706,1097.93 883.373,1092.1 891.5,1089C 903.577,1085.28 915.91,1083.28 928.5,1083C 924.333,1085.83 920.833,1089.33 918,1093.5C 917.5,1131.83 917.333,1170.17 917.5,1208.5C 932.833,1208.5 948.167,1208.5 963.5,1208.5 Z"/></g>
<g><path style="opacity:1" fill="#343434" d="M 1603.5,1102.5 C 1602.5,1138 1602.17,1173.66 1602.5,1209.5C 1618.34,1209.83 1634.01,1209.5 1649.5,1208.5C 1649.5,1180.17 1649.5,1151.83 1649.5,1123.5C 1664.73,1121.55 1677.73,1115.21 1688.5,1104.5C 1689.5,1145.66 1689.83,1187 1689.5,1228.5C 1647.5,1228.5 1605.5,1228.5 1563.5,1228.5C 1563.5,1187.83 1563.5,1147.17 1563.5,1106.5C 1564.71,1097.93 1569.37,1092.1 1577.5,1089C 1589.59,1085.36 1601.92,1083.36 1614.5,1083C 1610.33,1085.83 1606.83,1089.33 1604,1093.5C 1603.5,1096.48 1603.34,1099.48 1603.5,1102.5 Z"/></g>
<g><path style="opacity:1" fill="#353535" d="M 1161.5,1096.5 C 1161.5,1134.17 1161.5,1171.83 1161.5,1209.5C 1165.5,1209.5 1169.5,1209.5 1173.5,1209.5C 1181.83,1209.5 1190.17,1209.5 1198.5,1209.5C 1198.5,1176.5 1198.5,1143.5 1198.5,1110.5C 1199.18,1106.98 1201.18,1104.48 1204.5,1103C 1210.31,1100.7 1216.31,1099.04 1222.5,1098C 1237.17,1097.33 1251.83,1097.33 1266.5,1098C 1274.87,1099.09 1282.87,1101.43 1290.5,1105C 1292.62,1106.73 1294.12,1108.9 1295,1111.5C 1295.5,1128.83 1295.67,1146.16 1295.5,1163.5C 1279.32,1165.01 1265.82,1171.67 1255,1183.5C 1254.67,1160.5 1254.33,1137.5 1254,1114.5C 1253.5,1114 1253,1113.5 1252.5,1113C 1248.5,1112.33 1244.5,1112.33 1240.5,1113C 1240,1113.5 1239.5,1114 1239,1114.5C 1238.5,1145.83 1238.33,1177.16 1238.5,1208.5C 1256.99,1209.5 1275.66,1209.83 1294.5,1209.5C 1294.5,1216.17 1294.5,1222.83 1294.5,1229.5C 1250.17,1229.5 1205.83,1229.5 1161.5,1229.5C 1163.04,1239.59 1159.37,1247.09 1150.5,1252C 1140.88,1256.07 1130.88,1258.57 1120.5,1259.5C 1105.67,1257.96 1091.01,1255.46 1076.5,1252C 1087.38,1252.26 1098.05,1250.92 1108.5,1248C 1114.67,1245.83 1118.83,1241.67 1121,1235.5C 1121.33,1195.83 1121.67,1156.17 1122,1116.5C 1137.42,1114.09 1150.59,1107.43 1161.5,1096.5 Z"/></g>
<g><path style="opacity:1" fill="#b2b2b2" d="M 1161.5,1096.5 C 1162.5,1133.66 1162.83,1171 1162.5,1208.5C 1166.17,1208.5 1169.83,1208.5 1173.5,1208.5C 1173.5,1208.83 1173.5,1209.17 1173.5,1209.5C 1169.5,1209.5 1165.5,1209.5 1161.5,1209.5C 1161.5,1171.83 1161.5,1134.17 1161.5,1096.5 Z"/></g>
<g><path style="opacity:1" fill="#959595" d="M 1816.5,1111.5 C 1816.5,1143.83 1816.5,1176.17 1816.5,1208.5C 1821.83,1208.5 1827.17,1208.5 1832.5,1208.5C 1827.02,1209.49 1821.36,1209.82 1815.5,1209.5C 1815.17,1176.66 1815.5,1144 1816.5,1111.5 Z"/></g>
<g><path style="opacity:1" fill="#707070" d="M 1198.5,1110.5 C 1198.5,1143.5 1198.5,1176.5 1198.5,1209.5C 1190.17,1209.5 1181.83,1209.5 1173.5,1209.5C 1173.5,1209.17 1173.5,1208.83 1173.5,1208.5C 1181.5,1208.5 1189.5,1208.5 1197.5,1208.5C 1197.17,1175.66 1197.5,1143 1198.5,1110.5 Z"/></g>
<g><path style="opacity:1" fill="#fcfcfc" d="M 1816.5,1111.5 C 1823.21,1110.67 1828.37,1113 1832,1118.5C 1832.5,1148.5 1832.67,1178.5 1832.5,1208.5C 1827.17,1208.5 1821.83,1208.5 1816.5,1208.5C 1816.5,1176.17 1816.5,1143.83 1816.5,1111.5 Z"/></g>
<g><path style="opacity:1" fill="#9a9a9a" d="M 2075.5,1115.5 C 2075.5,1146.5 2075.5,1177.5 2075.5,1208.5C 2094.34,1208.17 2113.01,1208.5 2131.5,1209.5C 2112.5,1209.5 2093.5,1209.5 2074.5,1209.5C 2074.17,1178 2074.5,1146.66 2075.5,1115.5 Z"/></g>
<g><path style="opacity:1" fill="#b3b3b3" d="M 2090.5,1114.5 C 2091.17,1137.17 2091.83,1159.83 2092.5,1182.5C 2092.44,1183.04 2092.11,1183.38 2091.5,1183.5C 2090.5,1160.51 2090.17,1137.51 2090.5,1114.5 Z"/></g>
<g><path style="opacity:1" fill="#838383" d="M 1688.5,1104.5 C 1688.56,1103.96 1688.89,1103.62 1689.5,1103.5C 1690.83,1145.66 1690.83,1187.66 1689.5,1229.5C 1689.5,1229.17 1689.5,1228.83 1689.5,1228.5C 1689.83,1187 1689.5,1145.66 1688.5,1104.5 Z"/></g>
<g><path style="opacity:1" fill="#747474" d="M 965.5,1122.5 C 964.841,1151.26 964.174,1179.93 963.5,1208.5C 962.841,1179.48 963.508,1150.81 965.5,1122.5 Z"/></g>
<g><path style="opacity:1" fill="#969696" d="M 1238.5,1208.5 C 1257.5,1208.5 1276.5,1208.5 1295.5,1208.5C 1295.82,1215.69 1295.49,1222.69 1294.5,1229.5C 1294.5,1222.83 1294.5,1216.17 1294.5,1209.5C 1275.66,1209.83 1256.99,1209.5 1238.5,1208.5 Z"/></g>
<g><path style="opacity:1" fill="#7a7a7a" d="M 1603.5,1102.5 C 1603.5,1137.83 1603.5,1173.17 1603.5,1208.5C 1618.83,1208.5 1634.17,1208.5 1649.5,1208.5C 1634.01,1209.5 1618.34,1209.83 1602.5,1209.5C 1602.17,1173.66 1602.5,1138 1603.5,1102.5 Z"/></g>
<g><path style="opacity:1" fill="#626262" d="M 877.5,1106.5 C 877.5,1147.17 877.5,1187.83 877.5,1228.5C 919.5,1228.5 961.5,1228.5 1003.5,1228.5C 1003.17,1210.66 1003.5,1192.99 1004.5,1175.5C 1004.5,1193.5 1004.5,1211.5 1004.5,1229.5C 961.833,1229.5 919.167,1229.5 876.5,1229.5C 876.168,1188.33 876.501,1147.33 877.5,1106.5 Z"/></g>
<g><path style="opacity:1" fill="#5e5e5e" d="M 1563.5,1106.5 C 1563.5,1147.17 1563.5,1187.83 1563.5,1228.5C 1605.5,1228.5 1647.5,1228.5 1689.5,1228.5C 1689.5,1228.83 1689.5,1229.17 1689.5,1229.5C 1647.17,1229.5 1604.83,1229.5 1562.5,1229.5C 1562.17,1188.33 1562.5,1147.33 1563.5,1106.5 Z"/></g>
<g><path style="opacity:1" fill="#373737" d="M 1393.5,1245.5 C 1397.51,1245.33 1401.51,1245.5 1405.5,1246C 1410.09,1246.58 1411.92,1249.08 1411,1253.5C 1408.04,1255.46 1405.37,1257.79 1403,1260.5C 1402.5,1257.52 1402.34,1254.52 1402.5,1251.5C 1400.53,1251.26 1398.7,1251.59 1397,1252.5C 1396.5,1256.15 1396.33,1259.82 1396.5,1263.5C 1402.17,1263.5 1407.83,1263.5 1413.5,1263.5C 1413.5,1266.17 1413.5,1268.83 1413.5,1271.5C 1402.16,1271.67 1390.83,1271.5 1379.5,1271C 1375.57,1268.21 1373.73,1264.37 1374,1259.5C 1377.88,1263.84 1382.71,1265.51 1388.5,1264.5C 1388.33,1259.16 1388.5,1253.82 1389,1248.5C 1390.65,1247.6 1392.15,1246.6 1393.5,1245.5 Z"/></g>
<g><path style="opacity:1" fill="#363636" d="M 928.5,1247.5 C 935.175,1247.33 941.842,1247.5 948.5,1248C 949.5,1248.83 950.5,1249.67 951.5,1250.5C 952.63,1257.45 952.797,1264.45 952,1271.5C 951.626,1272.42 951.126,1273.25 950.5,1274C 946.448,1275.1 942.281,1275.6 938,1275.5C 934.5,1275.33 931,1275.17 927.5,1275C 927,1274.5 926.5,1274 926,1273.5C 924.406,1266.27 924.072,1258.94 925,1251.5C 925.69,1249.65 926.856,1248.32 928.5,1247.5 Z"/></g>
<g><path style="opacity:1" fill="#184266" d="M 511.5,1270.5 C 552.487,1269.33 591.821,1276.83 629.5,1293C 671.67,1312.08 713.003,1332.75 753.5,1355C 785.363,1374.03 811.863,1398.86 833,1429.5C 856.996,1465.15 865.329,1504.15 858,1546.5C 844.789,1597.38 812.956,1630.21 762.5,1645C 725.331,1654.18 688.331,1653.51 651.5,1643C 591.062,1622.45 533.729,1595.45 479.5,1562C 448.333,1541.5 422.5,1515.67 402,1484.5C 378.355,1444.66 373.355,1402.66 387,1358.5C 405.477,1315.7 437.311,1288.2 482.5,1276C 492.303,1274.15 501.97,1272.31 511.5,1270.5 Z"/></g>
<g><path style="opacity:1" fill="#3a3a3a" d="M 1644.5,1277.5 C 1645.51,1281.35 1644.51,1284.85 1641.5,1288C 1628.5,1295.5 1615.5,1303 1602.5,1310.5C 1601.34,1306.17 1602.67,1302.67 1606.5,1300C 1619.39,1292.73 1632.06,1285.23 1644.5,1277.5 Z"/></g>
<g><path style="opacity:1" fill="#393939" d="M 1357.5,1300.5 C 1358.92,1305.08 1357.58,1308.91 1353.5,1312C 1340.76,1318.79 1328.26,1325.95 1316,1333.5C 1315.17,1329.33 1316.34,1325.83 1319.5,1323C 1332.39,1315.73 1345.06,1308.23 1357.5,1300.5 Z"/></g>
<g><path style="opacity:1" fill="#3a3a3a" d="M 957.5,1324.5 C 959.937,1327.62 959.604,1330.78 956.5,1334C 942.918,1341.71 929.418,1349.54 916,1357.5C 915.712,1353.73 916.878,1350.39 919.5,1347.5C 932.23,1339.81 944.897,1332.14 957.5,1324.5 Z"/></g>
<g><path style="opacity:1" fill="#184266" d="M -0.5,1618.5 C 25.4024,1624.75 50.0691,1634.25 73.5,1647C 110.16,1667.33 146.16,1688.66 181.5,1711C 210.799,1731.3 234.966,1756.46 254,1786.5C 274.803,1820.05 282.47,1856.38 277,1895.5C 265.9,1948.76 234.4,1983.43 182.5,1999.5C 150.5,1999.5 118.5,1999.5 86.5,1999.5C 73.3915,1996.08 60.3915,1991.91 47.5,1987C 31.3577,1979.76 15.3577,1972.26 -0.5,1964.5C -0.5,1849.17 -0.5,1733.83 -0.5,1618.5 Z"/></g>
<g><path style="opacity:1" fill="#184266" d="M 2999.5,1679.5 C 2999.5,1786.17 2999.5,1892.83 2999.5,1999.5C 2948.5,1999.5 2897.5,1999.5 2846.5,1999.5C 2833.07,1967.51 2828.24,1934.18 2832,1899.5C 2836.51,1868.11 2841.51,1836.78 2847,1805.5C 2850.73,1788.97 2856.07,1772.97 2863,1757.5C 2876.12,1728.04 2896.62,1705.21 2924.5,1689C 2948.27,1676.14 2973.27,1672.97 2999.5,1679.5 Z"/></g>
<g><path style="opacity:1" fill="#184266" d="M 1324.5,1999.5 C 1251.83,1999.5 1179.17,1999.5 1106.5,1999.5C 1078.69,1961.65 1076.19,1921.98 1099,1880.5C 1112.01,1859.82 1128.18,1841.99 1147.5,1827C 1190.17,1798.17 1235.83,1774.83 1284.5,1757C 1302.26,1751.57 1320.42,1748.74 1339,1748.5C 1367.67,1748.78 1393.5,1757.28 1416.5,1774C 1453.24,1808.6 1462.07,1849.43 1443,1896.5C 1429.26,1924.24 1409.76,1947.07 1384.5,1965C 1364.93,1977.29 1344.93,1988.79 1324.5,1999.5 Z"/></g>
<g><path style="opacity:1" fill="#184266" d="M 2503.5,1999.5 C 2394.83,1999.5 2286.17,1999.5 2177.5,1999.5C 2167.36,1989.53 2158.53,1978.53 2151,1966.5C 2132.06,1935.54 2128.4,1902.87 2140,1868.5C 2158.09,1831.01 2187.92,1809.51 2229.5,1804C 2262.38,1801.51 2294.05,1806.51 2324.5,1819C 2354.53,1831.85 2384.19,1845.51 2413.5,1860C 2434.97,1872.12 2454.13,1887.29 2471,1905.5C 2494.27,1932.48 2505.1,1963.81 2503.5,1999.5 Z"/></g>
<g><path style="opacity:1" fill="#184266" d="M 859.5,1999.5 C 768.167,1999.5 676.833,1999.5 585.5,1999.5C 594.38,1971.24 609.714,1947.07 631.5,1927C 678.854,1888.2 729.854,1882.87 784.5,1911C 818.704,1932.7 843.704,1962.2 859.5,1999.5 Z"/></g>
<g><path style="opacity:1" fill="#fdfefe" d="M -0.5,1964.5 C 15.3577,1972.26 31.3577,1979.76 47.5,1987C 60.3915,1991.91 73.3915,1996.08 86.5,1999.5C 57.5,1999.5 28.5,1999.5 -0.5,1999.5C -0.5,1987.83 -0.5,1976.17 -0.5,1964.5 Z"/></g>
</svg>
