<?xml version="1.0" encoding="UTF-8"?>
<!DOCTYPE svg PUBLIC "-//W3C//DTD SVG 1.1//EN" "http://www.w3.org/Graphics/SVG/1.1/DTD/svg11.dtd">
<svg xmlns="http://www.w3.org/2000/svg" version="1.1" width="3000px" height="2000px" style="shape-rendering:geometricPrecision; text-rendering:geometricPrecision; image-rendering:optimizeQuality; fill-rule:evenodd; clip-rule:evenodd" xmlns:xlink="http://www.w3.org/1999/xlink">
<g><path style="opacity:1" fill="#184266" d="M -0.5,-0.5 C 102.833,-0.5 206.167,-0.5 309.5,-0.5C 322.255,39.2646 338.422,77.598 358,114.5C 365.604,127.258 373.77,139.591 382.5,151.5C 347.354,178.697 331.854,214.697 336,259.5C 339.007,280.858 346.007,300.858 357,319.5C 394.722,381.221 445.889,428.388 510.5,461C 539.16,474.761 569.16,479.094 600.5,474C 659.562,456.274 685.729,416.774 679,355.5C 676.467,342.403 672.633,329.737 667.5,317.5C 681.948,326.229 696.615,334.729 711.5,343C 745.5,360.667 779.5,378.333 813.5,396C 843.22,412.186 871.22,430.853 897.5,452C 916.267,468.255 932.267,486.755 945.5,507.5C 889.228,485.79 831.894,482.623 773.5,498C 693.332,522.496 646.165,575.996 632,658.5C 625.133,741.933 656.966,805.766 727.5,850C 770.244,876.217 816.577,886.217 866.5,880C 933.909,869.229 988.409,837.063 1030,783.5C 1036.01,774.806 1041.51,765.806 1046.5,756.5C 1049.27,807.165 1041.11,856.165 1022,903.5C 1006.16,941.613 985.826,976.946 961,1009.5C 917.679,1064.49 869.179,1114.66 815.5,1160C 784.533,1185.81 753.2,1211.15 721.5,1236C 667.655,1275.76 613.988,1315.76 560.5,1356C 520.237,1390.93 480.57,1426.59 441.5,1463C 412.277,1488.6 381.611,1512.27 349.5,1534C 287.887,1572.87 220.554,1593.87 147.5,1597C 117.159,1598.67 86.826,1598.67 56.5,1597C 37.4492,1595.55 18.4492,1593.72 -0.5,1591.5C -0.5,1060.83 -0.5,530.167 -0.5,-0.5 Z"/></g>
<g><path style="opacity:1" fill="#fefefe" d="M 309.5,-0.5 C 498.5,-0.5 687.5,-0.5 876.5,-0.5C 848.512,10.3234 823.179,25.4901 800.5,45C 763.605,81.6641 749.105,125.831 757,177.5C 761.759,205.442 771.092,231.776 785,256.5C 810.294,298.477 842.128,334.977 880.5,366C 925.456,401.82 975.456,428.82 1030.5,447C 1080.22,462.295 1130.55,464.628 1181.5,454C 1213.37,445.4 1241.37,430.067 1265.5,408C 1301.3,375.833 1325.14,336.333 1337,289.5C 1345.99,236.113 1335.66,186.779 1306,141.5C 1270.02,89.8559 1223.86,50.0225 1167.5,22C 1150.02,13.7929 1132.35,6.29288 1114.5,-0.5C 1742.17,-0.5 2369.83,-0.5 2997.5,-0.5C 2944.26,35.2277 2897.76,78.5611 2858,129.5C 2826.19,171.104 2796.86,214.437 2770,259.5C 2751.16,292.512 2732.83,325.846 2715,359.5C 2675.74,437.679 2636.74,516.012 2598,594.5C 2584.67,619.167 2571.33,643.833 2558,668.5C 2547.55,691.174 2537.89,714.174 2529,737.5C 2510.86,787.577 2492.53,837.577 2474,887.5C 2458.37,928.755 2440.04,968.755 2419,1007.5C 2402.42,1038.1 2381.25,1065.27 2355.5,1089C 2331.02,1108.62 2303.35,1121.96 2272.5,1129C 2232.26,1137.12 2191.59,1140.96 2150.5,1140.5C 2085.49,1138.73 2020.49,1137.23 1955.5,1136C 1924.11,1134.91 1893.78,1139.91 1864.5,1151C 1808.46,1175.92 1759.63,1210.75 1718,1255.5C 1661.43,1323.11 1641.76,1400.45 1659,1487.5C 1669.57,1539.63 1688.24,1588.63 1715,1634.5C 1725.6,1652.06 1736.44,1669.39 1747.5,1686.5C 1677.86,1670.73 1613.86,1683.23 1555.5,1724C 1506.12,1763.14 1488.28,1813.64 1502,1875.5C 1512.05,1912.16 1529.72,1944.49 1555,1972.5C 1563.37,1982.03 1572.2,1991.03 1581.5,1999.5C 1054.17,1999.5 526.833,1999.5 -0.5,1999.5C -0.5,1863.5 -0.5,1727.5 -0.5,1591.5C 18.4492,1593.72 37.4492,1595.55 56.5,1597C 86.826,1598.67 117.159,1598.67 147.5,1597C 220.554,1593.87 287.887,1572.87 349.5,1534C 381.611,1512.27 412.277,1488.6 441.5,1463C 480.57,1426.59 520.237,1390.93 560.5,1356C 613.988,1315.76 667.655,1275.76 721.5,1236C 753.2,1211.15 784.533,1185.81 815.5,1160C 869.179,1114.66 917.679,1064.49 961,1009.5C 985.826,976.946 1006.16,941.613 1022,903.5C 1041.11,856.165 1049.27,807.165 1046.5,756.5C 1077.26,694.418 1072.76,635.085 1033,578.5C 1009.9,547.227 980.738,523.56 945.5,507.5C 932.267,486.755 916.267,468.255 897.5,452C 871.22,430.853 843.22,412.186 813.5,396C 779.5,378.333 745.5,360.667 711.5,343C 696.615,334.729 681.948,326.229 667.5,317.5C 640.809,256.33 600.809,205.497 547.5,165C 506.865,136.432 462.198,127.099 413.5,137C 402.356,140.24 392.023,145.074 382.5,151.5C 373.77,139.591 365.604,127.258 358,114.5C 338.422,77.598 322.255,39.2646 309.5,-0.5 Z"/></g>
<g><path style="opacity:1" fill="#ffb34f" d="M 876.5,-0.5 C 955.833,-0.5 1035.17,-0.5 1114.5,-0.5C 1132.35,6.29288 1150.02,13.7929 1167.5,22C 1223.86,50.0225 1270.02,89.8559 1306,141.5C 1335.66,186.779 1345.99,236.113 1337,289.5C 1325.14,336.333 1301.3,375.833 1265.5,408C 1241.37,430.067 1213.37,445.4 1181.5,454C 1130.55,464.628 1080.22,462.295 1030.5,447C 975.456,428.82 925.456,401.82 880.5,366C 842.128,334.977 810.294,298.477 785,256.5C 771.092,231.776 761.759,205.442 757,177.5C 749.105,125.831 763.605,81.6641 800.5,45C 823.179,25.4901 848.512,10.3234 876.5,-0.5 Z"/></g>
<g><path style="opacity:1" fill="#184266" d="M 2997.5,-0.5 C 2998.17,-0.5 2998.83,-0.5 2999.5,-0.5C 2999.5,472.833 2999.5,946.167 2999.5,1419.5C 2977.91,1370.87 2946.91,1329.03 2906.5,1294C 2803.32,1207.63 2684.32,1169.63 2549.5,1180C 2492.57,1186.75 2440.24,1205.75 2392.5,1237C 2326.28,1285.61 2301.78,1350.44 2319,1431.5C 2329.02,1471.53 2346.02,1508.2 2370,1541.5C 2440.86,1635.96 2532.69,1701.46 2645.5,1738C 2700.29,1755.16 2755.95,1758.83 2812.5,1749C 2866.5,1736.92 2911.67,1710.09 2948,1668.5C 2969,1644.67 2986.16,1618.34 2999.5,1589.5C 2999.5,1716.17 2999.5,1842.83 2999.5,1969.5C 2894.94,1976.8 2790.28,1981.13 2685.5,1982.5C 2677,1942.49 2659.16,1907.16 2632,1876.5C 2592.34,1832.24 2543.17,1804.41 2484.5,1793C 2423.08,1780.89 2363.42,1786.55 2305.5,1810C 2223.48,1846.84 2177.14,1910 2166.5,1999.5C 2163.5,1999.5 2160.5,1999.5 2157.5,1999.5C 2100.12,1980.81 2046.12,1955.14 1995.5,1922.5C 1987.42,1894.76 1975.59,1868.76 1960,1844.5C 1924.13,1789.96 1877.96,1746.46 1821.5,1714C 1798.11,1701.37 1773.44,1692.2 1747.5,1686.5C 1736.44,1669.39 1725.6,1652.06 1715,1634.5C 1688.24,1588.63 1669.57,1539.63 1659,1487.5C 1641.76,1400.45 1661.43,1323.11 1718,1255.5C 1759.63,1210.75 1808.46,1175.92 1864.5,1151C 1893.78,1139.91 1924.11,1134.91 1955.5,1136C 2020.49,1137.23 2085.49,1138.73 2150.5,1140.5C 2191.59,1140.96 2232.26,1137.12 2272.5,1129C 2303.35,1121.96 2331.02,1108.62 2355.5,1089C 2381.25,1065.27 2402.42,1038.1 2419,1007.5C 2440.04,968.755 2458.37,928.755 2474,887.5C 2492.53,837.577 2510.86,787.577 2529,737.5C 2537.89,714.174 2547.55,691.174 2558,668.5C 2571.33,643.833 2584.67,619.167 2598,594.5C 2636.74,516.012 2675.74,437.679 2715,359.5C 2732.83,325.846 2751.16,292.512 2770,259.5C 2796.86,214.437 2826.19,171.104 2858,129.5C 2897.76,78.5611 2944.26,35.2277 2997.5,-0.5 Z"/></g>
<g><path style="opacity:1" fill="#feb24f" d="M 667.5,317.5 C 672.633,329.737 676.467,342.403 679,355.5C 685.729,416.774 659.562,456.274 600.5,474C 569.16,479.094 539.16,474.761 510.5,461C 445.889,428.388 394.722,381.221 357,319.5C 346.007,300.858 339.007,280.858 336,259.5C 331.854,214.697 347.354,178.697 382.5,151.5C 392.023,145.074 402.356,140.24 413.5,137C 462.198,127.099 506.865,136.432 547.5,165C 600.809,205.497 640.809,256.33 667.5,317.5 Z"/></g>
<g><path style="opacity:1" fill="#feb24f" d="M 223.5,398.5 C 279.695,397.733 330.361,413.9 375.5,447C 421.025,480.847 455.858,523.347 480,574.5C 495.756,609.302 499.423,645.302 491,682.5C 473.737,735.072 437.57,764.905 382.5,772C 347.942,775.301 314.608,770.301 282.5,757C 222.105,728.942 168.605,691.109 122,643.5C 99.034,617.905 83.7007,588.238 76,554.5C 67.6941,495.946 89.1941,452.113 140.5,423C 166.545,408.813 194.212,400.646 223.5,398.5 Z"/></g>
<g><path style="opacity:1" fill="#feb24f" d="M 945.5,507.5 C 980.738,523.56 1009.9,547.227 1033,578.5C 1072.76,635.085 1077.26,694.418 1046.5,756.5C 1041.51,765.806 1036.01,774.806 1030,783.5C 988.409,837.063 933.909,869.229 866.5,880C 816.577,886.217 770.244,876.217 727.5,850C 656.966,805.766 625.133,741.933 632,658.5C 646.165,575.996 693.332,522.496 773.5,498C 831.894,482.623 889.228,485.79 945.5,507.5 Z"/></g>
<g><path style="opacity:1" fill="#363636" d="M 1276.5,745.5 C 1288.44,746.931 1295.94,753.597 1299,765.5C 1301.4,778.849 1299.06,791.182 1292,802.5C 1282.52,812.232 1271.02,818.399 1257.5,821C 1241.04,825.228 1224.37,827.894 1207.5,829C 1202.96,828.01 1200.63,825.176 1200.5,820.5C 1203.41,814.761 1206.91,809.428 1211,804.5C 1211.28,800.961 1211.78,797.461 1212.5,794C 1211.27,790.598 1210.61,787.098 1210.5,783.5C 1207.17,783.5 1203.83,783.5 1200.5,783.5C 1200.5,781.833 1200.5,780.167 1200.5,778.5C 1203.74,778.232 1206.91,777.566 1210,776.5C 1212.99,778.819 1215.99,781.153 1219,783.5C 1222.21,795.758 1220.38,807.091 1213.5,817.5C 1214,817.833 1214.5,818.167 1215,818.5C 1228.96,815.55 1242.8,812.05 1256.5,808C 1264.36,804.574 1271.36,799.907 1277.5,794C 1276.21,791.708 1274.54,789.708 1272.5,788C 1268.25,785.961 1264.09,783.794 1260,781.5C 1258.59,777.754 1257.09,774.087 1255.5,770.5C 1256.17,765.804 1257,761.137 1258,756.5C 1260.04,754.792 1261.71,752.792 1263,750.5C 1267.12,747.526 1271.62,745.86 1276.5,745.5 Z"/></g>
<g><path style="opacity:1" fill="#f3f3f3" d="M 1276.5,765.5 C 1285.07,769.114 1287.24,775.114 1283,783.5C 1279.69,779.352 1276.19,775.352 1272.5,771.5C 1273.47,769.21 1274.8,767.21 1276.5,765.5 Z"/></g>
<g><path style="opacity:1" fill="#373737" d="M 1780.5,793.5 C 1782.17,793.5 1783.83,793.5 1785.5,793.5C 1786.11,801.278 1785.44,808.778 1783.5,816C 1754.37,823.366 1725.37,831.2 1696.5,839.5C 1696.27,832.916 1696.27,826.249 1696.5,819.5C 1724.8,811.432 1752.8,802.765 1780.5,793.5 Z"/></g>
<g><path style="opacity:1" fill="#393939" d="M 1503.5,798.5 C 1514.59,798.077 1521.09,803.41 1523,814.5C 1525.54,829.593 1520.04,840.426 1506.5,847C 1501.83,848.333 1497.17,849.667 1492.5,851C 1475.38,852.549 1469.22,845.049 1474,828.5C 1480.02,814.647 1489.85,804.647 1503.5,798.5 Z"/></g>
<g><path style="opacity:1" fill="#fbfbfb" d="M 1501.5,807.5 C 1511.78,806.966 1516.44,811.966 1515.5,822.5C 1515.34,834.831 1509.01,841.664 1496.5,843C 1484.83,844.993 1480.33,840.16 1483,828.5C 1486.55,819.124 1492.71,812.124 1501.5,807.5 Z"/></g>
<g><path style="opacity:1" fill="#363636" d="M 1471.5,1130.5 C 1471.5,1139.83 1471.5,1149.17 1471.5,1158.5C 1468.17,1158.5 1464.83,1158.5 1461.5,1158.5C 1446.87,1157.78 1436.71,1150.78 1431,1137.5C 1425.83,1123.98 1423.16,1109.98 1423,1095.5C 1422,1093.5 1421,1091.5 1420,1089.5C 1420.5,1101.16 1417.5,1111.83 1411,1121.5C 1396.15,1139.69 1379.31,1155.85 1360.5,1170C 1351.33,1175.75 1342.33,1181.75 1333.5,1188C 1316.67,1197.83 1298.67,1204.5 1279.5,1208C 1248.28,1212.31 1226.44,1200.15 1214,1171.5C 1210.57,1152.33 1209.57,1133 1211,1113.5C 1212.62,1095.94 1217.95,1079.6 1227,1064.5C 1227.67,1065.17 1228.33,1065.83 1229,1066.5C 1226.85,1078.3 1223.85,1089.97 1220,1101.5C 1215.53,1127.86 1222.36,1150.69 1240.5,1170C 1247.07,1175.78 1254.73,1179.11 1263.5,1180C 1273.96,1181.06 1284.29,1180.39 1294.5,1178C 1328.69,1164.25 1360.03,1145.91 1388.5,1123C 1393.33,1118.17 1398.17,1113.33 1403,1108.5C 1406.33,1103.17 1409.67,1097.83 1413,1092.5C 1413.72,1087.02 1414.22,1081.52 1414.5,1076C 1407.78,1017.51 1398.95,959.343 1388,901.5C 1387.33,893.5 1387.33,885.5 1388,877.5C 1390.07,869.635 1392.73,861.968 1396,854.5C 1398.24,858.223 1399.91,862.223 1401,866.5C 1415.66,933.481 1426,1001.15 1432,1069.5C 1434.26,1084.98 1438.26,1099.98 1444,1114.5C 1446.65,1119.63 1450.15,1124.13 1454.5,1128C 1459.99,1130.02 1465.65,1130.85 1471.5,1130.5 Z"/></g>
<g><path style="opacity:1" fill="#363636" d="M 1713.5,908.5 C 1724.52,914.095 1735.35,920.095 1746,926.5C 1744.26,935.788 1741.42,944.788 1737.5,953.5C 1726.92,947.96 1716.42,942.294 1706,936.5C 1707.56,926.965 1710.06,917.632 1713.5,908.5 Z"/></g>
<g><path style="opacity:1" fill="#353535" d="M 1476.5,1158.5 C 1475.17,1158.5 1473.83,1158.5 1472.5,1158.5C 1472.5,1149.17 1472.5,1139.83 1472.5,1130.5C 1487.27,1132.52 1499.77,1128.19 1510,1117.5C 1517.58,1107.34 1524.91,1097.01 1532,1086.5C 1533.85,1091.94 1534.85,1097.6 1535,1103.5C 1538,1107.83 1541.67,1111.5 1546,1114.5C 1557.41,1093.33 1570.08,1072.99 1584,1053.5C 1593.31,1044.52 1603.48,1036.68 1614.5,1030C 1644.96,1022.5 1668.46,1032 1685,1058.5C 1689.46,1076.2 1687.12,1092.86 1678,1108.5C 1674.8,1112.04 1671.3,1115.2 1667.5,1118C 1659.81,1121.51 1652.15,1125.01 1644.5,1128.5C 1643.96,1128.56 1643.62,1128.89 1643.5,1129.5C 1660.82,1130.5 1678.15,1130.83 1695.5,1130.5C 1727.29,1132.63 1754.79,1122.96 1778,1101.5C 1780.26,1098.35 1779.76,1095.68 1776.5,1093.5C 1771.03,1090.84 1765.36,1088.68 1759.5,1087C 1747.17,1086.67 1734.83,1086.33 1722.5,1086C 1718.7,1083.91 1716.2,1080.75 1715,1076.5C 1711.02,1058.77 1715.36,1043.43 1728,1030.5C 1736.78,1023.97 1746.28,1022.81 1756.5,1027C 1788.14,1050.9 1796.3,1081.07 1781,1117.5C 1763.47,1139.85 1740.64,1153.35 1712.5,1158C 1679.83,1158.67 1647.17,1158.67 1614.5,1158C 1593.44,1154.71 1572.44,1151.04 1551.5,1147C 1549.17,1145.83 1546.83,1144.67 1544.5,1143.5C 1541.51,1149.97 1539.01,1156.64 1537,1163.5C 1536.5,1155.14 1536.5,1146.8 1537,1138.5C 1535.67,1137.17 1534.33,1135.83 1533,1134.5C 1530.75,1129.67 1528.25,1125.01 1525.5,1120.5C 1519.08,1130.09 1511.75,1138.92 1503.5,1147C 1495.36,1152.88 1486.36,1156.71 1476.5,1158.5 Z"/></g>
<g><path style="opacity:1" fill="#f5f5f5" d="M 1735.5,1050.5 C 1739.79,1050.03 1743.79,1050.87 1747.5,1053C 1751.5,1056.33 1755.17,1060 1758.5,1064C 1751.17,1064.67 1743.83,1064.67 1736.5,1064C 1727.52,1060.33 1727.18,1055.83 1735.5,1050.5 Z"/></g>
<g><path style="opacity:1" fill="#fcfcfc" d="M 1622.5,1055.5 C 1633.98,1054.73 1644.31,1057.56 1653.5,1064C 1660.64,1070.13 1667.47,1076.63 1674,1083.5C 1674.81,1085.9 1674.65,1088.24 1673.5,1090.5C 1653.94,1103.64 1632.6,1112.8 1609.5,1118C 1595.46,1122.18 1581.13,1123.51 1566.5,1122C 1564.91,1121.14 1563.25,1120.47 1561.5,1120C 1559.99,1119.16 1559.49,1118 1560,1116.5C 1570.05,1103.45 1579.72,1090.11 1589,1076.5C 1598.04,1065.93 1609.21,1058.93 1622.5,1055.5 Z"/></g>
<g><path style="opacity:1" fill="#656565" d="M 1644.5,1128.5 C 1661.5,1129.17 1678.5,1129.83 1695.5,1130.5C 1678.15,1130.83 1660.82,1130.5 1643.5,1129.5C 1643.62,1128.89 1643.96,1128.56 1644.5,1128.5 Z"/></g>
<g><path style="opacity:1" fill="#707070" d="M 1471.5,1130.5 C 1471.83,1130.5 1472.17,1130.5 1472.5,1130.5C 1472.5,1139.83 1472.5,1149.17 1472.5,1158.5C 1473.83,1158.5 1475.17,1158.5 1476.5,1158.5C 1471.5,1159.83 1466.5,1159.83 1461.5,1158.5C 1464.83,1158.5 1468.17,1158.5 1471.5,1158.5C 1471.5,1149.17 1471.5,1139.83 1471.5,1130.5 Z"/></g>
<g><path style="opacity:1" fill="#feb24f" d="M 2999.5,1419.5 C 2999.5,1476.17 2999.5,1532.83 2999.5,1589.5C 2986.16,1618.34 2969,1644.67 2948,1668.5C 2911.67,1710.09 2866.5,1736.92 2812.5,1749C 2755.95,1758.83 2700.29,1755.16 2645.5,1738C 2532.69,1701.46 2440.86,1635.96 2370,1541.5C 2346.02,1508.2 2329.02,1471.53 2319,1431.5C 2301.78,1350.44 2326.28,1285.61 2392.5,1237C 2440.24,1205.75 2492.57,1186.75 2549.5,1180C 2684.32,1169.63 2803.32,1207.63 2906.5,1294C 2946.91,1329.03 2977.91,1370.87 2999.5,1419.5 Z"/></g>
<g><path style="opacity:1" fill="#feb24f" d="M 1932.5,1361.5 C 1981.09,1359.87 2025.42,1372.7 2065.5,1400C 2125.64,1446.15 2172.14,1503.31 2205,1571.5C 2214.13,1592.01 2220.46,1613.34 2224,1635.5C 2228.4,1706.09 2196.57,1750.93 2128.5,1770C 2091.31,1776.02 2055.64,1771.02 2021.5,1755C 1945.15,1716.56 1884.32,1661.06 1839,1588.5C 1827.61,1569.4 1819.28,1549.06 1814,1527.5C 1804.54,1475.81 1818.04,1431.31 1854.5,1394C 1877.08,1374.86 1903.08,1364.03 1932.5,1361.5 Z"/></g>
<g><path style="opacity:1" fill="#feb34f" d="M 1747.5,1686.5 C 1773.44,1692.2 1798.11,1701.37 1821.5,1714C 1877.96,1746.46 1924.13,1789.96 1960,1844.5C 1975.59,1868.76 1987.42,1894.76 1995.5,1922.5C 2002.28,1947.75 2004.28,1973.41 2001.5,1999.5C 1861.5,1999.5 1721.5,1999.5 1581.5,1999.5C 1572.2,1991.03 1563.37,1982.03 1555,1972.5C 1529.72,1944.49 1512.05,1912.16 1502,1875.5C 1488.28,1813.64 1506.12,1763.14 1555.5,1724C 1613.86,1683.23 1677.86,1670.73 1747.5,1686.5 Z"/></g>
<g><path style="opacity:1" fill="#feb24f" d="M 2685.5,1982.5 C 2686.02,1988.19 2686.69,1993.86 2687.5,1999.5C 2513.83,1999.5 2340.17,1999.5 2166.5,1999.5C 2177.14,1910 2223.48,1846.84 2305.5,1810C 2363.42,1786.55 2423.08,1780.89 2484.5,1793C 2543.17,1804.41 2592.34,1832.24 2632,1876.5C 2659.16,1907.16 2677,1942.49 2685.5,1982.5 Z"/></g>
<g><path style="opacity:1" fill="#fefdfd" d="M 1995.5,1922.5 C 2046.12,1955.14 2100.12,1980.81 2157.5,1999.5C 2105.5,1999.5 2053.5,1999.5 2001.5,1999.5C 2004.28,1973.41 2002.28,1947.75 1995.5,1922.5 Z"/></g>
<g><path style="opacity:1" fill="#fcfdfd" d="M 2999.5,1969.5 C 2999.5,1979.5 2999.5,1989.5 2999.5,1999.5C 2895.5,1999.5 2791.5,1999.5 2687.5,1999.5C 2686.69,1993.86 2686.02,1988.19 2685.5,1982.5C 2790.28,1981.13 2894.94,1976.8 2999.5,1969.5 Z"/></g>
</svg>
