<?xml version="1.0" encoding="UTF-8"?>
<!DOCTYPE svg PUBLIC "-//W3C//DTD SVG 1.1//EN" "http://www.w3.org/Graphics/SVG/1.1/DTD/svg11.dtd">
<svg xmlns="http://www.w3.org/2000/svg" version="1.1" width="3000px" height="2000px" style="shape-rendering:geometricPrecision; text-rendering:geometricPrecision; image-rendering:optimizeQuality; fill-rule:evenodd; clip-rule:evenodd" xmlns:xlink="http://www.w3.org/1999/xlink">
<g><path style="opacity:1" fill="#fefefe" d="M -0.5,-0.5 C 713.167,-0.5 1426.83,-0.5 2140.5,-0.5C 2077.14,115.447 2066.64,236.113 2109,361.5C 2120.44,392.49 2133.44,422.823 2148,452.5C 2175.78,505.063 2202.78,558.063 2229,611.5C 2245.11,645.502 2257.45,680.835 2266,717.5C 2276.71,771.696 2275.71,825.696 2263,879.5C 2252.39,920.826 2243.39,962.493 2236,1004.5C 2228.13,1083.52 2238.13,1160.19 2266,1234.5C 2316.06,1364.88 2399.56,1468.04 2516.5,1544C 2612.91,1602.6 2717.57,1627.6 2830.5,1619C 2888.12,1614.78 2944.45,1603.94 2999.5,1586.5C 2999.5,1724.17 2999.5,1861.83 2999.5,1999.5C 2481.17,1999.5 1962.83,1999.5 1444.5,1999.5C 1462.43,1871.1 1424.76,1762.27 1331.5,1673C 1292.5,1639.65 1248.83,1613.65 1200.5,1595C 1159.32,1579.27 1117.99,1563.94 1076.5,1549C 1048.21,1537.69 1020.54,1525.02 993.5,1511C 940.897,1481.73 900.397,1440.56 872,1387.5C 858.173,1361.84 843.84,1336.51 829,1311.5C 787.869,1251.19 734.702,1204.69 669.5,1172C 558.038,1117.62 441.705,1103.62 320.5,1130C 252.769,1147.02 193.435,1178.85 142.5,1225.5C 93.6813,1226.89 46.0146,1234.89 -0.5,1249.5C -0.5,832.833 -0.5,416.167 -0.5,-0.5 Z"/></g>
<g><path style="opacity:1" fill="#184266" d="M 2140.5,-0.5 C 2181.17,-0.5 2221.83,-0.5 2262.5,-0.5C 2253.79,74.4119 2258.62,148.412 2277,221.5C 2293.11,275.388 2317.45,325.055 2350,370.5C 2362.33,386.833 2374.67,403.167 2387,419.5C 2425.38,464.875 2463.38,510.541 2501,556.5C 2527.63,590.518 2550.3,627.184 2569,666.5C 2581.51,695.043 2590.18,724.709 2595,755.5C 2599.02,788.662 2605.35,821.329 2614,853.5C 2622.85,881.523 2635.18,907.856 2651,932.5C 2726.99,1044.09 2827.16,1126.25 2951.5,1179C 2967.26,1185.53 2983.26,1191.36 2999.5,1196.5C 2999.5,1326.5 2999.5,1456.5 2999.5,1586.5C 2944.45,1603.94 2888.12,1614.78 2830.5,1619C 2717.57,1627.6 2612.91,1602.6 2516.5,1544C 2399.56,1468.04 2316.06,1364.88 2266,1234.5C 2238.13,1160.19 2228.13,1083.52 2236,1004.5C 2243.39,962.493 2252.39,920.826 2263,879.5C 2275.71,825.696 2276.71,771.696 2266,717.5C 2257.45,680.835 2245.11,645.502 2229,611.5C 2202.78,558.063 2175.78,505.063 2148,452.5C 2133.44,422.823 2120.44,392.49 2109,361.5C 2066.64,236.113 2077.14,115.447 2140.5,-0.5 Z"/></g>
<g><path style="opacity:1" fill="#fdb24f" d="M 2262.5,-0.5 C 2272.5,-0.5 2282.5,-0.5 2292.5,-0.5C 2285.22,65.6948 2288.39,131.361 2302,196.5C 2317.81,258.116 2344.81,314.116 2383,364.5C 2398.95,385.454 2415.29,406.121 2432,426.5C 2473.61,473.43 2512.94,522.096 2550,572.5C 2577.94,612.04 2599.27,655.04 2614,701.5C 2617.63,714.024 2620.63,726.69 2623,739.5C 2627.83,773.807 2634.16,807.807 2642,841.5C 2655.51,882.194 2675.51,919.194 2702,952.5C 2780.73,1051.71 2879.9,1122.38 2999.5,1164.5C 2999.5,1175.17 2999.5,1185.83 2999.5,1196.5C 2983.26,1191.36 2967.26,1185.53 2951.5,1179C 2827.16,1126.25 2726.99,1044.09 2651,932.5C 2635.18,907.856 2622.85,881.523 2614,853.5C 2605.35,821.329 2599.02,788.662 2595,755.5C 2590.18,724.709 2581.51,695.043 2569,666.5C 2550.3,627.184 2527.63,590.518 2501,556.5C 2463.38,510.541 2425.38,464.875 2387,419.5C 2374.67,403.167 2362.33,386.833 2350,370.5C 2317.45,325.055 2293.11,275.388 2277,221.5C 2258.62,148.412 2253.79,74.4119 2262.5,-0.5 Z"/></g>
<g><path style="opacity:1" fill="#184265" d="M 2292.5,-0.5 C 2398.17,-0.5 2503.83,-0.5 2609.5,-0.5C 2572.27,51.4978 2559.43,109.164 2571,172.5C 2580.5,223.816 2599.16,271.482 2627,315.5C 2660.01,365.846 2695.35,414.513 2733,461.5C 2762.56,500.59 2787.56,542.59 2808,587.5C 2818.04,613.02 2825.04,639.353 2829,666.5C 2814.35,812.246 2871.18,918.912 2999.5,986.5C 2999.5,1045.83 2999.5,1105.17 2999.5,1164.5C 2879.9,1122.38 2780.73,1051.71 2702,952.5C 2675.51,919.194 2655.51,882.194 2642,841.5C 2634.16,807.807 2627.83,773.807 2623,739.5C 2620.63,726.69 2617.63,714.024 2614,701.5C 2599.27,655.04 2577.94,612.04 2550,572.5C 2512.94,522.096 2473.61,473.43 2432,426.5C 2415.29,406.121 2398.95,385.454 2383,364.5C 2344.81,314.116 2317.81,258.116 2302,196.5C 2288.39,131.361 2285.22,65.6948 2292.5,-0.5 Z"/></g>
<g><path style="opacity:1" fill="#fdb24f" d="M 2609.5,-0.5 C 2622.83,-0.5 2636.17,-0.5 2649.5,-0.5C 2607.55,43.8494 2590.72,96.5161 2599,157.5C 2607.19,211.073 2626.19,260.407 2656,305.5C 2668.67,324.167 2681.33,342.833 2694,361.5C 2722.06,397.296 2749.4,433.629 2776,470.5C 2797.13,500.399 2815.46,532.066 2831,565.5C 2857.42,626.46 2867.42,690.126 2861,756.5C 2868.53,817.072 2894.7,867.905 2939.5,909C 2957.98,925.398 2977.98,939.564 2999.5,951.5C 2999.5,963.167 2999.5,974.833 2999.5,986.5C 2871.18,918.912 2814.35,812.246 2829,666.5C 2825.04,639.353 2818.04,613.02 2808,587.5C 2787.56,542.59 2762.56,500.59 2733,461.5C 2695.35,414.513 2660.01,365.846 2627,315.5C 2599.16,271.482 2580.5,223.816 2571,172.5C 2559.43,109.164 2572.27,51.4978 2609.5,-0.5 Z"/></g>
<g><path style="opacity:1" fill="#184265" d="M 2649.5,-0.5 C 2761.83,-0.5 2874.17,-0.5 2986.5,-0.5C 2990.51,3.51262 2994.85,7.17929 2999.5,10.5C 2999.5,44.1667 2999.5,77.8333 2999.5,111.5C 2968.24,119.962 2940.24,134.462 2915.5,155C 2885.2,184.5 2877.03,219.333 2891,259.5C 2899.05,279.946 2910.38,298.279 2925,314.5C 2932.47,322.97 2940.3,331.137 2948.5,339C 2966.26,353.262 2983.26,368.428 2999.5,384.5C 2999.5,573.5 2999.5,762.5 2999.5,951.5C 2977.98,939.564 2957.98,925.398 2939.5,909C 2894.7,867.905 2868.53,817.072 2861,756.5C 2867.42,690.126 2857.42,626.46 2831,565.5C 2815.46,532.066 2797.13,500.399 2776,470.5C 2749.4,433.629 2722.06,397.296 2694,361.5C 2681.33,342.833 2668.67,324.167 2656,305.5C 2626.19,260.407 2607.19,211.073 2599,157.5C 2590.72,96.5161 2607.55,43.8494 2649.5,-0.5 Z"/></g>
<g><path style="opacity:1" fill="#f9fafb" d="M 2986.5,-0.5 C 2990.83,-0.5 2995.17,-0.5 2999.5,-0.5C 2999.5,3.16667 2999.5,6.83333 2999.5,10.5C 2994.85,7.17929 2990.51,3.51262 2986.5,-0.5 Z"/></g>
<g><path style="opacity:1" fill="#fdb24f" d="M 2999.5,111.5 C 2999.5,122.167 2999.5,132.833 2999.5,143.5C 2976.65,150.422 2955.98,161.256 2937.5,176C 2914.99,196.863 2909.16,221.697 2920,250.5C 2926.74,266.317 2935.74,280.65 2947,293.5C 2963.41,311.083 2980.91,327.417 2999.5,342.5C 2999.5,356.5 2999.5,370.5 2999.5,384.5C 2983.26,368.428 2966.26,353.262 2948.5,339C 2940.3,331.137 2932.47,322.97 2925,314.5C 2910.38,298.279 2899.05,279.946 2891,259.5C 2877.03,219.333 2885.2,184.5 2915.5,155C 2940.24,134.462 2968.24,119.962 2999.5,111.5 Z"/></g>
<g><path style="opacity:1" fill="#194265" d="M 2999.5,143.5 C 2999.5,209.833 2999.5,276.167 2999.5,342.5C 2980.91,327.417 2963.41,311.083 2947,293.5C 2935.74,280.65 2926.74,266.317 2920,250.5C 2909.16,221.697 2914.99,196.863 2937.5,176C 2955.98,161.256 2976.65,150.422 2999.5,143.5 Z"/></g>
<g><path style="opacity:1" fill="#373737" d="M 1856.5,697.5 C 1863.99,698.481 1868.49,702.814 1870,710.5C 1871.14,719.372 1870.3,728.039 1867.5,736.5C 1867.61,737.442 1867.94,738.275 1868.5,739C 1872.14,740.636 1875.14,742.97 1877.5,746C 1876.14,749.227 1874.64,752.394 1873,755.5C 1871.88,757.124 1870.38,758.124 1868.5,758.5C 1865.17,756.985 1861.84,755.818 1858.5,755C 1843.81,774.025 1825.81,789.025 1804.5,800C 1797.61,800.692 1795.77,797.859 1799,791.5C 1818.14,780.92 1834.8,767.254 1849,750.5C 1849.62,749.551 1849.45,748.718 1848.5,748C 1839.16,744.496 1833.16,737.996 1830.5,728.5C 1833.82,713.452 1842.48,703.119 1856.5,697.5 Z"/></g>
<g><path style="opacity:1" fill="#f8f8f8" d="M 1844.5,716.5 C 1855.46,717.136 1859.46,722.803 1856.5,733.5C 1851.06,731.03 1846.22,727.697 1842,723.5C 1841.33,722.167 1841.33,720.833 1842,719.5C 1843.04,718.627 1843.88,717.627 1844.5,716.5 Z"/></g>
<g><path style="opacity:1" fill="#373737" d="M 1228.5,737.5 C 1235.94,736.593 1242.61,738.427 1248.5,743C 1264.39,755.683 1267.89,771.183 1259,789.5C 1248.01,800.38 1235.18,803.214 1220.5,798C 1210.23,790.797 1206.4,780.963 1209,768.5C 1211.33,755.375 1217.83,745.042 1228.5,737.5 Z"/></g>
<g><path style="opacity:1" fill="#373737" d="M 1176.5,737.5 C 1177.5,737.5 1178.5,737.5 1179.5,737.5C 1178.86,745.255 1176.53,752.422 1172.5,759C 1148.73,772.966 1124.9,786.8 1101,800.5C 1099.74,800.241 1098.74,799.574 1098,798.5C 1096.13,791.989 1097.96,786.822 1103.5,783C 1127.9,767.808 1152.23,752.642 1176.5,737.5 Z"/></g>
<g><path style="opacity:1" fill="#363636" d="M 1429.5,737.5 C 1433.07,737.408 1434.24,739.074 1433,742.5C 1431.72,749.713 1428.55,755.88 1423.5,761C 1405,771.414 1386.67,782.081 1368.5,793C 1372.68,792.269 1376.84,792.436 1381,793.5C 1381.16,802.337 1377.33,808.837 1369.5,813C 1361.11,814.343 1352.78,816.009 1344.5,818C 1334.26,822.036 1324.1,826.202 1314,830.5C 1309.92,829.841 1308.58,827.508 1310,823.5C 1313.7,819.304 1317.86,815.637 1322.5,812.5C 1316.36,808.876 1311.86,803.876 1309,797.5C 1308.52,788.935 1310.52,780.935 1315,773.5C 1320.5,762.667 1328.67,754.5 1339.5,749C 1344.5,747 1349.5,747 1354.5,749C 1359.15,751.897 1360.65,756.063 1359,761.5C 1358.07,768.311 1355.24,774.144 1350.5,779C 1349.17,779.667 1347.83,779.667 1346.5,779C 1343.41,774.543 1339.24,772.043 1334,771.5C 1326.28,771.885 1322.95,775.885 1324,783.5C 1331.99,790.075 1341.15,793.742 1351.5,794.5C 1351.34,792.473 1351.5,790.473 1352,788.5C 1354.17,786.333 1356.33,784.167 1358.5,782C 1382.57,767.642 1406.23,752.809 1429.5,737.5 Z"/></g>
<g><path style="opacity:1" fill="#373737" d="M 2128.5,737.5 C 2129.5,737.5 2130.5,737.5 2131.5,737.5C 2130.86,745.255 2128.53,752.422 2124.5,759C 2100.73,772.966 2076.9,786.8 2053,800.5C 2051.74,800.241 2050.74,799.574 2050,798.5C 2048.13,791.989 2049.96,786.822 2055.5,783C 2079.9,767.808 2104.23,752.642 2128.5,737.5 Z"/></g>
<g><path style="opacity:1" fill="#fbfbfb" d="M 1225.5,757.5 C 1236.68,755.577 1245.84,758.911 1253,767.5C 1255.92,773.946 1253.75,777.446 1246.5,778C 1240.17,778.667 1233.83,778.667 1227.5,778C 1220.16,775.832 1217.66,770.999 1220,763.5C 1221.36,760.977 1223.19,758.977 1225.5,757.5 Z"/></g>
<g><path style="opacity:1" fill="#363636" d="M 967.5,829.5 C 969.09,829.628 970.423,830.295 971.5,831.5C 975.567,841.976 980.9,851.643 987.5,860.5C 985.299,865.538 982.466,870.204 979,874.5C 978.833,877 978.667,879.5 978.5,882C 983.064,923.474 987.397,964.974 991.5,1006.5C 991.686,1024.02 988.852,1041.02 983,1057.5C 978.701,1068.8 971.201,1077.3 960.5,1083C 933.62,1098.38 904.953,1103.71 874.5,1099C 845.396,1091.87 831.396,1073.2 832.5,1043C 833.253,1016.73 842.253,993.734 859.5,974C 863.182,974.468 864.349,976.635 863,980.5C 854.949,994.258 849.449,1008.92 846.5,1024.5C 849.284,1047.21 861.951,1060.71 884.5,1065C 900.921,1066.09 917.255,1065.42 933.5,1063C 951.075,1059.47 965.575,1050.97 977,1037.5C 976.822,1025.83 976.156,1014.16 975,1002.5C 968.037,952.502 962.537,902.335 958.5,852C 960.23,843.974 963.23,836.474 967.5,829.5 Z"/></g>
<g><path style="opacity:1" fill="#363636" d="M 1489.5,837.5 C 1491.72,837.178 1493.56,837.845 1495,839.5C 1497.23,850.207 1501.4,860.041 1507.5,869C 1504.85,874.663 1501.02,879.496 1496,883.5C 1496.6,924.849 1490.6,965.182 1478,1004.5C 1475.25,1011.84 1472.08,1019.01 1468.5,1026C 1473.89,1039.67 1476.89,1053.84 1477.5,1068.5C 1478.96,1077.6 1475.62,1084.1 1467.5,1088C 1444.22,1093.44 1420.89,1093.78 1397.5,1089C 1394.26,1085.11 1392.93,1080.61 1393.5,1075.5C 1392.88,1069.57 1394.88,1064.74 1399.5,1061C 1405.5,1061 1411.5,1061 1417.5,1061C 1431.94,1052.39 1443.94,1041.22 1453.5,1027.5C 1445.1,1009.61 1435.26,992.615 1424,976.5C 1407.69,952.231 1389.69,929.231 1370,907.5C 1368.2,910.927 1366.04,914.094 1363.5,917C 1362.17,917.667 1360.83,917.667 1359.5,917C 1349.99,907.452 1340.82,897.619 1332,887.5C 1330.16,884.963 1329.33,882.129 1329.5,879C 1330.88,867.762 1332.72,856.596 1335,845.5C 1336.47,843.675 1338.3,843.175 1340.5,844C 1351.55,852.597 1361.39,862.43 1370,873.5C 1394.95,903.412 1417.95,934.745 1439,967.5C 1447.78,982.055 1455.78,997.055 1463,1012.5C 1474.03,985.991 1479.7,958.324 1480,929.5C 1480.42,904.493 1480.42,879.493 1480,854.5C 1483.18,848.806 1486.35,843.139 1489.5,837.5 Z"/></g>
<g><path style="opacity:1" fill="#353535" d="M 1038.5,838.5 C 1041.64,839.077 1043.14,841.077 1043,844.5C 1049.57,902.319 1053.57,960.319 1055,1018.5C 1058.45,1040.62 1071.28,1050.79 1093.5,1049C 1105.99,1047.62 1117.32,1043.28 1127.5,1036C 1118.82,1028.77 1108.82,1024.43 1097.5,1023C 1095.68,1021.53 1095.18,1019.7 1096,1017.5C 1117.67,980.839 1146.5,974.006 1182.5,997C 1195.82,1005.87 1196.82,1015.87 1185.5,1027C 1180.5,1030.67 1175.5,1034.33 1170.5,1038C 1177.47,1044.65 1185.8,1048.32 1195.5,1049C 1223.88,1051.7 1249.38,1044.53 1272,1027.5C 1273.45,1021.36 1272.28,1015.86 1268.5,1011C 1267.06,1010.22 1265.72,1010.39 1264.5,1011.5C 1259.38,1024.99 1249.54,1030.99 1235,1029.5C 1223.27,1029.77 1216.27,1024.11 1214,1012.5C 1212.47,998.014 1215.14,984.348 1222,971.5C 1226.7,961.572 1233.2,953.072 1241.5,946C 1247.61,942.405 1253.28,943.072 1258.5,948C 1286.63,973.594 1294.47,1004.43 1282,1040.5C 1269.05,1062.43 1249.88,1075.26 1224.5,1079C 1204.09,1082.98 1185.76,1078.65 1169.5,1066C 1162.35,1059.68 1155.35,1053.18 1148.5,1046.5C 1138.52,1054.49 1128.19,1061.99 1117.5,1069C 1108.27,1074.78 1098.27,1078.62 1087.5,1080.5C 1076.29,1079.95 1065.96,1076.79 1056.5,1071C 1048.16,1064.16 1043.66,1055.33 1043,1044.5C 1040.32,1006.53 1037.99,968.528 1036,930.5C 1033.37,907.926 1030.2,885.426 1026.5,863C 1026.67,861.167 1026.83,859.333 1027,857.5C 1030.84,851.139 1034.68,844.806 1038.5,838.5 Z"/></g>
<g><path style="opacity:1" fill="#363636" d="M 2027.5,838.5 C 2030.39,838.22 2031.89,839.553 2032,842.5C 2038.62,902.328 2042.95,962.328 2045,1022.5C 2047.66,1036.49 2055.83,1045.33 2069.5,1049C 2081.1,1050.88 2092.1,1049.21 2102.5,1044C 2105,1042.18 2106.67,1039.85 2107.5,1037C 2104.43,1028.87 2101.1,1020.87 2097.5,1013C 2100.29,1004.24 2103.79,995.744 2108,987.5C 2109.94,986.14 2111.6,986.473 2113,988.5C 2118.2,998.897 2121.03,1009.9 2121.5,1021.5C 2121.6,1037.28 2117.77,1051.94 2110,1065.5C 2101.13,1075.93 2089.8,1080.59 2076,1079.5C 2061.88,1080.1 2049.88,1075.43 2040,1065.5C 2037.14,1061.11 2034.81,1056.45 2033,1051.5C 2031.67,1042.21 2030.67,1032.88 2030,1023.5C 2028.79,993.827 2027.46,964.16 2026,934.5C 2023.08,910.412 2019.58,886.412 2015.5,862.5C 2015.67,861.167 2015.83,859.833 2016,858.5C 2020.09,851.928 2023.92,845.261 2027.5,838.5 Z"/></g>
<g><path style="opacity:1" fill="#373737" d="M 1557.5,848.5 C 1560.17,849.457 1561.67,851.457 1562,854.5C 1565.15,893.88 1568.82,933.214 1573,972.5C 1576.6,1001.88 1576.27,1031.22 1572,1060.5C 1570.92,1065.24 1569.59,1069.9 1568,1074.5C 1567.22,1077.08 1565.72,1079.08 1563.5,1080.5C 1562.75,1079.62 1562.25,1078.62 1562,1077.5C 1561.57,1052.42 1559.91,1027.42 1557,1002.5C 1552.14,963.698 1547.64,924.865 1543.5,886C 1545.48,872.534 1550.15,860.034 1557.5,848.5 Z"/></g>
<g><path style="opacity:1" fill="#363636" d="M 1231.5,872.5 C 1238.3,874.235 1244.64,877.068 1250.5,881C 1253.73,882.723 1256.06,885.223 1257.5,888.5C 1253.6,895.958 1249.44,903.292 1245,910.5C 1243.96,912.585 1242.46,914.252 1240.5,915.5C 1231.8,909.82 1223.13,904.153 1214.5,898.5C 1220.19,889.816 1225.86,881.149 1231.5,872.5 Z"/></g>
<g><path style="opacity:1" fill="#353535" d="M 1961.5,953.5 C 1962.55,953.351 1963.55,953.517 1964.5,954C 1972.14,962.779 1976.97,972.945 1979,984.5C 1982.75,1003.97 1980.41,1022.63 1972,1040.5C 1969.83,1042.67 1967.67,1044.83 1965.5,1047C 1924.26,1068.88 1880.26,1080.54 1833.5,1082C 1810.55,1083.86 1787.88,1082.19 1765.5,1077C 1743.51,1071.78 1727.34,1059.28 1717,1039.5C 1711.8,1020.55 1715.13,1003.22 1727,987.5C 1731.03,982.468 1735.37,977.802 1740,973.5C 1742.98,974.443 1743.98,976.443 1743,979.5C 1726.53,998.351 1728.03,1015.85 1747.5,1032C 1763.47,1042.75 1781.14,1048.41 1800.5,1049C 1848.52,1052.39 1895.19,1046.06 1940.5,1030C 1949.56,1026.63 1958.23,1022.47 1966.5,1017.5C 1967.33,1013.43 1966.83,1009.43 1965,1005.5C 1961.66,998.151 1957.33,991.484 1952,985.5C 1952.46,974.074 1955.62,963.407 1961.5,953.5 Z"/></g>
<g><path style="opacity:1" fill="#f7f7f7" d="M 1236.5,979.5 C 1244.43,980.606 1249.26,984.94 1251,992.5C 1249.35,993.717 1247.52,994.55 1245.5,995C 1240.17,995.667 1234.83,995.667 1229.5,995C 1228.14,988.219 1230.47,983.053 1236.5,979.5 Z"/></g>
<g><path style="opacity:1" fill="#f4f4f4" d="M 1458.5,1041.5 C 1461.55,1047.36 1463.22,1053.69 1463.5,1060.5C 1456.18,1061.5 1448.85,1062 1441.5,1062C 1447.76,1055.58 1453.42,1048.75 1458.5,1041.5 Z"/></g>
<g><path style="opacity:1" fill="#184266" d="M 1444.5,1999.5 C 1267.17,1999.5 1089.83,1999.5 912.5,1999.5C 920.662,1990.51 929.328,1982.01 938.5,1974C 967.483,1952.84 996.816,1932.17 1026.5,1912C 1052.99,1893.18 1074.16,1869.68 1090,1841.5C 1109.04,1801.08 1113.37,1759.08 1103,1715.5C 1088.9,1664.3 1065.57,1617.96 1033,1576.5C 1003.39,1539.22 969.554,1506.39 931.5,1478C 896.039,1453.27 857.373,1434.94 815.5,1423C 801.5,1419.67 787.5,1416.33 773.5,1413C 710.158,1403.67 646.825,1394.33 583.5,1385C 540.465,1377.77 499.798,1363.77 461.5,1343C 437.916,1328.04 415.583,1311.37 394.5,1293C 350.08,1258.51 299.747,1237.84 243.5,1231C 210.006,1226.13 176.339,1224.3 142.5,1225.5C 193.435,1178.85 252.769,1147.02 320.5,1130C 441.705,1103.62 558.038,1117.62 669.5,1172C 734.702,1204.69 787.869,1251.19 829,1311.5C 843.84,1336.51 858.173,1361.84 872,1387.5C 900.397,1440.56 940.897,1481.73 993.5,1511C 1020.54,1525.02 1048.21,1537.69 1076.5,1549C 1117.99,1563.94 1159.32,1579.27 1200.5,1595C 1248.83,1613.65 1292.5,1639.65 1331.5,1673C 1424.76,1762.27 1462.43,1871.1 1444.5,1999.5 Z"/></g>
<g><path style="opacity:1" fill="#363636" d="M 2100.5,1116.5 C 2111.22,1119.02 2120.22,1124.36 2127.5,1132.5C 2121.67,1141.5 2115.83,1150.5 2110,1159.5C 2101.05,1153.94 2092.21,1148.28 2083.5,1142.5C 2089.19,1133.82 2094.86,1125.15 2100.5,1116.5 Z"/></g>
<g><path style="opacity:1" fill="#363636" d="M 1850.5,1125.5 C 1861.13,1127.65 1870.13,1132.65 1877.5,1140.5C 1872.15,1149.87 1866.32,1158.87 1860,1167.5C 1851.02,1162.01 1842.19,1156.35 1833.5,1150.5C 1838.93,1141.96 1844.6,1133.63 1850.5,1125.5 Z"/></g>
<g><path style="opacity:1" fill="#363636" d="M 939.5,1183.5 C 940.5,1183.5 941.5,1183.5 942.5,1183.5C 942.144,1190.08 940.644,1196.41 938,1202.5C 936.833,1203.67 935.667,1204.83 934.5,1206C 910.99,1219.52 887.49,1233.02 864,1246.5C 863.228,1246.36 862.561,1246.02 862,1245.5C 860.241,1238.99 861.741,1233.49 866.5,1229C 891.006,1213.97 915.339,1198.8 939.5,1183.5 Z"/></g>
<g><path style="opacity:1" fill="#fcb14f" d="M 142.5,1225.5 C 176.339,1224.3 210.006,1226.13 243.5,1231C 299.747,1237.84 350.08,1258.51 394.5,1293C 415.583,1311.37 437.916,1328.04 461.5,1343C 499.798,1363.77 540.465,1377.77 583.5,1385C 646.825,1394.33 710.158,1403.67 773.5,1413C 787.5,1416.33 801.5,1419.67 815.5,1423C 857.373,1434.94 896.039,1453.27 931.5,1478C 969.554,1506.39 1003.39,1539.22 1033,1576.5C 1065.57,1617.96 1088.9,1664.3 1103,1715.5C 1113.37,1759.08 1109.04,1801.08 1090,1841.5C 1074.16,1869.68 1052.99,1893.18 1026.5,1912C 996.816,1932.17 967.483,1952.84 938.5,1974C 929.328,1982.01 920.662,1990.51 912.5,1999.5C 901.833,1999.5 891.167,1999.5 880.5,1999.5C 892.524,1982.31 906.857,1967.14 923.5,1954C 950.8,1933.35 978.8,1913.68 1007.5,1895C 1030.85,1877.99 1050.35,1857.49 1066,1833.5C 1081.81,1802.18 1086.81,1769.18 1081,1734.5C 1074.53,1700.43 1062.53,1668.43 1045,1638.5C 1005.59,1573.09 953.428,1520.26 888.5,1480C 855.739,1462.08 821.072,1449.08 784.5,1441C 771.216,1438.12 757.882,1435.45 744.5,1433C 692.519,1425.54 640.519,1418.2 588.5,1411C 540.304,1403.6 494.637,1388.6 451.5,1366C 423.427,1348.26 396.76,1328.6 371.5,1307C 337.855,1282.02 300.188,1266.02 258.5,1259C 210.405,1250.47 162.071,1248.31 113.5,1252.5C 74.6151,1256.06 36.6151,1263.72 -0.5,1275.5C -0.5,1266.83 -0.5,1258.17 -0.5,1249.5C 46.0146,1234.89 93.6813,1226.89 142.5,1225.5 Z"/></g>
<g><path style="opacity:1" fill="#184265" d="M 880.5,1999.5 C 817.5,1999.5 754.5,1999.5 691.5,1999.5C 715.29,1963.21 745.29,1933.04 781.5,1909C 825.848,1872.3 842.681,1825.47 832,1768.5C 823.165,1726.99 802.665,1692.49 770.5,1665C 733.859,1635.84 692.859,1614.84 647.5,1602C 604.369,1590.44 560.702,1581.44 516.5,1575C 471.226,1567.28 427.559,1554.28 385.5,1536C 350.958,1518.8 321.791,1494.96 298,1464.5C 257.262,1419.55 206.428,1395.05 145.5,1391C 94.7242,1388.28 46.3909,1397.78 0.5,1419.5C 28.4913,1357.15 66.158,1301.49 113.5,1252.5C 162.071,1248.31 210.405,1250.47 258.5,1259C 300.188,1266.02 337.855,1282.02 371.5,1307C 396.76,1328.6 423.427,1348.26 451.5,1366C 494.637,1388.6 540.304,1403.6 588.5,1411C 640.519,1418.2 692.519,1425.54 744.5,1433C 757.882,1435.45 771.216,1438.12 784.5,1441C 821.072,1449.08 855.739,1462.08 888.5,1480C 953.428,1520.26 1005.59,1573.09 1045,1638.5C 1062.53,1668.43 1074.53,1700.43 1081,1734.5C 1086.81,1769.18 1081.81,1802.18 1066,1833.5C 1050.35,1857.49 1030.85,1877.99 1007.5,1895C 978.8,1913.68 950.8,1933.35 923.5,1954C 906.857,1967.14 892.524,1982.31 880.5,1999.5 Z"/></g>
<g><path style="opacity:1" fill="#fefefe" d="M 113.5,1252.5 C 66.158,1301.49 28.4913,1357.15 0.5,1419.5C 0.166667,1419.5 -0.166667,1419.5 -0.5,1419.5C -0.5,1371.5 -0.5,1323.5 -0.5,1275.5C 36.6151,1263.72 74.6151,1256.06 113.5,1252.5 Z"/></g>
<g><path style="opacity:1" fill="#fcb14f" d="M 691.5,1999.5 C 681.5,1999.5 671.5,1999.5 661.5,1999.5C 678.533,1970.94 699.2,1945.11 723.5,1922C 736.548,1911.28 749.881,1900.95 763.5,1891C 798.291,1863.67 813.458,1827.83 809,1783.5C 804.907,1752.85 792.907,1725.85 773,1702.5C 740.521,1667.83 701.355,1643.66 655.5,1630C 635.3,1624.2 614.967,1618.87 594.5,1614C 552.698,1606.64 511.032,1598.64 469.5,1590C 425.522,1580.68 384.188,1564.68 345.5,1542C 319.949,1525.28 297.782,1504.78 279,1480.5C 244.882,1442.44 202.215,1421.11 151,1416.5C 108.386,1413.07 67.2191,1419.24 27.5,1435C 18.027,1438.9 8.69368,1443.07 -0.5,1447.5C -0.5,1438.17 -0.5,1428.83 -0.5,1419.5C -0.166667,1419.5 0.166667,1419.5 0.5,1419.5C 46.3909,1397.78 94.7242,1388.28 145.5,1391C 206.428,1395.05 257.262,1419.55 298,1464.5C 321.791,1494.96 350.958,1518.8 385.5,1536C 427.559,1554.28 471.226,1567.28 516.5,1575C 560.702,1581.44 604.369,1590.44 647.5,1602C 692.859,1614.84 733.859,1635.84 770.5,1665C 802.665,1692.49 823.165,1726.99 832,1768.5C 842.681,1825.47 825.848,1872.3 781.5,1909C 745.29,1933.04 715.29,1963.21 691.5,1999.5 Z"/></g>
<g><path style="opacity:1" fill="#184265" d="M 661.5,1999.5 C 599.833,1999.5 538.167,1999.5 476.5,1999.5C 502.245,1977.27 523.745,1951.6 541,1922.5C 553.948,1899.83 561.115,1875.49 562.5,1849.5C 560.904,1818.79 546.57,1796.29 519.5,1782C 500.465,1773.24 480.465,1768.24 459.5,1767C 427.833,1766.67 396.167,1766.33 364.5,1766C 330.967,1765.15 299.3,1757.15 269.5,1742C 263.892,1738.72 258.558,1735.06 253.5,1731C 235.526,1713.36 217.859,1695.36 200.5,1677C 159.547,1644.8 112.88,1630.47 60.5,1634C 39.6731,1635.8 19.3398,1639.97 -0.5,1646.5C -0.5,1580.17 -0.5,1513.83 -0.5,1447.5C 8.69368,1443.07 18.027,1438.9 27.5,1435C 67.2191,1419.24 108.386,1413.07 151,1416.5C 202.215,1421.11 244.882,1442.44 279,1480.5C 297.782,1504.78 319.949,1525.28 345.5,1542C 384.188,1564.68 425.522,1580.68 469.5,1590C 511.032,1598.64 552.698,1606.64 594.5,1614C 614.967,1618.87 635.3,1624.2 655.5,1630C 701.355,1643.66 740.521,1667.83 773,1702.5C 792.907,1725.85 804.907,1752.85 809,1783.5C 813.458,1827.83 798.291,1863.67 763.5,1891C 749.881,1900.95 736.548,1911.28 723.5,1922C 699.2,1945.11 678.533,1970.94 661.5,1999.5 Z"/></g>
<g><path style="opacity:1" fill="#fcb14f" d="M 476.5,1999.5 C 462.5,1999.5 448.5,1999.5 434.5,1999.5C 465.806,1978.36 491.973,1952.03 513,1920.5C 525.454,1901.59 533.454,1880.92 537,1858.5C 538.927,1828.86 525.76,1809.36 497.5,1800C 487.338,1796.83 477.004,1794.5 466.5,1793C 428.175,1791.96 389.841,1790.96 351.5,1790C 309.989,1787.72 272.322,1774.72 238.5,1751C 220.83,1734.33 203.83,1717 187.5,1699C 160.019,1675.27 128.019,1661.94 91.5,1659C 74.7636,1658.01 58.097,1658.68 41.5,1661C 27.3035,1664.22 13.3035,1668.05 -0.5,1672.5C -0.5,1663.83 -0.5,1655.17 -0.5,1646.5C 19.3398,1639.97 39.6731,1635.8 60.5,1634C 112.88,1630.47 159.547,1644.8 200.5,1677C 217.859,1695.36 235.526,1713.36 253.5,1731C 258.558,1735.06 263.892,1738.72 269.5,1742C 299.3,1757.15 330.967,1765.15 364.5,1766C 396.167,1766.33 427.833,1766.67 459.5,1767C 480.465,1768.24 500.465,1773.24 519.5,1782C 546.57,1796.29 560.904,1818.79 562.5,1849.5C 561.115,1875.49 553.948,1899.83 541,1922.5C 523.745,1951.6 502.245,1977.27 476.5,1999.5 Z"/></g>
<g><path style="opacity:1" fill="#184265" d="M 434.5,1999.5 C 289.5,1999.5 144.5,1999.5 -0.5,1999.5C -0.5,1890.5 -0.5,1781.5 -0.5,1672.5C 13.3035,1668.05 27.3035,1664.22 41.5,1661C 58.097,1658.68 74.7636,1658.01 91.5,1659C 128.019,1661.94 160.019,1675.27 187.5,1699C 203.83,1717 220.83,1734.33 238.5,1751C 272.322,1774.72 309.989,1787.72 351.5,1790C 389.841,1790.96 428.175,1791.96 466.5,1793C 477.004,1794.5 487.338,1796.83 497.5,1800C 525.76,1809.36 538.927,1828.86 537,1858.5C 533.454,1880.92 525.454,1901.59 513,1920.5C 491.973,1952.03 465.806,1978.36 434.5,1999.5 Z"/></g>
</svg>
