<?xml version="1.0" encoding="utf-8"?>
<!-- Generator: Adobe Illustrator 27.5.0, SVG Export Plug-In . SVG Version: 6.00 Build 0)  -->
<svg version="1.1" xmlns="http://www.w3.org/2000/svg" xmlns:xlink="http://www.w3.org/1999/xlink" x="0px" y="0px"
	 viewBox="0 0 500 500" style="enable-background:new 0 0 500 500;" xml:space="preserve">
<g id="BACKGROUND">
	<g>
		<rect x="-0.383" y="0.128" style="fill:#ACDAF4;" width="500" height="500"/>
		<path style="fill:#BDE1F6;" d="M174.773,0.128h149.688c96.736,0,175.156,78.42,175.156,175.156v324.844h-500V175.284
			C-0.383,78.548,78.037,0.128,174.773,0.128z"/>
		<path style="opacity:0.5;fill:#B8E0F6;" d="M475.677,412.288c0,2.115-13.031,3.83-29.106,3.83c-16.075,0-29.106-1.715-29.106-3.83
			c0-2.115,13.031-3.83,29.106-3.83C462.646,408.458,475.677,410.172,475.677,412.288z"/>
		<g>
			
				<line style="fill:none;stroke:#7FBBDE;stroke-width:1.1339;stroke-miterlimit:10;" x1="15.234" y1="385.479" x2="484" y2="385.479"/>
			
				<line style="fill:none;stroke:#7FBBDE;stroke-width:1.1339;stroke-miterlimit:10;" x1="15.234" y1="373.99" x2="484" y2="373.99"/>
		</g>
		<g>
			<rect x="34.607" y="42.813" style="fill:#ACDAF4;" width="105.87" height="338.89"/>
			<g>
				
					<rect x="32.191" y="229.409" transform="matrix(6.123234e-17 -1 1 6.123234e-17 -172.6904 298.9141)" style="fill:#F1C754;" width="61.841" height="12.786"/>
				
					<rect x="60.958" y="253.868" transform="matrix(6.123234e-17 -1 1 6.123234e-17 -197.1495 323.3731)" style="fill:#DEA94D;" width="4.308" height="12.786"/>
				
					<rect x="60.958" y="247.122" transform="matrix(6.123234e-17 -1 1 6.123234e-17 -190.4037 316.6273)" style="fill:#DEA94D;" width="4.307" height="12.786"/>
				
					<rect x="60.958" y="204.482" transform="matrix(6.123234e-17 -1 1 6.123234e-17 -147.7632 273.9868)" style="fill:#DEA94D;" width="4.308" height="12.786"/>
				
					<rect x="60.958" y="211.663" transform="matrix(6.123234e-17 -1 1 6.123234e-17 -154.9442 281.1678)" style="fill:#DEA94D;" width="4.307" height="12.786"/>
			</g>
			<g>
				
					<rect x="15.32" y="225.324" transform="matrix(6.123234e-17 -1 1 6.123234e-17 -176.8242 282.0424)" style="fill:#495AAB;" width="74.579" height="8.219"/>
				
					<rect x="50.012" y="254.821" transform="matrix(6.123234e-17 -1 1 6.123234e-17 -206.3214 311.5395)" style="fill:#6073C9;" width="5.195" height="8.219"/>
				
					<rect x="50.012" y="195.262" transform="matrix(6.123234e-17 -1 1 6.123234e-17 -146.7625 251.9805)" style="fill:#6073C9;" width="5.195" height="8.219"/>
				
					<rect x="51.365" y="239.307" transform="matrix(6.123234e-17 -1 1 6.123234e-17 -190.8069 296.0252)" style="fill:#6073C9;" width="2.489" height="8.219"/>
				
					<rect x="51.365" y="210.776" transform="matrix(6.123234e-17 -1 1 6.123234e-17 -162.2762 267.4945)" style="fill:#6073C9;" width="2.489" height="8.219"/>
			</g>
			<g>
				
					<rect x="1.658" y="219.881" transform="matrix(6.123234e-17 -1 1 6.123234e-17 -181.0306 268.3802)" style="fill:#8DA664;" width="84.035" height="9.649"/>
				
					<rect x="40.748" y="253.118" transform="matrix(6.123234e-17 -1 1 6.123234e-17 -214.2675 301.6172)" style="fill:#5F823C;" width="5.853" height="9.649"/>
				
					<rect x="40.748" y="186.008" transform="matrix(6.123234e-17 -1 1 6.123234e-17 -147.1574 234.507)" style="fill:#5F823C;" width="5.853" height="9.649"/>
				<path style="fill:none;stroke:#5F823C;stroke-width:1.1339;stroke-miterlimit:10;" d="M46.532,204.384v41.151
					c0,3.338-1.35,4.148-3.015,4.148l0,0c-1.665,0-3.016-0.81-3.016-4.148v-41.151c0-3.338,1.35-4.148,3.016-4.148l0,0
					C45.181,200.237,46.532,201.046,46.532,204.384z"/>
			</g>
			<g>
				
					<rect x="46.473" y="236.87" transform="matrix(6.123234e-17 -1 1 6.123234e-17 -167.5992 313.1957)" style="fill:#DD5325;" width="52.651" height="7.055"/>
				
					<rect x="70.965" y="257.694" transform="matrix(6.123234e-17 -1 1 6.123234e-17 -188.4233 334.0199)" style="fill:#AB3A15;" width="3.667" height="7.055"/>
				
					<rect x="70.965" y="215.647" transform="matrix(6.123234e-17 -1 1 6.123234e-17 -146.3764 291.973)" style="fill:#AB3A15;" width="3.667" height="7.055"/>
				<path style="fill:none;stroke:#AB3A15;stroke-width:1.1339;stroke-miterlimit:10;" d="M70.71,227.666v25.783
					c0,2.092,0.987,2.599,2.205,2.599l0,0c1.217,0,2.205-0.507,2.205-2.599v-25.783c0-2.092-0.987-2.599-2.205-2.599l0,0
					C71.697,225.067,70.71,225.574,70.71,227.666z"/>
			</g>
			<g>
				
					<rect x="71.298" y="241.68" transform="matrix(-0.1505 -0.9886 0.9886 -0.1505 -134.5892 373.5812)" style="fill:#8DA664;" width="43.829" height="5.873"/>
				
					<rect x="94.295" y="258.817" transform="matrix(-0.1505 -0.9886 0.9886 -0.1505 -148.5286 395.8795)" style="fill:#5F823C;" width="3.053" height="5.873"/>
				
					<rect x="89.027" y="224.214" transform="matrix(-0.1505 -0.9886 0.9886 -0.1505 -120.3797 350.8616)" style="fill:#5F823C;" width="3.053" height="5.873"/>
				<path style="fill:none;stroke:#5F823C;stroke-width:1.1339;stroke-miterlimit:10;" d="M89.898,234.4l3.23,21.218
					c0.262,1.721,1.138,2.015,2.14,1.862l0,0c1.002-0.152,1.751-0.694,1.489-2.415l-3.23-21.218
					c-0.262-1.721-1.138-2.015-2.14-1.863l0,0C90.385,232.137,89.636,232.679,89.898,234.4z"/>
			</g>
			<g>
				
					<rect x="51.497" y="229.472" transform="matrix(-0.1505 -0.9886 0.9886 -0.1505 -134.4262 352.1691)" style="fill:#42474B;" width="65.194" height="8.735"/>
				
					<rect x="85.704" y="254.964" transform="matrix(-0.1505 -0.9886 0.9886 -0.1505 -155.1637 385.3312)" style="fill:#2C3136;" width="4.541" height="8.735"/>
				
					<rect x="77.868" y="203.493" transform="matrix(-0.1505 -0.9886 0.9886 -0.1505 -113.2912 318.373)" style="fill:#2C3136;" width="4.541" height="8.735"/>
				<path style="fill:none;stroke:#2C3136;stroke-width:1.1339;stroke-miterlimit:10;" d="M79.165,218.644l4.805,31.561
					c0.39,2.56,1.693,2.997,3.183,2.77l0,0c1.49-0.227,2.604-1.032,2.214-3.592l-4.805-31.561c-0.39-2.56-1.693-2.997-3.183-2.77
					l0,0C79.889,215.279,78.775,216.083,79.165,218.644z"/>
			</g>
			<g>
				
					<rect x="19.95" y="112.341" transform="matrix(0.3294 -0.9442 0.9442 0.3294 -73.0555 131.4944)" style="fill:#8DA664;" width="72.186" height="9.672"/>
				
					<rect x="44.124" y="139.299" transform="matrix(0.3294 -0.9442 0.9442 0.3294 -104.8151 140.6913)" style="fill:#5F823C;" width="5.028" height="9.672"/>
				
					<rect x="63.114" y="84.868" transform="matrix(0.3294 -0.9442 0.9442 0.3294 -40.6879 122.1206)" style="fill:#5F823C;" width="5.028" height="9.672"/>
				<path style="fill:#5F823C;" d="M64.497,101.639l-11.644,33.376c-0.945,2.708-2.451,2.918-4.028,2.368l0,0
					c-1.576-0.55-2.625-1.652-1.68-4.36l11.644-33.376c0.945-2.708,2.451-2.918,4.028-2.368l0,0
					C64.393,97.829,65.441,98.932,64.497,101.639z"/>
			</g>
			<g>
				
					<rect x="32.832" y="111.651" transform="matrix(0.2245 -0.9745 0.9745 0.2245 -59.1962 158.9506)" style="fill:#42474B;" width="74.873" height="10.032"/>
				
					<rect x="61.013" y="140.509" transform="matrix(0.2245 -0.9745 0.9745 0.2245 -92.4726 174.8524)" style="fill:#2C3136;" width="5.215" height="10.032"/>
				
					<rect x="74.437" y="82.241" transform="matrix(0.2245 -0.9745 0.9745 0.2245 -25.283 142.7447)" style="fill:#2C3136;" width="5.215" height="10.032"/>
			</g>
			<g>
				
					<rect x="54.935" y="114.398" transform="matrix(6.123234e-17 -1 1 6.123234e-17 -32.463 209.0389)" style="fill:#F1C754;" width="66.707" height="12.706"/>
				
					<rect x="84.985" y="137.843" transform="matrix(6.123234e-17 -1 1 6.123234e-17 -55.9079 232.4838)" style="fill:#DEA94D;" width="6.606" height="12.706"/>
				
					<rect x="84.985" y="90.235" transform="matrix(6.123234e-17 -1 1 6.123234e-17 -8.3 184.8759)" style="fill:#DEA94D;" width="6.606" height="12.706"/>
				
					<rect x="86.18" y="129.233" transform="matrix(6.123234e-17 -1 1 6.123234e-17 -47.2985 223.8743)" style="fill:#DEA94D;" width="4.216" height="12.706"/>
				
					<rect x="86.18" y="98.844" transform="matrix(6.123234e-17 -1 1 6.123234e-17 -16.9095 193.4854)" style="fill:#DEA94D;" width="4.216" height="12.706"/>
			</g>
			<g>
				
					<rect x="59.531" y="108.13" transform="matrix(6.123234e-17 -1 1 6.123234e-17 -13.489 213.6356)" style="fill:#DD5325;" width="81.084" height="10.864"/>
				
					<rect x="97.249" y="140.2" transform="matrix(6.123234e-17 -1 1 6.123234e-17 -45.5588 245.7054)" style="fill:#AB3A15;" width="5.648" height="10.864"/>
				
					<rect x="97.249" y="75.446" transform="matrix(6.123234e-17 -1 1 6.123234e-17 19.1949 180.9518)" style="fill:#AB3A15;" width="5.648" height="10.864"/>
				<path style="fill:#AB3A15;" d="M103.29,93.955v39.706c0,3.221-1.52,4.002-3.395,4.002l0,0c-1.875,0-3.395-0.781-3.395-4.002
					V93.955c0-3.221,1.52-4.002,3.395-4.002l0,0C101.77,89.953,103.29,90.734,103.29,93.955z"/>
			</g>
			<g>
				
					<rect x="92.328" y="113.399" transform="matrix(6.123234e-17 -1 1 6.123234e-17 10.4458 246.4326)" style="fill:#495AAB;" width="72.222" height="9.189"/>
				
					<rect x="125.924" y="141.964" transform="matrix(6.123234e-17 -1 1 6.123234e-17 -18.1189 274.9973)" style="fill:#6073C9;" width="5.031" height="9.189"/>
				
					<rect x="125.924" y="84.287" transform="matrix(6.123234e-17 -1 1 6.123234e-17 39.5573 217.3211)" style="fill:#6073C9;" width="5.031" height="9.189"/>
			</g>
			<g>
				
					<rect x="87.602" y="117.861" transform="matrix(6.123234e-17 -1 1 6.123234e-17 -2.1978 241.7059)" style="fill:#FFFFFF;" width="64.305" height="8.182"/>
				
					<rect x="117.515" y="143.295" transform="matrix(6.123234e-17 -1 1 6.123234e-17 -27.6313 267.1394)" style="fill:#DAE4FE;" width="4.479" height="8.182"/>
				
					<rect x="117.514" y="91.941" transform="matrix(6.123234e-17 -1 1 6.123234e-17 23.7225 215.7856)" style="fill:#DAE4FE;" width="4.479" height="8.182"/>
				
					<rect x="118.026" y="137.43" transform="matrix(6.123234e-17 -1 1 6.123234e-17 -21.7669 261.275)" style="fill:#DAE4FE;" width="3.456" height="8.182"/>
				
					<rect x="118.026" y="97.805" transform="matrix(6.123234e-17 -1 1 6.123234e-17 17.8584 221.6497)" style="fill:#DAE4FE;" width="3.456" height="8.182"/>
			</g>
			<g>
				
					<rect x="70.666" y="109.107" transform="matrix(6.123234e-17 -1 1 6.123234e-17 -3.6012 224.77)" style="fill:#8DA664;" width="79.837" height="10.158"/>
				
					<rect x="107.804" y="140.684" transform="matrix(6.123234e-17 -1 1 6.123234e-17 -35.1781 256.3469)" style="fill:#5F823C;" width="5.561" height="10.158"/>
				
					<rect x="107.804" y="76.925" transform="matrix(6.123234e-17 -1 1 6.123234e-17 28.5802 192.5887)" style="fill:#5F823C;" width="5.561" height="10.158"/>
				<path style="fill:#5F823C;" d="M108.346,94.88v39.096c0,3.172,1.077,3.941,2.406,3.941l0,0c1.329,0,2.406-0.769,2.406-3.941
					V94.88c0-3.171-1.077-3.941-2.406-3.941l0,0C109.423,90.939,108.346,91.708,108.346,94.88z"/>
			</g>
			<g>
				
					<rect x="59.902" y="338.515" transform="matrix(6.123234e-17 -1 1 6.123234e-17 -252.3421 438.8534)" style="fill:#F1C754;" width="66.707" height="14.166"/>
				
					<rect x="89.953" y="361.96" transform="matrix(6.123234e-17 -1 1 6.123234e-17 -275.787 462.2983)" style="fill:#DEA94D;" width="6.606" height="14.166"/>
				
					<rect x="89.953" y="314.352" transform="matrix(6.123234e-17 -1 1 6.123234e-17 -228.1792 414.6905)" style="fill:#DEA94D;" width="6.605" height="14.166"/>
				
					<rect x="91.147" y="353.35" transform="matrix(6.123234e-17 -1 1 6.123234e-17 -267.1776 453.6888)" style="fill:#DEA94D;" width="4.216" height="14.166"/>
				
					<rect x="91.147" y="322.961" transform="matrix(6.123234e-17 -1 1 6.123234e-17 -236.7887 423.3)" style="fill:#DEA94D;" width="4.216" height="14.166"/>
			</g>
			<g>
				
					<rect x="78.132" y="342.682" transform="matrix(6.123234e-17 -1 1 6.123234e-17 -242.4477 457.0829)" style="fill:#42474B;" width="58.371" height="14.166"/>
				
					<rect x="104.428" y="363.198" transform="matrix(6.123234e-17 -1 1 6.123234e-17 -262.963 477.5982)" style="fill:#2C3136;" width="5.78" height="14.166"/>
				
					<rect x="104.428" y="321.539" transform="matrix(6.123234e-17 -1 1 6.123234e-17 -221.304 435.9392)" style="fill:#2C3136;" width="5.78" height="14.166"/>
				
					<rect x="105.473" y="355.664" transform="matrix(6.123234e-17 -1 1 6.123234e-17 -255.4294 470.0646)" style="fill:#2C3136;" width="3.69" height="14.166"/>
				
					<rect x="105.473" y="329.072" transform="matrix(6.123234e-17 -1 1 6.123234e-17 -228.8378 443.473)" style="fill:#2C3136;" width="3.69" height="14.166"/>
			</g>
			<g>
				
					<rect x="39.574" y="332.353" transform="matrix(6.123234e-17 -1 1 6.123234e-17 -258.2929 418.5253)" style="fill:#DD5325;" width="81.084" height="12.113"/>
				
					<rect x="77.292" y="364.423" transform="matrix(6.123234e-17 -1 1 6.123234e-17 -290.3628 450.5952)" style="fill:#AB3A15;" width="5.648" height="12.113"/>
				
					<rect x="77.292" y="299.669" transform="matrix(6.123234e-17 -1 1 6.123234e-17 -225.6091 385.8415)" style="fill:#AB3A15;" width="5.648" height="12.113"/>
				
					<rect x="78.886" y="358.525" transform="matrix(6.123234e-17 -1 1 6.123234e-17 -284.4647 444.6973)" style="fill:#AB3A15;" width="2.461" height="12.113"/>
				
					<rect x="78.886" y="305.566" transform="matrix(6.123234e-17 -1 1 6.123234e-17 -231.5065 391.7391)" style="fill:#AB3A15;" width="2.461" height="12.113"/>
				<path style="fill:#AB3A15;" d="M76.53,318.802v39.706c0,3.221,1.695,4.002,3.785,4.002l0,0c2.09,0,3.785-0.781,3.785-4.002
					v-39.706c0-3.221-1.695-4.002-3.785-4.002l0,0C78.225,314.799,76.53,315.581,76.53,318.802z"/>
			</g>
			<g>
				
					<rect x="32.827" y="337.718" transform="matrix(6.123234e-17 -1 1 6.123234e-17 -273.9026 411.7779)" style="fill:#495AAB;" width="72.222" height="10.245"/>
				
					<rect x="66.422" y="366.283" transform="matrix(6.123234e-17 -1 1 6.123234e-17 -302.4673 440.3426)" style="fill:#6073C9;" width="5.031" height="10.245"/>
				
					<rect x="66.422" y="308.606" transform="matrix(6.123234e-17 -1 1 6.123234e-17 -244.7911 382.6663)" style="fill:#6073C9;" width="5.031" height="10.245"/>
				<rect x="66.133" y="320.777" style="fill:#6073C9;" width="5.609" height="9.189"/>
			</g>
			<g>
				
					<rect x="27.102" y="342.238" transform="matrix(6.123234e-17 -1 1 6.123234e-17 -287.5442 406.0532)" style="fill:#8DA664;" width="64.305" height="9.122"/>
				
					<rect x="57.015" y="367.671" transform="matrix(6.123234e-17 -1 1 6.123234e-17 -312.9777 431.4867)" style="fill:#A4B883;" width="4.479" height="9.122"/>
				
					<rect x="57.015" y="316.318" transform="matrix(6.123234e-17 -1 1 6.123234e-17 -261.6238 380.1328)" style="fill:#A4B883;" width="4.479" height="9.122"/>
				
					<rect x="57.526" y="361.807" transform="matrix(6.123234e-17 -1 1 6.123234e-17 -307.1133 425.6223)" style="fill:#A4B883;" width="3.456" height="9.122"/>
				
					<rect x="57.526" y="322.182" transform="matrix(6.123234e-17 -1 1 6.123234e-17 -267.4879 385.997)" style="fill:#A4B883;" width="3.456" height="9.122"/>
			</g>
			<g>
				
					<rect x="9.113" y="333.37" transform="matrix(6.123234e-17 -1 1 6.123234e-17 -290.0011 388.0637)" style="fill:#DD5325;" width="79.837" height="11.325"/>
				
					<rect x="46.251" y="364.947" transform="matrix(6.123234e-17 -1 1 6.123234e-17 -321.5779 419.6406)" style="fill:#E37550;" width="5.561" height="11.325"/>
				
					<rect x="46.251" y="301.189" transform="matrix(6.123234e-17 -1 1 6.123234e-17 -257.8198 355.8824)" style="fill:#E37550;" width="5.561" height="11.325"/>
				<path style="fill:#E37550;" d="M46.535,319.726v39.096c0,3.171,1.201,3.94,2.682,3.94l0,0c1.481,0,2.682-0.769,2.682-3.94
					v-39.096c0-3.171-1.201-3.941-2.682-3.941l0,0C47.736,315.786,46.535,316.555,46.535,319.726z"/>
			</g>
			<rect x="34.402" y="266.622" style="fill:#D5ECF9;" width="105.363" height="5.892"/>
			<rect x="34.402" y="153.527" style="fill:#D5ECF9;" width="105.363" height="6.101"/>
			<rect x="34.402" y="379.41" style="fill:#D5ECF9;" width="105.363" height="24.918"/>
			<rect x="34.402" y="41.31" style="fill:#D5ECF9;" width="105.363" height="5.892"/>
			<rect x="30.972" y="41.31" style="fill:#D5ECF9;" width="7.584" height="363.018"/>
			<rect x="136.842" y="41.31" style="fill:#D5ECF9;" width="6.635" height="363.018"/>
		</g>
		<g>
			<path style="fill:none;stroke:#7FBBDE;stroke-width:1.1339;stroke-miterlimit:10;" d="M452.67,157.682v-8.535h-6.115
				c23.311-53.665-34.753-78.494-67.046-114.618c-32.293,36.125-90.357,60.954-67.046,114.618h-6.115v8.535h-10.974v171.927h168.269
				V157.682H452.67z"/>
			<path style="fill:#FFFFFF;" d="M304.927,320.058V167.233h10.974v-8.535h11.125l-5.802-13.357
				c-13.899-31.997,4.921-50.357,36.78-77.664c7.242-6.208,14.666-12.571,21.505-19.325c6.839,6.755,14.262,13.118,21.505,19.325
				c31.859,27.307,50.679,45.667,36.78,77.664l-5.802,13.357h11.126v8.535h10.974v152.824H304.927z"/>
		</g>
		<g>
			<rect x="171.103" y="76.415" style="fill:#D5ECF9;" width="98.809" height="130.979"/>
			
				<rect x="161.018" y="98.501" transform="matrix(-1.836970e-16 1 -1 -1.836970e-16 362.4119 -78.6023)" style="fill:#7FBBDE;" width="118.979" height="86.809"/>
			
				<rect x="193.443" y="93.139" transform="matrix(0.9992 0.0388 -0.0388 0.9992 4.1435 -7.9963)" style="fill:#F6DD99;" width="29.617" height="19.404"/>
			
				<rect x="217.954" y="119.181" transform="matrix(1 -0.004 0.004 1 -0.5155 0.9355)" style="fill:#EEFAFB;" width="29.617" height="19.404"/>
			
				<rect x="205.082" y="143.181" transform="matrix(0.9996 -0.0278 0.0278 0.9996 -4.1713 6.1815)" style="fill:#FFDFD7;" width="29.617" height="19.404"/>
			
				<rect x="224.592" y="171.692" transform="matrix(0.9998 -0.0203 0.0203 0.9998 -3.6286 4.8913)" style="fill:#EEFAFB;" width="29.617" height="19.404"/>
			
				<rect x="227.656" y="93.139" transform="matrix(1 -0.004 0.004 1 -0.4126 0.9783)" style="fill:#FFDFD7;" width="29.617" height="19.404"/>
			<path style="fill:#DD5325;" d="M209.784,96.234c0,0.793-0.643,1.436-1.436,1.436s-1.436-0.643-1.436-1.436
				c0-0.793,0.643-1.436,1.436-1.436S209.784,95.441,209.784,96.234z"/>
			<path style="fill:#EDB4C6;" d="M243.773,96.713c0,0.793-0.643,1.436-1.436,1.436s-1.436-0.643-1.436-1.436
				c0-0.793,0.643-1.436,1.436-1.436S243.773,95.92,243.773,96.713z"/>
			<path style="fill:#F1C754;" d="M233.624,122.373c0,0.793-0.643,1.436-1.436,1.436c-0.793,0-1.436-0.643-1.436-1.436
				c0-0.793,0.643-1.436,1.436-1.436C232.981,120.937,233.624,121.58,233.624,122.373z"/>
			<path style="fill:#8DA664;" d="M220.624,145.734c0,0.793-0.643,1.436-1.436,1.436c-0.793,0-1.436-0.643-1.436-1.436
				c0-0.793,0.643-1.436,1.436-1.436C219.981,144.298,220.624,144.941,220.624,145.734z"/>
			<path style="fill:#F1C754;" d="M241.858,174.82c0,0.793-0.643,1.436-1.436,1.436s-1.436-0.643-1.436-1.436
				c0-0.793,0.643-1.436,1.436-1.436S241.858,174.026,241.858,174.82z"/>
		</g>
		<g>
			<path style="fill:#8DA664;" d="M426.969,346.078c-25.223-47.293-1.051-71.99,10.51-37.834
				c2.627-40.987,26.799-41.513,25.748-16.815c13.662-27.85,41.513-2.627-1.051,55.175
				C455.87,350.281,426.969,346.078,426.969,346.078z"/>
			<path style="fill:none;stroke:#5F823C;stroke-width:1.1339;stroke-miterlimit:10;" d="M415.934,308.243
				c0,0,21.545,15.239,23.121,39.936"/>
			<path style="fill:none;stroke:#5F823C;stroke-width:1.1339;stroke-miterlimit:10;" d="M437.478,308.243
				c0,0,8.933,19.968,8.408,38.36"/>
			<path style="fill:none;stroke:#5F823C;stroke-width:1.1339;stroke-miterlimit:10;" d="M463.227,291.428
				c0,0-11.561,46.242-12.086,55.175"/>
			<path style="fill:none;stroke:#5F823C;stroke-width:1.1339;stroke-miterlimit:10;" d="M450.09,276.189
				c0,0,3.678,26.274-6.831,48.869"/>
			<path style="fill:none;stroke:#5F823C;stroke-width:1.1339;stroke-miterlimit:10;" d="M477.94,279.868
				c0,2.102-21.019,66.736-21.019,66.736"/>
			<path style="fill:none;stroke:#5F823C;stroke-width:1.1339;stroke-miterlimit:10;" d="M426.443,318.228
				c0,0,5.78-10.976,5.78-20.435"/>
			
				<line style="fill:none;stroke:#5F823C;stroke-width:1.1339;stroke-miterlimit:10;" x1="440.631" y1="288.801" x2="450.09" y2="300.887"/>
			
				<line style="fill:none;stroke:#5F823C;stroke-width:1.1339;stroke-miterlimit:10;" x1="447.988" y1="311.396" x2="460.599" y2="304.565"/>
			
				<line style="fill:none;stroke:#5F823C;stroke-width:1.1339;stroke-miterlimit:10;" x1="457.446" y1="315.075" x2="463.227" y2="325.584"/>
			
				<line style="fill:none;stroke:#5F823C;stroke-width:1.1339;stroke-miterlimit:10;" x1="469.007" y1="309.294" x2="483.72" y2="299.836"/>
			<path style="fill:#FFFFFF;" d="M445.098,397.574L445.098,397.574c-11.095,0-20.26-8.662-20.886-19.74l-1.972-34.91h45.716
				l-1.972,34.91C465.358,388.912,456.193,397.574,445.098,397.574z"/>
			<polygon style="fill:#FFFFFF;" points="431.172,383.912 427.494,412.288 433.8,412.288 442.207,388.116 			"/>
			<polygon style="fill:#FFFFFF;" points="460.599,383.912 464.277,412.288 457.972,412.288 449.564,388.116 			"/>
			
				<line style="fill:none;stroke:#DAE4FE;stroke-width:1.1339;stroke-miterlimit:10;" x1="422.765" y1="350.807" x2="468.07" y2="350.807"/>
		</g>
	</g>
</g>
<g id="OBJECTS">
	<g>
		<path style="opacity:0.5;fill:#B8E0F6;" d="M112.43,429.09c-7.319,0.855-20.999,2.382-11.478,11.802
			c11.585,11.462,32.973,20.565,49.121,15.181c6.505-2.169,11.965-6.721,18.338-9.251c11.64-4.62,24.222-1.906,36.171-0.328
			c7.35,0.97,28.42,5.737,27.199-7.198c-1.244-13.182-18.459-10.932-27.72-10.933c-18.889-0.003-37.467-2.928-56.337-2.911
			C137.673,425.461,126.654,427.18,112.43,429.09z"/>
		<path style="opacity:0.5;fill:#B8E0F6;" d="M297.983,428.273c34.685,0,50.422-3.43,84.392-5.11
			c8.282-0.41,16.416-0.491,23.447,4.528c7.588,5.417,10.532,14.133,0.052,17.884c-10.764,3.853-26.862,0.888-38.193,0.89
			c-12.634,0.002-24.175,4.203-36.478,6.189c-13.554,2.188-55.27,5.988-61.45-11.83
			C267.734,435.007,288.329,429.106,297.983,428.273z"/>
		<g>
			<path style="fill:#495AAB;" d="M100.614,305.564c-0.255-1.787,34.723-106.979,34.723-106.979l5.617,0.255l-33.192,105.191
				L100.614,305.564z"/>
			<g>
				<polygon style="fill:#B55934;" points="168.884,372.418 196.76,373.58 195.631,409.028 172.236,425.584 				"/>
				<path style="fill:#42474B;" d="M221.64,433.77c0.007,1.449,0.845,3.559,0.242,4.82c-2.478,5.183-33.859,5.63-52.439-8.52
					c-3.104-2.364-0.734-7.237-1.043-7.473C176.886,425.897,211.653,444.409,221.64,433.77z"/>
				<path style="fill:#4D5155;" d="M195.495,409.177c3.629,9.678,25.232,15.554,26.145,24.593
					c-1.929,7.975-43.659,3.63-53.649-9.604c-0.808-7.303,2.088-13.205,3.136-14.643
					C174.022,412.603,186.289,414.772,195.495,409.177z"/>
				<path style="fill:none;stroke:#42474B;stroke-width:1.1339;stroke-miterlimit:10;" d="M189.464,436.032
					c0,0,1.021-14.553,18.383-15.064"/>
				<path style="fill:none;stroke:#42474B;stroke-width:1.1339;stroke-miterlimit:10;" d="M183.848,413.309
					c0,0,5.872,9.957,11.745,7.66c5.872-2.298-3.574-9.957-3.574-9.957"/>
			</g>
			<path style="fill:#42474B;" d="M199.131,439.078c10.643,0.804,21.387-0.67,22.51-5.309c-0.009-1.814-2.044-7.834-7.674-9.767
				C203.04,424.997,199.816,431.086,199.131,439.078z"/>
			<g>
				<polygon style="fill:#B55934;" points="114.556,377.774 142.291,380.812 138.983,421.101 115.467,432.4 				"/>
				<path style="fill:#42474B;" d="M156.582,442.583c-0.091,1.446,0.542,3.61-0.521,4.518c-5.13,4.385-25.688,5.637-43.273-9.732
					c-2.938-2.568-1.632-7.164-1.924-7.42C119.108,433.813,145.9,452.526,156.582,442.583z"/>
				<path style="fill:#4D5155;" d="M139.03,418.774c2.683,5.187,17.379,11.354,17.552,23.809
					c-2.462,7.827-36.179,1.993-45.255-11.884c-2.679-8.101,2.665-14.628,3.807-15.992
					C117.815,417.976,133.107,421.619,139.03,418.774z"/>
				<path style="fill:none;stroke:#42474B;stroke-width:1.1339;stroke-miterlimit:10;" d="M124.869,440.883
					c0,0,5.872-15.319,25.277-12"/>
				<path style="fill:none;stroke:#42474B;stroke-width:1.1339;stroke-miterlimit:10;" d="M127.933,419.181
					c0,0,3.319,8.936,9.191,7.915c5.872-1.021-1.021-7.404-1.021-7.404"/>
			</g>
			<path style="fill:#DEA94D;" d="M197.944,404.176c0,0,3.63-37.044,3.103-56.97c-0.432-16.312-10.537-71.531-12.557-76.841
				c-9.349,3.064-30.455-1.157-39.804,1.906c1.535,16.765,13.72,77.217,13.72,77.217s4.898,52.719,5.125,55.209
				C173.458,405.712,192.304,406.027,197.944,404.176z"/>
			<path style="fill:#DEA94D;" d="M120.441,269.821c-1.52,8.615-5.321,94.908-10.607,137.483c5.05,2.818,28.628,4.57,34.062,1.043
				l14.658-79.087l5.018-0.844l-1.858-59.429L120.441,269.821z"/>
			<path style="fill:none;stroke:#DE904D;stroke-width:1.1339;stroke-miterlimit:10;" d="M144.591,402.785
				c-3.45,0.655-9.327,1.107-14.251,1.043c-5.745-0.075-15.857-3.061-19.638-3.997"/>
			<path style="fill:none;stroke:#DE904D;stroke-width:1.1339;stroke-miterlimit:10;" d="M198.118,399.831
				c-8.735,3.172-27.364,2.086-30.76,1.216"/>
			<path style="fill:#42474B;" d="M129.298,444.32c9.8,7.114,25.579,4.809,27.285-1.738c0.113-1.81,0-9.558-9.211-9.211
				C136.403,433.628,130.52,436.393,129.298,444.32z"/>
			<path style="fill:none;stroke:#373C40;stroke-width:1.1339;stroke-miterlimit:10;" d="M129.298,443.104
				c0,0,14.772,7.125,27.285-0.521"/>
			<path style="fill:none;stroke:#373C40;stroke-width:1.1339;stroke-miterlimit:10;" d="M199.16,437.195
				c0,0,13.028,2.922,22.94-2.433"/>
			<ellipse style="fill:#8DA664;" cx="122.859" cy="202.778" rx="19.404" ry="23.043"/>
			<path style="fill:#EDB4C6;" d="M205.417,344.393c-0.647-9.605-18.401-141.637-25.337-162.755
				c-2.684-1.93-41.779-3.027-48.948,1.752c-1.239,7.369-10.646,18.001-10.06,31.493c0.49,11.294-10.39,122.413-10.543,125.861
				c2.025,1.15,4.123,2.189,6.279,3.128c1.862,0.811,6.622-17.821,6.622-17.821s1.779,20.914,3.146,21.306
				C157.66,356.283,195.637,348.725,205.417,344.393z"/>
			<path style="fill:#F0C3D1;" d="M165.944,348.505c-16.34,0-31.453-2.774-41.45-5.17l1.321-5.514
				c17.21,4.124,51.567,8.502,78.458-2.215l0.766,6.213C192.557,346.794,178.801,348.505,165.944,348.505z"/>
			<path style="fill:none;stroke:#F4D2DD;stroke-width:1.1339;stroke-miterlimit:10;" d="M124.314,333.923
				c18.185,4.442,51.768,9.872,79.539-1.196"/>
			<g>
				<path style="fill:none;stroke:#F0C3D1;stroke-width:1.1339;stroke-miterlimit:10;" d="M111.05,336.572
					c0,0,3.047,1.083,8.235,2.502"/>
				<path style="fill:none;stroke:#F0C3D1;stroke-width:1.1339;stroke-miterlimit:10;" d="M111.05,330.12
					c0,0,3.868,1.375,10.31,3.057"/>
			</g>
			<g>
				<path style="fill:none;stroke:#1A2E36;stroke-width:1.1339;stroke-miterlimit:10;" d="M137.382,339.047"/>
				<path style="fill:#6073C9;" d="M100.358,297.905l11.234-3.574l36.766,6.128l-4.596,61.277c0,0-3.064,2.553-9.191,3.574
					c-6.128,1.021-38.809,3.064-38.809-17.362C95.762,327.522,100.358,297.905,100.358,297.905z"/>
				<path style="fill:none;stroke:#495AAB;stroke-width:1.1339;stroke-miterlimit:10;" d="M148.358,300.458
					c0,0-9.958,1.021-12.511,7.149c-2.553,6.128,0,30.894-21.957,28.085c-21.957-2.809-13.532-37.787-13.532-37.787"/>
				<polygon style="fill:#6073C9;stroke:#495AAB;stroke-width:1.1339;stroke-miterlimit:10;" points="106.741,329.054 
					105.209,338.5 101.89,337.224 102.911,327.522 				"/>
				<polygon style="fill:#6073C9;stroke:#495AAB;stroke-width:1.1339;stroke-miterlimit:10;" points="123.001,331.881 
					123.956,341.404 120.42,341.026 118.905,331.388 				"/>
				<polyline style="fill:#6073C9;stroke:#495AAB;stroke-width:1.1339;stroke-miterlimit:10;" points="132.528,362.245 
					136.613,306.33 147.337,304.288 				"/>
				
					<line style="fill:#6073C9;stroke:#495AAB;stroke-width:1.1339;stroke-miterlimit:10;" x1="104.954" y1="299.692" x2="129.209" y2="304.288"/>
				<path style="fill:#6073C9;" d="M139.933,311.692c-0.255-1.787,34.723-106.979,34.723-106.979l5.617,0.255L147.082,310.16
					L139.933,311.692z"/>
				
					<line style="fill:none;stroke:#495AAB;stroke-width:1.1339;stroke-miterlimit:10;" x1="143.762" y1="299.692" x2="139.933" y2="310.671"/>
				<polygon style="fill:none;stroke:#495AAB;stroke-width:1.1339;stroke-miterlimit:10;" points="139.933,311.192 147.082,310.16 
					146.06,323.437 139.167,324.458 				"/>
			</g>
			<path style="fill:#EDB4C6;" d="M189.197,186.034c14.598,4.692,19.986,45.32,19.986,45.32l30.239,50.051
				c0,0-17.02,27.224-49.008-9.037C165.828,244.498,167.256,178.981,189.197,186.034z"/>
			<path style="fill:none;stroke:#1A2E36;stroke-width:1.1339;stroke-miterlimit:10;" d="M134.622,266.486"/>
			<path style="fill:#8DA664;" d="M110.747,192.277c0,0,10.469-13.583,16.697-18.254c-17.842-29.66,10.087-73.254,47.557-61.636
				c17.066,4.702,33.905,25.47,13.505,48.209c-11.439,13.355-11.439,13.355-11.439,13.355s6.457,0.969,4.511,7.586
				c8.953,1.168,11.677,7.006,11.677,7.006s-8.72,38.942-25.151,40.595C153.72,230.585,129.805,189.224,110.747,192.277z"/>
			<path style="fill:none;stroke:#5F823C;stroke-width:1.1339;stroke-miterlimit:10;" d="M142.264,193.803
				c0,0,20.375,17.706,30.362,7.357"/>
			<path style="fill:#B55934;" d="M192.01,151.015c-4.401,20.836-11.636,26.253-26.732,26.603c-15.096,0.35-30.197-7.979-30.615-26
				c-0.418-18.021,14.16-32.249,29.256-32.599C179.016,118.67,195.727,133.422,192.01,151.015z"/>
			<path style="fill:#373C40;" d="M192.808,147.962c0,0-21.399-18.681-51.302-7.454c3.994-31.429,45.611-16.463,45.611-16.463
				S195.141,132.524,192.808,147.962z"/>
			<path style="fill:none;stroke:#21262B;stroke-width:1.1339;stroke-miterlimit:10;" d="M193.041,142.786
				c0,0-24.381-16.035-47.933-7.635"/>
			
				<path style="fill:none;stroke:#5E2813;stroke-width:1.1339;stroke-linecap:round;stroke-linejoin:round;stroke-miterlimit:10;" d="
				M174.145,158.628c7.467-1.768,3.702,7.277-1.253,3.719"/>
			<path style="fill:#272532;" d="M161.838,152.48c-0.341,1.386,0.038,2.672,0.847,2.87c0.809,0.199,1.741-0.764,2.082-2.15
				c0.341-1.386-0.038-2.672-0.847-2.871C163.111,150.131,162.179,151.094,161.838,152.48z"/>
			<path style="fill:#272532;" d="M179.821,156.667c-0.341,1.386,0.038,2.671,0.847,2.87c0.809,0.199,1.741-0.764,2.082-2.15
				c0.341-1.386-0.038-2.672-0.847-2.87C181.094,154.318,180.162,155.281,179.821,156.667z"/>
			<path style="fill:none;stroke:#762F0E;stroke-width:1.1339;stroke-miterlimit:10;" d="M181.653,149.285
				c0,0,2.149,0.854,2.382,2.782"/>
			<path style="fill:none;stroke:#762F0E;stroke-width:1.1339;stroke-miterlimit:10;" d="M162.928,145.2
				c0,0,2.096-0.978,3.658,0.175"/>
			<path style="fill:#8DA664;" d="M164.44,179.552c0,0-24.215-5.112-14.627-39.762c8.253-16.879,33.747-14.162,44.057-8.61
				c-9.668-20.579-42.496-23.694-51.344-12.94c-8.848,10.754-15.376,32.313-7.843,50.008
				C142.215,185.942,164.44,179.552,164.44,179.552z"/>
			<path style="fill:none;stroke:#5F823C;stroke-width:1.1339;stroke-miterlimit:10;" d="M181.577,181.537
				c0,0-4.54,5.842-9.794,7.302"/>
			<path style="fill:none;stroke:#5F823C;stroke-width:1.1339;stroke-miterlimit:10;" d="M140.02,123.161
				c0,0-20.393,21.43-1.096,47.055"/>
			<path style="fill:none;stroke:#5F823C;stroke-width:1.1339;stroke-miterlimit:10;" d="M130.417,173.752
				c0,0,8.377,12.167,20.93,12.167"/>
			<path style="fill:none;stroke:#5F823C;stroke-width:1.1339;stroke-miterlimit:10;" d="M197.192,133.99
				c0,0-3.491-4.253-11.744-6.14"/>
			<path style="fill:none;stroke:#5F823C;stroke-width:1.1339;stroke-miterlimit:10;" d="M143.476,130.074
				c0,0,5.185-11.406,26.269-12.443"/>
			<path style="fill:#EDB4C6;" d="M142.274,223.572"/>
			<path style="fill:none;stroke:#A4B883;stroke-width:1.1339;stroke-miterlimit:10;" d="M113.867,188.64
				c9.908-3.456,23.503,9.447,29.495,16.13c5.991,6.682,33.181,38.097,47.928-18.818"/>
			
				<path style="fill:none;stroke:#5E2813;stroke-width:1.1339;stroke-linecap:round;stroke-linejoin:round;stroke-miterlimit:10;" d="
				M163.754,164.522c0,0,1.613,4.263,7.95,1.498"/>
			<g>
				<g>
					<path style="fill:#DD5325;" d="M247.414,266.317l-48.518,18.432l-51.343-4.984l-0.291-2.541
						c0.127-0.133,2.149-2.407,1.577-5.622c-0.508-2.856-2.54-4.116-2.793-4.255c-0.077-0.581-0.295-1.146-0.372-1.727
						l46.017-14.263c2.697-1.114,5.582-1.526,8.44-1.205l45.508,1.521c2.572,0.289,5.454,2.375,6.113,5.191
						C253.102,262.632,249.809,265.418,247.414,266.317z"/>
					<path style="fill:#FFFFFF;" d="M244.413,255.36l-46.284,15.896l-52.082-3.91c0,0,4.514,4.16,1.216,9.877
						c38.104,3.639,51.62,5.558,51.62,5.558l47.252-17.654C253.464,262.267,250.12,252.895,244.413,255.36z"/>
					<polyline style="fill:none;stroke:#DAE4FE;stroke-width:1.1339;stroke-miterlimit:10;" points="247.132,257.294 
						199.99,273.655 147.645,269.777 					"/>
					<polyline style="fill:none;stroke:#DAE4FE;stroke-width:1.1339;stroke-miterlimit:10;" points="247.919,259.43 
						200.942,276.296 148.725,272.534 					"/>
					<polyline style="fill:none;stroke:#DAE4FE;stroke-width:1.1339;stroke-miterlimit:10;" points="247.489,262.239 
						200.471,279.897 148.451,274.536 					"/>
					<path style="fill:none;stroke:#DAE4FE;stroke-width:1.1339;stroke-miterlimit:10;" d="M198.128,271.256
						c3.692,2.046,2.878,9.364,0.754,11.525"/>
					<polyline style="fill:none;stroke:#AB3A15;stroke-width:1.1339;stroke-miterlimit:10;" points="243.192,252.653 
						197.649,268.689 145.674,265.619 					"/>
				</g>
				<g>
					<path style="fill:#8DA664;" d="M154.21,261.872l45.804,4.993l44.04-16.152l-0.205-2.291c-0.135-0.088-2.317-1.613-2.398-4.559
						c-0.072-2.616,1.478-4.186,1.675-4.366c-0.038-0.526,0.051-1.07,0.014-1.597l-42.861-1.919
						c-2.562-0.356-5.163-0.054-7.606,0.884l-39.559,11.781c-2.199,0.844-4.344,3.332-4.411,5.948
						C148.564,259.952,151.951,261.635,154.21,261.872z"/>
					<path style="fill:#FFFFFF;" d="M154.854,251.592l43.39,3.286l44.881-15.381c0,0-3.198,4.678,0.723,8.925
						c-32.695,11.935-44.178,16.718-44.178,16.718l-44.556-4.603C148.181,259.717,149.412,250.744,154.854,251.592z"/>
					<polyline style="fill:none;stroke:#DAE4FE;stroke-width:1.1339;stroke-miterlimit:10;" points="152.823,253.909 
						197.049,257.406 242.165,241.993 					"/>
					<polyline style="fill:none;stroke:#DAE4FE;stroke-width:1.1339;stroke-miterlimit:10;" points="152.521,255.96 
						196.694,259.936 241.719,244.654 					"/>
					<polyline style="fill:none;stroke:#DAE4FE;stroke-width:1.1339;stroke-miterlimit:10;" points="153.405,258.32 197.757,262.98 
						242.322,246.343 					"/>
					<path style="fill:none;stroke:#DAE4FE;stroke-width:1.1339;stroke-miterlimit:10;" d="M198.244,254.879
						c-2.861,2.638-0.824,8.857,1.426,10.262"/>
					<polyline style="fill:none;stroke:#5F823C;stroke-width:1.1339;stroke-miterlimit:10;" points="155.432,248.943 
						198.199,252.522 243.139,237.9 					"/>
				</g>
				<g>
					<path style="fill:#42474B;" d="M162.321,244.664l36.281,5.636l44.04-16.152l-0.205-2.291c-0.135-0.088-2.317-1.613-2.398-4.559
						c-0.072-2.616,1.478-4.186,1.675-4.366c-0.038-0.526,0.051-1.07,0.014-1.597l-33.338-2.562
						c-2.562-0.356-5.162-0.054-7.606,0.884l-39.559,11.781c-2.199,0.844-4.344,3.331-4.411,5.947
						C156.675,242.745,160.062,244.428,162.321,244.664z"/>
					<path style="fill:#FFFFFF;" d="M162.965,234.384l33.867,3.93l44.881-15.381c0,0-3.198,4.678,0.723,8.925
						c-32.695,11.935-44.178,16.718-44.178,16.718l-35.033-5.246C156.292,242.509,157.524,233.537,162.965,234.384z"/>
					<polyline style="fill:none;stroke:#DAE4FE;stroke-width:1.1339;stroke-miterlimit:10;" points="160.935,236.702 
						195.638,240.841 240.754,225.428 					"/>
					<polyline style="fill:none;stroke:#DAE4FE;stroke-width:1.1339;stroke-miterlimit:10;" points="160.632,238.752 
						195.282,243.372 240.307,228.089 					"/>
					<polyline style="fill:none;stroke:#DAE4FE;stroke-width:1.1339;stroke-miterlimit:10;" points="161.517,241.112 
						196.346,246.416 240.91,229.778 					"/>
					<path style="fill:none;stroke:#DAE4FE;stroke-width:1.1339;stroke-miterlimit:10;" d="M196.833,238.314
						c-2.861,2.638-0.825,8.857,1.425,10.261"/>
					<polyline style="fill:none;stroke:#21262B;stroke-width:1.1339;stroke-miterlimit:10;" points="163.544,231.735 
						196.111,235.719 241.727,221.336 					"/>
				</g>
				<g>
					<path style="fill:#F1C754;" d="M235.079,221.583l-33.093,12.179l-42.435-3.404l-0.281-1.86c0.09-0.096,1.528-1.731,1.022-4.087
						c-0.45-2.093-1.986-3.04-2.176-3.144c-0.072-0.425-0.248-0.84-0.32-1.266l31.35-9.167c1.967-0.779,4.091-1.043,6.214-0.771
						l38.029,0.799c1.911,0.244,4.097,1.805,4.657,3.871C239.193,218.964,236.828,220.957,235.079,221.583z"/>
					<path style="fill:#FFFFFF;" d="M232.576,213.54l-31.506,10.356l-42.954-2.629c0,0,3.447,3.097,1.154,7.231
						c28.288,3.148,42.655,3.826,42.655,3.826l32.176-11.628C239.452,218.702,236.735,211.813,232.576,213.54z"/>
					<polyline style="fill:none;stroke:#DAE4FE;stroke-width:1.1339;stroke-miterlimit:10;" points="234.983,216.4 202.854,227.085 
						159.706,224.476 					"/>
					<polyline style="fill:none;stroke:#DAE4FE;stroke-width:1.1339;stroke-miterlimit:10;" points="235.03,218.605 
						203.027,230.238 160.081,226.551 					"/>
					<path style="fill:none;stroke:#DAE4FE;stroke-width:1.1339;stroke-miterlimit:10;" d="M201.07,223.896
						c2.785,1.542,2.371,6.877,0.855,8.429"/>
					<polyline style="fill:none;stroke:#DE904D;stroke-width:1.1339;stroke-miterlimit:10;" points="229.554,211.016 
						200.316,220.64 160.974,219.093 					"/>
				</g>
				<g>
					<path style="fill:#6073C9;" d="M149.126,216.949l40.722,4.439l39.153-14.36l-0.183-2.037c-0.12-0.078-2.06-1.434-2.132-4.053
						c-0.064-2.326,1.314-3.722,1.489-3.882c-0.033-0.468,0.046-0.952,0.012-1.42l-38.105-1.706
						c-2.278-0.317-4.59-0.048-6.762,0.785l-35.17,10.474c-1.955,0.75-3.862,2.962-3.922,5.287
						C144.107,215.242,147.118,216.739,149.126,216.949z"/>
					<path style="fill:#FFFFFF;" d="M149.699,207.81l38.576,2.922l39.901-13.675c0,0-2.843,4.159,0.643,7.935
						c-29.067,10.611-39.277,14.863-39.277,14.863l-39.612-4.093C143.766,215.033,144.861,207.056,149.699,207.81z"/>
					<polyline style="fill:none;stroke:#DAE4FE;stroke-width:1.1339;stroke-miterlimit:10;" points="147.894,209.87 
						187.212,212.979 227.323,199.275 					"/>
					<polyline style="fill:none;stroke:#DAE4FE;stroke-width:1.1339;stroke-miterlimit:10;" points="147.625,211.693 
						186.896,215.228 226.926,201.641 					"/>
					<polyline style="fill:none;stroke:#DAE4FE;stroke-width:1.1339;stroke-miterlimit:10;" points="148.411,213.791 
						187.842,217.935 227.462,203.143 					"/>
					<path style="fill:none;stroke:#DAE4FE;stroke-width:1.1339;stroke-miterlimit:10;" d="M188.275,210.732
						c-2.544,2.345-0.733,7.874,1.267,9.123"/>
					<polyline style="fill:none;stroke:#495AAB;stroke-width:1.1339;stroke-miterlimit:10;" points="150.213,205.454 
						188.235,208.636 228.188,195.637 					"/>
				</g>
				<g>
					<path style="fill:#42474B;" d="M230.844,197.664l-30.536,11.536l-41.269-6.003l-0.24-2.031
						c0.101-0.101,1.721-1.827,1.253-4.405c-0.415-2.289-2.051-3.372-2.255-3.492c-0.063-0.465-0.24-0.922-0.304-1.387l28.537-8.323
						c2.164-0.778,4.482-0.991,6.779-0.622l36.572,3.019c2.068,0.332,4.388,2.105,4.925,4.368
						C235.405,194.962,232.765,197.045,230.844,197.664z"/>
					<path style="fill:#FFFFFF;" d="M228.404,188.837l-28.748,9.609l-41.86-5.179c0,0,3.638,3.486,1.002,7.897
						c30.628,4.408,41.493,6.47,41.493,6.47l29.521-10.968C235.695,194.686,232.983,187.105,228.404,188.837z"/>
					<polyline style="fill:none;stroke:#DAE4FE;stroke-width:1.1339;stroke-miterlimit:10;" points="230.594,190.482 
						201.158,200.427 159.087,195.263 					"/>
					<polyline style="fill:none;stroke:#DAE4FE;stroke-width:1.1339;stroke-miterlimit:10;" points="231.232,192.211 
						201.929,202.564 159.961,197.497 					"/>
					<polyline style="fill:none;stroke:#DAE4FE;stroke-width:1.1339;stroke-miterlimit:10;" points="230.894,194.426 
						201.56,205.407 159.746,199.077 					"/>
					<path style="fill:none;stroke:#DAE4FE;stroke-width:1.1339;stroke-miterlimit:10;" d="M199.656,198.447
						c2.972,1.772,2.336,7.556,0.635,9.189"/>
					<polyline style="fill:none;stroke:#21262B;stroke-width:1.1339;stroke-miterlimit:10;" points="227.416,186.638 
						199.81,196.057 157.492,191.881 					"/>
				</g>
			</g>
			<g>
				<path style="fill:#B55934;" d="M166.976,263.078c15.922,7.075,20.753,13.437,17.336,18.26c5.427,6.71-1.031,8.186-5.786,5.671
					c-0.149,3.689-4.403,3.794-7.601,2.031c0.017,4.211-6.536,2.268-7.605,0.978c0.758,5.509-7.426,4.659-15.086-8.05
					C140.575,269.259,152.387,256.595,166.976,263.078z"/>
				
					<line style="fill:none;stroke:#5E2813;stroke-width:1.1339;stroke-linecap:round;stroke-linejoin:round;stroke-miterlimit:10;" x1="184.313" y1="281.338" x2="180.018" y2="276.543"/>
				
					<line style="fill:none;stroke:#5E2813;stroke-width:1.1339;stroke-linecap:round;stroke-linejoin:round;stroke-miterlimit:10;" x1="178.527" y1="287.009" x2="176.535" y2="285.018"/>
				
					<line style="fill:none;stroke:#5E2813;stroke-width:1.1339;stroke-linecap:round;stroke-linejoin:round;stroke-miterlimit:10;" x1="170.926" y1="289.04" x2="169.334" y2="287.269"/>
				
					<line style="fill:none;stroke:#5E2813;stroke-width:1.1339;stroke-linecap:round;stroke-linejoin:round;stroke-miterlimit:10;" x1="163.321" y1="290.018" x2="162.068" y2="288.535"/>
			</g>
			<path style="fill:#EDB4C6;" d="M168.632,262.708l-24.118,26.013c0,0-47.353-10.369-49.426-31.453
				c-2.303-23.414,10.672-59.221,15.66-64.992c14.659-2.718,34.462,24.777,34.462,24.777l-8.039,26.716L168.632,262.708z"/>
			<polyline style="fill:none;stroke:#C28296;stroke-width:1.1339;stroke-miterlimit:10;" points="149.805,251.607 137.255,244.48 
				143.476,223.742 			"/>
			<g>
				<path style="fill:#B55934;" d="M214.475,282.653c-7.11-12.604,1.932-10.821,5.411-5.024c-5.024-12.367,3.478-13.14,7.343-4.251
					c-3.865-13.527,6.57-12.754,9.275-2.319c-1.546-17.005,7.15-8.985,8.502,0.676C246.621,283.269,222.977,297.725,214.475,282.653
					z"/>
				
					<line style="fill:none;stroke:#5E2813;stroke-width:1.1339;stroke-linecap:round;stroke-linejoin:round;stroke-miterlimit:10;" x1="219.016" y1="275.6" x2="220.659" y2="280.237"/>
				
					<line style="fill:none;stroke:#5E2813;stroke-width:1.1339;stroke-linecap:round;stroke-linejoin:round;stroke-miterlimit:10;" x1="226.552" y1="271.155" x2="228.968" y2="277.532"/>
				
					<line style="fill:none;stroke:#5E2813;stroke-width:1.1339;stroke-linecap:round;stroke-linejoin:round;stroke-miterlimit:10;" x1="236.118" y1="269.416" x2="237.374" y2="274.634"/>
			</g>
			
				<line style="fill:none;stroke:#F4D2DD;stroke-width:1.1339;stroke-miterlimit:10;" x1="138.292" y1="286.993" x2="162.717" y2="259.227"/>
			<polygon style="fill:#F0C3D1;" points="134.23,285.224 127.337,282.841 155.247,254.279 160.188,257.479 			"/>
			<polyline style="fill:none;stroke:#C28296;stroke-width:1.1339;stroke-miterlimit:10;" points="146.818,286.417 144.085,289.07 
				115.825,278.352 			"/>
			<path style="fill:none;stroke:#5F823C;stroke-width:1.1339;stroke-miterlimit:10;" d="M121.161,179.735
				c8.732,0,15.281,9.217,15.281,9.217"/>
		</g>
		<g>
			<polygon style="fill:#DEA94D;" points="384.696,292.12 400.34,292.12 402.333,360.833 376.265,359.79 			"/>
			<path style="fill:#42474B;" d="M390.516,198.689c36.148,39.276,30.934,63.606,19.812,71.253s-39.971-32.324-39.971-32.324
				L390.516,198.689z"/>
			<g>
				<g>
					<polygon style="fill:#C47A5D;" points="348.712,372.723 376.588,373.885 375.458,409.333 352.064,425.889 					"/>
					<path style="fill:#FFFFFF;" d="M401.468,434.075c0.007,1.449,0.845,3.559,0.242,4.82c-2.478,5.183-33.859,5.63-52.439-8.52
						c-3.104-2.364-0.734-7.237-1.043-7.473C356.713,426.202,391.48,444.714,401.468,434.075z"/>
					<path style="fill:#DEA94D;" d="M364.39,411.78c-0.832-7.456,10.66-9.345,14.263-3.4c3.027,4.994,3.254,6.148,7.089,9.444
						c6.754,5.803,15.711,13.173,15.726,16.251c-1.929,7.975-43.659,3.63-53.649-9.604c-0.808-7.303,2.149-12.337,3.197-13.775
						C353.911,413.777,361.361,414.042,364.39,411.78z"/>
				</g>
				<path style="fill:#FFFFFF;" d="M378.958,439.383c10.643,0.804,21.388-0.67,22.51-5.309c-0.009-1.814-2.044-7.834-7.674-9.767
					C382.867,425.302,379.644,431.392,378.958,439.383z"/>
				<path style="fill:none;stroke:#DE904D;stroke-width:1.1339;stroke-miterlimit:10;" d="M364.39,411.78
					c0,0,7.026,11.96,17.624,17.826"/>
			</g>
			<g>
				<g>
					<path style="fill:#C47A5D;" d="M296.405,375.959l26.96,2.938l-4.666,38.827c-2.623,1.239-10.478,4.116-18.78,1.728
						c-2.467-0.71-4.504-1.745-6.106-2.765C295.368,402.573,296.445,389.596,296.405,375.959z"/>
					<path style="fill:#FFFFFF;" d="M326.073,441.534c-0.091,1.446,0.602,4.276-0.461,5.185c-5.13,4.385-26.499,7.489-35.025-11.982
						c0.115-3.341,0.749-4.51,0.457-4.766C299.288,433.834,315.391,451.477,326.073,441.534z"/>
					<path style="fill:#DEA94D;" d="M304.027,417.005c7.643-10.803,13.635-0.203,13.635-0.203l1.613,0.346
						c0,0,5.966,13.715,6.106,23.811c-2.462,7.827-25.347,5.185-34.338-10.987c1.276-9.824,1.627-12.842,2.769-14.206
						C296.494,419.034,300.853,419.058,304.027,417.005z"/>
					<path style="fill:none;stroke:#DE904D;stroke-width:1.1339;stroke-miterlimit:10;" d="M304.027,417.237
						c0,0-0.652,8.859,3.841,19.689"/>
					
						<line style="fill:none;stroke:#DE904D;stroke-width:1.1339;stroke-miterlimit:10;" x1="319.966" y1="433.815" x2="317.777" y2="416.802"/>
				</g>
			</g>
			<path style="fill:#6073C9;" d="M377.771,402.407c0,0,3.63-37.044,3.103-56.97c-0.431-16.312-10.537-71.531-12.556-76.84
				c-9.349,3.064-30.455-1.157-39.804,1.906c1.535,16.765,13.72,77.217,13.72,77.217s4.898,52.718,5.125,55.209
				C353.286,403.944,372.131,404.259,377.771,402.407z"/>
			<path style="fill:#6073C9;" d="M300.268,268.052c-1.52,8.615-5.322,94.908-10.607,137.483c5.05,2.818,28.628,4.57,34.062,1.043
				l14.658-92.7l5.018-0.844l-1.858-45.816L300.268,268.052z"/>
			<path style="fill:none;stroke:#1A2E36;stroke-width:1.1339;stroke-miterlimit:10;" d="M318.23,317.537"/>
			<polyline style="fill:none;stroke:#495AAB;stroke-width:1.1339;stroke-miterlimit:10;" points="307.402,273.142 299.459,356.12 
				293.658,399.105 			"/>
			<path style="fill:none;stroke:#495AAB;stroke-width:1.1339;stroke-miterlimit:10;" d="M324.418,401.017
				c-3.45,0.655-9.327,1.107-14.251,1.043c-5.745-0.075-15.857-3.061-19.638-3.997"/>
			<path style="fill:none;stroke:#495AAB;stroke-width:1.1339;stroke-miterlimit:10;" d="M377.945,398.062
				c-8.735,3.172-27.364,2.086-30.76,1.216"/>
			<path style="fill:#FFFFFF;" d="M297.393,444.357c9.8,7.114,26.975,4.53,28.68-2.016c0.113-1.81-0.928-11.427-10.139-11.08
				C304.965,431.517,298.615,436.43,297.393,444.357z"/>
			<path style="fill:none;stroke:#495AAB;stroke-width:1.1339;stroke-miterlimit:10;" d="M317.777,416.802"/>
			<path style="fill:none;stroke:#495AAB;stroke-width:1.1339;stroke-miterlimit:10;" d="M319.966,433.815"/>
			<path style="fill:none;stroke:#DAE4FE;stroke-width:1.1339;stroke-miterlimit:10;" d="M299.343,439.345
				c0,0,12.456,11.934,26.845,3.111"/>
			<path style="fill:none;stroke:#DAE4FE;stroke-width:1.1339;stroke-miterlimit:10;" d="M378.988,437.5
				c0,0,18.769,2.781,22.94-2.433"/>
			<path style="fill:#8DA664;" d="M386.287,367.128c-8.342-119.913,9.906-169.752-14.077-182.786
				c-0.501-0.361-47.632-7.271-56.075-1.641c-4.363,9.273-15.038,22.179-17.784,39.797c-3.73,23.931-0.01,39.371,1.043,57.871
				c1.057,18.578-0.302,54.148-11.644,87.28C299.533,372.033,319.668,377.749,386.287,367.128z"/>
			<path style="fill:none;stroke:#5F823C;stroke-width:1.1339;stroke-miterlimit:10;" d="M320.089,366.693
				c0,0,38.697,2.317,56.539-5.561"/>
			<g>
				<path style="fill:#42474B;" d="M364.389,204.231c0,0,0.232,107.922,2.781,173.498c17.842,1.39,24.33-5.561,24.33-5.561
					c-1.894-12.086-4.304-39.902-5.04-63.124c-0.36-11.351-0.221-20.662,0-35.453c0.584-39.143,5.255-58.341-0.811-75.598
					c-3.379-9.611-7.299-11.122-13.44-13.652C378.797,187.056,366.996,197.602,364.389,204.231z"/>
				<path style="fill:#42474B;" d="M349.154,378.038c0,0,4.171-161.101-4.692-181.955c-3.368-7.924-21.181-12.812-21.181-12.812
					c-7.947-3.32-17.553,1.597-21.281,4.296c-16.617,12.028-7.143,45.593-6.256,86.025c0.468,21.371-1.331,59.755-11.122,95.1
					C287.596,370.949,306.924,379.081,349.154,378.038z"/>
			</g>
			<path style="fill:none;stroke:#64676B;stroke-width:1.1339;stroke-miterlimit:10;" d="M286.23,362.245
				c8.942,2.339,19.396,4.428,31.149,5.617c8.296,0.839,16.001,1.105,22.979,1.021c-0.681-53.787-1.362-107.574-2.042-161.362"/>
			<polyline style="fill:none;stroke:#64676B;stroke-width:1.1339;stroke-miterlimit:10;" points="374.571,253.99 374.571,369.394 
				389.89,365.82 			"/>
			<path style="fill:#DD5325;" d="M382.1,191.19c0,0-7.059-14.506-17.277-19.982c11.467-36.705,4.083-66.766-34.729-61.058
				c-17.586,2.017-42.449,14.69-20.769,45.553c9.246,14.958,9.246,14.958,9.246,14.958s-6.642,5.436-4.236,11.9
				c-9.745-0.227-15.499,7.146-15.499,7.146s12.431,32.27,47.19,32.27C370.009,221.977,385.302,201.122,382.1,191.19z"/>
			<polygon style="fill:#DEA94D;" points="306.774,183.438 388.778,313.91 389.82,297.748 311.786,181.364 			"/>
			<path style="fill:none;stroke:#AB3A15;stroke-width:1.1339;stroke-miterlimit:10;" d="M373.137,179.249
				c0,0-27.507,35.891-46.117,23.738"/>
			<path style="fill:#C47A5D;" d="M304.795,145.241c-3.188,17.741,7.996,27.83,23.528,30.621
				c15.532,2.791,32.396-2.993,35.584-20.735c3.188-17.741-9.685-34.164-25.216-36.956
				C323.159,115.38,307.983,127.5,304.795,145.241z"/>
			<path style="fill:#FFFFFF;" d="M304.933,140.895c0,0,19.481-11.515,44.225,7.426c0.895-31.669-32.831-28.518-32.831-28.518
				S305.006,125.282,304.933,140.895z"/>
			<path style="fill:none;stroke:#DAE4FE;stroke-width:1.1339;stroke-miterlimit:10;" d="M305.523,134.019
				c0,0,21.616-4.739,41.655,5.558"/>
			
				<path style="fill:none;stroke:#5E2813;stroke-width:1.1339;stroke-linecap:round;stroke-linejoin:round;stroke-miterlimit:10;" d="
				M317.199,154.746c-3.83-2.82-5.91,4.57-0.532,4.439"/>
			<path style="fill:none;stroke:#272532;stroke-width:1.1339;stroke-miterlimit:10;" d="M327.245,150.773
				c-0.024-1.428,0.632-2.596,1.465-2.61s1.527,1.132,1.551,2.56"/>
			<path style="fill:none;stroke:#272532;stroke-width:1.1339;stroke-miterlimit:10;" d="M308.781,150.85
				c-0.024-1.428,0.632-2.596,1.465-2.61c0.833-0.014,1.527,1.132,1.551,2.56"/>
			<path style="fill:none;stroke:#762F0E;stroke-width:1.1339;stroke-miterlimit:10;" d="M311.655,143.194
				c0,0-2.286,0.354-2.942,2.182"/>
			<path style="fill:none;stroke:#762F0E;stroke-width:1.1339;stroke-miterlimit:10;" d="M330.819,143.382
				c0,0-1.825-1.421-3.605-0.645"/>
			<path style="fill:#DD5325;" d="M330.183,178.14c0,0,23.282-12.953,17.291-37.115c-5.554-17.949-27.878-19.111-38.919-15.213
				c12.723-18.844,45.639-16.866,52.725-4.877c7.086,11.988,10.215,34.296,0.047,50.619
				C351.159,187.878,330.183,178.14,330.183,178.14z"/>
			<path style="fill:none;stroke:#AB3A15;stroke-width:1.1339;stroke-miterlimit:10;" d="M314.335,182.562
				c0,0,4.938,5.509,10.282,6.597"/>
			<path style="fill:none;stroke:#AB3A15;stroke-width:1.1339;stroke-miterlimit:10;" d="M318.208,172.928
				c0,0,6.689,7.724,16.381,8.213c9.692,0.489,15.739-13.398,16.909-17.577"/>
			<path style="fill:none;stroke:#AB3A15;stroke-width:1.1339;stroke-miterlimit:10;" d="M342.368,125.283
				c0,0,22.705,6.598,12.62,42.133"/>
			<path style="fill:none;stroke:#AB3A15;stroke-width:1.1339;stroke-miterlimit:10;" d="M361.686,129.485
				c0,0,7.876,24.615-4.853,43.361"/>
			<path style="fill:none;stroke:#AB3A15;stroke-width:1.1339;stroke-miterlimit:10;" d="M364.822,171.208
				c0,0-7.503,12.725-20.025,13.605"/>
			<path style="fill:none;stroke:#AB3A15;stroke-width:1.1339;stroke-miterlimit:10;" d="M301.598,128.149
				c0,0,7.346-3.736,15.792-4.329"/>
			<path style="fill:none;stroke:#AB3A15;stroke-width:1.1339;stroke-miterlimit:10;" d="M335.331,112.608
				c0,0,16.492,1.474,21.425,17.516"/>
			
				<path style="fill:none;stroke:#5E2813;stroke-width:1.1339;stroke-linecap:round;stroke-linejoin:round;stroke-miterlimit:10;" d="
				M323.438,161.323c-3.471,1.876-6.688,1.515-6.688,1.515C319.966,168.441,325.065,166.878,323.438,161.323z"/>
			<g>
				<g>
					<path style="fill:#7081CF;" d="M395.735,187.121c0,0-43.822,1.605-53.03,1.998c-2.449,0.105-3.423,2.069-3.376,3.172
						c0.038,0.882,2.483,58.152,2.521,59.034c0.048,1.103,1.157,2.511,3.272,2.421c9.908-0.423,53.376-1.908,53.376-1.908
						L395.735,187.121z"/>
					<path style="fill:#FFFFFF;" d="M344.191,190.947l51.508-1.933c-1.861,1.54-1.76,3.904,0.226,5.28l-51.508,1.933
						c-1.828,0.078-3.439-1.007-3.516-2.466c-0.001-0.019-0.002-0.038-0.002-0.057C340.85,192.243,342.363,191.025,344.191,190.947z
						"/>
					
						<line style="fill:none;stroke:#DAE4FE;stroke-width:1.1339;stroke-miterlimit:10;" x1="341.859" y1="194.694" x2="392.401" y2="192.802"/>
					
						<line style="fill:none;stroke:#DAE4FE;stroke-width:1.1339;stroke-miterlimit:10;" x1="342.247" y1="192.473" x2="392.789" y2="190.582"/>
					
						<line style="fill:none;stroke:#495AAB;stroke-width:1.1339;stroke-miterlimit:10;" x1="343.653" y1="196.553" x2="346.696" y2="253.43"/>
					<path style="fill:none;stroke:#495AAB;stroke-width:1.1339;stroke-miterlimit:10;" d="M356.57,202.61l27.675-1.474
						c0.156,2.963,2.686,5.237,5.649,5.08l1.784,33.767c-2.974,0.142-5.265,2.675-5.108,5.648l-28.626,1.363
						c-0.075-3.013-2.614-5.375-5.625-5.232l-0.832-33.655C354.389,207.951,356.642,205.516,356.57,202.61z"/>
				</g>
				<g>
					<path style="fill:#814BD9;" d="M393.93,211.409c0,0-37.414-1.073-44.956-1.386c-2.006-0.083-2.944,1.656-2.987,2.676
						c-0.033,0.815-1.651,53.655-1.684,54.47c-0.042,1.02,0.76,2.399,2.492,2.471c8.115,0.336,45.232,1.494,45.232,1.494
						L393.93,211.409z"/>
					
						<line style="fill:none;stroke:#663BAB;stroke-width:1.1339;stroke-miterlimit:10;" x1="348.308" y1="216.697" x2="346.519" y2="268.644"/>
					<path style="fill:#FFFFFF;" d="M349.698,211.098l43.989,1.346c-1.635,1.259-1.724,3.406-0.199,4.796l-43.989-1.346
						c-1.501-0.062-2.741-1.161-2.698-2.488c0.001-0.017,0.001-0.035,0.002-0.052C346.871,212.029,348.197,211.036,349.698,211.098z
						"/>
					
						<line style="fill:none;stroke:#DAE4FE;stroke-width:1.1339;stroke-miterlimit:10;" x1="347.91" y1="214.431" x2="391.106" y2="215.744"/>
					
						<line style="fill:none;stroke:#DAE4FE;stroke-width:1.1339;stroke-miterlimit:10;" x1="347.997" y1="212.338" x2="391.193" y2="213.651"/>
					<path style="fill:none;stroke:#663BAB;stroke-width:1.1339;stroke-miterlimit:10;" d="M350.41,258.694l0.938-32.651
						c3.962,0.116,7.268-3.003,7.382-6.965l25.163,0.739c-0.114,3.959,3.002,7.261,6.961,7.377l-0.938,32.651
						c-3.962-0.116-7.268,3.003-7.382,6.965l-25.163-0.739C357.484,262.113,354.369,258.811,350.41,258.694z"/>
				</g>
			</g>
			<g>
				<path style="fill:#C47A5D;" d="M361.359,232.208c-12.526-12.109-20.236-14.204-23.426-9.229
					c-8.254-2.516-7.203,4.023-3.089,7.49c-3.364,1.52-1.868,5.504,0.966,7.808c-3.911,1.563,0.347,6.909,1.943,7.417
					c-5.392,1.361-1.536,8.631,13.117,10.97C365.523,259.002,372.837,243.305,361.359,232.208z"/>
				
					<line style="fill:none;stroke:#5E2813;stroke-width:1.1339;stroke-linecap:round;stroke-linejoin:round;stroke-miterlimit:10;" x1="337.933" y1="222.979" x2="346.575" y2="225.781"/>
				
					<line style="fill:none;stroke:#5E2813;stroke-width:1.1339;stroke-linecap:round;stroke-linejoin:round;stroke-miterlimit:10;" x1="334.843" y1="230.469" x2="337.436" y2="231.57"/>
				
					<line style="fill:none;stroke:#5E2813;stroke-width:1.1339;stroke-linecap:round;stroke-linejoin:round;stroke-miterlimit:10;" x1="335.809" y1="238.277" x2="338.047" y2="239.089"/>
				
					<line style="fill:none;stroke:#5E2813;stroke-width:1.1339;stroke-linecap:round;stroke-linejoin:round;stroke-miterlimit:10;" x1="337.753" y1="245.694" x2="339.597" y2="246.3"/>
			</g>
			<path style="fill:#42474B;" d="M358.191,228.928l0.695,43.447c0,0,45.665,17.546,56.307-7.994
				c1.031-2.473,2.678-7.242,1.295-12.198c-2.486-8.911-12.708-12.911-16.936-14.565c-5.445-2.131-8.403-1.978-16.336-3.128
				C377.237,233.623,368.624,232.045,358.191,228.928z"/>
			
				<line style="fill:none;stroke:#2C3136;stroke-width:1.1339;stroke-miterlimit:10;" x1="391.211" y1="235.88" x2="407.894" y2="238.313"/>
			
				<line style="fill:none;stroke:#2C3136;stroke-width:1.1339;stroke-miterlimit:10;" x1="365.143" y1="230.666" x2="366.88" y2="275.156"/>
			
				<line style="fill:none;stroke:#2C3136;stroke-width:1.1339;stroke-miterlimit:10;" x1="363.405" y1="274.113" x2="387.735" y2="278.879"/>
			
				<line style="fill:none;stroke:#2C3136;stroke-width:1.1339;stroke-miterlimit:10;" x1="369.661" y1="231.709" x2="371.746" y2="275.851"/>
			<g>
				<path style="fill:#C47A5D;" d="M303.554,306.433c0.324,0.706,9.649,15.999,4.978,18.484c-4.671,2.486-7.449-4.872-7.449-4.872
					s1.219,13.458-3.639,14.234s-2.715-11.318-2.715-11.318s-1.081,10.496-4.988,10.921c-3.907,0.426-2.174-10.883-2.174-10.883
					s-0.619,10.198-5.094,9.944c-4.475-0.254-2.604-12.565-2.604-12.565s0.469,8.844-3.491,8.782
					c-3.96-0.063-1.751-18.342,0.759-24.792C279.647,297.918,303.554,306.433,303.554,306.433z"/>
				
					<line style="fill:none;stroke:#5E2813;stroke-width:1.1339;stroke-linecap:round;stroke-linejoin:round;stroke-miterlimit:10;" x1="294.601" y1="319.516" x2="293.902" y2="328.982"/>
				
					<line style="fill:none;stroke:#5E2813;stroke-width:1.1339;stroke-linecap:round;stroke-linejoin:round;stroke-miterlimit:10;" x1="287.519" y1="320.287" x2="286.798" y2="327.284"/>
				
					<line style="fill:none;stroke:#5E2813;stroke-width:1.1339;stroke-linecap:round;stroke-linejoin:round;stroke-miterlimit:10;" x1="279.763" y1="319.402" x2="279.451" y2="325.614"/>
				
					<line style="fill:none;stroke:#5E2813;stroke-width:1.1339;stroke-linecap:round;stroke-linejoin:round;stroke-miterlimit:10;" x1="301.226" y1="316.818" x2="300.945" y2="321.049"/>
			</g>
			<path style="fill:#42474B;" d="M298.836,189.707c0,0-14.678,10.519-21.63,72.014l-3.939,43.346l36.611,3.63l9.037-81.566"/>
			<polyline style="fill:none;stroke:#2C3136;stroke-width:1.1339;stroke-miterlimit:10;" points="304.317,308.697 309.878,308.697 
				315.787,229.971 			"/>
			
				<line style="fill:none;stroke:#2C3136;stroke-width:1.1339;stroke-miterlimit:10;" x1="274.078" y1="297.227" x2="309.531" y2="302.44"/>
			
				<line style="fill:none;stroke:#2C3136;stroke-width:1.1339;stroke-miterlimit:10;" x1="274.078" y1="291.492" x2="310.052" y2="295.663"/>
			<polyline style="fill:none;stroke:#DE904D;stroke-width:1.1339;stroke-miterlimit:10;" points="386.271,310.287 390.246,315.818 
				398.541,309.423 386.098,291.969 			"/>
			
				<line style="fill:none;stroke:#DE904D;stroke-width:1.1339;stroke-miterlimit:10;" x1="399.924" y1="360.232" x2="397.85" y2="292.314"/>
			
				<line style="fill:none;stroke:#DE904D;stroke-width:1.1339;stroke-miterlimit:10;" x1="382.469" y1="303.893" x2="390.419" y2="298.363"/>
			<polygon style="fill:#DE904D;" points="324.402,213.682 331.66,209.361 337.018,217.138 329.414,220.767 			"/>
		</g>
	</g>
</g>
</svg>
