<?xml version="1.0" encoding="utf-8"?>
<!-- Generator: Adobe Illustrator 27.5.0, SVG Export Plug-In . SVG Version: 6.00 Build 0)  -->
<svg version="1.1" xmlns="http://www.w3.org/2000/svg" xmlns:xlink="http://www.w3.org/1999/xlink" x="0px" y="0px"
	 viewBox="0 0 500 500" style="enable-background:new 0 0 500 500;" xml:space="preserve">
<g id="BACKGROUND">
	<g>
		<rect style="fill:#F2C38A;" width="500" height="500"/>
		<path style="fill:#FDD7A8;" d="M0,0h273.823C398.737,0,500,101.263,500,226.178V500H0V0z"/>
		<g style="opacity:0.5;">
			<path style="fill:#FDD7A8;" d="M78.507,418.364c0,2.327-11.145,4.213-24.894,4.213c-13.748,0-24.894-1.886-24.894-4.213
				c0-2.327,11.145-4.213,24.894-4.213C67.362,414.151,78.507,416.038,78.507,418.364z"/>
		</g>
		
			<line style="fill:none;stroke:#CC9F68;stroke-width:1.1339;stroke-miterlimit:10;" x1="15.617" y1="385.479" x2="484.383" y2="385.479"/>
		
			<line style="fill:none;stroke:#CC9F68;stroke-width:1.1339;stroke-miterlimit:10;" x1="15.617" y1="373.99" x2="484.383" y2="373.99"/>
		<g>
			<path style="fill:none;stroke:#CC9F68;stroke-width:1.1339;stroke-miterlimit:10;" d="M157.137,139.926
				c5.113-7.66,8.761-17.624,8.761-30.53c0-43.482-63.381-49.378-63.381-69.277c0,19.899-63.381,25.795-63.381,69.277
				c0,12.905,3.648,22.87,8.761,30.53c-12.074,13.178-19.447,30.735-19.447,50.017v115.492h148.135V189.943
				C176.584,170.661,169.211,153.105,157.137,139.926z"/>
			<path style="fill:#FFFFFF;" d="M38.552,295.332V189.944c0-16.034,5.964-31.374,16.793-43.194l5.354-5.842l-4.4-6.592
				c-4.684-7.018-7.06-15.401-7.06-24.919c0-18.565,14.74-28.213,35.564-39.814c6.456-3.597,12.751-7.104,17.714-11.153
				c4.964,4.049,11.259,7.556,17.714,11.153c20.825,11.601,35.565,21.249,35.565,39.814c0,9.518-2.376,17.901-7.06,24.919
				l-4.4,6.592l5.354,5.842c10.829,11.82,16.793,27.16,16.793,43.194v105.388H38.552z"/>
		</g>
		<g>
			<rect x="361.912" y="42.807" style="fill:#FDD7A8;" width="105.87" height="224.036"/>
			<g>
				
					<rect x="408.371" y="226.72" transform="matrix(6.123234e-17 -1 1 6.123234e-17 210.5847 675.0873)" style="fill:#F1C754;" width="68.93" height="11.063"/>
				
					<rect x="440.435" y="253.983" transform="matrix(6.123234e-17 -1 1 6.123234e-17 183.3219 702.3502)" style="fill:#DEA94D;" width="4.801" height="11.063"/>
				
					<rect x="440.435" y="198.935" transform="matrix(6.123234e-17 -1 1 6.123234e-17 238.3696 647.3026)" style="fill:#DEA94D;" width="4.801" height="11.063"/>
			</g>
			<g>
				
					<rect x="414.634" y="225.871" transform="matrix(6.123234e-17 -1 1 6.123234e-17 222.4965 681.3503)" style="fill:#495AAB;" width="74.579" height="7.111"/>
				
					<rect x="449.326" y="255.368" transform="matrix(6.123234e-17 -1 1 6.123234e-17 192.9994 710.8474)" style="fill:#6073C9;" width="5.195" height="7.111"/>
				
					<rect x="449.326" y="195.809" transform="matrix(6.123234e-17 -1 1 6.123234e-17 252.5583 651.2885)" style="fill:#6073C9;" width="5.195" height="7.111"/>
			</g>
			<g>
				
					<rect x="417.636" y="220.525" transform="matrix(6.123234e-17 -1 1 6.123234e-17 234.9546 684.3527)" style="fill:#8DA664;" width="84.035" height="8.349"/>
				
					<rect x="456.727" y="253.761" transform="matrix(6.123234e-17 -1 1 6.123234e-17 201.7177 717.5896)" style="fill:#5F823C;" width="5.853" height="8.349"/>
				
					<rect x="456.727" y="186.651" transform="matrix(6.123234e-17 -1 1 6.123234e-17 268.8278 650.4795)" style="fill:#5F823C;" width="5.853" height="8.349"/>
				
					<rect x="456.727" y="203.347" transform="matrix(6.123234e-17 -1 1 6.123234e-17 252.1319 667.1754)" style="fill:#5F823C;" width="5.853" height="8.349"/>
				
					<rect x="456.727" y="238.581" transform="matrix(6.123234e-17 -1 1 6.123234e-17 216.8979 702.4094)" style="fill:#5F823C;" width="5.853" height="8.349"/>
			</g>
			<g>
				
					<rect x="401.935" y="231.347" transform="matrix(6.123234e-17 -1 1 6.123234e-17 192.6235 668.6513)" style="fill:#42474B;" width="57.404" height="13.334"/>
				
					<rect x="428.638" y="254.051" transform="matrix(6.123234e-17 -1 1 6.123234e-17 169.9193 691.3555)" style="fill:#2C3136;" width="3.999" height="13.334"/>
				
					<rect x="428.638" y="208.208" transform="matrix(6.123234e-17 -1 1 6.123234e-17 215.7623 645.5125)" style="fill:#2C3136;" width="3.999" height="13.334"/>
			</g>
			<g>
				
					<rect x="394.593" y="237.339" transform="matrix(6.123234e-17 -1 1 6.123234e-17 180.5274 661.3095)" style="fill:#DD5325;" width="52.651" height="6.104"/>
				
					<rect x="419.085" y="258.163" transform="matrix(6.123234e-17 -1 1 6.123234e-17 159.7032 682.1337)" style="fill:#AB3A15;" width="3.667" height="6.104"/>
				
					<rect x="419.085" y="216.116" transform="matrix(6.123234e-17 -1 1 6.123234e-17 201.7502 640.0867)" style="fill:#AB3A15;" width="3.667" height="6.104"/>
				<path style="fill:none;stroke:#AB3A15;stroke-width:1.1339;stroke-miterlimit:10;" d="M422.726,227.659v25.783
					c0,2.091-0.854,2.599-1.908,2.599l0,0c-1.053,0-1.908-0.507-1.908-2.599v-25.783c0-2.091,0.854-2.599,1.908-2.599l0,0
					C421.872,225.061,422.726,225.568,422.726,227.659z"/>
			</g>
			<g>
				<polygon style="fill:#42474B;" points="419.126,202.265 410.636,266.716 403.164,265.402 411.654,200.951 				"/>
				<polygon style="fill:#2C3136;" points="411.819,257.737 411.228,262.227 403.756,260.912 404.347,256.423 				"/>
				<polygon style="fill:#2C3136;" points="418.599,206.267 418.007,210.756 410.535,209.441 411.127,204.952 				"/>
			</g>
			<g>
				
					<rect x="349.154" y="112.335" transform="matrix(0.2498 -0.9683 0.9683 0.2498 175.539 460.9255)" style="fill:#DD5325;" width="72.186" height="9.672"/>
				
					<rect x="375.6" y="139.98" transform="matrix(0.2498 -0.9683 0.9683 0.2498 143.4242 474.76)" style="fill:#AB3A15;" width="5.028" height="9.672"/>
				
					<rect x="390.003" y="84.161" transform="matrix(0.2499 -0.9683 0.9683 0.2499 208.2721 446.8289)" style="fill:#AB3A15;" width="5.028" height="9.672"/>
				<path style="fill:none;stroke:#AB3A15;stroke-width:1.1339;stroke-miterlimit:10;" d="M392.381,100.984l-8.832,34.228
					c-0.716,2.777-2.201,3.112-3.817,2.695l0,0c-1.616-0.417-2.753-1.428-2.037-4.205l8.832-34.228
					c0.716-2.777,2.201-3.112,3.817-2.695l0,0C391.961,97.196,393.098,98.208,392.381,100.984z"/>
			</g>
			<g>
				
					<rect x="366.786" y="111.645" transform="matrix(6.123234e-17 -1 1 6.123234e-17 287.5618 520.8842)" style="fill:#FFFFFF;" width="74.873" height="10.032"/>
				
					<rect x="401.615" y="141.259" transform="matrix(6.123234e-17 -1 1 6.123234e-17 257.9483 550.4977)" style="fill:#DAE4FE;" width="5.215" height="10.032"/>
				
					<rect x="401.615" y="81.465" transform="matrix(6.123234e-17 -1 1 6.123234e-17 317.7422 490.7037)" style="fill:#DAE4FE;" width="5.215" height="10.032"/>
				<rect x="401.615" y="94.415" style="fill:#DAE4FE;" width="5.215" height="43.915"/>
			</g>
			<g>
				
					<rect x="382.239" y="114.391" transform="matrix(6.123234e-17 -1 1 6.123234e-17 294.8477 536.3368)" style="fill:#495AAB;" width="66.707" height="12.706"/>
				
					<rect x="412.289" y="137.836" transform="matrix(6.123234e-17 -1 1 6.123234e-17 271.4028 559.7817)" style="fill:#6073C9;" width="6.606" height="12.706"/>
				
					<rect x="412.289" y="90.229" transform="matrix(6.123234e-17 -1 1 6.123234e-17 319.0106 512.1739)" style="fill:#6073C9;" width="6.606" height="12.706"/>
				<path style="fill:none;stroke:#6073C9;stroke-width:1.1339;stroke-miterlimit:10;" d="M419.354,111.875v18.314
					c0,3.767-1.778,4.68-3.971,4.68l0,0c-2.193,0-3.971-0.913-3.971-4.68v-18.314c0-3.767,1.778-4.681,3.971-4.681l0,0
					C417.576,107.194,419.354,108.108,419.354,111.875z"/>
			</g>
			<g>
				
					<rect x="386.836" y="108.124" transform="matrix(6.123234e-17 -1 1 6.123234e-17 313.8217 540.9335)" style="fill:#42474B;" width="81.084" height="10.864"/>
				
					<rect x="424.554" y="140.194" transform="matrix(6.123234e-17 -1 1 6.123234e-17 281.7518 573.0034)" style="fill:#2C3136;" width="5.648" height="10.864"/>
				
					<rect x="424.554" y="75.44" transform="matrix(6.123234e-17 -1 1 6.123234e-17 346.5056 508.2496)" style="fill:#2C3136;" width="5.648" height="10.864"/>
				<path style="fill:none;stroke:#2C3136;stroke-width:1.1339;stroke-miterlimit:10;" d="M430.594,93.948v39.706
					c0,3.221-1.52,4.002-3.395,4.002l0,0c-1.875,0-3.395-0.781-3.395-4.002V93.948c0-3.221,1.52-4.002,3.395-4.002l0,0
					C429.074,89.946,430.594,90.727,430.594,93.948z"/>
			</g>
			<g>
				
					<rect x="421.454" y="115.214" transform="matrix(6.123234e-17 -1 1 6.123234e-17 335.9351 575.5519)" style="fill:#495AAB;" width="68.579" height="9.189"/>
				
					<rect x="453.355" y="142.338" transform="matrix(6.123234e-17 -1 1 6.123234e-17 308.8112 602.6758)" style="fill:#6073C9;" width="4.777" height="9.189"/>
				
					<rect x="453.355" y="87.571" transform="matrix(6.123234e-17 -1 1 6.123234e-17 363.5782 547.9088)" style="fill:#6073C9;" width="4.777" height="9.189"/>
				<path style="fill:none;stroke:#6073C9;stroke-width:1.1339;stroke-miterlimit:10;" d="M453.023,103.225v33.582
					c0,2.724,1.286,3.385,2.871,3.385l0,0c1.586,0,2.871-0.661,2.871-3.385v-33.582c0-2.724-1.286-3.385-2.871-3.385l0,0
					C454.309,99.84,453.023,100.501,453.023,103.225z"/>
			</g>
			<g>
				
					<rect x="416.528" y="119.476" transform="matrix(6.123234e-17 -1 1 6.123234e-17 323.4911 570.6255)" style="fill:#FFFFFF;" width="61.061" height="8.182"/>
				
					<rect x="444.932" y="143.627" transform="matrix(6.123234e-17 -1 1 6.123234e-17 299.3405 594.7761)" style="fill:#DAE4FE;" width="4.253" height="8.182"/>
				
					<rect x="444.932" y="94.863" transform="matrix(6.123234e-17 -1 1 6.123234e-17 348.1041 546.0125)" style="fill:#DAE4FE;" width="4.253" height="8.182"/>
			</g>
			<g>
				
					<rect x="399.983" y="111.114" transform="matrix(6.123234e-17 -1 1 6.123234e-17 321.696 554.0813)" style="fill:#8DA664;" width="75.811" height="10.158"/>
				
					<rect x="414.069" y="113.553" transform="matrix(6.123234e-17 -1 1 6.123234e-17 321.696 554.0813)" style="fill:#AFC193;" width="47.64" height="5.279"/>
				
					<rect x="435.248" y="141.098" transform="matrix(6.123234e-17 -1 1 6.123234e-17 291.7119 584.0654)" style="fill:#5F823C;" width="5.281" height="10.158"/>
				
					<rect x="435.248" y="80.556" transform="matrix(6.123234e-17 -1 1 6.123234e-17 352.2542 523.5231)" style="fill:#5F823C;" width="5.281" height="10.158"/>
			</g>
			<rect x="361.707" y="266.616" style="fill:#FEEBD3;" width="105.363" height="138.892"/>
			<rect x="361.707" y="153.521" style="fill:#FEEBD3;" width="105.363" height="6.101"/>
			<rect x="361.707" y="41.304" style="fill:#FEEBD3;" width="105.363" height="5.892"/>
			<rect x="358.276" y="41.304" style="fill:#FEEBD3;" width="7.585" height="364.204"/>
			<rect x="464.146" y="41.304" style="fill:#FEEBD3;" width="6.635" height="364.204"/>
			
				<rect x="367.938" y="277.56" style="fill:none;stroke:#CC9F68;stroke-width:1.1339;stroke-miterlimit:10;" width="94.111" height="118.851"/>
			
				<rect x="445.555" y="314.914" style="fill:none;stroke:#CC9F68;stroke-width:1.1339;stroke-miterlimit:10;" width="8.732" height="44.145"/>
		</g>
		<g>
			
				<ellipse transform="matrix(0.9239 -0.3827 0.3827 0.9239 -6.0143 117.2328)" style="fill:none;stroke:#CC9F68;stroke-width:1.1339;stroke-miterlimit:10;" cx="291.677" cy="73.734" rx="35.234" ry="35.234"/>
			
				<ellipse transform="matrix(0.9239 -0.3827 0.3827 0.9239 -6.0143 117.2328)" style="fill:#FEEBD3;" cx="291.677" cy="73.734" rx="29.872" ry="29.872"/>
			<polyline style="fill:none;stroke:#CC9F68;stroke-width:1.1339;stroke-miterlimit:10;" points="291.677,48.203 291.677,74.5 
				307.252,68.883 			"/>
		</g>
		<g>
			<path style="fill:#8DA664;" d="M88.953,368.85c9.614-39.097-4.486-48.711-12.818-28.842
				C47.292,327.831,40.883,350.904,88.953,368.85z"/>
			<path style="fill:#8DA664;" d="M17.595,359.877c-8.961-39.097,4.182-48.71,11.948-28.842
				C56.424,318.858,62.398,341.931,17.595,359.877z"/>
			<path style="fill:#8DA664;" d="M88.839,323.049c0.195-34.251-13.377-39.407-16.328-21.316
				C46.235,297.382,45.511,317.741,88.839,323.049z"/>
			<path style="fill:#8DA664;" d="M70.222,292.138c0.151-26.426-10.321-30.404-12.597-16.446
				C37.352,272.335,36.794,288.043,70.222,292.138z"/>
			<path style="fill:#8DA664;" d="M21.988,285.264c-11.861-23.545-4.716-31.748,3.418-20.288
				C41.167,252.976,48.616,266.764,21.988,285.264z"/>
			<path style="fill:#8DA664;" d="M32.512,323.376c-15.171-30.566-6.206-41.127,4.161-26.231
				C56.495,281.737,66.016,299.64,32.512,323.376z"/>
			<path style="fill:none;stroke:#8DA664;stroke-width:1.1339;stroke-miterlimit:10;" d="M81.831,350.335
				c-13.103-26.776-23.358-32.474-22.504,19.655"/>
			<path style="fill:none;stroke:#8DA664;stroke-width:1.1339;stroke-miterlimit:10;" d="M53.915,363.438
				c6.837-43.298-12.819-54.408-24.783-31.904"/>
			<path style="fill:none;stroke:#8DA664;stroke-width:1.1339;stroke-miterlimit:10;" d="M35.4,301.054
				c4.842-21.364,28.486-22.789,23.928,6.267c-4.558,29.055-14.243,30.764-12.819,58.111"/>
			<path style="fill:none;stroke:#8DA664;stroke-width:1.1339;stroke-miterlimit:10;" d="M75.564,305.327
				c-14.528-19.655-32.758-12.249-27.061,4.558c5.697,16.806,27.346,19.085,16.806,56.402"/>
			<path style="fill:none;stroke:#8DA664;stroke-width:1.1339;stroke-miterlimit:10;" d="M24.86,268.581
				c5.127-25.067,27.631-12.534,24.783,5.412c-2.849,17.946-19.085,53.553-6.267,95.427"/>
			<path style="fill:none;stroke:#8DA664;stroke-width:1.1339;stroke-miterlimit:10;" d="M60.752,278.836
				c-7.976-8.831-16.806-12.819-20.794-3.418c-3.988,9.4-0.855,20.51,5.982,39.31c6.837,18.801,3.703,50.704,3.703,50.704"/>
			<path style="fill:none;stroke:#5F823C;stroke-width:1.1339;stroke-miterlimit:10;" d="M86.674,319
				c0,0-9.239-13.456-14.162-17.268"/>
			<path style="fill:none;stroke:#5F823C;stroke-width:1.1339;stroke-miterlimit:10;" d="M36.673,297.146
				c0,0-4.407,10.176-4.122,22.424"/>
			<path style="fill:none;stroke:#5F823C;stroke-width:1.1339;stroke-miterlimit:10;" d="M18.593,356.317
				c0,0,1.709-18.8,10.825-24.498"/>
			<path style="fill:none;stroke:#5F823C;stroke-width:1.1339;stroke-miterlimit:10;" d="M87.529,366.002
				c-3.418-21.934-9.685-24.783-9.685-24.783"/>
			<path style="fill:none;stroke:#5F823C;stroke-width:1.1339;stroke-miterlimit:10;" d="M22.866,283.393
				C21.727,269.151,26,264.878,26,264.878"/>
			<path style="fill:none;stroke:#5F823C;stroke-width:1.1339;stroke-miterlimit:10;" d="M68.728,289.945
				c-5.697-11.394-9.97-13.958-9.97-13.958"/>
			
				<rect x="35.97" y="362.868" transform="matrix(-1 -1.224647e-16 1.224647e-16 -1 106.1218 781.2836)" style="fill:#FFFFFF;" width="34.183" height="55.547"/>
			<path style="fill:none;stroke:#DAE4FE;stroke-width:1.1339;stroke-miterlimit:10;" d="M70.58,370.132
				c0,0-16.237-4.273-19.228,3.846c-2.991,8.118-15.382,3.846-15.382,3.846"/>
			<path style="fill:none;stroke:#DAE4FE;stroke-width:1.1339;stroke-miterlimit:10;" d="M70.58,379.532
				c-8.118-3.846-13.246-3.418-14.955,2.991c-1.709,6.409-15.809,9.4-19.655,2.136"/>
			<path style="fill:none;stroke:#DAE4FE;stroke-width:1.1339;stroke-miterlimit:10;" d="M69.725,392.351
				c-5.982-2.564-24.355,11.109-34.183,2.137"/>
			<path style="fill:none;stroke:#DAE4FE;stroke-width:1.1339;stroke-miterlimit:10;" d="M69.725,407.733
				c-7.264-8.973-14.955-7.691-17.946-2.564c-2.991,5.127-14.955,3.418-15.382-0.427"/>
			<path style="fill:none;stroke:#DAE4FE;stroke-width:1.1339;stroke-miterlimit:10;" d="M70.152,414.57
				c-7.691-4.7-17.519,4.7-33.328-2.564"/>
		</g>
	</g>
</g>
<g id="OBJECTS">
	<g>
		<g style="opacity:0.5;">
			<path style="fill:#FDD7A8;" d="M404.442,423.173c5.954,1.666,28.32,4.622,21.574,14.403c-3.192,4.628-18.922,7.064-24.444,9.065
				c-15.569,5.642-34.208,10.172-50.269,2.907c-10.745-4.86-17.497-5.717-29.25-4.561c-8.734,0.859-18.912,2.003-27.705,0.599
				c-7.772-1.24-22.512-6.555-18.025-16.974c5.079-11.793,32.727-7.621,42.242-7.621
				C345.657,420.99,374.249,418.749,404.442,423.173z"/>
		</g>
		<g style="opacity:0.5;">
			<path style="fill:#FDD7A8;" d="M174.135,418.782c17.984-1.711,35.667-1.311,50.926,7.305c10.67,6.025,7.315,12.257-2.786,16.003
				c-7.832,2.904-14.644,2.075-22.52,0.693c-8.534-1.498-17.221-2.942-26.064-2.162c-8.225,0.725-14.063,5.794-21.618,7.986
				c-11.43,3.315-22.604,3.917-33.851,0.194c-5.877-1.945-22.494-8.141-21.275-16.949c1.313-9.476,16.91-7.852,23.476-7.72
				C137.139,424.468,155.794,420.527,174.135,418.782z"/>
		</g>
		<g>
			<polygon style="fill:#DE904D;" points="421.481,293.962 355.695,179.364 347.399,181.438 416.642,299.492 			"/>
			<ellipse style="fill:#6073C9;" cx="378.392" cy="199.526" rx="24.195" ry="27.651"/>
			<path style="fill:#C47A5D;" d="M273.478,242.925c-1.879-0.461-18.888-4.501-26.416-8.342
				c-7.527-3.84-14.374-15.266-13.299-16.302c1.075-1.036,24.425-0.659,24.425-0.659s5.79,1.541,6.735-0.895
				c0.946-2.436-2.741-7.045,1.714-8.428c4.455-1.383,8.178,12.366,8.178,12.366l7.338,2.996L273.478,242.925z"/>
			<path style="fill:#8DA664;" d="M277.186,220.68l-10.427,35.453c0,0,63.027,40.087,74.613,3.012
				c11.586-37.075,15.621-76.544,15.621-76.544s-46.054-16.182-58.74,45.861C290.432,225.855,277.186,220.68,277.186,220.68z"/>
			<g>
				<g>
					<polygon style="fill:#C47A5D;" points="345.639,370.55 317.763,371.712 318.892,407.16 343.252,418.459 					"/>
					<path style="fill:#FFFFFF;" d="M292.883,431.901c-0.007,1.449-0.845,3.559-0.242,4.82c2.478,5.183,33.859,5.63,52.439-8.52
						c3.104-2.364,0.734-7.237,1.043-7.473C337.637,424.029,302.87,442.541,292.883,431.901z"/>
					<path style="fill:#6073C9;" d="M329.961,409.607c0.832-7.457-10.66-9.345-14.263-3.4c-3.027,4.995-3.254,6.148-7.09,9.444
						c-6.754,5.803-15.711,13.173-15.726,16.251c1.929,7.975,43.659,3.63,53.649-9.604c0.808-7.303-1.734-12.477-2.781-13.915
						C340.855,411.464,332.99,411.869,329.961,409.607z"/>
				</g>
				<path style="fill:#FFFFFF;" d="M315.392,437.21c-10.643,0.804-21.387-0.67-22.51-5.309c0.009-1.814,2.044-7.834,7.674-9.767
					C311.483,423.129,314.707,429.218,315.392,437.21z"/>
				<path style="fill:none;stroke:#495AAB;stroke-width:1.1339;stroke-miterlimit:10;" d="M329.961,409.607
					c0,0-7.026,11.96-17.624,17.826"/>
			</g>
			<g>
				<g>
					<polygon style="fill:#C47A5D;" points="397.967,375.906 370.232,378.944 373.655,418.718 397.764,421.656 					"/>
					<path style="fill:#FFFFFF;" d="M355.941,440.715c0.091,1.446-0.542,3.61,0.521,4.518c5.13,4.385,25.688,5.637,43.273-9.732
						c2.938-2.568,1.632-7.164,1.924-7.42C393.415,431.945,366.623,450.657,355.941,440.715z"/>
					<path style="fill:#6073C9;" d="M388.323,416.905c0.328-7.495-13.787-8.689-14.83,0c-2.683,5.187-17.379,11.354-17.552,23.809
						c2.462,7.827,36.179,1.993,45.255-11.884c2.679-8.101-2.23-13.863-3.372-15.227
						C395.143,416.873,391.498,418.959,388.323,416.905z"/>
				</g>
				<path style="fill:none;stroke:#495AAB;stroke-width:1.1339;stroke-miterlimit:10;" d="M388.323,417.137
					c0,0-3.708,9.848-13.266,18.19"/>
			</g>
			<path style="fill:#42474B;" d="M316.551,400.4c0,0-3.602-35.137-3.074-55.062c0.432-16.312,10.537-71.531,12.557-76.84
				c9.349,3.063,30.455-1.157,39.804,1.906c-1.535,16.765-13.72,77.217-13.72,77.217s-4.577,51.24-4.805,53.73
				C341.386,402.365,322.191,402.251,316.551,400.4z"/>
			<path style="fill:#42474B;" d="M392.082,267.953c1.52,8.615,5.322,94.907,10.607,137.483c-5.05,2.818-28.628,4.57-34.062,1.043
				l-14.658-92.7l-5.018-0.844l1.858-45.816L392.082,267.953z"/>
			<path style="fill:none;stroke:#1A2E36;stroke-width:1.1339;stroke-miterlimit:10;" d="M376.12,317.438"/>
			<polyline style="fill:none;stroke:#2C3136;stroke-width:1.1339;stroke-miterlimit:10;" points="386.948,273.043 394.892,356.021 
				400.693,399.005 			"/>
			<path style="fill:none;stroke:#2C3136;stroke-width:1.1339;stroke-miterlimit:10;" d="M367.932,400.917
				c3.45,0.655,9.327,1.107,14.251,1.043c5.745-0.075,15.857-3.061,19.638-3.997"/>
			<path style="fill:none;stroke:#2C3136;stroke-width:1.1339;stroke-miterlimit:10;" d="M316.378,395.993
				c8.735,3.172,27.797,2.512,31.194,1.642"/>
			
				<line style="fill:none;stroke:#495AAB;stroke-width:1.1339;stroke-miterlimit:10;" x1="364.371" y1="431.851" x2="373.635" y2="418.032"/>
			<path style="fill:none;stroke:#DAE4FE;stroke-width:1.1339;stroke-miterlimit:10;" d="M315.363,435.327
				c0,0-18.769,2.781-22.94-2.433"/>
			<path style="fill:#5F823C;" d="M308.064,367.029c8.342-119.913-9.906-169.752,14.077-182.786
				c0.501-0.361,52.807-8.351,61.25-2.722c4.362,9.273,9.863,23.26,12.609,40.878c3.73,23.931,0.01,39.371-1.043,57.871
				c-1.057,18.578,0.302,54.148,11.644,87.28C394.818,371.934,348.358,383.181,308.064,367.029z"/>
			<path style="fill:none;stroke:#506E33;stroke-width:1.1339;stroke-miterlimit:10;" d="M375.857,364.511
				c0,0-39.764,5.113-57.606-2.765"/>
			<path style="fill:none;stroke:#506E33;stroke-width:1.1339;stroke-miterlimit:10;" d="M375.857,360.363
				c0,0-39.764,5.113-57.606-2.765"/>
			<path style="fill:#8DA664;" d="M360.084,379.483c0,0-7.183-165.272,1.68-186.126c3.368-7.924,9.305-10.186,9.306-10.186
				c7.947-3.32,17.553,1.597,21.281,4.296c16.617,12.028,7.143,45.593,6.256,86.025c-0.468,21.371,1.331,59.755,11.122,95.1
				C406.754,370.85,403.187,373.122,360.084,379.483z"/>
			<polyline style="fill:none;stroke:#A4B883;stroke-width:1.1339;stroke-miterlimit:10;" points="407.337,364.288 366.996,372.458 
				363.422,199.862 			"/>
			<path style="fill:#8DA664;" d="M320.555,376.493c-17.842,1.39-17.705-4.424-17.705-4.424c1.894-12.086,4.304-39.902,5.04-63.123
				c0.36-11.351,0.221-20.662,0-35.453c-0.584-39.143-4.85-51.911,1.216-69.167c3.379-9.611,10.195-15.905,13.034-20.082
				C324.747,190.873,323.104,310.917,320.555,376.493z"/>
			<g>
				<g>
					<path style="fill:#E0643B;" d="M401.757,265.352c0,0-30.607,10.003-37.027,12.145c-1.708,0.57-1.997,2.153-1.741,2.922
						c0.205,0.615,13.524,40.544,13.729,41.159c0.257,0.769,1.325,1.538,2.799,1.047c6.908-2.304,37.29-12.151,37.29-12.151
						L401.757,265.352z"/>
					<path style="fill:#FFFFFF;" d="M366.149,278.487l35.965-11.79c-1.002,1.464-0.452,3.112,1.228,3.681l-35.965,11.791
						c-1.274,0.425-2.631-0.014-2.981-1.029c-0.005-0.013-0.009-0.027-0.013-0.04C364.054,280.078,364.875,278.912,366.149,278.487z
						"/>
					
						<line style="fill:none;stroke:#DAE4FE;stroke-width:1.1339;stroke-miterlimit:10;" x1="365.262" y1="281.603" x2="400.554" y2="270.037"/>
					
						<line style="fill:none;stroke:#DAE4FE;stroke-width:1.1339;stroke-miterlimit:10;" x1="365.086" y1="279.957" x2="400.378" y2="268.391"/>
					
						<line style="fill:none;stroke:#AB3A15;stroke-width:1.1339;stroke-miterlimit:10;" x1="366.905" y1="282.553" x2="380.565" y2="322.083"/>
					<path style="fill:none;stroke:#AB3A15;stroke-width:1.1339;stroke-miterlimit:10;" d="M375.719,282.974l21.205-7.323
						c0.783,2.271,3.259,3.476,5.529,2.692l8.923,25.876c-2.282,0.774-3.5,3.256-2.714,5.534l-21.969,7.448
						c-0.73-2.328-3.233-3.599-5.544-2.816l-8.158-26.001C375.214,287.616,376.423,285.219,375.719,282.974z"/>
				</g>
				<g>
					<path style="fill:#814BD9;" d="M419.859,284.849c0,0-27.329-2.917-32.833-3.575c-1.464-0.175-2.25,1.045-2.339,1.789
						c-0.071,0.595-4.264,39.186-4.336,39.781c-0.089,0.745,0.42,1.8,1.684,1.951c5.922,0.708,33.029,3.67,33.029,3.67
						L419.859,284.849z"/>
					
						<line style="fill:none;stroke:#663BAB;stroke-width:1.1339;stroke-miterlimit:10;" x1="386.159" y1="286.121" x2="381.891" y2="324.049"/>
					<path style="fill:#FFFFFF;" d="M387.496,282.102l32.127,3.49c-1.268,0.829-1.456,2.395-0.419,3.5l-32.127-3.491
						c-1.095-0.131-1.94-1.006-1.833-1.975c0.001-0.013,0.003-0.025,0.005-0.038C385.373,282.622,386.4,281.971,387.496,282.102z"/>
					
						<line style="fill:none;stroke:#DAE4FE;stroke-width:1.1339;stroke-miterlimit:10;" x1="385.997" y1="284.44" x2="417.545" y2="287.861"/>
					
						<line style="fill:none;stroke:#DAE4FE;stroke-width:1.1339;stroke-miterlimit:10;" x1="386.18" y1="282.913" x2="417.728" y2="286.334"/>
					<path style="fill:none;stroke:#663BAB;stroke-width:1.1339;stroke-miterlimit:10;" d="M385.306,316.987l2.546-23.85
						c2.894,0.311,5.492-1.784,5.801-4.678l18.38,1.974c-0.309,2.892,1.784,5.486,4.676,5.797l-2.546,23.85
						c-2.894-0.311-5.492,1.784-5.801,4.679l-18.38-1.974C390.29,319.893,388.197,317.298,385.306,316.987z"/>
				</g>
			</g>
			<path style="fill:#F1C754;" d="M421.827,292.579l-57.491,10.868l6.396,49.245c0.329,2.531,1.736,4.796,3.859,6.211l4.953,3.302
				l44.367-8.23c4.775-0.886,7.939-5.461,7.082-10.242L421.827,292.579z"/>
			
				<line style="fill:none;stroke:#DE904D;stroke-width:1.1339;stroke-miterlimit:10;" x1="379.544" y1="362.207" x2="370" y2="302.483"/>
			<polygon style="fill:#DE904D;" points="371.145,312.139 328.504,184.448 320.209,186.522 365.373,313.817 			"/>
			<path style="fill:#6073C9;" d="M397.854,193.376c0,0-6.025-14.965-15.833-21.145c14.013-35.81,8.756-66.315-30.361-63.343
				c-17.685,0.778-43.375,11.677-23.912,43.985c-3.678,6.789,2.197,16.467,2.197,16.467s-1.03,4.059,0.917,10.676
				c-10.767-1.171-15.606,9.025-15.606,9.025s11.566,27.951,27.914,30.287C359.517,221.664,382.842,189.095,397.854,193.376z"/>
			<path style="fill:none;stroke:#495AAB;stroke-width:1.1339;stroke-miterlimit:10;" d="M379.483,181.772
				c0,0-20.143,37.076-37.951,23.647"/>
			<path style="fill:#C47A5D;" d="M323.962,142.119c-4.425,17.474,6.024,28.322,21.322,32.196
				c15.298,3.874,32.526-0.714,36.951-18.188s-7.265-34.759-22.562-38.633C344.375,113.62,328.387,124.645,323.962,142.119z"/>
			<path style="fill:#FFFFFF;" d="M324.405,137.794c0,0,20.241-10.12,43.595,10.51c3.114-31.529-30.75-30.75-30.75-30.75
				S325.572,122.224,324.405,137.794z"/>
			<path style="fill:none;stroke:#DAE4FE;stroke-width:1.1339;stroke-miterlimit:10;" d="M324.869,133.734
				c0,0,22.703-7.599,42.405,8.646"/>
			
				<path style="fill:none;stroke:#843622;stroke-width:1.1339;stroke-linecap:round;stroke-linejoin:round;stroke-miterlimit:10;" d="
				M335.669,152.471c-3.623-3.082-6.215,4.145-0.842,4.391"/>
			<path style="fill:#272532;" d="M348.981,149.373c-0.076,1.426-0.813,2.545-1.644,2.501c-0.832-0.045-1.444-1.236-1.367-2.662
				c0.076-1.426,0.813-2.545,1.644-2.501C348.445,146.755,349.057,147.947,348.981,149.373z"/>
			<path style="fill:#272532;" d="M330.556,148.155c-0.076,1.426-0.813,2.545-1.644,2.501c-0.832-0.044-1.444-1.236-1.367-2.662
				c0.076-1.426,0.813-2.545,1.644-2.501C330.021,145.537,330.633,146.729,330.556,148.155z"/>
			<path style="fill:none;stroke:#762F0E;stroke-width:1.1339;stroke-miterlimit:10;" d="M330.949,140.559
				c0,0-2.305,0.193-3.087,1.971"/>
			<path style="fill:none;stroke:#762F0E;stroke-width:1.1339;stroke-miterlimit:10;" d="M350.053,142.09
				c0,0-1.721-1.545-3.551-0.896"/>
			<path style="fill:#6073C9;" d="M346.981,176.718c0,0,24.133-11.288,19.852-35.81c-4.282-18.295-26.469-21.019-37.757-17.905
				c14.013-17.905,46.709-13.623,52.937-1.168s7.785,34.928-3.503,50.498C367.221,187.902,346.981,176.718,346.981,176.718z"/>
			<path style="fill:none;stroke:#495AAB;stroke-width:1.1339;stroke-miterlimit:10;" d="M330.861,180.017
				c0,0,4.539,5.842,9.794,7.302"/>
			<path style="fill:none;stroke:#495AAB;stroke-width:1.1339;stroke-miterlimit:10;" d="M329.599,169.686
				c0,0,8.987,11.752,21.566,10.334c9.643-1.087,16.64-12.261,18.1-16.348"/>
			<path style="fill:none;stroke:#495AAB;stroke-width:1.1339;stroke-miterlimit:10;" d="M362.842,124.845
				c0,0,22.187,8.174,9.634,42.914"/>
			<path style="fill:none;stroke:#495AAB;stroke-width:1.1339;stroke-miterlimit:10;" d="M381.818,130.391
				c0,0,6.131,25.106-7.882,42.914"/>
			<path style="fill:none;stroke:#495AAB;stroke-width:1.1339;stroke-miterlimit:10;" d="M382.021,172.232
				c0,0-8.377,12.167-20.93,12.167"/>
			<path style="fill:none;stroke:#495AAB;stroke-width:1.1339;stroke-miterlimit:10;" d="M321.972,124.845
				c0,0,7.59-3.211,16.056-3.211"/>
			<path style="fill:none;stroke:#495AAB;stroke-width:1.1339;stroke-miterlimit:10;" d="M356.712,111.708
				c0,0,16.348,2.627,20.143,18.976"/>
			
				<path style="fill:none;stroke:#843622;stroke-width:1.1339;stroke-linecap:round;stroke-linejoin:round;stroke-miterlimit:10;" d="
				M334.653,160.511c0,0,3.302,2.607,6.778-1.043"/>
			<g>
				<g>
					<path style="fill:#CACACA;" d="M332.649,218.016H230.136c-1.602,0-2.901-1.299-2.901-2.901v-2.834h108.314v2.834
						C335.549,216.717,334.251,218.016,332.649,218.016z"/>
					<path style="fill:#ABABAB;" d="M299.993,218.016h-69.857c-1.602,0-2.901-1.299-2.901-2.901v-2.834h75.658v2.834
						C302.894,216.717,301.595,218.016,299.993,218.016z"/>
					<path style="fill:none;stroke:#6E6E6E;stroke-width:1.1339;stroke-miterlimit:10;" d="M248.359,212.281
						c0,0-0.485,3.632,0,3.632c0.485,0,33.626,0,33.626,0v-3.632"/>
					
						<rect x="309.36" y="214.097" style="fill:none;stroke:#6E6E6E;stroke-width:1.1339;stroke-miterlimit:10;" width="21.016" height="2.581"/>
				</g>
			</g>
			<path style="fill:none;stroke:#5F823C;stroke-width:1.1339;stroke-miterlimit:10;" d="M307.89,280.27
				c0.695-16.684,2.526-56.319,2.526-56.319"/>
			
				<line style="fill:none;stroke:#A4B883;stroke-width:1.1339;stroke-miterlimit:10;" x1="283.906" y1="222.882" x2="273.826" y2="260.42"/>
			
				<line style="fill:none;stroke:#A4B883;stroke-width:1.1339;stroke-miterlimit:10;" x1="289.119" y1="224.832" x2="279.387" y2="263.548"/>
			<g>
				<g>
					<path style="fill:#C47A5D;" d="M329.115,186.668c-0.07-0.062-0.146-0.121-0.224-0.179c-5.427-4.368-14.57-2.929-14.823,0.214
						c-6.712-0.296-10.048,2.049-10.915,5.33c-2.039,0.835-3.924,2.028-5.566,3.434c-4.986,4.265-2.036,8.442,4.164,6.07
						c-1.569,4.748-0.265,9.552,2.189,9.825c2.908,0.324,3.992-4.048,3.992-4.048c8.11,5.397,12.943,3.994,12.943,3.994
						l10.226,11.39l16.835-14.237C347.936,208.461,335.444,192.21,329.115,186.668z"/>
					
						<path style="fill:none;stroke:#843622;stroke-width:1.1339;stroke-linecap:round;stroke-linejoin:round;stroke-miterlimit:10;" d="
						M302.214,201.415c2.291-6.551,8.224-7.011,8.224-7.011"/>
					
						<path style="fill:none;stroke:#843622;stroke-width:1.1339;stroke-linecap:round;stroke-linejoin:round;stroke-miterlimit:10;" d="
						M303.284,191.942c0,0,6.607-3.169,11.336-1.691"/>
					
						<path style="fill:none;stroke:#843622;stroke-width:1.1339;stroke-linecap:round;stroke-linejoin:round;stroke-miterlimit:10;" d="
						M312.925,187.052c0,0,3.536-0.818,7.423,0.334"/>
					<path style="fill:#B55934;" d="M324.593,191.399"/>
					
						<line style="fill:none;stroke:#843622;stroke-width:1.1339;stroke-linecap:round;stroke-linejoin:round;stroke-miterlimit:10;" x1="307.88" y1="207.648" x2="308.905" y2="203.898"/>
				</g>
				<path style="fill:#8DA664;" d="M401.182,225.853c0,0-14.06,54.623-43.473,45.38c-21.379-6.718-38.479-43.998-38.479-43.998
					l25.667-22.794l13.333,18.557l9.149,9.673"/>
				<path style="fill:none;stroke:#5F823C;stroke-width:1.1339;stroke-miterlimit:10;" d="M357.362,270.886
					c27.806,11.122,39.949-18.491,40.309-53.036"/>
				
					<line style="fill:none;stroke:#A4B883;stroke-width:1.1339;stroke-miterlimit:10;" x1="321.822" y1="232.938" x2="349.078" y2="211.083"/>
				
					<line style="fill:none;stroke:#A4B883;stroke-width:1.1339;stroke-miterlimit:10;" x1="325.797" y1="238.468" x2="353.102" y2="216.174"/>
			</g>
			
				<line style="fill:none;stroke:#5F823C;stroke-width:1.1339;stroke-miterlimit:10;" x1="358.23" y1="222.997" x2="369.179" y2="235.085"/>
			<g>
				<path style="fill:#ABABAB;" d="M286.071,144.995h-71.275c-1.392,0-2.405,1.56-2.046,3.15l14.485,64.137h75.658l-14.777-65.429
					C287.869,145.757,287.03,144.995,286.071,144.995z"/>
				<path style="fill:#CACACA;" d="M283.323,144.995h-71.275c-1.392,0-2.405,1.56-2.046,3.15l14.485,64.137h75.658l-14.777-65.429
					C285.121,145.757,284.282,144.995,283.323,144.995z"/>
				<path style="fill:none;stroke:#6E6E6E;stroke-width:1.1339;stroke-miterlimit:10;" d="M227.235,212.281
					c0.97,0,76.628,0,76.628,0"/>
				<path style="fill:none;stroke:#FFFFFF;stroke-width:1.1339;stroke-miterlimit:10;" d="M257.321,180.31
					c0.733,3.905-1.278,7.07-4.492,7.07c-3.214,0-6.414-3.165-7.147-7.07c-0.733-3.905,1.278-7.07,4.492-7.07
					S256.588,176.406,257.321,180.31z"/>
				<path style="fill:#C47A5D;" d="M237.214,221.914c-11.058-8.016-8.477-12.583-5.875-13.713c2.39-1.039,7.414,9.561,7.414,9.561
					s-4.217-12.136,0.615-12.904c4.831-0.768,6.145,13.208,6.145,13.208s-0.922-12.658,3.38-13.239
					c4.301-0.581,3.052,14.393,3.052,14.393s0-13.748,4.475-13.44c3.682,0.253,3.687,13.44,3.687,13.44"/>
				
					<line style="fill:none;stroke:#843622;stroke-width:1.1339;stroke-linecap:round;stroke-linejoin:round;stroke-miterlimit:10;" x1="252.548" y1="212.125" x2="252.548" y2="220.374"/>
				
					<line style="fill:none;stroke:#843622;stroke-width:1.1339;stroke-linecap:round;stroke-linejoin:round;stroke-miterlimit:10;" x1="244.979" y1="214.419" x2="245.924" y2="219.841"/>
				
					<line style="fill:none;stroke:#843622;stroke-width:1.1339;stroke-linecap:round;stroke-linejoin:round;stroke-miterlimit:10;" x1="238.274" y1="216.792" x2="240.834" y2="220.374"/>
				
					<path style="fill:none;stroke:#843622;stroke-width:1.1339;stroke-linecap:round;stroke-linejoin:round;stroke-miterlimit:10;" d="
					M260.106,218.067v2.307c0,0,9.524-3.072,13.672,3.38"/>
			</g>
			<path style="fill:none;stroke:#495AAB;stroke-width:1.1339;stroke-miterlimit:10;" d="M397.286,187.774
				c-5.3-4.378-12.213,0.691-19.817,6.682"/>
			<path style="fill:#FFFFFF;" d="M383.225,442.452c-9.8,7.114-25.579,4.809-27.285-1.738c-0.113-1.81,0-9.558,9.211-9.211
				C376.12,431.76,382.003,434.525,383.225,442.452z"/>
			<path style="fill:none;stroke:#DAE4FE;stroke-width:1.1339;stroke-miterlimit:10;" d="M383.225,441.236
				c0,0-14.772,7.125-27.285-0.521"/>
			
				<line style="fill:none;stroke:#DE904D;stroke-width:1.1339;stroke-miterlimit:10;" x1="366.996" y1="325.224" x2="373.124" y2="324.969"/>
			
				<line style="fill:none;stroke:#DE904D;stroke-width:1.1339;stroke-miterlimit:10;" x1="370.826" y1="307.607" x2="422.656" y2="297.394"/>
			<path style="fill:none;stroke:#DE904D;stroke-width:1.1339;stroke-miterlimit:10;" d="M384.613,328.032l35.489-6.383
				c0,0,6.128,22.468-14.808,25.021C384.358,349.224,384.613,328.032,384.613,328.032z"/>
			
				<line style="fill:none;stroke:#DE904D;stroke-width:1.1339;stroke-miterlimit:10;" x1="384.358" y1="332.117" x2="420.613" y2="325.734"/>
			<polyline style="fill:none;stroke:#A4B883;stroke-width:1.1339;stroke-miterlimit:10;" points="303.167,367.862 314.911,369.905 
				318.486,218.245 			"/>
		</g>
		<g>
			<g>
				<g>
					<polygon style="fill:#B55934;" points="164.915,371.281 192.792,372.444 191.662,407.892 168.268,424.448 					"/>
					<path style="fill:#FFFFFF;" d="M217.671,432.633c0.007,1.449,0.845,3.559,0.242,4.82c-2.478,5.183-33.859,5.63-52.439-8.52
						c-3.104-2.364-0.734-7.237-1.043-7.473C172.917,424.76,207.684,443.273,217.671,432.633z"/>
					<path style="fill:#8DA664;" d="M180.593,410.338c-0.832-7.456,10.66-9.345,14.263-3.4c3.027,4.995,3.254,6.148,7.09,9.444
						c6.754,5.803,15.711,13.173,15.726,16.251c-1.929,7.975-43.659,3.63-53.649-9.604c-0.808-7.303,1.734-12.477,2.781-13.915
						C169.699,412.196,177.564,412.6,180.593,410.338z"/>
					<path style="fill:none;stroke:#FFFFFF;stroke-width:1.1339;stroke-miterlimit:10;" d="M200.561,414.511
						c0,0-7.758-0.922-13.711,3.474"/>
					<path style="fill:none;stroke:#FFFFFF;stroke-width:1.1339;stroke-miterlimit:10;" d="M204.111,418.003
						c0,0-9.874-0.816-14.182,3.893"/>
					<path style="fill:none;stroke:#FFFFFF;stroke-width:1.1339;stroke-miterlimit:10;" d="M207.357,421.113
						c0,0-10.777,0.908-13.521,4.778"/>
					<path style="fill:none;stroke:#FFFFFF;stroke-width:1.1339;stroke-miterlimit:10;" d="M197.406,410.839
						c-5.961-1.82-12.993,1.855-13.684,3.322"/>
				</g>
				<path style="fill:#FFFFFF;" d="M195.162,437.941c10.643,0.804,21.387-0.67,22.51-5.309c-0.009-1.814-2.044-7.834-7.674-9.767
					C199.071,423.86,195.847,429.95,195.162,437.941z"/>
				<path style="fill:none;stroke:#5F823C;stroke-width:1.1339;stroke-miterlimit:10;" d="M180.593,410.338
					c0,0,7.026,11.96,17.624,17.826"/>
			</g>
			<g>
				<g>
					<polygon style="fill:#B55934;" points="110.587,376.638 138.322,379.675 134.807,414.967 111.498,431.263 					"/>
					<path style="fill:#FFFFFF;" d="M152.613,441.446c-0.091,1.446,0.542,3.61-0.521,4.518c-5.13,4.385-25.688,5.637-43.273-9.732
						c-2.938-2.568-1.632-7.164-1.924-7.42C115.139,432.677,141.931,451.389,152.613,441.446z"/>
					<path style="fill:#8DA664;" d="M120.231,417.637c-0.328-7.496,13.787-8.689,14.83,0c2.684,5.187,17.379,11.354,17.552,23.809
						c-2.462,7.827-36.179,1.992-45.255-11.884c-2.679-8.101,2.23-13.862,3.372-15.227
						C113.412,417.605,117.057,419.69,120.231,417.637z"/>
					<path style="fill:none;stroke:#FFFFFF;stroke-width:1.1339;stroke-miterlimit:10;" d="M138.073,422.272
						c0,0-8.015-1.437-14.25,2.549"/>
					<path style="fill:none;stroke:#FFFFFF;stroke-width:1.1339;stroke-miterlimit:10;" d="M140.622,425.747
						c0,0-8.708-1.164-13.324,3.244"/>
					<path style="fill:none;stroke:#FFFFFF;stroke-width:1.1339;stroke-miterlimit:10;" d="M143.519,429.571
						c0,0-5.793-1.622-13.671,2.665"/>
					<path style="fill:none;stroke:#FFFFFF;stroke-width:1.1339;stroke-miterlimit:10;" d="M135.408,418.332
						c-5.825-2.217-12.767,1.479-13.555,2.897"/>
				</g>
				<path style="fill:none;stroke:#5F823C;stroke-width:1.1339;stroke-miterlimit:10;" d="M120.231,417.869
					c0,0,3.707,9.848,13.266,18.19"/>
			</g>
			<path style="fill:#E0643B;" d="M193.975,400.039c0,0,3.63-34.044,3.103-53.97c-0.432-16.312-10.537-71.531-12.557-76.84
				c-9.349,3.064-30.455-1.157-39.804,1.906c1.535,16.765,13.72,77.216,13.72,77.216s4.898,49.719,5.125,52.209
				C169.489,401.576,188.335,401.891,193.975,400.039z"/>
			<path style="fill:#E0643B;" d="M116.472,268.684c-1.52,8.615-5.322,94.908-10.607,137.483c5.05,2.818,28.628,4.57,34.062,1.043
				l14.658-79.087l5.018-0.844l-1.858-59.429L116.472,268.684z"/>
			<path style="fill:none;stroke:#1A2E36;stroke-width:1.1339;stroke-miterlimit:10;" d="M134.434,331.783"/>
			<polyline style="fill:none;stroke:#AB3A15;stroke-width:1.1339;stroke-miterlimit:10;" points="123.606,273.775 115.662,356.753 
				109.862,399.737 			"/>
			<path style="fill:none;stroke:#AB3A15;stroke-width:1.1339;stroke-miterlimit:10;" d="M140.622,401.649
				c-3.45,0.655-9.796,1.192-16.434,0.426c-5.708-0.659-13.673-2.444-17.454-3.38"/>
			<path style="fill:none;stroke:#AB3A15;stroke-width:1.1339;stroke-miterlimit:10;" d="M194.8,392.445
				c-8.735,3.172-28.152,3.095-31.548,2.225"/>
			<path style="fill:#FFFFFF;" d="M125.329,443.184c9.8,7.114,25.579,4.809,27.285-1.738c0.113-1.81,0-9.558-9.211-9.211
				C132.434,432.491,126.551,435.257,125.329,443.184z"/>
			
				<line style="fill:none;stroke:#5F823C;stroke-width:1.1339;stroke-miterlimit:10;" x1="146.183" y1="432.583" x2="135.061" y2="418.101"/>
			<path style="fill:none;stroke:#DAE4FE;stroke-width:1.1339;stroke-miterlimit:10;" d="M125.329,441.967
				c0,0,14.772,7.125,27.285-0.521"/>
			<path style="fill:none;stroke:#DAE4FE;stroke-width:1.1339;stroke-miterlimit:10;" d="M195.191,436.059
				c0,0,18.769,2.781,22.94-2.433"/>
			<path style="fill:#6073C9;" d="M175.727,179.838c0,0,27.111,4.866,36.843,61.868c-45.88,14.598-45.88,14.598-45.88,14.598
				L175.727,179.838z"/>
			<g>
				<g>
					<path style="fill:#8DA664;" d="M242.735,267.627c0,0-15.156-41.149-18.394-49.778c-0.861-2.295-3.031-2.609-4.065-2.221
						c-0.826,0.31-54.495,20.448-55.321,20.758c-1.034,0.388-2.027,1.881-1.283,3.863c3.484,9.285,18.416,50.135,18.416,50.135
						L242.735,267.627z"/>
					<path style="fill:#FFFFFF;" d="M223.066,219.83l17.858,48.351c-2.043-1.29-4.258-0.459-4.948,1.857l-17.858-48.351
						c-0.643-1.713-0.113-3.581,1.25-4.109c0.018-0.007,0.036-0.014,0.054-0.02C220.795,217.059,222.423,218.117,223.066,219.83z"/>
					
						<line style="fill:none;stroke:#DAE4FE;stroke-width:1.1339;stroke-miterlimit:10;" x1="218.78" y1="218.78" x2="236.298" y2="266.226"/>
					
						<line style="fill:none;stroke:#DAE4FE;stroke-width:1.1339;stroke-miterlimit:10;" x1="221.011" y1="218.458" x2="238.53" y2="265.904"/>
					
						<line style="fill:none;stroke:#5F823C;stroke-width:1.1339;stroke-miterlimit:10;" x1="217.57" y1="221.063" x2="163.198" y2="241.465"/>
				</g>
				<g>
					<path style="fill:#814BD9;" d="M222.313,273.866c0,0-10.618-35.892-12.667-43.157c-0.545-1.932-2.49-2.283-3.472-2.006
						c-0.785,0.222-51.507,15.12-52.292,15.342c-0.983,0.277-2.044,1.469-1.573,3.137c2.205,7.818,12.649,43.453,12.649,43.453
						L222.313,273.866z"/>
					
						<line style="fill:none;stroke:#663BAB;stroke-width:1.1339;stroke-miterlimit:10;" x1="203.097" y1="232.152" x2="153.17" y2="246.61"/>
					<path style="fill:#FFFFFF;" d="M208.85,231.732l12.404,42.225c-1.705-1.162-3.773-0.579-4.62,1.303l-12.404-42.225
						c-0.408-1.446,0.251-2.966,1.525-3.338c0.017-0.005,0.033-0.01,0.05-0.014C207.086,229.335,208.442,230.286,208.85,231.732z"/>
					
						<line style="fill:none;stroke:#DAE4FE;stroke-width:1.1339;stroke-miterlimit:10;" x1="205.101" y1="231.526" x2="217.29" y2="272.987"/>
					
						<line style="fill:none;stroke:#DAE4FE;stroke-width:1.1339;stroke-miterlimit:10;" x1="207.142" y1="230.501" x2="219.33" y2="271.962"/>
					<path style="fill:none;stroke:#663BAB;stroke-width:1.1339;stroke-miterlimit:10;" d="M183.202,245.612l14.652-4.818
						c0.655,2.219,3.015,3.456,5.212,2.734l6.936,23.506c-2.156,0.653-3.382,2.923-2.744,5.084l-14.994,4.537
						c-0.626-2.204-2.937-3.467-5.131-2.804l-6.595-23.225C182.628,249.939,183.803,247.727,183.202,245.612z"/>
				</g>
			</g>
			<path style="fill:#8DA664;" d="M116.449,171.69c-22.386-2.689-34.659,16.694-37.87,49.682
				c-3.211,32.988-0.973,65.49,39.897,59.944C159.347,275.769,153.663,176.16,116.449,171.69z"/>
			
				<line style="fill:none;stroke:#5F823C;stroke-width:1.1339;stroke-miterlimit:10;" x1="89.478" y1="217.48" x2="79.747" y2="214.755"/>
			<path style="fill:#8DA664;" d="M88.138,230.237l-16.336-2.433c0,0-7.009,44.746,20.469,38.525
				C87.058,241.998,88.138,230.237,88.138,230.237z"/>
			<path style="fill:#5F823C;" d="M90.025,223.124c0,0-11.924-3.111-14.171-2.247c-2.247,0.864-5.357,6.567-5.876,10.542
				c20.047,4.839,20.047,4.839,20.047,4.839V223.124z"/>
			<path style="fill:#8DA664;" d="M124.623,171.69c-22.386-2.689-33.39,16.869-36.601,49.857
				c-3.211,32.988-2.242,65.315,38.628,59.769C167.521,275.769,161.837,176.16,124.623,171.69z"/>
			<path style="fill:#5F823C;" d="M130.119,178.882c-22.386-2.689-32.562,13.327-35.774,46.316
				c-3.211,32.988-8.565,61.665,32.305,56.118C167.521,275.769,167.333,183.351,130.119,178.882z"/>
			<path style="fill:#6073C9;" d="M117.504,178.945c-27.247,0.779-66.017,114.171-0.692,94.469
				C137.831,255.509,140.275,181.75,117.504,178.945z"/>
			<path style="fill:#6073C9;" d="M201.448,343.256c-0.647-9.605-18.401-141.637-25.337-162.755
				c-0.501-0.361-40.504-3.878-48.947,1.752c-1.24,7.369-4.13,18.036-3.545,31.527c0.49,11.294-16.905,122.378-17.059,125.826
				C138.964,357.999,189.892,348.375,201.448,343.256z"/>
			<path style="fill:#A0ABDF;" d="M107.081,335.436c0,0,53.607,19.014,93.894,2.958l-0.518-5.53c0,0-46.466,12.863-92.609-3.555
				C107.329,331.556,107.081,335.436,107.081,335.436z"/>
			<path style="fill:#A0ABDF;" d="M156.519,333.118c-28.135,0-47.88-6.64-48.161-6.746l0.511-3.447
				c0.402,0.152,41.28,15.273,90.383,1.404l0.511,4.213C183.883,333.027,169.597,333.118,156.519,333.118z"/>
			<path style="fill:none;stroke:#1A2E36;stroke-width:1.1339;stroke-miterlimit:10;" d="M130.653,265.349"/>
			<path style="fill:#EDB4C6;" d="M118.663,187.407c0,0-1.416-9.85,4.812-14.521c-17.842-29.66-5.783-66.586,33.334-63.614
				c17.684,0.778,38.73,17.27,23.912,43.985c-8.174,15.57-8.174,15.57-8.174,15.57s7.006,4.956,5.06,11.574
				c8.953,1.168,11.677,7.006,11.677,7.006s-7.396,34.253-23.744,36.589C149.193,226.332,133.675,183.126,118.663,187.407z"/>
			<path style="fill:none;stroke:#C28296;stroke-width:1.1339;stroke-miterlimit:10;" d="M129.677,181.734
				c0,0,19.452,37.497,37.26,24.068"/>
			<path style="fill:#B55934;" d="M182.002,143.137c0.355,21.293-5.49,28.187-20.128,31.893c-14.638,3.707-31.216-1.046-35.64-18.52
				c-4.425-17.474,6.614-34.595,21.252-38.301C162.124,114.503,181.703,125.158,182.002,143.137z"/>
			<g>
				<path style="fill:#E1B25F;" d="M176.061,155.797c-4.737,0-8.684-3.754-8.878-8.529l0,0c-0.199-4.897,3.624-9.043,8.521-9.242
					c4.896-0.202,9.044,3.624,9.242,8.522c0.199,4.897-3.624,9.044-8.521,9.242C176.303,155.795,176.182,155.797,176.061,155.797z
					 M168.25,147.225c0.175,4.309,3.82,7.662,8.132,7.498c4.309-0.175,7.672-3.823,7.498-8.132c-0.175-4.309-3.825-7.67-8.132-7.497
					C171.439,139.268,168.075,142.916,168.25,147.225L168.25,147.225z"/>
				<path style="fill:#E1B25F;" d="M156.83,156.662c-4.737,0-8.684-3.754-8.878-8.529l0,0c-0.096-2.372,0.737-4.64,2.347-6.386
					c1.61-1.746,3.802-2.76,6.175-2.856c4.891-0.198,9.044,3.624,9.242,8.521c0.199,4.897-3.624,9.044-8.521,9.242
					C157.073,156.659,156.951,156.662,156.83,156.662z M149.019,148.089c0.175,4.309,3.822,7.664,8.132,7.498
					c4.309-0.175,7.672-3.823,7.498-8.132c-0.175-4.309-3.824-7.668-8.132-7.498C152.208,140.133,148.845,143.78,149.019,148.089
					L149.019,148.089z"/>
				
					<rect x="140.672" y="140.114" transform="matrix(0.036 -0.9994 0.9994 0.036 -11.0222 283.0493)" style="fill:#E1B25F;" width="1.068" height="14.248"/>
				<path style="fill:#E1B25F;" d="M165.391,146.958l-0.787-0.722c1.386-1.511,2.934-0.948,3.559-0.438l-0.671,0.831
					C167.316,146.492,166.394,145.863,165.391,146.958z"/>
			</g>
			<path style="fill:#373C40;" d="M182.099,139.983c0,0-25.025-13.439-51.673,4.171c-3.114-31.529,40.793-26.217,40.793-26.217
				S180.932,124.413,182.099,139.983z"/>
			<path style="fill:none;stroke:#21262B;stroke-width:1.1339;stroke-miterlimit:10;" d="M181.173,134.885
				c0,0-27.342-10.196-48.429,3.244"/>
			
				<path style="fill:#B55934;stroke:#5E2813;stroke-width:1.1339;stroke-linecap:round;stroke-linejoin:round;stroke-miterlimit:10;" d="
				M168.555,152.836c3.215-2.37,5.291,3.264-0.086,3.134"/>
			
				<path style="fill:none;stroke:#5E2813;stroke-width:1.1339;stroke-linecap:round;stroke-linejoin:round;stroke-miterlimit:10;" d="
				M167.404,160.601c-1.436,3.77-6.9,3.777-6.353-1.279C163.106,160.659,166.755,160.812,167.404,160.601z"/>
			<path style="fill:#272532;" d="M155.493,148.816c-0.023,1.427,0.633,2.596,1.465,2.609c0.833,0.014,1.527-1.132,1.55-2.56
				c0.023-1.427-0.633-2.596-1.465-2.609C156.21,146.242,155.516,147.388,155.493,148.816z"/>
			<path style="fill:#272532;" d="M173.957,148.888c-0.023,1.428,0.633,2.596,1.465,2.609c0.833,0.014,1.527-1.132,1.55-2.56
				c0.023-1.428-0.633-2.596-1.465-2.609C174.675,146.314,173.981,147.461,173.957,148.888z"/>
			<path style="fill:none;stroke:#762F0E;stroke-width:1.1339;stroke-miterlimit:10;" d="M173.876,142.946
				c0,0,2.174-0.803,3.647,0.474"/>
			<path style="fill:none;stroke:#762F0E;stroke-width:1.1339;stroke-miterlimit:10;" d="M154.741,143.582
				c0,0,1.825-1.421,3.605-0.645"/>
			<path style="fill:#EDB4C6;" d="M161.488,177.102c0,0-24.581,0.079-22.958-35.837c4.282-18.295,29.576-20.993,40.864-17.879
				c-14.013-17.905-46.709-13.623-52.937-1.168c-6.228,12.456-7.785,34.928,3.503,50.498
				C141.247,188.286,161.488,177.102,161.488,177.102z"/>
			<g>
				<path style="fill:#373C40;" d="M131.077,236.923c-4.198,16.616-11.527,27.848-11.457,27.856c0,0-1.358-0.342-4.008-0.989
					c5.392-5.966,10.227-18.614,11.188-27.767C129.937,236.801,128.127,236.49,131.077,236.923z"/>
				<path style="fill:#8DA664;" d="M124.275,227.738c3.48,0.242,5.539,0.208,8.961-0.542c-0.193,3.305,0.133,4.164-0.434,7.048
					c-0.345,1.75-1.388,3.378-3.209,2.99c-0.881-0.188-1.772-0.395-2.669-0.612c-1.729-0.419-2.905-2.03-2.793-3.74
					C124.282,230.591,124.324,230.077,124.275,227.738z"/>
				<path style="fill:#B55934;" d="M124.16,227.159l-6.693,7.807l-15.459-12.165c0,0,0.364-20.755,18.426-24.095
					C122.306,211.373,124.16,227.159,124.16,227.159z"/>
				<path style="fill:#5F823C;" d="M124.275,227.738c-0.36-23.778-15.605-38.304-17.947-44.655c0.009,0,5.175-5.69,12.049-6.025
					c11.215,20.096,15.297,36.614,14.511,50.138C129.466,227.946,127.755,227.98,124.275,227.738z"/>
				<path style="fill:none;stroke:#8DA664;stroke-width:1.1339;stroke-miterlimit:10;" d="M108.805,187.096
					c1.752-2.19,5.072-4.95,11.872-5.553"/>
			</g>
			<g>
				<g>
					<path style="fill:#B55934;" d="M134.018,203.995c2.677,6.315-5.83,4.179-5.83,4.179s6.357-1.906,6.699,2.425
						c0.35,4.444-2.58,4.112-2.58,4.112s3.419,0.094,3.449,2.839c0.056,5.27-5.235,4.579-5.235,4.579s3.839-0.791,4.019,2.633
						c0.179,3.426-2.521,4.493-11.113,5.033c-10.173,0.639-10.336-14.155-10.336-14.155c-0.275-6.194-0.083-11.227,6.052-12.129
						C121.531,203.159,132.277,199.889,134.018,203.995z"/>
					
						<line style="fill:none;stroke:#5E2813;stroke-width:1.1339;stroke-linecap:round;stroke-linejoin:round;stroke-miterlimit:10;" x1="119.028" y1="203.587" x2="115.828" y2="204.284"/>
					
						<path style="fill:none;stroke:#5E2813;stroke-width:1.1339;stroke-linecap:round;stroke-linejoin:round;stroke-miterlimit:10;" d="
						M133.149,208.079c0,0-3.382,0.86-6.343,1.13"/>
					
						<line style="fill:none;stroke:#5E2813;stroke-width:1.1339;stroke-linecap:round;stroke-linejoin:round;stroke-miterlimit:10;" x1="133.671" y1="214.683" x2="128.11" y2="215.144"/>
					
						<line style="fill:none;stroke:#5E2813;stroke-width:1.1339;stroke-linecap:round;stroke-linejoin:round;stroke-miterlimit:10;" x1="133.671" y1="221.808" x2="127.964" y2="222.589"/>
				</g>
			</g>
			<path style="fill:none;stroke:#C28296;stroke-width:1.1339;stroke-miterlimit:10;" d="M177.608,180.401
				c0,0-4.54,5.842-9.794,7.302"/>
			<path style="fill:none;stroke:#C28296;stroke-width:1.1339;stroke-miterlimit:10;" d="M132.308,126.057
				c0,0-14.978,19.817,2.225,47.633"/>
			<path style="fill:none;stroke:#C28296;stroke-width:1.1339;stroke-miterlimit:10;" d="M126.448,172.616
				c0,0,8.377,12.167,20.93,12.167"/>
			<path style="fill:none;stroke:#C28296;stroke-width:1.1339;stroke-miterlimit:10;" d="M183.258,125.385
				c0,0-4.351-3.367-12.817-3.367"/>
			<path style="fill:none;stroke:#C28296;stroke-width:1.1339;stroke-miterlimit:10;" d="M157.885,116.149
				c0,0-19.247,1.164-23.042,17.512"/>
			<path style="fill:#6073C9;" d="M114.902,273.336c5.839-5.839,10.387-35.032,10.387-35.032l-24.328-19.219l-7.736,23.501"/>
			
				<rect x="105.217" y="229.319" transform="matrix(0.5178 -0.8555 0.8555 0.5178 -159.3165 210.0046)" style="fill:#A0ABDF;" width="2.835" height="34.023"/>
			<path style="fill:#A0ABDF;" d="M124.891,241.161c0,0-18.558-9.699-29.359-17.289l-2.592,9.678
				c10.801,7.59,29.552,16.072,29.552,16.072L124.891,241.161z"/>
			<path style="fill:none;stroke:#5F823C;stroke-width:1.1339;stroke-miterlimit:10;" d="M115.168,171.549
				c-20.241,4.671-28.415,32.697-30.361,44.374"/>
			<path style="fill:none;stroke:#5F823C;stroke-width:1.1339;stroke-miterlimit:10;" d="M109.381,172.142
				c-20.241,4.671-25.738,31.758-27.684,43.435"/>
			<path style="fill:#B55934;" d="M197.624,285.849c-6.394-11.335,1.738-9.732,4.866-4.518c-4.519-11.122,3.128-11.818,6.604-3.823
				c-3.476-12.165,5.909-11.47,8.342-2.085c-1.39-15.293,5.909-7.994,7.299,0.695C226.126,284.806,205.271,299.404,197.624,285.849z
				"/>
			
				<line style="fill:none;stroke:#5E2813;stroke-width:1.1339;stroke-linecap:round;stroke-linejoin:round;stroke-miterlimit:10;" x1="201.1" y1="279.592" x2="204.576" y2="284.458"/>
			
				<line style="fill:none;stroke:#5E2813;stroke-width:1.1339;stroke-linecap:round;stroke-linejoin:round;stroke-miterlimit:10;" x1="207.704" y1="274.726" x2="212.57" y2="282.373"/>
			
				<line style="fill:none;stroke:#5E2813;stroke-width:1.1339;stroke-linecap:round;stroke-linejoin:round;stroke-miterlimit:10;" x1="215.351" y1="271.598" x2="219.174" y2="279.245"/>
			
				<line style="fill:none;stroke:#495AAB;stroke-width:1.1339;stroke-miterlimit:10;" x1="186.154" y1="228.499" x2="184.069" y2="212.858"/>
			<path style="fill:none;stroke:#C28296;stroke-width:1.1339;stroke-miterlimit:10;" d="M156.503,175.829
				c0,0,5.53,4.839,13.134,2.074"/>
			<polygon style="fill:#F1C754;" points="81.902,232.456 80.866,237.986 75.681,237.122 76.891,230.9 			"/>
			<polyline style="fill:none;stroke:#495AAB;stroke-width:1.1339;stroke-miterlimit:10;" points="89.852,244.553 97.802,216.729 
				102.122,220.013 			"/>
			<path style="fill:none;stroke:#495AAB;stroke-width:1.1339;stroke-miterlimit:10;" d="M119.219,233.509"/>
			<path style="fill:none;stroke:#495AAB;stroke-width:1.1339;stroke-miterlimit:10;" d="M114.902,273.336
				c5.839-5.839,10.387-35.032,10.387-35.032l-6.07-4.795"/>
			<g>
				
					<line style="fill:none;stroke:#F0C3D1;stroke-width:1.1339;stroke-miterlimit:10;" x1="153.927" y1="119.642" x2="151.547" y2="122.815"/>
				
					<line style="fill:none;stroke:#F0C3D1;stroke-width:1.1339;stroke-miterlimit:10;" x1="167.31" y1="113.881" x2="163.173" y2="114.75"/>
				
					<line style="fill:none;stroke:#F0C3D1;stroke-width:1.1339;stroke-miterlimit:10;" x1="148.757" y1="112.726" x2="150.511" y2="115.905"/>
				
					<line style="fill:none;stroke:#F0C3D1;stroke-width:1.1339;stroke-miterlimit:10;" x1="138.051" y1="113.092" x2="134.149" y2="115.539"/>
				
					<line style="fill:none;stroke:#F0C3D1;stroke-width:1.1339;stroke-miterlimit:10;" x1="131.759" y1="120.164" x2="129.504" y2="123.675"/>
				
					<line style="fill:none;stroke:#F0C3D1;stroke-width:1.1339;stroke-miterlimit:10;" x1="142.24" y1="114.957" x2="142.904" y2="119.227"/>
				
					<line style="fill:none;stroke:#F0C3D1;stroke-width:1.1339;stroke-miterlimit:10;" x1="171.65" y1="117.307" x2="168.919" y2="120.103"/>
				
					<line style="fill:none;stroke:#F0C3D1;stroke-width:1.1339;stroke-miterlimit:10;" x1="140.334" y1="126.291" x2="140.909" y2="130.475"/>
				
					<line style="fill:none;stroke:#F0C3D1;stroke-width:1.1339;stroke-miterlimit:10;" x1="125.019" y1="126.346" x2="125.008" y2="130.419"/>
				
					<line style="fill:none;stroke:#F0C3D1;stroke-width:1.1339;stroke-miterlimit:10;" x1="134.13" y1="141.391" x2="133.923" y2="145.593"/>
				
					<line style="fill:none;stroke:#F0C3D1;stroke-width:1.1339;stroke-miterlimit:10;" x1="121.366" y1="141.162" x2="119.62" y2="144.44"/>
				
					<line style="fill:none;stroke:#F0C3D1;stroke-width:1.1339;stroke-miterlimit:10;" x1="137.669" y1="157.887" x2="133.434" y2="156.31"/>
				
					<line style="fill:none;stroke:#F0C3D1;stroke-width:1.1339;stroke-miterlimit:10;" x1="121.79" y1="155.179" x2="122.707" y2="159.018"/>
				
					<line style="fill:none;stroke:#F0C3D1;stroke-width:1.1339;stroke-miterlimit:10;" x1="174.697" y1="173.653" x2="173.174" y2="177.215"/>
				
					<line style="fill:none;stroke:#F0C3D1;stroke-width:1.1339;stroke-miterlimit:10;" x1="166.574" y1="180.783" x2="167.135" y2="184.371"/>
				
					<line style="fill:none;stroke:#F0C3D1;stroke-width:1.1339;stroke-miterlimit:10;" x1="145.676" y1="176.178" x2="142.071" y2="177.455"/>
				
					<line style="fill:none;stroke:#F0C3D1;stroke-width:1.1339;stroke-miterlimit:10;" x1="136.487" y1="168.059" x2="137.557" y2="172.209"/>
				
					<line style="fill:none;stroke:#F0C3D1;stroke-width:1.1339;stroke-miterlimit:10;" x1="126.745" y1="166.053" x2="125.3" y2="170.067"/>
				
					<line style="fill:none;stroke:#F0C3D1;stroke-width:1.1339;stroke-miterlimit:10;" x1="182.288" y1="185.629" x2="182.921" y2="190.147"/>
				
					<line style="fill:none;stroke:#F0C3D1;stroke-width:1.1339;stroke-miterlimit:10;" x1="171.899" y1="190.098" x2="174.538" y2="193.052"/>
				
					<line style="fill:none;stroke:#F0C3D1;stroke-width:1.1339;stroke-miterlimit:10;" x1="154.928" y1="190.301" x2="151.078" y2="192.387"/>
				
					<line style="fill:none;stroke:#F0C3D1;stroke-width:1.1339;stroke-miterlimit:10;" x1="139.318" y1="185.09" x2="141.924" y2="188.382"/>
				
					<line style="fill:none;stroke:#F0C3D1;stroke-width:1.1339;stroke-miterlimit:10;" x1="125.212" y1="181.283" x2="125.737" y2="185.276"/>
				
					<line style="fill:none;stroke:#F0C3D1;stroke-width:1.1339;stroke-miterlimit:10;" x1="181.789" y1="200.4" x2="179.908" y2="203.29"/>
				
					<line style="fill:none;stroke:#F0C3D1;stroke-width:1.1339;stroke-miterlimit:10;" x1="166.904" y1="200.59" x2="163.578" y2="203.101"/>
				
					<line style="fill:none;stroke:#F0C3D1;stroke-width:1.1339;stroke-miterlimit:10;" x1="151.124" y1="200.431" x2="148.143" y2="203.26"/>
				
					<line style="fill:none;stroke:#F0C3D1;stroke-width:1.1339;stroke-miterlimit:10;" x1="146.345" y1="192.448" x2="142.907" y2="194.652"/>
				
					<line style="fill:none;stroke:#F0C3D1;stroke-width:1.1339;stroke-miterlimit:10;" x1="144.325" y1="171.194" x2="140.902" y2="173.047"/>
				
					<line style="fill:none;stroke:#F0C3D1;stroke-width:1.1339;stroke-miterlimit:10;" x1="176.77" y1="207.309" x2="172.31" y2="207.465"/>
				
					<line style="fill:none;stroke:#F0C3D1;stroke-width:1.1339;stroke-miterlimit:10;" x1="172.738" y1="213.949" x2="170.934" y2="217.876"/>
				
					<line style="fill:none;stroke:#F0C3D1;stroke-width:1.1339;stroke-miterlimit:10;" x1="163.021" y1="212.676" x2="160.958" y2="215.923"/>
				
					<line style="fill:none;stroke:#F0C3D1;stroke-width:1.1339;stroke-miterlimit:10;" x1="162.217" y1="193.231" x2="160.04" y2="196.657"/>
				
					<line style="fill:none;stroke:#F0C3D1;stroke-width:1.1339;stroke-miterlimit:10;" x1="160.167" y1="180.974" x2="156.222" y2="183.567"/>
			</g>
			<path style="fill:#373C40;" d="M117.676,173.87c0,0,1.037-13.826-8.641-13.826s-0.346,16.245-0.346,16.245l3.456-0.691
				c0,0-3.456-9.332-1.728-10.024c1.728-0.691,4.493,8.987,4.493,8.987L117.676,173.87z"/>
			<polygon style="fill:#F1C754;" points="84.668,212.927 83.285,224.161 76.891,222.432 82.248,212.409 			"/>
		</g>
	</g>
</g>
</svg>
