<?xml version="1.0" encoding="UTF-8"?>
<!DOCTYPE svg PUBLIC "-//W3C//DTD SVG 1.1//EN" "http://www.w3.org/Graphics/SVG/1.1/DTD/svg11.dtd">
<svg xmlns="http://www.w3.org/2000/svg" version="1.1" width="3000px" height="2000px" style="shape-rendering:geometricPrecision; text-rendering:geometricPrecision; image-rendering:optimizeQuality; fill-rule:evenodd; clip-rule:evenodd" xmlns:xlink="http://www.w3.org/1999/xlink">
<g><path style="opacity:1" fill="#fefefe" d="M -0.5,-0.5 C 699.833,-0.5 1400.17,-0.5 2100.5,-0.5C 2090.53,97.2787 2102.36,192.279 2136,284.5C 2186.23,415.058 2278.39,500.225 2412.5,540C 2443.03,549.382 2474.03,556.715 2505.5,562C 2533.95,566.102 2562.29,569.935 2590.5,573.5C 2580.11,598.957 2568.61,623.957 2556,648.5C 2532.92,690.994 2509.59,733.327 2486,775.5C 2460.62,821.596 2439.62,869.596 2423,919.5C 2390.2,1029.87 2401.54,1135.54 2457,1236.5C 2494.89,1303.4 2545.72,1358.57 2609.5,1402C 2699.4,1461.31 2798.06,1497.31 2905.5,1510C 2936.76,1513.29 2968.09,1515.12 2999.5,1515.5C 2999.5,1676.83 2999.5,1838.17 2999.5,1999.5C 2277.83,1999.5 1556.17,1999.5 834.5,1999.5C 844.56,1979.92 857.56,1962.42 873.5,1947C 883.135,1938.52 893.135,1930.52 903.5,1923C 927.692,1907.07 951.359,1890.4 974.5,1873C 1024.11,1832.19 1043.28,1780.02 1032,1716.5C 1028.27,1700.15 1023.44,1684.15 1017.5,1668.5C 1026.74,1606.13 1022.24,1544.8 1004,1484.5C 980.046,1409.26 945.046,1339.92 899,1276.5C 876.419,1249.66 850.919,1226.16 822.5,1206C 811.833,1198.67 801.167,1191.33 790.5,1184C 743.833,1155.67 697.167,1127.33 650.5,1099C 624.38,1080.22 597.713,1062.22 570.5,1045C 531.096,1023.3 491.096,1002.63 450.5,983C 413.761,964.644 379.761,942.311 348.5,916C 309.031,878.926 280.198,834.76 262,783.5C 243.978,731.072 227.978,678.072 214,624.5C 200.919,576.686 181.585,531.686 156,489.5C 136.92,460.42 113.087,435.92 84.5,416C 58.2404,400.748 29.907,392.915 -0.5,392.5C -0.5,261.5 -0.5,130.5 -0.5,-0.5 Z"/></g>
<g><path style="opacity:1" fill="#184266" d="M 2100.5,-0.5 C 2400.17,-0.5 2699.83,-0.5 2999.5,-0.5C 2999.5,253.167 2999.5,506.833 2999.5,760.5C 2982.06,742.562 2964.4,724.728 2946.5,707C 2908.16,671.022 2865.16,641.688 2817.5,619C 2767.2,598.002 2714.87,585.002 2660.5,580C 2637.2,577.337 2613.87,575.171 2590.5,573.5C 2562.29,569.935 2533.95,566.102 2505.5,562C 2474.03,556.715 2443.03,549.382 2412.5,540C 2278.39,500.225 2186.23,415.058 2136,284.5C 2102.36,192.279 2090.53,97.2787 2100.5,-0.5 Z"/></g>
<g><path style="opacity:1" fill="#184266" d="M -0.5,392.5 C 29.907,392.915 58.2404,400.748 84.5,416C 113.087,435.92 136.92,460.42 156,489.5C 181.585,531.686 200.919,576.686 214,624.5C 227.978,678.072 243.978,731.072 262,783.5C 280.198,834.76 309.031,878.926 348.5,916C 379.761,942.311 413.761,964.644 450.5,983C 491.096,1002.63 531.096,1023.3 570.5,1045C 597.713,1062.22 624.38,1080.22 650.5,1099C 697.167,1127.33 743.833,1155.67 790.5,1184C 801.167,1191.33 811.833,1198.67 822.5,1206C 850.919,1226.16 876.419,1249.66 899,1276.5C 945.046,1339.92 980.046,1409.26 1004,1484.5C 1022.24,1544.8 1026.74,1606.13 1017.5,1668.5C 986.092,1601.57 940.759,1545.74 881.5,1501C 843.984,1474.37 802.651,1456.04 757.5,1446C 735.909,1441.62 714.243,1437.62 692.5,1434C 653.374,1429.65 614.374,1424.31 575.5,1418C 534.802,1411.21 496.469,1397.88 460.5,1378C 441.648,1365.48 423.648,1351.82 406.5,1337C 372.911,1310.45 334.911,1293.12 292.5,1285C 191.357,1266.44 93.6901,1277.61 -0.5,1318.5C -0.5,1009.83 -0.5,701.167 -0.5,392.5 Z"/></g>
<g><path style="opacity:1" fill="#feb34f" d="M 2590.5,573.5 C 2613.87,575.171 2637.2,577.337 2660.5,580C 2714.87,585.002 2767.2,598.002 2817.5,619C 2865.16,641.688 2908.16,671.022 2946.5,707C 2964.4,724.728 2982.06,742.562 2999.5,760.5C 2999.5,1012.17 2999.5,1263.83 2999.5,1515.5C 2968.09,1515.12 2936.76,1513.29 2905.5,1510C 2798.06,1497.31 2699.4,1461.31 2609.5,1402C 2545.72,1358.57 2494.89,1303.4 2457,1236.5C 2401.54,1135.54 2390.2,1029.87 2423,919.5C 2439.62,869.596 2460.62,821.596 2486,775.5C 2509.59,733.327 2532.92,690.994 2556,648.5C 2568.61,623.957 2580.11,598.957 2590.5,573.5 Z"/></g>
<g><path style="opacity:1" fill="#393939" d="M 1444.5,650.5 C 1455.89,650.555 1460.05,656.222 1457,667.5C 1455.97,670.39 1454.8,673.224 1453.5,676C 1453.64,676.772 1453.98,677.439 1454.5,678C 1456.5,678.833 1458.5,679.667 1460.5,680.5C 1459.33,682.833 1458.17,685.167 1457,687.5C 1453.41,688.768 1449.91,688.434 1446.5,686.5C 1442.37,690.123 1438.37,693.957 1434.5,698C 1429.28,701.277 1423.61,703.444 1417.5,704.5C 1412.96,703.565 1408.96,701.565 1405.5,698.5C 1418.15,695.505 1429.82,690.338 1440.5,683C 1430.33,676.153 1428.83,667.653 1436,657.5C 1438.44,654.546 1441.27,652.213 1444.5,650.5 Z"/></g>
<g><path style="opacity:1" fill="#353535" d="M 1043.5,657.5 C 1047.27,656.822 1050.11,658.156 1052,661.5C 1055.82,669.638 1060.99,676.805 1067.5,683C 1070.07,685.287 1073.07,686.453 1076.5,686.5C 1076.66,688.857 1076.5,691.19 1076,693.5C 1065.9,702.633 1062.07,713.967 1064.5,727.5C 1055.73,727.636 1048.89,731.303 1044,738.5C 1043.5,711.502 1043.33,684.502 1043.5,657.5 Z"/></g>
<g><path style="opacity:1" fill="#717171" d="M 2127.5,658.5 C 2126.17,658.5 2124.83,658.5 2123.5,658.5C 2123.17,685.005 2123.5,711.339 2124.5,737.5C 2124.22,738.289 2123.72,738.956 2123,739.5C 2122.5,712.169 2122.33,684.835 2122.5,657.5C 2124.41,657.216 2126.08,657.549 2127.5,658.5 Z"/></g>
<g><path style="opacity:1" fill="#343434" d="M 2127.5,658.5 C 2133.45,663.711 2137.95,670.044 2141,677.5C 2145,682.031 2149.83,685.031 2155.5,686.5C 2155.66,688.857 2155.5,691.19 2155,693.5C 2145.34,702.758 2141.51,714.091 2143.5,727.5C 2135.61,727.943 2129.28,731.277 2124.5,737.5C 2123.5,711.339 2123.17,685.005 2123.5,658.5C 2124.83,658.5 2126.17,658.5 2127.5,658.5 Z"/></g>
<g><path style="opacity:1" fill="#f2f2f2" d="M 1439.5,659.5 C 1443.56,659.724 1446.39,661.724 1448,665.5C 1448.75,668.303 1448.42,670.97 1447,673.5C 1444.67,671.833 1442.33,670.167 1440,668.5C 1438.28,665.546 1438.11,662.546 1439.5,659.5 Z"/></g>
<g><path style="opacity:1" fill="#3a3a3a" d="M 1196.5,718.5 C 1197.04,718.56 1197.38,718.893 1197.5,719.5C 1195.47,724.75 1192.13,728.916 1187.5,732C 1174.12,737.893 1160.79,743.559 1147.5,749C 1149.86,743.945 1153.2,739.612 1157.5,736C 1170.59,730.117 1183.59,724.283 1196.5,718.5 Z"/></g>
<g><path style="opacity:1" fill="#363636" d="M 1437.5,726.5 C 1449.69,724.583 1457.02,729.583 1459.5,741.5C 1456.54,755.98 1448.21,760.48 1434.5,755C 1424.4,744.198 1425.4,734.698 1437.5,726.5 Z"/></g>
<g><path style="opacity:1" fill="#363636" d="M 2143.5,907.5 C 2153.99,908.494 2164.65,908.828 2175.5,908.5C 2175.5,915.167 2175.5,921.833 2175.5,928.5C 2157.83,928.5 2140.17,928.5 2122.5,928.5C 2122.02,870.121 2122.52,811.788 2124,753.5C 2129.64,735.428 2141.14,729.928 2158.5,737C 2165.25,743.006 2168.92,750.506 2169.5,759.5C 2166.14,757.659 2163.14,755.159 2160.5,752C 2152.51,747.157 2147.01,748.99 2144,757.5C 2143.5,807.499 2143.33,857.499 2143.5,907.5 Z"/></g>
<g><path style="opacity:1" fill="#393939" d="M 1958.5,748.5 C 1964.42,747.875 1968.59,750.208 1971,755.5C 1971.67,759.167 1971.67,762.833 1971,766.5C 1969.44,769.172 1968.28,772.005 1967.5,775C 1967.91,775.945 1968.57,776.612 1969.5,777C 1971.5,777.333 1973.5,777.667 1975.5,778C 1974.21,780.087 1973.04,782.254 1972,784.5C 1970.87,785.944 1969.37,786.61 1967.5,786.5C 1964.77,785.853 1962.1,785.353 1959.5,785C 1953.96,791.881 1947.3,797.215 1939.5,801C 1931.94,803.922 1925.27,802.589 1919.5,797C 1931.32,793.725 1942.49,788.892 1953,782.5C 1953.67,781.833 1953.67,781.167 1953,780.5C 1943.69,772.644 1943.02,763.977 1951,754.5C 1953.48,752.361 1955.98,750.361 1958.5,748.5 Z"/></g>
<g><path style="opacity:1" fill="#383838" d="M 1544.5,754.5 C 1556.1,753.593 1562.94,758.927 1565,770.5C 1566.67,793.505 1556.5,801.671 1534.5,795C 1532.62,793.457 1531.12,791.624 1530,789.5C 1527.21,774.442 1532.04,762.776 1544.5,754.5 Z"/></g>
<g><path style="opacity:1" fill="#3a3a3a" d="M 2247.5,753.5 C 2248.68,753.281 2249.68,753.614 2250.5,754.5C 2249.09,758.067 2247.09,761.234 2244.5,764C 2230.33,771.307 2216,777.474 2201.5,782.5C 2203.94,777.563 2207.28,773.396 2211.5,770C 2223.71,764.725 2235.71,759.225 2247.5,753.5 Z"/></g>
<g><path style="opacity:1" fill="#eeeeee" d="M 1952.5,758.5 C 1961.19,759.531 1964.02,764.198 1961,772.5C 1956.55,769.889 1953.39,766.222 1951.5,761.5C 1951.69,760.416 1952.02,759.416 1952.5,758.5 Z"/></g>
<g><path style="opacity:1" fill="#393939" d="M 1323.5,759.5 C 1335.61,758.108 1342.78,763.441 1345,775.5C 1347.44,795.731 1338.6,804.564 1318.5,802C 1310.2,798.136 1307.03,791.636 1309,782.5C 1310.83,772.815 1315.66,765.148 1323.5,759.5 Z"/></g>
<g><path style="opacity:1" fill="#f9f9f9" d="M 1542.5,764.5 C 1551.73,764.717 1557.39,769.384 1559.5,778.5C 1559.15,780.697 1558.15,782.53 1556.5,784C 1551.25,785.506 1545.92,785.839 1540.5,785C 1535.27,782.367 1533.44,778.201 1535,772.5C 1537.03,769.308 1539.53,766.641 1542.5,764.5 Z"/></g>
<g><path style="opacity:1" fill="#f9f9f9" d="M 1322.5,769.5 C 1331.73,769.717 1337.39,774.384 1339.5,783.5C 1338.73,786.767 1336.73,788.934 1333.5,790C 1329.17,790.667 1324.83,790.667 1320.5,790C 1315.27,787.367 1313.44,783.201 1315,777.5C 1317.03,774.308 1319.53,771.641 1322.5,769.5 Z"/></g>
<g><path style="opacity:1" fill="#353535" d="M 1064.5,907.5 C 1086.67,908.828 1109,908.828 1131.5,907.5C 1131.38,906.893 1131.04,906.56 1130.5,906.5C 1115.77,889.402 1113.61,870.735 1124,850.5C 1138.33,830.592 1157.83,821.925 1182.5,824.5C 1180.8,817.954 1176.97,812.954 1171,809.5C 1170.5,807.19 1170.34,804.857 1170.5,802.5C 1180.79,798.38 1187.95,791.046 1192,780.5C 1193.71,778.241 1195.55,776.074 1197.5,774C 1199.13,773.506 1200.8,773.34 1202.5,773.5C 1202.5,797.167 1202.5,820.833 1202.5,844.5C 1191.32,844.172 1180.32,844.505 1169.5,845.5C 1147.5,847.654 1137.34,859.654 1139,881.5C 1149.59,900.632 1165.92,909.299 1188,907.5C 1200.62,909.963 1210.79,906.13 1218.5,896C 1220.47,895.505 1222.47,895.338 1224.5,895.5C 1228.95,906.118 1236.62,913.618 1247.5,918C 1251.39,920.674 1253.72,924.174 1254.5,928.5C 1184.17,928.5 1113.83,928.5 1043.5,928.5C 1043.02,869.454 1043.52,810.454 1045,751.5C 1050.99,735.919 1061.83,730.752 1077.5,736C 1085.08,741.995 1089.42,749.829 1090.5,759.5C 1089.45,759.649 1088.45,759.483 1087.5,759C 1085.05,756.097 1082.39,753.43 1079.5,751C 1072.48,747.619 1067.65,749.452 1065,756.5C 1064.5,806.832 1064.33,857.166 1064.5,907.5 Z"/></g>
<g><path style="opacity:1" fill="#6c6c6c" d="M 1202.5,773.5 C 1203.5,797.328 1203.83,821.328 1203.5,845.5C 1192.17,845.5 1180.83,845.5 1169.5,845.5C 1180.32,844.505 1191.32,844.172 1202.5,844.5C 1202.5,820.833 1202.5,797.167 1202.5,773.5 Z"/></g>
<g><path style="opacity:1" fill="#3a3a3a" d="M 1672.5,774.5 C 1673.68,774.281 1674.68,774.614 1675.5,775.5C 1674.09,779.067 1672.09,782.234 1669.5,785C 1655.32,791.504 1641.15,798.004 1627,804.5C 1628.51,798.968 1631.67,794.468 1636.5,791C 1648.71,785.725 1660.71,780.225 1672.5,774.5 Z"/></g>
<g><path style="opacity:1" fill="#343434" d="M 1381.5,928.5 C 1381.5,921.833 1381.5,915.167 1381.5,908.5C 1399.5,908.5 1417.5,908.5 1435.5,908.5C 1435.33,917.173 1435.5,925.84 1436,934.5C 1437.97,947.198 1444.81,951.365 1456.5,947C 1460.55,943.394 1462.89,938.894 1463.5,933.5C 1464.5,918.009 1464.83,902.342 1464.5,886.5C 1443.5,886.5 1422.5,886.5 1401.5,886.5C 1400.36,870.868 1401.86,855.535 1406,840.5C 1411.67,827.828 1420.51,817.995 1432.5,811C 1444.57,804.987 1456.57,798.987 1468.5,793C 1471.93,790.244 1474.59,786.91 1476.5,783C 1479.15,782.503 1481.81,782.336 1484.5,782.5C 1484.67,834.168 1484.5,885.834 1484,937.5C 1482.25,958.086 1471.08,969.086 1450.5,970.5C 1429.58,969.418 1417.75,958.418 1415,937.5C 1414.5,934.518 1414.34,931.518 1414.5,928.5C 1403.5,928.5 1392.5,928.5 1381.5,928.5 Z"/></g>
<g><path style="opacity:1" fill="#363636" d="M 2176.5,928.5 C 2176.5,921.833 2176.5,915.167 2176.5,908.5C 2187.5,908.5 2198.5,908.5 2209.5,908.5C 2209.33,917.173 2209.5,925.84 2210,934.5C 2212.05,947.091 2218.88,951.258 2230.5,947C 2234.95,943.603 2237.45,939.103 2238,933.5C 2238.67,909.833 2238.67,886.167 2238,862.5C 2237.28,853.401 2233.62,845.735 2227,839.5C 2226.5,837.19 2226.34,834.857 2226.5,832.5C 2232.5,831.016 2237.34,827.682 2241,822.5C 2244.4,815.535 2248.9,809.369 2254.5,804C 2256.13,803.506 2257.8,803.34 2259.5,803.5C 2259.67,846.835 2259.5,890.168 2259,933.5C 2258.01,956.985 2245.85,969.318 2222.5,970.5C 2205.95,969.779 2195.45,961.446 2191,945.5C 2189.87,939.888 2189.37,934.221 2189.5,928.5C 2185.17,928.5 2180.83,928.5 2176.5,928.5 Z"/></g>
<g><path style="opacity:1" fill="#fdfdfd" d="M 1463.5,819.5 C 1463.5,834.833 1463.5,850.167 1463.5,865.5C 1449.83,865.5 1436.17,865.5 1422.5,865.5C 1422.72,849.55 1429.39,837.05 1442.5,828C 1449.29,824.601 1456.29,821.767 1463.5,819.5 Z"/></g>
<g><path style="opacity:1" fill="#343434" d="M 799.5,907.5 C 855.664,908.499 911.998,908.832 968.5,908.5C 968.174,917.349 968.507,926.016 969.5,934.5C 969.499,939.668 971.166,944.168 974.5,948C 979.324,950.446 983.491,949.613 987,945.5C 988.156,941.877 989.156,938.211 990,934.5C 990.667,916.833 990.667,899.167 990,881.5C 988.692,873.216 985.026,866.216 979,860.5C 978.186,858.098 978.353,855.765 979.5,853.5C 984.285,851.358 988.451,848.358 992,844.5C 995.72,837.449 1000.22,830.949 1005.5,825C 1007.13,824.506 1008.8,824.34 1010.5,824.5C 1010.67,862.835 1010.5,901.168 1010,939.5C 1008.02,962.468 995.524,972.635 972.5,970C 959.913,967.079 952.413,959.245 950,946.5C 949.037,940.535 948.537,934.535 948.5,928.5C 879.167,928.5 809.833,928.5 740.5,928.5C 740.201,926.396 740.534,924.396 741.5,922.5C 746.483,917.688 752.15,913.855 758.5,911C 764.006,907.016 767.673,901.85 769.5,895.5C 771.527,895.338 773.527,895.505 775.5,896C 782.085,902.792 790.085,906.626 799.5,907.5 Z"/></g>
<g><path style="opacity:1" fill="#353535" d="M 1369.5,907.5 C 1372.96,908.482 1376.63,908.815 1380.5,908.5C 1380.5,915.167 1380.5,921.833 1380.5,928.5C 1376.83,928.5 1373.17,928.5 1369.5,928.5C 1370.76,950.858 1365.6,971.525 1354,990.5C 1341.91,1004.96 1326.41,1011.96 1307.5,1011.5C 1307.5,1009.17 1307.5,1006.83 1307.5,1004.5C 1319.99,1002.17 1329.49,995.5 1336,984.5C 1345.84,967.122 1350.01,948.456 1348.5,928.5C 1327.83,928.5 1307.17,928.5 1286.5,928.5C 1286.16,916.457 1286.66,904.457 1288,892.5C 1291.76,875.137 1301.26,861.97 1316.5,853C 1329.32,846.845 1341.99,840.512 1354.5,834C 1357.32,831.362 1359.65,828.362 1361.5,825C 1364.15,824.503 1366.81,824.336 1369.5,824.5C 1369.5,852.167 1369.5,879.833 1369.5,907.5 Z"/></g>
<g><path style="opacity:1" fill="#353535" d="M 1574.5,819.5 C 1576.17,819.5 1577.83,819.5 1579.5,819.5C 1579.5,848.833 1579.5,878.167 1579.5,907.5C 1590.17,907.5 1600.83,907.5 1611.5,907.5C 1610.68,884.307 1620.01,866.474 1639.5,854C 1652.17,847.667 1664.83,841.333 1677.5,835C 1680.73,832.273 1683.4,829.106 1685.5,825.5C 1688.43,824.516 1691.43,824.183 1694.5,824.5C 1694.5,859.167 1694.5,893.833 1694.5,928.5C 1656.17,928.5 1617.83,928.5 1579.5,928.5C 1579.89,949.829 1575.06,969.829 1565,988.5C 1553.19,1004.32 1537.36,1011.99 1517.5,1011.5C 1517.5,1009.17 1517.5,1006.83 1517.5,1004.5C 1526.08,1003.62 1533.25,999.958 1539,993.5C 1551.05,978.354 1557.38,961.021 1558,941.5C 1558.67,916.5 1558.67,891.5 1558,866.5C 1556.39,861.06 1552.89,857.393 1547.5,855.5C 1546.53,853.257 1546.19,850.924 1546.5,848.5C 1556.06,844.777 1562.89,838.11 1567,828.5C 1569.33,825.335 1571.83,822.335 1574.5,819.5 Z"/></g>
<g><path style="opacity:1" fill="#363636" d="M 2085.5,824.5 C 2087.17,824.5 2088.83,824.5 2090.5,824.5C 2090.67,862.501 2090.5,900.501 2090,938.5C 2088.93,945.46 2086.93,952.126 2084,958.5C 2079.33,965.259 2072.83,969.092 2064.5,970C 2043.88,972.035 2032.05,962.868 2029,942.5C 2028.5,937.845 2028.33,933.179 2028.5,928.5C 1958.83,928.5 1889.17,928.5 1819.5,928.5C 1819.14,924.336 1820.81,921.169 1824.5,919C 1831.1,915.452 1837.27,911.286 1843,906.5C 1845.9,903.358 1847.74,899.691 1848.5,895.5C 1850.86,895.337 1853.19,895.503 1855.5,896C 1860.56,901.199 1866.56,904.865 1873.5,907C 1931.83,907.5 1990.17,907.667 2048.5,907.5C 2048.33,917.506 2048.5,927.506 2049,937.5C 2049.63,946.139 2054.13,949.972 2062.5,949C 2066.49,946.265 2068.66,942.432 2069,937.5C 2069.67,918.167 2069.67,898.833 2069,879.5C 2067.65,871.79 2063.98,865.457 2058,860.5C 2057.5,858.19 2057.34,855.857 2057.5,853.5C 2060.02,853.245 2062.35,852.411 2064.5,851C 2071.25,845.332 2076.41,838.499 2080,830.5C 2082.04,828.63 2083.87,826.63 2085.5,824.5 Z"/></g>
<g><path style="opacity:1" fill="#363636" d="M 860.5,834.5 C 869.288,833.477 875.788,836.81 880,844.5C 881.833,860 875,866.833 859.5,865C 851.046,860.76 847.879,853.927 850,844.5C 852.738,840.26 856.238,836.926 860.5,834.5 Z"/></g>
<g><path style="opacity:1" fill="#363636" d="M 902.5,834.5 C 916.333,834.165 922.833,840.832 922,854.5C 917.627,864.934 910.127,868.1 899.5,864C 892.156,859.464 889.656,852.964 892,844.5C 894.081,839.584 897.581,836.25 902.5,834.5 Z"/></g>
<g><path style="opacity:1" fill="#fdfdfd" d="M 1347.5,861.5 C 1348.5,876.658 1348.83,891.991 1348.5,907.5C 1334.83,907.5 1321.17,907.5 1307.5,907.5C 1307.82,890.02 1315.49,876.854 1330.5,868C 1335.98,865.258 1341.64,863.092 1347.5,861.5 Z"/></g>
<g><path style="opacity:1" fill="#8b8b8b" d="M 1347.5,861.5 C 1347.56,860.957 1347.89,860.624 1348.5,860.5C 1349.83,876.328 1349.83,891.995 1348.5,907.5C 1348.83,891.991 1348.5,876.658 1347.5,861.5 Z"/></g>
<g><path style="opacity:1" fill="#fdfdfd" d="M 1673.5,907.5 C 1659.83,907.5 1646.17,907.5 1632.5,907.5C 1632.5,905.5 1632.5,903.5 1632.5,901.5C 1634.1,888.133 1640.43,877.633 1651.5,870C 1658.39,866.138 1665.55,862.971 1673,860.5C 1673.5,876.163 1673.67,891.83 1673.5,907.5 Z"/></g>
<g><path style="opacity:1" fill="#a0a0a0" d="M 1463.5,819.5 C 1464.5,834.991 1464.83,850.658 1464.5,866.5C 1450.32,866.829 1436.32,866.496 1422.5,865.5C 1436.17,865.5 1449.83,865.5 1463.5,865.5C 1463.5,850.167 1463.5,834.833 1463.5,819.5 Z"/></g>
<g><path style="opacity:1" fill="#b8b8b8" d="M 1401.5,886.5 C 1422.5,886.5 1443.5,886.5 1464.5,886.5C 1464.83,902.342 1464.5,918.009 1463.5,933.5C 1463.5,918.167 1463.5,902.833 1463.5,887.5C 1442.66,887.831 1421.99,887.497 1401.5,886.5 Z"/></g>
<g><path style="opacity:1" fill="#686868" d="M 799.5,907.5 C 856.167,907.5 912.833,907.5 969.5,907.5C 969.5,916.5 969.5,925.5 969.5,934.5C 968.507,926.016 968.174,917.349 968.5,908.5C 911.998,908.832 855.664,908.499 799.5,907.5 Z"/></g>
<g><path style="opacity:1" fill="#656565" d="M 1130.5,906.5 C 1131.04,906.56 1131.38,906.893 1131.5,907.5C 1109,908.828 1086.67,908.828 1064.5,907.5C 1086.67,907.831 1108.67,907.497 1130.5,906.5 Z"/></g>
<g><path style="opacity:1" fill="#626262" d="M 1369.5,907.5 C 1391.67,907.169 1413.67,907.503 1435.5,908.5C 1417.5,908.5 1399.5,908.5 1381.5,908.5C 1381.5,915.167 1381.5,921.833 1381.5,928.5C 1381.17,928.5 1380.83,928.5 1380.5,928.5C 1380.5,921.833 1380.5,915.167 1380.5,908.5C 1376.63,908.815 1372.96,908.482 1369.5,907.5 Z"/></g>
<g><path style="opacity:1" fill="#696969" d="M 1632.5,901.5 C 1632.5,903.5 1632.5,905.5 1632.5,907.5C 1646.17,907.5 1659.83,907.5 1673.5,907.5C 1659.68,908.496 1645.68,908.829 1631.5,908.5C 1631.2,905.941 1631.53,903.607 1632.5,901.5 Z"/></g>
<g><path style="opacity:1" fill="#646464" d="M 2143.5,907.5 C 2165.67,907.169 2187.67,907.503 2209.5,908.5C 2198.5,908.5 2187.5,908.5 2176.5,908.5C 2176.5,915.167 2176.5,921.833 2176.5,928.5C 2176.17,928.5 2175.83,928.5 2175.5,928.5C 2175.5,921.833 2175.5,915.167 2175.5,908.5C 2164.65,908.828 2153.99,908.494 2143.5,907.5 Z"/></g>
<g><path style="opacity:1" fill="#363636" d="M 1960.5,949.5 C 1977.52,949.339 1983.69,957.339 1979,973.5C 1973.88,979.652 1967.38,981.818 1959.5,980C 1949.66,974.488 1947.16,966.654 1952,956.5C 1954.44,953.546 1957.27,951.213 1960.5,949.5 Z"/></g>
<g><path style="opacity:1" fill="#383838" d="M 895.5,989.5 C 896.376,989.369 897.043,989.702 897.5,990.5C 895.815,996.015 892.482,1000.18 887.5,1003C 874.817,1008.12 862.317,1013.62 850,1019.5C 850.294,1014.16 852.794,1010 857.5,1007C 870.311,1001.24 882.978,995.408 895.5,989.5 Z"/></g>
<g><path style="opacity:1" fill="#363636" d="M 2221.5,991.5 C 2231.72,989.395 2238.88,993.062 2243,1002.5C 2242.9,1019.6 2234.73,1025.43 2218.5,1020C 2208.39,1009.28 2209.39,999.778 2221.5,991.5 Z"/></g>
<g><path style="opacity:1" fill="#393939" d="M 1682.5,1005.5 C 1683.55,1005.35 1684.55,1005.52 1685.5,1006C 1683.32,1010.02 1680.66,1013.69 1677.5,1017C 1663.62,1023.61 1649.62,1029.61 1635.5,1035C 1638.06,1029.11 1642.06,1024.44 1647.5,1021C 1659.49,1016.33 1671.16,1011.17 1682.5,1005.5 Z"/></g>
<g><path style="opacity:1" fill="#353535" d="M 1681.5,1056.5 C 1682.49,1062.64 1682.82,1068.98 1682.5,1075.5C 1675.79,1074.41 1669.96,1076.07 1665,1080.5C 1663.46,1085.12 1664.96,1088.29 1669.5,1090C 1676.52,1090.17 1683.52,1090.67 1690.5,1091.5C 1688.39,1096.05 1686.06,1100.39 1683.5,1104.5C 1666.66,1104.83 1649.99,1104.5 1633.5,1103.5C 1635.05,1099.4 1636.88,1095.4 1639,1091.5C 1640.7,1090.59 1642.53,1090.26 1644.5,1090.5C 1643.86,1072.63 1652.53,1063.13 1670.5,1062C 1674.22,1060.14 1677.89,1058.31 1681.5,1056.5 Z"/></g>
<g><path style="opacity:1" fill="#b3b3b3" d="M 1681.5,1056.5 C 1681.56,1055.96 1681.89,1055.62 1682.5,1055.5C 1683.82,1062.32 1683.82,1068.99 1682.5,1075.5C 1682.82,1068.98 1682.49,1062.64 1681.5,1056.5 Z"/></g>
<g><path style="opacity:1" fill="#797979" d="M 1290.5,1057.5 C 1289.17,1057.5 1287.83,1057.5 1286.5,1057.5C 1286.17,1084.01 1286.5,1110.34 1287.5,1136.5C 1287.22,1137.29 1286.72,1137.96 1286,1138.5C 1285.5,1111.17 1285.33,1083.84 1285.5,1056.5C 1287.41,1056.22 1289.08,1056.55 1290.5,1057.5 Z"/></g>
<g><path style="opacity:1" fill="#343434" d="M 1290.5,1057.5 C 1292.46,1058.96 1294.3,1060.63 1296,1062.5C 1300.02,1071.85 1306.19,1079.35 1314.5,1085C 1315.79,1085.49 1317.13,1085.66 1318.5,1085.5C 1318.66,1087.86 1318.5,1090.19 1318,1092.5C 1308.69,1101.92 1304.86,1113.25 1306.5,1126.5C 1298.59,1126.95 1292.26,1130.29 1287.5,1136.5C 1286.5,1110.34 1286.17,1084.01 1286.5,1057.5C 1287.83,1057.5 1289.17,1057.5 1290.5,1057.5 Z"/></g>
<g><path style="opacity:1" fill="#353535" d="M 1746.5,1057.5 C 1747.83,1057.5 1749.17,1057.5 1750.5,1057.5C 1750.83,1085.01 1750.5,1112.34 1749.5,1139.5C 1744.64,1133.57 1738.31,1130.57 1730.5,1130.5C 1732.99,1115.81 1729.16,1103.15 1719,1092.5C 1718.5,1090.19 1718.34,1087.86 1718.5,1085.5C 1724.2,1083.98 1729.03,1080.98 1733,1076.5C 1736.54,1069.4 1741.04,1063.06 1746.5,1057.5 Z"/></g>
<g><path style="opacity:1" fill="#727272" d="M 1788.5,1057.5 C 1787.17,1057.5 1785.83,1057.5 1784.5,1057.5C 1784.17,1084.01 1784.5,1110.34 1785.5,1136.5C 1785.22,1137.29 1784.72,1137.96 1784,1138.5C 1783.5,1111.17 1783.33,1083.84 1783.5,1056.5C 1785.41,1056.22 1787.08,1056.55 1788.5,1057.5 Z"/></g>
<g><path style="opacity:1" fill="#343434" d="M 1788.5,1057.5 C 1794.45,1062.71 1798.95,1069.04 1802,1076.5C 1806,1081.03 1810.83,1084.03 1816.5,1085.5C 1816.66,1087.86 1816.5,1090.19 1816,1092.5C 1806.34,1101.76 1802.51,1113.09 1804.5,1126.5C 1796.59,1126.95 1790.26,1130.29 1785.5,1136.5C 1784.5,1110.34 1784.17,1084.01 1784.5,1057.5C 1785.83,1057.5 1787.17,1057.5 1788.5,1057.5 Z"/></g>
<g><path style="opacity:1" fill="#6a6a6a" d="M 1746.5,1057.5 C 1747.92,1056.55 1749.59,1056.22 1751.5,1056.5C 1751.67,1084.84 1751.5,1113.17 1751,1141.5C 1750.28,1140.96 1749.78,1140.29 1749.5,1139.5C 1750.5,1112.34 1750.83,1085.01 1750.5,1057.5C 1749.17,1057.5 1747.83,1057.5 1746.5,1057.5 Z"/></g>
<g><path style="opacity:1" fill="#989898" d="M 1633.5,1103.5 C 1649.99,1104.5 1666.66,1104.83 1683.5,1104.5C 1666.66,1105.83 1649.66,1105.83 1632.5,1104.5C 1632.62,1103.89 1632.96,1103.56 1633.5,1103.5 Z"/></g>
<g><path style="opacity:1" fill="#353535" d="M 1650.5,1120.5 C 1653.97,1119.87 1656.8,1120.87 1659,1123.5C 1662.59,1129 1665.92,1134.67 1669,1140.5C 1672.12,1144.45 1675.95,1147.45 1680.5,1149.5C 1681.65,1151.76 1681.81,1154.1 1681,1156.5C 1676.7,1161.44 1673.7,1167.1 1672,1173.5C 1671.5,1217.83 1671.33,1262.17 1671.5,1306.5C 1691.17,1306.5 1710.83,1306.5 1730.5,1306.5C 1730.67,1257.5 1730.5,1208.5 1730,1159.5C 1726.88,1151.13 1721.38,1149.3 1713.5,1154C 1710.63,1156.54 1708.13,1159.37 1706,1162.5C 1705.01,1161.57 1704.51,1160.4 1704.5,1159C 1709,1138.12 1721,1131.79 1740.5,1140C 1746.16,1145.33 1749.66,1151.83 1751,1159.5C 1751.5,1215.5 1751.67,1271.5 1751.5,1327.5C 1717.83,1327.5 1684.17,1327.5 1650.5,1327.5C 1650.5,1258.5 1650.5,1189.5 1650.5,1120.5 Z"/></g>
<g><path style="opacity:1" fill="#363636" d="M 1306.5,1306.5 C 1316.99,1307.49 1327.65,1307.83 1338.5,1307.5C 1338.5,1314.17 1338.5,1320.83 1338.5,1327.5C 1320.83,1327.5 1303.17,1327.5 1285.5,1327.5C 1285.33,1270.5 1285.5,1213.5 1286,1156.5C 1288.85,1139.63 1298.68,1131.8 1315.5,1133C 1326.14,1138.14 1331.8,1146.64 1332.5,1158.5C 1329.14,1156.66 1326.14,1154.16 1323.5,1151C 1314.88,1145.9 1309.38,1148.07 1307,1157.5C 1306.5,1207.17 1306.33,1256.83 1306.5,1306.5 Z"/></g>
<g><path style="opacity:1" fill="#363636" d="M 1802.5,1132.5 C 1819.77,1132.43 1829.1,1141.09 1830.5,1158.5C 1827.14,1156.66 1824.14,1154.16 1821.5,1151C 1812.87,1145.9 1807.37,1148.07 1805,1157.5C 1804.33,1207.17 1804.33,1256.83 1805,1306.5C 1809.36,1303.64 1812.86,1299.98 1815.5,1295.5C 1817.74,1294.53 1820.08,1294.19 1822.5,1294.5C 1822.76,1297.02 1823.59,1299.35 1825,1301.5C 1830.74,1308.79 1837.9,1314.29 1846.5,1318C 1850.19,1320.17 1851.86,1323.34 1851.5,1327.5C 1828.83,1327.5 1806.17,1327.5 1783.5,1327.5C 1783.33,1270.5 1783.5,1213.5 1784,1156.5C 1785.63,1144.86 1791.8,1136.86 1802.5,1132.5 Z"/></g>
<g><path style="opacity:1" fill="#383838" d="M 1533.5,1135.5 C 1543.23,1134.28 1549.73,1138.28 1553,1147.5C 1555.61,1156.64 1554.61,1165.31 1550,1173.5C 1539.58,1181.82 1529.58,1181.49 1520,1172.5C 1516.31,1157.07 1520.81,1144.74 1533.5,1135.5 Z"/></g>
<g><path style="opacity:1" fill="#f9f9f9" d="M 1530.5,1146.5 C 1540.44,1145.47 1546.44,1149.8 1548.5,1159.5C 1548.54,1162.96 1546.87,1165.13 1543.5,1166C 1538.83,1166.67 1534.17,1166.67 1529.5,1166C 1524.57,1163.65 1522.74,1159.81 1524,1154.5C 1525.3,1151.04 1527.47,1148.37 1530.5,1146.5 Z"/></g>
<g><path style="opacity:1" fill="#3a3a3a" d="M 1418.5,1173.5 C 1419.68,1173.28 1420.68,1173.61 1421.5,1174.5C 1420.09,1178.07 1418.09,1181.23 1415.5,1184C 1401.32,1190.5 1387.15,1197 1373,1203.5C 1374.51,1197.97 1377.67,1193.47 1382.5,1190C 1394.71,1184.72 1406.71,1179.22 1418.5,1173.5 Z"/></g>
<g><path style="opacity:1" fill="#353535" d="M 1454.5,1327.5 C 1454.5,1320.83 1454.5,1314.17 1454.5,1307.5C 1465.35,1307.83 1476.01,1307.49 1486.5,1306.5C 1487.42,1294.67 1483.59,1284.67 1475,1276.5C 1474.33,1274.5 1474.33,1272.5 1475,1270.5C 1481.44,1268.07 1486.78,1264.07 1491,1258.5C 1493.85,1252.15 1497.69,1246.48 1502.5,1241.5C 1504.05,1240.55 1505.71,1240.21 1507.5,1240.5C 1507.5,1262.5 1507.5,1284.5 1507.5,1306.5C 1517.5,1306.5 1527.5,1306.5 1537.5,1306.5C 1537.81,1295.79 1537.31,1285.12 1536,1274.5C 1533.95,1268.08 1530.62,1262.41 1526,1257.5C 1525.5,1255.19 1525.34,1252.86 1525.5,1250.5C 1529.69,1249.74 1533.36,1247.9 1536.5,1245C 1541.29,1239.27 1545.45,1233.1 1549,1226.5C 1550.37,1224.96 1551.87,1223.63 1553.5,1222.5C 1554.83,1222.5 1556.17,1222.5 1557.5,1222.5C 1557.17,1259.67 1557.5,1296.67 1558.5,1333.5C 1558.5,1338.67 1560.17,1343.17 1563.5,1347C 1568.32,1349.45 1572.49,1348.61 1576,1344.5C 1577.16,1340.88 1578.16,1337.21 1579,1333.5C 1579.67,1308.83 1579.67,1284.17 1579,1259.5C 1577.81,1250.45 1573.97,1242.78 1567.5,1236.5C 1567.3,1234.05 1567.63,1231.72 1568.5,1229.5C 1578.54,1224.62 1585.71,1216.95 1590,1206.5C 1592.33,1202.97 1595.5,1200.97 1599.5,1200.5C 1599.67,1246.17 1599.5,1291.83 1599,1337.5C 1598.37,1357.96 1587.87,1368.63 1567.5,1369.5C 1551.76,1368.93 1542.26,1360.93 1539,1345.5C 1538.04,1339.53 1537.54,1333.53 1537.5,1327.5C 1509.83,1327.5 1482.17,1327.5 1454.5,1327.5 Z"/></g>
<g><path style="opacity:1" fill="#353535" d="M 1442.5,1223.5 C 1442.5,1251.5 1442.5,1279.5 1442.5,1307.5C 1446.17,1307.5 1449.83,1307.5 1453.5,1307.5C 1453.5,1314.17 1453.5,1320.83 1453.5,1327.5C 1415.5,1327.5 1377.5,1327.5 1339.5,1327.5C 1339.5,1320.83 1339.5,1314.17 1339.5,1307.5C 1346.35,1307.82 1353.02,1307.49 1359.5,1306.5C 1359.1,1284.12 1368.1,1266.62 1386.5,1254C 1400.2,1246.99 1413.87,1239.99 1427.5,1233C 1430.6,1230.57 1432.93,1227.57 1434.5,1224C 1437.15,1223.5 1439.81,1223.34 1442.5,1223.5 Z"/></g>
<g><path style="opacity:1" fill="#969696" d="M 1568.5,1229.5 C 1567.63,1231.72 1567.3,1234.05 1567.5,1236.5C 1566.85,1235.55 1566.51,1234.38 1566.5,1233C 1566.61,1231.32 1567.27,1230.15 1568.5,1229.5 Z"/></g>
<g><path style="opacity:1" fill="#353535" d="M 1241.5,1253.5 C 1242.49,1263.99 1242.83,1274.65 1242.5,1285.5C 1231.83,1285.33 1221.16,1285.5 1210.5,1286C 1207.01,1286.94 1203.67,1288.28 1200.5,1290C 1195.38,1299.54 1198.38,1304.88 1209.5,1306C 1224.84,1306.17 1240.18,1306.67 1255.5,1307.5C 1252.42,1313.99 1249.09,1320.32 1245.5,1326.5C 1214.5,1327.83 1183.5,1327.83 1152.5,1326.5C 1155.58,1320.01 1158.91,1313.68 1162.5,1307.5C 1167.46,1306.51 1172.46,1306.17 1177.5,1306.5C 1175.26,1287.47 1182.93,1274.31 1200.5,1267C 1210.62,1265.99 1220.62,1264.32 1230.5,1262C 1235.21,1260.45 1238.88,1257.62 1241.5,1253.5 Z"/></g>
<g><path style="opacity:1" fill="#828282" d="M 1553.5,1222.5 C 1554.92,1221.55 1556.59,1221.22 1558.5,1221.5C 1558.5,1258.83 1558.5,1296.17 1558.5,1333.5C 1557.5,1296.67 1557.17,1259.67 1557.5,1222.5C 1556.17,1222.5 1554.83,1222.5 1553.5,1222.5 Z"/></g>
<g><path style="opacity:1" fill="#fdfdfd" d="M 1420.5,1260.5 C 1421.5,1275.66 1421.83,1290.99 1421.5,1306.5C 1407.83,1306.5 1394.17,1306.5 1380.5,1306.5C 1382.67,1281.65 1396,1266.32 1420.5,1260.5 Z"/></g>
<g><path style="opacity:1" fill="#fdb24f" d="M 1017.5,1668.5 C 1023.44,1684.15 1028.27,1700.15 1032,1716.5C 1043.28,1780.02 1024.11,1832.19 974.5,1873C 951.359,1890.4 927.692,1907.07 903.5,1923C 893.135,1930.52 883.135,1938.52 873.5,1947C 857.56,1962.42 844.56,1979.92 834.5,1999.5C 826.167,1999.5 817.833,1999.5 809.5,1999.5C 813.846,1991.47 818.179,1983.47 822.5,1975.5C 842.167,1944.5 867.5,1919.17 898.5,1899.5C 922.458,1884.38 945.458,1867.88 967.5,1850C 1008.48,1811.88 1021.82,1765.71 1007.5,1711.5C 997.953,1673.74 981.453,1639.41 958,1608.5C 931.833,1574.33 901.667,1544.17 867.5,1518C 836.598,1495.89 802.598,1480.22 765.5,1471C 750.632,1467.04 735.632,1463.71 720.5,1461C 684.602,1455.18 648.602,1450.18 612.5,1446C 572.634,1440.71 533.634,1431.71 495.5,1419C 468.706,1408.94 444.04,1395.28 421.5,1378C 401.241,1360.07 379.574,1344.07 356.5,1330C 331.738,1317.86 305.738,1309.52 278.5,1305C 181.542,1288.9 88.5422,1301.4 -0.5,1342.5C -0.5,1334.5 -0.5,1326.5 -0.5,1318.5C 93.6901,1277.61 191.357,1266.44 292.5,1285C 334.911,1293.12 372.911,1310.45 406.5,1337C 423.648,1351.82 441.648,1365.48 460.5,1378C 496.469,1397.88 534.802,1411.21 575.5,1418C 614.374,1424.31 653.374,1429.65 692.5,1434C 714.243,1437.62 735.909,1441.62 757.5,1446C 802.651,1456.04 843.984,1474.37 881.5,1501C 940.759,1545.74 986.092,1601.57 1017.5,1668.5 Z"/></g>
<g><path style="opacity:1" fill="#bababa" d="M 1420.5,1260.5 C 1420.56,1259.96 1420.89,1259.62 1421.5,1259.5C 1422.83,1275.33 1422.83,1290.99 1421.5,1306.5C 1421.83,1290.99 1421.5,1275.66 1420.5,1260.5 Z"/></g>
<g><path style="opacity:1" fill="#184265" d="M 1007.5,1711.5 C 991.598,1761.21 968.431,1807.21 938,1849.5C 925.057,1866.41 911.89,1883.08 898.5,1899.5C 867.5,1919.17 842.167,1944.5 822.5,1975.5C 812.847,1983.15 803.514,1991.15 794.5,1999.5C 744.167,1999.5 693.833,1999.5 643.5,1999.5C 661.193,1963.95 684.526,1932.45 713.5,1905C 728.121,1894.05 742.454,1882.71 756.5,1871C 789.356,1837.1 800.523,1796.93 790,1750.5C 780.59,1713.17 760.757,1682.67 730.5,1659C 700.003,1636.25 666.336,1619.59 629.5,1609C 612.821,1605 596.154,1601 579.5,1597C 546.138,1590.79 512.804,1584.46 479.5,1578C 442.258,1570.37 407.258,1557.03 374.5,1538C 352.836,1524.34 334.336,1507.17 319,1486.5C 278.909,1443.3 229.242,1421.96 170,1422.5C 131.057,1422.53 93.8904,1430.69 58.5,1447C 37.6803,1456.36 18.0136,1467.53 -0.5,1480.5C -0.5,1434.5 -0.5,1388.5 -0.5,1342.5C 88.5422,1301.4 181.542,1288.9 278.5,1305C 305.738,1309.52 331.738,1317.86 356.5,1330C 379.574,1344.07 401.241,1360.07 421.5,1378C 444.04,1395.28 468.706,1408.94 495.5,1419C 533.634,1431.71 572.634,1440.71 612.5,1446C 648.602,1450.18 684.602,1455.18 720.5,1461C 735.632,1463.71 750.632,1467.04 765.5,1471C 802.598,1480.22 836.598,1495.89 867.5,1518C 901.667,1544.17 931.833,1574.33 958,1608.5C 981.453,1639.41 997.953,1673.74 1007.5,1711.5 Z"/></g>
<g><path style="opacity:1" fill="#646464" d="M 1306.5,1306.5 C 1324.17,1306.5 1341.83,1306.5 1359.5,1306.5C 1353.02,1307.49 1346.35,1307.82 1339.5,1307.5C 1339.5,1314.17 1339.5,1320.83 1339.5,1327.5C 1339.17,1327.5 1338.83,1327.5 1338.5,1327.5C 1338.5,1320.83 1338.5,1314.17 1338.5,1307.5C 1327.65,1307.83 1316.99,1307.49 1306.5,1306.5 Z"/></g>
<g><path style="opacity:1" fill="#7e7e7e" d="M 1442.5,1223.5 C 1443.5,1250.99 1443.83,1278.66 1443.5,1306.5C 1457.83,1306.5 1472.17,1306.5 1486.5,1306.5C 1476.01,1307.49 1465.35,1307.83 1454.5,1307.5C 1454.5,1314.17 1454.5,1320.83 1454.5,1327.5C 1454.17,1327.5 1453.83,1327.5 1453.5,1327.5C 1453.5,1320.83 1453.5,1314.17 1453.5,1307.5C 1449.83,1307.5 1446.17,1307.5 1442.5,1307.5C 1442.5,1279.5 1442.5,1251.5 1442.5,1223.5 Z"/></g>
<g><path style="opacity:1" fill="#393939" d="M 1221.5,1346.5 C 1222.24,1346.37 1222.91,1346.54 1223.5,1347C 1221.65,1351.85 1218.65,1355.85 1214.5,1359C 1201.5,1364.83 1188.5,1370.67 1175.5,1376.5C 1175.76,1371.5 1178.09,1367.34 1182.5,1364C 1195.73,1358.43 1208.73,1352.6 1221.5,1346.5 Z"/></g>
<g><path style="opacity:1" fill="#fcb14f" d="M 643.5,1999.5 C 634.833,1999.5 626.167,1999.5 617.5,1999.5C 637.239,1958.86 663.239,1922.7 695.5,1891C 707.138,1881.18 719.138,1871.85 731.5,1863C 761.145,1839.76 774.312,1809.26 771,1771.5C 768.453,1746.18 759.453,1723.51 744,1703.5C 715.073,1669.93 679.24,1646.77 636.5,1634C 622.211,1629.84 607.878,1625.84 593.5,1622C 556.896,1614.72 520.23,1607.72 483.5,1601C 441.711,1593.18 402.377,1578.85 365.5,1558C 350.669,1548.49 336.836,1537.66 324,1525.5C 308.833,1506.33 291.667,1489.17 272.5,1474C 233.583,1450.08 191.25,1440.41 145.5,1445C 100.013,1451.94 58.0126,1467.94 19.5,1493C 12.6183,1498.27 5.95166,1503.77 -0.5,1509.5C -0.5,1499.83 -0.5,1490.17 -0.5,1480.5C 18.0136,1467.53 37.6803,1456.36 58.5,1447C 93.8904,1430.69 131.057,1422.53 170,1422.5C 229.242,1421.96 278.909,1443.3 319,1486.5C 334.336,1507.17 352.836,1524.34 374.5,1538C 407.258,1557.03 442.258,1570.37 479.5,1578C 512.804,1584.46 546.138,1590.79 579.5,1597C 596.154,1601 612.821,1605 629.5,1609C 666.336,1619.59 700.003,1636.25 730.5,1659C 760.757,1682.67 780.59,1713.17 790,1750.5C 800.523,1796.93 789.356,1837.1 756.5,1871C 742.454,1882.71 728.121,1894.05 713.5,1905C 684.526,1932.45 661.193,1963.95 643.5,1999.5 Z"/></g>
<g><path style="opacity:1" fill="#184265" d="M 617.5,1999.5 C 551.167,1999.5 484.833,1999.5 418.5,1999.5C 455.44,1979.24 487.607,1952.91 515,1920.5C 530.946,1900.51 542.613,1878.18 550,1853.5C 560.417,1812.84 546.917,1783.34 509.5,1765C 493.329,1759.05 476.663,1755.39 459.5,1754C 429.833,1753.67 400.167,1753.33 370.5,1753C 342.728,1751.74 316.728,1744.41 292.5,1731C 287.833,1727.67 283.167,1724.33 278.5,1721C 263.196,1704.7 247.529,1688.7 231.5,1673C 191.829,1642.99 147.162,1631.32 97.5,1638C 62.5748,1644.3 29.9081,1656.47 -0.5,1674.5C -0.5,1619.5 -0.5,1564.5 -0.5,1509.5C 5.95166,1503.77 12.6183,1498.27 19.5,1493C 58.0126,1467.94 100.013,1451.94 145.5,1445C 191.25,1440.41 233.583,1450.08 272.5,1474C 291.667,1489.17 308.833,1506.33 324,1525.5C 336.836,1537.66 350.669,1548.49 365.5,1558C 402.377,1578.85 441.711,1593.18 483.5,1601C 520.23,1607.72 556.896,1614.72 593.5,1622C 607.878,1625.84 622.211,1629.84 636.5,1634C 679.24,1646.77 715.073,1669.93 744,1703.5C 759.453,1723.51 768.453,1746.18 771,1771.5C 774.312,1809.26 761.145,1839.76 731.5,1863C 719.138,1871.85 707.138,1881.18 695.5,1891C 663.239,1922.7 637.239,1958.86 617.5,1999.5 Z"/></g>
<g><path style="opacity:1" fill="#fcb14f" d="M 418.5,1999.5 C 402.5,1999.5 386.5,1999.5 370.5,1999.5C 398.087,1986.04 424.42,1970.54 449.5,1953C 480.955,1930.22 505.121,1901.38 522,1866.5C 528.182,1852.45 531.182,1837.78 531,1822.5C 526.355,1800.85 513.189,1787.35 491.5,1782C 480.268,1779.44 468.935,1777.44 457.5,1776C 424.819,1775.85 392.153,1775.18 359.5,1774C 323.708,1771.09 291.708,1758.76 263.5,1737C 248.167,1721.33 232.833,1705.67 217.5,1690C 178.493,1661.57 135.16,1652.24 87.5,1662C 55.7381,1670.05 26.4048,1683.22 -0.5,1701.5C -0.5,1692.5 -0.5,1683.5 -0.5,1674.5C 29.9081,1656.47 62.5748,1644.3 97.5,1638C 147.162,1631.32 191.829,1642.99 231.5,1673C 247.529,1688.7 263.196,1704.7 278.5,1721C 283.167,1724.33 287.833,1727.67 292.5,1731C 316.728,1744.41 342.728,1751.74 370.5,1753C 400.167,1753.33 429.833,1753.67 459.5,1754C 476.663,1755.39 493.329,1759.05 509.5,1765C 546.917,1783.34 560.417,1812.84 550,1853.5C 542.613,1878.18 530.946,1900.51 515,1920.5C 487.607,1952.91 455.44,1979.24 418.5,1999.5 Z"/></g>
<g><path style="opacity:1" fill="#184265" d="M 370.5,1999.5 C 264.5,1999.5 158.5,1999.5 52.5,1999.5C 30.6858,1969.88 13.0191,1937.88 -0.5,1903.5C -0.5,1836.17 -0.5,1768.83 -0.5,1701.5C 26.4048,1683.22 55.7381,1670.05 87.5,1662C 135.16,1652.24 178.493,1661.57 217.5,1690C 232.833,1705.67 248.167,1721.33 263.5,1737C 291.708,1758.76 323.708,1771.09 359.5,1774C 392.153,1775.18 424.819,1775.85 457.5,1776C 468.935,1777.44 480.268,1779.44 491.5,1782C 513.189,1787.35 526.355,1800.85 531,1822.5C 531.182,1837.78 528.182,1852.45 522,1866.5C 505.121,1901.38 480.955,1930.22 449.5,1953C 424.42,1970.54 398.087,1986.04 370.5,1999.5 Z"/></g>
<g><path style="opacity:1" fill="#fdfdfc" d="M 1007.5,1711.5 C 1021.82,1765.71 1008.48,1811.88 967.5,1850C 945.458,1867.88 922.458,1884.38 898.5,1899.5C 911.89,1883.08 925.057,1866.41 938,1849.5C 968.431,1807.21 991.598,1761.21 1007.5,1711.5 Z"/></g>
<g><path style="opacity:1" fill="#fcb14f" d="M -0.5,1903.5 C 13.0191,1937.88 30.6858,1969.88 52.5,1999.5C 43.5,1999.5 34.5,1999.5 25.5,1999.5C 16.318,1985.8 7.65129,1971.8 -0.5,1957.5C -0.5,1939.5 -0.5,1921.5 -0.5,1903.5 Z"/></g>
<g><path style="opacity:1" fill="#1b4365" d="M -0.5,1957.5 C 7.65129,1971.8 16.318,1985.8 25.5,1999.5C 16.8333,1999.5 8.16667,1999.5 -0.5,1999.5C -0.5,1985.5 -0.5,1971.5 -0.5,1957.5 Z"/></g>
<g><path style="opacity:1" fill="#f9f8f7" d="M 822.5,1975.5 C 818.179,1983.47 813.846,1991.47 809.5,1999.5C 804.5,1999.5 799.5,1999.5 794.5,1999.5C 803.514,1991.15 812.847,1983.15 822.5,1975.5 Z"/></g>
</svg>
