<?xml version="1.0" encoding="utf-8"?>
<!-- Generator: Adobe Illustrator 27.5.0, SVG Export Plug-In . SVG Version: 6.00 Build 0)  -->
<svg version="1.1" xmlns="http://www.w3.org/2000/svg" xmlns:xlink="http://www.w3.org/1999/xlink" x="0px" y="0px"
	 viewBox="0 0 500 500" style="enable-background:new 0 0 500 500;" xml:space="preserve">
<g id="BACKGROUND">
	<rect style="fill:#D6EEC4;" width="500" height="500"/>
</g>
<g id="OBJECTS">
	<g>
		<g>
			<polygon style="fill:#BAE29E;" points="70.38,225.191 122.133,183.636 104.686,119.592 171.007,116.432 194.484,54.321 
				250,90.783 305.519,54.322 328.995,116.433 395.316,119.594 377.868,183.638 429.62,225.191 377.867,266.746 395.314,330.791 
				328.992,333.951 305.516,396.061 250,359.599 194.481,396.061 171.005,333.949 104.684,330.788 122.132,266.745 			"/>
		</g>
		<g>
			<path style="fill:#BAE29E;" d="M277.124,426.79h-54.247C142.676,426.79,64.579,452.443,0,500l0,0h250h250l0,0
				C435.421,452.443,357.324,426.79,277.124,426.79z"/>
		</g>
		<g>
			<g>
				<g>
					<g>
						<path style="fill:#0A6654;" d="M35.264,419.413c17.327,9.281,37.542,17.423,60.018,24.143L120.19,500H31.458L1.731,432.719
							L35.264,419.413z"/>
					</g>
					<g>
						<path style="fill:#33884C;" d="M19.092,455.45l11.76,26.617c12.066,5.541,25.029,10.634,38.789,15.213l4.305,0.982
							l-10.639-24.078C47.385,468.603,32.583,462.328,19.092,455.45z"/>
					</g>
				</g>
				<g>
					<g>
						<polygon style="fill:#BEDCFF;" points="69.641,463.232 85.845,500 120.19,500 95.282,443.556 						"/>
					</g>
					<g>
						<g>
							<path style="fill:#ACC9E5;" d="M113.264,498.761c-0.192,0-0.376-0.111-0.458-0.299L92.59,452.438
								c-0.111-0.253,0.004-0.548,0.257-0.659c0.254-0.109,0.548,0.004,0.659,0.257l20.215,46.024
								c0.111,0.253-0.004,0.548-0.257,0.659C113.399,498.747,113.331,498.761,113.264,498.761z"/>
						</g>
						<g>
							<path style="fill:#ACC9E5;" d="M101.893,498.761c-0.193,0-0.377-0.112-0.459-0.301l-12.69-29.171
								c-0.11-0.253,0.006-0.548,0.259-0.657c0.253-0.111,0.547,0.006,0.658,0.259l12.69,29.171c0.11,0.253-0.006,0.548-0.259,0.658
								C102.027,498.747,101.96,498.761,101.893,498.761z"/>
						</g>
						<g>
							<path style="fill:#ACC9E5;" d="M91.458,498.761c-0.188,0-0.369-0.107-0.454-0.289L74.7,463.443
								c-0.117-0.25-0.008-0.548,0.242-0.664c0.253-0.118,0.548-0.009,0.664,0.242l16.304,35.029
								c0.117,0.25,0.008,0.548-0.242,0.664C91.6,498.746,91.528,498.761,91.458,498.761z"/>
						</g>
					</g>
				</g>
				<g>
					<g>
						<path style="fill:#EEF8E7;" d="M95.282,443.556c-22.476-6.72-42.691-14.862-60.018-24.143L1.731,432.719
							c19.397,11.694,42.287,21.987,67.911,30.513L95.282,443.556z"/>
					</g>
					<g>
						<g>
							<path style="fill:#BAE29E;" d="M64.497,454.837l-6.169,4.451c0,0,4.325,15.903-3.773,21.107
								c-0.254,0.163-0.589-0.038-0.584-0.34l0.086-4.807l-3.719,1.077c-0.384,0.111-0.66-0.357-0.379-0.641
								c2.115-2.142,5.473-7.53,2.372-18.64l5.998-4.423L64.497,454.837z"/>
						</g>
						<g>
							<path style="fill:#9ED676;" d="M49.957,475.684c-0.281,0.285-0.005,0.753,0.379,0.641l3.719-1.077l-0.086,4.807
								c-0.005,0.302,0.33,0.503,0.584,0.34c8.099-5.204,3.773-21.107,3.773-21.107l-5.998-2.243
								C55.43,468.155,52.072,473.543,49.957,475.684z"/>
						</g>
					</g>
					<g>
						<g>
							<path style="fill:#BEDCFF;" d="M66.284,455.949c-0.053,0-0.107-0.009-0.161-0.026c-28.15-9.54-53.307-23.26-53.558-23.397
								c-0.242-0.133-0.331-0.436-0.198-0.679c0.132-0.242,0.437-0.333,0.679-0.198c0.25,0.137,25.334,13.815,53.398,23.327
								c0.261,0.089,0.401,0.373,0.313,0.634C66.687,455.819,66.492,455.949,66.284,455.949z"/>
						</g>
						<g>
							<path style="fill:#BEDCFF;" d="M81.675,444.587c-0.052,0-0.104-0.008-0.156-0.025c-27.249-8.968-46.78-19.495-46.974-19.6
								c-0.243-0.132-0.333-0.436-0.201-0.678c0.132-0.243,0.435-0.333,0.678-0.201c0.193,0.104,19.65,10.592,46.81,19.53
								c0.262,0.086,0.405,0.368,0.319,0.631C82.081,444.454,81.885,444.587,81.675,444.587z"/>
						</g>
						<g>
							<path style="fill:#BEDCFF;" d="M58.327,446.153c-0.058,0-0.118-0.01-0.175-0.031c-20.012-7.489-34.215-14.69-34.356-14.763
								c-0.246-0.125-0.344-0.426-0.218-0.672c0.124-0.246,0.425-0.346,0.672-0.219c0.141,0.071,14.296,7.249,34.252,14.716
								c0.259,0.098,0.39,0.386,0.293,0.644C58.72,446.029,58.53,446.153,58.327,446.153z"/>
						</g>
					</g>
				</g>
			</g>
			<g>
				<g>
					<g>
						<path style="fill:#0A6654;" d="M464.749,419.413c-17.327,9.281-37.542,17.423-60.018,24.143L379.823,500h88.732l29.727-67.281
							L464.749,419.413z"/>
					</g>
					<g>
						<path style="fill:#33884C;" d="M480.921,455.45l-11.76,26.617c-12.066,5.541-25.029,10.634-38.79,15.213l-4.305,0.982
							l10.639-24.078C452.628,468.603,467.43,462.328,480.921,455.45z"/>
					</g>
				</g>
				<g>
					<g>
						<polygon style="fill:#BEDCFF;" points="430.372,463.232 414.168,500 379.823,500 404.731,443.556 						"/>
					</g>
					<g>
						<g>
							<path style="fill:#ACC9E5;" d="M386.75,498.761c-0.067,0-0.136-0.014-0.201-0.042c-0.253-0.111-0.367-0.406-0.257-0.659
								l20.216-46.024c0.112-0.253,0.408-0.365,0.659-0.257c0.253,0.111,0.367,0.406,0.257,0.659l-20.216,46.024
								C387.125,498.65,386.942,498.761,386.75,498.761z"/>
						</g>
						<g>
							<path style="fill:#ACC9E5;" d="M398.121,498.761c-0.066,0-0.135-0.014-0.199-0.041c-0.254-0.11-0.369-0.405-0.259-0.658
								l12.689-29.171c0.11-0.254,0.407-0.365,0.658-0.26c0.254,0.11,0.369,0.405,0.259,0.658L398.58,498.46
								C398.498,498.649,398.313,498.761,398.121,498.761z"/>
						</g>
						<g>
							<path style="fill:#ACC9E5;" d="M408.555,498.761c-0.071,0-0.143-0.015-0.211-0.047c-0.25-0.116-0.359-0.414-0.242-0.664
								l16.305-35.029c0.116-0.252,0.413-0.361,0.664-0.242c0.25,0.116,0.359,0.414,0.242,0.664l-16.305,35.029
								C408.923,498.655,408.744,498.761,408.555,498.761z"/>
						</g>
					</g>
				</g>
				<g>
					<g>
						<path style="fill:#EEF8E7;" d="M404.731,443.556c22.476-6.72,42.691-14.862,60.018-24.143l33.533,13.306
							c-19.397,11.694-42.287,21.987-67.911,30.513L404.731,443.556z"/>
					</g>
					<g>
						<g>
							<path style="fill:#BAE29E;" d="M435.516,454.837l6.169,4.451c0,0-4.325,15.903,3.773,21.107
								c0.254,0.163,0.589-0.038,0.584-0.34l-0.086-4.807l3.719,1.077c0.384,0.111,0.661-0.357,0.379-0.641
								c-2.115-2.142-5.473-7.53-2.372-18.64l-5.998-4.423L435.516,454.837z"/>
						</g>
						<g>
							<path style="fill:#9ED676;" d="M450.056,475.684c0.281,0.285,0.005,0.753-0.379,0.641l-3.719-1.077l0.085,4.807
								c0.005,0.302-0.33,0.503-0.584,0.34c-8.099-5.204-3.773-21.107-3.773-21.107l5.998-2.243
								C444.583,468.155,447.941,473.543,450.056,475.684z"/>
						</g>
					</g>
					<g>
						<g>
							<path style="fill:#BEDCFF;" d="M433.729,455.949c-0.208,0-0.403-0.131-0.474-0.34c-0.089-0.261,0.052-0.545,0.314-0.634
								c28.064-9.512,53.148-23.19,53.398-23.327c0.24-0.133,0.546-0.045,0.679,0.198c0.133,0.242,0.044,0.546-0.198,0.679
								c-0.251,0.138-25.408,13.857-53.559,23.397C433.837,455.941,433.782,455.949,433.729,455.949z"/>
						</g>
						<g>
							<path style="fill:#BEDCFF;" d="M418.337,444.587c-0.21,0-0.405-0.133-0.475-0.344c-0.087-0.263,0.056-0.545,0.318-0.631
								c27.165-8.94,46.616-19.426,46.81-19.53c0.238-0.13,0.545-0.042,0.678,0.201c0.132,0.242,0.042,0.546-0.201,0.678
								c-0.194,0.105-19.724,10.633-46.974,19.6C418.442,444.579,418.389,444.587,418.337,444.587z"/>
						</g>
						<g>
							<path style="fill:#BEDCFF;" d="M441.686,446.153c-0.202,0-0.394-0.124-0.469-0.325c-0.097-0.258,0.035-0.546,0.294-0.644
								c19.955-7.467,34.111-14.645,34.252-14.716c0.243-0.124,0.547-0.028,0.672,0.219c0.126,0.246,0.027,0.547-0.219,0.672
								c-0.141,0.072-14.343,7.273-34.355,14.763C441.803,446.143,441.745,446.153,441.686,446.153z"/>
						</g>
					</g>
				</g>
			</g>
		</g>
		<g>
			<g>
				
					<ellipse transform="matrix(0.8884 -0.459 0.459 0.8884 -42.3171 116.7463)" style="fill:#EEF8E7;" cx="219.008" cy="145.427" rx="40.314" ry="40.314"/>
			</g>
			<g>
				<g>
					<path style="fill:#FFC62E;" d="M201.862,131.162c1.543-10.651,11.634-17.954,22.317-15.969
						c9.598,1.783,16.354,10.717,15.447,20.437c-0.714,7.652-5.802,13.725-12.47,16.143c-0.725,0.263-1.236,0.918-1.347,1.682
						l-0.655,4.522l-7.796-1.13l-7.796-1.13l0.656-4.524c0.113-0.784-0.225-1.556-0.861-2.028
						C203.927,145.133,200.823,138.327,201.862,131.162z"/>
				</g>
				<g>
					<g>
						<path style="fill:#71C436;" d="M217.358,156.848l7.857,1.139c0.796,0.115,1.347,0.854,1.232,1.649l-0.93,6.416
							c-0.115,0.796-0.854,1.347-1.649,1.232l-15.713-2.277c-0.795-0.115-1.347-0.854-1.232-1.649l0.93-6.416
							c0.115-0.796,0.854-1.347,1.649-1.232L217.358,156.848z"/>
					</g>
					<g>
						<path style="fill:#3D1010;" d="M218.905,170.797c-0.288,1.988-2.133,3.366-4.121,3.078s-3.366-2.133-3.078-4.121
							L218.905,170.797z"/>
					</g>
					<g>
						<path style="fill:#33884C;" d="M225.982,163.344c-0.024,0-0.048-0.001-0.072-0.005l-18.594-2.695
							c-0.274-0.04-0.463-0.293-0.423-0.566c0.039-0.274,0.29-0.47,0.566-0.423l18.594,2.695c0.273,0.04,0.463,0.293,0.423,0.566
							C226.441,163.164,226.227,163.344,225.982,163.344z"/>
					</g>
					<g>
						<path style="fill:#71C436;" d="M209.741,169.469l11.328,1.642c1.214,0.176,2.34-0.665,2.516-1.879l0.282-1.949l-15.723-2.278
							l-0.282,1.949C207.687,168.167,208.528,169.293,209.741,169.469z"/>
					</g>
					<g>
						<path style="fill:#33884C;" d="M223.868,167.783c-0.024,0-0.048-0.001-0.072-0.005l-15.723-2.278
							c-0.273-0.04-0.463-0.293-0.423-0.566c0.039-0.274,0.289-0.47,0.566-0.423l15.723,2.278c0.273,0.039,0.463,0.293,0.423,0.566
							C224.326,167.604,224.112,167.783,223.868,167.783z"/>
					</g>
				</g>
				<g>
					<path style="fill:#71C436;" d="M241.276,119.155c-0.454,0-0.902-0.205-1.197-0.595c-0.5-0.661-0.37-1.602,0.291-2.102
						l8.418-6.37c0.66-0.498,1.602-0.37,2.102,0.291c0.5,0.661,0.37,1.602-0.291,2.102l-8.418,6.37
						C241.909,119.056,241.591,119.155,241.276,119.155z"/>
				</g>
				<g>
					<path style="fill:#71C436;" d="M224.387,109.118c-0.072,0-0.144-0.005-0.217-0.016c-0.82-0.119-1.388-0.879-1.269-1.7
						l1.441-9.943c0.119-0.82,0.879-1.392,1.7-1.269c0.82,0.119,1.388,0.879,1.269,1.7l-1.441,9.943
						C225.761,108.579,225.12,109.118,224.387,109.118z"/>
				</g>
				<g>
					<path style="fill:#71C436;" d="M205.174,113.924c-0.46,0-0.915-0.211-1.208-0.61l-6.264-8.498
						c-0.491-0.667-0.349-1.606,0.317-2.098c0.667-0.491,1.606-0.35,2.098,0.317l6.264,8.498c0.491,0.667,0.349,1.606-0.317,2.098
						C205.795,113.828,205.483,113.924,205.174,113.924z"/>
				</g>
				<g>
					<path style="fill:#EEF8E7;" d="M220.709,157.333l-0.989-0.143l2.326-16.049l-4.733-0.686l-2.326,16.049l-0.989-0.143
						l2.326-16.049l-2.407-0.349c-1.357-0.196-2.434-1.138-2.809-2.458c-0.375-1.319,0.044-2.686,1.095-3.567
						c1.119-0.937,2.605-1.078,3.876-0.369c1.274,0.71,1.935,2.047,1.726,3.49l-0.349,2.407l4.732,0.686l0.349-2.407
						c0.209-1.443,1.223-2.538,2.646-2.857c1.426-0.315,2.807,0.239,3.612,1.455c0.757,1.143,0.772,2.573,0.037,3.731
						c-0.734,1.159-2.035,1.756-3.391,1.559l-2.407-0.349L220.709,157.333z M223.178,140.294l2.407,0.349
						c0.96,0.139,1.882-0.284,2.403-1.105c0.52-0.821,0.51-1.834-0.027-2.645c-0.682-1.03-1.771-1.21-2.559-1.03
						c-0.79,0.177-1.698,0.802-1.876,2.024L223.178,140.294z M214.384,134.126c-0.502,0-1.04,0.16-1.538,0.578
						c-0.745,0.624-1.042,1.593-0.776,2.528c0.266,0.935,1.029,1.603,1.991,1.742l2.406,0.349l0.349-2.407
						c0.177-1.222-0.516-2.079-1.223-2.473C215.257,134.255,214.836,134.126,214.384,134.126z"/>
				</g>
			</g>
		</g>
		<g>
			<g>
				<g>
					<path style="fill:#EEF8E7;" d="M67.734,190.292c-8.04-0.631-14.593-6.697-15.842-14.664c-0.417-2.658-0.855-4.618-1.242-4.604
						c-0.386,0.015-0.673,2.004-0.883,4.686c-0.631,8.04-6.697,14.593-14.664,15.842c-2.658,0.417-4.618,0.856-4.604,1.242
						c0.015,0.386,2.004,0.672,4.685,0.883c8.04,0.631,14.593,6.697,15.842,14.664c0.417,2.658,0.856,4.619,1.242,4.604
						c0.386-0.015,0.673-2.004,0.883-4.686c0.631-8.04,6.697-14.593,14.664-15.842c2.658-0.417,4.618-0.855,4.603-1.242
						C72.404,190.789,70.415,190.503,67.734,190.292z"/>
				</g>
			</g>
			<g>
				<g>
					<path style="fill:#EEF8E7;" d="M85.032,149.109c-5.267-0.413-9.559-4.387-10.378-9.606c-0.273-1.741-0.561-3.025-0.814-3.015
						c-0.253,0.01-0.44,1.313-0.578,3.069c-0.414,5.267-4.387,9.559-9.606,10.378c-1.741,0.273-3.025,0.56-3.015,0.813
						c0.01,0.253,1.313,0.441,3.069,0.579c5.267,0.414,9.559,4.387,10.378,9.606c0.273,1.741,0.56,3.025,0.813,3.016
						c0.253-0.01,0.441-1.313,0.579-3.069c0.414-5.267,4.387-9.559,9.606-10.378c1.741-0.273,3.025-0.561,3.016-0.813
						C88.091,149.434,86.788,149.247,85.032,149.109z"/>
				</g>
			</g>
		</g>
		<g>
			<g>
				<path style="fill:#EEF8E7;" d="M351.659,129.079c-0.206,0-0.416-0.043-0.616-0.133c-0.755-0.34-1.091-1.229-0.75-1.984
					c0.32-0.711,8.053-17.578,25.368-32.143c16.016-13.471,43.514-27.248,83.569-16.387c0.8,0.217,1.272,1.041,1.055,1.84
					c-0.216,0.799-1.037,1.271-1.84,1.055c-31.15-8.449-58.355-3.137-80.854,15.787c-16.798,14.129-24.488,30.912-24.564,31.08
					C352.777,128.751,352.231,129.079,351.659,129.079z"/>
			</g>
			<g>
				<path style="fill:#EEF8E7;" d="M348.299,96.295c-0.216,0-0.436-0.047-0.644-0.146c-0.748-0.356-1.065-1.251-0.71-1.999
					c0.194-0.408,20.033-40.809,71.257-36.001c0.825,0.078,1.432,0.809,1.353,1.634c-0.077,0.825-0.818,1.428-1.633,1.354
					c-49.186-4.613-68.083,33.913-68.269,34.303C349.398,95.979,348.86,96.295,348.299,96.295z"/>
			</g>
		</g>
		<g>
			<g>
				<polygon style="fill:#0A6654;" points="69.943,37.938 35.866,88.692 36.944,90.915 91.846,83.063 127.707,35.983 
					126.629,33.761 				"/>
			</g>
			<g>
				<polygon style="fill:#71C436;" points="69.943,37.938 35.866,88.692 36.944,90.915 71.132,40.388 127.707,35.983 
					126.629,33.761 				"/>
			</g>
			<g>
				<path style="fill:#0A6654;" d="M129.427,74.688l0.007-0.004l-20.521-19.335l-2.935-0.289
					c-16.675-1.644-32.471,7.789-38.931,23.25l4.896,30.76c0.003,0.047,0.015,0.089,0.021,0.134l0.019,0.121l0.002-0.001
					c0.034,0.154,0.082,0.302,0.161,0.432c1.903,3.153,16.331-2.07,32.226-11.665c15.895-9.595,27.238-19.928,25.335-23.081
					C129.635,74.89,129.536,74.785,129.427,74.688z"/>
			</g>
			<g>
				<path style="fill:#055142;" d="M127.631,75.924c1.533,2.539-9.227,11.843-24.033,20.78
					c-14.806,8.937-28.051,14.123-29.584,11.584c-1.533-2.539,7.197-14.579,22.003-23.517
					C110.823,75.835,126.098,73.385,127.631,75.924z"/>
			</g>
			<g>
				<path style="fill:#055142;" d="M68.246,86.349c-0.242,0-0.454-0.175-0.493-0.421l-1.2-7.54
					c-0.015-0.092-0.003-0.186,0.032-0.271c6.587-15.766,22.435-25.232,39.44-23.555l2.936,0.289
					c0.11,0.011,0.213,0.058,0.294,0.134l2.354,2.218c0.201,0.189,0.21,0.506,0.021,0.707c-0.189,0.201-0.505,0.211-0.707,0.021
					l-2.23-2.101l-2.766-0.272c-16.525-1.63-31.916,7.535-38.365,22.815l1.177,7.399c0.043,0.273-0.143,0.529-0.415,0.572
					C68.298,86.348,68.272,86.349,68.246,86.349z"/>
			</g>
			<g>
				<g>
					<path style="fill:#EEF8E7;" d="M50.436,119.226c-0.083,0-0.166-0.027-0.235-0.083c-0.162-0.13-0.187-0.366-0.058-0.527
						c13.001-16.191-2.505-48.132-2.663-48.453c-0.06-0.122-0.049-0.266,0.027-0.378l0.508-0.741c0.117-0.17,0.35-0.213,0.521-0.098
						c0.171,0.117,0.214,0.351,0.098,0.521l-0.386,0.563c1.307,2.758,15.233,33.172,2.48,49.056
						C50.654,119.178,50.546,119.226,50.436,119.226z"/>
				</g>
				<g>
					<g>
						<path style="fill:#BAE29E;" d="M50.148,119.028l0.7,1.253c0.47,0.842,0.287,1.898-0.439,2.532l-9.916,8.392
							c0,0-5.935-5.041-6.488-8.014l0.058-1.835l13.809-3.312C48.766,117.821,49.699,118.224,50.148,119.028z"/>
					</g>
					<g>
						<path style="fill:#9ED676;" d="M40.493,131.204c-0.818,0.551-2.955-1.191-4.774-3.89c-1.819-2.699-2.631-5.335-1.813-5.886
							c0.818-0.551,2.955,1.191,4.774,3.89C40.5,128.018,41.311,130.653,40.493,131.204z"/>
					</g>
					<g>
						<path style="fill:#9ED676;" d="M36.024,122.659c-0.064,0-0.122-0.04-0.143-0.104c-0.026-0.079,0.018-0.164,0.096-0.189
							l12.949-4.205c0.082-0.025,0.164,0.018,0.189,0.096c0.026,0.079-0.018,0.164-0.096,0.189l-12.949,4.206
							C36.054,122.657,36.039,122.659,36.024,122.659z"/>
					</g>
					<g>
						<path style="fill:#9ED676;" d="M38.772,125.737c-0.053,0-0.104-0.028-0.131-0.077c-0.04-0.073-0.014-0.164,0.059-0.204
							l11.419-6.307c0.074-0.04,0.164-0.014,0.204,0.058c0.04,0.073,0.014,0.164-0.059,0.204l-11.419,6.307
							C38.821,125.731,38.797,125.737,38.772,125.737z"/>
					</g>
					<g>
						<path style="fill:#9ED676;" d="M40.433,129.139c-0.045,0-0.089-0.02-0.119-0.059c-0.051-0.065-0.039-0.16,0.027-0.21
							l10.517-8.095c0.064-0.051,0.16-0.039,0.21,0.027c0.051,0.065,0.039,0.16-0.027,0.21l-10.517,8.095
							C40.498,129.129,40.465,129.139,40.433,129.139z"/>
					</g>
				</g>
			</g>
		</g>
		<g>
			<g>
				<g>
					<g>
						<g>
							<path style="fill:#4E616B;" d="M98.724,236.79c0,0,6.201-16.53-9.06-24.062C89.664,212.728,82.719,229.261,98.724,236.79z"/>
						</g>
						<g>
							<path style="fill:#41535B;" d="M98.724,237.29c-0.228,0-0.433-0.156-0.487-0.388c-0.013-0.057-1.38-5.872-5.906-17.041
								c-0.104-0.256,0.019-0.548,0.275-0.651c0.255-0.104,0.548,0.019,0.651,0.275c4.56,11.254,5.94,17.134,5.954,17.192
								c0.062,0.269-0.106,0.537-0.375,0.6C98.799,237.286,98.761,237.29,98.724,237.29z"/>
						</g>
					</g>
					<g>
						<g>
							<path style="fill:#576C7A;" d="M100.784,239.125c0,0-9.554-15.44-27.457-4.483c0,0,7.602,13.826,26.643,6.815
								L100.784,239.125z"/>
						</g>
						<g>
							<path style="fill:#4E616B;" d="M100.424,240.653c-0.12,0-0.241-0.043-0.337-0.13c-0.074-0.067-7.553-6.718-21.234-5.384
								c-0.274,0.022-0.52-0.174-0.546-0.449c-0.027-0.275,0.174-0.519,0.449-0.546c14.149-1.376,21.691,5.353,22.005,5.641
								c0.204,0.186,0.218,0.502,0.032,0.706C100.695,240.598,100.56,240.653,100.424,240.653z"/>
						</g>
					</g>
				</g>
				<g>
					<g>
						<path style="fill:#E33432;" d="M173.824,324.272l-19.046-66.86c-3.59-12.602-16.716-19.907-29.317-16.318l-73.792,21.021
							c-9.428,2.686-14.894,12.506-12.208,21.935l22.32,78.352c2.686,9.428,12.506,14.894,21.935,12.208l73.792-21.021
							C170.108,349.999,177.414,336.873,173.824,324.272z"/>
					</g>
					<g>
						<path style="fill:#801848;" d="M80.48,375.17c-0.217,0-0.417-0.142-0.48-0.36l-32.161-110.3
							c-0.077-0.265,0.075-0.542,0.34-0.62c0.268-0.072,0.543,0.075,0.62,0.341l32.161,110.3c0.077,0.265-0.075,0.542-0.34,0.62
							C80.573,375.163,80.525,375.17,80.48,375.17z"/>
					</g>
				</g>
				<g>
					<g>
						<g>
							<path style="fill:#561F1D;" d="M98.762,397.62c0,0-2.446,12.326,1.956,27.489S124.882,500,124.882,500h36.587v-16.587
								c0,0,23.883-85.077,25.924-91.9c2.041-6.822,0.948-16.842,0.948-16.842L98.762,397.62z"/>
						</g>
						<g>
							<g>
								<path style="fill:#3D1010;" d="M188.341,374.671L98.762,397.62c0,0-1.376,6.935-0.206,16.801
									c66.997,1.803,89.692-27.087,89.692-27.087l0.001,0C189.054,381.22,188.341,374.671,188.341,374.671z"/>
							</g>
							<g>
								<path style="fill:#3D1010;" d="M161.483,481.859c-0.001,0-0.002,0-0.003,0c-0.276-0.002-0.499-0.228-0.497-0.503
									l0.475-71.706c0.001-0.151,0.07-0.295,0.189-0.389l6.979-5.544c0.216-0.173,0.53-0.137,0.703,0.081
									c0.172,0.216,0.136,0.53-0.081,0.702l-6.791,5.395l-0.474,71.467C161.981,481.637,161.757,481.859,161.483,481.859z"/>
							</g>
							<g>
								<path style="fill:#3D1010;" d="M103.63,428.595c-0.275,0-0.499-0.223-0.5-0.498c-0.001-0.275,0.222-0.501,0.498-0.502
									c15.714-0.075,17.231-13.708,17.245-13.846c0.027-0.274,0.267-0.464,0.546-0.449c0.275,0.027,0.476,0.272,0.449,0.547
									c-0.014,0.147-1.629,14.669-18.235,14.748C103.631,428.595,103.631,428.595,103.63,428.595z"/>
							</g>
							<g>
								<path style="fill:#3D1010;" d="M134.273,499.761c-0.222,0-0.424-0.148-0.483-0.373l-19.46-74.393
									c-0.07-0.268,0.09-0.541,0.357-0.61c0.267-0.072,0.54,0.089,0.61,0.356l19.461,74.394c0.07,0.268-0.09,0.541-0.357,0.61
									C134.357,499.756,134.315,499.761,134.273,499.761z"/>
							</g>
						</g>
					</g>
					<g>
						<g>
							<path style="fill:#EEF8E7;" d="M194.24,379.913l-4.565-17.739l-96.196,20.283l-2.544,18.978c0,0,15.885,9.149,52.957,3.13
								c5.783-0.939,11.01-2.234,15.727-3.738l-1.184-22.675l10.048,19.378C186.33,389.873,194.24,379.913,194.24,379.913z"/>
						</g>
						<g>
							<path style="fill:#BEDCFF;" d="M93.054,385.63c0,0,15.221,15.029,65.946,3.334l-0.564-10.812l5.047,9.733
								c14.19-3.688,23.333-8.797,29.146-14.234l-2.954-11.477l-96.196,20.283L93.054,385.63L93.054,385.63z"/>
						</g>
						<g>
							<g>
								<path style="fill:#667F91;" d="M199.849,236.044c0,0,8.329,4.502,12.131,15.13c4.435,12.4-5.217,38.739-29.163,58.901
									L199.849,236.044z"/>
							</g>
							<g>
								<path style="fill:#7B96AB;" d="M92.697,385.391L67.991,273.619c-2.274-10.29,2.692-20.844,12.112-25.568
									c23.802-11.935,71.288-29.571,119.746-12.008l-19.011,82.63l12.689,39.182c0.949,2.931,0.262,6.147-1.824,8.415
									c-5.59,6.075-19.28,17.324-47.289,22.772C107.371,396.25,92.697,385.391,92.697,385.391z"/>
							</g>
							<g>
								<path style="fill:#667F91;" d="M111.088,313.499l61.901-10.673c0,0-1.249,17.617-22.191,22.464
									C124.251,331.434,111.088,313.499,111.088,313.499z"/>
							</g>
						</g>
						<g>
							<path style="fill:#FFC52E;" d="M192.99,233.786c0,0,6.148,5.348,2.413,21.583c-3.735,16.235-14.564,63.304-14.564,63.304
								s9.621-16.023,17.054-39.196c5.586-17.412,7.258-29.42,7.691-36.333c0.258-4.122-2.339-7.88-6.275-9.132l-7.336-2.333
								c-1.809-0.59-3.776-0.457-5.49,0.37l0,0L192.99,233.786z"/>
						</g>
						<g>
							<path style="fill:#FF9100;" d="M182.429,315.074c-0.039,0-0.079-0.006-0.118-0.02c-0.196-0.064-0.303-0.277-0.238-0.474
								c0.142-0.427,14.194-42.86,17.768-59.378c3.372-15.584-0.781-20.901-0.823-20.953c-0.131-0.161-0.107-0.397,0.053-0.528
								c0.16-0.13,0.396-0.108,0.528,0.053c0.182,0.224,4.423,5.651,0.976,21.585c-3.582,16.557-17.647,59.029-17.789,59.456
								C182.733,314.975,182.587,315.074,182.429,315.074z"/>
						</g>
					</g>
				</g>
				<g>
					<g>
						<path style="fill:#EE7767;" d="M101.11,305.401l15.421-14.875c2.031-1.958,4.994-2.6,7.653-1.657l9.926,3.522l0.326,3
							L101.11,305.401z"/>
					</g>
					<g>
						<g>
							<path style="fill:#7B96AB;" d="M85.421,245.485l-3.376,1.461c-5.147,2.228-9.755,5.527-13.504,9.698
								c-12.079,13.435-36.984,49.312-40.278,87.53c-1.855,21.531,16.638,30.669,30.764,22.956c0.137-0.075,0.273-0.151,0.41-0.228
								c13.63-7.696,26.804-17.054,30.261-19.467c3.456-2.413,4.761-6.391,3.065-9.391l-10.109-26.478l18.457-26.739L85.421,245.485
								z"/>
						</g>
						<g>
							<g>
								<path style="fill:#667F91;" d="M41.892,324.998c-0.15,0-0.301-0.052-0.423-0.157c-0.272-0.234-0.303-0.645-0.069-0.917
									c7.008-8.147,14.09-6.879,16.101-6.297c1.009-1.728,4.776-7.514,11.286-10.059c8.254-3.223,14.295,3.499,14.355,3.566
									c0.237,0.27,0.211,0.68-0.059,0.917c-0.269,0.235-0.679,0.212-0.917-0.058c-0.222-0.25-5.517-6.104-12.906-3.215
									c-7.086,2.77-10.84,9.862-10.877,9.934c-0.156,0.302-0.52,0.431-0.832,0.298c-0.306-0.13-7.575-3.064-15.165,5.761
									C42.257,324.921,42.075,324.998,41.892,324.998z"/>
							</g>
							<g>
								<path style="fill:#667F91;" d="M82.653,312.215c-0.128,0-0.256-0.038-0.369-0.115c-0.295-0.204-0.37-0.609-0.166-0.904
									l18.457-26.738c0.205-0.295,0.609-0.368,0.904-0.166c0.296,0.204,0.37,0.609,0.166,0.904l-18.457,26.738
									C83.062,312.116,82.859,312.215,82.653,312.215z"/>
							</g>
							<g>
								<path style="fill:#667F91;" d="M85.027,351.189c-0.159,0-0.315-0.075-0.412-0.216c-0.157-0.228-0.1-0.539,0.128-0.695
									c1.644-1.135,2.981-2.071,3.929-2.735l0.739-0.518c3.263-2.277,4.489-5.951,2.916-8.735
									c-0.136-0.24-0.051-0.546,0.189-0.682c0.239-0.136,0.545-0.052,0.681,0.19c1.833,3.242,0.48,7.468-3.214,10.048
									l-0.737,0.516c-0.95,0.666-2.288,1.604-3.936,2.739C85.224,351.16,85.125,351.189,85.027,351.189z"/>
							</g>
							<g>
								<path style="fill:#576C7A;" d="M28.362,350.762c1.412,11.579,9.528,18.261,18.571,18.996
									c1.265-2.196,2.008-4.792,2.008-7.584c0-7.845-5.781-14.205-12.913-14.205C33.154,347.969,30.508,349.015,28.362,350.762z"
									/>
							</g>
						</g>
					</g>
					<g>
						<g>
							<g>
								<path style="fill:#FFC52E;" d="M90.075,241.799l-13.14,5.661c-1.556,0.67-2.564,2.202-2.564,3.897l0,0l2.993-2
									c0,0,31.969,6.93,46.249,47.025c0,0,5.146,17.274-4.277,30.449c-4.66,6.516-20.408,21.184-20.408,21.184l2.835,7.636
									c0,0,21.098-18.978,26.592-26.902c5.494-7.924,8.517-20.427,6.872-34.739c-1.663-14.468-17.706-42.886-43.539-52.265
									C91.165,241.556,90.586,241.579,90.075,241.799z"/>
							</g>
							<g>
								<g>
									<path style="fill:#FF9100;" d="M128.354,328.75c0.907-1.308,1.702-2.75,2.41-4.291l-9.492-0.773
										c-0.567,1.066-1.203,2.12-1.938,3.146c-1.182,1.652-3.078,3.829-5.247,6.158c2.046,1.177,4.984,2.697,7.652,3.454
										C124.55,333.494,126.958,330.764,128.354,328.75z"/>
								</g>
								<g>
									<path style="fill:#FF9100;" d="M130.692,295.312c-0.156,0-0.301-0.098-0.355-0.253
										c-14.659-42.676-46.014-50.245-46.329-50.316c-0.202-0.046-0.329-0.247-0.283-0.449c0.046-0.202,0.252-0.327,0.449-0.283
										c0.319,0.072,32.079,7.737,46.872,50.803c0.067,0.196-0.037,0.409-0.232,0.477
										C130.774,295.305,130.733,295.312,130.692,295.312z"/>
								</g>
							</g>
						</g>
						<g>
							<polygon style="fill:#801848;" points="98.662,347.301 102.205,356.844 88.914,371.63 84.59,354.845 							"/>
						</g>
						<g>
							<g>
								<g>
									<g>
										<g>
											<path style="fill:#EEF8E7;" d="M115.963,286.387l-3.917-7.588c-1.268-2.458-0.3-5.49,2.157-6.758l8.572-4.424
												c2.458-1.268,5.49-0.301,6.758,2.156l3.917,7.588c1.269,2.458,0.301,5.49-2.157,6.759l-8.572,4.424
												C120.264,289.812,117.232,288.845,115.963,286.387z M115.687,274.913c-0.874,0.451-1.218,1.529-0.767,2.403l3.917,7.588
												c0.451,0.874,1.529,1.218,2.403,0.767l8.572-4.424c0.874-0.451,1.218-1.529,0.767-2.403l-3.916-7.588
												c-0.451-0.874-1.529-1.217-2.403-0.766L115.687,274.913z"/>
										</g>
									</g>
									<g>
										<g>
											<path style="fill:#EEF8E7;" d="M122.918,278.913c0.402-0.196,0.568-0.679,0.372-1.081l-3.362-6.893
												c-0.196-0.402-0.679-0.568-1.081-0.372c-0.401,0.196-0.568,0.679-0.372,1.081l3.362,6.893
												C122.033,278.943,122.517,279.109,122.918,278.913z"/>
										</g>
									</g>
									<g>
										<path style="fill:#BEDCFF;" d="M119.33,285.484c0.532,0.413,1.272,0.515,1.909,0.186l8.572-4.424
											c0.598-0.309,0.922-0.914,0.939-1.543l3.022-1.529c0.71,2.28-0.285,4.813-2.478,5.945l-8.572,4.424
											c-2.24,1.156-4.942,0.44-6.366-1.554L119.33,285.484z"/>
									</g>
								</g>
							</g>
							<g>
								<g>
									<polygon style="fill:#FFC62E;" points="119.399,285.478 126.189,302.718 137.42,298.138 130.622,279.157 									"/>
								</g>
								<g>
									<path style="fill:#ED920C;" d="M119.331,285.86c-0.131,0-0.259-0.069-0.328-0.191c-0.101-0.181-0.037-0.409,0.144-0.511
										l11.292-6.328c0.18-0.101,0.409-0.035,0.51,0.144c0.101,0.181,0.037,0.409-0.144,0.511l-11.292,6.328
										C119.456,285.844,119.393,285.86,119.331,285.86z"/>
								</g>
							</g>
						</g>
					</g>
					<g>
						<g>
							<path style="fill:#4E616B;" d="M102.764,316.888c1.959,6.877,2.347,12.793,0.866,13.215
								c-1.481,0.422-4.269-4.811-6.228-11.688s-2.347-12.793-0.866-13.215C98.017,304.779,100.805,310.011,102.764,316.888z"/>
						</g>
						<g>
							<g>
								<path style="fill:#EE7767;" d="M92.055,309.606l6.498-2.833l15.861-8.512l22.964-4.689c0.745-0.152,1.52-0.048,2.199,0.294
									l0,0c2.186,1.104,2.508,4.094,0.607,5.638l-1.46,1.186l0,0c1.197,0.574,1.892,1.851,1.725,3.169l-2.339,18.386
									c-0.116,0.915-0.522,1.766-1.173,2.42c-1.606,1.614-4.944,4.4-8.582,4.086c-5.087-0.44-22.304-5.674-22.304-5.674
									l-8.964,4.859L92.055,309.606z"/>
							</g>
							<g>
								<path style="fill:#D55454;" d="M98.553,306.772c0,0-0.378,7.45,5.442,17.575l-6.91,3.588l-5.031-18.33L98.553,306.772z"/>
							</g>
							<g>
								<g>
									<path style="fill:#D55454;" d="M131.861,323.034c-0.123,0-0.242-0.045-0.335-0.129c-0.121-0.11-0.181-0.273-0.161-0.435
										l2.558-20.002c0.022-0.176,0.136-0.326,0.299-0.396l4.305-1.843c0.251-0.109,0.547,0.008,0.656,0.264
										c0.109,0.253-0.009,0.547-0.263,0.656l-4.042,1.73l-2.431,19.006l5.303-1.232c0.27-0.059,0.539,0.105,0.6,0.374
										c0.063,0.27-0.105,0.538-0.374,0.6l-6.003,1.394C131.937,323.031,131.899,323.034,131.861,323.034z"/>
								</g>
								<g>
									<path style="fill:#D55454;" d="M132.74,316.159c-0.227,0-0.433-0.155-0.486-0.387c-0.063-0.269,0.104-0.537,0.373-0.601
										l6.113-1.427c0.271-0.061,0.538,0.105,0.601,0.374c0.063,0.268-0.105,0.537-0.373,0.6l-6.113,1.427
										C132.816,316.156,132.778,316.159,132.74,316.159z"/>
								</g>
								<g>
									<path style="fill:#D55454;" d="M133.564,309.723c-0.214,0-0.412-0.139-0.478-0.353c-0.081-0.264,0.067-0.544,0.332-0.625
										l6.187-1.897c0.266-0.081,0.544,0.068,0.624,0.332c0.081,0.264-0.067,0.544-0.331,0.625l-6.187,1.897
										C133.662,309.716,133.612,309.723,133.564,309.723z"/>
								</g>
								<g>
									<path style="fill:#D55454;" d="M111.967,300.074c-0.178,0-0.351-0.096-0.441-0.264c-0.131-0.243-0.04-0.546,0.204-0.677
										l2.448-1.314c0.043-0.023,0.089-0.04,0.136-0.05l8.916-1.82c0.271-0.056,0.534,0.119,0.59,0.391
										c0.055,0.271-0.119,0.534-0.39,0.59l-8.844,1.806l-2.383,1.278C112.128,300.055,112.046,300.074,111.967,300.074z"/>
								</g>
							</g>
						</g>
						<g>
							<g>
								<path style="fill:#576C7A;" d="M103.63,330.103c-1.481,0.422-4.269-4.811-6.228-11.688s-2.347-12.793-0.866-13.215
									l-14.796,6.821c0,0-3.081,6.841,0.391,15.913c3.196,8.348,10.304,10.369,10.304,10.369L103.63,330.103z"/>
							</g>
							<g>
								<g>
									<path style="fill:#4E616B;" d="M80.931,320.819c-0.141,0-0.276-0.08-0.34-0.217c-0.087-0.188-0.006-0.41,0.181-0.498
										l14.878-6.944c0.188-0.087,0.411-0.006,0.499,0.182c0.087,0.188,0.006,0.41-0.181,0.498l-14.878,6.944
										C81.039,320.807,80.984,320.819,80.931,320.819z"/>
								</g>
								<g>
									<path style="fill:#4E616B;" d="M85.215,332.819c-0.128,0-0.253-0.065-0.323-0.185c-0.105-0.178-0.046-0.408,0.132-0.514
										l13.713-8.096c0.178-0.106,0.408-0.046,0.513,0.133c0.105,0.178,0.046,0.408-0.132,0.514l-13.713,8.096
										C85.345,332.802,85.279,332.819,85.215,332.819z"/>
								</g>
							</g>
						</g>
					</g>
				</g>
			</g>
			<g>
				<g>
					<g>
						<path style="fill:#576C7A;" d="M96.542,240.348c5.869,14.87,58.956,28.304,81.522,7.435
							c10.326-9.55,4.696-16.891,4.696-16.891c5.087-3.783,5.119-7.5,5.119-7.5c1.618-12.266,2.967-27.38,3.953-40.138
							c0.438-5.662,0.804-10.861,1.09-15.14c1.508-22.529-13.082-43.282-34.986-48.765c-0.34-0.085-0.683-0.168-1.029-0.249
							c-0.59-0.138-1.192-0.212-1.798-0.23c-6.66-0.191-45.329,0.43-51.524,40.218c-6.783,43.565-11.217,52.304-2.609,61.174
							c0,0-3.978,3.978-2.217,9.913C98.76,230.174,94.579,235.373,96.542,240.348z"/>
					</g>
					<g>
						<g>
							<path style="fill:#4E616B;" d="M151.733,244.387c-2.549,0-5.187-0.267-7.888-0.877
								c-22.946-5.186-42.999-22.697-43.198-22.874c-0.207-0.183-0.227-0.499-0.044-0.706c0.183-0.207,0.5-0.227,0.706-0.044
								c0.198,0.175,20.065,17.52,42.758,22.648c21.006,4.751,38.173-11.831,38.343-11.999c0.197-0.194,0.513-0.191,0.707,0.006
								c0.194,0.197,0.191,0.514-0.006,0.707C182.957,231.398,169.509,244.387,151.733,244.387z"/>
						</g>
						<g>
							<path style="fill:#4E616B;" d="M153.667,256.755c-32.557,0-52.911-35.864-53.126-36.251c-0.134-0.241-0.047-0.546,0.194-0.68
								c0.243-0.133,0.545-0.047,0.68,0.194c0.227,0.408,23.103,40.68,58.917,35.228c0.274-0.044,0.528,0.145,0.569,0.419
								c0.042,0.272-0.146,0.528-0.419,0.569C158.156,256.588,155.882,256.755,153.667,256.755z"/>
						</g>
						<g>
							<path style="fill:#4E616B;" d="M146.923,250.429c-0.582,0-1.165-0.018-1.752-0.055
								c-19.859-1.255-31.963-20.556-32.084-20.751c-0.108-0.176-0.054-0.407,0.123-0.516c0.178-0.108,0.408-0.053,0.516,0.122
								c0.118,0.191,12.026,19.166,31.492,20.396c17.177,1.079,31.858-14.617,32.005-14.776c0.14-0.151,0.378-0.162,0.53-0.021
								c0.152,0.14,0.162,0.378,0.021,0.53C177.63,235.514,163.673,250.429,146.923,250.429z"/>
						</g>
						<g>
							<path style="fill:#4E616B;" d="M113.406,243.723c-0.065,0-0.132-0.017-0.192-0.053c-9.782-5.846-14.719-13.215-14.768-13.289
								c-0.114-0.172-0.066-0.405,0.106-0.52c0.174-0.114,0.406-0.067,0.52,0.106c0.048,0.073,4.9,7.306,14.527,13.059
								c0.178,0.106,0.236,0.336,0.129,0.514C113.658,243.658,113.534,243.723,113.406,243.723z"/>
						</g>
						<g>
							<path style="fill:#4E616B;" d="M152.151,232.776c-7.945,0-16.592-4.288-16.999-4.492c-0.247-0.124-0.347-0.424-0.223-0.671
								c0.124-0.247,0.425-0.348,0.671-0.223c0.109,0.055,10.985,5.442,19.236,4.194c10.12-1.535,22.981-13.715,23.11-13.838
								c0.199-0.19,0.517-0.184,0.707,0.017c0.19,0.2,0.183,0.516-0.017,0.707c-0.535,0.51-13.222,12.521-23.65,14.103
								C154.063,232.713,153.111,232.776,152.151,232.776z"/>
						</g>
						<g>
							<path style="fill:#4E616B;" d="M147.966,239.641c-0.037,0-0.075-0.004-0.113-0.013c-0.222-0.051-22.336-5.333-31.952-22.334
								c-5.457-9.649-6.596-22.947-6.607-23.08c-0.022-0.275,0.183-0.517,0.458-0.539c0.273-0.018,0.517,0.183,0.539,0.458
								c0.011,0.131,1.133,13.214,6.48,22.669c9.396,16.612,31.089,21.801,31.307,21.852c0.269,0.063,0.436,0.331,0.374,0.6
								C148.4,239.485,148.194,239.641,147.966,239.641z"/>
						</g>
					</g>
				</g>
				<g>
					<g>
						<g>
							<g>
								<path style="fill:#EE7767;" d="M153.088,127.675c-21.555-0.741-42.009,15.562-43.272,37.412l-0.024,26.88
									c-0.007,8.451,3.203,16.629,9.098,22.684c18.631,19.135,47.489,16.783,60.869,2.578
									c13.328-14.151,8.217-32.674,8.217-32.674l1.274-15.75C190.15,146.891,174.961,128.427,153.088,127.675z"/>
							</g>
							<g>
								<path style="fill:#D55454;" d="M109.816,165.087c1.263-21.849,21.718-38.152,43.272-37.412
									c21.873,0.752,37.062,19.216,36.163,41.129l-0.508,6.286c-0.001-0.001-16.932-18.851-30.074-20.025
									c-13.141-1.174-48.855,21.369-48.855,21.369L109.816,165.087z"/>
							</g>
						</g>
						<g>
							<g>
								<g>
									<path style="fill:#3D1010;" d="M139.396,170.072c-0.441,4.861,0.379,8.909,1.832,9.041
										c1.453,0.132,2.988-3.702,3.429-8.564c0.441-4.861-0.379-8.909-1.832-9.041
										C141.372,161.376,139.837,165.21,139.396,170.072z"/>
								</g>
								<g>
									<path style="fill:#3D1010;" d="M167.931,173.07c-0.441,4.861,0.379,8.909,1.832,9.041c1.453,0.132,2.988-3.702,3.429-8.564
										c0.441-4.861-0.379-8.909-1.832-9.041C169.907,164.374,168.372,168.208,167.931,173.07z"/>
								</g>
							</g>
							<g>
								<g>
									<path style="fill:#D55454;" d="M157.781,189.188c-0.246,0-0.46-0.181-0.495-0.431c-0.038-0.273,0.152-0.526,0.426-0.564
										c1.659-0.233,5.923-1.286,5.734-3.331c-0.18-1.955-4.366-2.43-5.964-2.448c-0.141-0.001-0.274-0.063-0.368-0.167
										c-0.094-0.105-0.139-0.245-0.124-0.384l0.163-1.565c0.028-0.275,0.267-0.475,0.549-0.445
										c0.275,0.028,0.474,0.274,0.445,0.549l-0.107,1.032c1.66,0.088,6.148,0.58,6.402,3.338c0.314,3.409-6.31,4.374-6.592,4.414
										C157.827,189.186,157.804,189.188,157.781,189.188z"/>
								</g>
								<g>
									<path style="fill:#D55454;" d="M153.835,188.218c-0.103,0-0.206-0.032-0.295-0.097l-2.087-1.533
										c-0.223-0.163-0.27-0.476-0.107-0.699c0.162-0.222,0.477-0.271,0.699-0.107l2.087,1.533
										c0.223,0.163,0.27,0.476,0.107,0.699C154.141,188.147,153.989,188.218,153.835,188.218z"/>
								</g>
							</g>
							<g>
								<g>
									<path style="fill:#3D1010;" d="M153.043,156.622c-0.319,0-0.614-0.205-0.716-0.525c-0.015-0.049-1.608-4.932-6.326-6.249
										c-5.626-1.57-9.79,1.893-9.831,1.929c-0.314,0.269-0.787,0.231-1.057-0.084c-0.269-0.314-0.232-0.786,0.082-1.056
										c0.192-0.165,4.794-4.027,11.21-2.233c5.518,1.541,7.282,7.014,7.354,7.246c0.124,0.395-0.097,0.814-0.491,0.938
										C153.192,156.611,153.117,156.622,153.043,156.622z"/>
								</g>
								<g>
									<path style="fill:#3D1010;" d="M165.041,157.074c-0.117,0-0.235-0.028-0.346-0.085c-0.367-0.192-0.509-0.644-0.318-1.01
										c0.104-0.199,2.601-4.888,7.762-5.223c5.577-0.362,9.65,3.788,9.821,3.964c0.287,0.298,0.278,0.771-0.019,1.059
										c-0.298,0.289-0.772,0.28-1.06-0.017c-0.037-0.039-3.764-3.826-8.645-3.509c-4.304,0.279-6.506,4.378-6.528,4.419
										C165.572,156.928,165.311,157.074,165.041,157.074z"/>
								</g>
								<g>
									<path style="fill:#3D1010;" d="M110.759,172.826c-0.247,0-0.462-0.183-0.495-0.435c-0.036-0.274,0.156-0.525,0.43-0.561
										l15.252-2.016c0.272-0.036,0.525,0.157,0.561,0.43c0.036,0.274-0.156,0.525-0.43,0.561l-15.252,2.016
										C110.803,172.824,110.78,172.826,110.759,172.826z"/>
								</g>
							</g>
							<g>
								<g>
									<path style="fill:#801848;" d="M130.475,197.939L130.475,197.939c-0.971,2.748-0.979,7.521,2.573,11.903
										c4.598,5.674,20.169,10.418,30.473,5.201c3.812-1.93,5.579-5.513,6.067-8.172v0c0.715-3.893-1.82-7.642-5.7-8.429
										l-25.263-5.123C135.137,192.613,131.66,194.583,130.475,197.939z"/>
								</g>
								<g>
									<path style="fill:#E33432;" d="M133.2,210.017c2.93-4.351,11.515-6.194,18.117-4.169c5.761,1.767,7.9,5.965,8.845,10.502
										C150.219,219.228,137.473,215.026,133.2,210.017z"/>
								</g>
								<g>
									<g>
										<path style="fill:#EEF8E7;" d="M137.624,193.197c0.333,0.02,0.667,0.055,1.001,0.123l25.263,5.123
											c0.401,0.081,0.783,0.201,1.154,0.343c-0.974,1.45-3.67,3.926-10.472,2.839c-3.847-0.614-7.242-1.363-9.91-2.032
											C141.363,198.766,138.748,196.34,137.624,193.197z"/>
									</g>
									<g>
										<g>
											<path style="fill:#BEDCFF;" d="M150.784,200.87c-0.031,0-0.062-0.004-0.093-0.012c-0.201-0.051-0.322-0.255-0.271-0.456
												l1.066-4.178c0.051-0.201,0.255-0.321,0.456-0.27c0.201,0.051,0.322,0.255,0.271,0.456l-1.066,4.178
												C151.104,200.757,150.951,200.87,150.784,200.87z"/>
										</g>
										<g>
											<path style="fill:#BEDCFF;" d="M159.585,201.717c-0.03,0-0.061-0.003-0.091-0.011c-0.201-0.05-0.324-0.253-0.273-0.454
												l0.823-3.308c0.05-0.202,0.256-0.325,0.454-0.273c0.201,0.05,0.324,0.254,0.273,0.454l-0.823,3.308
												C159.905,201.603,159.753,201.717,159.585,201.717z"/>
										</g>
										<g>
											<path style="fill:#BEDCFF;" d="M142.237,198.409c-0.034,0-0.068-0.004-0.103-0.014c-0.199-0.057-0.315-0.264-0.258-0.463
												l0.977-3.434c0.057-0.199,0.263-0.314,0.463-0.258c0.199,0.057,0.315,0.264,0.258,0.463l-0.977,3.434
												C142.551,198.302,142.4,198.409,142.237,198.409z"/>
										</g>
									</g>
								</g>
							</g>
							<g>
								<g>
									<circle style="fill:#D55454;" cx="126.011" cy="184.21" r="7.775"/>
								</g>
								<g>
									
										<ellipse transform="matrix(0.9744 -0.2248 0.2248 0.9744 -38.1383 45.561)" style="fill:#D55454;" cx="181.005" cy="190.259" rx="7.775" ry="7.775"/>
								</g>
							</g>
						</g>
					</g>
					<g>
						<g>
							<path style="fill:#576C7A;" d="M189.109,170.562c0,0,2.683-11.149-0.545-20.736c-3.228-9.587-12.846-24.904-32.651-26.208
								c-19.805-1.304-39.251,9.773-44.631,26.306s-1.466,22.402-1.466,22.402s37.76-31.989,49.303-30.326
								C171.131,143.731,189.109,170.562,189.109,170.562z"/>
						</g>
						<g>
							<g>
								<path style="fill:#4E616B;" d="M189.252,169.305c-0.007,0-0.014,0-0.021-0.001c-0.276-0.011-0.49-0.244-0.479-0.52
									c0.335-8.147-1.568-15.988-5.503-22.675c-0.14-0.238-0.061-0.544,0.178-0.685c0.238-0.14,0.545-0.061,0.685,0.178
									c4.032,6.853,5.982,14.883,5.64,23.223C189.74,169.094,189.518,169.305,189.252,169.305z"/>
							</g>
							<g>
								<path style="fill:#4E616B;" d="M109.814,168.62L109.814,168.62c-0.277-0.001-0.501-0.224-0.5-0.501l0.003-3.033
									c0.589-10.217,5.361-19.758,13.436-26.895c0.207-0.183,0.523-0.163,0.706,0.044c0.183,0.207,0.163,0.523-0.044,0.706
									c-7.873,6.958-12.525,16.254-13.099,26.175l-0.002,3.004C110.313,168.396,110.089,168.62,109.814,168.62z"/>
							</g>
						</g>
						<g>
							<g>
								<path style="fill:#EEF8E7;" d="M109.815,176.036c0,0,34.547-30.318,48.912-29.536c6.333,0.345,21.709,12.419,30.066,27.965
									l0.458-5.661c-4.182-15.391-24.261-36.186-31.209-36.196c-9.038-0.012-36.196,19.696-48.228,35.511L109.815,176.036z"/>
							</g>
							<g>
								<path style="fill:#BEDCFF;" d="M110.254,172.061c-0.098,0-0.196-0.038-0.269-0.114c-0.145-0.149-0.141-0.386,0.008-0.53
									c1.444-1.399,35.514-34.249,48.216-32.266c12.287,1.921,30.064,29.424,30.814,30.594c0.112,0.174,0.062,0.406-0.113,0.518
									c-0.175,0.113-0.407,0.061-0.518-0.113c-0.182-0.284-18.344-28.389-30.299-30.258
									c-12.357-1.943-47.227,31.723-47.578,32.063C110.442,172.026,110.348,172.061,110.254,172.061z"/>
							</g>
						</g>
						<g>
							<g>
								<path style="fill:#3D1010;" d="M140.859,186.034c-0.723,0-1.455-0.051-2.191-0.157c-8.375-1.203-14.211-8.995-13.009-17.371
									c0.582-4.057,2.71-7.645,5.991-10.102c3.28-2.457,7.321-3.489,11.379-2.907c4.057,0.583,7.645,2.71,10.102,5.991
									c2.457,3.281,3.489,7.322,2.907,11.379l0,0C154.942,180.508,148.363,186.034,140.859,186.034z M140.819,156.34
									c-3.078,0-6.061,0.987-8.569,2.866c-3.067,2.297-5.056,5.651-5.6,9.444c-1.124,7.829,4.331,15.114,12.161,16.238
									c3.79,0.545,7.57-0.42,10.637-2.717c3.067-2.297,5.056-5.651,5.6-9.444c1.124-7.83-4.331-15.114-12.161-16.238
									C142.196,156.389,141.505,156.34,140.819,156.34z M155.544,172.797h0.01H155.544z"/>
							</g>
							<g>
								<path style="fill:#3D1010;" d="M174.564,189.548c-0.66,0-1.324-0.047-1.988-0.142c-7.929-1.139-13.401-8.878-12.199-17.254
									c1.204-8.376,8.632-14.258,16.561-13.125c3.846,0.552,7.233,2.655,9.537,5.92c2.298,3.257,3.243,7.282,2.662,11.334
									c-0.582,4.052-2.621,7.648-5.742,10.127C180.804,188.464,177.728,189.548,174.564,189.548z M174.972,159.886
									c-6.667,0-12.573,5.227-13.604,12.408c-1.124,7.829,3.968,15.061,11.351,16.121c3.569,0.511,7.141-0.479,10.053-2.791
									c2.92-2.319,4.829-5.689,5.374-9.486c0.545-3.798-0.338-7.568-2.488-10.615c-2.144-3.039-5.291-4.994-8.862-5.506
									C176.184,159.929,175.574,159.886,174.972,159.886z"/>
							</g>
							<g>
								<path style="fill:#3D1010;" d="M160.758,173.808c-0.165,0-0.327-0.082-0.422-0.232c-0.518-0.815-1.136-1.275-1.84-1.371
									c-1.343-0.181-2.605,0.95-2.617,0.962c-0.204,0.186-0.521,0.17-0.706-0.035c-0.186-0.205-0.17-0.52,0.035-0.706
									c0.065-0.059,1.63-1.45,3.422-1.212c1.009,0.137,1.867,0.751,2.55,1.826c0.148,0.233,0.079,0.542-0.154,0.69
									C160.943,173.783,160.85,173.808,160.758,173.808z"/>
							</g>
						</g>
					</g>
				</g>
			</g>
		</g>
		<g>
			<g>
				<g>
					<g>
						<g>
							<path style="fill:#FFC52E;" d="M351.391,398.746l-31.779,44.676L314.368,500h33.564l13.744-26.499
								c1.029-1.984,1.664-4.149,1.871-6.374l5.51-59.445c0.112-1.207-0.591-2.341-1.722-2.778L351.391,398.746z"/>
						</g>
						<g>
							<g>
								<polygon style="fill:#FF9100;" points="336.042,500 314.368,500 319.612,443.422 340.481,452.109 								"/>
							</g>
							<g>
								<path style="fill:#DC6E28;" d="M324.747,499.801c-0.017,0-0.033-0.001-0.05-0.002c-0.274-0.027-0.476-0.271-0.449-0.547
									l5.049-51.641c0.027-0.274,0.282-0.46,0.547-0.449c0.274,0.027,0.476,0.271,0.449,0.547l-5.049,51.641
									C325.218,499.608,325.001,499.801,324.747,499.801z"/>
							</g>
						</g>
					</g>
					<g>
						<path style="fill:#4448A9;" d="M355.098,400.178c0,0,12.442-42.641,7.868-96.41l11.025,10.267c0,0,3.674,36.975-10.756,89.285
							L355.098,400.178z"/>
					</g>
					<g>
						<g>
							<path style="fill:#FFC52E;" d="M319.612,443.422l20.869,8.686l9.307,17.993c0.572,1.105,2.149,1.116,2.735,0.018
								l22.383-41.948c0.331-0.62,0.408-1.345,0.214-2.02l-5.384-18.796c-0.309-1.079-1.106-1.951-2.154-2.356l-16.192-6.253
								L319.612,443.422z"/>
						</g>
						<g>
							<g>
								<path style="fill:#FF9100;" d="M344.773,445.923c-0.135,0-0.271-0.036-0.394-0.112c-0.352-0.218-0.461-0.681-0.243-1.032
									l20.754-33.526c0.218-0.353,0.68-0.461,1.032-0.243c0.353,0.218,0.461,0.681,0.243,1.032l-20.754,33.526
									C345.27,445.797,345.024,445.923,344.773,445.923z"/>
							</g>
							<g>
								<path style="fill:#FF9100;" d="M351.161,471.437c-0.005,0-0.009,0-0.014,0c-0.762-0.005-1.453-0.429-1.804-1.105
									l-9.223-17.831l-20.701-8.616c-0.255-0.106-0.375-0.399-0.27-0.654c0.107-0.255,0.397-0.372,0.654-0.27l20.869,8.686
									c0.108,0.046,0.197,0.128,0.252,0.232l9.307,17.993c0.182,0.351,0.526,0.561,0.922,0.564c0.002,0,0.004,0,0.007,0
									c0.393,0,0.736-0.206,0.921-0.553l13.005-24.373c0.13-0.245,0.435-0.335,0.677-0.206c0.244,0.13,0.336,0.434,0.206,0.677
									l-13.005,24.373C352.607,471.023,351.917,471.437,351.161,471.437z"/>
							</g>
						</g>
					</g>
				</g>
				<g>
					<g>
						<path style="fill:#561F1D;" d="M187.588,397c0,0-8.087,12.391-1.565,40.565c6.18,26.698,15.783,62.435,15.783,62.435h74.739
							l29.609-57.609v-17.609C306.154,424.783,258.936,420.348,187.588,397z"/>
					</g>
					<g>
						<g>
							<path style="fill:#3D1010;" d="M183.862,410.144c7.057,11.168,39.015,53.674,113.869,48.633l8.422-16.386v-17.609
								c0,0-47.218-4.435-118.565-27.783C187.588,397,184.878,401.169,183.862,410.144z"/>
						</g>
						<g>
							<path style="fill:#3D1010;" d="M239.281,499.801c-0.255,0-0.473-0.194-0.497-0.453l-4.059-42.944l-7.34-3.878
								c-0.244-0.129-0.338-0.432-0.208-0.676c0.128-0.245,0.431-0.338,0.675-0.209l7.579,4.004
								c0.149,0.079,0.248,0.228,0.264,0.396l4.084,43.214c0.026,0.274-0.176,0.519-0.451,0.545
								C239.313,499.8,239.296,499.801,239.281,499.801z"/>
						</g>
						<g>
							<path style="fill:#3D1010;" d="M289.816,470.903c-13.857,0-16.125-11.904-16.147-12.025c-0.048-0.271,0.133-0.53,0.404-0.579
								c0.275-0.047,0.532,0.133,0.58,0.404c0.082,0.457,2.16,11.199,15.162,11.199c0.276,0,0.5,0.224,0.5,0.5
								C290.316,470.679,290.092,470.903,289.816,470.903z"/>
						</g>
						<g>
							<path style="fill:#3D1010;" d="M267.121,499.663c-0.065,0-0.133-0.013-0.196-0.04c-0.254-0.108-0.372-0.402-0.264-0.656
								l13.365-31.246c0.108-0.255,0.404-0.372,0.656-0.264c0.254,0.108,0.372,0.402,0.264,0.656l-13.365,31.246
								C267.5,499.55,267.315,499.663,267.121,499.663z"/>
						</g>
					</g>
				</g>
				<g>
					<g>
						<polygon style="fill:#BEDCFF;" points="146.501,325.522 133.313,339.656 174.675,367.978 187.83,350.552 						"/>
					</g>
					<g>
						<path style="fill:#E33432;" d="M200.156,255.144l-56.882,68.761c-0.722,0.872-0.549,2.175,0.376,2.828l45.373,32.05
							l30.125-33.241l-9.319-75.296l0,0C206.064,250.463,202.56,252.238,200.156,255.144z"/>
					</g>
				</g>
				<g>
					<path style="fill:#801848;" d="M399.531,383.029c-6.219,21.125-13.739,37.521-16.797,36.621
						c-3.058-0.9-0.496-18.755,5.723-39.881c6.218-21.126,14.349-37.47,16.796-36.621
						C408.265,344.192,405.749,361.903,399.531,383.029z"/>
				</g>
				<g>
					<g>
						<g>
							<path style="fill:#EE7767;" d="M437.23,93.611c-8.067,3.126-12.801,11.518-11.304,20.039l9.319,53.058
								c1.441,9.699-0.852,19.584-6.417,27.658l0,0l-12.327,21.035l-24.484-26.951c-5.133-5.65-14.171-5.118-18.606,1.095l0,0
								c-1.346,1.886-1.321,4.423,0.067,6.278c6.559,8.767,24.631,33.383,24.058,37.675c-3.325,24.885,7.718,41.35,7.718,41.35
								v8.609c22.792,5.576,41.838-2.565,41.838-2.565l-1.242-7.348l13.435-92.87l-17.439-84.549
								C441.415,94.04,439.215,92.842,437.23,93.611L437.23,93.611z"/>
						</g>
						<g>
							<polygon style="fill:#D55454;" points="431.332,144.432 449.063,131.118 447.226,122.213 429.653,134.872 							"/>
						</g>
					</g>
					<g>
						<g>
							<g>
								<path style="fill:#0A6654;" d="M411.03,156.759l0.642,0.903l-10.152,7.356l-20.917,15.156
									c-1.019,0.739-2.458,0.486-3.214-0.564l-2.855-3.971l-0.817,0.592l2.989,4.157c1.148,1.596,3.335,1.98,4.884,0.857
									l20.775-15.052l12.192-8.834c0.264-0.192,0.151-0.618-0.177-0.662l-2.905-0.637
									C411.076,155.972,410.79,156.422,411.03,156.759z"/>
							</g>
							<g>
								<path style="fill:#0A6654;" d="M367.734,170.254l1.38-0.999l5.564,7.737l-1.38,0.999c-1.201,0.87-2.896,0.573-3.786-0.664
									l-1.171-1.628l-1.171-1.628C366.28,172.833,366.533,171.124,367.734,170.254z"/>
							</g>
							<g>
								<path style="fill:#71C436;" d="M486.098,88.196l-19.265,8.419l-96.825,70.156c-1.095,0.793-1.495,2.268-0.936,3.54
									c1.067,2.428,2.634,4.607,4.594,6.388c1.026,0.933,2.547,1.016,3.642,0.223l96.825-70.156l14.026-15.702
									c0.27-0.302,0.289-0.758,0.047-1.095l-1.059-1.472C486.906,88.16,486.468,88.035,486.098,88.196z"/>
							</g>
							<g>
								<path style="fill:#3D1010;" d="M487.349,90.47c-0.31,0-0.615-0.143-0.811-0.413c-0.324-0.447-0.225-1.073,0.223-1.396
									l2.508-1.817c0.448-0.324,1.073-0.225,1.396,0.223c0.324,0.447,0.225,1.073-0.223,1.396l-2.508,1.817
									C487.757,90.409,487.552,90.47,487.349,90.47z"/>
							</g>
							<g>
								<path style="fill:#EEF8E7;" d="M488.206,89.968l-1.059-1.472c-0.242-0.337-0.68-0.462-1.05-0.3l-19.265,8.419
									c-0.087,4.612,2.911,8.781,7.3,10.15l14.026-15.702C488.429,90.762,488.449,90.305,488.206,89.968z"/>
							</g>
							<g>
								<path style="fill:#33884C;" d="M443.462,120.594L443.462,120.594c0.714,0.993,0.512,2.364-0.452,3.063l-36.854,26.703
									c-0.964,0.698-2.324,0.46-3.038-0.533l0,0c-0.714-0.993-0.512-2.364,0.452-3.062l36.854-26.702
									C441.388,119.362,442.748,119.601,443.462,120.594z"/>
							</g>
						</g>
						<g>
							
								<rect x="376.228" y="163.367" transform="matrix(0.8248 -0.5655 0.5655 0.8248 -29.9012 242.7501)" style="fill:#33884C;" width="0.999" height="12.507"/>
						</g>
					</g>
					<g>
						<g>
							<path style="fill:#EE7767;" d="M431.632,188.044l-36.093-63.865c-4.351-7.699-2.694-17.396,3.966-23.214l0,0
								c1.675-1.463,4.26-1.089,5.452,0.79l47.936,75.593l3.522,19.957L431.632,188.044z"/>
						</g>
						<g>
							<path style="fill:#D55454;" d="M454.641,188.012c-0.358,0-0.674-0.256-0.737-0.62l-1.725-9.768l-21.745-34.29
								c-0.222-0.35-0.117-0.814,0.232-1.035c0.35-0.223,0.814-0.118,1.035,0.231l21.824,34.416
								c0.052,0.083,0.088,0.175,0.104,0.271l1.75,9.914c0.072,0.408-0.2,0.797-0.608,0.869
								C454.728,188.009,454.684,188.012,454.641,188.012z"/>
						</g>
					</g>
					<g>
						<g>
							<path style="fill:#EE7767;" d="M434.967,208.517l-26.189-13.887L396.251,205l-1.19,11.009
								c-0.662,6.122-5.769,10.8-11.926,10.923h0c-2.142,0.043-3.866-1.748-3.743-3.886l1.19-20.701
								c0.138-2.4,1.073-4.685,2.657-6.492l16.565-18.903c3.101-3.539,8.185-4.569,12.419-2.515l32.521,15.773L434.967,208.517z"/>
						</g>
						<g>
							<g>
								<path style="fill:#D55454;" d="M444.744,190.956c-0.109,0-0.221-0.024-0.326-0.075l-16.637-8.069
									c-0.373-0.181-0.528-0.629-0.348-1.002c0.181-0.373,0.628-0.53,1.002-0.348l16.637,8.069
									c0.373,0.181,0.528,0.629,0.348,1.002C445.29,190.801,445.022,190.956,444.744,190.956z"/>
							</g>
							<g>
								<path style="fill:#D55454;" d="M379.954,225.969c-0.249,0-0.492-0.123-0.635-0.349c-0.496-0.783-0.73-1.688-0.677-2.618
									l1.191-20.701c0.147-2.555,1.157-5.021,2.842-6.943l7.527-8.59c0.274-0.313,0.748-0.343,1.059-0.07
									c0.312,0.273,0.343,0.746,0.07,1.058l-7.527,8.59c-1.467,1.673-2.345,3.818-2.473,6.042l-1.19,20.701
									c-0.035,0.614,0.119,1.212,0.446,1.729c0.222,0.35,0.117,0.814-0.232,1.035C380.229,225.931,380.09,225.969,379.954,225.969
									z"/>
							</g>
						</g>
					</g>
					<g>
						<g>
							<path style="fill:#EE7767;" d="M428.043,229.379l-19.661-13.873l-12.662,3.186l-1.149,5.899
								c-1.095,5.624-6.321,9.468-12.016,8.839l0,0c-2.212-0.244-3.744-2.325-3.32-4.51l3.574-18.416
								c0.542-2.792,2.504-5.097,5.173-6.078l18.266-6.716c1.619-0.595,3.407-0.534,4.981,0.172l26.712,11.967L428.043,229.379z"/>
						</g>
						<g>
							<g>
								<path style="fill:#D55454;" d="M420.61,267.185c-0.31,0-0.601-0.194-0.709-0.504c-9.362-26.975,4.875-39.605,5.02-39.729
									c0.313-0.269,0.786-0.233,1.056,0.08c0.271,0.313,0.235,0.787-0.078,1.058c-0.137,0.118-13.591,12.141-4.58,38.1
									c0.136,0.392-0.071,0.818-0.463,0.955C420.774,267.171,420.691,267.185,420.61,267.185z"/>
							</g>
							<g>
								<path style="fill:#D55454;" d="M437.941,210.599c-0.103,0-0.207-0.021-0.307-0.065l-18.818-8.43
									c-0.378-0.169-0.547-0.613-0.378-0.991c0.17-0.378,0.613-0.545,0.991-0.378l18.818,8.43
									c0.378,0.169,0.547,0.613,0.378,0.991C438.501,210.434,438.227,210.599,437.941,210.599z"/>
							</g>
							<g>
								<path style="fill:#D55454;" d="M379.954,225.969c-0.048,0-0.096-0.004-0.144-0.014c-0.407-0.079-0.673-0.473-0.594-0.879
									l2.855-14.714c0.589-3.03,2.754-5.574,5.65-6.639l14.955-5.499c0.388-0.142,0.82,0.057,0.963,0.445
									c0.143,0.389-0.057,0.82-0.445,0.963l-14.955,5.499c-2.407,0.885-4.206,2.998-4.695,5.517l-2.855,14.714
									C380.62,225.72,380.305,225.969,379.954,225.969z"/>
							</g>
							<g>
								<path style="fill:#D55454;" d="M425.409,228.271c-0.149,0-0.3-0.044-0.432-0.137l-16.747-11.816l-11.865,2.985l-1.059,5.432
									c-0.079,0.407-0.469,0.674-0.88,0.593c-0.406-0.08-0.672-0.473-0.593-0.88l1.149-5.899c0.056-0.285,0.271-0.513,0.554-0.584
									l12.662-3.186c0.209-0.052,0.436-0.011,0.615,0.115l17.028,12.015c0.338,0.239,0.419,0.707,0.181,1.045
									C425.877,228.161,425.644,228.271,425.409,228.271z"/>
							</g>
							<g>
								<path style="fill:#D55454;" d="M402.935,231.115c-0.134,0-0.27-0.036-0.393-0.111c-0.353-0.217-0.462-0.679-0.245-1.032
									c5.77-9.374,13.869-9.482,14.211-9.482c0.413,0,0.748,0.334,0.749,0.748c0.001,0.414-0.334,0.75-0.747,0.752
									c-0.309,0.001-7.625,0.139-12.936,8.768C403.433,230.989,403.187,231.115,402.935,231.115z"/>
							</g>
						</g>
					</g>
				</g>
				<g>
					<g>
						<path style="fill:#E33432;" d="M360.082,301.082c-56.143-50.548-130.038-51.611-150.626-50.824
							c-3.058,0.117-5.431,2.704-5.301,5.761l3.52,83.327l-27.326,61.696C224.566,465.413,310.36,443.5,310.36,443.5l3.098-65.804
							l7.269-11.944l61.088,52.692c-1.4-4.452,1.243-20.331,6.643-38.675c6.218-21.125,13.739-37.521,16.796-36.621L360.082,301.082
							z"/>
					</g>
					<g>
						<g>
							<path style="fill:#801848;" d="M209.456,250.259c-3.058,0.117-5.431,2.704-5.301,5.761l3.52,83.327l-19.845,44.805
								l56.197-18.196c0,0,40.241,8.375,76.415,0.263l0.285-0.468l0.375,0.324c25.352-5.835,48.563-19.871,54.32-50.707
								l-15.34-14.285C303.939,250.534,230.044,249.471,209.456,250.259z"/>
						</g>
						<g>
							<path style="fill:#5B0638;" d="M320.725,366.501c-0.135,0-0.271-0.036-0.395-0.112c-0.352-0.219-0.46-0.681-0.242-1.033
								l38.978-62.84c0.219-0.352,0.681-0.461,1.033-0.242c0.351,0.219,0.46,0.681,0.242,1.033l-38.978,62.84
								C321.221,366.375,320.976,366.501,320.725,366.501z"/>
						</g>
						<g>
							<path style="fill:#5B0638;" d="M327.849,355.019c-0.286,0-0.56-0.165-0.685-0.443c-0.169-0.378,0-0.821,0.378-0.991
								l27.021-12.116c0.377-0.171,0.821,0,0.991,0.378c0.169,0.378,0,0.821-0.378,0.991l-27.022,12.116
								C328.056,354.998,327.952,355.019,327.849,355.019z"/>
						</g>
						<g>
							<path style="fill:#EEF8E7;" d="M279.839,435.278c-28.311,0-49.689-8.848-63.869-17.551
								c-20.582-12.634-30.858-27.715-30.96-27.865l0.83-0.559c0.1,0.15,10.28,15.078,30.693,27.596
								c18.827,11.547,50.467,23.349,94.293,13.994l0.209,0.978C299.847,434.259,289.442,435.278,279.839,435.278z"/>
						</g>
					</g>
				</g>
				<g>
					<g>
						<path style="fill:#EEF8E7;" d="M402.024,345.792l0.781,0.518l0.574-66.403c0.007-0.759,0.734-1.298,1.463-1.088
							c5.426,1.565,25.062,6.177,41.497-3.341c0.452-0.262,1.021-0.003,1.093,0.514c1.318,9.564,11.014,80.021,13.808,102.617
							c2.681,21.681-3.597,48.093-27.583,55.66c-5.295,1.671-11.08,0.548-15.521-2.784l-35.624-26.725
							C382.511,404.761,388.719,367.734,402.024,345.792z"/>
					</g>
					<g>
						<g>
							<path style="fill:#BEDCFF;" d="M402.805,384.435c-0.553,0-1-0.447-1-1v-42.566c0-0.553,0.447-1,1-1s1,0.447,1,1v42.566
								C403.805,383.988,403.358,384.435,402.805,384.435z"/>
						</g>
						<g>
							<path style="fill:#BEDCFF;" d="M420.023,298.365c-10.099,0-16.939-2.111-17.063-2.15c-0.525-0.168-0.816-0.729-0.649-1.256
								c0.168-0.526,0.731-0.817,1.256-0.65c0.221,0.07,22.2,6.823,45.452-4.487c0.498-0.241,1.097-0.034,1.337,0.462
								c0.241,0.497,0.034,1.095-0.462,1.337C439.015,296.911,428.398,298.365,420.023,298.365z"/>
						</g>
					</g>
				</g>
				<g>
					<g>
						<g>
							<path style="fill:#EEF8E7;" d="M320.504,429.373c-0.301,0-0.593-0.109-0.821-0.308c-0.25-0.218-0.403-0.526-0.426-0.857
								l-0.927-13.572c-0.047-0.689,0.473-1.285,1.162-1.332l13.572-0.928c0.332-0.022,0.656,0.087,0.906,0.305
								c0.25,0.218,0.403,0.526,0.426,0.856l0.928,13.573c0.022,0.331-0.087,0.657-0.305,0.907
								c-0.218,0.249-0.526,0.403-0.857,0.425l-13.573,0.927C320.56,429.372,320.532,429.373,320.504,429.373z M320.909,415.712
								l0.757,11.078l11.079-0.757l-0.758-11.078L320.909,415.712z"/>
						</g>
						<g>
							<g>
								<path style="fill:#BEDCFF;" d="M335.02,428.017c0.218-0.25,0.327-0.576,0.305-0.907l-0.083-1.22l-2.496,0.143l-11.079,0.757
									l-2.497,0.131l0.088,1.286c0.022,0.331,0.176,0.639,0.426,0.857c0.229,0.199,0.521,0.308,0.821,0.308
									c0.028,0,0.057-0.001,0.085-0.003l13.573-0.927C334.493,428.42,334.802,428.267,335.02,428.017z"/>
							</g>
							<g>
								<path style="fill:#BEDCFF;" d="M334.396,413.537c-0.022-0.331-0.176-0.639-0.426-0.856c-0.25-0.218-0.574-0.327-0.906-0.305
									l-13.572,0.928c-0.689,0.047-1.209,0.644-1.162,1.332l0.081,1.183l2.498-0.106l11.078-0.757l2.497-0.136L334.396,413.537z"
									/>
							</g>
						</g>
					</g>
					<g>
						<path style="fill:#5488F1;" d="M320.888,415.623c-2.628-32.466-1.664-85.35,25.472-127.08l11.701,8.858
							c-22.57,41.749-26.787,87.291-26.084,117.554c0.014,0.594-0.442,1.085-1.035,1.122l-8.883,0.554
							C321.458,416.669,320.936,416.224,320.888,415.623z"/>
					</g>
					<g>
						<path style="fill:#5488F1;" d="M321.787,426.739c1.425,11.368,3.013,18.843,3.013,18.843l-0.503,8.233l10.423,4.99
							l0.984-8.684c0,0-2.032-9.49-3.034-24.051c-0.035-0.505-0.467-0.896-0.973-0.868l-9.04,0.49
							C322.12,425.72,321.72,426.206,321.787,426.739z"/>
					</g>
					<g>
						<g>
							<path style="fill:#4B68CA;" d="M346.36,288.543c-13.651,20.993-20.768,44.622-24.143,67.056
								c4.213-1.333,13.415-5.426,17.463-10.246c3.948-15.794,9.814-32.105,18.382-47.953L346.36,288.543z"/>
						</g>
						<g>
							<path style="fill:#4B68CA;" d="M326.683,416.354c-0.199,0-0.365-0.157-0.375-0.358c-1.42-31.239-0.054-88.844,25.048-123.659
								c0.122-0.168,0.356-0.204,0.523-0.084c0.168,0.121,0.206,0.355,0.084,0.523c-24.968,34.63-26.321,92.044-24.905,123.186
								c0.009,0.206-0.151,0.382-0.358,0.392C326.694,416.354,326.689,416.354,326.683,416.354z"/>
						</g>
						<g>
							<path style="fill:#4B68CA;" d="M329.795,448.035c-0.185,0-0.346-0.136-0.371-0.324c-0.015-0.105-1.47-10.73-2.498-21.786
								c-0.02-0.207,0.132-0.39,0.338-0.408c0.243-0.016,0.39,0.133,0.408,0.338c1.027,11.04,2.481,21.648,2.494,21.755
								c0.028,0.205-0.115,0.395-0.32,0.422C329.829,448.034,329.811,448.035,329.795,448.035z"/>
						</g>
						<g>
							<polygon style="fill:#4B68CA;" points="324.8,445.582 335.704,450.12 334.719,458.804 324.297,453.814 							"/>
						</g>
					</g>
				</g>
			</g>
			<g>
				<g>
					<g>
						<path style="fill:#FFC52E;" d="M221.338,237.38c-1.231-8.816,15.471-50.847,24.229-72.084
							c4.926-11.945,13.08-23.268,23.772-30.523c13.957-9.469,33.749-14.948,55.401-9.274c0,0,37.859,7.598,42.457,66.891
							c0,0,3.689,53.661,3.448,83.304c-0.038,4.642-1.711,9.115-4.721,12.649l-0.093,0.109c0,0,2.669,8.047,3.974,12.091
							c1.304,4.044-2.166,7.577-2.166,7.577l-7.079-6.592c0,0-24.533,37.63-63.93,47.34C259.588,358,250,340.88,242.11,323.565
							c-6.294-13.813-26.25-58.011-28.989-64.076c-2.739-6.065-10.027-8.022-14.954-1.941c0,0,1.878-9.439,11.775-16.401
							C216.444,236.572,221.338,237.38,221.338,237.38z"/>
					</g>
					<g>
						<g>
							<path style="fill:#FF9100;" d="M298.988,293.206c-0.452,0-0.899-0.012-1.347-0.035c-14.926-0.792-24.023-16.74-24.403-17.419
								c-0.175-0.313-0.063-0.709,0.25-0.885c0.313-0.174,0.709-0.064,0.885,0.25c0.089,0.159,9.134,16.001,23.337,16.755
								c19.521,1.067,45.699-22.678,45.962-22.918c0.267-0.24,0.677-0.224,0.919,0.042c0.241,0.266,0.223,0.677-0.042,0.919
								C343.485,270.886,318.808,293.206,298.988,293.206z"/>
						</g>
						<g>
							<path style="fill:#FF9100;" d="M345.284,289.91c-0.163,0-0.326-0.061-0.452-0.183c-0.258-0.25-0.264-0.661-0.015-0.919
								c0.043-0.045,4.304-4.512,5.303-11.123c1.031-6.836,5.258-33.655,5.301-33.925c0.055-0.355,0.394-0.596,0.743-0.541
								c0.354,0.056,0.597,0.389,0.54,0.743c-0.042,0.27-4.268,27.085-5.299,33.917c-1.063,7.039-5.468,11.643-5.655,11.835
								C345.623,289.845,345.454,289.91,345.284,289.91z"/>
						</g>
						<g>
							<path style="fill:#FF9100;" d="M289.003,327.495c-4.888,0-9.464-0.895-13.534-2.958
								c-14.941-7.577-53.094-83.632-54.711-86.866c-0.16-0.321-0.03-0.711,0.291-0.872c0.321-0.161,0.711-0.031,0.872,0.291
								c0.394,0.788,39.575,78.903,54.136,86.287c29.369,14.893,88.76-34.915,89.355-35.42c0.274-0.232,0.684-0.199,0.916,0.076
								c0.232,0.275,0.198,0.685-0.076,0.916C364.122,290.751,320.3,327.495,289.003,327.495z"/>
						</g>
						<g>
							<path style="fill:#FF9100;" d="M221.338,237.38c0,0-0.021-0.003-0.046-0.006l7.77,14.983c0,0-5.336-17.061,0.201-45.113
								C224.371,220.995,220.741,233.102,221.338,237.38z"/>
						</g>
					</g>
				</g>
				<g>
					<g>
						<g>
							<path style="fill:#EE7767;" d="M319.651,136.075c-29.246-6.494-58.22,11.95-64.714,41.197l-10.91,48.201
								c23.192,70.506,81.29,66.025,100.474,44.802c18.326-20.274,11.217-45.644,11.217-45.644l5.129-23.841
								C367.342,171.543,348.898,142.569,319.651,136.075z"/>
						</g>
						<g>
							<g>
								<path style="fill:#D55454;" d="M319.651,136.075c-29.246-6.494-58.22,11.95-64.714,41.197l-8.968,39.622l0,0
									c0,0,21.25-48.48,75.25-45.742c0,0,34.742,4.953,39.357,30.902l0.272-1.265
									C367.342,171.543,348.898,142.569,319.651,136.075z"/>
							</g>
							<g>
								<g>
									<path style="fill:#3D1010;" d="M311.629,179.063c-0.463,0-0.878-0.324-0.977-0.794c-0.016-0.073-1.616-7.297-8.204-9.848
										c-7.843-3.038-14.3,1.351-14.363,1.395c-0.453,0.315-1.075,0.204-1.392-0.247c-0.316-0.452-0.208-1.074,0.244-1.391
										c0.296-0.209,7.365-5.057,16.233-1.622c7.619,2.951,9.368,10.964,9.439,11.304c0.112,0.54-0.234,1.068-0.774,1.181
										C311.766,179.056,311.698,179.063,311.629,179.063z"/>
								</g>
								<g>
									<path style="fill:#3D1010;" d="M334.235,181.914c-0.177,0-0.356-0.047-0.519-0.145c-0.472-0.287-0.622-0.902-0.335-1.374
										c0.165-0.272,4.121-6.658,10.591-6.786c0.078-0.001,0.157-0.002,0.235-0.002c6.941,0,11.142,6.05,11.319,6.311
										c0.31,0.456,0.193,1.077-0.263,1.388c-0.454,0.313-1.077,0.195-1.389-0.26c-0.039-0.056-3.881-5.601-9.864-5.436
										c-5.383,0.106-8.886,5.768-8.921,5.825C334.902,181.743,334.573,181.914,334.235,181.914z"/>
								</g>
							</g>
							<g>
								<g>
									<path style="fill:#D55454;" d="M315.675,227.047c-0.141,0-0.283-0.03-0.42-0.093l-2.477-1.148
										c-0.501-0.232-0.719-0.827-0.486-1.328c0.231-0.501,0.824-0.718,1.328-0.486l2.477,1.148
										c0.501,0.232,0.719,0.827,0.486,1.328C316.415,226.832,316.053,227.047,315.675,227.047z"/>
								</g>
								<g>
									<path style="fill:#D55454;" d="M322.904,228.037c-0.416,0-0.804-0.262-0.945-0.677c-0.179-0.523,0.1-1.091,0.621-1.27
										c0.058-0.02,5.67-2.028,4.898-4.716c-0.602-2.093-6.265-2.489-8.903-2.359c-0.308,0.021-0.617-0.117-0.818-0.358
										c-0.201-0.241-0.277-0.563-0.206-0.869l1.032-4.403c0.127-0.538,0.663-0.871,1.202-0.746
										c0.537,0.126,0.871,0.664,0.745,1.202l-0.738,3.151c2.748,0.017,8.639,0.455,9.608,3.829
										c1.309,4.551-5.866,7.057-6.172,7.161C323.12,228.02,323.011,228.037,322.904,228.037z"/>
								</g>
							</g>
							<g>
								<g>
									
										<ellipse transform="matrix(0.1241 -0.9923 0.9923 0.1241 58.2302 465.6338)" style="fill:#3D1010;" cx="292.854" cy="199.835" rx="14.663" ry="4.794"/>
								</g>
								<g>
									<path style="fill:#3D1010;" d="M340.584,206.925c-0.99,7.918-3.486,14.126-5.575,13.864s-2.98-6.892-1.99-14.81
										c0.99-7.918,3.486-14.125,5.575-13.864C340.683,192.376,341.574,199.007,340.584,206.925z"/>
								</g>
							</g>
							<g>
								<g>
									<path style="fill:#EEF8E7;" d="M313.2,236.921l-13.417-5.142c-8.374-3.209-17.792,0.721-21.401,8.931l0,0
										c-2.973,6.763-1.225,14.723,4.413,19.497c5.868,4.969,14.608,10.121,25.999,10.696c6.97,0.352,12.412-0.708,16.597-2.326
										c7.419-2.868,12.262-10.059,12.262-18.013v0c0-7.442-6.001-13.491-13.442-13.551
										C318.415,236.965,312.985,236.921,313.2,236.921z"/>
								</g>
								<g>
									<path style="fill:#BEDCFF;" d="M305.86,270.774c-0.036,0-0.072-0.004-0.109-0.012c-0.27-0.06-0.438-0.328-0.379-0.598
										l7.277-32.575c0.062-0.27,0.326-0.439,0.598-0.379c0.27,0.06,0.438,0.327,0.379,0.597l-7.277,32.576
										C306.296,270.616,306.089,270.774,305.86,270.774z"/>
								</g>
								<g>
									<path style="fill:#BEDCFF;" d="M285.062,261.879c-0.048,0-0.097-0.007-0.145-0.022c-0.265-0.08-0.414-0.358-0.334-0.623
										l9.097-30.15c0.08-0.265,0.36-0.415,0.623-0.334c0.265,0.08,0.414,0.358,0.334,0.623l-9.097,30.15
										C285.475,261.74,285.277,261.879,285.062,261.879z"/>
								</g>
								<g>
									<path style="fill:#BEDCFF;" d="M329.104,266.447c-0.022,0-0.045-0.001-0.067-0.005c-0.273-0.036-0.466-0.288-0.429-0.562
										l3.386-25.311c0.036-0.274,0.294-0.467,0.561-0.429c0.273,0.037,0.466,0.288,0.429,0.562l-3.386,25.311
										C329.565,266.264,329.35,266.447,329.104,266.447z"/>
								</g>
							</g>
							<g>
								<g>
									
										<ellipse transform="matrix(0.6749 -0.7379 0.7379 0.6749 -74.0847 272.4968)" style="fill:#D55454;" cx="272.208" cy="220.325" rx="11.348" ry="11.348"/>
								</g>
								<g>
									<path style="fill:#D55454;" d="M338.544,234.356c0,6.267,5.081,11.348,11.348,11.348c2.536,0,4.87-0.842,6.76-2.248
										c1.335-10.7-0.927-18.803-0.932-18.824c-1.705-1.024-3.694-1.624-5.827-1.624
										C343.624,223.008,338.544,228.089,338.544,234.356z"/>
								</g>
							</g>
						</g>
					</g>
					<g>
						<g>
							<g>
								<path style="fill:#EEF8E7;" d="M250.784,205.098l-0.049,7.924c6.494-12.809,28.601-55.027,73.648-55.63
									c0,0,31.857,8.948,36.465,43.398c0,0,0.203-0.665,0.397-1.952c1.037-6.886,2.757-30.192-16.777-47.863
									C321.284,130,259.524,143.254,250.784,205.098z"/>
							</g>
							<g>
								<path style="fill:#BEDCFF;" d="M250.784,208.114c-0.045,0-0.09-0.008-0.134-0.025c-0.193-0.074-0.29-0.291-0.216-0.484
									c0.054-0.141,5.554-14.287,17.145-28.301c10.714-12.953,28.971-28.447,55.103-28.705c0.42,0.071,34.868,6.943,38.521,45.951
									c0.02,0.207-0.132,0.389-0.338,0.409c-0.209,0.012-0.39-0.132-0.408-0.338c-3.6-38.432-37.497-45.214-37.84-45.278
									c-49.401,0.494-71.268,55.971-71.483,56.531C251.077,208.023,250.935,208.114,250.784,208.114z"/>
							</g>
						</g>
						<g>
							<path style="fill:#FFC52E;" d="M326.11,133.196c0,0-55.369-14.14-71.413,39.006l-14.152,53.271
								c3.652,15.516,15.075,27.819,15.075,27.819c-3.195-13.717-5.234-29.858-4.836-48.194c0,0,15.457-60.554,72.754-60.554
								c0,0,39.086,10.522,37.72,54.207C361.258,198.75,374.827,150.217,326.11,133.196z"/>
						</g>
						<g>
							<path style="fill:#FF9100;" d="M292.957,309.672c-4.287,0-8.654-0.484-12.101-1.943
								c-4.653-1.971-32.093-39.419-30.722-102.645c0.673-31.026,11.511-49.85,20.486-60.177c0.234-0.271,0.647-0.3,0.917-0.064
								c0.27,0.235,0.3,0.646,0.063,0.917c-8.833,10.166-19.502,28.715-20.167,59.353c-1.333,61.484,25.568,99.573,29.93,101.419
								c9.689,4.103,27.81,0.008,27.99-0.035c0.344-0.076,0.698,0.138,0.779,0.488c0.08,0.35-0.139,0.698-0.488,0.779
								C309.144,307.878,301.2,309.672,292.957,309.672z"/>
						</g>
						<g>
							<path style="fill:#FF9100;" d="M361.863,196.544c-0.031,0-0.063-0.003-0.095-0.009c-0.271-0.052-0.449-0.314-0.397-0.585
								c0.944-4.945,2.65-17.86-1.882-30.96c-0.09-0.261,0.048-0.546,0.31-0.636c0.26-0.09,0.546,0.049,0.636,0.309
								c4.61,13.328,2.878,26.451,1.919,31.475C362.307,196.377,362.097,196.544,361.863,196.544z"/>
						</g>
					</g>
				</g>
			</g>
			<g>
				<g>
					<g>
						<g>
							<path style="fill:#71C436;" d="M210.801,279.955l-0.884,70.267l3.215,10.711l48.764-18.225l21.414-56.604
								c0.46-1.215,0.29-2.483-0.457-3.423l-3.195-4.021c-0.697-0.878-1.826-1.377-3.085-1.366l-63.466,0.557
								C211.89,277.862,210.815,278.844,210.801,279.955z"/>
						</g>
						<g>
							<path style="fill:#33884C;" d="M279.053,284.598l2.864-0.212c0.782-0.058,1.314-0.798,1.116-1.401
								c-0.063-0.1-0.105-0.21-0.18-0.304l-2.769-3.484l-0.432-0.542c-0.698-0.874-1.823-1.372-3.08-1.361l-63.466,0.557
								c-1.216,0.011-2.291,0.992-2.305,2.104l-0.884,70.267l3.215,10.711l2.399-71.796L279.053,284.598z"/>
						</g>
						<g>
							<path style="fill:#FFC52E;" d="M224.915,298.192l-0.649,14.732c-0.043,0.982,0.847,1.675,1.924,1.498l40.895-6.71
								c0.761-0.125,1.42-0.66,1.656-1.345l4.23-12.278c0.38-1.103-0.47-2.093-1.697-1.976l-44.476,4.256
								C225.794,296.466,224.956,297.278,224.915,298.192z"/>
						</g>
						<g>
							<polygon style="fill:#33884C;" points="269.15,323.535 213.998,335.024 213.132,360.934 261.896,342.708 							"/>
						</g>
					</g>
					<g>
						<g>
							<path style="fill:#EEF8E7;" d="M213.132,360.934l2.399-71.796l63.522-4.54c0.791-0.057,1.325-0.88,0.952-1.469l-2.195-3.469
								c-0.437-0.69-1.249-1.093-2.172-1.076l-63.764,1.156l-1.399,72.348L213.132,360.934z"/>
						</g>
						<g>
							<polygon style="fill:#BEDCFF;" points="215.531,289.138 211.875,279.739 210.476,352.087 213.132,360.934 							"/>
						</g>
						<g>
							<g>
								<path style="fill:#BEDCFF;" d="M216.835,282.227c-0.202,0-0.369-0.16-0.375-0.363c-0.006-0.207,0.157-0.38,0.364-0.387
									l55.064-1.684c0.194-0.007,0.38,0.156,0.387,0.363c0.006,0.207-0.156,0.38-0.363,0.387l-55.065,1.684
									C216.842,282.227,216.838,282.227,216.835,282.227z"/>
							</g>
							<g>
								<path style="fill:#BEDCFF;" d="M230.933,285.021c-0.199,0-0.365-0.156-0.374-0.357c-0.01-0.207,0.15-0.382,0.357-0.393
									l45.53-2.163c0.206-0.001,0.383,0.15,0.393,0.358c0.01,0.207-0.15,0.383-0.357,0.392l-45.53,2.163
									C230.945,285.021,230.939,285.021,230.933,285.021z"/>
							</g>
						</g>
					</g>
				</g>
				<g>
					<g>
						<g>
							<path style="fill:#5488F1;" d="M218.124,276.514l0.884,70.267l-3.215,10.711l-48.764-18.226l-21.414-56.604
								c-0.46-1.215-0.29-2.483,0.457-3.423l3.196-4.021c0.697-0.878,1.826-1.377,3.085-1.366l63.466,0.557
								C217.035,274.421,218.11,275.403,218.124,276.514z"/>
						</g>
						<g>
							<path style="fill:#4B68CA;" d="M149.871,281.157l-2.864-0.212c-0.782-0.058-1.314-0.799-1.116-1.401
								c0.063-0.1,0.105-0.21,0.18-0.304l2.769-3.484l0.432-0.542c0.698-0.874,1.823-1.372,3.08-1.361l63.466,0.557
								c1.216,0.011,2.291,0.992,2.305,2.104l0.884,70.267l-3.215,10.711l-2.399-71.796L149.871,281.157z"/>
						</g>
						<g>
							<polygon style="fill:#4B68CA;" points="162.474,327.227 214.927,331.583 215.793,357.493 167.029,339.267 							"/>
						</g>
						<g>
							<path style="fill:#4B68CA;" d="M171.03,341.013c-0.104,0-0.2-0.064-0.236-0.168l-20.666-59.558
								c-0.045-0.131,0.024-0.273,0.154-0.318c0.131-0.043,0.273,0.023,0.318,0.154l20.666,59.558
								c0.045,0.131-0.024,0.273-0.154,0.318C171.085,341.008,171.058,341.013,171.03,341.013z"/>
						</g>
						<g>
							
								<ellipse transform="matrix(0.8517 -0.524 0.524 0.8517 -133.5406 141.7262)" style="fill:#FFC52E;" cx="183.623" cy="306.795" rx="12.341" ry="15.448"/>
						</g>
					</g>
					<g>
						<g>
							<path style="fill:#EEF8E7;" d="M215.793,357.493l-2.399-71.796l-63.522-4.54c-0.791-0.056-1.325-0.88-0.952-1.469
								l2.195-3.469c0.437-0.69,1.25-1.093,2.172-1.076l63.764,1.156l1.398,72.348L215.793,357.493z"/>
						</g>
						<g>
							<polygon style="fill:#BEDCFF;" points="213.394,285.697 217.05,276.298 218.448,348.646 215.793,357.493 							"/>
						</g>
						<g>
							<g>
								<path style="fill:#BEDCFF;" d="M212.09,278.785c-0.004,0-0.007,0-0.011,0l-55.065-1.683c-0.207-0.007-0.37-0.18-0.364-0.387
									c0.006-0.207,0.189-0.36,0.386-0.363l55.065,1.683c0.207,0.007,0.37,0.18,0.364,0.387
									C212.459,278.625,212.293,278.785,212.09,278.785z"/>
							</g>
							<g>
								<path style="fill:#BEDCFF;" d="M197.992,281.58c-0.006,0-0.012,0-0.018,0l-45.53-2.164
									c-0.207-0.011-0.367-0.185-0.357-0.392c0.01-0.208,0.209-0.358,0.392-0.358l45.53,2.164
									c0.207,0.011,0.367,0.185,0.357,0.393C198.357,281.424,198.191,281.58,197.992,281.58z"/>
							</g>
						</g>
					</g>
				</g>
				<g>
					<g>
						<g>
							<path style="fill:#EE7767;" d="M215.664,359.37l6.75-0.293c0,0,6.799,13.158,26.56,12.962l0.294,3.629
								c0.174,2.149,1.723,3.936,3.825,4.415l5.591,1.273c2.793,0.636,5.673-0.592,7.149-3.047
								c2.948-4.905,7.928-13.571,11.927-22.443c0.865-1.919,0.921-4.106,0.155-6.067l-0.961-2.461c0,0,5.209-1.296,5.674-2.201
								c0.1-0.194,0.167-0.491,0.21-0.839c0.232-1.842-0.393-3.691-1.602-5.1l-5.942-6.929c-1.177-1.372-2.98-2.037-4.766-1.757
								l-43.482,6.815l-6.652,0.196C220.393,337.522,214.914,343.978,215.664,359.37z"/>
						</g>
						<g>
							<path style="fill:#D55454;" d="M222.414,359.076c0,0-1.5-13.174,4.63-21.75l-6.652,0.196c0,0-5.413,5.707-4.728,21.848
								L222.414,359.076z"/>
						</g>
						<g>
							<g>
								<path style="fill:#D55454;" d="M256.748,376.487c-0.235,0-0.445-0.168-0.49-0.408l-0.747-3.999l-6.501,0.458
									c-0.281,0.02-0.515-0.189-0.534-0.464c-0.02-0.275,0.188-0.515,0.463-0.534l6.945-0.489c0.255-0.018,0.48,0.157,0.526,0.407
									l0.829,4.438c0.051,0.271-0.128,0.532-0.399,0.583C256.809,376.484,256.779,376.487,256.748,376.487z"/>
							</g>
							<g>
								<path style="fill:#D55454;" d="M265.918,377.673c-0.233,0-0.442-0.165-0.489-0.402l-2.417-12.195
									c-0.025-0.126-0.001-0.256,0.067-0.364c0.063-0.1,6.341-10.165,10.638-25.109c0.06-0.209,0.247-0.354,0.464-0.362
									c0.182-0.005,0.413,0.125,0.486,0.329l2.756,7.598c0.095,0.26-0.04,0.547-0.299,0.641c-0.261,0.094-0.547-0.04-0.641-0.299
									l-2.237-6.167c-3.999,13.233-9.396,22.383-10.216,23.732l2.379,12.003c0.054,0.271-0.122,0.534-0.392,0.588
									C265.983,377.67,265.95,377.673,265.918,377.673z"/>
							</g>
							<g>
								<path style="fill:#D55454;" d="M271.165,368.348c-0.215,0-0.414-0.14-0.479-0.357l-3.331-11.104
									c-0.08-0.265,0.07-0.543,0.335-0.622c0.268-0.079,0.544,0.071,0.622,0.335l3.331,11.104c0.08,0.265-0.07,0.543-0.335,0.622
									C271.26,368.341,271.212,368.348,271.165,368.348z"/>
							</g>
							<g>
								<path style="fill:#D55454;" d="M275.703,359.899c-0.207,0-0.4-0.13-0.473-0.336l-4.071-11.752
									c-0.09-0.262,0.048-0.546,0.309-0.637c0.263-0.09,0.546,0.048,0.637,0.309l4.071,11.752c0.09,0.262-0.048,0.546-0.309,0.637
									C275.812,359.89,275.757,359.899,275.703,359.899z"/>
							</g>
						</g>
					</g>
					<g>
						<path style="fill:#EEF8E7;" d="M222.903,336.527c0,0-13.989-0.44-23.315-1.027c-9.326-0.587-21.293-8.315-43.206-5.674
							c-19.836,2.391-27.964,13.159-31.794,23.524c-0.833,2.253-0.806,4.726,0.106,6.948c2.208,5.38,8.166,14.791,22.982,15.604
							c16.043,0.88,32.283-5.38,40.793-7.337c8.511-1.956,29.544-6.554,29.544-6.554s1.141-0.522,2.087-2.609l-2.185-0.098
							c0,0-0.371-12.028,4.512-21.842l1.456-0.043C223.883,337.419,223.821,336.625,222.903,336.527z"/>
					</g>
					<g>
						<path style="fill:#BEDCFF;" d="M208.865,363.982c-0.306,0-0.579-0.218-0.638-0.529c-3.688-19.4,3.587-26.882,3.898-27.191
							c0.255-0.251,0.667-0.251,0.92,0.004c0.252,0.255,0.251,0.665-0.003,0.918c-0.097,0.099-7.077,7.41-3.538,26.027
							c0.067,0.353-0.165,0.692-0.517,0.76C208.946,363.978,208.905,363.982,208.865,363.982z"/>
					</g>
				</g>
			</g>
		</g>
	</g>
</g>
</svg>
