<?xml version="1.0" encoding="UTF-8"?>
<!DOCTYPE svg PUBLIC "-//W3C//DTD SVG 1.1//EN" "http://www.w3.org/Graphics/SVG/1.1/DTD/svg11.dtd">
<svg xmlns="http://www.w3.org/2000/svg" version="1.1" width="3000px" height="2000px" style="shape-rendering:geometricPrecision; text-rendering:geometricPrecision; image-rendering:optimizeQuality; fill-rule:evenodd; clip-rule:evenodd" xmlns:xlink="http://www.w3.org/1999/xlink">
<g><path style="opacity:1" fill="#fefefe" d="M -0.5,-0.5 C 17.5,-0.5 35.5,-0.5 53.5,-0.5C 201.851,150.857 293.684,331.857 329,542.5C 335.922,572.599 345.255,601.932 357,630.5C 397.403,718.481 466.236,763.481 563.5,765.5C 620.17,763.333 674.17,750.166 725.5,726C 771.978,703.8 814.978,676.467 854.5,644C 911.819,598.682 962.319,546.849 1006,488.5C 1039.77,441.279 1064.77,389.612 1081,333.5C 1105.45,236.895 1097.12,143.229 1056,52.5C 1047.85,34.2151 1038.68,16.5484 1028.5,-0.5C 1448.17,-0.5 1867.83,-0.5 2287.5,-0.5C 2212.09,62.822 2192.59,140.489 2229,232.5C 2245.58,268.387 2266.92,301.054 2293,330.5C 2327.63,369.134 2364.8,404.968 2404.5,438C 2452.57,476.715 2499.91,516.382 2546.5,557C 2716.08,711.327 2847.58,893.16 2941,1102.5C 2957.51,1140.53 2972.34,1179.19 2985.5,1218.5C 2949.96,1218.18 2917.3,1227.68 2887.5,1247C 2851.95,1270.21 2822.79,1299.71 2800,1335.5C 2788.87,1354.89 2783.04,1375.72 2782.5,1398C 2782.29,1426.58 2792.96,1450.25 2814.5,1469C 2820.68,1473.03 2826.68,1477.2 2832.5,1481.5C 2788.88,1473.26 2747.88,1480.42 2709.5,1503C 2681.3,1519.69 2656.97,1540.86 2636.5,1566.5C 2580.68,1563.2 2526.01,1553.86 2472.5,1538.5C 2517.67,1530.38 2561.01,1516.71 2602.5,1497.5C 2652.89,1489.4 2694.06,1465.73 2726,1426.5C 2734.49,1414.52 2741.65,1401.85 2747.5,1388.5C 2786.09,1339.28 2808.59,1283.28 2815,1220.5C 2819.3,1170.33 2815.96,1120.66 2805,1071.5C 2789.58,1007.65 2766.58,946.651 2736,888.5C 2687.57,792.202 2623.07,708.035 2542.5,636C 2477.04,578.737 2403.37,534.404 2321.5,503C 2291.03,491.55 2259.7,483.55 2227.5,479C 2205.39,476.815 2183.72,478.815 2162.5,485C 2128.81,498.508 2109.65,523.342 2105,559.5C 2103.6,582.541 2105.93,605.208 2112,627.5C 2118.21,647.925 2125.55,667.925 2134,687.5C 2145.73,713.287 2157.73,738.954 2170,764.5C 2234.88,910.899 2257.38,1063.57 2237.5,1222.5C 2220.32,1222.3 2204.32,1226.47 2189.5,1235C 2174.08,1246.68 2167.58,1262.18 2170,1281.5C 2174.2,1301.23 2182.2,1319.23 2194,1335.5C 2202.62,1347.29 2211.79,1358.62 2221.5,1369.5C 2222.41,1391.88 2226.74,1413.54 2234.5,1434.5C 2209.86,1418.84 2184.86,1403.68 2159.5,1389C 2130.1,1371.76 2098.77,1359.42 2065.5,1352C 2003.13,1342.59 1961.3,1367.42 1940,1426.5C 1931.87,1455.96 1929.21,1485.96 1932,1516.5C 1939.41,1588.47 1956.41,1658.13 1983,1725.5C 2023.43,1826.78 2079.26,1918.11 2150.5,1999.5C 1684.17,1999.5 1217.83,1999.5 751.5,1999.5C 757.079,1978.26 763.579,1957.26 771,1936.5C 782.944,1906.28 794.611,1875.94 806,1845.5C 819.052,1810.64 824.719,1774.64 823,1737.5C 815.711,1680.07 786.877,1637.23 736.5,1609C 689.78,1584.99 640.113,1573.82 587.5,1575.5C 530.17,1576.05 474.504,1585.89 420.5,1605C 300.3,1651.48 228.8,1738.32 206,1865.5C 203.473,1881.43 201.473,1897.43 200,1913.5C 199.356,1942.17 199.522,1970.84 200.5,1999.5C 166.833,1999.5 133.167,1999.5 99.5,1999.5C 70.8707,1893.39 54.0374,1785.39 49,1675.5C 48.8612,1605.83 48.1946,1536.16 47,1466.5C 45.5815,1414.66 37.2481,1363.99 22,1314.5C 15.8249,1296.49 8.32487,1279.16 -0.5,1262.5C -0.5,1233.5 -0.5,1204.5 -0.5,1175.5C 47.3822,1229.29 86.8822,1288.96 118,1354.5C 133.237,1390.98 149.57,1426.98 167,1462.5C 183.056,1494.43 205.556,1520.93 234.5,1542C 278.293,1570.21 325.293,1576.88 375.5,1562C 427.846,1544.75 472.346,1515.58 509,1474.5C 540.984,1439.85 568.317,1401.85 591,1360.5C 652.222,1239.76 645.556,1123.1 571,1010.5C 570.329,1009.75 569.496,1009.41 568.5,1009.5C 596.624,998.776 622.29,983.943 645.5,965C 679.088,931.563 678.755,898.563 644.5,866C 628.212,854.019 610.546,844.352 591.5,837C 544.212,821.795 498.879,802.128 455.5,778C 395.717,742.901 344.55,697.734 302,642.5C 285.162,615.983 265.662,591.483 243.5,569C 196.175,530.287 147.509,528.62 97.5,564C 79.8799,577.951 64.7133,594.117 52,612.5C 32.4815,643.535 17.3148,676.535 6.5,711.5C 4.16667,711.5 1.83333,711.5 -0.5,711.5C -0.5,663.5 -0.5,615.5 -0.5,567.5C 53.8535,553.588 99.3535,525.588 136,483.5C 170.073,437.569 184.739,385.903 180,328.5C 176.23,292.418 167.896,257.418 155,223.5C 127.942,154.523 89.6091,92.8565 40,38.5C 26.9293,25.5914 13.4293,13.2581 -0.5,1.5C -0.5,0.833333 -0.5,0.166667 -0.5,-0.5 Z"/></g>
<g><path style="opacity:1" fill="#ffb34f" d="M 53.5,-0.5 C 378.5,-0.5 703.5,-0.5 1028.5,-0.5C 1038.68,16.5484 1047.85,34.2151 1056,52.5C 1097.12,143.229 1105.45,236.895 1081,333.5C 1064.77,389.612 1039.77,441.279 1006,488.5C 962.319,546.849 911.819,598.682 854.5,644C 814.978,676.467 771.978,703.8 725.5,726C 674.17,750.166 620.17,763.333 563.5,765.5C 466.236,763.481 397.403,718.481 357,630.5C 345.255,601.932 335.922,572.599 329,542.5C 293.684,331.857 201.851,150.857 53.5,-0.5 Z"/></g>
<g><path style="opacity:1" fill="#ffb34f" d="M 2287.5,-0.5 C 2524.83,-0.5 2762.17,-0.5 2999.5,-0.5C 2999.5,405.833 2999.5,812.167 2999.5,1218.5C 2994.83,1218.5 2990.17,1218.5 2985.5,1218.5C 2972.34,1179.19 2957.51,1140.53 2941,1102.5C 2847.58,893.16 2716.08,711.327 2546.5,557C 2499.91,516.382 2452.57,476.715 2404.5,438C 2364.8,404.968 2327.63,369.134 2293,330.5C 2266.92,301.054 2245.58,268.387 2229,232.5C 2192.59,140.489 2212.09,62.822 2287.5,-0.5 Z"/></g>
<g><path style="opacity:1" fill="#ffb34f" d="M -0.5,1.5 C 13.4293,13.2581 26.9293,25.5914 40,38.5C 89.6091,92.8565 127.942,154.523 155,223.5C 167.896,257.418 176.23,292.418 180,328.5C 184.739,385.903 170.073,437.569 136,483.5C 99.3535,525.588 53.8535,553.588 -0.5,567.5C -0.5,378.833 -0.5,190.167 -0.5,1.5 Z"/></g>
<g><path style="opacity:1" fill="#feb34f" d="M 2747.5,1388.5 C 2765.46,1339.3 2769.29,1288.96 2759,1237.5C 2751.91,1205.44 2735.41,1179.61 2709.5,1160C 2683.72,1145.29 2656.72,1142.62 2628.5,1152C 2620.72,1154.72 2613.06,1157.72 2605.5,1161C 2577.81,1176.01 2549.47,1189.68 2520.5,1202C 2440.11,1230.31 2357.78,1237.64 2273.5,1224C 2261.52,1222.93 2249.52,1222.43 2237.5,1222.5C 2257.38,1063.57 2234.88,910.899 2170,764.5C 2157.73,738.954 2145.73,713.287 2134,687.5C 2125.55,667.925 2118.21,647.925 2112,627.5C 2105.93,605.208 2103.6,582.541 2105,559.5C 2109.65,523.342 2128.81,498.508 2162.5,485C 2183.72,478.815 2205.39,476.815 2227.5,479C 2259.7,483.55 2291.03,491.55 2321.5,503C 2403.37,534.404 2477.04,578.737 2542.5,636C 2623.07,708.035 2687.57,792.202 2736,888.5C 2766.58,946.651 2789.58,1007.65 2805,1071.5C 2815.96,1120.66 2819.3,1170.33 2815,1220.5C 2808.59,1283.28 2786.09,1339.28 2747.5,1388.5 Z"/></g>
<g><path style="opacity:1" fill="#feb24f" d="M 568.5,1009.5 C 468.852,1046.49 367.519,1051.65 264.5,1025C 212.798,1012.14 164.132,992.142 118.5,965C 82.4683,942.636 52.635,913.803 29,878.5C 12.2054,850.286 2.37208,819.953 -0.5,787.5C -0.5,774.5 -0.5,761.5 -0.5,748.5C 1.92249,736.316 4.25582,723.982 6.5,711.5C 17.3148,676.535 32.4815,643.535 52,612.5C 64.7133,594.117 79.8799,577.951 97.5,564C 147.509,528.62 196.175,530.287 243.5,569C 265.662,591.483 285.162,615.983 302,642.5C 344.55,697.734 395.717,742.901 455.5,778C 498.879,802.128 544.212,821.795 591.5,837C 610.546,844.352 628.212,854.019 644.5,866C 678.755,898.563 679.088,931.563 645.5,965C 622.29,983.943 596.624,998.776 568.5,1009.5 Z"/></g>
<g><path style="opacity:1" fill="#363636" d="M 1837.5,695.5 C 1846.69,694.176 1852.86,697.843 1856,706.5C 1858.33,716.496 1857.83,726.33 1854.5,736C 1857.54,738.612 1860.71,741.112 1864,743.5C 1864.51,747.514 1863.51,751.181 1861,754.5C 1859.77,757.994 1857.43,760.327 1854,761.5C 1850.44,760.119 1846.94,758.953 1843.5,758C 1832.96,770.446 1821.3,781.78 1808.5,792C 1803.49,795.507 1798.16,798.507 1792.5,801C 1781.89,804.716 1778.05,801.216 1781,790.5C 1799.52,780.387 1815.85,767.387 1830,751.5C 1830.62,750.551 1830.45,749.718 1829.5,749C 1818.84,744.161 1813.34,735.995 1813,724.5C 1817.46,711.51 1825.63,701.844 1837.5,695.5 Z"/></g>
<g><path style="opacity:1" fill="#244565" d="M -0.5,711.5 C 1.83333,711.5 4.16667,711.5 6.5,711.5C 4.25582,723.982 1.92249,736.316 -0.5,748.5C -0.5,736.167 -0.5,723.833 -0.5,711.5 Z"/></g>
<g><path style="opacity:1" fill="#f1f1f1" d="M 1831.5,718.5 C 1837.6,719.908 1839.93,723.575 1838.5,729.5C 1834.63,727.73 1831.3,725.23 1828.5,722C 1829.36,720.641 1830.36,719.474 1831.5,718.5 Z"/></g>
<g><path style="opacity:1" fill="#363636" d="M 1425.5,735.5 C 1427.53,735.338 1429.53,735.505 1431.5,736C 1432.12,737.569 1432.46,739.236 1432.5,741C 1432.2,749.181 1429.2,756.181 1423.5,762C 1400.01,776.159 1376.18,789.659 1352,802.5C 1350.29,802.561 1348.96,801.894 1348,800.5C 1345.18,793.661 1346.35,787.661 1351.5,782.5C 1376.21,766.773 1400.87,751.106 1425.5,735.5 Z"/></g>
<g><path style="opacity:1" fill="#363636" d="M 2110.5,735.5 C 2112.53,735.338 2114.53,735.505 2116.5,736C 2117.89,736.956 2118.56,738.289 2118.5,740C 2117,745.164 2115.5,750.331 2114,755.5C 2112.21,758.295 2110.04,760.795 2107.5,763C 2084.83,776 2062.17,789 2039.5,802C 2037.56,802.743 2035.73,802.576 2034,801.5C 2030.83,793.527 2032.33,786.694 2038.5,781C 2062.73,766.059 2086.73,750.892 2110.5,735.5 Z"/></g>
<g><path style="opacity:1" fill="#184266" d="M -0.5,787.5 C 2.37208,819.953 12.2054,850.286 29,878.5C 52.635,913.803 82.4683,942.636 118.5,965C 164.132,992.142 212.798,1012.14 264.5,1025C 367.519,1051.65 468.852,1046.49 568.5,1009.5C 569.496,1009.41 570.329,1009.75 571,1010.5C 645.556,1123.1 652.222,1239.76 591,1360.5C 568.317,1401.85 540.984,1439.85 509,1474.5C 472.346,1515.58 427.846,1544.75 375.5,1562C 325.293,1576.88 278.293,1570.21 234.5,1542C 205.556,1520.93 183.056,1494.43 167,1462.5C 149.57,1426.98 133.237,1390.98 118,1354.5C 86.8822,1288.96 47.3822,1229.29 -0.5,1175.5C -0.5,1046.17 -0.5,916.833 -0.5,787.5 Z"/></g>
<g><path style="opacity:1" fill="#353535" d="M 1276.5,833.5 C 1278.91,833.137 1280.41,834.137 1281,836.5C 1287.36,891.638 1290.69,946.971 1291,1002.5C 1288.41,1033.91 1302.57,1047.41 1333.5,1043C 1340.11,1041.18 1346.78,1039.68 1353.5,1038.5C 1352.7,1019.39 1357.87,1002.05 1369,986.5C 1378.54,973.96 1389.71,963.127 1402.5,954C 1416.89,944.465 1427.39,947.632 1434,963.5C 1439.53,983.262 1438.2,1002.6 1430,1021.5C 1427.29,1027.09 1424.45,1032.59 1421.5,1038C 1422.68,1039.74 1424.35,1040.74 1426.5,1041C 1439.55,1045.56 1452.55,1045.56 1465.5,1041C 1472.12,1037.81 1474.29,1032.64 1472,1025.5C 1466.77,980.418 1461.1,935.418 1455,890.5C 1453.68,881.213 1451.84,872.046 1449.5,863C 1449.57,860.409 1450.07,857.909 1451,855.5C 1454.59,849.325 1457.92,842.991 1461,836.5C 1463.28,833.936 1465.28,834.27 1467,837.5C 1470.94,849.746 1477.61,860.079 1487,868.5C 1487.67,871.167 1487.67,873.833 1487,876.5C 1483.57,881.033 1480.41,885.7 1477.5,890.5C 1484.44,933.224 1487.94,976.224 1488,1019.5C 1487.3,1038.32 1481.96,1055.66 1472,1071.5C 1464.14,1080.76 1454.14,1085.43 1442,1085.5C 1420.06,1083.41 1399.39,1077.08 1380,1066.5C 1362.05,1074.26 1343.55,1080.43 1324.5,1085C 1308.73,1086.3 1295.23,1081.47 1284,1070.5C 1278.52,1063.07 1275.19,1054.73 1274,1045.5C 1272.32,1013.51 1270.98,981.515 1270,949.5C 1267.72,922.413 1263.89,895.58 1258.5,869C 1258.85,864.115 1260.35,859.615 1263,855.5C 1267.73,848.281 1272.23,840.948 1276.5,833.5 Z"/></g>
<g><path style="opacity:1" fill="#353535" d="M 2015.5,833.5 C 2017.91,833.137 2019.41,834.137 2020,836.5C 2026.38,891.974 2029.72,947.641 2030,1003.5C 2028.13,1034.63 2042.63,1048.13 2073.5,1044C 2079.98,1043.09 2085.64,1040.59 2090.5,1036.5C 2088.28,1029.71 2084.78,1023.71 2080,1018.5C 2079.04,1016.8 2078.54,1014.97 2078.5,1013C 2081.69,1003.12 2085.85,993.62 2091,984.5C 2093.33,980.5 2095.67,980.5 2098,984.5C 2110.85,1009.57 2111.85,1035.24 2101,1061.5C 2095.18,1074.17 2085.35,1081.67 2071.5,1084C 2057.02,1086.12 2043.35,1083.79 2030.5,1077C 2020.72,1069.61 2014.88,1059.78 2013,1047.5C 2011.11,1014.86 2009.78,982.193 2009,949.5C 2006.72,922.413 2002.89,895.58 1997.5,869C 1997.85,864.115 1999.35,859.615 2002,855.5C 2006.26,847.972 2010.76,840.638 2015.5,833.5 Z"/></g>
<g><path style="opacity:1" fill="#363636" d="M 1544.5,843.5 C 1545.38,843.369 1546.04,843.702 1546.5,844.5C 1547.63,847.07 1548.47,849.736 1549,852.5C 1552.52,886.483 1555.86,920.483 1559,954.5C 1561.57,984.151 1561.9,1013.82 1560,1043.5C 1559.15,1055.43 1556.15,1066.76 1551,1077.5C 1548.16,1080.37 1545.83,1080.04 1544,1076.5C 1543.87,1058.45 1542.87,1040.45 1541,1022.5C 1535.94,978.257 1530.44,934.09 1524.5,890C 1524.57,884.12 1526.07,878.62 1529,873.5C 1533.94,863.285 1539.11,853.285 1544.5,843.5 Z"/></g>
<g><path style="opacity:1" fill="#353535" d="M 1036.5,856.5 C 1038.89,857.219 1040.39,858.885 1041,861.5C 1045.33,897.463 1049.33,933.463 1053,969.5C 1054.87,988.87 1059.54,1007.54 1067,1025.5C 1070.72,1034.55 1077.05,1040.88 1086,1044.5C 1092.72,1042.59 1099.22,1040.09 1105.5,1037C 1093.76,1027.1 1089.59,1014.6 1093,999.5C 1099.67,969.843 1116.84,949.009 1144.5,937C 1149.22,936.376 1153.89,936.71 1158.5,938C 1172.65,944.141 1184.48,953.308 1194,965.5C 1194.67,967.833 1194.67,970.167 1194,972.5C 1190.26,973.626 1186.42,973.793 1182.5,973C 1166.46,968.571 1150.46,968.904 1134.5,974C 1124.16,977.178 1116.83,983.678 1112.5,993.5C 1122.33,1010.25 1137,1017.75 1156.5,1016C 1165.8,1014.35 1174.8,1011.68 1183.5,1008C 1196.49,1001.17 1209.16,993.838 1221.5,986C 1223.83,985.333 1226.17,985.333 1228.5,986C 1229.63,989.744 1229.79,993.577 1229,997.5C 1226.51,1006.46 1224.18,1015.46 1222,1024.5C 1220.09,1028.04 1217.26,1030.54 1213.5,1032C 1171.44,1048.03 1130.11,1065.7 1089.5,1085C 1077.96,1084.9 1067.96,1080.9 1059.5,1073C 1056.78,1069.74 1053.95,1066.57 1051,1063.5C 1053.44,1090.54 1052.77,1117.54 1049,1144.5C 1046.3,1157.08 1040.13,1167.58 1030.5,1176C 1014.22,1188.97 995.885,1197.97 975.5,1203C 954.356,1207.53 934.689,1204.2 916.5,1193C 903.362,1181.89 896.195,1167.72 895,1150.5C 893.313,1135.96 895.313,1121.96 901,1108.5C 907.406,1093.19 915.239,1078.69 924.5,1065C 926.044,1063.81 927.711,1063.48 929.5,1064C 931.282,1066.24 931.782,1068.74 931,1071.5C 925.476,1080.55 920.476,1089.88 916,1099.5C 910.602,1112.43 910.269,1125.43 915,1138.5C 921.054,1149.29 930.22,1155.79 942.5,1158C 979.069,1164.51 1011.24,1155.67 1039,1131.5C 1039.67,1125.83 1039.67,1120.17 1039,1114.5C 1032.78,1043.34 1026.62,972.17 1020.5,901C 1020.25,895.968 1021.08,891.135 1023,886.5C 1027.03,876.227 1031.53,866.227 1036.5,856.5 Z"/></g>
<g><path style="opacity:1" fill="#363636" d="M 1396.5,861.5 C 1407.78,864.06 1417.62,869.393 1426,877.5C 1426.67,879.167 1426.67,880.833 1426,882.5C 1420.6,890.234 1415.6,898.234 1411,906.5C 1409.94,907.899 1408.61,908.899 1407,909.5C 1397.77,904.132 1388.6,898.632 1379.5,893C 1378.43,892.261 1377.76,891.261 1377.5,890C 1383.65,880.357 1389.98,870.857 1396.5,861.5 Z"/></g>
<g><path style="opacity:1" fill="#353535" d="M 1944.5,951.5 C 1945.55,951.351 1946.55,951.517 1947.5,952C 1961.45,969.389 1966.95,989.222 1964,1011.5C 1963.75,1023.2 1960.41,1033.86 1954,1043.5C 1929.24,1060.62 1902.07,1072.46 1872.5,1079C 1837.5,1087.05 1802.17,1089.05 1766.5,1085C 1743.35,1082.18 1723.85,1072.34 1708,1055.5C 1698.21,1041.03 1695.87,1025.36 1701,1008.5C 1705.51,995.301 1712.68,983.801 1722.5,974C 1728.93,973.101 1730.77,975.601 1728,981.5C 1711.81,998.838 1713.31,1014.67 1732.5,1029C 1750.96,1038.53 1770.63,1043.53 1791.5,1044C 1829.68,1046.23 1867.35,1042.9 1904.5,1034C 1919.1,1029.53 1933.1,1023.7 1946.5,1016.5C 1946.83,1015.67 1947.17,1014.83 1947.5,1014C 1945.05,1005.87 1940.55,999.04 1934,993.5C 1932.69,991.866 1931.86,990.032 1931.5,988C 1934.96,975.444 1939.29,963.277 1944.5,951.5 Z"/></g>
<g><path style="opacity:1" fill="#fbfbfb" d="M 1395.5,993.5 C 1405.24,992.113 1411.4,996.113 1414,1005.5C 1414.83,1009.21 1414.66,1012.88 1413.5,1016.5C 1405.92,1022.75 1397.25,1025.25 1387.5,1024C 1380.53,1021.03 1375.53,1016.03 1372.5,1009C 1378.62,1001.29 1386.29,996.125 1395.5,993.5 Z"/></g>
<g><path style="opacity:1" fill="#353535" d="M 2083.5,1114.5 C 2095.52,1116.26 2105.69,1121.59 2114,1130.5C 2114.67,1131.83 2114.67,1133.17 2114,1134.5C 2108.29,1143.42 2102.46,1152.25 2096.5,1161C 2094.36,1161.63 2092.36,1161.3 2090.5,1160C 2082.59,1154.46 2074.42,1149.29 2066,1144.5C 2065.33,1143.17 2065.33,1141.83 2066,1140.5C 2072.05,1131.95 2077.89,1123.29 2083.5,1114.5 Z"/></g>
<g><path style="opacity:1" fill="#353535" d="M 1834.5,1122.5 C 1845.83,1125.08 1855.67,1130.42 1864,1138.5C 1864.63,1140.64 1864.3,1142.64 1863,1144.5C 1857.62,1152.75 1852.12,1160.92 1846.5,1169C 1844.83,1169.67 1843.17,1169.67 1841.5,1169C 1833.09,1163.38 1824.59,1157.88 1816,1152.5C 1815.33,1151.17 1815.33,1149.83 1816,1148.5C 1822,1139.68 1828.16,1131.01 1834.5,1122.5 Z"/></g>
<g><path style="opacity:1" fill="#184266" d="M 2747.5,1388.5 C 2741.65,1401.85 2734.49,1414.52 2726,1426.5C 2694.06,1465.73 2652.89,1489.4 2602.5,1497.5C 2513.2,1509.17 2427.53,1496.34 2345.5,1459C 2298.65,1436.63 2257.32,1406.8 2221.5,1369.5C 2211.79,1358.62 2202.62,1347.29 2194,1335.5C 2182.2,1319.23 2174.2,1301.23 2170,1281.5C 2167.58,1262.18 2174.08,1246.68 2189.5,1235C 2204.32,1226.47 2220.32,1222.3 2237.5,1222.5C 2249.52,1222.43 2261.52,1222.93 2273.5,1224C 2357.78,1237.64 2440.11,1230.31 2520.5,1202C 2549.47,1189.68 2577.81,1176.01 2605.5,1161C 2613.06,1157.72 2620.72,1154.72 2628.5,1152C 2656.72,1142.62 2683.72,1145.29 2709.5,1160C 2735.41,1179.61 2751.91,1205.44 2759,1237.5C 2769.29,1288.96 2765.46,1339.3 2747.5,1388.5 Z"/></g>
<g><path style="opacity:1" fill="#363636" d="M 1199.5,1181.5 C 1201.53,1181.34 1203.53,1181.5 1205.5,1182C 1206.8,1182.8 1207.47,1183.97 1207.5,1185.5C 1206.29,1190.91 1204.79,1196.25 1203,1201.5C 1201.21,1204.3 1199.04,1206.8 1196.5,1209C 1173.83,1222 1151.17,1235 1128.5,1248C 1126.56,1248.74 1124.73,1248.58 1123,1247.5C 1119.83,1239.53 1121.33,1232.69 1127.5,1227C 1151.73,1212.06 1175.73,1196.89 1199.5,1181.5 Z"/></g>
<g><path style="opacity:1" fill="#363636" d="M 1003.5,1197.5 C 1007.89,1196.51 1010.22,1198.18 1010.5,1202.5C 1009.53,1210.58 1006.53,1217.75 1001.5,1224C 978.664,1237.59 955.664,1250.92 932.5,1264C 930.231,1264.76 928.064,1264.59 926,1263.5C 923.349,1256.75 924.182,1250.58 928.5,1245C 953.564,1229.14 978.564,1213.31 1003.5,1197.5 Z"/></g>
<g><path style="opacity:1" fill="#184266" d="M 2985.5,1218.5 C 2990.17,1218.5 2994.83,1218.5 2999.5,1218.5C 2999.5,1329.5 2999.5,1440.5 2999.5,1551.5C 2963.6,1529.42 2925.26,1512.75 2884.5,1501.5C 2866.63,1496.21 2849.3,1489.54 2832.5,1481.5C 2826.68,1477.2 2820.68,1473.03 2814.5,1469C 2792.96,1450.25 2782.29,1426.58 2782.5,1398C 2783.04,1375.72 2788.87,1354.89 2800,1335.5C 2822.79,1299.71 2851.95,1270.21 2887.5,1247C 2917.3,1227.68 2949.96,1218.18 2985.5,1218.5 Z"/></g>
<g><path style="opacity:1" fill="#184266" d="M -0.5,1262.5 C 8.32487,1279.16 15.8249,1296.49 22,1314.5C 37.2481,1363.99 45.5815,1414.66 47,1466.5C 48.1946,1536.16 48.8612,1605.83 49,1675.5C 54.0374,1785.39 70.8707,1893.39 99.5,1999.5C 66.1667,1999.5 32.8333,1999.5 -0.5,1999.5C -0.5,1753.83 -0.5,1508.17 -0.5,1262.5 Z"/></g>
<g><path style="opacity:1" fill="#184266" d="M 2234.5,1434.5 C 2308.7,1480.59 2388.03,1515.26 2472.5,1538.5C 2526.01,1553.86 2580.68,1563.2 2636.5,1566.5C 2667.48,1568.95 2698.48,1569.12 2729.5,1567C 2765.28,1564.36 2800.95,1560.69 2836.5,1556C 2862.84,1554.03 2889.17,1554.03 2915.5,1556C 2927.36,1557.27 2939.03,1559.44 2950.5,1562.5C 2967.76,1567.36 2984.09,1574.36 2999.5,1583.5C 2999.5,1722.17 2999.5,1860.83 2999.5,1999.5C 2716.5,1999.5 2433.5,1999.5 2150.5,1999.5C 2079.26,1918.11 2023.43,1826.78 1983,1725.5C 1956.41,1658.13 1939.41,1588.47 1932,1516.5C 1929.21,1485.96 1931.87,1455.96 1940,1426.5C 1961.3,1367.42 2003.13,1342.59 2065.5,1352C 2098.77,1359.42 2130.1,1371.76 2159.5,1389C 2184.86,1403.68 2209.86,1418.84 2234.5,1434.5 Z"/></g>
<g><path style="opacity:1" fill="#fdb24f" d="M 2221.5,1369.5 C 2257.32,1406.8 2298.65,1436.63 2345.5,1459C 2427.53,1496.34 2513.2,1509.17 2602.5,1497.5C 2561.01,1516.71 2517.67,1530.38 2472.5,1538.5C 2388.03,1515.26 2308.7,1480.59 2234.5,1434.5C 2226.74,1413.54 2222.41,1391.88 2221.5,1369.5 Z"/></g>
<g><path style="opacity:1" fill="#feb24f" d="M 2832.5,1481.5 C 2849.3,1489.54 2866.63,1496.21 2884.5,1501.5C 2909.61,1518.27 2931.61,1538.6 2950.5,1562.5C 2939.03,1559.44 2927.36,1557.27 2915.5,1556C 2889.17,1554.03 2862.84,1554.03 2836.5,1556C 2800.95,1560.69 2765.28,1564.36 2729.5,1567C 2698.48,1569.12 2667.48,1568.95 2636.5,1566.5C 2656.97,1540.86 2681.3,1519.69 2709.5,1503C 2747.88,1480.42 2788.88,1473.26 2832.5,1481.5 Z"/></g>
<g><path style="opacity:1" fill="#fdfdfd" d="M 2884.5,1501.5 C 2925.26,1512.75 2963.6,1529.42 2999.5,1551.5C 2999.5,1562.17 2999.5,1572.83 2999.5,1583.5C 2984.09,1574.36 2967.76,1567.36 2950.5,1562.5C 2931.61,1538.6 2909.61,1518.27 2884.5,1501.5 Z"/></g>
<g><path style="opacity:1" fill="#184266" d="M 751.5,1999.5 C 567.833,1999.5 384.167,1999.5 200.5,1999.5C 199.522,1970.84 199.356,1942.17 200,1913.5C 201.473,1897.43 203.473,1881.43 206,1865.5C 228.8,1738.32 300.3,1651.48 420.5,1605C 474.504,1585.89 530.17,1576.05 587.5,1575.5C 640.113,1573.82 689.78,1584.99 736.5,1609C 786.877,1637.23 815.711,1680.07 823,1737.5C 824.719,1774.64 819.052,1810.64 806,1845.5C 794.611,1875.94 782.944,1906.28 771,1936.5C 763.579,1957.26 757.079,1978.26 751.5,1999.5 Z"/></g>
</svg>
