<?xml version="1.0" encoding="UTF-8"?>
<!DOCTYPE svg PUBLIC "-//W3C//DTD SVG 1.1//EN" "http://www.w3.org/Graphics/SVG/1.1/DTD/svg11.dtd">
<svg xmlns="http://www.w3.org/2000/svg" version="1.1" width="3000px" height="2000px" style="shape-rendering:geometricPrecision; text-rendering:geometricPrecision; image-rendering:optimizeQuality; fill-rule:evenodd; clip-rule:evenodd" xmlns:xlink="http://www.w3.org/1999/xlink">
<g><path style="opacity:1" fill="#feb24f" d="M -0.5,-0.5 C 50.8333,-0.5 102.167,-0.5 153.5,-0.5C 190.595,69.6852 222.761,142.019 250,216.5C 269.089,270.366 281.755,325.7 288,382.5C 298.604,507.112 252.104,603.612 148.5,672C 102.195,700.813 52.5285,721.979 -0.5,735.5C -0.5,490.167 -0.5,244.833 -0.5,-0.5 Z"/></g>
<g><path style="opacity:1" fill="#1c4365" d="M 153.5,-0.5 C 158.167,-0.5 162.833,-0.5 167.5,-0.5C 209.165,71.166 244.665,145.833 274,223.5C 293.437,276.246 305.77,330.579 311,386.5C 320.467,518.73 269.967,620.563 159.5,692C 109.562,721.929 56.2288,743.762 -0.5,757.5C -0.5,750.167 -0.5,742.833 -0.5,735.5C 52.5285,721.979 102.195,700.813 148.5,672C 252.104,603.612 298.604,507.112 288,382.5C 281.755,325.7 269.089,270.366 250,216.5C 222.761,142.019 190.595,69.6852 153.5,-0.5 Z"/></g>
<g><path style="opacity:1" fill="#feb24f" d="M 167.5,-0.5 C 230.833,-0.5 294.167,-0.5 357.5,-0.5C 414.537,92.237 463.703,189.237 505,290.5C 529.605,353.03 545.272,417.697 552,484.5C 560.397,610.535 512.23,708.035 407.5,777C 353.661,809.509 295.994,832.842 234.5,847C 157.086,864.235 78.7524,874.735 -0.5,878.5C -0.5,838.167 -0.5,797.833 -0.5,757.5C 56.2288,743.762 109.562,721.929 159.5,692C 269.967,620.563 320.467,518.73 311,386.5C 305.77,330.579 293.437,276.246 274,223.5C 244.665,145.833 209.165,71.166 167.5,-0.5 Z"/></g>
<g><path style="opacity:1" fill="#fefefe" d="M 357.5,-0.5 C 1169.83,-0.5 1982.17,-0.5 2794.5,-0.5C 2776.41,28.3566 2763.24,59.3566 2755,92.5C 2745.02,134.989 2738.02,177.989 2734,221.5C 2727.23,273.788 2723.73,326.288 2723.5,379C 2721.44,445.467 2730.61,510.3 2751,573.5C 2767.85,620.359 2795.01,660.193 2832.5,693C 2864.23,719.7 2897.9,743.7 2933.5,765C 2955.36,778.43 2977.36,791.596 2999.5,804.5C 2999.5,942.833 2999.5,1081.17 2999.5,1219.5C 2956.99,1219.28 2914.99,1223.78 2873.5,1233C 2858.33,1236.37 2843.33,1240.21 2828.5,1244.5C 2766.06,1229.4 2703.39,1228.57 2640.5,1242C 2592.66,1251.5 2546.32,1265.84 2501.5,1285C 2410.02,1324.3 2324.36,1372.97 2244.5,1431C 2202,1462.83 2164.83,1500 2133,1542.5C 2059.48,1648.21 2052.82,1758.21 2113,1872.5C 2138.27,1918.38 2168.43,1960.71 2203.5,1999.5C 1664.5,1999.5 1125.5,1999.5 586.5,1999.5C 585.174,1952.19 575.007,1906.86 556,1863.5C 540.301,1829.09 522.301,1796.09 502,1764.5C 452.857,1690.02 399.857,1618.35 343,1549.5C 291.176,1488 233.343,1433.17 169.5,1385C 117.772,1346.97 61.1058,1318.13 -0.5,1298.5C -0.5,1158.5 -0.5,1018.5 -0.5,878.5C 78.7524,874.735 157.086,864.235 234.5,847C 295.994,832.842 353.661,809.509 407.5,777C 512.23,708.035 560.397,610.535 552,484.5C 545.272,417.697 529.605,353.03 505,290.5C 463.703,189.237 414.537,92.237 357.5,-0.5 Z"/></g>
<g><path style="opacity:1" fill="#1c4468" d="M 2794.5,-0.5 C 2797.83,-0.5 2801.17,-0.5 2804.5,-0.5C 2786.63,28.9291 2774.13,60.5958 2767,94.5C 2763.79,109.403 2761.13,124.403 2759,139.5C 2751.98,202.025 2746.65,264.692 2743,327.5C 2739.14,396.127 2743.8,464.127 2757,531.5C 2770.89,596.469 2803.05,650.302 2853.5,693C 2899.84,730.171 2948.51,764.005 2999.5,794.5C 2999.5,797.833 2999.5,801.167 2999.5,804.5C 2977.36,791.596 2955.36,778.43 2933.5,765C 2897.9,743.7 2864.23,719.7 2832.5,693C 2795.01,660.193 2767.85,620.359 2751,573.5C 2730.61,510.3 2721.44,445.467 2723.5,379C 2723.73,326.288 2727.23,273.788 2734,221.5C 2738.02,177.989 2745.02,134.989 2755,92.5C 2763.24,59.3566 2776.41,28.3566 2794.5,-0.5 Z"/></g>
<g><path style="opacity:1" fill="#fefefe" d="M 2804.5,-0.5 C 2868.17,-0.5 2931.83,-0.5 2995.5,-0.5C 2984.85,63.4295 2977.35,127.763 2973,192.5C 2969.3,249.558 2969.96,306.558 2975,363.5C 2978.32,393.063 2984.32,422.063 2993,450.5C 2994.7,456.461 2996.87,462.128 2999.5,467.5C 2999.5,576.5 2999.5,685.5 2999.5,794.5C 2948.51,764.005 2899.84,730.171 2853.5,693C 2803.05,650.302 2770.89,596.469 2757,531.5C 2743.8,464.127 2739.14,396.127 2743,327.5C 2746.65,264.692 2751.98,202.025 2759,139.5C 2761.13,124.403 2763.79,109.403 2767,94.5C 2774.13,60.5958 2786.63,28.9291 2804.5,-0.5 Z"/></g>
<g><path style="opacity:1" fill="#ffb350" d="M 2995.5,-0.5 C 2996.83,-0.5 2998.17,-0.5 2999.5,-0.5C 2999.5,155.5 2999.5,311.5 2999.5,467.5C 2996.87,462.128 2994.7,456.461 2993,450.5C 2984.32,422.063 2978.32,393.063 2975,363.5C 2969.96,306.558 2969.3,249.558 2973,192.5C 2977.35,127.763 2984.85,63.4295 2995.5,-0.5 Z"/></g>
<g><path style="opacity:1" fill="#373737" d="M 1671.5,665.5 C 1681.81,675.146 1691.81,685.146 1701.5,695.5C 1692.14,705.695 1682.31,715.362 1672,724.5C 1662.23,714.733 1652.4,704.9 1642.5,695C 1652.37,685.298 1662.04,675.465 1671.5,665.5 Z"/></g>
<g><path style="opacity:1" fill="#373737" d="M 1064.5,680.5 C 1065.5,680.5 1066.5,680.5 1067.5,680.5C 1067.5,685.167 1067.5,689.833 1067.5,694.5C 1043.88,697.911 1020.21,700.911 996.5,703.5C 996.5,699.5 996.5,695.5 996.5,691.5C 1019.16,687.835 1041.82,684.168 1064.5,680.5 Z"/></g>
<g><path style="opacity:1" fill="#7e7e7e" d="M 1064.5,680.5 C 1065.57,679.566 1066.9,679.232 1068.5,679.5C 1068.82,684.695 1068.49,689.695 1067.5,694.5C 1067.5,689.833 1067.5,685.167 1067.5,680.5C 1066.5,680.5 1065.5,680.5 1064.5,680.5 Z"/></g>
<g><path style="opacity:1" fill="#fcfcfc" d="M 1671.5,680.5 C 1676.81,685.146 1681.81,690.146 1686.5,695.5C 1682.17,700.5 1677.5,705.167 1672.5,709.5C 1667.35,704.848 1662.35,700.015 1657.5,695C 1662.37,690.298 1667.04,685.465 1671.5,680.5 Z"/></g>
<g><path style="opacity:1" fill="#373737" d="M 1010.5,710.5 C 1010.5,718.167 1010.5,725.833 1010.5,733.5C 1011.79,733.737 1012.79,733.404 1013.5,732.5C 1017.73,732.013 1021.89,731.347 1026,730.5C 1026.36,723.148 1026.86,715.815 1027.5,708.5C 1031.45,707.728 1035.45,707.395 1039.5,707.5C 1039.5,714.5 1039.5,721.5 1039.5,728.5C 1044.45,727.508 1049.45,726.842 1054.5,726.5C 1054.48,719.146 1054.81,711.813 1055.5,704.5C 1059.48,703.979 1063.48,703.646 1067.5,703.5C 1067.5,715.167 1067.5,726.833 1067.5,738.5C 1051.21,740.911 1034.88,743.078 1018.5,745C 1011.15,745.521 1003.82,745.355 996.5,744.5C 997.134,733.823 997.967,723.156 999,712.5C 1002.72,711.352 1006.55,710.686 1010.5,710.5 Z"/></g>
<g><path style="opacity:1" fill="#979797" d="M 1010.5,710.5 C 1010.85,718.057 1011.85,725.39 1013.5,732.5C 1012.79,733.404 1011.79,733.737 1010.5,733.5C 1010.5,725.833 1010.5,718.167 1010.5,710.5 Z"/></g>
<g><path style="opacity:1" fill="#383838" d="M 1384.5,733.5 C 1395.25,742.743 1405.58,752.576 1415.5,763C 1405.65,773.014 1395.65,782.848 1385.5,792.5C 1375.31,783.139 1365.64,773.306 1356.5,763C 1365.66,753.007 1374.99,743.174 1384.5,733.5 Z"/></g>
<g><path style="opacity:1" fill="#363636" d="M 965.5,741.5 C 966.552,741.351 967.552,741.517 968.5,742C 976.877,750.042 984.877,758.375 992.5,767C 984.066,775.434 975.566,783.934 967,792.5C 958.319,783.986 949.819,775.319 941.5,766.5C 949.521,758.146 957.521,749.813 965.5,741.5 Z"/></g>
<g><path style="opacity:1" fill="#353535" d="M 1670.5,741.5 C 1671.55,741.351 1672.55,741.517 1673.5,742C 1681.68,750.014 1689.68,758.181 1697.5,766.5C 1689.18,775.319 1680.68,783.986 1672,792.5C 1663.32,783.986 1654.82,775.319 1646.5,766.5C 1654.52,758.146 1662.52,749.813 1670.5,741.5 Z"/></g>
<g><path style="opacity:1" fill="#f9f9f9" d="M 1384.5,748.5 C 1390.24,752.735 1395.57,757.568 1400.5,763C 1395.65,768.015 1390.65,772.848 1385.5,777.5C 1380.3,773.137 1375.64,768.303 1371.5,763C 1375.66,758.009 1379.99,753.176 1384.5,748.5 Z"/></g>
<g><path style="opacity:1" fill="#383838" d="M 1533.5,750.5 C 1543.91,750.258 1554.25,750.925 1564.5,752.5C 1564.5,763.167 1564.5,773.833 1564.5,784.5C 1540.83,787.084 1517.16,789.751 1493.5,792.5C 1493.5,788.5 1493.5,784.5 1493.5,780.5C 1507.34,778.86 1521.01,776.36 1534.5,773C 1532.26,772.023 1529.93,771.523 1527.5,771.5C 1527.5,765.167 1527.5,758.833 1527.5,752.5C 1529.79,752.405 1531.79,751.738 1533.5,750.5 Z"/></g>
<g><path style="opacity:1" fill="#343434" d="M 1006.5,761.5 C 1023.83,761.5 1041.17,761.5 1058.5,761.5C 1058.5,817.833 1058.5,874.167 1058.5,930.5C 989.833,930.5 921.167,930.5 852.5,930.5C 852.5,917.5 852.5,904.5 852.5,891.5C 882.167,891.5 911.833,891.5 941.5,891.5C 941.5,864.833 941.5,838.167 941.5,811.5C 958.833,811.5 976.167,811.5 993.5,811.5C 993.5,838.167 993.5,864.833 993.5,891.5C 997.833,891.5 1002.17,891.5 1006.5,891.5C 1006.5,848.167 1006.5,804.833 1006.5,761.5 Z"/></g>
<g><path style="opacity:1" fill="#333433" d="M 1071.5,761.5 C 1088.83,761.5 1106.17,761.5 1123.5,761.5C 1123.5,817.833 1123.5,874.167 1123.5,930.5C 1106.17,930.5 1088.83,930.5 1071.5,930.5C 1071.5,874.167 1071.5,817.833 1071.5,761.5 Z"/></g>
<g><path style="opacity:1" fill="#343434" d="M 1207.5,834.5 C 1207.5,862.833 1207.5,891.167 1207.5,919.5C 1223.68,919.83 1239.68,919.496 1255.5,918.5C 1255.5,866.167 1255.5,813.833 1255.5,761.5C 1272.83,761.5 1290.17,761.5 1307.5,761.5C 1307.5,826.833 1307.5,892.167 1307.5,957.5C 1257.17,957.5 1206.83,957.5 1156.5,957.5C 1156.5,920.5 1156.5,883.5 1156.5,846.5C 1173.47,842.342 1190.47,838.342 1207.5,834.5 Z"/></g>
<g><path style="opacity:1" fill="#f7f7f7" d="M 1541.5,761.5 C 1544.83,761.5 1548.17,761.5 1551.5,761.5C 1551.5,764.833 1551.5,768.167 1551.5,771.5C 1548.14,771.616 1544.81,771.949 1541.5,772.5C 1541.5,768.833 1541.5,765.167 1541.5,761.5 Z"/></g>
<g><path style="opacity:1" fill="#343434" d="M 1400.5,997.5 C 1399.67,965.669 1399.17,933.669 1399,901.5C 1398.28,902.044 1397.78,902.711 1397.5,903.5C 1394.43,912.388 1391.76,921.388 1389.5,930.5C 1366.83,930.5 1344.17,930.5 1321.5,930.5C 1321.5,894.5 1321.5,858.5 1321.5,822.5C 1322.79,822.737 1323.79,822.404 1324.5,821.5C 1339.8,818.406 1355.13,815.24 1370.5,812C 1397.16,811.5 1423.83,811.333 1450.5,811.5C 1450.5,838.167 1450.5,864.833 1450.5,891.5C 1463.5,891.667 1476.5,891.5 1489.5,891C 1480.9,888.189 1472.24,885.689 1463.5,883.5C 1463.5,859.5 1463.5,835.5 1463.5,811.5C 1507.17,811.5 1550.83,811.5 1594.5,811.5C 1594.5,835.5 1594.5,859.5 1594.5,883.5C 1585.11,885.682 1575.77,888.182 1566.5,891C 1588.83,891.667 1611.17,891.667 1633.5,891C 1625.12,888.654 1616.78,886.154 1608.5,883.5C 1607.5,859.509 1607.17,835.509 1607.5,811.5C 1650.83,811.5 1694.17,811.5 1737.5,811.5C 1737.5,838.167 1737.5,864.833 1737.5,891.5C 1741.83,891.5 1746.17,891.5 1750.5,891.5C 1750.5,868.167 1750.5,844.833 1750.5,821.5C 1761.9,818.645 1773.24,815.478 1784.5,812C 1816.5,811.5 1848.5,811.333 1880.5,811.5C 1880.5,838.167 1880.5,864.833 1880.5,891.5C 1884.83,891.5 1889.17,891.5 1893.5,891.5C 1893.5,848.167 1893.5,804.833 1893.5,761.5C 1910.83,761.5 1928.17,761.5 1945.5,761.5C 1945.5,817.833 1945.5,874.167 1945.5,930.5C 1780.5,930.5 1615.5,930.5 1450.5,930.5C 1450.5,948.167 1450.5,965.833 1450.5,983.5C 1433.88,988.291 1417.22,992.958 1400.5,997.5 Z"/></g>
<g><path style="opacity:1" fill="#343434" d="M 1958.5,761.5 C 1975.83,761.5 1993.17,761.5 2010.5,761.5C 2010.5,817.833 2010.5,874.167 2010.5,930.5C 1993.17,930.5 1975.83,930.5 1958.5,930.5C 1958.5,874.167 1958.5,817.833 1958.5,761.5 Z"/></g>
<g><path style="opacity:1" fill="#343434" d="M 2260.5,761.5 C 2277.83,761.5 2295.17,761.5 2312.5,761.5C 2312.5,804.833 2312.5,848.167 2312.5,891.5C 2319.17,891.5 2325.83,891.5 2332.5,891.5C 2332.5,864.833 2332.5,838.167 2332.5,811.5C 2349.83,811.5 2367.17,811.5 2384.5,811.5C 2384.5,851.167 2384.5,890.833 2384.5,930.5C 2343.17,930.5 2301.83,930.5 2260.5,930.5C 2260.5,874.167 2260.5,817.833 2260.5,761.5 Z"/></g>
<g><path style="opacity:1" fill="#3a3a3a" d="M 1843.5,769.5 C 1846.17,769.5 1848.83,769.5 1851.5,769.5C 1851.8,774.43 1851.47,779.263 1850.5,784C 1826.85,787.081 1803.19,789.914 1779.5,792.5C 1779.5,788.5 1779.5,784.5 1779.5,780.5C 1801.07,777.462 1822.4,773.795 1843.5,769.5 Z"/></g>
<g><path style="opacity:1" fill="#383838" d="M 2391.5,769.5 C 2393.44,773.715 2394.1,778.381 2393.5,783.5C 2369.92,787.072 2346.25,790.072 2322.5,792.5C 2322.5,788.5 2322.5,784.5 2322.5,780.5C 2345.45,776.509 2368.45,772.842 2391.5,769.5 Z"/></g>
<g><path style="opacity:1" fill="#a9a9a9" d="M 2391.5,769.5 C 2392.21,768.596 2393.21,768.263 2394.5,768.5C 2394.82,773.695 2394.49,778.695 2393.5,783.5C 2394.1,778.381 2393.44,773.715 2391.5,769.5 Z"/></g>
<g><path style="opacity:1" fill="#383838" d="M 2180.5,802.5 C 2181.1,813.091 2180.44,823.425 2178.5,833.5C 2155.55,836.577 2132.55,839.244 2109.5,841.5C 2109.5,837.5 2109.5,833.5 2109.5,829.5C 2123.82,827.336 2138.15,825.169 2152.5,823C 2149.7,821.604 2146.7,820.77 2143.5,820.5C 2143.19,814.242 2143.52,808.076 2144.5,802C 2149.42,800.919 2154.42,800.419 2159.5,800.5C 2166.72,800.418 2173.72,801.085 2180.5,802.5 Z"/></g>
<g><path style="opacity:1" fill="#707070" d="M 2180.5,802.5 C 2181.49,812.653 2181.83,822.986 2181.5,833.5C 2180.5,833.5 2179.5,833.5 2178.5,833.5C 2180.44,823.425 2181.1,813.091 2180.5,802.5 Z"/></g>
<g><path style="opacity:1" fill="#343434" d="M 837.5,821.5 C 838.494,861.761 838.827,902.094 838.5,942.5C 822.123,947.011 805.789,951.678 789.5,956.5C 787.835,921.345 786.835,886.012 786.5,850.5C 779.833,850.5 773.167,850.5 766.5,850.5C 766.5,886.167 766.5,921.833 766.5,957.5C 716.167,957.5 665.833,957.5 615.5,957.5C 615.173,920.427 615.507,883.427 616.5,846.5C 632.874,842.656 649.208,838.656 665.5,834.5C 666.498,862.662 666.831,890.995 666.5,919.5C 682.5,919.5 698.5,919.5 714.5,919.5C 714.5,887.833 714.5,856.167 714.5,824.5C 730.756,820.186 747.09,816.019 763.5,812C 776.833,811.333 790.167,811.333 803.5,812C 814.78,815.484 826.114,818.651 837.5,821.5 Z"/></g>
<g><path style="opacity:1" fill="#f2f2f2" d="M 2157.5,810.5 C 2160.83,810.5 2164.17,810.5 2167.5,810.5C 2167.5,813.833 2167.5,817.167 2167.5,820.5C 2164.17,821.167 2160.83,821.833 2157.5,822.5C 2157.5,818.5 2157.5,814.5 2157.5,810.5 Z"/></g>
<g><path style="opacity:1" fill="#343434" d="M 2092.5,811.5 C 2093.5,811.5 2094.5,811.5 2095.5,811.5C 2095.5,838.167 2095.5,864.833 2095.5,891.5C 2128.83,891.5 2162.17,891.5 2195.5,891.5C 2195.5,864.833 2195.5,838.167 2195.5,811.5C 2212.83,811.5 2230.17,811.5 2247.5,811.5C 2247.5,851.167 2247.5,890.833 2247.5,930.5C 2179.5,930.5 2111.5,930.5 2043.5,930.5C 2043.33,895.165 2043.5,859.832 2044,824.5C 2060.28,820.224 2076.44,815.891 2092.5,811.5 Z"/></g>
<g><path style="opacity:1" fill="#7f7f7f" d="M 837.5,821.5 C 838.833,841.322 839.5,861.489 839.5,882C 839.5,902.336 839.167,922.503 838.5,942.5C 838.827,902.094 838.494,861.761 837.5,821.5 Z"/></g>
<g><path style="opacity:1" fill="#515151" d="M 1324.5,821.5 C 1323.79,822.404 1322.79,822.737 1321.5,822.5C 1321.5,858.5 1321.5,894.5 1321.5,930.5C 1320.5,894.337 1320.17,858.004 1320.5,821.5C 1321.83,821.5 1323.17,821.5 1324.5,821.5 Z"/></g>
<g><path style="opacity:1" fill="#b6b6b6" d="M 714.5,824.5 C 714.5,856.167 714.5,887.833 714.5,919.5C 698.5,919.5 682.5,919.5 666.5,919.5C 666.831,890.995 666.498,862.662 665.5,834.5C 665.56,833.957 665.893,833.624 666.5,833.5C 667.5,861.825 667.833,890.159 667.5,918.5C 682.833,918.5 698.167,918.5 713.5,918.5C 713.168,886.996 713.502,855.662 714.5,824.5 Z"/></g>
<g><path style="opacity:1" fill="#828282" d="M 1207.5,834.5 C 1208.5,862.328 1208.83,890.328 1208.5,918.5C 1224.17,918.5 1239.83,918.5 1255.5,918.5C 1239.68,919.496 1223.68,919.83 1207.5,919.5C 1207.5,891.167 1207.5,862.833 1207.5,834.5 Z"/></g>
<g><path style="opacity:1" fill="#7b7b7b" d="M 616.5,846.5 C 615.507,883.427 615.173,920.427 615.5,957.5C 665.833,957.5 716.167,957.5 766.5,957.5C 716.003,958.499 665.336,958.832 614.5,958.5C 613.84,920.818 614.506,883.485 616.5,846.5 Z"/></g>
<g><path style="opacity:1" fill="#a0a0a0" d="M 786.5,850.5 C 786.835,886.012 787.835,921.345 789.5,956.5C 788.791,957.404 787.791,957.737 786.5,957.5C 786.5,921.833 786.5,886.167 786.5,850.5 Z"/></g>
<g><path style="opacity:1" fill="#fdfdfd" d="M 1372.5,850.5 C 1381.17,850.5 1389.83,850.5 1398.5,850.5C 1398.5,864.167 1398.5,877.833 1398.5,891.5C 1389.83,891.5 1381.17,891.5 1372.5,891.5C 1372.5,877.833 1372.5,864.167 1372.5,850.5 Z"/></g>
<g><path style="opacity:1" fill="#9a9a9a" d="M 1516.5,850.5 C 1516.5,862.167 1516.5,873.833 1516.5,885.5C 1524.83,885.5 1533.17,885.5 1541.5,885.5C 1541.5,873.833 1541.5,862.167 1541.5,850.5C 1542.5,862.322 1542.83,874.322 1542.5,886.5C 1533.5,886.5 1524.5,886.5 1515.5,886.5C 1515.17,874.322 1515.5,862.322 1516.5,850.5 Z"/></g>
<g><path style="opacity:1" fill="#fefffe" d="M 1516.5,850.5 C 1524.83,850.5 1533.17,850.5 1541.5,850.5C 1541.5,862.167 1541.5,873.833 1541.5,885.5C 1533.17,885.5 1524.83,885.5 1516.5,885.5C 1516.5,873.833 1516.5,862.167 1516.5,850.5 Z"/></g>
<g><path style="opacity:1" fill="#7c7c7c" d="M 1659.5,850.5 C 1659.5,862.167 1659.5,873.833 1659.5,885.5C 1668.17,885.5 1676.83,885.5 1685.5,885.5C 1676.68,886.493 1667.68,886.827 1658.5,886.5C 1658.17,874.322 1658.5,862.322 1659.5,850.5 Z"/></g>
<g><path style="opacity:1" fill="#fcfcfc" d="M 1659.5,850.5 C 1668.17,850.5 1676.83,850.5 1685.5,850.5C 1685.5,862.167 1685.5,873.833 1685.5,885.5C 1676.83,885.5 1668.17,885.5 1659.5,885.5C 1659.5,873.833 1659.5,862.167 1659.5,850.5 Z"/></g>
<g><path style="opacity:1" fill="#fefefe" d="M 1802.5,850.5 C 1811.17,850.5 1819.83,850.5 1828.5,850.5C 1828.5,864.167 1828.5,877.833 1828.5,891.5C 1819.83,891.5 1811.17,891.5 1802.5,891.5C 1802.5,877.833 1802.5,864.167 1802.5,850.5 Z"/></g>
<g><path style="opacity:1" fill="#6a6a6a" d="M 1400.5,997.5 C 1400.44,998.043 1400.11,998.376 1399.5,998.5C 1398.83,966.669 1398.17,935.003 1397.5,903.5C 1397.78,902.711 1398.28,902.044 1399,901.5C 1399.17,933.669 1399.67,965.669 1400.5,997.5 Z"/></g>
<g><path style="opacity:1" fill="#373737" d="M 2144.5,946.5 C 2153.95,954.119 2162.62,962.619 2170.5,972C 2162.7,980.972 2154.36,989.472 2145.5,997.5C 2136.2,989.867 2127.53,981.534 2119.5,972.5C 2127.85,963.813 2136.19,955.146 2144.5,946.5 Z"/></g>
<g><path style="opacity:1" fill="#353535" d="M 2357.5,946.5 C 2366.48,954.812 2375.15,963.479 2383.5,972.5C 2375.47,981.362 2366.97,989.695 2358,997.5C 2349.03,989.695 2340.53,981.362 2332.5,972.5C 2340.85,963.813 2349.19,955.146 2357.5,946.5 Z"/></g>
<g><path style="opacity:1" fill="#373737" d="M 889.5,975.5 C 887.158,971.884 886.825,967.884 888.5,963.5C 911.801,959.617 935.134,955.95 958.5,952.5C 958.5,957.5 958.5,962.5 958.5,967.5C 935.451,969.756 912.451,972.423 889.5,975.5 Z"/></g>
<g><path style="opacity:1" fill="#949494" d="M 888.5,963.5 C 886.825,967.884 887.158,971.884 889.5,975.5C 888.791,976.404 887.791,976.737 886.5,976.5C 885.903,971.706 886.57,967.373 888.5,963.5 Z"/></g>
<g><path style="opacity:1" fill="#363636" d="M 674.5,974.5 C 679.085,977.414 683.085,981.08 686.5,985.5C 681.968,990.196 677.635,995.029 673.5,1000C 677.635,1004.97 681.968,1009.8 686.5,1014.5C 683.167,1018.5 679.5,1022.17 675.5,1025.5C 666.681,1017.18 658.014,1008.68 649.5,1000C 658.036,991.632 666.369,983.132 674.5,974.5 Z"/></g>
<g><path style="opacity:1" fill="#353535" d="M 704.5,974.5 C 713.953,982.119 722.62,990.619 730.5,1000C 722.695,1008.97 714.362,1017.47 705.5,1025.5C 696.681,1017.18 688.014,1008.68 679.5,1000C 688.036,991.632 696.369,983.132 704.5,974.5 Z"/></g>
<g><path style="opacity:1" fill="#383838" d="M 1261.5,984.5 C 1263.5,984.5 1265.5,984.5 1267.5,984.5C 1267.5,989.5 1267.5,994.5 1267.5,999.5C 1243.81,1001.92 1220.14,1004.59 1196.5,1007.5C 1196.5,1003.5 1196.5,999.5 1196.5,995.5C 1218.37,992.355 1240.04,988.688 1261.5,984.5 Z"/></g>
<g><path style="opacity:1" fill="#383838" d="M 1395.5,1021.5 C 1396.03,1026.81 1395.36,1031.81 1393.5,1036.5C 1370.56,1039.58 1347.56,1042.24 1324.5,1044.5C 1324.5,1040.5 1324.5,1036.5 1324.5,1032.5C 1348.19,1028.94 1371.85,1025.27 1395.5,1021.5 Z"/></g>
<g><path style="opacity:1" fill="#979797" d="M 1395.5,1021.5 C 1396.49,1026.31 1396.82,1031.31 1396.5,1036.5C 1395.5,1036.5 1394.5,1036.5 1393.5,1036.5C 1395.36,1031.81 1396.03,1026.81 1395.5,1021.5 Z"/></g>
<g><path style="opacity:1" fill="#393939" d="M 1041.5,1023.5 C 1051.93,1023.2 1062.26,1023.87 1072.5,1025.5C 1072.5,1036.17 1072.5,1046.83 1072.5,1057.5C 1048.47,1059.95 1024.47,1062.62 1000.5,1065.5C 1000.5,1061.5 1000.5,1057.5 1000.5,1053.5C 1014.67,1051.53 1028.67,1049.03 1042.5,1046C 1040.32,1044.8 1037.99,1044.3 1035.5,1044.5C 1035.5,1038.17 1035.5,1031.83 1035.5,1025.5C 1037.79,1025.41 1039.79,1024.74 1041.5,1023.5 Z"/></g>
<g><path style="opacity:1" fill="#fdfdfd" d="M 1049.5,1034.5 C 1052.5,1034.5 1055.5,1034.5 1058.5,1034.5C 1058.5,1037.83 1058.5,1041.17 1058.5,1044.5C 1055.52,1044.96 1052.52,1045.3 1049.5,1045.5C 1049.5,1041.83 1049.5,1038.17 1049.5,1034.5 Z"/></g>
<g><path style="opacity:1" fill="#3a3a3a" d="M 2133.5,1042.5 C 2136.17,1042.5 2138.83,1042.5 2141.5,1042.5C 2141.5,1047.5 2141.5,1052.5 2141.5,1057.5C 2117.48,1060 2093.48,1062.67 2069.5,1065.5C 2069.5,1061.5 2069.5,1057.5 2069.5,1053.5C 2091.07,1050.46 2112.4,1046.8 2133.5,1042.5 Z"/></g>
<g><path style="opacity:1" fill="#393939" d="M 1583.5,1046.5 C 1585.44,1051.06 1586.11,1056.06 1585.5,1061.5C 1561.57,1064.99 1537.57,1067.99 1513.5,1070.5C 1513.5,1066.5 1513.5,1062.5 1513.5,1058.5C 1537.01,1054.91 1560.35,1050.91 1583.5,1046.5 Z"/></g>
<g><path style="opacity:1" fill="#363636" d="M 2001.5,1053.5 C 2011.63,1063.13 2021.63,1072.96 2031.5,1083C 2021.67,1092.83 2011.83,1102.67 2002,1112.5C 1992.17,1102.67 1982.33,1092.83 1972.5,1083C 1982.37,1073.3 1992.04,1063.47 2001.5,1053.5 Z"/></g>
<g><path style="opacity:1" fill="#353535" d="M 1358.5,1061.5 C 1359.55,1061.35 1360.55,1061.52 1361.5,1062C 1369.68,1070.01 1377.68,1078.18 1385.5,1086.5C 1377.18,1095.32 1368.68,1103.99 1360,1112.5C 1351.32,1103.99 1342.82,1095.32 1334.5,1086.5C 1342.52,1078.15 1350.52,1069.81 1358.5,1061.5 Z"/></g>
<g><path style="opacity:1" fill="#fbfbfb" d="M 2000.5,1068.5 C 2006.24,1072.73 2011.57,1077.57 2016.5,1083C 2011.67,1087.83 2006.83,1092.67 2002,1097.5C 1997.17,1092.67 1992.33,1087.83 1987.5,1083C 1991.67,1078 1996,1073.16 2000.5,1068.5 Z"/></g>
<g><path style="opacity:1" fill="#383838" d="M 1554.5,1074.5 C 1556.15,1081.27 1557.15,1088.27 1557.5,1095.5C 1562.06,1094.37 1566.73,1093.71 1571.5,1093.5C 1572.04,1086.18 1572.37,1078.84 1572.5,1071.5C 1576.86,1071.41 1581.19,1071.08 1585.5,1070.5C 1585.5,1082.17 1585.5,1093.83 1585.5,1105.5C 1568.86,1107.77 1552.19,1109.94 1535.5,1112C 1528.49,1112.5 1521.49,1112.33 1514.5,1111.5C 1514.52,1100.81 1515.02,1090.15 1516,1079.5C 1520.04,1078.24 1524.21,1077.58 1528.5,1077.5C 1528.5,1084.83 1528.5,1092.17 1528.5,1099.5C 1533.45,1099.44 1538.29,1098.77 1543,1097.5C 1543.83,1090.19 1544.33,1082.85 1544.5,1075.5C 1547.83,1075.17 1551.17,1074.83 1554.5,1074.5 Z"/></g>
<g><path style="opacity:1" fill="#383838" d="M 937.5,1070.5 C 947.902,1070.32 958.235,1070.99 968.5,1072.5C 968.5,1083.17 968.5,1093.83 968.5,1104.5C 944.506,1107.17 920.506,1109.83 896.5,1112.5C 896.5,1108.5 896.5,1104.5 896.5,1100.5C 910.663,1098.53 924.663,1096.03 938.5,1093C 936.187,1092.34 933.854,1091.84 931.5,1091.5C 931.17,1085.13 931.504,1078.8 932.5,1072.5C 934.336,1071.97 936.003,1071.31 937.5,1070.5 Z"/></g>
<g><path style="opacity:1" fill="#383838" d="M 1856.5,1070.5 C 1866.93,1070.2 1877.26,1070.87 1887.5,1072.5C 1887.5,1083.17 1887.5,1093.83 1887.5,1104.5C 1863.5,1107.17 1839.5,1109.83 1815.5,1112.5C 1815.5,1108.5 1815.5,1104.5 1815.5,1100.5C 1829.66,1098.53 1843.66,1096.03 1857.5,1093C 1855.19,1092.34 1852.85,1091.84 1850.5,1091.5C 1850.17,1085.13 1850.5,1078.8 1851.5,1072.5C 1853.34,1071.97 1855,1071.31 1856.5,1070.5 Z"/></g>
<g><path style="opacity:1" fill="#969696" d="M 1554.5,1074.5 C 1555.21,1073.6 1556.21,1073.26 1557.5,1073.5C 1557.5,1080.83 1557.5,1088.17 1557.5,1095.5C 1557.15,1088.27 1556.15,1081.27 1554.5,1074.5 Z"/></g>
<g><path style="opacity:1" fill="#f2f2f2" d="M 944.5,1081.5 C 947.833,1081.5 951.167,1081.5 954.5,1081.5C 954.5,1084.83 954.5,1088.17 954.5,1091.5C 951.399,1091.69 948.399,1092.36 945.5,1093.5C 944.509,1089.55 944.176,1085.55 944.5,1081.5 Z"/></g>
<g><path style="opacity:1" fill="#343434" d="M 1010.5,1081.5 C 1027.83,1081.5 1045.17,1081.5 1062.5,1081.5C 1062.5,1124.83 1062.5,1168.17 1062.5,1211.5C 1066.83,1211.5 1071.17,1211.5 1075.5,1211.5C 1075.17,1188.26 1075.51,1165.09 1076.5,1142C 1087.45,1138.51 1098.45,1135.18 1109.5,1132C 1137.17,1131.17 1164.84,1131.33 1192.5,1132.5C 1194.23,1145.11 1195.56,1157.78 1196.5,1170.5C 1173.5,1170.5 1150.5,1170.5 1127.5,1170.5C 1127.5,1184.17 1127.5,1197.83 1127.5,1211.5C 1157.17,1211.5 1186.83,1211.5 1216.5,1211.5C 1216.5,1224.5 1216.5,1237.5 1216.5,1250.5C 1137.5,1250.67 1058.5,1250.5 979.5,1250C 968.23,1246.52 956.897,1243.35 945.5,1240.5C 945.666,1234.49 945.499,1228.49 945,1222.5C 942.025,1231.76 938.859,1240.92 935.5,1250C 912.836,1250.5 890.169,1250.67 867.5,1250.5C 867.5,1214.17 867.5,1177.83 867.5,1141.5C 878.914,1138.65 890.247,1135.48 901.5,1132C 933.498,1131.5 965.498,1131.33 997.5,1131.5C 997.5,1158.17 997.5,1184.83 997.5,1211.5C 1001.83,1211.5 1006.17,1211.5 1010.5,1211.5C 1010.5,1168.17 1010.5,1124.83 1010.5,1081.5 Z"/></g>
<g><path style="opacity:1" fill="#353535" d="M 1229.5,1081.5 C 1247.17,1081.5 1264.83,1081.5 1282.5,1081.5C 1282.5,1124.83 1282.5,1168.17 1282.5,1211.5C 1295.5,1211.67 1308.5,1211.5 1321.5,1211C 1313.12,1208.65 1304.78,1206.15 1296.5,1203.5C 1295.5,1179.51 1295.17,1155.51 1295.5,1131.5C 1338.83,1131.5 1382.17,1131.5 1425.5,1131.5C 1425.5,1171.17 1425.5,1210.83 1425.5,1250.5C 1360.17,1250.5 1294.83,1250.5 1229.5,1250.5C 1229.5,1194.17 1229.5,1137.83 1229.5,1081.5 Z"/></g>
<g><path style="opacity:1" fill="#f2f2f2" d="M 1863.5,1081.5 C 1866.83,1081.5 1870.17,1081.5 1873.5,1081.5C 1873.5,1084.83 1873.5,1088.17 1873.5,1091.5C 1870.4,1091.69 1867.4,1092.36 1864.5,1093.5C 1863.51,1089.55 1863.18,1085.55 1863.5,1081.5 Z"/></g>
<g><path style="opacity:1" fill="#343434" d="M 2079.5,1081.5 C 2096.83,1081.5 2114.17,1081.5 2131.5,1081.5C 2131.5,1137.83 2131.5,1194.17 2131.5,1250.5C 2075.17,1250.5 2018.83,1250.5 1962.5,1250.5C 1962.5,1268.17 1962.5,1285.83 1962.5,1303.5C 1945.18,1307.99 1928.02,1312.99 1911,1318.5C 1910.5,1282.83 1910.33,1247.17 1910.5,1211.5C 1919.17,1211.5 1927.83,1211.5 1936.5,1211.5C 1936.5,1188.17 1936.5,1164.83 1936.5,1141.5C 1947.89,1138.65 1959.22,1135.48 1970.5,1132C 2002.5,1131.5 2034.5,1131.33 2066.5,1131.5C 2066.5,1158.17 2066.5,1184.83 2066.5,1211.5C 2070.83,1211.5 2075.17,1211.5 2079.5,1211.5C 2079.5,1168.17 2079.5,1124.83 2079.5,1081.5 Z"/></g>
<g><path style="opacity:1" fill="#3a3a3a" d="M 1744.5,1089.5 C 1747.17,1089.5 1749.83,1089.5 1752.5,1089.5C 1752.5,1094.5 1752.5,1099.5 1752.5,1104.5C 1728.48,1107 1704.48,1109.67 1680.5,1112.5C 1680.5,1108.5 1680.5,1104.5 1680.5,1100.5C 1702.07,1097.46 1723.4,1093.8 1744.5,1089.5 Z"/></g>
<g><path style="opacity:1" fill="#343434" d="M 1676.5,1132.5 C 1678.16,1158.65 1679.16,1184.98 1679.5,1211.5C 1683.17,1211.5 1686.83,1211.5 1690.5,1211.5C 1690.5,1184.83 1690.5,1158.17 1690.5,1131.5C 1707.83,1131.5 1725.17,1131.5 1742.5,1131.5C 1742.5,1158.17 1742.5,1184.83 1742.5,1211.5C 1746.17,1211.5 1749.83,1211.5 1753.5,1211.5C 1753.5,1184.83 1753.5,1158.17 1753.5,1131.5C 1770.83,1131.5 1788.17,1131.5 1805.5,1131.5C 1805.5,1158.17 1805.5,1184.83 1805.5,1211.5C 1812.17,1211.5 1818.83,1211.5 1825.5,1211.5C 1825.5,1184.83 1825.5,1158.17 1825.5,1131.5C 1842.83,1131.5 1860.17,1131.5 1877.5,1131.5C 1877.5,1171.17 1877.5,1210.83 1877.5,1250.5C 1754.83,1250.5 1632.17,1250.5 1509.5,1250.5C 1509.5,1268.17 1509.5,1285.83 1509.5,1303.5C 1492.82,1308.17 1476.15,1312.84 1459.5,1317.5C 1458.5,1282.34 1458.17,1247 1458.5,1211.5C 1466.83,1211.5 1475.17,1211.5 1483.5,1211.5C 1483.17,1188.26 1483.51,1165.09 1484.5,1142C 1495.62,1139.04 1506.62,1135.71 1517.5,1132C 1549.83,1131.5 1582.16,1131.33 1614.5,1131.5C 1614.5,1158.17 1614.5,1184.83 1614.5,1211.5C 1618.83,1211.5 1623.17,1211.5 1627.5,1211.5C 1627.33,1189.16 1627.5,1166.83 1628,1144.5C 1644.02,1139.95 1660.18,1135.95 1676.5,1132.5 Z"/></g>
<g><path style="opacity:1" fill="#757575" d="M 1676.5,1132.5 C 1677.21,1131.6 1678.21,1131.26 1679.5,1131.5C 1679.5,1158.17 1679.5,1184.83 1679.5,1211.5C 1679.16,1184.98 1678.16,1158.65 1676.5,1132.5 Z"/></g>
<g><path style="opacity:1" fill="#fefefe" d="M 919.5,1170.5 C 928.167,1170.5 936.833,1170.5 945.5,1170.5C 945.5,1184.17 945.5,1197.83 945.5,1211.5C 936.833,1211.5 928.167,1211.5 919.5,1211.5C 919.5,1197.83 919.5,1184.17 919.5,1170.5 Z"/></g>
<g><path style="opacity:1" fill="#929292" d="M 1347.5,1170.5 C 1347.5,1182.17 1347.5,1193.83 1347.5,1205.5C 1355.83,1205.5 1364.17,1205.5 1372.5,1205.5C 1372.5,1193.83 1372.5,1182.17 1372.5,1170.5C 1373.5,1182.32 1373.83,1194.32 1373.5,1206.5C 1364.5,1206.5 1355.5,1206.5 1346.5,1206.5C 1346.17,1194.32 1346.5,1182.32 1347.5,1170.5 Z"/></g>
<g><path style="opacity:1" fill="#fefffe" d="M 1347.5,1170.5 C 1355.83,1170.5 1364.17,1170.5 1372.5,1170.5C 1372.5,1182.17 1372.5,1193.83 1372.5,1205.5C 1364.17,1205.5 1355.83,1205.5 1347.5,1205.5C 1347.5,1193.83 1347.5,1182.17 1347.5,1170.5 Z"/></g>
<g><path style="opacity:1" fill="#f7f7f7" d="M 1535.5,1170.5 C 1544.5,1170.5 1553.5,1170.5 1562.5,1170.5C 1562.5,1184.17 1562.5,1197.83 1562.5,1211.5C 1553.5,1211.5 1544.5,1211.5 1535.5,1211.5C 1535.5,1197.83 1535.5,1184.17 1535.5,1170.5 Z"/></g>
<g><path style="opacity:1" fill="#fdfdfd" d="M 1988.5,1170.5 C 1997.17,1170.5 2005.83,1170.5 2014.5,1170.5C 2014.5,1184.17 2014.5,1197.83 2014.5,1211.5C 2005.83,1211.5 1997.17,1211.5 1988.5,1211.5C 1988.5,1197.83 1988.5,1184.17 1988.5,1170.5 Z"/></g>
<g><path style="opacity:1" fill="#747474" d="M 1458.5,1211.5 C 1458.17,1247 1458.5,1282.34 1459.5,1317.5C 1459.44,1318.04 1459.11,1318.38 1458.5,1318.5C 1457.17,1282.67 1457.17,1247 1458.5,1211.5 Z"/></g>
<g><path style="opacity:1" fill="#1c4365" d="M 2999.5,1219.5 C 2999.5,1222.83 2999.5,1226.17 2999.5,1229.5C 2950.27,1230.48 2902.27,1238.15 2855.5,1252.5C 2823.76,1261.58 2792.76,1272.75 2762.5,1286C 2684.49,1320.79 2610.49,1362.12 2540.5,1410C 2502.71,1436.43 2467.88,1466.6 2436,1500.5C 2326.97,1622.58 2315.97,1753.24 2403,1892.5C 2427.65,1930.33 2455.15,1965.99 2485.5,1999.5C 2476.83,1999.5 2468.17,1999.5 2459.5,1999.5C 2427.32,1965.16 2399.16,1927.83 2375,1887.5C 2292.61,1743.83 2306.94,1610.83 2418,1488.5C 2434.56,1471.27 2451.73,1454.77 2469.5,1439C 2531.34,1389.23 2598.01,1346.57 2669.5,1311C 2720.76,1284.36 2773.76,1262.19 2828.5,1244.5C 2843.33,1240.21 2858.33,1236.37 2873.5,1233C 2914.99,1223.78 2956.99,1219.28 2999.5,1219.5 Z"/></g>
<g><path style="opacity:1" fill="#fdfdfd" d="M 2999.5,1229.5 C 2999.5,1264.5 2999.5,1299.5 2999.5,1334.5C 2956.38,1298.93 2908.38,1271.6 2855.5,1252.5C 2902.27,1238.15 2950.27,1230.48 2999.5,1229.5 Z"/></g>
<g><path style="opacity:1" fill="#feb24f" d="M 2828.5,1244.5 C 2773.76,1262.19 2720.76,1284.36 2669.5,1311C 2598.01,1346.57 2531.34,1389.23 2469.5,1439C 2451.73,1454.77 2434.56,1471.27 2418,1488.5C 2306.94,1610.83 2292.61,1743.83 2375,1887.5C 2399.16,1927.83 2427.32,1965.16 2459.5,1999.5C 2374.17,1999.5 2288.83,1999.5 2203.5,1999.5C 2168.43,1960.71 2138.27,1918.38 2113,1872.5C 2052.82,1758.21 2059.48,1648.21 2133,1542.5C 2164.83,1500 2202,1462.83 2244.5,1431C 2324.36,1372.97 2410.02,1324.3 2501.5,1285C 2546.32,1265.84 2592.66,1251.5 2640.5,1242C 2703.39,1228.57 2766.06,1229.4 2828.5,1244.5 Z"/></g>
<g><path style="opacity:1" fill="#feb24f" d="M 2855.5,1252.5 C 2908.38,1271.6 2956.38,1298.93 2999.5,1334.5C 2999.5,1556.17 2999.5,1777.83 2999.5,1999.5C 2828.17,1999.5 2656.83,1999.5 2485.5,1999.5C 2455.15,1965.99 2427.65,1930.33 2403,1892.5C 2315.97,1753.24 2326.97,1622.58 2436,1500.5C 2467.88,1466.6 2502.71,1436.43 2540.5,1410C 2610.49,1362.12 2684.49,1320.79 2762.5,1286C 2792.76,1272.75 2823.76,1261.58 2855.5,1252.5 Z"/></g>
<g><path style="opacity:1" fill="#353535" d="M 1850.5,1266.5 C 1859.91,1274.41 1868.91,1282.91 1877.5,1292C 1868.99,1300.68 1860.32,1309.18 1851.5,1317.5C 1842.68,1309.18 1834.01,1300.68 1825.5,1292C 1834.04,1283.63 1842.37,1275.13 1850.5,1266.5 Z"/></g>
<g><path style="opacity:1" fill="#373737" d="M 1174.5,1272.5 C 1176.5,1272.5 1178.5,1272.5 1180.5,1272.5C 1180.5,1277.5 1180.5,1282.5 1180.5,1287.5C 1156.81,1289.92 1133.14,1292.59 1109.5,1295.5C 1109.5,1291.5 1109.5,1287.5 1109.5,1283.5C 1131.38,1280.35 1153.05,1276.69 1174.5,1272.5 Z"/></g>
<g><path style="opacity:1" fill="#1c4468" d="M -0.5,1298.5 C 61.1058,1318.13 117.772,1346.97 169.5,1385C 233.343,1433.17 291.176,1488 343,1549.5C 399.857,1618.35 452.857,1690.02 502,1764.5C 522.301,1796.09 540.301,1829.09 556,1863.5C 575.007,1906.86 585.174,1952.19 586.5,1999.5C 579.167,1999.5 571.833,1999.5 564.5,1999.5C 564.096,1953.65 554.929,1909.65 537,1867.5C 521.339,1831.84 503.339,1797.51 483,1764.5C 439.557,1694.4 392.224,1627.06 341,1562.5C 293.76,1503.93 240.594,1451.43 181.5,1405C 132.73,1367.94 79.3969,1338.6 21.5,1317C 14.2967,1314.32 6.96338,1312.15 -0.5,1310.5C -0.5,1306.5 -0.5,1302.5 -0.5,1298.5 Z"/></g>
<g><path style="opacity:1" fill="#fefefe" d="M -0.5,1310.5 C 6.96338,1312.15 14.2967,1314.32 21.5,1317C 79.3969,1338.6 132.73,1367.94 181.5,1405C 240.594,1451.43 293.76,1503.93 341,1562.5C 392.224,1627.06 439.557,1694.4 483,1764.5C 503.339,1797.51 521.339,1831.84 537,1867.5C 554.929,1909.65 564.096,1953.65 564.5,1999.5C 451.167,1999.5 337.833,1999.5 224.5,1999.5C 221.955,1957.99 212.789,1917.99 197,1879.5C 182.752,1847 166.419,1815.67 148,1785.5C 102.517,1713.2 53.0173,1643.87 -0.5,1577.5C -0.5,1488.5 -0.5,1399.5 -0.5,1310.5 Z"/></g>
<g><path style="opacity:1" fill="#363636" d="M 1836.5,1310.5 C 1841.48,1315.14 1846.48,1319.81 1851.5,1324.5C 1856.49,1320.02 1861.32,1315.35 1866,1310.5C 1869.83,1314.33 1873.67,1318.17 1877.5,1322C 1868.99,1330.68 1860.32,1339.18 1851.5,1347.5C 1842.68,1339.18 1834.01,1330.68 1825.5,1322C 1829.37,1318.3 1833.04,1314.46 1836.5,1310.5 Z"/></g>
<g><path style="opacity:1" fill="#ffb34f" d="M -0.5,1577.5 C 53.0173,1643.87 102.517,1713.2 148,1785.5C 166.419,1815.67 182.752,1847 197,1879.5C 212.789,1917.99 221.955,1957.99 224.5,1999.5C 149.5,1999.5 74.5,1999.5 -0.5,1999.5C -0.5,1858.83 -0.5,1718.17 -0.5,1577.5 Z"/></g>
</svg>
