<?xml version="1.0" encoding="UTF-8"?>
<!DOCTYPE svg PUBLIC "-//W3C//DTD SVG 1.1//EN" "http://www.w3.org/Graphics/SVG/1.1/DTD/svg11.dtd">
<svg xmlns="http://www.w3.org/2000/svg" version="1.1" width="3000px" height="2000px" style="shape-rendering:geometricPrecision; text-rendering:geometricPrecision; image-rendering:optimizeQuality; fill-rule:evenodd; clip-rule:evenodd" xmlns:xlink="http://www.w3.org/1999/xlink">
<g><path style="opacity:1" fill="#fefefe" d="M -0.5,-0.5 C 521.167,-0.5 1042.83,-0.5 1564.5,-0.5C 1582.19,89.2069 1621.35,167.874 1682,235.5C 1693.37,248.033 1705.2,260.033 1717.5,271.5C 1753.12,318.279 1797.79,353.779 1851.5,378C 1899.4,397.205 1948.73,402.205 1999.5,393C 2027.59,386.31 2053.59,374.976 2077.5,359C 2098.75,343.092 2119.41,326.425 2139.5,309C 2196.89,268.145 2251.56,271.479 2303.5,319C 2335.2,348.265 2360.7,382.098 2380,420.5C 2395.38,454.303 2411.71,487.636 2429,520.5C 2442.64,546.263 2460.48,568.763 2482.5,588C 2537.43,630.397 2597.43,639.063 2662.5,614C 2684.34,604.586 2704.01,591.92 2721.5,576C 2741.36,557.992 2758.36,537.825 2772.5,515.5C 2832.31,457.543 2867.48,386.876 2878,303.5C 2881.33,272.833 2881.33,242.166 2878,211.5C 2871.42,167.585 2863.42,123.918 2854,80.5C 2849,53.6559 2845.17,26.6559 2842.5,-0.5C 2894.83,-0.5 2947.17,-0.5 2999.5,-0.5C 2999.5,666.167 2999.5,1332.83 2999.5,1999.5C 2605.83,1999.5 2212.17,1999.5 1818.5,1999.5C 1774.28,1974.48 1735.44,1942.48 1702,1903.5C 1684.29,1882.12 1666.95,1860.46 1650,1838.5C 1609.72,1781.22 1569.05,1724.22 1528,1667.5C 1475.85,1597.68 1416.35,1534.51 1349.5,1478C 1256.81,1403.53 1153.81,1346.53 1040.5,1307C 972.272,1282.02 901.938,1266.35 829.5,1260C 757.171,1255.37 686.171,1262.87 616.5,1282.5C 523.068,1264.6 438.401,1227.44 362.5,1171C 297.37,1120.2 239.204,1062.37 188,997.5C 136.364,930.845 89.0307,861.178 46,788.5C 30.473,761.437 14.973,734.437 -0.5,707.5C -0.5,471.5 -0.5,235.5 -0.5,-0.5 Z"/></g>
<g><path style="opacity:1" fill="#184266" d="M 1564.5,-0.5 C 1990.5,-0.5 2416.5,-0.5 2842.5,-0.5C 2845.17,26.6559 2849,53.6559 2854,80.5C 2863.42,123.918 2871.42,167.585 2878,211.5C 2881.33,242.166 2881.33,272.833 2878,303.5C 2867.48,386.876 2832.31,457.543 2772.5,515.5C 2715.48,568.086 2649.48,583.919 2574.5,563C 2534.17,547.988 2501.33,523.155 2476,488.5C 2466.17,474.172 2456.83,459.505 2448,444.5C 2430.25,411.34 2412.25,378.34 2394,345.5C 2369.56,305.385 2338.39,271.219 2300.5,243C 2250.06,208.008 2199.39,207.675 2148.5,242C 2142.17,247 2135.83,252 2129.5,257C 2112.8,272.703 2095.8,288.037 2078.5,303C 2020.3,348.221 1954.63,364.888 1881.5,353C 1833.46,344.804 1789.79,326.471 1750.5,298C 1739.44,289.15 1728.44,280.317 1717.5,271.5C 1705.2,260.033 1693.37,248.033 1682,235.5C 1621.35,167.874 1582.19,89.2069 1564.5,-0.5 Z"/></g>
<g><path style="opacity:1" fill="#feb24f" d="M 2772.5,515.5 C 2758.36,537.825 2741.36,557.992 2721.5,576C 2704.01,591.92 2684.34,604.586 2662.5,614C 2597.43,639.063 2537.43,630.397 2482.5,588C 2460.48,568.763 2442.64,546.263 2429,520.5C 2411.71,487.636 2395.38,454.303 2380,420.5C 2360.7,382.098 2335.2,348.265 2303.5,319C 2251.56,271.479 2196.89,268.145 2139.5,309C 2119.41,326.425 2098.75,343.092 2077.5,359C 2053.59,374.976 2027.59,386.31 1999.5,393C 1948.73,402.205 1899.4,397.205 1851.5,378C 1797.79,353.779 1753.12,318.279 1717.5,271.5C 1728.44,280.317 1739.44,289.15 1750.5,298C 1789.79,326.471 1833.46,344.804 1881.5,353C 1954.63,364.888 2020.3,348.221 2078.5,303C 2095.8,288.037 2112.8,272.703 2129.5,257C 2135.83,252 2142.17,247 2148.5,242C 2199.39,207.675 2250.06,208.008 2300.5,243C 2338.39,271.219 2369.56,305.385 2394,345.5C 2412.25,378.34 2430.25,411.34 2448,444.5C 2456.83,459.505 2466.17,474.172 2476,488.5C 2501.33,523.155 2534.17,547.988 2574.5,563C 2649.48,583.919 2715.48,568.086 2772.5,515.5 Z"/></g>
<g><path style="opacity:1" fill="#feb24f" d="M -0.5,707.5 C 14.973,734.437 30.473,761.437 46,788.5C 89.0307,861.178 136.364,930.845 188,997.5C 239.204,1062.37 297.37,1120.2 362.5,1171C 438.401,1227.44 523.068,1264.6 616.5,1282.5C 594.433,1289.47 572.433,1296.97 550.5,1305C 499.605,1325.45 448.938,1346.45 398.5,1368C 351.225,1387.32 302.559,1401.98 252.5,1412C 189.552,1422.97 126.552,1423.31 63.5,1413C 42.0421,1409.01 20.7088,1404.51 -0.5,1399.5C -0.5,1168.83 -0.5,938.167 -0.5,707.5 Z"/></g>
<g><path style="opacity:1" fill="#363636" d="M 1692.5,747.5 C 1707.46,747.301 1713.63,754.634 1711,769.5C 1710.29,774.285 1708.79,778.785 1706.5,783C 1710.84,783.093 1715.17,783.093 1719.5,783C 1716.61,789.663 1714.11,796.497 1712,803.5C 1705.97,805.046 1700.14,804.38 1694.5,801.5C 1690.21,804.319 1685.87,807.152 1681.5,810C 1674.86,813.265 1668.19,813.265 1661.5,810C 1654.59,807.053 1648.59,802.886 1643.5,797.5C 1655.51,794.499 1667.51,791.499 1679.5,788.5C 1674.57,776.045 1676.07,764.379 1684,753.5C 1686.64,751.109 1689.47,749.109 1692.5,747.5 Z"/></g>
<g><path style="opacity:1" fill="#f7f7f7" d="M 1686.5,769.5 C 1696.45,768.113 1700.78,772.446 1699.5,782.5C 1692.24,782.206 1686.91,778.873 1683.5,772.5C 1684.34,771.265 1685.34,770.265 1686.5,769.5 Z"/></g>
<g><path style="opacity:1" fill="#353535" d="M 989.5,776.5 C 990.302,777.952 990.802,779.618 991,781.5C 991.848,813.964 990.181,846.298 986,878.5C 980.087,889.993 973.921,901.327 967.5,912.5C 970.629,914.022 973.963,914.855 977.5,915C 994.843,916.835 1012.18,918.668 1029.5,920.5C 1028,940.835 1023.5,960.501 1016,979.5C 1013.8,984.744 1010.96,989.578 1007.5,994C 990.105,1004.47 971.439,1011.8 951.5,1016C 926.107,1021.55 900.44,1025.05 874.5,1026.5C 875.357,1022.42 876.191,1018.42 877,1014.5C 870.775,1020.86 863.275,1025.03 854.5,1027C 841.902,1029.59 829.235,1031.75 816.5,1033.5C 791.711,1108.6 746.044,1124.76 679.5,1082C 705.714,1073.6 731.714,1064.6 757.5,1055C 772.405,1048.88 787.071,1042.21 801.5,1035C 808.716,1022.07 815.549,1008.9 822,995.5C 825.684,988.238 831.518,983.738 839.5,982C 851.22,980.662 862.887,978.995 874.5,977C 879.977,975.396 885.311,973.396 890.5,971C 893.198,963.24 895.698,955.407 898,947.5C 901.394,946.544 904.894,946.211 908.5,946.5C 906.837,955.826 905.17,965.16 903.5,974.5C 931.356,972.56 959.023,969.06 986.5,964C 988.044,963.71 989.377,963.044 990.5,962C 967.962,960.09 945.629,956.923 923.5,952.5C 929.733,937.703 936.733,923.369 944.5,909.5C 948.469,910.33 952.469,910.996 956.5,911.5C 956.171,878.715 953.171,846.215 947.5,814C 959.559,799.095 973.559,786.595 989.5,776.5 Z"/></g>
<g><path style="opacity:1" fill="#383838" d="M 1071.5,800.5 C 1072.22,800.918 1072.72,801.584 1073,802.5C 1073.5,805.817 1073.67,809.15 1073.5,812.5C 1051.79,819.959 1030.13,827.625 1008.5,835.5C 1006.76,832.738 1006.42,829.905 1007.5,827C 1029.05,818.434 1050.39,809.6 1071.5,800.5 Z"/></g>
<g><path style="opacity:1" fill="#353535" d="M 1777.5,829.5 C 1778.75,829.577 1779.58,830.244 1780,831.5C 1786.91,871.185 1789.58,911.185 1788,951.5C 1785.97,961.948 1783.47,972.282 1780.5,982.5C 1785.43,986.252 1790.26,990.252 1795,994.5C 1800.04,999.532 1801.71,1005.53 1800,1012.5C 1795.42,1030.74 1786.25,1046.24 1772.5,1059C 1759.97,1064.05 1746.97,1067.38 1733.5,1069C 1710.82,1071.17 1688.16,1073.33 1665.5,1075.5C 1666.67,1071.51 1667.5,1067.51 1668,1063.5C 1662,1069.59 1654.83,1073.75 1646.5,1076C 1627.68,1079.85 1608.68,1082.35 1589.5,1083.5C 1589.89,1078.97 1590.72,1074.64 1592,1070.5C 1586.03,1076.9 1578.86,1081.4 1570.5,1084C 1553.03,1087.92 1535.36,1090.42 1517.5,1091.5C 1515.8,1073.83 1513.97,1056.16 1512,1038.5C 1504.67,1053.16 1496.34,1067.16 1487,1080.5C 1467.84,1102.17 1444.34,1108.67 1416.5,1100C 1401.53,1095.8 1387.86,1089.13 1375.5,1080C 1417.73,1067.48 1458.73,1051.81 1498.5,1033C 1511.29,1017.93 1523.95,1002.76 1536.5,987.5C 1538.58,989.288 1540.74,990.954 1543,992.5C 1544.34,1008.19 1545.84,1023.86 1547.5,1039.5C 1567.24,1039.55 1586.24,1035.89 1604.5,1028.5C 1607.4,1020.74 1610.06,1012.9 1612.5,1005C 1616.21,1004.17 1619.88,1004.34 1623.5,1005.5C 1620.99,1014.4 1618.99,1023.4 1617.5,1032.5C 1632.58,1031.35 1647.58,1029.52 1662.5,1027C 1668.99,1025.06 1675.32,1022.73 1681.5,1020C 1683.93,1012.21 1686.26,1004.37 1688.5,996.5C 1692.17,996.5 1695.83,996.5 1699.5,996.5C 1697.71,1005.89 1695.71,1015.22 1693.5,1024.5C 1705.8,1022.93 1718.14,1021.59 1730.5,1020.5C 1732.75,1006.9 1736.92,993.904 1743,981.5C 1748,975.14 1754.5,972.807 1762.5,974.5C 1758.96,941 1751.63,908.334 1740.5,876.5C 1750.19,858.805 1762.52,843.139 1777.5,829.5 Z"/></g>
<g><path style="opacity:1" fill="#363636" d="M 1339.5,830.5 C 1349.43,830.021 1359.1,831.354 1368.5,834.5C 1365.14,842.225 1361.47,849.891 1357.5,857.5C 1356.83,857.833 1356.17,858.167 1355.5,858.5C 1346.44,855.055 1337.11,853.888 1327.5,855C 1323.21,856.845 1322.54,859.512 1325.5,863C 1340.23,870.109 1355.06,870.276 1370,863.5C 1371.77,864.27 1373.27,865.437 1374.5,867C 1368.83,873.333 1363.17,879.667 1357.5,886C 1342.11,890.61 1326.61,894.777 1311,898.5C 1308.65,898.742 1306.82,897.908 1305.5,896C 1311.68,890.656 1317.68,885.156 1323.5,879.5C 1310.31,866.13 1310.31,852.63 1323.5,839C 1328.48,835.344 1333.82,832.511 1339.5,830.5 Z"/></g>
<g><path style="opacity:1" fill="#353535" d="M 1027.5,860.5 C 1034.11,870.861 1041.11,881.028 1048.5,891C 1039.34,897.415 1030,903.582 1020.5,909.5C 1011.35,901.355 1003.69,892.021 997.5,881.5C 1007.52,874.475 1017.52,867.475 1027.5,860.5 Z"/></g>
<g><path style="opacity:1" fill="#383838" d="M 931.5,874.5 C 932.5,874.5 933.5,874.5 934.5,874.5C 935.586,878.178 935.586,881.845 934.5,885.5C 913.423,892.97 892.423,900.637 871.5,908.5C 869.835,906.744 868.835,904.577 868.5,902C 868.833,901.5 869.167,901 869.5,900.5C 890.348,892.003 911.015,883.336 931.5,874.5 Z"/></g>
<g><path style="opacity:1" fill="#373737" d="M 1647.5,880.5 C 1649.42,884.029 1650.09,888.029 1649.5,892.5C 1627.83,899.833 1606.17,907.167 1584.5,914.5C 1583.55,911.792 1583.55,909.126 1584.5,906.5C 1605.7,898.057 1626.7,889.39 1647.5,880.5 Z"/></g>
<g><path style="opacity:1" fill="#373737" d="M 2079.5,884.5 C 2094.62,883.374 2101.12,890.374 2099,905.5C 2098.12,910.373 2096.62,915.04 2094.5,919.5C 2098.52,920.013 2102.52,920.346 2106.5,920.5C 2104.23,926.796 2102.07,933.129 2100,939.5C 2097.93,940.134 2095.76,940.468 2093.5,940.5C 2088.8,939.866 2084.13,939.366 2079.5,939C 2070.42,949.035 2059.75,951.369 2047.5,946C 2041.25,943.38 2035.91,939.547 2031.5,934.5C 2043.45,931.241 2055.45,928.074 2067.5,925C 2063.31,918.604 2062.47,911.771 2065,904.5C 2066.57,899.125 2068.9,894.125 2072,889.5C 2074.48,887.686 2076.98,886.019 2079.5,884.5 Z"/></g>
<g><path style="opacity:1" fill="#363636" d="M 1707.5,890.5 C 1716.99,899.496 1720.16,910.496 1717,923.5C 1713.67,942.197 1702.84,949.697 1684.5,946C 1676.5,941.159 1672.83,933.992 1673.5,924.5C 1673.18,916.473 1675.68,909.473 1681,903.5C 1682.16,903.998 1682.99,904.831 1683.5,906C 1680.16,917.985 1684.66,924.485 1697,925.5C 1702.16,925.227 1706.5,923.227 1710,919.5C 1710.67,918.5 1710.67,917.5 1710,916.5C 1706.49,912.322 1702.99,908.155 1699.5,904C 1702.3,899.571 1704.96,895.071 1707.5,890.5 Z"/></g>
<g><path style="opacity:1" fill="#383838" d="M 1226.5,898.5 C 1227.5,898.5 1228.5,898.5 1229.5,898.5C 1230.64,902.382 1230.64,906.216 1229.5,910C 1208.46,917.401 1187.46,924.901 1166.5,932.5C 1164.84,930.744 1163.84,928.577 1163.5,926C 1163.83,925.5 1164.17,925 1164.5,924.5C 1185.35,916.003 1206.02,907.336 1226.5,898.5 Z"/></g>
<g><path style="opacity:1" fill="#353535" d="M 2234.5,900.5 C 2235.5,900.414 2236.33,900.748 2237,901.5C 2238.62,950.716 2235.79,999.716 2228.5,1048.5C 2246.15,1047.3 2263.65,1044.96 2281,1041.5C 2281.95,1041.09 2282.61,1040.43 2283,1039.5C 2285.49,1029.55 2287.66,1019.55 2289.5,1009.5C 2293.23,1009.18 2296.89,1009.51 2300.5,1010.5C 2297.39,1037.6 2290.23,1063.6 2279,1088.5C 2254.23,1094.6 2229.06,1098.27 2203.5,1099.5C 2203.67,1084.5 2203.5,1069.5 2203,1054.5C 2200.49,1014.49 2198.16,974.489 2196,934.5C 2207.54,921.442 2220.38,910.108 2234.5,900.5 Z"/></g>
<g><path style="opacity:1" fill="#353535" d="M 1088.5,901.5 C 1090.05,902.23 1090.88,903.563 1091,905.5C 1092.18,953.339 1089.84,1001.01 1084,1048.5C 1077.47,1063.08 1071.14,1077.75 1065,1092.5C 1063.73,1098.58 1060.56,1099.92 1055.5,1096.5C 1054.67,1075.51 1054.17,1054.51 1054,1033.5C 1052.17,1001.16 1050.5,968.823 1049,936.5C 1054.13,930.365 1059.63,924.531 1065.5,919C 1072.78,912.536 1080.45,906.702 1088.5,901.5 Z"/></g>
<g><path style="opacity:1" fill="#353535" d="M 1356.5,901.5 C 1358.05,902.23 1358.88,903.563 1359,905.5C 1360.2,953.34 1357.86,1001.01 1352,1048.5C 1344.72,1064.38 1338.05,1080.38 1332,1096.5C 1343.67,1091.5 1355.33,1086.5 1367,1081.5C 1368.27,1085.4 1368.77,1089.4 1368.5,1093.5C 1346.79,1100.96 1325.13,1108.63 1303.5,1116.5C 1301.76,1113.74 1301.42,1110.91 1302.5,1108C 1310.66,1105.06 1318.66,1101.72 1326.5,1098C 1325.5,1097.5 1324.5,1097 1323.5,1096.5C 1322.67,1075.51 1322.17,1054.51 1322,1033.5C 1320.17,1001.16 1318.5,968.823 1317,936.5C 1322.13,930.365 1327.63,924.531 1333.5,919C 1340.78,912.536 1348.45,906.702 1356.5,901.5 Z"/></g>
<g><path style="opacity:1" fill="#353535" d="M 1860.5,901.5 C 1862.05,902.23 1862.88,903.563 1863,905.5C 1864.41,954.08 1861.74,1002.41 1855,1050.5C 1849,1064.5 1843,1078.5 1837,1092.5C 1835.73,1098.58 1832.56,1099.92 1827.5,1096.5C 1826.67,1075.51 1826.17,1054.51 1826,1033.5C 1824.17,1001.16 1822.5,968.822 1821,936.5C 1826.13,930.365 1831.63,924.531 1837.5,919C 1844.78,912.536 1852.45,906.702 1860.5,901.5 Z"/></g>
<g><path style="opacity:1" fill="#f7f7f7" d="M 2073.5,906.5 C 2083.89,904.558 2088.56,908.892 2087.5,919.5C 2079.95,919.06 2074.29,915.56 2070.5,909C 2071.57,908.148 2072.57,907.315 2073.5,906.5 Z"/></g>
<g><path style="opacity:1" fill="#363636" d="M 1646.5,927.5 C 1647.98,927.238 1649.31,927.571 1650.5,928.5C 1647.84,939.295 1645.51,950.128 1643.5,961C 1623.88,965.123 1604.38,969.623 1585,974.5C 1586.31,963.938 1588.14,953.438 1590.5,943C 1609.42,938.258 1628.09,933.092 1646.5,927.5 Z"/></g>
<g><path style="opacity:1" fill="#383838" d="M 1543.5,931.5 C 1544.79,933.048 1545.46,935.048 1545.5,937.5C 1545.17,939.5 1544.83,941.5 1544.5,943.5C 1523.42,950.97 1502.42,958.637 1481.5,966.5C 1479.84,964.744 1478.84,962.577 1478.5,960C 1478.83,959.5 1479.17,959 1479.5,958.5C 1500.93,949.475 1522.27,940.475 1543.5,931.5 Z"/></g>
<g><path style="opacity:1" fill="#373737" d="M 2315.5,942.5 C 2316.5,942.5 2317.5,942.5 2318.5,942.5C 2318.5,946.5 2318.5,950.5 2318.5,954.5C 2297.26,961.526 2276.09,968.859 2255,976.5C 2252.46,974.287 2251.96,971.621 2253.5,968.5C 2274.35,960.003 2295.02,951.336 2315.5,942.5 Z"/></g>
<g><path style="opacity:1" fill="#353535" d="M 1208.5,955.5 C 1215.33,954.197 1221.17,955.864 1226,960.5C 1235.02,977.386 1238.02,995.386 1235,1014.5C 1232.2,1044.93 1219.7,1070.43 1197.5,1091C 1182.98,1102.05 1166.65,1106.05 1148.5,1103C 1129.5,1099.56 1112.5,1091.9 1097.5,1080C 1134.91,1068.46 1171.58,1054.96 1207.5,1039.5C 1208.61,1035.51 1208.61,1031.51 1207.5,1027.5C 1196.37,1028.04 1185.37,1027.21 1174.5,1025C 1164.16,1021.5 1161,1014.66 1165,1004.5C 1174.48,983.527 1188.98,967.193 1208.5,955.5 Z"/></g>
<g><path style="opacity:1" fill="#353535" d="M 2144.5,959.5 C 2148.33,960.818 2151.5,963.152 2154,966.5C 2163.5,977.674 2169.34,990.508 2171.5,1005C 2169.05,1027.01 2162.22,1047.51 2151,1066.5C 2139.1,1076.71 2125.6,1084.21 2110.5,1089C 2073.45,1101.67 2035.45,1106.01 1996.5,1102C 1982.24,1099.58 1969.24,1094.25 1957.5,1086C 1941.8,1073.23 1937.3,1057.4 1944,1038.5C 1956.66,1011.17 1973.99,987.169 1996,966.5C 1998.4,976.161 2000.4,985.827 2002,995.5C 1990.14,1003.7 1979.3,1013.2 1969.5,1024C 1977.81,1036.99 1989.47,1045.32 2004.5,1049C 2022.96,1052.98 2041.63,1054.31 2060.5,1053C 2077.97,1051.65 2095.3,1049.32 2112.5,1046C 2123.57,1043.59 2134.24,1040.09 2144.5,1035.5C 2140.73,1028.96 2136.23,1022.96 2131,1017.5C 2123.66,1010.99 2116.49,1004.32 2109.5,997.5C 2121.19,984.813 2132.86,972.146 2144.5,959.5 Z"/></g>
<g><path style="opacity:1" fill="#353535" d="M 875.5,1047.5 C 876.376,1047.37 877.043,1047.7 877.5,1048.5C 883.087,1058.68 889.421,1068.35 896.5,1077.5C 887.284,1083.7 878.117,1090.03 869,1096.5C 859.397,1088.46 851.563,1078.96 845.5,1068C 855.678,1061.3 865.678,1054.47 875.5,1047.5 Z"/></g>
<g><path style="opacity:1" fill="#353535" d="M 1666.5,1096.5 C 1673.11,1106.86 1680.11,1117.03 1687.5,1127C 1678.34,1133.42 1669,1139.58 1659.5,1145.5C 1650.35,1137.35 1642.69,1128.02 1636.5,1117.5C 1646.52,1110.47 1656.52,1103.47 1666.5,1096.5 Z"/></g>
<g><path style="opacity:1" fill="#383838" d="M 799.5,1113.5 C 800.222,1113.92 800.722,1114.58 801,1115.5C 801.498,1118.82 801.665,1122.15 801.5,1125.5C 779.793,1132.96 758.126,1140.63 736.5,1148.5C 734.757,1145.74 734.423,1142.91 735.5,1140C 757.055,1131.43 778.388,1122.6 799.5,1113.5 Z"/></g>
<g><path style="opacity:1" fill="#353535" d="M 2265.5,1113.5 C 2272.11,1123.86 2279.11,1134.03 2286.5,1144C 2277.34,1150.42 2268,1156.58 2258.5,1162.5C 2249.35,1154.35 2241.69,1145.02 2235.5,1134.5C 2245.52,1127.47 2255.52,1120.47 2265.5,1113.5 Z"/></g>
<g><path style="opacity:1" fill="#363636" d="M 2056.5,1122.5 C 2058.07,1122.94 2059.24,1123.94 2060,1125.5C 2065.47,1134.94 2071.3,1144.1 2077.5,1153C 2068.66,1159.34 2059.66,1165.5 2050.5,1171.5C 2040.66,1163.99 2032.99,1154.65 2027.5,1143.5C 2037.02,1136.25 2046.69,1129.25 2056.5,1122.5 Z"/></g>
<g><path style="opacity:1" fill="#184266" d="M 1818.5,1999.5 C 1212.17,1999.5 605.833,1999.5 -0.5,1999.5C -0.5,1799.5 -0.5,1599.5 -0.5,1399.5C 20.7088,1404.51 42.0421,1409.01 63.5,1413C 126.552,1423.31 189.552,1422.97 252.5,1412C 302.559,1401.98 351.225,1387.32 398.5,1368C 448.938,1346.45 499.605,1325.45 550.5,1305C 572.433,1296.97 594.433,1289.47 616.5,1282.5C 686.171,1262.87 757.171,1255.37 829.5,1260C 901.938,1266.35 972.272,1282.02 1040.5,1307C 1153.81,1346.53 1256.81,1403.53 1349.5,1478C 1416.35,1534.51 1475.85,1597.68 1528,1667.5C 1569.05,1724.22 1609.72,1781.22 1650,1838.5C 1666.95,1860.46 1684.29,1882.12 1702,1903.5C 1735.44,1942.48 1774.28,1974.48 1818.5,1999.5 Z"/></g>
</svg>
